G04 #@! TF.GenerationSoftware,KiCad,Pcbnew,6.0.10+dfsg-1~bpo11+1*
G04 #@! TF.ProjectId,project,70726f6a-6563-4742-9e6b-696361645f70,rev?*
G04 #@! TF.SameCoordinates,Original*
G04 #@! TF.FileFunction,Copper,L2,Inr*
G04 #@! TF.FilePolarity,Positive*
%FSLAX46Y46*%
G04 Gerber Fmt 4.6, Leading zero omitted, Abs format (unit mm)*
%MOMM*%
%LPD*%
G01*
G04 APERTURE LIST*
G04 #@! TA.AperFunction,Profile*
%ADD10C,0.100000*%
G04 #@! TD*
G04 #@! TA.AperFunction,ComponentPad*
%ADD11C,1.800000*%
G04 #@! TD*
G04 #@! TA.AperFunction,ComponentPad*
%ADD12R,1.700000X1.700000*%
G04 #@! TD*
G04 #@! TA.AperFunction,ComponentPad*
%ADD13O,1.700000X1.700000*%
G04 #@! TD*
G04 #@! TA.AperFunction,ComponentPad*
%ADD14O,2.750000X1.450000*%
G04 #@! TD*
G04 #@! TA.AperFunction,ComponentPad*
%ADD15O,2.100000X1.000000*%
G04 #@! TD*
G04 #@! TA.AperFunction,ComponentPad*
%ADD16O,1.600000X1.000000*%
G04 #@! TD*
G04 #@! TA.AperFunction,ViaPad*
%ADD17C,0.450000*%
G04 #@! TD*
G04 APERTURE END LIST*
D10*
X120262500Y-76037500D02*
X120262500Y-75037500D01*
X184262500Y-76037500D02*
X184262500Y-90037500D01*
X184262500Y-90037500D02*
X130262500Y-90037500D01*
X130262500Y-75037500D02*
X130262500Y-76037500D01*
X130262500Y-76037500D02*
X184262500Y-76037500D01*
X120262500Y-75037500D02*
X130262500Y-75037500D01*
X118262500Y-90037500D02*
X120262500Y-90037500D01*
X120262500Y-76037500D02*
X118262500Y-76037500D01*
X120262500Y-91037500D02*
X130262500Y-91037500D01*
X118262500Y-90037500D02*
X118262500Y-76037500D01*
X130262500Y-91037500D02*
X130262500Y-90037500D01*
X120262500Y-90037500D02*
X120262500Y-91037500D01*
D11*
X137437500Y-88727500D03*
X139977500Y-88727500D03*
X153547500Y-88727500D03*
X156087500Y-88727500D03*
X156087500Y-77347500D03*
X153547500Y-77347500D03*
X139977500Y-77347500D03*
X137437500Y-77347500D03*
D12*
X179987500Y-77962500D03*
D13*
X182527500Y-77962500D03*
X179987500Y-80502500D03*
X182527500Y-80502500D03*
X179987500Y-83042500D03*
X182527500Y-83042500D03*
X179987500Y-85582500D03*
X182527500Y-85582500D03*
X179987500Y-88122500D03*
X182527500Y-88122500D03*
D14*
X122462500Y-75987500D03*
X122462500Y-90087500D03*
X128362500Y-90087500D03*
X128362500Y-75987500D03*
D15*
X124667500Y-80217500D03*
D16*
X120487500Y-88857500D03*
D15*
X124667500Y-88857500D03*
D16*
X120487500Y-80217500D03*
G04 #@! TA.AperFunction,ComponentPad*
G36*
X131362500Y-79987500D02*
G01*
X131486107Y-80007077D01*
X131597614Y-80063893D01*
X131686107Y-80152386D01*
X131742923Y-80263893D01*
X131762500Y-80387500D01*
X131742923Y-80511107D01*
X131686107Y-80622614D01*
X131597614Y-80711107D01*
X131486107Y-80767923D01*
X131362500Y-80787500D01*
X130962500Y-80787500D01*
X130962500Y-79987500D01*
X131362500Y-79987500D01*
G37*
G04 #@! TD.AperFunction*
G04 #@! TA.AperFunction,ComponentPad*
G36*
X131362500Y-76287500D02*
G01*
X131486107Y-76307077D01*
X131597614Y-76363893D01*
X131686107Y-76452386D01*
X131742923Y-76563893D01*
X131762500Y-76687500D01*
X131742923Y-76811107D01*
X131686107Y-76922614D01*
X131597614Y-77011107D01*
X131486107Y-77067923D01*
X131362500Y-77087500D01*
X130962500Y-77087500D01*
X130962500Y-76287500D01*
X131362500Y-76287500D01*
G37*
G04 #@! TD.AperFunction*
D17*
X146100000Y-84400000D03*
X161667000Y-84437500D03*
X131962500Y-77337500D03*
X164600000Y-82600000D03*
X128562500Y-84237500D03*
X170062500Y-81937500D03*
X162673034Y-85429238D03*
X171600000Y-79200000D03*
X143262500Y-82037500D03*
X176200000Y-85700000D03*
X128762500Y-79537500D03*
X159858814Y-76714438D03*
X167410176Y-78594163D03*
X170962500Y-83837500D03*
X147262500Y-81037500D03*
X134866146Y-88901301D03*
X164600000Y-79500000D03*
X168679500Y-83387531D03*
X163162500Y-89137500D03*
X161400000Y-79500000D03*
X149062500Y-80437500D03*
X159700000Y-84100000D03*
X173400000Y-88600000D03*
X159117306Y-87282694D03*
X155880704Y-83083050D03*
X155062500Y-85137500D03*
X131058000Y-86037500D03*
X158561083Y-86038001D03*
X168300000Y-79700000D03*
X169538214Y-86194804D03*
X128471329Y-86023308D03*
X134846926Y-77134206D03*
X165162500Y-89137500D03*
X159362500Y-80537500D03*
X164162500Y-89137500D03*
X169100000Y-84800000D03*
X170462500Y-83937500D03*
X175562500Y-80937500D03*
X165462310Y-85144703D03*
X162162500Y-89137500D03*
X155953333Y-80325761D03*
X173162500Y-79137500D03*
X152062500Y-84013000D03*
X161213000Y-85426577D03*
X173212500Y-86787500D03*
X128662500Y-82237500D03*
X149062500Y-84037500D03*
X131262500Y-83037500D03*
X170772534Y-78907735D03*
X170800000Y-76500000D03*
X149562500Y-86737500D03*
X149062500Y-81737500D03*
X161162500Y-89137500D03*
X161400000Y-82600000D03*
X170100000Y-80100000D03*
X160162500Y-89137500D03*
X155880704Y-83538000D03*
X144262500Y-85937500D03*
X147262500Y-87137500D03*
X168395000Y-86105000D03*
X173075000Y-82137500D03*
X148868750Y-85143750D03*
X163762500Y-84737500D03*
X167779500Y-84033000D03*
X159785332Y-85165295D03*
X168503873Y-85057850D03*
X171963719Y-82849753D03*
X160200000Y-83100000D03*
X166224500Y-78329122D03*
X160400000Y-84200000D03*
X148212500Y-89037500D03*
X150262500Y-89037500D03*
X144262500Y-89037500D03*
X176109620Y-88509619D03*
X170925000Y-87075000D03*
X174032500Y-86567500D03*
X171700000Y-78266778D03*
X149562500Y-89037500D03*
X146312500Y-89037500D03*
X173898222Y-81236406D03*
X173962500Y-83837500D03*
X136512002Y-80887000D03*
X137467444Y-80883239D03*
X135572230Y-86342000D03*
X137399818Y-84190139D03*
X138413000Y-82937500D03*
X144162500Y-80537500D03*
X144162500Y-81037500D03*
X131675718Y-82021450D03*
X139762500Y-85862000D03*
X150460408Y-85716158D03*
X157263423Y-82901796D03*
X157157568Y-84743903D03*
X158008544Y-86982954D03*
X155062500Y-85837500D03*
X157205000Y-80987500D03*
X166462500Y-87737500D03*
X160130000Y-87970000D03*
X163702301Y-87591580D03*
X166662500Y-86138000D03*
X161130000Y-87970000D03*
X150362500Y-79862500D03*
X136162500Y-79437500D03*
X135862500Y-83937500D03*
X157320503Y-79954562D03*
X156200689Y-85699311D03*
X165000000Y-83349993D03*
X164413220Y-84514518D03*
X163139103Y-84398411D03*
X161962500Y-76837500D03*
X162960812Y-76942525D03*
X153662500Y-82137000D03*
X153862500Y-80437500D03*
X155306734Y-80203000D03*
X154462500Y-84837500D03*
X175400000Y-79900000D03*
X175317599Y-77237147D03*
X171125592Y-81065354D03*
X171900000Y-77600000D03*
X175500000Y-88200000D03*
X175500000Y-86000000D03*
X134789441Y-78250431D03*
X167652169Y-85095500D03*
X135862500Y-88537500D03*
X165455500Y-84437500D03*
G04 #@! TA.AperFunction,Conductor*
G36*
X130090638Y-76157502D02*
G01*
X130100696Y-76166590D01*
X130101550Y-76165523D01*
X130108669Y-76171216D01*
X130121416Y-76183985D01*
X130125352Y-76187127D01*
X130134195Y-76198224D01*
X130146977Y-76204389D01*
X130151204Y-76207763D01*
X130157047Y-76211442D01*
X130161910Y-76213793D01*
X130172992Y-76222656D01*
X130186820Y-76225836D01*
X130191351Y-76228026D01*
X130198897Y-76230676D01*
X130203807Y-76231800D01*
X130216587Y-76237965D01*
X130239655Y-76237985D01*
X130239653Y-76240010D01*
X130239719Y-76240026D01*
X130239719Y-76238000D01*
X130256608Y-76238000D01*
X130308063Y-76238045D01*
X130308059Y-76242850D01*
X130308157Y-76242856D01*
X130308157Y-76238000D01*
X130636000Y-76238000D01*
X130704121Y-76258002D01*
X130750614Y-76311658D01*
X130762000Y-76364000D01*
X130762000Y-76665658D01*
X130741998Y-76733779D01*
X130688342Y-76780272D01*
X130618068Y-76790376D01*
X130588905Y-76782526D01*
X130585560Y-76781178D01*
X130576481Y-76777519D01*
X130570600Y-76776371D01*
X130570595Y-76776369D01*
X130374824Y-76738138D01*
X130374821Y-76738138D01*
X130370378Y-76737270D01*
X130364857Y-76737000D01*
X130210031Y-76737000D01*
X130053454Y-76751939D01*
X130047698Y-76753628D01*
X130047696Y-76753628D01*
X129970179Y-76776369D01*
X129851951Y-76811053D01*
X129751553Y-76862761D01*
X129670592Y-76904459D01*
X129670589Y-76904461D01*
X129665261Y-76907205D01*
X129615563Y-76946243D01*
X129504838Y-77033218D01*
X129504833Y-77033222D01*
X129500121Y-77036924D01*
X129496190Y-77041454D01*
X129496189Y-77041455D01*
X129366421Y-77190998D01*
X129366417Y-77191003D01*
X129362490Y-77195529D01*
X129257334Y-77377299D01*
X129251383Y-77394437D01*
X129199828Y-77542901D01*
X129188447Y-77575674D01*
X129187586Y-77581609D01*
X129187586Y-77581611D01*
X129160517Y-77768304D01*
X129158314Y-77783496D01*
X129168023Y-77993267D01*
X129169427Y-77999092D01*
X129169427Y-77999093D01*
X129201625Y-78132691D01*
X129217224Y-78197418D01*
X129219706Y-78202876D01*
X129219707Y-78202880D01*
X129262820Y-78297701D01*
X129304140Y-78388581D01*
X129425637Y-78559860D01*
X129577331Y-78705075D01*
X129582366Y-78708326D01*
X129748709Y-78815733D01*
X129748712Y-78815734D01*
X129753746Y-78818985D01*
X129759309Y-78821227D01*
X129942955Y-78895239D01*
X129942958Y-78895240D01*
X129948519Y-78897481D01*
X129954400Y-78898629D01*
X129954405Y-78898631D01*
X130150176Y-78936862D01*
X130150179Y-78936862D01*
X130154622Y-78937730D01*
X130160143Y-78938000D01*
X130314969Y-78938000D01*
X130471546Y-78923061D01*
X130477302Y-78921372D01*
X130477304Y-78921372D01*
X130566871Y-78895096D01*
X130673049Y-78863947D01*
X130802687Y-78797179D01*
X130854408Y-78770541D01*
X130854411Y-78770539D01*
X130859739Y-78767795D01*
X130935447Y-78708326D01*
X131020162Y-78641782D01*
X131020167Y-78641778D01*
X131024879Y-78638076D01*
X131028811Y-78633545D01*
X131158579Y-78484002D01*
X131158583Y-78483997D01*
X131162510Y-78479471D01*
X131267666Y-78297701D01*
X131284081Y-78250431D01*
X134358637Y-78250431D01*
X134360188Y-78260224D01*
X134375836Y-78359019D01*
X134379722Y-78383557D01*
X134440913Y-78503651D01*
X134536221Y-78598959D01*
X134656315Y-78660150D01*
X134666104Y-78661700D01*
X134666106Y-78661701D01*
X134779648Y-78679684D01*
X134789441Y-78681235D01*
X134799234Y-78679684D01*
X134912776Y-78661701D01*
X134912778Y-78661700D01*
X134922567Y-78660150D01*
X135042661Y-78598959D01*
X135137969Y-78503651D01*
X135199160Y-78383557D01*
X135203047Y-78359019D01*
X135218694Y-78260224D01*
X135220245Y-78250431D01*
X135218694Y-78240638D01*
X135200711Y-78127096D01*
X135200710Y-78127094D01*
X135199160Y-78117305D01*
X135137969Y-77997211D01*
X135042661Y-77901903D01*
X134922567Y-77840712D01*
X134912778Y-77839162D01*
X134912776Y-77839161D01*
X134799234Y-77821178D01*
X134789441Y-77819627D01*
X134779648Y-77821178D01*
X134666106Y-77839161D01*
X134666104Y-77839162D01*
X134656315Y-77840712D01*
X134536221Y-77901903D01*
X134440913Y-77997211D01*
X134379722Y-78117305D01*
X134378172Y-78127094D01*
X134378171Y-78127096D01*
X134360188Y-78240638D01*
X134358637Y-78250431D01*
X131284081Y-78250431D01*
X131336553Y-78099326D01*
X131337414Y-78093389D01*
X131365825Y-77897444D01*
X131365825Y-77897441D01*
X131366686Y-77891504D01*
X131356977Y-77681733D01*
X131335059Y-77590789D01*
X131338544Y-77519880D01*
X131379813Y-77462109D01*
X131445763Y-77435822D01*
X131515457Y-77449363D01*
X131569819Y-77504066D01*
X131609471Y-77581887D01*
X131613972Y-77590720D01*
X131709280Y-77686028D01*
X131829374Y-77747219D01*
X131839163Y-77748769D01*
X131839165Y-77748770D01*
X131952707Y-77766753D01*
X131962500Y-77768304D01*
X131972293Y-77766753D01*
X132085835Y-77748770D01*
X132085837Y-77748769D01*
X132095626Y-77747219D01*
X132215720Y-77686028D01*
X132311028Y-77590720D01*
X132372219Y-77470626D01*
X132377732Y-77435822D01*
X132391753Y-77347293D01*
X132393304Y-77337500D01*
X132385464Y-77287999D01*
X132373770Y-77214165D01*
X132373769Y-77214163D01*
X132372219Y-77204374D01*
X132336467Y-77134206D01*
X134416122Y-77134206D01*
X134417673Y-77143999D01*
X134425835Y-77195529D01*
X134437207Y-77267332D01*
X134498398Y-77387426D01*
X134593706Y-77482734D01*
X134713800Y-77543925D01*
X134723589Y-77545475D01*
X134723591Y-77545476D01*
X134837133Y-77563459D01*
X134846926Y-77565010D01*
X134856719Y-77563459D01*
X134970261Y-77545476D01*
X134970263Y-77545475D01*
X134980052Y-77543925D01*
X135100146Y-77482734D01*
X135195454Y-77387426D01*
X135256645Y-77267332D01*
X135268018Y-77195529D01*
X135276179Y-77143999D01*
X135277730Y-77134206D01*
X135256645Y-77001080D01*
X135195454Y-76880986D01*
X135100146Y-76785678D01*
X134980052Y-76724487D01*
X134970263Y-76722937D01*
X134970261Y-76722936D01*
X134856719Y-76704953D01*
X134846926Y-76703402D01*
X134837133Y-76704953D01*
X134723591Y-76722936D01*
X134723589Y-76722937D01*
X134713800Y-76724487D01*
X134593706Y-76785678D01*
X134498398Y-76880986D01*
X134437207Y-77001080D01*
X134416122Y-77134206D01*
X132336467Y-77134206D01*
X132311028Y-77084280D01*
X132215720Y-76988972D01*
X132095626Y-76927781D01*
X132085835Y-76926230D01*
X132085834Y-76926230D01*
X132074636Y-76924456D01*
X132061032Y-76922302D01*
X131996878Y-76891891D01*
X131959351Y-76831623D01*
X131955819Y-76781407D01*
X131962462Y-76730948D01*
X131962462Y-76730947D01*
X131963000Y-76726861D01*
X131962999Y-76648140D01*
X131958320Y-76612591D01*
X131948622Y-76538925D01*
X131948622Y-76538923D01*
X131947544Y-76530738D01*
X131898451Y-76412217D01*
X131890862Y-76341629D01*
X131922641Y-76278142D01*
X131983699Y-76241914D01*
X132014860Y-76238000D01*
X136698671Y-76238000D01*
X136766792Y-76258002D01*
X136813285Y-76311658D01*
X136823389Y-76381932D01*
X136793895Y-76446512D01*
X136781750Y-76458730D01*
X136635805Y-76586720D01*
X136510589Y-76745557D01*
X136416414Y-76924553D01*
X136356437Y-77117713D01*
X136332664Y-77318569D01*
X136345892Y-77520394D01*
X136365533Y-77597731D01*
X136392723Y-77704791D01*
X136395678Y-77716428D01*
X136480356Y-77900107D01*
X136483689Y-77904823D01*
X136573758Y-78032268D01*
X136597088Y-78065280D01*
X136741966Y-78206413D01*
X136910137Y-78318782D01*
X136915440Y-78321060D01*
X136915443Y-78321062D01*
X137083974Y-78393468D01*
X137095970Y-78398622D01*
X137293240Y-78443260D01*
X137299009Y-78443487D01*
X137299012Y-78443487D01*
X137375183Y-78446479D01*
X137495342Y-78451200D01*
X137581632Y-78438689D01*
X137689786Y-78423008D01*
X137689791Y-78423007D01*
X137695507Y-78422178D01*
X137700979Y-78420320D01*
X137700981Y-78420320D01*
X137881567Y-78359019D01*
X137881569Y-78359018D01*
X137887031Y-78357164D01*
X138009517Y-78288569D01*
X138058464Y-78261158D01*
X138058465Y-78261157D01*
X138063501Y-78258337D01*
X138125933Y-78206413D01*
X138214573Y-78132691D01*
X138219005Y-78129005D01*
X138327052Y-77999093D01*
X138344646Y-77977939D01*
X138348337Y-77973501D01*
X138447164Y-77797031D01*
X138463547Y-77748770D01*
X138510320Y-77610981D01*
X138510320Y-77610979D01*
X138512178Y-77605507D01*
X138513007Y-77599791D01*
X138513008Y-77599786D01*
X138537896Y-77428131D01*
X138541200Y-77405342D01*
X138542715Y-77347500D01*
X138524208Y-77146091D01*
X138509267Y-77093112D01*
X138470876Y-76956990D01*
X138469307Y-76951426D01*
X138379851Y-76770027D01*
X138365919Y-76751369D01*
X138262288Y-76612591D01*
X138262287Y-76612590D01*
X138258835Y-76607967D01*
X138235850Y-76586720D01*
X138114553Y-76474594D01*
X138114551Y-76474592D01*
X138110312Y-76470674D01*
X138105430Y-76467594D01*
X138100843Y-76464074D01*
X138102525Y-76461882D01*
X138063263Y-76417437D01*
X138052487Y-76347263D01*
X138081360Y-76282403D01*
X138140716Y-76243449D01*
X138177370Y-76238000D01*
X139238671Y-76238000D01*
X139306792Y-76258002D01*
X139353285Y-76311658D01*
X139363389Y-76381932D01*
X139333895Y-76446512D01*
X139321750Y-76458730D01*
X139175805Y-76586720D01*
X139050589Y-76745557D01*
X138956414Y-76924553D01*
X138896437Y-77117713D01*
X138872664Y-77318569D01*
X138885892Y-77520394D01*
X138905533Y-77597731D01*
X138932723Y-77704791D01*
X138935678Y-77716428D01*
X139020356Y-77900107D01*
X139023689Y-77904823D01*
X139113758Y-78032268D01*
X139137088Y-78065280D01*
X139281966Y-78206413D01*
X139450137Y-78318782D01*
X139455440Y-78321060D01*
X139455443Y-78321062D01*
X139623974Y-78393468D01*
X139635970Y-78398622D01*
X139833240Y-78443260D01*
X139839009Y-78443487D01*
X139839012Y-78443487D01*
X139915183Y-78446479D01*
X140035342Y-78451200D01*
X140121632Y-78438689D01*
X140229786Y-78423008D01*
X140229791Y-78423007D01*
X140235507Y-78422178D01*
X140240979Y-78420320D01*
X140240981Y-78420320D01*
X140421567Y-78359019D01*
X140421569Y-78359018D01*
X140427031Y-78357164D01*
X140549517Y-78288569D01*
X140598464Y-78261158D01*
X140598465Y-78261157D01*
X140603501Y-78258337D01*
X140665933Y-78206413D01*
X140754573Y-78132691D01*
X140759005Y-78129005D01*
X140867052Y-77999093D01*
X140884646Y-77977939D01*
X140888337Y-77973501D01*
X140987164Y-77797031D01*
X141003547Y-77748770D01*
X141050320Y-77610981D01*
X141050320Y-77610979D01*
X141052178Y-77605507D01*
X141053007Y-77599791D01*
X141053008Y-77599786D01*
X141077896Y-77428131D01*
X141081200Y-77405342D01*
X141082715Y-77347500D01*
X141064208Y-77146091D01*
X141049267Y-77093112D01*
X141010876Y-76956990D01*
X141009307Y-76951426D01*
X140919851Y-76770027D01*
X140905919Y-76751369D01*
X140802288Y-76612591D01*
X140802287Y-76612590D01*
X140798835Y-76607967D01*
X140775850Y-76586720D01*
X140654553Y-76474594D01*
X140654551Y-76474592D01*
X140650312Y-76470674D01*
X140645430Y-76467594D01*
X140640843Y-76464074D01*
X140642525Y-76461882D01*
X140603263Y-76417437D01*
X140592487Y-76347263D01*
X140621360Y-76282403D01*
X140680716Y-76243449D01*
X140717370Y-76238000D01*
X152808671Y-76238000D01*
X152876792Y-76258002D01*
X152923285Y-76311658D01*
X152933389Y-76381932D01*
X152903895Y-76446512D01*
X152891750Y-76458730D01*
X152745805Y-76586720D01*
X152620589Y-76745557D01*
X152526414Y-76924553D01*
X152466437Y-77117713D01*
X152442664Y-77318569D01*
X152455892Y-77520394D01*
X152475533Y-77597731D01*
X152502723Y-77704791D01*
X152505678Y-77716428D01*
X152508097Y-77721675D01*
X152571289Y-77858748D01*
X152581644Y-77928986D01*
X152552382Y-77993672D01*
X152492793Y-78032268D01*
X152456863Y-78037500D01*
X150124550Y-78037500D01*
X150120926Y-78037922D01*
X150120918Y-78037922D01*
X149902288Y-78063351D01*
X149902285Y-78063352D01*
X149895035Y-78064195D01*
X149677774Y-78142854D01*
X149603224Y-78191585D01*
X149487425Y-78267279D01*
X149487420Y-78267283D01*
X149484366Y-78269279D01*
X148922316Y-78737654D01*
X148770699Y-78895096D01*
X148767107Y-78900987D01*
X148767104Y-78900991D01*
X148701709Y-79008247D01*
X148656911Y-79081720D01*
X148654681Y-79088262D01*
X148654680Y-79088264D01*
X148621885Y-79184472D01*
X148586388Y-79288607D01*
X148562500Y-79505875D01*
X148562500Y-84796062D01*
X148542498Y-84864183D01*
X148530146Y-84879509D01*
X148527231Y-84883521D01*
X148520222Y-84890530D01*
X148459031Y-85010624D01*
X148437946Y-85143750D01*
X148459031Y-85276876D01*
X148520222Y-85396970D01*
X148527234Y-85403982D01*
X148533061Y-85412002D01*
X148531492Y-85413142D01*
X148559621Y-85464655D01*
X148562500Y-85491438D01*
X148562500Y-88532670D01*
X148542498Y-88600791D01*
X148488842Y-88647284D01*
X148418568Y-88657388D01*
X148379298Y-88644937D01*
X148354462Y-88632283D01*
X148354461Y-88632283D01*
X148345626Y-88627781D01*
X148335837Y-88626231D01*
X148335835Y-88626230D01*
X148222293Y-88608247D01*
X148212500Y-88606696D01*
X148202707Y-88608247D01*
X148089165Y-88626230D01*
X148089163Y-88626231D01*
X148079374Y-88627781D01*
X147959280Y-88688972D01*
X147863972Y-88784280D01*
X147802781Y-88904374D01*
X147801231Y-88914163D01*
X147801230Y-88914165D01*
X147790837Y-88979786D01*
X147781696Y-89037500D01*
X147783247Y-89047293D01*
X147794302Y-89117089D01*
X147802781Y-89170626D01*
X147863972Y-89290720D01*
X147959280Y-89386028D01*
X148079374Y-89447219D01*
X148089163Y-89448769D01*
X148089165Y-89448770D01*
X148202707Y-89466753D01*
X148212500Y-89468304D01*
X148222293Y-89466753D01*
X148231232Y-89466753D01*
X148299353Y-89486755D01*
X148345846Y-89540411D01*
X148355950Y-89610685D01*
X148328632Y-89672685D01*
X148277480Y-89735014D01*
X148260017Y-89752477D01*
X148191876Y-89808399D01*
X148126528Y-89836153D01*
X148111942Y-89837000D01*
X140713181Y-89837000D01*
X140645060Y-89816998D01*
X140598567Y-89763342D01*
X140588463Y-89693068D01*
X140617957Y-89628488D01*
X140632612Y-89614126D01*
X140754568Y-89512696D01*
X140754573Y-89512691D01*
X140759005Y-89509005D01*
X140867115Y-89379017D01*
X140884646Y-89357939D01*
X140888337Y-89353501D01*
X140897178Y-89337715D01*
X140943986Y-89254131D01*
X140987164Y-89177031D01*
X141010487Y-89108326D01*
X141034529Y-89037500D01*
X143831696Y-89037500D01*
X143833247Y-89047293D01*
X143844302Y-89117089D01*
X143852781Y-89170626D01*
X143913972Y-89290720D01*
X144009280Y-89386028D01*
X144129374Y-89447219D01*
X144139163Y-89448769D01*
X144139165Y-89448770D01*
X144252707Y-89466753D01*
X144262500Y-89468304D01*
X144272293Y-89466753D01*
X144385835Y-89448770D01*
X144385837Y-89448769D01*
X144395626Y-89447219D01*
X144515720Y-89386028D01*
X144611028Y-89290720D01*
X144672219Y-89170626D01*
X144680699Y-89117089D01*
X144691753Y-89047293D01*
X144693304Y-89037500D01*
X145881696Y-89037500D01*
X145883247Y-89047293D01*
X145894302Y-89117089D01*
X145902781Y-89170626D01*
X145963972Y-89290720D01*
X146059280Y-89386028D01*
X146179374Y-89447219D01*
X146189163Y-89448769D01*
X146189165Y-89448770D01*
X146302707Y-89466753D01*
X146312500Y-89468304D01*
X146322293Y-89466753D01*
X146435835Y-89448770D01*
X146435837Y-89448769D01*
X146445626Y-89447219D01*
X146565720Y-89386028D01*
X146661028Y-89290720D01*
X146722219Y-89170626D01*
X146730699Y-89117089D01*
X146741753Y-89047293D01*
X146743304Y-89037500D01*
X146734163Y-88979786D01*
X146723770Y-88914165D01*
X146723769Y-88914163D01*
X146722219Y-88904374D01*
X146661028Y-88784280D01*
X146565720Y-88688972D01*
X146445626Y-88627781D01*
X146435837Y-88626231D01*
X146435835Y-88626230D01*
X146322293Y-88608247D01*
X146312500Y-88606696D01*
X146302707Y-88608247D01*
X146189165Y-88626230D01*
X146189163Y-88626231D01*
X146179374Y-88627781D01*
X146059280Y-88688972D01*
X145963972Y-88784280D01*
X145902781Y-88904374D01*
X145901231Y-88914163D01*
X145901230Y-88914165D01*
X145890837Y-88979786D01*
X145881696Y-89037500D01*
X144693304Y-89037500D01*
X144684163Y-88979786D01*
X144673770Y-88914165D01*
X144673769Y-88914163D01*
X144672219Y-88904374D01*
X144611028Y-88784280D01*
X144515720Y-88688972D01*
X144395626Y-88627781D01*
X144385837Y-88626231D01*
X144385835Y-88626230D01*
X144272293Y-88608247D01*
X144262500Y-88606696D01*
X144252707Y-88608247D01*
X144139165Y-88626230D01*
X144139163Y-88626231D01*
X144129374Y-88627781D01*
X144009280Y-88688972D01*
X143913972Y-88784280D01*
X143852781Y-88904374D01*
X143851231Y-88914163D01*
X143851230Y-88914165D01*
X143840837Y-88979786D01*
X143831696Y-89037500D01*
X141034529Y-89037500D01*
X141050320Y-88990981D01*
X141050320Y-88990979D01*
X141052178Y-88985507D01*
X141053007Y-88979791D01*
X141053008Y-88979786D01*
X141075010Y-88828033D01*
X141081200Y-88785342D01*
X141082715Y-88727500D01*
X141064208Y-88526091D01*
X141054476Y-88491582D01*
X141026748Y-88393267D01*
X141009307Y-88331426D01*
X140919851Y-88150027D01*
X140905394Y-88130666D01*
X140802288Y-87992591D01*
X140802287Y-87992590D01*
X140798835Y-87987967D01*
X140791959Y-87981611D01*
X140654553Y-87854594D01*
X140654551Y-87854592D01*
X140650312Y-87850674D01*
X140622874Y-87833362D01*
X140484137Y-87745825D01*
X140479257Y-87742746D01*
X140291398Y-87667798D01*
X140093026Y-87628339D01*
X140087252Y-87628263D01*
X140087248Y-87628263D01*
X139984757Y-87626922D01*
X139890786Y-87625692D01*
X139885089Y-87626671D01*
X139885088Y-87626671D01*
X139697146Y-87658965D01*
X139697145Y-87658965D01*
X139691449Y-87659944D01*
X139501693Y-87729949D01*
X139496732Y-87732901D01*
X139496731Y-87732901D01*
X139333709Y-87829889D01*
X139327871Y-87833362D01*
X139175805Y-87966720D01*
X139050589Y-88125557D01*
X138956414Y-88304553D01*
X138896437Y-88497713D01*
X138872664Y-88698569D01*
X138885892Y-88900394D01*
X138900994Y-88959860D01*
X138920859Y-89038076D01*
X138935678Y-89096428D01*
X139020356Y-89280107D01*
X139137088Y-89445280D01*
X139281966Y-89586413D01*
X139286771Y-89589624D01*
X139286774Y-89589626D01*
X139311631Y-89606235D01*
X139357159Y-89660711D01*
X139366008Y-89731154D01*
X139335367Y-89795199D01*
X139274965Y-89832510D01*
X139241630Y-89837000D01*
X138173181Y-89837000D01*
X138105060Y-89816998D01*
X138058567Y-89763342D01*
X138048463Y-89693068D01*
X138077957Y-89628488D01*
X138092612Y-89614126D01*
X138214568Y-89512696D01*
X138214573Y-89512691D01*
X138219005Y-89509005D01*
X138327115Y-89379017D01*
X138344646Y-89357939D01*
X138348337Y-89353501D01*
X138357178Y-89337715D01*
X138403986Y-89254131D01*
X138447164Y-89177031D01*
X138470487Y-89108326D01*
X138510320Y-88990981D01*
X138510320Y-88990979D01*
X138512178Y-88985507D01*
X138513007Y-88979791D01*
X138513008Y-88979786D01*
X138535010Y-88828033D01*
X138541200Y-88785342D01*
X138542715Y-88727500D01*
X138524208Y-88526091D01*
X138514476Y-88491582D01*
X138486748Y-88393267D01*
X138469307Y-88331426D01*
X138379851Y-88150027D01*
X138365394Y-88130666D01*
X138262288Y-87992591D01*
X138262287Y-87992590D01*
X138258835Y-87987967D01*
X138251959Y-87981611D01*
X138114553Y-87854594D01*
X138114551Y-87854592D01*
X138110312Y-87850674D01*
X138082874Y-87833362D01*
X137944137Y-87745825D01*
X137939257Y-87742746D01*
X137751398Y-87667798D01*
X137553026Y-87628339D01*
X137547252Y-87628263D01*
X137547248Y-87628263D01*
X137444757Y-87626922D01*
X137350786Y-87625692D01*
X137345089Y-87626671D01*
X137345088Y-87626671D01*
X137157146Y-87658965D01*
X137157145Y-87658965D01*
X137151449Y-87659944D01*
X136961693Y-87729949D01*
X136956732Y-87732901D01*
X136956731Y-87732901D01*
X136793709Y-87829889D01*
X136787871Y-87833362D01*
X136635805Y-87966720D01*
X136510589Y-88125557D01*
X136430771Y-88277266D01*
X136429877Y-88278965D01*
X136380458Y-88329937D01*
X136311325Y-88346100D01*
X136244429Y-88322321D01*
X136216435Y-88294361D01*
X136215530Y-88293115D01*
X136211028Y-88284280D01*
X136115720Y-88188972D01*
X135995626Y-88127781D01*
X135985837Y-88126231D01*
X135985835Y-88126230D01*
X135872293Y-88108247D01*
X135862500Y-88106696D01*
X135852707Y-88108247D01*
X135739165Y-88126230D01*
X135739163Y-88126231D01*
X135729374Y-88127781D01*
X135609280Y-88188972D01*
X135513972Y-88284280D01*
X135452781Y-88404374D01*
X135451231Y-88414163D01*
X135451230Y-88414165D01*
X135439214Y-88490031D01*
X135431696Y-88537500D01*
X135433247Y-88547293D01*
X135433247Y-88557211D01*
X135431562Y-88557211D01*
X135423925Y-88616302D01*
X135378203Y-88670616D01*
X135310375Y-88691589D01*
X135241976Y-88672562D01*
X135215159Y-88647596D01*
X135214674Y-88648081D01*
X135119366Y-88552773D01*
X134999272Y-88491582D01*
X134989483Y-88490032D01*
X134989481Y-88490031D01*
X134875939Y-88472048D01*
X134866146Y-88470497D01*
X134856353Y-88472048D01*
X134742811Y-88490031D01*
X134742809Y-88490032D01*
X134733020Y-88491582D01*
X134612926Y-88552773D01*
X134517618Y-88648081D01*
X134456427Y-88768175D01*
X134454877Y-88777964D01*
X134454876Y-88777966D01*
X134438464Y-88881590D01*
X134435342Y-88901301D01*
X134436893Y-88911094D01*
X134445709Y-88966753D01*
X134456427Y-89034427D01*
X134517618Y-89154521D01*
X134612926Y-89249829D01*
X134733020Y-89311020D01*
X134742809Y-89312570D01*
X134742811Y-89312571D01*
X134856353Y-89330554D01*
X134866146Y-89332105D01*
X134875939Y-89330554D01*
X134989481Y-89312571D01*
X134989483Y-89312570D01*
X134999272Y-89311020D01*
X135119366Y-89249829D01*
X135214674Y-89154521D01*
X135275865Y-89034427D01*
X135286584Y-88966753D01*
X135295399Y-88911094D01*
X135296950Y-88901301D01*
X135295399Y-88891508D01*
X135295399Y-88881590D01*
X135297084Y-88881590D01*
X135304721Y-88822499D01*
X135350443Y-88768185D01*
X135418271Y-88747212D01*
X135486670Y-88766239D01*
X135513487Y-88791205D01*
X135513972Y-88790720D01*
X135609280Y-88886028D01*
X135729374Y-88947219D01*
X135739163Y-88948769D01*
X135739165Y-88948770D01*
X135852707Y-88966753D01*
X135862500Y-88968304D01*
X135872293Y-88966753D01*
X135985835Y-88948770D01*
X135985837Y-88948769D01*
X135995626Y-88947219D01*
X136115720Y-88886028D01*
X136139689Y-88862059D01*
X136202001Y-88828033D01*
X136272816Y-88833098D01*
X136329652Y-88875645D01*
X136350906Y-88920137D01*
X136395678Y-89096428D01*
X136480356Y-89280107D01*
X136597088Y-89445280D01*
X136741966Y-89586413D01*
X136746771Y-89589624D01*
X136746774Y-89589626D01*
X136771631Y-89606235D01*
X136817159Y-89660711D01*
X136826008Y-89731154D01*
X136795367Y-89795199D01*
X136734965Y-89832510D01*
X136701630Y-89837000D01*
X130268392Y-89837000D01*
X130231126Y-89836967D01*
X130231124Y-89836967D01*
X130216937Y-89836955D01*
X130204146Y-89843097D01*
X130199233Y-89844213D01*
X130191683Y-89846850D01*
X130187149Y-89849032D01*
X130173315Y-89852188D01*
X130162220Y-89861029D01*
X130157346Y-89863375D01*
X130151494Y-89867046D01*
X130147262Y-89870412D01*
X130134476Y-89876552D01*
X130125616Y-89887631D01*
X130121676Y-89890765D01*
X130108905Y-89903514D01*
X130106260Y-89905622D01*
X130101775Y-89909196D01*
X130098927Y-89905622D01*
X130062897Y-89930875D01*
X130022578Y-89937500D01*
X120502483Y-89937500D01*
X120434362Y-89917498D01*
X120424304Y-89908410D01*
X120423450Y-89909477D01*
X120416331Y-89903784D01*
X120403584Y-89891015D01*
X120399648Y-89887873D01*
X120390805Y-89876776D01*
X120378023Y-89870611D01*
X120373796Y-89867237D01*
X120367953Y-89863558D01*
X120363090Y-89861207D01*
X120352008Y-89852344D01*
X120338180Y-89849164D01*
X120333649Y-89846974D01*
X120326103Y-89844324D01*
X120321193Y-89843200D01*
X120308413Y-89837035D01*
X120285345Y-89837015D01*
X120285347Y-89834990D01*
X120285281Y-89834974D01*
X120285281Y-89837000D01*
X120268392Y-89837000D01*
X120216937Y-89836955D01*
X120216941Y-89832150D01*
X120216843Y-89832144D01*
X120216843Y-89837000D01*
X118713058Y-89837000D01*
X118644937Y-89816998D01*
X118633124Y-89808399D01*
X118564986Y-89752479D01*
X118547521Y-89735014D01*
X118491601Y-89666876D01*
X118463847Y-89601529D01*
X118463000Y-89586942D01*
X118463000Y-88938605D01*
X119486531Y-88938605D01*
X119488305Y-88945992D01*
X119488305Y-88945996D01*
X119509536Y-89034427D01*
X119526112Y-89103468D01*
X119529593Y-89110212D01*
X119529594Y-89110215D01*
X119565334Y-89179459D01*
X119603875Y-89254131D01*
X119608867Y-89259853D01*
X119608868Y-89259855D01*
X119649576Y-89306519D01*
X119715331Y-89381896D01*
X119721545Y-89386263D01*
X119847830Y-89475018D01*
X119847832Y-89475019D01*
X119854047Y-89479387D01*
X120012013Y-89540976D01*
X120019546Y-89541968D01*
X120019547Y-89541968D01*
X120137239Y-89557462D01*
X120141326Y-89558000D01*
X120830016Y-89558000D01*
X120955820Y-89542776D01*
X121114423Y-89482845D01*
X121254151Y-89386812D01*
X121279876Y-89357939D01*
X121361888Y-89265892D01*
X121361890Y-89265888D01*
X121366940Y-89260221D01*
X121373738Y-89247383D01*
X121442724Y-89117089D01*
X121446276Y-89110381D01*
X121487581Y-88945941D01*
X121487620Y-88938605D01*
X123416531Y-88938605D01*
X123418305Y-88945992D01*
X123418305Y-88945996D01*
X123439536Y-89034427D01*
X123456112Y-89103468D01*
X123459593Y-89110212D01*
X123459594Y-89110215D01*
X123495334Y-89179459D01*
X123533875Y-89254131D01*
X123538867Y-89259853D01*
X123538868Y-89259855D01*
X123579576Y-89306519D01*
X123645331Y-89381896D01*
X123651545Y-89386263D01*
X123777830Y-89475018D01*
X123777832Y-89475019D01*
X123784047Y-89479387D01*
X123942013Y-89540976D01*
X123949546Y-89541968D01*
X123949547Y-89541968D01*
X124067239Y-89557462D01*
X124071326Y-89558000D01*
X125260016Y-89558000D01*
X125385820Y-89542776D01*
X125544423Y-89482845D01*
X125684151Y-89386812D01*
X125709876Y-89357939D01*
X125791888Y-89265892D01*
X125791890Y-89265888D01*
X125796940Y-89260221D01*
X125803738Y-89247383D01*
X125872724Y-89117089D01*
X125876276Y-89110381D01*
X125917581Y-88945941D01*
X125917748Y-88914165D01*
X125918172Y-88833098D01*
X125918469Y-88776395D01*
X125907620Y-88731204D01*
X125880661Y-88618917D01*
X125878888Y-88611532D01*
X125874423Y-88602880D01*
X125804608Y-88467617D01*
X125804608Y-88467616D01*
X125801125Y-88460869D01*
X125795813Y-88454779D01*
X125694663Y-88338829D01*
X125689669Y-88333104D01*
X125610224Y-88277269D01*
X125557170Y-88239982D01*
X125557168Y-88239981D01*
X125550953Y-88235613D01*
X125417281Y-88183496D01*
X129158314Y-88183496D01*
X129168023Y-88393267D01*
X129169427Y-88399092D01*
X129169427Y-88399093D01*
X129202784Y-88537500D01*
X129217224Y-88597418D01*
X129219706Y-88602876D01*
X129219707Y-88602880D01*
X129262820Y-88697701D01*
X129304140Y-88788581D01*
X129391045Y-88911094D01*
X129415803Y-88945996D01*
X129425637Y-88959860D01*
X129577331Y-89105075D01*
X129585549Y-89110381D01*
X129748709Y-89215733D01*
X129748712Y-89215734D01*
X129753746Y-89218985D01*
X129759309Y-89221227D01*
X129942955Y-89295239D01*
X129942958Y-89295240D01*
X129948519Y-89297481D01*
X129954400Y-89298629D01*
X129954405Y-89298631D01*
X130150176Y-89336862D01*
X130150179Y-89336862D01*
X130154622Y-89337730D01*
X130160143Y-89338000D01*
X130314969Y-89338000D01*
X130471546Y-89323061D01*
X130477302Y-89321372D01*
X130477304Y-89321372D01*
X130591635Y-89287831D01*
X130673049Y-89263947D01*
X130773447Y-89212239D01*
X130854408Y-89170541D01*
X130854411Y-89170539D01*
X130859739Y-89167795D01*
X130924291Y-89117089D01*
X131020162Y-89041782D01*
X131020167Y-89041778D01*
X131024879Y-89038076D01*
X131065746Y-88990981D01*
X131158579Y-88884002D01*
X131158583Y-88883997D01*
X131162510Y-88879471D01*
X131267666Y-88697701D01*
X131336553Y-88499326D01*
X131343012Y-88454779D01*
X131365825Y-88297444D01*
X131365825Y-88297441D01*
X131366686Y-88291504D01*
X131356977Y-88081733D01*
X131307776Y-87877582D01*
X131288967Y-87836212D01*
X131241994Y-87732901D01*
X131220860Y-87686419D01*
X131127381Y-87554638D01*
X131102829Y-87520026D01*
X131102828Y-87520025D01*
X131099363Y-87515140D01*
X130947669Y-87369925D01*
X130916640Y-87349890D01*
X130776291Y-87259267D01*
X130776288Y-87259266D01*
X130771254Y-87256015D01*
X130744920Y-87245402D01*
X130582045Y-87179761D01*
X130582042Y-87179760D01*
X130576481Y-87177519D01*
X130570600Y-87176371D01*
X130570595Y-87176369D01*
X130374824Y-87138138D01*
X130374821Y-87138138D01*
X130371555Y-87137500D01*
X146831696Y-87137500D01*
X146833247Y-87147293D01*
X146843346Y-87211053D01*
X146852781Y-87270626D01*
X146913972Y-87390720D01*
X147009280Y-87486028D01*
X147129374Y-87547219D01*
X147139163Y-87548769D01*
X147139165Y-87548770D01*
X147252707Y-87566753D01*
X147262500Y-87568304D01*
X147272293Y-87566753D01*
X147385835Y-87548770D01*
X147385837Y-87548769D01*
X147395626Y-87547219D01*
X147515720Y-87486028D01*
X147611028Y-87390720D01*
X147672219Y-87270626D01*
X147681655Y-87211053D01*
X147691753Y-87147293D01*
X147693304Y-87137500D01*
X147680868Y-87058982D01*
X147673770Y-87014165D01*
X147673769Y-87014163D01*
X147672219Y-87004374D01*
X147611028Y-86884280D01*
X147515720Y-86788972D01*
X147395626Y-86727781D01*
X147385837Y-86726231D01*
X147385835Y-86726230D01*
X147272293Y-86708247D01*
X147262500Y-86706696D01*
X147252707Y-86708247D01*
X147139165Y-86726230D01*
X147139163Y-86726231D01*
X147129374Y-86727781D01*
X147009280Y-86788972D01*
X146913972Y-86884280D01*
X146852781Y-87004374D01*
X146851231Y-87014163D01*
X146851230Y-87014165D01*
X146844132Y-87058982D01*
X146831696Y-87137500D01*
X130371555Y-87137500D01*
X130370378Y-87137270D01*
X130364857Y-87137000D01*
X130210031Y-87137000D01*
X130053454Y-87151939D01*
X130047698Y-87153628D01*
X130047696Y-87153628D01*
X129997670Y-87168304D01*
X129851951Y-87211053D01*
X129769005Y-87253773D01*
X129670592Y-87304459D01*
X129670589Y-87304461D01*
X129665261Y-87307205D01*
X129660546Y-87310909D01*
X129504838Y-87433218D01*
X129504833Y-87433222D01*
X129500121Y-87436924D01*
X129496190Y-87441454D01*
X129496189Y-87441455D01*
X129366421Y-87590998D01*
X129366417Y-87591003D01*
X129362490Y-87595529D01*
X129257334Y-87777299D01*
X129255366Y-87782967D01*
X129197888Y-87948488D01*
X129188447Y-87975674D01*
X129187586Y-87981609D01*
X129187586Y-87981611D01*
X129160081Y-88171312D01*
X129158314Y-88183496D01*
X125417281Y-88183496D01*
X125392987Y-88174024D01*
X125385454Y-88173032D01*
X125385453Y-88173032D01*
X125267761Y-88157538D01*
X125267760Y-88157538D01*
X125263674Y-88157000D01*
X124383424Y-88157000D01*
X124315303Y-88136998D01*
X124268810Y-88083342D01*
X124258706Y-88013068D01*
X124288200Y-87948488D01*
X124333383Y-87915363D01*
X124335431Y-87914477D01*
X124352184Y-87907227D01*
X124404402Y-87884631D01*
X124404405Y-87884629D01*
X124412283Y-87881220D01*
X124524175Y-87790612D01*
X124607579Y-87673251D01*
X124637192Y-87590998D01*
X124653442Y-87545863D01*
X124653442Y-87545861D01*
X124656350Y-87537785D01*
X124666894Y-87394193D01*
X124638436Y-87253056D01*
X124573071Y-87124770D01*
X124475616Y-87018788D01*
X124353250Y-86942918D01*
X124214988Y-86902749D01*
X124208173Y-86902249D01*
X124207096Y-86902169D01*
X124207083Y-86902169D01*
X124204788Y-86902000D01*
X124101430Y-86902000D01*
X124097185Y-86902582D01*
X124097178Y-86902582D01*
X124038269Y-86910652D01*
X123994854Y-86916599D01*
X123986970Y-86920011D01*
X123986969Y-86920011D01*
X123870598Y-86970369D01*
X123870595Y-86970371D01*
X123862717Y-86973780D01*
X123750825Y-87064388D01*
X123667421Y-87181749D01*
X123618650Y-87317215D01*
X123618022Y-87325773D01*
X123618021Y-87325776D01*
X123612997Y-87394193D01*
X123608106Y-87460807D01*
X123636564Y-87601944D01*
X123701929Y-87730230D01*
X123799384Y-87836212D01*
X123921750Y-87912082D01*
X123964383Y-87924468D01*
X123969862Y-87926060D01*
X124029697Y-87964274D01*
X124059374Y-88028770D01*
X124049470Y-88099073D01*
X124003130Y-88152861D01*
X123963526Y-88167178D01*
X123964096Y-88169500D01*
X123956720Y-88171312D01*
X123949180Y-88172224D01*
X123790577Y-88232155D01*
X123784319Y-88236456D01*
X123692682Y-88299437D01*
X123650849Y-88328188D01*
X123645797Y-88333858D01*
X123645796Y-88333859D01*
X123543112Y-88449108D01*
X123543110Y-88449112D01*
X123538060Y-88454779D01*
X123534508Y-88461488D01*
X123534507Y-88461489D01*
X123519395Y-88490031D01*
X123458724Y-88604619D01*
X123417419Y-88769059D01*
X123417379Y-88776657D01*
X123417379Y-88776659D01*
X123417303Y-88791205D01*
X123416531Y-88938605D01*
X121487620Y-88938605D01*
X121487748Y-88914165D01*
X121488172Y-88833098D01*
X121488469Y-88776395D01*
X121477620Y-88731204D01*
X121450661Y-88618917D01*
X121448888Y-88611532D01*
X121444423Y-88602880D01*
X121374608Y-88467617D01*
X121374608Y-88467616D01*
X121371125Y-88460869D01*
X121365813Y-88454779D01*
X121264663Y-88338829D01*
X121259669Y-88333104D01*
X121180224Y-88277269D01*
X121127170Y-88239982D01*
X121127168Y-88239981D01*
X121120953Y-88235613D01*
X120962987Y-88174024D01*
X120955454Y-88173032D01*
X120955453Y-88173032D01*
X120837761Y-88157538D01*
X120837760Y-88157538D01*
X120833674Y-88157000D01*
X120144984Y-88157000D01*
X120019180Y-88172224D01*
X119860577Y-88232155D01*
X119854319Y-88236456D01*
X119762682Y-88299437D01*
X119720849Y-88328188D01*
X119715797Y-88333858D01*
X119715796Y-88333859D01*
X119613112Y-88449108D01*
X119613110Y-88449112D01*
X119608060Y-88454779D01*
X119604508Y-88461488D01*
X119604507Y-88461489D01*
X119589395Y-88490031D01*
X119528724Y-88604619D01*
X119487419Y-88769059D01*
X119487379Y-88776657D01*
X119487379Y-88776659D01*
X119487303Y-88791205D01*
X119486531Y-88938605D01*
X118463000Y-88938605D01*
X118463000Y-86023308D01*
X128040525Y-86023308D01*
X128042076Y-86033101D01*
X128053684Y-86106388D01*
X128061610Y-86156434D01*
X128122801Y-86276528D01*
X128218109Y-86371836D01*
X128338203Y-86433027D01*
X128347992Y-86434577D01*
X128347994Y-86434578D01*
X128461536Y-86452561D01*
X128471329Y-86454112D01*
X128481122Y-86452561D01*
X128594664Y-86434578D01*
X128594666Y-86434577D01*
X128604455Y-86433027D01*
X128724549Y-86371836D01*
X128819857Y-86276528D01*
X128881048Y-86156434D01*
X128888975Y-86106388D01*
X128899885Y-86037500D01*
X130627196Y-86037500D01*
X130628747Y-86047293D01*
X130639506Y-86115220D01*
X130648281Y-86170626D01*
X130709472Y-86290720D01*
X130804780Y-86386028D01*
X130924874Y-86447219D01*
X130934663Y-86448769D01*
X130934665Y-86448770D01*
X131048207Y-86466753D01*
X131058000Y-86468304D01*
X131067793Y-86466753D01*
X131181335Y-86448770D01*
X131181337Y-86448769D01*
X131191126Y-86447219D01*
X131311220Y-86386028D01*
X131355248Y-86342000D01*
X135141426Y-86342000D01*
X135142977Y-86351793D01*
X135159183Y-86454112D01*
X135162511Y-86475126D01*
X135223702Y-86595220D01*
X135319010Y-86690528D01*
X135439104Y-86751719D01*
X135448893Y-86753269D01*
X135448895Y-86753270D01*
X135562437Y-86771253D01*
X135572230Y-86772804D01*
X135582023Y-86771253D01*
X135695565Y-86753270D01*
X135695567Y-86753269D01*
X135705356Y-86751719D01*
X135825450Y-86690528D01*
X135920758Y-86595220D01*
X135981949Y-86475126D01*
X135985278Y-86454112D01*
X136001483Y-86351793D01*
X136003034Y-86342000D01*
X136000782Y-86327781D01*
X135983500Y-86218665D01*
X135983499Y-86218663D01*
X135981949Y-86208874D01*
X135920758Y-86088780D01*
X135825450Y-85993472D01*
X135705356Y-85932281D01*
X135695567Y-85930731D01*
X135695565Y-85930730D01*
X135582023Y-85912747D01*
X135572230Y-85911196D01*
X135562437Y-85912747D01*
X135448895Y-85930730D01*
X135448893Y-85930731D01*
X135439104Y-85932281D01*
X135319010Y-85993472D01*
X135223702Y-86088780D01*
X135162511Y-86208874D01*
X135160961Y-86218663D01*
X135160960Y-86218665D01*
X135143678Y-86327781D01*
X135141426Y-86342000D01*
X131355248Y-86342000D01*
X131406528Y-86290720D01*
X131467719Y-86170626D01*
X131476495Y-86115220D01*
X131487253Y-86047293D01*
X131488804Y-86037500D01*
X131472139Y-85932281D01*
X131469270Y-85914165D01*
X131469269Y-85914163D01*
X131467719Y-85904374D01*
X131446128Y-85862000D01*
X139331696Y-85862000D01*
X139333247Y-85871793D01*
X139348901Y-85970626D01*
X139352781Y-85995126D01*
X139413972Y-86115220D01*
X139509280Y-86210528D01*
X139629374Y-86271719D01*
X139639163Y-86273269D01*
X139639165Y-86273270D01*
X139752707Y-86291253D01*
X139762500Y-86292804D01*
X139772293Y-86291253D01*
X139885835Y-86273270D01*
X139885837Y-86273269D01*
X139895626Y-86271719D01*
X140015720Y-86210528D01*
X140111028Y-86115220D01*
X140172219Y-85995126D01*
X140176100Y-85970626D01*
X140181346Y-85937500D01*
X143831696Y-85937500D01*
X143833247Y-85947293D01*
X143846838Y-86033101D01*
X143852781Y-86070626D01*
X143913972Y-86190720D01*
X144009280Y-86286028D01*
X144129374Y-86347219D01*
X144139163Y-86348769D01*
X144139165Y-86348770D01*
X144252707Y-86366753D01*
X144262500Y-86368304D01*
X144272293Y-86366753D01*
X144385835Y-86348770D01*
X144385837Y-86348769D01*
X144395626Y-86347219D01*
X144515720Y-86286028D01*
X144611028Y-86190720D01*
X144672219Y-86070626D01*
X144678163Y-86033101D01*
X144691753Y-85947293D01*
X144693304Y-85937500D01*
X144672219Y-85804374D01*
X144611028Y-85684280D01*
X144515720Y-85588972D01*
X144395626Y-85527781D01*
X144385837Y-85526231D01*
X144385835Y-85526230D01*
X144272293Y-85508247D01*
X144262500Y-85506696D01*
X144252707Y-85508247D01*
X144139165Y-85526230D01*
X144139163Y-85526231D01*
X144129374Y-85527781D01*
X144009280Y-85588972D01*
X143913972Y-85684280D01*
X143852781Y-85804374D01*
X143831696Y-85937500D01*
X140181346Y-85937500D01*
X140191753Y-85871793D01*
X140193304Y-85862000D01*
X140182393Y-85793112D01*
X140173770Y-85738665D01*
X140173769Y-85738663D01*
X140172219Y-85728874D01*
X140111028Y-85608780D01*
X140015720Y-85513472D01*
X139895626Y-85452281D01*
X139885837Y-85450731D01*
X139885835Y-85450730D01*
X139772293Y-85432747D01*
X139762500Y-85431196D01*
X139752707Y-85432747D01*
X139639165Y-85450730D01*
X139639163Y-85450731D01*
X139629374Y-85452281D01*
X139509280Y-85513472D01*
X139413972Y-85608780D01*
X139352781Y-85728874D01*
X139351231Y-85738663D01*
X139351230Y-85738665D01*
X139342607Y-85793112D01*
X139331696Y-85862000D01*
X131446128Y-85862000D01*
X131406528Y-85784280D01*
X131311220Y-85688972D01*
X131191126Y-85627781D01*
X131181337Y-85626231D01*
X131181335Y-85626230D01*
X131067793Y-85608247D01*
X131058000Y-85606696D01*
X131048207Y-85608247D01*
X130934665Y-85626230D01*
X130934663Y-85626231D01*
X130924874Y-85627781D01*
X130804780Y-85688972D01*
X130709472Y-85784280D01*
X130648281Y-85904374D01*
X130646731Y-85914163D01*
X130646730Y-85914165D01*
X130643861Y-85932281D01*
X130627196Y-86037500D01*
X128899885Y-86037500D01*
X128900582Y-86033101D01*
X128902133Y-86023308D01*
X128900582Y-86013515D01*
X128882599Y-85899973D01*
X128882598Y-85899971D01*
X128881048Y-85890182D01*
X128819857Y-85770088D01*
X128724549Y-85674780D01*
X128604455Y-85613589D01*
X128594666Y-85612039D01*
X128594664Y-85612038D01*
X128481122Y-85594055D01*
X128471329Y-85592504D01*
X128461536Y-85594055D01*
X128347994Y-85612038D01*
X128347992Y-85612039D01*
X128338203Y-85613589D01*
X128218109Y-85674780D01*
X128122801Y-85770088D01*
X128061610Y-85890182D01*
X128060060Y-85899971D01*
X128060059Y-85899973D01*
X128042076Y-86013515D01*
X128040525Y-86023308D01*
X118463000Y-86023308D01*
X118463000Y-84237500D01*
X128131696Y-84237500D01*
X128133247Y-84247293D01*
X128149074Y-84347219D01*
X128152781Y-84370626D01*
X128213972Y-84490720D01*
X128309280Y-84586028D01*
X128429374Y-84647219D01*
X128439163Y-84648769D01*
X128439165Y-84648770D01*
X128552707Y-84666753D01*
X128562500Y-84668304D01*
X128572293Y-84666753D01*
X128685835Y-84648770D01*
X128685837Y-84648769D01*
X128695626Y-84647219D01*
X128815720Y-84586028D01*
X128911028Y-84490720D01*
X128972219Y-84370626D01*
X128975927Y-84347219D01*
X128991753Y-84247293D01*
X128993304Y-84237500D01*
X128980334Y-84155612D01*
X128973770Y-84114165D01*
X128973769Y-84114163D01*
X128972219Y-84104374D01*
X128911028Y-83984280D01*
X128864248Y-83937500D01*
X135431696Y-83937500D01*
X135433247Y-83947293D01*
X135450858Y-84058483D01*
X135452781Y-84070626D01*
X135513972Y-84190720D01*
X135609280Y-84286028D01*
X135729374Y-84347219D01*
X135739163Y-84348769D01*
X135739165Y-84348770D01*
X135852707Y-84366753D01*
X135862500Y-84368304D01*
X135872293Y-84366753D01*
X135985835Y-84348770D01*
X135985837Y-84348769D01*
X135995626Y-84347219D01*
X136115720Y-84286028D01*
X136211028Y-84190720D01*
X136211324Y-84190139D01*
X136969014Y-84190139D01*
X136970565Y-84199932D01*
X136981168Y-84266874D01*
X136990099Y-84323265D01*
X137051290Y-84443359D01*
X137146598Y-84538667D01*
X137266692Y-84599858D01*
X137276481Y-84601408D01*
X137276483Y-84601409D01*
X137390025Y-84619392D01*
X137399818Y-84620943D01*
X137409611Y-84619392D01*
X137523153Y-84601409D01*
X137523155Y-84601408D01*
X137532944Y-84599858D01*
X137653038Y-84538667D01*
X137748346Y-84443359D01*
X137770439Y-84400000D01*
X145669196Y-84400000D01*
X145670747Y-84409793D01*
X145683565Y-84490720D01*
X145690281Y-84533126D01*
X145751472Y-84653220D01*
X145846780Y-84748528D01*
X145966874Y-84809719D01*
X145976663Y-84811269D01*
X145976665Y-84811270D01*
X146090207Y-84829253D01*
X146100000Y-84830804D01*
X146109793Y-84829253D01*
X146223335Y-84811270D01*
X146223337Y-84811269D01*
X146233126Y-84809719D01*
X146353220Y-84748528D01*
X146448528Y-84653220D01*
X146509719Y-84533126D01*
X146516436Y-84490720D01*
X146529253Y-84409793D01*
X146530804Y-84400000D01*
X146522444Y-84347219D01*
X146511270Y-84276665D01*
X146511269Y-84276663D01*
X146509719Y-84266874D01*
X146448528Y-84146780D01*
X146353220Y-84051472D01*
X146233126Y-83990281D01*
X146223337Y-83988731D01*
X146223335Y-83988730D01*
X146109793Y-83970747D01*
X146100000Y-83969196D01*
X146090207Y-83970747D01*
X145976665Y-83988730D01*
X145976663Y-83988731D01*
X145966874Y-83990281D01*
X145846780Y-84051472D01*
X145751472Y-84146780D01*
X145690281Y-84266874D01*
X145688731Y-84276663D01*
X145688730Y-84276665D01*
X145677556Y-84347219D01*
X145669196Y-84400000D01*
X137770439Y-84400000D01*
X137809537Y-84323265D01*
X137818469Y-84266874D01*
X137829071Y-84199932D01*
X137830622Y-84190139D01*
X137829071Y-84180346D01*
X137811088Y-84066804D01*
X137811087Y-84066802D01*
X137809537Y-84057013D01*
X137748346Y-83936919D01*
X137653038Y-83841611D01*
X137532944Y-83780420D01*
X137523155Y-83778870D01*
X137523153Y-83778869D01*
X137409611Y-83760886D01*
X137399818Y-83759335D01*
X137390025Y-83760886D01*
X137276483Y-83778869D01*
X137276481Y-83778870D01*
X137266692Y-83780420D01*
X137146598Y-83841611D01*
X137051290Y-83936919D01*
X136990099Y-84057013D01*
X136988549Y-84066802D01*
X136988548Y-84066804D01*
X136970565Y-84180346D01*
X136969014Y-84190139D01*
X136211324Y-84190139D01*
X136272219Y-84070626D01*
X136274143Y-84058483D01*
X136291753Y-83947293D01*
X136293304Y-83937500D01*
X136276639Y-83832282D01*
X136273770Y-83814165D01*
X136273769Y-83814163D01*
X136272219Y-83804374D01*
X136211028Y-83684280D01*
X136115720Y-83588972D01*
X135995626Y-83527781D01*
X135985837Y-83526231D01*
X135985835Y-83526230D01*
X135872293Y-83508247D01*
X135862500Y-83506696D01*
X135852707Y-83508247D01*
X135739165Y-83526230D01*
X135739163Y-83526231D01*
X135729374Y-83527781D01*
X135609280Y-83588972D01*
X135513972Y-83684280D01*
X135452781Y-83804374D01*
X135451231Y-83814163D01*
X135451230Y-83814165D01*
X135448361Y-83832282D01*
X135431696Y-83937500D01*
X128864248Y-83937500D01*
X128815720Y-83888972D01*
X128695626Y-83827781D01*
X128685837Y-83826231D01*
X128685835Y-83826230D01*
X128572293Y-83808247D01*
X128562500Y-83806696D01*
X128552707Y-83808247D01*
X128439165Y-83826230D01*
X128439163Y-83826231D01*
X128429374Y-83827781D01*
X128309280Y-83888972D01*
X128213972Y-83984280D01*
X128152781Y-84104374D01*
X128151231Y-84114163D01*
X128151230Y-84114165D01*
X128144666Y-84155612D01*
X128131696Y-84237500D01*
X118463000Y-84237500D01*
X118463000Y-83037500D01*
X130831696Y-83037500D01*
X130833247Y-83047293D01*
X130850309Y-83155016D01*
X130852781Y-83170626D01*
X130913972Y-83290720D01*
X131009280Y-83386028D01*
X131129374Y-83447219D01*
X131139163Y-83448769D01*
X131139165Y-83448770D01*
X131252707Y-83466753D01*
X131262500Y-83468304D01*
X131272293Y-83466753D01*
X131385835Y-83448770D01*
X131385837Y-83448769D01*
X131395626Y-83447219D01*
X131515720Y-83386028D01*
X131611028Y-83290720D01*
X131672219Y-83170626D01*
X131674692Y-83155016D01*
X131693304Y-83037500D01*
X131691753Y-83027707D01*
X131677466Y-82937500D01*
X137982196Y-82937500D01*
X138003281Y-83070626D01*
X138064472Y-83190720D01*
X138159780Y-83286028D01*
X138279874Y-83347219D01*
X138289663Y-83348769D01*
X138289665Y-83348770D01*
X138403207Y-83366753D01*
X138413000Y-83368304D01*
X138422793Y-83366753D01*
X138536335Y-83348770D01*
X138536337Y-83348769D01*
X138546126Y-83347219D01*
X138666220Y-83286028D01*
X138761528Y-83190720D01*
X138822719Y-83070626D01*
X138843804Y-82937500D01*
X138822719Y-82804374D01*
X138761528Y-82684280D01*
X138666220Y-82588972D01*
X138546126Y-82527781D01*
X138536337Y-82526231D01*
X138536335Y-82526230D01*
X138422793Y-82508247D01*
X138413000Y-82506696D01*
X138403207Y-82508247D01*
X138289665Y-82526230D01*
X138289663Y-82526231D01*
X138279874Y-82527781D01*
X138159780Y-82588972D01*
X138064472Y-82684280D01*
X138003281Y-82804374D01*
X137982196Y-82937500D01*
X131677466Y-82937500D01*
X131673770Y-82914165D01*
X131673769Y-82914163D01*
X131672219Y-82904374D01*
X131611028Y-82784280D01*
X131515720Y-82688972D01*
X131395626Y-82627781D01*
X131385837Y-82626231D01*
X131385835Y-82626230D01*
X131272293Y-82608247D01*
X131262500Y-82606696D01*
X131252707Y-82608247D01*
X131139165Y-82626230D01*
X131139163Y-82626231D01*
X131129374Y-82627781D01*
X131009280Y-82688972D01*
X130913972Y-82784280D01*
X130852781Y-82904374D01*
X130851231Y-82914163D01*
X130851230Y-82914165D01*
X130833247Y-83027707D01*
X130831696Y-83037500D01*
X118463000Y-83037500D01*
X118463000Y-82237500D01*
X128231696Y-82237500D01*
X128233247Y-82247293D01*
X128241236Y-82297731D01*
X128252781Y-82370626D01*
X128313972Y-82490720D01*
X128409280Y-82586028D01*
X128529374Y-82647219D01*
X128539163Y-82648769D01*
X128539165Y-82648770D01*
X128652707Y-82666753D01*
X128662500Y-82668304D01*
X128672293Y-82666753D01*
X128785835Y-82648770D01*
X128785837Y-82648769D01*
X128795626Y-82647219D01*
X128915720Y-82586028D01*
X129011028Y-82490720D01*
X129072219Y-82370626D01*
X129083765Y-82297731D01*
X129091753Y-82247293D01*
X129093304Y-82237500D01*
X129083088Y-82173000D01*
X129073770Y-82114165D01*
X129073769Y-82114163D01*
X129072219Y-82104374D01*
X129038145Y-82037500D01*
X142831696Y-82037500D01*
X142833247Y-82047293D01*
X142850845Y-82158401D01*
X142852781Y-82170626D01*
X142913972Y-82290720D01*
X143009280Y-82386028D01*
X143129374Y-82447219D01*
X143139163Y-82448769D01*
X143139165Y-82448770D01*
X143252707Y-82466753D01*
X143262500Y-82468304D01*
X143272293Y-82466753D01*
X143385835Y-82448770D01*
X143385837Y-82448769D01*
X143395626Y-82447219D01*
X143515720Y-82386028D01*
X143611028Y-82290720D01*
X143672219Y-82170626D01*
X143674156Y-82158401D01*
X143691753Y-82047293D01*
X143693304Y-82037500D01*
X143684875Y-81984280D01*
X143673770Y-81914165D01*
X143673769Y-81914163D01*
X143672219Y-81904374D01*
X143611028Y-81784280D01*
X143515720Y-81688972D01*
X143395626Y-81627781D01*
X143385837Y-81626231D01*
X143385835Y-81626230D01*
X143272293Y-81608247D01*
X143262500Y-81606696D01*
X143252707Y-81608247D01*
X143139165Y-81626230D01*
X143139163Y-81626231D01*
X143129374Y-81627781D01*
X143009280Y-81688972D01*
X142913972Y-81784280D01*
X142852781Y-81904374D01*
X142851231Y-81914163D01*
X142851230Y-81914165D01*
X142840125Y-81984280D01*
X142831696Y-82037500D01*
X129038145Y-82037500D01*
X129011028Y-81984280D01*
X128915720Y-81888972D01*
X128795626Y-81827781D01*
X128785837Y-81826231D01*
X128785835Y-81826230D01*
X128672293Y-81808247D01*
X128662500Y-81806696D01*
X128652707Y-81808247D01*
X128539165Y-81826230D01*
X128539163Y-81826231D01*
X128529374Y-81827781D01*
X128409280Y-81888972D01*
X128313972Y-81984280D01*
X128252781Y-82104374D01*
X128251231Y-82114163D01*
X128251230Y-82114165D01*
X128241912Y-82173000D01*
X128231696Y-82237500D01*
X118463000Y-82237500D01*
X118463000Y-80298605D01*
X119486531Y-80298605D01*
X119488305Y-80305992D01*
X119488305Y-80305996D01*
X119507361Y-80385366D01*
X119526112Y-80463468D01*
X119529593Y-80470212D01*
X119529594Y-80470215D01*
X119600392Y-80607383D01*
X119603875Y-80614131D01*
X119608867Y-80619853D01*
X119608868Y-80619855D01*
X119648354Y-80665119D01*
X119715331Y-80741896D01*
X119721545Y-80746263D01*
X119847830Y-80835018D01*
X119847832Y-80835019D01*
X119854047Y-80839387D01*
X120012013Y-80900976D01*
X120019546Y-80901968D01*
X120019547Y-80901968D01*
X120120027Y-80915196D01*
X120141326Y-80918000D01*
X120830016Y-80918000D01*
X120955820Y-80902776D01*
X121114423Y-80842845D01*
X121229630Y-80763665D01*
X121247892Y-80751114D01*
X121247893Y-80751113D01*
X121254151Y-80746812D01*
X121263632Y-80736171D01*
X121361888Y-80625892D01*
X121361890Y-80625888D01*
X121366940Y-80620221D01*
X121373738Y-80607383D01*
X121442231Y-80478021D01*
X121446276Y-80470381D01*
X121487581Y-80305941D01*
X121487619Y-80298605D01*
X123416531Y-80298605D01*
X123418305Y-80305992D01*
X123418305Y-80305996D01*
X123437361Y-80385366D01*
X123456112Y-80463468D01*
X123459593Y-80470212D01*
X123459594Y-80470215D01*
X123530392Y-80607383D01*
X123533875Y-80614131D01*
X123538867Y-80619853D01*
X123538868Y-80619855D01*
X123578354Y-80665119D01*
X123645331Y-80741896D01*
X123651545Y-80746263D01*
X123777830Y-80835018D01*
X123777832Y-80835019D01*
X123784047Y-80839387D01*
X123942013Y-80900976D01*
X123949547Y-80901968D01*
X123956901Y-80903856D01*
X123956477Y-80905508D01*
X124012946Y-80930485D01*
X124052041Y-80989747D01*
X124052890Y-81060739D01*
X124015223Y-81120920D01*
X123981619Y-81142326D01*
X123870599Y-81190369D01*
X123862717Y-81193780D01*
X123750825Y-81284388D01*
X123667421Y-81401749D01*
X123618650Y-81537215D01*
X123608106Y-81680807D01*
X123636564Y-81821944D01*
X123701929Y-81950230D01*
X123707742Y-81956552D01*
X123707743Y-81956553D01*
X123733239Y-81984280D01*
X123799384Y-82056212D01*
X123921750Y-82132082D01*
X124060012Y-82172251D01*
X124066827Y-82172751D01*
X124067904Y-82172831D01*
X124067917Y-82172831D01*
X124070212Y-82173000D01*
X124173570Y-82173000D01*
X124177815Y-82172418D01*
X124177822Y-82172418D01*
X124236731Y-82164348D01*
X124280146Y-82158401D01*
X124335429Y-82134478D01*
X124404402Y-82104631D01*
X124404405Y-82104629D01*
X124412283Y-82101220D01*
X124524175Y-82010612D01*
X124607579Y-81893251D01*
X124636283Y-81813523D01*
X124653442Y-81765863D01*
X124653442Y-81765861D01*
X124656350Y-81757785D01*
X124666894Y-81614193D01*
X124638436Y-81473056D01*
X124573071Y-81344770D01*
X124565033Y-81336028D01*
X124481430Y-81245111D01*
X124475616Y-81238788D01*
X124353250Y-81162918D01*
X124345000Y-81160521D01*
X124341824Y-81159107D01*
X124287728Y-81113127D01*
X124267079Y-81045200D01*
X124286431Y-80976892D01*
X124339642Y-80929890D01*
X124393073Y-80918000D01*
X125260016Y-80918000D01*
X125385820Y-80902776D01*
X125544423Y-80842845D01*
X125596217Y-80807248D01*
X130762000Y-80807248D01*
X130763207Y-80813316D01*
X130769615Y-80845529D01*
X130773633Y-80865731D01*
X130817948Y-80932052D01*
X130884269Y-80976367D01*
X130896438Y-80978788D01*
X130896439Y-80978788D01*
X130936684Y-80986793D01*
X130942752Y-80988000D01*
X130948939Y-80988000D01*
X131218261Y-80987999D01*
X131401860Y-80987999D01*
X131405944Y-80987461D01*
X131405950Y-80987461D01*
X131511075Y-80973622D01*
X131511077Y-80973622D01*
X131519262Y-80972544D01*
X131665341Y-80912036D01*
X131697969Y-80887000D01*
X136081198Y-80887000D01*
X136082749Y-80896793D01*
X136100137Y-81006574D01*
X136102283Y-81020126D01*
X136163474Y-81140220D01*
X136258782Y-81235528D01*
X136378876Y-81296719D01*
X136388665Y-81298269D01*
X136388667Y-81298270D01*
X136502209Y-81316253D01*
X136512002Y-81317804D01*
X136521795Y-81316253D01*
X136635337Y-81298270D01*
X136635339Y-81298269D01*
X136645128Y-81296719D01*
X136765222Y-81235528D01*
X136860530Y-81140220D01*
X136865029Y-81131390D01*
X136865032Y-81131386D01*
X136878414Y-81105121D01*
X136927161Y-81053505D01*
X136996076Y-81036439D01*
X137063278Y-81059339D01*
X137102948Y-81105120D01*
X137118916Y-81136459D01*
X137214224Y-81231767D01*
X137334318Y-81292958D01*
X137344107Y-81294508D01*
X137344109Y-81294509D01*
X137457651Y-81312492D01*
X137467444Y-81314043D01*
X137477237Y-81312492D01*
X137590779Y-81294509D01*
X137590781Y-81294508D01*
X137600570Y-81292958D01*
X137720664Y-81231767D01*
X137815972Y-81136459D01*
X137866394Y-81037500D01*
X146831696Y-81037500D01*
X146833247Y-81047293D01*
X146850957Y-81159107D01*
X146852781Y-81170626D01*
X146913972Y-81290720D01*
X147009280Y-81386028D01*
X147129374Y-81447219D01*
X147139163Y-81448769D01*
X147139165Y-81448770D01*
X147252707Y-81466753D01*
X147262500Y-81468304D01*
X147272293Y-81466753D01*
X147385835Y-81448770D01*
X147385837Y-81448769D01*
X147395626Y-81447219D01*
X147515720Y-81386028D01*
X147611028Y-81290720D01*
X147672219Y-81170626D01*
X147674044Y-81159107D01*
X147691753Y-81047293D01*
X147693304Y-81037500D01*
X147676355Y-80930485D01*
X147673770Y-80914165D01*
X147673769Y-80914163D01*
X147672219Y-80904374D01*
X147611028Y-80784280D01*
X147515720Y-80688972D01*
X147395626Y-80627781D01*
X147385837Y-80626231D01*
X147385835Y-80626230D01*
X147272293Y-80608247D01*
X147262500Y-80606696D01*
X147252707Y-80608247D01*
X147139165Y-80626230D01*
X147139163Y-80626231D01*
X147129374Y-80627781D01*
X147009280Y-80688972D01*
X146913972Y-80784280D01*
X146852781Y-80904374D01*
X146851231Y-80914163D01*
X146851230Y-80914165D01*
X146848645Y-80930485D01*
X146831696Y-81037500D01*
X137866394Y-81037500D01*
X137877163Y-81016365D01*
X137889426Y-80938943D01*
X137896697Y-80893032D01*
X137898248Y-80883239D01*
X137893676Y-80854374D01*
X137878714Y-80759904D01*
X137878713Y-80759902D01*
X137877163Y-80750113D01*
X137815972Y-80630019D01*
X137720664Y-80534711D01*
X137600570Y-80473520D01*
X137590781Y-80471970D01*
X137590779Y-80471969D01*
X137477237Y-80453986D01*
X137467444Y-80452435D01*
X137457651Y-80453986D01*
X137344109Y-80471969D01*
X137344107Y-80471970D01*
X137334318Y-80473520D01*
X137214224Y-80534711D01*
X137118916Y-80630019D01*
X137114417Y-80638849D01*
X137114414Y-80638853D01*
X137101032Y-80665118D01*
X137052285Y-80716734D01*
X136983370Y-80733800D01*
X136916168Y-80710900D01*
X136876498Y-80665119D01*
X136860530Y-80633780D01*
X136765222Y-80538472D01*
X136645128Y-80477281D01*
X136635339Y-80475731D01*
X136635337Y-80475730D01*
X136521795Y-80457747D01*
X136512002Y-80456196D01*
X136502209Y-80457747D01*
X136388667Y-80475730D01*
X136388665Y-80475731D01*
X136378876Y-80477281D01*
X136258782Y-80538472D01*
X136163474Y-80633780D01*
X136102283Y-80753874D01*
X136100733Y-80763663D01*
X136100732Y-80763665D01*
X136092868Y-80813316D01*
X136081198Y-80887000D01*
X131697969Y-80887000D01*
X131790782Y-80815782D01*
X131887036Y-80690341D01*
X131947544Y-80544262D01*
X131956857Y-80473520D01*
X131962462Y-80430948D01*
X131962462Y-80430947D01*
X131963000Y-80426861D01*
X131962999Y-80348140D01*
X131961418Y-80336126D01*
X131948622Y-80238925D01*
X131948622Y-80238923D01*
X131947544Y-80230738D01*
X131887036Y-80084659D01*
X131790782Y-79959218D01*
X131665341Y-79862964D01*
X131519262Y-79802456D01*
X131511074Y-79801378D01*
X131405948Y-79787538D01*
X131405947Y-79787538D01*
X131401861Y-79787000D01*
X130942752Y-79787000D01*
X130936684Y-79788207D01*
X130896439Y-79796212D01*
X130896438Y-79796212D01*
X130884269Y-79798633D01*
X130817948Y-79842948D01*
X130773633Y-79909269D01*
X130771212Y-79921438D01*
X130771212Y-79921439D01*
X130766084Y-79947219D01*
X130762000Y-79967752D01*
X130762000Y-80807248D01*
X125596217Y-80807248D01*
X125659630Y-80763665D01*
X125677892Y-80751114D01*
X125677893Y-80751113D01*
X125684151Y-80746812D01*
X125693632Y-80736171D01*
X125791888Y-80625892D01*
X125791890Y-80625888D01*
X125796940Y-80620221D01*
X125803738Y-80607383D01*
X125872231Y-80478021D01*
X125876276Y-80470381D01*
X125917581Y-80305941D01*
X125918469Y-80136395D01*
X125913506Y-80115720D01*
X125880661Y-79978917D01*
X125878888Y-79971532D01*
X125872533Y-79959218D01*
X125804608Y-79827617D01*
X125804608Y-79827616D01*
X125801125Y-79820869D01*
X125795813Y-79814779D01*
X125694663Y-79698829D01*
X125689669Y-79693104D01*
X125631149Y-79651975D01*
X125557170Y-79599982D01*
X125557168Y-79599981D01*
X125550953Y-79595613D01*
X125401902Y-79537500D01*
X128331696Y-79537500D01*
X128352781Y-79670626D01*
X128413972Y-79790720D01*
X128509280Y-79886028D01*
X128629374Y-79947219D01*
X128639163Y-79948769D01*
X128639165Y-79948770D01*
X128752707Y-79966753D01*
X128762500Y-79968304D01*
X128772293Y-79966753D01*
X128885835Y-79948770D01*
X128885837Y-79948769D01*
X128895626Y-79947219D01*
X129015720Y-79886028D01*
X129111028Y-79790720D01*
X129172219Y-79670626D01*
X129193304Y-79537500D01*
X129191753Y-79527707D01*
X129177466Y-79437500D01*
X135731696Y-79437500D01*
X135733247Y-79447293D01*
X135744288Y-79517000D01*
X135752781Y-79570626D01*
X135813972Y-79690720D01*
X135909280Y-79786028D01*
X136029374Y-79847219D01*
X136039163Y-79848769D01*
X136039165Y-79848770D01*
X136152707Y-79866753D01*
X136162500Y-79868304D01*
X136172293Y-79866753D01*
X136285835Y-79848770D01*
X136285837Y-79848769D01*
X136295626Y-79847219D01*
X136415720Y-79786028D01*
X136511028Y-79690720D01*
X136572219Y-79570626D01*
X136580713Y-79517000D01*
X136591753Y-79447293D01*
X136593304Y-79437500D01*
X136572219Y-79304374D01*
X136511028Y-79184280D01*
X136415720Y-79088972D01*
X136295626Y-79027781D01*
X136285837Y-79026231D01*
X136285835Y-79026230D01*
X136172293Y-79008247D01*
X136162500Y-79006696D01*
X136152707Y-79008247D01*
X136039165Y-79026230D01*
X136039163Y-79026231D01*
X136029374Y-79027781D01*
X135909280Y-79088972D01*
X135813972Y-79184280D01*
X135752781Y-79304374D01*
X135731696Y-79437500D01*
X129177466Y-79437500D01*
X129173770Y-79414165D01*
X129173769Y-79414163D01*
X129172219Y-79404374D01*
X129111028Y-79284280D01*
X129015720Y-79188972D01*
X128895626Y-79127781D01*
X128885837Y-79126231D01*
X128885835Y-79126230D01*
X128772293Y-79108247D01*
X128762500Y-79106696D01*
X128752707Y-79108247D01*
X128639165Y-79126230D01*
X128639163Y-79126231D01*
X128629374Y-79127781D01*
X128509280Y-79188972D01*
X128413972Y-79284280D01*
X128352781Y-79404374D01*
X128351231Y-79414163D01*
X128351230Y-79414165D01*
X128333247Y-79527707D01*
X128331696Y-79537500D01*
X125401902Y-79537500D01*
X125392987Y-79534024D01*
X125385454Y-79533032D01*
X125385453Y-79533032D01*
X125267761Y-79517538D01*
X125267760Y-79517538D01*
X125263674Y-79517000D01*
X124074984Y-79517000D01*
X123949180Y-79532224D01*
X123790577Y-79592155D01*
X123784319Y-79596456D01*
X123663550Y-79679459D01*
X123650849Y-79688188D01*
X123645797Y-79693858D01*
X123645796Y-79693859D01*
X123543112Y-79809108D01*
X123543110Y-79809112D01*
X123538060Y-79814779D01*
X123534508Y-79821488D01*
X123534507Y-79821489D01*
X123512793Y-79862500D01*
X123458724Y-79964619D01*
X123417419Y-80129059D01*
X123416531Y-80298605D01*
X121487619Y-80298605D01*
X121488469Y-80136395D01*
X121483506Y-80115720D01*
X121450661Y-79978917D01*
X121448888Y-79971532D01*
X121442533Y-79959218D01*
X121374608Y-79827617D01*
X121374608Y-79827616D01*
X121371125Y-79820869D01*
X121365813Y-79814779D01*
X121264663Y-79698829D01*
X121259669Y-79693104D01*
X121201149Y-79651975D01*
X121127170Y-79599982D01*
X121127168Y-79599981D01*
X121120953Y-79595613D01*
X120962987Y-79534024D01*
X120955454Y-79533032D01*
X120955453Y-79533032D01*
X120837761Y-79517538D01*
X120837760Y-79517538D01*
X120833674Y-79517000D01*
X120144984Y-79517000D01*
X120019180Y-79532224D01*
X119860577Y-79592155D01*
X119854319Y-79596456D01*
X119733550Y-79679459D01*
X119720849Y-79688188D01*
X119715797Y-79693858D01*
X119715796Y-79693859D01*
X119613112Y-79809108D01*
X119613110Y-79809112D01*
X119608060Y-79814779D01*
X119604508Y-79821488D01*
X119604507Y-79821489D01*
X119582793Y-79862500D01*
X119528724Y-79964619D01*
X119487419Y-80129059D01*
X119486531Y-80298605D01*
X118463000Y-80298605D01*
X118463000Y-78032045D01*
X119481106Y-78032045D01*
X119481842Y-78039047D01*
X119481842Y-78039049D01*
X119491685Y-78132691D01*
X119499316Y-78205297D01*
X119520416Y-78267279D01*
X119551647Y-78359019D01*
X119555456Y-78370209D01*
X119559146Y-78376207D01*
X119559147Y-78376209D01*
X119622674Y-78479471D01*
X119646738Y-78518586D01*
X119768624Y-78643052D01*
X119915056Y-78737421D01*
X119921679Y-78739832D01*
X119921682Y-78739833D01*
X120072134Y-78794593D01*
X120072139Y-78794594D01*
X120078757Y-78797003D01*
X120213301Y-78814000D01*
X120306300Y-78814000D01*
X120435621Y-78799494D01*
X120449695Y-78794593D01*
X120593490Y-78744519D01*
X120593492Y-78744518D01*
X120600137Y-78742204D01*
X120607419Y-78737654D01*
X120741899Y-78653621D01*
X120747873Y-78649888D01*
X120759823Y-78638021D01*
X120866488Y-78532099D01*
X120866491Y-78532095D01*
X120871485Y-78527136D01*
X120880720Y-78512585D01*
X120961050Y-78386003D01*
X120964829Y-78380049D01*
X120996170Y-78292033D01*
X121020905Y-78222571D01*
X121020906Y-78222566D01*
X121023267Y-78215936D01*
X121024884Y-78202380D01*
X121043060Y-78049948D01*
X121043894Y-78042955D01*
X121038714Y-77993672D01*
X121026420Y-77876703D01*
X121026420Y-77876701D01*
X121025684Y-77869703D01*
X120969544Y-77704791D01*
X120963491Y-77694951D01*
X120881954Y-77562415D01*
X120881953Y-77562414D01*
X120878262Y-77556414D01*
X120756376Y-77431948D01*
X120609944Y-77337579D01*
X120603321Y-77335168D01*
X120603318Y-77335167D01*
X120452866Y-77280407D01*
X120452861Y-77280406D01*
X120446243Y-77277997D01*
X120311699Y-77261000D01*
X120218700Y-77261000D01*
X120089379Y-77275506D01*
X120082731Y-77277821D01*
X119931510Y-77330481D01*
X119931508Y-77330482D01*
X119924863Y-77332796D01*
X119918893Y-77336527D01*
X119918892Y-77336527D01*
X119802886Y-77409016D01*
X119777127Y-77425112D01*
X119772129Y-77430075D01*
X119772128Y-77430076D01*
X119658512Y-77542901D01*
X119658509Y-77542905D01*
X119653515Y-77547864D01*
X119649741Y-77553810D01*
X119649740Y-77553812D01*
X119620564Y-77599786D01*
X119560171Y-77694951D01*
X119557806Y-77701593D01*
X119504095Y-77852429D01*
X119504094Y-77852434D01*
X119501733Y-77859064D01*
X119500900Y-77866052D01*
X119500899Y-77866055D01*
X119493395Y-77928986D01*
X119481106Y-78032045D01*
X118463000Y-78032045D01*
X118463000Y-76488058D01*
X118483002Y-76419937D01*
X118491601Y-76408124D01*
X118547521Y-76339986D01*
X118564986Y-76322521D01*
X118633124Y-76266601D01*
X118698471Y-76238847D01*
X118713058Y-76238000D01*
X120256608Y-76238000D01*
X120293874Y-76238033D01*
X120293876Y-76238033D01*
X120308063Y-76238045D01*
X120320854Y-76231903D01*
X120325767Y-76230787D01*
X120333317Y-76228150D01*
X120337851Y-76225968D01*
X120351685Y-76222812D01*
X120362780Y-76213971D01*
X120367654Y-76211625D01*
X120373506Y-76207954D01*
X120377738Y-76204588D01*
X120390524Y-76198448D01*
X120399384Y-76187369D01*
X120403324Y-76184235D01*
X120416097Y-76171484D01*
X120416434Y-76171216D01*
X120423224Y-76165805D01*
X120423225Y-76165804D01*
X120426073Y-76169378D01*
X120462103Y-76144125D01*
X120502422Y-76137500D01*
X130022517Y-76137500D01*
X130090638Y-76157502D01*
G37*
G04 #@! TD.AperFunction*
G04 #@! TA.AperFunction,Conductor*
G36*
X161745133Y-76258002D02*
G01*
X161791626Y-76311658D01*
X161801730Y-76381932D01*
X161772236Y-76446512D01*
X161734215Y-76476267D01*
X161709280Y-76488972D01*
X161613972Y-76584280D01*
X161552781Y-76704374D01*
X161551231Y-76714163D01*
X161551230Y-76714165D01*
X161537546Y-76800566D01*
X161531696Y-76837500D01*
X161533247Y-76847293D01*
X161550149Y-76954005D01*
X161552781Y-76970626D01*
X161613972Y-77090720D01*
X161709280Y-77186028D01*
X161829374Y-77247219D01*
X161839163Y-77248769D01*
X161839165Y-77248770D01*
X161952707Y-77266753D01*
X161962500Y-77268304D01*
X161972293Y-77266753D01*
X162085835Y-77248770D01*
X162085837Y-77248769D01*
X162095626Y-77247219D01*
X162215720Y-77186028D01*
X162311028Y-77090720D01*
X162315527Y-77081890D01*
X162315530Y-77081886D01*
X162323501Y-77066241D01*
X162372249Y-77014625D01*
X162441163Y-76997559D01*
X162508365Y-77020459D01*
X162550818Y-77073917D01*
X162551093Y-77075651D01*
X162612284Y-77195745D01*
X162707592Y-77291053D01*
X162827686Y-77352244D01*
X162837475Y-77353794D01*
X162837477Y-77353795D01*
X162951019Y-77371778D01*
X162960812Y-77373329D01*
X162970605Y-77371778D01*
X163084147Y-77353795D01*
X163084149Y-77353794D01*
X163093938Y-77352244D01*
X163214032Y-77291053D01*
X163309340Y-77195745D01*
X163370531Y-77075651D01*
X163385358Y-76982040D01*
X163390065Y-76952318D01*
X163391616Y-76942525D01*
X163386781Y-76912000D01*
X163372082Y-76819190D01*
X163372081Y-76819188D01*
X163370531Y-76809399D01*
X163309340Y-76689305D01*
X163214032Y-76593997D01*
X163093938Y-76532806D01*
X163084149Y-76531256D01*
X163084147Y-76531255D01*
X162970605Y-76513272D01*
X162960812Y-76511721D01*
X162951019Y-76513272D01*
X162837477Y-76531255D01*
X162837475Y-76531256D01*
X162827686Y-76532806D01*
X162707592Y-76593997D01*
X162612284Y-76689305D01*
X162607785Y-76698135D01*
X162607782Y-76698139D01*
X162599811Y-76713784D01*
X162551063Y-76765400D01*
X162482149Y-76782466D01*
X162414947Y-76759566D01*
X162372494Y-76706108D01*
X162372219Y-76704374D01*
X162311028Y-76584280D01*
X162215720Y-76488972D01*
X162190785Y-76476267D01*
X162139170Y-76427519D01*
X162122104Y-76358604D01*
X162145005Y-76291402D01*
X162200602Y-76247250D01*
X162247988Y-76238000D01*
X183811942Y-76238000D01*
X183880063Y-76258002D01*
X183891876Y-76266601D01*
X183960014Y-76322521D01*
X183977479Y-76339986D01*
X184033399Y-76408124D01*
X184061153Y-76473471D01*
X184062000Y-76488058D01*
X184062000Y-89586942D01*
X184041998Y-89655063D01*
X184033399Y-89666876D01*
X183977479Y-89735014D01*
X183960014Y-89752479D01*
X183891876Y-89808399D01*
X183826529Y-89836153D01*
X183811942Y-89837000D01*
X156823181Y-89837000D01*
X156755060Y-89816998D01*
X156708567Y-89763342D01*
X156698463Y-89693068D01*
X156727957Y-89628488D01*
X156742612Y-89614126D01*
X156864568Y-89512696D01*
X156864573Y-89512691D01*
X156869005Y-89509005D01*
X156998337Y-89353501D01*
X157097164Y-89177031D01*
X157109028Y-89142083D01*
X157160320Y-88990981D01*
X157160320Y-88990979D01*
X157162178Y-88985507D01*
X157163007Y-88979791D01*
X157163008Y-88979786D01*
X157181509Y-88852181D01*
X157191200Y-88785342D01*
X157192715Y-88727500D01*
X157174208Y-88526091D01*
X157172325Y-88519412D01*
X157141526Y-88410209D01*
X157119307Y-88331426D01*
X157029851Y-88150027D01*
X157014088Y-88128917D01*
X156912288Y-87992591D01*
X156912287Y-87992590D01*
X156908835Y-87987967D01*
X156902259Y-87981888D01*
X156889399Y-87970000D01*
X159699196Y-87970000D01*
X159700747Y-87979793D01*
X159718286Y-88090528D01*
X159720281Y-88103126D01*
X159781472Y-88223220D01*
X159876780Y-88318528D01*
X159996874Y-88379719D01*
X160006663Y-88381269D01*
X160006665Y-88381270D01*
X160120207Y-88399253D01*
X160130000Y-88400804D01*
X160139793Y-88399253D01*
X160253335Y-88381270D01*
X160253337Y-88381269D01*
X160263126Y-88379719D01*
X160383220Y-88318528D01*
X160478528Y-88223220D01*
X160516626Y-88148449D01*
X160517733Y-88146276D01*
X160566481Y-88094661D01*
X160635396Y-88077595D01*
X160702598Y-88100496D01*
X160742267Y-88146276D01*
X160743374Y-88148449D01*
X160781472Y-88223220D01*
X160876780Y-88318528D01*
X160996874Y-88379719D01*
X161006663Y-88381269D01*
X161006665Y-88381270D01*
X161120207Y-88399253D01*
X161130000Y-88400804D01*
X161139793Y-88399253D01*
X161253335Y-88381270D01*
X161253337Y-88381269D01*
X161263126Y-88379719D01*
X161383220Y-88318528D01*
X161478528Y-88223220D01*
X161490359Y-88200000D01*
X175069196Y-88200000D01*
X175070747Y-88209793D01*
X175088682Y-88323028D01*
X175090281Y-88333126D01*
X175151472Y-88453220D01*
X175246780Y-88548528D01*
X175366874Y-88609719D01*
X175376663Y-88611269D01*
X175376665Y-88611270D01*
X175490207Y-88629253D01*
X175500000Y-88630804D01*
X175509793Y-88629253D01*
X175509794Y-88629253D01*
X175588927Y-88616720D01*
X175659338Y-88625820D01*
X175713652Y-88671542D01*
X175720904Y-88683966D01*
X175725423Y-88692834D01*
X175761092Y-88762839D01*
X175856400Y-88858147D01*
X175976494Y-88919338D01*
X175986283Y-88920888D01*
X175986285Y-88920889D01*
X176099827Y-88938872D01*
X176109620Y-88940423D01*
X176119413Y-88938872D01*
X176232955Y-88920889D01*
X176232957Y-88920888D01*
X176242746Y-88919338D01*
X176362840Y-88858147D01*
X176458148Y-88762839D01*
X176519339Y-88642745D01*
X176521231Y-88630804D01*
X176538873Y-88519412D01*
X176540424Y-88509619D01*
X176538084Y-88494844D01*
X176520890Y-88386284D01*
X176520889Y-88386282D01*
X176519339Y-88376493D01*
X176458148Y-88256399D01*
X176362840Y-88161091D01*
X176258176Y-88107762D01*
X178932020Y-88107762D01*
X178933943Y-88130667D01*
X178948116Y-88299437D01*
X178949259Y-88313053D01*
X178950958Y-88318978D01*
X179001387Y-88494844D01*
X179006044Y-88511086D01*
X179008859Y-88516563D01*
X179008860Y-88516566D01*
X179088507Y-88671542D01*
X179100212Y-88694318D01*
X179228177Y-88855770D01*
X179232870Y-88859764D01*
X179232871Y-88859765D01*
X179373896Y-88979786D01*
X179385064Y-88989291D01*
X179390442Y-88992297D01*
X179390444Y-88992298D01*
X179433731Y-89016490D01*
X179564898Y-89089797D01*
X179646355Y-89116264D01*
X179754971Y-89151556D01*
X179754975Y-89151557D01*
X179760829Y-89153459D01*
X179965394Y-89177851D01*
X179971529Y-89177379D01*
X179971531Y-89177379D01*
X180027539Y-89173069D01*
X180170800Y-89162046D01*
X180176730Y-89160390D01*
X180176732Y-89160390D01*
X180363297Y-89108300D01*
X180363296Y-89108300D01*
X180369225Y-89106645D01*
X180374714Y-89103872D01*
X180374720Y-89103870D01*
X180518357Y-89031313D01*
X180553110Y-89013758D01*
X180582264Y-88990981D01*
X180671821Y-88921011D01*
X180715451Y-88886924D01*
X180720055Y-88881591D01*
X180846040Y-88735634D01*
X180846040Y-88735633D01*
X180850064Y-88730972D01*
X180854136Y-88723805D01*
X180906967Y-88630804D01*
X180951823Y-88551844D01*
X181016851Y-88356363D01*
X181042671Y-88151974D01*
X181043083Y-88122500D01*
X181041638Y-88107762D01*
X181472020Y-88107762D01*
X181473943Y-88130667D01*
X181488116Y-88299437D01*
X181489259Y-88313053D01*
X181490958Y-88318978D01*
X181541387Y-88494844D01*
X181546044Y-88511086D01*
X181548859Y-88516563D01*
X181548860Y-88516566D01*
X181628507Y-88671542D01*
X181640212Y-88694318D01*
X181768177Y-88855770D01*
X181772870Y-88859764D01*
X181772871Y-88859765D01*
X181913896Y-88979786D01*
X181925064Y-88989291D01*
X181930442Y-88992297D01*
X181930444Y-88992298D01*
X181973731Y-89016490D01*
X182104898Y-89089797D01*
X182186355Y-89116264D01*
X182294971Y-89151556D01*
X182294975Y-89151557D01*
X182300829Y-89153459D01*
X182505394Y-89177851D01*
X182511529Y-89177379D01*
X182511531Y-89177379D01*
X182567539Y-89173069D01*
X182710800Y-89162046D01*
X182716730Y-89160390D01*
X182716732Y-89160390D01*
X182903297Y-89108300D01*
X182903296Y-89108300D01*
X182909225Y-89106645D01*
X182914714Y-89103872D01*
X182914720Y-89103870D01*
X183058357Y-89031313D01*
X183093110Y-89013758D01*
X183122264Y-88990981D01*
X183211821Y-88921011D01*
X183255451Y-88886924D01*
X183260055Y-88881591D01*
X183386040Y-88735634D01*
X183386040Y-88735633D01*
X183390064Y-88730972D01*
X183394136Y-88723805D01*
X183446967Y-88630804D01*
X183491823Y-88551844D01*
X183556851Y-88356363D01*
X183582671Y-88151974D01*
X183583083Y-88122500D01*
X183562980Y-87917470D01*
X183503435Y-87720249D01*
X183406718Y-87538349D01*
X183290607Y-87395983D01*
X183280406Y-87383475D01*
X183280403Y-87383472D01*
X183276511Y-87378700D01*
X183259286Y-87364450D01*
X183122525Y-87251311D01*
X183122521Y-87251309D01*
X183117775Y-87247382D01*
X182936555Y-87149397D01*
X182739754Y-87088477D01*
X182733629Y-87087833D01*
X182733628Y-87087833D01*
X182540998Y-87067587D01*
X182540996Y-87067587D01*
X182534869Y-87066943D01*
X182448029Y-87074846D01*
X182335842Y-87085055D01*
X182335839Y-87085056D01*
X182329703Y-87085614D01*
X182132072Y-87143780D01*
X181949502Y-87239226D01*
X181944701Y-87243086D01*
X181944698Y-87243088D01*
X181798988Y-87360242D01*
X181788947Y-87368315D01*
X181656524Y-87526130D01*
X181653556Y-87531528D01*
X181653553Y-87531533D01*
X181577464Y-87669940D01*
X181557276Y-87706662D01*
X181494984Y-87903032D01*
X181494298Y-87909149D01*
X181494297Y-87909153D01*
X181473076Y-88098349D01*
X181472020Y-88107762D01*
X181041638Y-88107762D01*
X181022980Y-87917470D01*
X180963435Y-87720249D01*
X180866718Y-87538349D01*
X180750607Y-87395983D01*
X180740406Y-87383475D01*
X180740403Y-87383472D01*
X180736511Y-87378700D01*
X180719286Y-87364450D01*
X180582525Y-87251311D01*
X180582521Y-87251309D01*
X180577775Y-87247382D01*
X180396555Y-87149397D01*
X180199754Y-87088477D01*
X180193629Y-87087833D01*
X180193628Y-87087833D01*
X180000998Y-87067587D01*
X180000996Y-87067587D01*
X179994869Y-87066943D01*
X179908029Y-87074846D01*
X179795842Y-87085055D01*
X179795839Y-87085056D01*
X179789703Y-87085614D01*
X179592072Y-87143780D01*
X179409502Y-87239226D01*
X179404701Y-87243086D01*
X179404698Y-87243088D01*
X179258988Y-87360242D01*
X179248947Y-87368315D01*
X179116524Y-87526130D01*
X179113556Y-87531528D01*
X179113553Y-87531533D01*
X179037464Y-87669940D01*
X179017276Y-87706662D01*
X178954984Y-87903032D01*
X178954298Y-87909149D01*
X178954297Y-87909153D01*
X178933076Y-88098349D01*
X178932020Y-88107762D01*
X176258176Y-88107762D01*
X176242746Y-88099900D01*
X176232957Y-88098350D01*
X176232955Y-88098349D01*
X176119413Y-88080366D01*
X176109620Y-88078815D01*
X176099827Y-88080366D01*
X176099826Y-88080366D01*
X176020693Y-88092899D01*
X175950282Y-88083799D01*
X175895968Y-88038077D01*
X175888716Y-88025653D01*
X175871870Y-87992591D01*
X175848528Y-87946780D01*
X175753220Y-87851472D01*
X175633126Y-87790281D01*
X175623337Y-87788731D01*
X175623335Y-87788730D01*
X175509793Y-87770747D01*
X175500000Y-87769196D01*
X175490207Y-87770747D01*
X175376665Y-87788730D01*
X175376663Y-87788731D01*
X175366874Y-87790281D01*
X175246780Y-87851472D01*
X175151472Y-87946780D01*
X175090281Y-88066874D01*
X175088731Y-88076663D01*
X175088730Y-88076665D01*
X175074462Y-88166753D01*
X175069196Y-88200000D01*
X161490359Y-88200000D01*
X161539719Y-88103126D01*
X161541715Y-88090528D01*
X161559253Y-87979793D01*
X161560804Y-87970000D01*
X161554959Y-87933097D01*
X161541270Y-87846665D01*
X161541269Y-87846663D01*
X161539719Y-87836874D01*
X161478528Y-87716780D01*
X161383220Y-87621472D01*
X161324554Y-87591580D01*
X163271497Y-87591580D01*
X163273048Y-87601373D01*
X163291015Y-87714810D01*
X163292582Y-87724706D01*
X163353773Y-87844800D01*
X163449081Y-87940108D01*
X163569175Y-88001299D01*
X163578964Y-88002849D01*
X163578966Y-88002850D01*
X163692508Y-88020833D01*
X163702301Y-88022384D01*
X163712094Y-88020833D01*
X163825636Y-88002850D01*
X163825638Y-88002849D01*
X163835427Y-88001299D01*
X163955521Y-87940108D01*
X164050829Y-87844800D01*
X164105501Y-87737500D01*
X166031696Y-87737500D01*
X166033247Y-87747293D01*
X166050858Y-87858483D01*
X166052781Y-87870626D01*
X166113972Y-87990720D01*
X166209280Y-88086028D01*
X166329374Y-88147219D01*
X166339163Y-88148769D01*
X166339165Y-88148770D01*
X166452707Y-88166753D01*
X166462500Y-88168304D01*
X166472293Y-88166753D01*
X166585835Y-88148770D01*
X166585837Y-88148769D01*
X166595626Y-88147219D01*
X166715720Y-88086028D01*
X166811028Y-87990720D01*
X166872219Y-87870626D01*
X166874143Y-87858483D01*
X166891753Y-87747293D01*
X166893304Y-87737500D01*
X166881337Y-87661945D01*
X166873770Y-87614165D01*
X166873769Y-87614163D01*
X166872219Y-87604374D01*
X166811028Y-87484280D01*
X166715720Y-87388972D01*
X166595626Y-87327781D01*
X166585837Y-87326231D01*
X166585835Y-87326230D01*
X166472293Y-87308247D01*
X166462500Y-87306696D01*
X166452707Y-87308247D01*
X166339165Y-87326230D01*
X166339163Y-87326231D01*
X166329374Y-87327781D01*
X166209280Y-87388972D01*
X166113972Y-87484280D01*
X166052781Y-87604374D01*
X166051231Y-87614163D01*
X166051230Y-87614165D01*
X166043663Y-87661945D01*
X166031696Y-87737500D01*
X164105501Y-87737500D01*
X164112020Y-87724706D01*
X164113588Y-87714810D01*
X164131554Y-87601373D01*
X164133105Y-87591580D01*
X164121990Y-87521403D01*
X164113571Y-87468245D01*
X164113570Y-87468243D01*
X164112020Y-87458454D01*
X164050829Y-87338360D01*
X163955521Y-87243052D01*
X163835427Y-87181861D01*
X163825638Y-87180311D01*
X163825636Y-87180310D01*
X163712094Y-87162327D01*
X163702301Y-87160776D01*
X163692508Y-87162327D01*
X163578966Y-87180310D01*
X163578964Y-87180311D01*
X163569175Y-87181861D01*
X163449081Y-87243052D01*
X163353773Y-87338360D01*
X163292582Y-87458454D01*
X163291032Y-87468243D01*
X163291031Y-87468245D01*
X163282612Y-87521403D01*
X163271497Y-87591580D01*
X161324554Y-87591580D01*
X161263126Y-87560281D01*
X161253337Y-87558731D01*
X161253335Y-87558730D01*
X161139793Y-87540747D01*
X161130000Y-87539196D01*
X161120207Y-87540747D01*
X161006665Y-87558730D01*
X161006663Y-87558731D01*
X160996874Y-87560281D01*
X160876780Y-87621472D01*
X160781472Y-87716780D01*
X160775780Y-87727951D01*
X160742267Y-87793724D01*
X160693519Y-87845339D01*
X160624604Y-87862405D01*
X160557402Y-87839504D01*
X160517733Y-87793724D01*
X160484220Y-87727951D01*
X160478528Y-87716780D01*
X160383220Y-87621472D01*
X160263126Y-87560281D01*
X160253337Y-87558731D01*
X160253335Y-87558730D01*
X160139793Y-87540747D01*
X160130000Y-87539196D01*
X160120207Y-87540747D01*
X160006665Y-87558730D01*
X160006663Y-87558731D01*
X159996874Y-87560281D01*
X159876780Y-87621472D01*
X159781472Y-87716780D01*
X159720281Y-87836874D01*
X159718731Y-87846663D01*
X159718730Y-87846665D01*
X159705041Y-87933097D01*
X159699196Y-87970000D01*
X156889399Y-87970000D01*
X156764553Y-87854594D01*
X156764551Y-87854592D01*
X156760312Y-87850674D01*
X156738440Y-87836874D01*
X156594137Y-87745825D01*
X156589257Y-87742746D01*
X156401398Y-87667798D01*
X156203026Y-87628339D01*
X156197252Y-87628263D01*
X156197248Y-87628263D01*
X156094757Y-87626922D01*
X156000786Y-87625692D01*
X155995089Y-87626671D01*
X155995088Y-87626671D01*
X155807146Y-87658965D01*
X155807145Y-87658965D01*
X155801449Y-87659944D01*
X155611693Y-87729949D01*
X155606732Y-87732901D01*
X155606731Y-87732901D01*
X155504497Y-87793724D01*
X155437871Y-87833362D01*
X155285805Y-87966720D01*
X155160589Y-88125557D01*
X155066414Y-88304553D01*
X155006437Y-88497713D01*
X154982664Y-88698569D01*
X154995892Y-88900394D01*
X154999560Y-88914837D01*
X155033806Y-89049680D01*
X155045678Y-89096428D01*
X155130356Y-89280107D01*
X155137888Y-89290765D01*
X155219213Y-89405837D01*
X155247088Y-89445280D01*
X155251230Y-89449315D01*
X155269131Y-89466753D01*
X155391966Y-89586413D01*
X155396771Y-89589624D01*
X155396774Y-89589626D01*
X155421631Y-89606235D01*
X155467159Y-89660711D01*
X155476008Y-89731154D01*
X155445367Y-89795199D01*
X155384965Y-89832510D01*
X155351630Y-89837000D01*
X148671161Y-89837000D01*
X148603040Y-89816998D01*
X148556547Y-89763342D01*
X148546443Y-89693068D01*
X148548227Y-89683373D01*
X148548799Y-89680827D01*
X148551904Y-89672591D01*
X148559358Y-89581439D01*
X148549254Y-89511165D01*
X148544162Y-89486550D01*
X148525835Y-89452157D01*
X148511452Y-89382636D01*
X148536939Y-89316372D01*
X148547938Y-89303810D01*
X148561028Y-89290720D01*
X148622219Y-89170626D01*
X148625240Y-89151556D01*
X148641753Y-89047293D01*
X148643304Y-89037500D01*
X149131696Y-89037500D01*
X149133247Y-89047293D01*
X149149761Y-89151556D01*
X149152781Y-89170626D01*
X149213972Y-89290720D01*
X149309280Y-89386028D01*
X149429374Y-89447219D01*
X149439163Y-89448769D01*
X149439165Y-89448770D01*
X149552707Y-89466753D01*
X149562500Y-89468304D01*
X149572293Y-89466753D01*
X149685835Y-89448770D01*
X149685837Y-89448769D01*
X149695626Y-89447219D01*
X149815720Y-89386028D01*
X149823405Y-89378343D01*
X149824425Y-89377786D01*
X149830752Y-89373189D01*
X149831346Y-89374007D01*
X149885717Y-89344317D01*
X149956532Y-89349382D01*
X149994034Y-89373484D01*
X149994248Y-89373189D01*
X149999400Y-89376932D01*
X150001595Y-89378343D01*
X150009280Y-89386028D01*
X150129374Y-89447219D01*
X150139163Y-89448769D01*
X150139165Y-89448770D01*
X150252707Y-89466753D01*
X150262500Y-89468304D01*
X150272293Y-89466753D01*
X150385835Y-89448770D01*
X150385837Y-89448769D01*
X150395626Y-89447219D01*
X150515720Y-89386028D01*
X150611028Y-89290720D01*
X150672219Y-89170626D01*
X150675240Y-89151556D01*
X150691753Y-89047293D01*
X150693304Y-89037500D01*
X150685936Y-88990981D01*
X150673770Y-88914165D01*
X150673769Y-88914163D01*
X150672219Y-88904374D01*
X150611028Y-88784280D01*
X150515720Y-88688972D01*
X150395626Y-88627781D01*
X150385837Y-88626231D01*
X150385835Y-88626230D01*
X150272293Y-88608247D01*
X150262500Y-88606696D01*
X150252707Y-88608247D01*
X150139165Y-88626230D01*
X150139163Y-88626231D01*
X150129374Y-88627781D01*
X150009280Y-88688972D01*
X150001595Y-88696657D01*
X150000575Y-88697214D01*
X149994248Y-88701811D01*
X149993654Y-88700993D01*
X149939283Y-88730683D01*
X149868468Y-88725618D01*
X149830966Y-88701516D01*
X149830752Y-88701811D01*
X149825600Y-88698068D01*
X149823405Y-88696657D01*
X149815720Y-88688972D01*
X149695626Y-88627781D01*
X149685837Y-88626231D01*
X149685835Y-88626230D01*
X149572293Y-88608247D01*
X149562500Y-88606696D01*
X149552707Y-88608247D01*
X149439165Y-88626230D01*
X149439163Y-88626231D01*
X149429374Y-88627781D01*
X149309280Y-88688972D01*
X149213972Y-88784280D01*
X149152781Y-88904374D01*
X149151231Y-88914163D01*
X149151230Y-88914165D01*
X149139064Y-88990981D01*
X149131696Y-89037500D01*
X148643304Y-89037500D01*
X148635936Y-88990981D01*
X148623770Y-88914166D01*
X148623770Y-88914165D01*
X148622219Y-88904374D01*
X148621101Y-88902180D01*
X148619193Y-88835348D01*
X148658538Y-88772159D01*
X148675602Y-88757372D01*
X148675606Y-88757368D01*
X148677072Y-88756098D01*
X148695027Y-88738505D01*
X148739674Y-88658687D01*
X148754052Y-88609719D01*
X148758407Y-88594889D01*
X148758408Y-88594885D01*
X148759676Y-88590566D01*
X148760317Y-88586111D01*
X148767361Y-88537118D01*
X148767362Y-88537111D01*
X148768000Y-88532670D01*
X148768000Y-86982954D01*
X157577740Y-86982954D01*
X157579291Y-86992747D01*
X157594742Y-87090299D01*
X157598825Y-87116080D01*
X157660016Y-87236174D01*
X157755324Y-87331482D01*
X157875418Y-87392673D01*
X157885207Y-87394223D01*
X157885209Y-87394224D01*
X157998751Y-87412207D01*
X158008544Y-87413758D01*
X158018337Y-87412207D01*
X158131879Y-87394224D01*
X158131881Y-87394223D01*
X158141670Y-87392673D01*
X158261764Y-87331482D01*
X158357072Y-87236174D01*
X158418263Y-87116080D01*
X158422347Y-87090299D01*
X158424770Y-87075000D01*
X170494196Y-87075000D01*
X170495747Y-87084793D01*
X170507782Y-87160776D01*
X170515281Y-87208126D01*
X170576472Y-87328220D01*
X170671780Y-87423528D01*
X170791874Y-87484719D01*
X170801663Y-87486269D01*
X170801665Y-87486270D01*
X170915207Y-87504253D01*
X170925000Y-87505804D01*
X170934793Y-87504253D01*
X171048335Y-87486270D01*
X171048337Y-87486269D01*
X171058126Y-87484719D01*
X171178220Y-87423528D01*
X171273528Y-87328220D01*
X171334719Y-87208126D01*
X171342219Y-87160776D01*
X171354253Y-87084793D01*
X171355804Y-87075000D01*
X171343411Y-86996753D01*
X171336270Y-86951665D01*
X171336269Y-86951663D01*
X171334719Y-86941874D01*
X171273528Y-86821780D01*
X171178220Y-86726472D01*
X171058126Y-86665281D01*
X171048337Y-86663731D01*
X171048335Y-86663730D01*
X170934793Y-86645747D01*
X170925000Y-86644196D01*
X170915207Y-86645747D01*
X170801665Y-86663730D01*
X170801663Y-86663731D01*
X170791874Y-86665281D01*
X170671780Y-86726472D01*
X170576472Y-86821780D01*
X170515281Y-86941874D01*
X170513731Y-86951663D01*
X170513730Y-86951665D01*
X170506589Y-86996753D01*
X170494196Y-87075000D01*
X158424770Y-87075000D01*
X158437797Y-86992747D01*
X158439348Y-86982954D01*
X158431443Y-86933041D01*
X158419814Y-86859619D01*
X158419813Y-86859617D01*
X158418263Y-86849828D01*
X158357072Y-86729734D01*
X158261764Y-86634426D01*
X158141670Y-86573235D01*
X158131881Y-86571685D01*
X158131879Y-86571684D01*
X158018337Y-86553701D01*
X158008544Y-86552150D01*
X157998751Y-86553701D01*
X157885209Y-86571684D01*
X157885207Y-86571685D01*
X157875418Y-86573235D01*
X157755324Y-86634426D01*
X157660016Y-86729734D01*
X157598825Y-86849828D01*
X157597275Y-86859617D01*
X157597274Y-86859619D01*
X157585645Y-86933041D01*
X157577740Y-86982954D01*
X148768000Y-86982954D01*
X148768000Y-85716158D01*
X150029604Y-85716158D01*
X150031155Y-85725951D01*
X150048823Y-85837500D01*
X150050689Y-85849284D01*
X150111880Y-85969378D01*
X150207188Y-86064686D01*
X150327282Y-86125877D01*
X150337071Y-86127427D01*
X150337073Y-86127428D01*
X150450615Y-86145411D01*
X150460408Y-86146962D01*
X150470201Y-86145411D01*
X150583743Y-86127428D01*
X150583745Y-86127427D01*
X150593534Y-86125877D01*
X150713628Y-86064686D01*
X150808936Y-85969378D01*
X150870127Y-85849284D01*
X150871994Y-85837500D01*
X154631696Y-85837500D01*
X154633247Y-85847293D01*
X154650353Y-85955294D01*
X154652781Y-85970626D01*
X154713972Y-86090720D01*
X154809280Y-86186028D01*
X154929374Y-86247219D01*
X154939163Y-86248769D01*
X154939165Y-86248770D01*
X155052707Y-86266753D01*
X155062500Y-86268304D01*
X155072293Y-86266753D01*
X155185835Y-86248770D01*
X155185837Y-86248769D01*
X155195626Y-86247219D01*
X155315720Y-86186028D01*
X155363748Y-86138000D01*
X166231696Y-86138000D01*
X166233247Y-86147793D01*
X166249331Y-86249341D01*
X166252781Y-86271126D01*
X166313972Y-86391220D01*
X166409280Y-86486528D01*
X166529374Y-86547719D01*
X166539163Y-86549269D01*
X166539165Y-86549270D01*
X166652707Y-86567253D01*
X166662500Y-86568804D01*
X166670733Y-86567500D01*
X173601696Y-86567500D01*
X173622781Y-86700626D01*
X173683972Y-86820720D01*
X173779280Y-86916028D01*
X173899374Y-86977219D01*
X173909163Y-86978769D01*
X173909165Y-86978770D01*
X174022707Y-86996753D01*
X174032500Y-86998304D01*
X174042293Y-86996753D01*
X174155835Y-86978770D01*
X174155837Y-86978769D01*
X174165626Y-86977219D01*
X174285720Y-86916028D01*
X174381028Y-86820720D01*
X174442219Y-86700626D01*
X174463304Y-86567500D01*
X174461753Y-86557707D01*
X174443770Y-86444165D01*
X174443769Y-86444163D01*
X174442219Y-86434374D01*
X174381028Y-86314280D01*
X174285720Y-86218972D01*
X174165626Y-86157781D01*
X174155837Y-86156231D01*
X174155835Y-86156230D01*
X174042293Y-86138247D01*
X174032500Y-86136696D01*
X174022707Y-86138247D01*
X173909165Y-86156230D01*
X173909163Y-86156231D01*
X173899374Y-86157781D01*
X173779280Y-86218972D01*
X173683972Y-86314280D01*
X173622781Y-86434374D01*
X173621231Y-86444163D01*
X173621230Y-86444165D01*
X173603247Y-86557707D01*
X173601696Y-86567500D01*
X166670733Y-86567500D01*
X166672293Y-86567253D01*
X166785835Y-86549270D01*
X166785837Y-86549269D01*
X166795626Y-86547719D01*
X166915720Y-86486528D01*
X167011028Y-86391220D01*
X167072219Y-86271126D01*
X167075670Y-86249341D01*
X167091753Y-86147793D01*
X167093304Y-86138000D01*
X167084417Y-86081888D01*
X167073770Y-86014665D01*
X167073769Y-86014663D01*
X167072219Y-86004874D01*
X167011028Y-85884780D01*
X166915720Y-85789472D01*
X166795626Y-85728281D01*
X166785837Y-85726731D01*
X166785835Y-85726730D01*
X166672293Y-85708747D01*
X166662500Y-85707196D01*
X166652707Y-85708747D01*
X166539165Y-85726730D01*
X166539163Y-85726731D01*
X166529374Y-85728281D01*
X166409280Y-85789472D01*
X166313972Y-85884780D01*
X166252781Y-86004874D01*
X166251231Y-86014663D01*
X166251230Y-86014665D01*
X166240583Y-86081888D01*
X166231696Y-86138000D01*
X155363748Y-86138000D01*
X155411028Y-86090720D01*
X155472219Y-85970626D01*
X155474648Y-85955294D01*
X155491753Y-85847293D01*
X155493304Y-85837500D01*
X155485697Y-85789472D01*
X155473770Y-85714165D01*
X155473769Y-85714163D01*
X155472219Y-85704374D01*
X155469639Y-85699311D01*
X155769885Y-85699311D01*
X155771436Y-85709104D01*
X155787649Y-85811467D01*
X155790970Y-85832437D01*
X155852161Y-85952531D01*
X155947469Y-86047839D01*
X156067563Y-86109030D01*
X156077352Y-86110580D01*
X156077354Y-86110581D01*
X156190896Y-86128564D01*
X156200689Y-86130115D01*
X156210482Y-86128564D01*
X156324024Y-86110581D01*
X156324026Y-86110580D01*
X156333815Y-86109030D01*
X156453909Y-86047839D01*
X156549217Y-85952531D01*
X156610408Y-85832437D01*
X156613730Y-85811467D01*
X156629942Y-85709104D01*
X156631493Y-85699311D01*
X156623203Y-85646972D01*
X156611959Y-85575976D01*
X156611958Y-85575974D01*
X156610408Y-85566185D01*
X156549217Y-85446091D01*
X156453909Y-85350783D01*
X156333815Y-85289592D01*
X156324026Y-85288042D01*
X156324024Y-85288041D01*
X156210482Y-85270058D01*
X156200689Y-85268507D01*
X156190896Y-85270058D01*
X156077354Y-85288041D01*
X156077352Y-85288042D01*
X156067563Y-85289592D01*
X155947469Y-85350783D01*
X155852161Y-85446091D01*
X155790970Y-85566185D01*
X155789420Y-85575974D01*
X155789419Y-85575976D01*
X155778175Y-85646972D01*
X155769885Y-85699311D01*
X155469639Y-85699311D01*
X155411028Y-85584280D01*
X155315720Y-85488972D01*
X155195626Y-85427781D01*
X155185837Y-85426231D01*
X155185835Y-85426230D01*
X155072293Y-85408247D01*
X155062500Y-85406696D01*
X155052707Y-85408247D01*
X154939165Y-85426230D01*
X154939163Y-85426231D01*
X154929374Y-85427781D01*
X154809280Y-85488972D01*
X154713972Y-85584280D01*
X154652781Y-85704374D01*
X154651231Y-85714163D01*
X154651230Y-85714165D01*
X154639303Y-85789472D01*
X154631696Y-85837500D01*
X150871994Y-85837500D01*
X150889661Y-85725951D01*
X150891212Y-85716158D01*
X150887905Y-85695281D01*
X150871678Y-85592823D01*
X150871677Y-85592821D01*
X150870127Y-85583032D01*
X150808936Y-85462938D01*
X150713628Y-85367630D01*
X150593534Y-85306439D01*
X150583745Y-85304889D01*
X150583743Y-85304888D01*
X150470201Y-85286905D01*
X150460408Y-85285354D01*
X150450615Y-85286905D01*
X150337073Y-85304888D01*
X150337071Y-85304889D01*
X150327282Y-85306439D01*
X150207188Y-85367630D01*
X150111880Y-85462938D01*
X150050689Y-85583032D01*
X150049139Y-85592821D01*
X150049138Y-85592823D01*
X150032911Y-85695281D01*
X150029604Y-85716158D01*
X148768000Y-85716158D01*
X148768000Y-85698126D01*
X148788002Y-85630005D01*
X148841658Y-85583512D01*
X148874289Y-85573677D01*
X148992085Y-85555020D01*
X148992087Y-85555019D01*
X149001876Y-85553469D01*
X149121970Y-85492278D01*
X149217278Y-85396970D01*
X149278469Y-85276876D01*
X149280073Y-85266753D01*
X149298003Y-85153543D01*
X149299554Y-85143750D01*
X149298003Y-85133957D01*
X149280020Y-85020415D01*
X149280019Y-85020413D01*
X149278469Y-85010624D01*
X149217278Y-84890530D01*
X149164248Y-84837500D01*
X154031696Y-84837500D01*
X154033247Y-84847293D01*
X154048528Y-84943771D01*
X154052781Y-84970626D01*
X154113972Y-85090720D01*
X154209280Y-85186028D01*
X154329374Y-85247219D01*
X154339163Y-85248769D01*
X154339165Y-85248770D01*
X154452707Y-85266753D01*
X154462500Y-85268304D01*
X154472293Y-85266753D01*
X154585835Y-85248770D01*
X154585837Y-85248769D01*
X154595626Y-85247219D01*
X154715720Y-85186028D01*
X154811028Y-85090720D01*
X154872219Y-84970626D01*
X154876473Y-84943771D01*
X154891753Y-84847293D01*
X154893304Y-84837500D01*
X154888098Y-84804630D01*
X154878480Y-84743903D01*
X156726764Y-84743903D01*
X156728315Y-84753696D01*
X156743128Y-84847219D01*
X156747849Y-84877029D01*
X156809040Y-84997123D01*
X156904348Y-85092431D01*
X157024442Y-85153622D01*
X157034231Y-85155172D01*
X157034233Y-85155173D01*
X157147775Y-85173156D01*
X157157568Y-85174707D01*
X157167361Y-85173156D01*
X157216994Y-85165295D01*
X159354528Y-85165295D01*
X159356079Y-85175088D01*
X159373600Y-85285709D01*
X159375613Y-85298421D01*
X159436804Y-85418515D01*
X159532112Y-85513823D01*
X159652206Y-85575014D01*
X159661995Y-85576564D01*
X159661997Y-85576565D01*
X159775539Y-85594548D01*
X159785332Y-85596099D01*
X159795125Y-85594548D01*
X159908667Y-85576565D01*
X159908669Y-85576564D01*
X159918458Y-85575014D01*
X160038552Y-85513823D01*
X160133860Y-85418515D01*
X160195051Y-85298421D01*
X160197065Y-85285709D01*
X160214585Y-85175088D01*
X160216136Y-85165295D01*
X160204294Y-85090528D01*
X160196602Y-85041960D01*
X160196601Y-85041958D01*
X160195051Y-85032169D01*
X160133860Y-84912075D01*
X160038552Y-84816767D01*
X159918458Y-84755576D01*
X159908669Y-84754026D01*
X159908667Y-84754025D01*
X159795125Y-84736042D01*
X159785332Y-84734491D01*
X159775539Y-84736042D01*
X159661997Y-84754025D01*
X159661995Y-84754026D01*
X159652206Y-84755576D01*
X159532112Y-84816767D01*
X159436804Y-84912075D01*
X159375613Y-85032169D01*
X159374063Y-85041958D01*
X159374062Y-85041960D01*
X159366370Y-85090528D01*
X159354528Y-85165295D01*
X157216994Y-85165295D01*
X157280903Y-85155173D01*
X157280905Y-85155172D01*
X157290694Y-85153622D01*
X157410788Y-85092431D01*
X157506096Y-84997123D01*
X157567287Y-84877029D01*
X157572009Y-84847219D01*
X157586821Y-84753696D01*
X157588372Y-84743903D01*
X157582182Y-84704822D01*
X157568838Y-84620568D01*
X157568837Y-84620566D01*
X157567287Y-84610777D01*
X157506096Y-84490683D01*
X157410788Y-84395375D01*
X157290694Y-84334184D01*
X157280905Y-84332634D01*
X157280903Y-84332633D01*
X157167361Y-84314650D01*
X157157568Y-84313099D01*
X157147775Y-84314650D01*
X157034233Y-84332633D01*
X157034231Y-84332634D01*
X157024442Y-84334184D01*
X156904348Y-84395375D01*
X156809040Y-84490683D01*
X156747849Y-84610777D01*
X156746299Y-84620566D01*
X156746298Y-84620568D01*
X156732954Y-84704822D01*
X156726764Y-84743903D01*
X154878480Y-84743903D01*
X154873770Y-84714165D01*
X154873769Y-84714163D01*
X154872219Y-84704374D01*
X154811028Y-84584280D01*
X154715720Y-84488972D01*
X154595626Y-84427781D01*
X154585837Y-84426231D01*
X154585835Y-84426230D01*
X154472293Y-84408247D01*
X154462500Y-84406696D01*
X154452707Y-84408247D01*
X154339165Y-84426230D01*
X154339163Y-84426231D01*
X154329374Y-84427781D01*
X154209280Y-84488972D01*
X154113972Y-84584280D01*
X154052781Y-84704374D01*
X154051231Y-84714163D01*
X154051230Y-84714165D01*
X154036902Y-84804630D01*
X154031696Y-84837500D01*
X149164248Y-84837500D01*
X149121970Y-84795222D01*
X149001876Y-84734031D01*
X148992087Y-84732481D01*
X148992085Y-84732480D01*
X148874289Y-84713823D01*
X148810136Y-84683410D01*
X148772609Y-84623142D01*
X148768000Y-84589374D01*
X148768000Y-84200000D01*
X159969196Y-84200000D01*
X159970747Y-84209793D01*
X159987355Y-84314650D01*
X159990281Y-84333126D01*
X160051472Y-84453220D01*
X160146780Y-84548528D01*
X160266874Y-84609719D01*
X160276663Y-84611269D01*
X160276665Y-84611270D01*
X160390207Y-84629253D01*
X160400000Y-84630804D01*
X160409793Y-84629253D01*
X160523335Y-84611270D01*
X160523337Y-84611269D01*
X160533126Y-84609719D01*
X160653220Y-84548528D01*
X160748528Y-84453220D01*
X160756538Y-84437500D01*
X161236196Y-84437500D01*
X161237747Y-84447293D01*
X161254062Y-84550299D01*
X161257281Y-84570626D01*
X161318472Y-84690720D01*
X161413780Y-84786028D01*
X161533874Y-84847219D01*
X161543663Y-84848769D01*
X161543665Y-84848770D01*
X161657207Y-84866753D01*
X161667000Y-84868304D01*
X161676793Y-84866753D01*
X161790335Y-84848770D01*
X161790337Y-84848769D01*
X161800126Y-84847219D01*
X161920220Y-84786028D01*
X162015528Y-84690720D01*
X162076719Y-84570626D01*
X162079939Y-84550299D01*
X162096253Y-84447293D01*
X162097804Y-84437500D01*
X162091613Y-84398411D01*
X162708299Y-84398411D01*
X162709850Y-84408204D01*
X162725487Y-84506930D01*
X162729384Y-84531537D01*
X162790575Y-84651631D01*
X162885883Y-84746939D01*
X163005977Y-84808130D01*
X163015766Y-84809680D01*
X163015768Y-84809681D01*
X163129310Y-84827664D01*
X163139103Y-84829215D01*
X163226883Y-84815312D01*
X163297294Y-84824412D01*
X163351608Y-84870134D01*
X163358858Y-84882553D01*
X163413972Y-84990720D01*
X163509280Y-85086028D01*
X163629374Y-85147219D01*
X163639163Y-85148769D01*
X163639165Y-85148770D01*
X163752707Y-85166753D01*
X163762500Y-85168304D01*
X163772293Y-85166753D01*
X163885835Y-85148770D01*
X163885837Y-85148769D01*
X163895626Y-85147219D01*
X163997130Y-85095500D01*
X167221365Y-85095500D01*
X167222916Y-85105293D01*
X167230571Y-85153622D01*
X167242450Y-85228626D01*
X167303641Y-85348720D01*
X167398949Y-85444028D01*
X167519043Y-85505219D01*
X167528832Y-85506769D01*
X167528834Y-85506770D01*
X167642376Y-85524753D01*
X167652169Y-85526304D01*
X167661962Y-85524753D01*
X167775504Y-85506770D01*
X167775506Y-85506769D01*
X167785295Y-85505219D01*
X167905389Y-85444028D01*
X168000697Y-85348720D01*
X168001565Y-85349588D01*
X168050019Y-85312228D01*
X168120756Y-85306154D01*
X168184824Y-85340549D01*
X168250653Y-85406378D01*
X168340340Y-85452076D01*
X168391954Y-85500823D01*
X168409020Y-85569738D01*
X168386119Y-85636940D01*
X168330522Y-85681092D01*
X168302848Y-85688790D01*
X168271671Y-85693728D01*
X168271663Y-85693731D01*
X168261874Y-85695281D01*
X168141780Y-85756472D01*
X168046472Y-85851780D01*
X167985281Y-85971874D01*
X167983731Y-85981663D01*
X167983730Y-85981665D01*
X167967753Y-86082539D01*
X167964196Y-86105000D01*
X167965747Y-86114793D01*
X167983358Y-86225983D01*
X167985281Y-86238126D01*
X168046472Y-86358220D01*
X168141780Y-86453528D01*
X168261874Y-86514719D01*
X168271663Y-86516269D01*
X168271665Y-86516270D01*
X168385207Y-86534253D01*
X168395000Y-86535804D01*
X168404793Y-86534253D01*
X168518335Y-86516270D01*
X168518337Y-86516269D01*
X168528126Y-86514719D01*
X168648220Y-86453528D01*
X168743528Y-86358220D01*
X168804719Y-86238126D01*
X168806643Y-86225983D01*
X168824253Y-86114793D01*
X168825804Y-86105000D01*
X168822247Y-86082539D01*
X168809174Y-86000000D01*
X175069196Y-86000000D01*
X175070747Y-86009793D01*
X175086465Y-86109030D01*
X175090281Y-86133126D01*
X175151472Y-86253220D01*
X175246780Y-86348528D01*
X175366874Y-86409719D01*
X175376663Y-86411269D01*
X175376665Y-86411270D01*
X175490207Y-86429253D01*
X175500000Y-86430804D01*
X175509793Y-86429253D01*
X175623335Y-86411270D01*
X175623337Y-86411269D01*
X175633126Y-86409719D01*
X175753220Y-86348528D01*
X175848528Y-86253220D01*
X175909719Y-86133126D01*
X175913536Y-86109030D01*
X175929253Y-86009793D01*
X175930804Y-86000000D01*
X175927551Y-85979459D01*
X175911270Y-85876665D01*
X175911269Y-85876663D01*
X175909719Y-85866874D01*
X175848528Y-85746780D01*
X175753220Y-85651472D01*
X175633126Y-85590281D01*
X175623337Y-85588731D01*
X175623335Y-85588730D01*
X175509793Y-85570747D01*
X175500000Y-85569196D01*
X175490207Y-85570747D01*
X175376665Y-85588730D01*
X175376663Y-85588731D01*
X175366874Y-85590281D01*
X175246780Y-85651472D01*
X175151472Y-85746780D01*
X175090281Y-85866874D01*
X175088731Y-85876663D01*
X175088730Y-85876665D01*
X175072449Y-85979459D01*
X175069196Y-86000000D01*
X168809174Y-86000000D01*
X168806270Y-85981665D01*
X168806269Y-85981663D01*
X168804719Y-85971874D01*
X168743528Y-85851780D01*
X168648220Y-85756472D01*
X168558533Y-85710774D01*
X168506919Y-85662027D01*
X168489853Y-85593112D01*
X168498492Y-85567762D01*
X178932020Y-85567762D01*
X178932536Y-85573906D01*
X178947867Y-85756472D01*
X178949259Y-85773053D01*
X178950958Y-85778978D01*
X179003105Y-85960835D01*
X179006044Y-85971086D01*
X179008859Y-85976563D01*
X179008860Y-85976566D01*
X179097397Y-86148841D01*
X179100212Y-86154318D01*
X179228177Y-86315770D01*
X179232870Y-86319764D01*
X179232871Y-86319765D01*
X179367537Y-86434374D01*
X179385064Y-86449291D01*
X179564898Y-86549797D01*
X179632259Y-86571684D01*
X179754971Y-86611556D01*
X179754975Y-86611557D01*
X179760829Y-86613459D01*
X179965394Y-86637851D01*
X179971529Y-86637379D01*
X179971531Y-86637379D01*
X180027539Y-86633069D01*
X180170800Y-86622046D01*
X180176730Y-86620390D01*
X180176732Y-86620390D01*
X180363297Y-86568300D01*
X180363296Y-86568300D01*
X180369225Y-86566645D01*
X180374714Y-86563872D01*
X180374720Y-86563870D01*
X180518921Y-86491028D01*
X180553110Y-86473758D01*
X180579004Y-86453528D01*
X180692019Y-86365231D01*
X180715451Y-86346924D01*
X180720119Y-86341517D01*
X180846040Y-86195634D01*
X180846040Y-86195633D01*
X180850064Y-86190972D01*
X180856856Y-86179017D01*
X180893340Y-86114793D01*
X180951823Y-86011844D01*
X181016851Y-85816363D01*
X181042671Y-85611974D01*
X181043083Y-85582500D01*
X181022980Y-85377470D01*
X180963435Y-85180249D01*
X180866718Y-84998349D01*
X180772281Y-84882558D01*
X180740406Y-84843475D01*
X180740403Y-84843472D01*
X180736511Y-84838700D01*
X180719240Y-84824412D01*
X180582525Y-84711311D01*
X180582521Y-84711309D01*
X180577775Y-84707382D01*
X180396555Y-84609397D01*
X180199754Y-84548477D01*
X180193629Y-84547833D01*
X180193628Y-84547833D01*
X180000998Y-84527587D01*
X180000996Y-84527587D01*
X179994869Y-84526943D01*
X179908029Y-84534846D01*
X179795842Y-84545055D01*
X179795839Y-84545056D01*
X179789703Y-84545614D01*
X179592072Y-84603780D01*
X179409502Y-84699226D01*
X179404701Y-84703086D01*
X179404698Y-84703088D01*
X179263310Y-84816767D01*
X179248947Y-84828315D01*
X179116524Y-84986130D01*
X179113556Y-84991528D01*
X179113553Y-84991533D01*
X179055611Y-85096931D01*
X179017276Y-85166662D01*
X178954984Y-85363032D01*
X178954298Y-85369149D01*
X178954297Y-85369153D01*
X178938070Y-85513823D01*
X178932020Y-85567762D01*
X168498492Y-85567762D01*
X168512754Y-85525910D01*
X168568351Y-85481758D01*
X168596025Y-85474060D01*
X168627202Y-85469122D01*
X168627210Y-85469119D01*
X168636999Y-85467569D01*
X168757093Y-85406378D01*
X168852401Y-85311070D01*
X168913592Y-85190976D01*
X168916109Y-85175088D01*
X168933126Y-85067643D01*
X168934677Y-85057850D01*
X168924497Y-84993573D01*
X168915143Y-84934515D01*
X168915142Y-84934513D01*
X168913592Y-84924724D01*
X168852401Y-84804630D01*
X168757093Y-84709322D01*
X168636999Y-84648131D01*
X168627210Y-84646581D01*
X168627208Y-84646580D01*
X168513666Y-84628597D01*
X168503873Y-84627046D01*
X168494080Y-84628597D01*
X168380538Y-84646580D01*
X168380536Y-84646581D01*
X168370747Y-84648131D01*
X168250653Y-84709322D01*
X168155345Y-84804630D01*
X168154477Y-84803762D01*
X168106023Y-84841122D01*
X168035286Y-84847196D01*
X167971218Y-84812801D01*
X167905389Y-84746972D01*
X167797098Y-84691795D01*
X167745483Y-84643047D01*
X167728417Y-84574132D01*
X167751318Y-84506930D01*
X167806915Y-84462778D01*
X167834590Y-84455079D01*
X167902834Y-84444270D01*
X167902835Y-84444270D01*
X167912626Y-84442719D01*
X168032720Y-84381528D01*
X168128028Y-84286220D01*
X168189219Y-84166126D01*
X168195836Y-84124352D01*
X168208753Y-84042793D01*
X168210304Y-84033000D01*
X168200425Y-83970626D01*
X168190770Y-83909665D01*
X168190769Y-83909663D01*
X168189219Y-83899874D01*
X168157438Y-83837500D01*
X173531696Y-83837500D01*
X173533247Y-83847293D01*
X173546942Y-83933758D01*
X173552781Y-83970626D01*
X173613972Y-84090720D01*
X173709280Y-84186028D01*
X173829374Y-84247219D01*
X173839163Y-84248769D01*
X173839165Y-84248770D01*
X173952707Y-84266753D01*
X173962500Y-84268304D01*
X173972293Y-84266753D01*
X174085835Y-84248770D01*
X174085837Y-84248769D01*
X174095626Y-84247219D01*
X174215720Y-84186028D01*
X174311028Y-84090720D01*
X174372219Y-83970626D01*
X174378059Y-83933758D01*
X174391753Y-83847293D01*
X174393304Y-83837500D01*
X174382762Y-83770939D01*
X174373770Y-83714165D01*
X174373769Y-83714163D01*
X174372219Y-83704374D01*
X174311028Y-83584280D01*
X174215720Y-83488972D01*
X174095626Y-83427781D01*
X174085837Y-83426231D01*
X174085835Y-83426230D01*
X173972293Y-83408247D01*
X173962500Y-83406696D01*
X173952707Y-83408247D01*
X173839165Y-83426230D01*
X173839163Y-83426231D01*
X173829374Y-83427781D01*
X173709280Y-83488972D01*
X173613972Y-83584280D01*
X173552781Y-83704374D01*
X173551231Y-83714163D01*
X173551230Y-83714165D01*
X173542238Y-83770939D01*
X173531696Y-83837500D01*
X168157438Y-83837500D01*
X168128028Y-83779780D01*
X168032720Y-83684472D01*
X167912626Y-83623281D01*
X167902837Y-83621731D01*
X167902835Y-83621730D01*
X167789293Y-83603747D01*
X167779500Y-83602196D01*
X167769707Y-83603747D01*
X167656165Y-83621730D01*
X167656163Y-83621731D01*
X167646374Y-83623281D01*
X167526280Y-83684472D01*
X167430972Y-83779780D01*
X167369781Y-83899874D01*
X167368231Y-83909663D01*
X167368230Y-83909665D01*
X167358575Y-83970626D01*
X167348696Y-84033000D01*
X167350247Y-84042793D01*
X167363165Y-84124352D01*
X167369781Y-84166126D01*
X167430972Y-84286220D01*
X167526280Y-84381528D01*
X167614013Y-84426230D01*
X167634571Y-84436705D01*
X167686186Y-84485453D01*
X167703252Y-84554368D01*
X167680351Y-84621570D01*
X167624754Y-84665722D01*
X167597079Y-84673421D01*
X167528835Y-84684230D01*
X167528834Y-84684230D01*
X167519043Y-84685781D01*
X167398949Y-84746972D01*
X167303641Y-84842280D01*
X167242450Y-84962374D01*
X167240900Y-84972163D01*
X167240899Y-84972165D01*
X167222916Y-85085707D01*
X167221365Y-85095500D01*
X163997130Y-85095500D01*
X164015720Y-85086028D01*
X164111028Y-84990720D01*
X164115529Y-84981888D01*
X164115961Y-84981038D01*
X164116761Y-84980190D01*
X164121361Y-84973860D01*
X164122179Y-84974454D01*
X164164708Y-84929422D01*
X164233623Y-84912354D01*
X164267164Y-84918405D01*
X164271260Y-84919736D01*
X164280094Y-84924237D01*
X164413220Y-84945322D01*
X164423013Y-84943771D01*
X164536555Y-84925788D01*
X164536557Y-84925787D01*
X164546346Y-84924237D01*
X164666440Y-84863046D01*
X164761748Y-84767738D01*
X164822939Y-84647644D01*
X164824490Y-84637852D01*
X164827555Y-84628419D01*
X164828887Y-84628852D01*
X164854839Y-84574108D01*
X164915108Y-84536583D01*
X164986097Y-84537598D01*
X165045269Y-84576832D01*
X165061140Y-84600769D01*
X165106972Y-84690720D01*
X165202280Y-84786028D01*
X165322374Y-84847219D01*
X165332163Y-84848769D01*
X165332165Y-84848770D01*
X165445707Y-84866753D01*
X165455500Y-84868304D01*
X165465293Y-84866753D01*
X165578835Y-84848770D01*
X165578837Y-84848769D01*
X165588626Y-84847219D01*
X165708720Y-84786028D01*
X165804028Y-84690720D01*
X165865219Y-84570626D01*
X165868439Y-84550299D01*
X165884753Y-84447293D01*
X165886304Y-84437500D01*
X165877439Y-84381528D01*
X165866770Y-84314165D01*
X165866769Y-84314163D01*
X165865219Y-84304374D01*
X165804028Y-84184280D01*
X165708720Y-84088972D01*
X165588626Y-84027781D01*
X165578837Y-84026231D01*
X165578835Y-84026230D01*
X165465293Y-84008247D01*
X165455500Y-84006696D01*
X165445707Y-84008247D01*
X165332165Y-84026230D01*
X165332163Y-84026231D01*
X165322374Y-84027781D01*
X165202280Y-84088972D01*
X165106972Y-84184280D01*
X165045781Y-84304374D01*
X165044230Y-84314165D01*
X165041165Y-84323599D01*
X165039833Y-84323166D01*
X165013881Y-84377910D01*
X164953612Y-84415435D01*
X164882623Y-84414420D01*
X164823451Y-84375186D01*
X164807579Y-84351247D01*
X164801678Y-84339664D01*
X164761748Y-84261298D01*
X164666440Y-84165990D01*
X164546346Y-84104799D01*
X164536557Y-84103249D01*
X164536555Y-84103248D01*
X164423013Y-84085265D01*
X164413220Y-84083714D01*
X164403427Y-84085265D01*
X164289885Y-84103248D01*
X164289883Y-84103249D01*
X164280094Y-84104799D01*
X164160000Y-84165990D01*
X164064692Y-84261298D01*
X164060193Y-84270127D01*
X164060192Y-84270129D01*
X164059759Y-84270980D01*
X164058959Y-84271828D01*
X164054359Y-84278158D01*
X164053541Y-84277564D01*
X164011012Y-84322596D01*
X163942097Y-84339664D01*
X163908556Y-84333613D01*
X163904460Y-84332282D01*
X163895626Y-84327781D01*
X163762500Y-84306696D01*
X163674720Y-84320599D01*
X163604309Y-84311499D01*
X163549995Y-84265777D01*
X163542742Y-84253353D01*
X163537324Y-84242718D01*
X163487631Y-84145191D01*
X163392323Y-84049883D01*
X163272229Y-83988692D01*
X163262440Y-83987142D01*
X163262438Y-83987141D01*
X163148896Y-83969158D01*
X163139103Y-83967607D01*
X163129310Y-83969158D01*
X163015768Y-83987141D01*
X163015766Y-83987142D01*
X163005977Y-83988692D01*
X162885883Y-84049883D01*
X162790575Y-84145191D01*
X162729384Y-84265285D01*
X162727834Y-84275074D01*
X162727833Y-84275076D01*
X162710973Y-84381528D01*
X162708299Y-84398411D01*
X162091613Y-84398411D01*
X162088939Y-84381528D01*
X162078270Y-84314165D01*
X162078269Y-84314163D01*
X162076719Y-84304374D01*
X162015528Y-84184280D01*
X161920220Y-84088972D01*
X161800126Y-84027781D01*
X161790337Y-84026231D01*
X161790335Y-84026230D01*
X161676793Y-84008247D01*
X161667000Y-84006696D01*
X161657207Y-84008247D01*
X161543665Y-84026230D01*
X161543663Y-84026231D01*
X161533874Y-84027781D01*
X161413780Y-84088972D01*
X161318472Y-84184280D01*
X161257281Y-84304374D01*
X161255731Y-84314163D01*
X161255730Y-84314165D01*
X161245061Y-84381528D01*
X161236196Y-84437500D01*
X160756538Y-84437500D01*
X160809719Y-84333126D01*
X160812646Y-84314650D01*
X160829253Y-84209793D01*
X160830804Y-84200000D01*
X160818823Y-84124352D01*
X160811270Y-84076665D01*
X160811269Y-84076663D01*
X160809719Y-84066874D01*
X160748528Y-83946780D01*
X160653220Y-83851472D01*
X160533126Y-83790281D01*
X160523337Y-83788731D01*
X160523335Y-83788730D01*
X160409793Y-83770747D01*
X160400000Y-83769196D01*
X160390207Y-83770747D01*
X160276665Y-83788730D01*
X160276663Y-83788731D01*
X160266874Y-83790281D01*
X160146780Y-83851472D01*
X160051472Y-83946780D01*
X159990281Y-84066874D01*
X159988731Y-84076663D01*
X159988730Y-84076665D01*
X159981177Y-84124352D01*
X159969196Y-84200000D01*
X148768000Y-84200000D01*
X148768000Y-82901796D01*
X156832619Y-82901796D01*
X156834170Y-82911589D01*
X156850991Y-83017790D01*
X156853704Y-83034922D01*
X156914895Y-83155016D01*
X157010203Y-83250324D01*
X157130297Y-83311515D01*
X157140086Y-83313065D01*
X157140088Y-83313066D01*
X157253630Y-83331049D01*
X157263423Y-83332600D01*
X157273216Y-83331049D01*
X157386758Y-83313066D01*
X157386760Y-83313065D01*
X157396549Y-83311515D01*
X157516643Y-83250324D01*
X157611951Y-83155016D01*
X157639983Y-83100000D01*
X159769196Y-83100000D01*
X159770747Y-83109793D01*
X159783652Y-83191270D01*
X159790281Y-83233126D01*
X159851472Y-83353220D01*
X159946780Y-83448528D01*
X160066874Y-83509719D01*
X160076663Y-83511269D01*
X160076665Y-83511270D01*
X160190207Y-83529253D01*
X160200000Y-83530804D01*
X160209793Y-83529253D01*
X160323335Y-83511270D01*
X160323337Y-83511269D01*
X160333126Y-83509719D01*
X160453220Y-83448528D01*
X160548528Y-83353220D01*
X160550172Y-83349993D01*
X164569196Y-83349993D01*
X164570747Y-83359786D01*
X164581102Y-83425162D01*
X164590281Y-83483119D01*
X164651472Y-83603213D01*
X164746780Y-83698521D01*
X164866874Y-83759712D01*
X164876663Y-83761262D01*
X164876665Y-83761263D01*
X164990207Y-83779246D01*
X165000000Y-83780797D01*
X165009793Y-83779246D01*
X165123335Y-83761263D01*
X165123337Y-83761262D01*
X165133126Y-83759712D01*
X165253220Y-83698521D01*
X165348528Y-83603213D01*
X165409719Y-83483119D01*
X165418899Y-83425162D01*
X165429253Y-83359786D01*
X165430804Y-83349993D01*
X165420069Y-83282215D01*
X165411270Y-83226658D01*
X165411269Y-83226656D01*
X165409719Y-83216867D01*
X165348528Y-83096773D01*
X165253220Y-83001465D01*
X165133126Y-82940274D01*
X165123337Y-82938724D01*
X165123335Y-82938723D01*
X165009793Y-82920740D01*
X165000000Y-82919189D01*
X164990207Y-82920740D01*
X164876665Y-82938723D01*
X164876663Y-82938724D01*
X164866874Y-82940274D01*
X164746780Y-83001465D01*
X164651472Y-83096773D01*
X164590281Y-83216867D01*
X164588731Y-83226656D01*
X164588730Y-83226658D01*
X164579931Y-83282215D01*
X164569196Y-83349993D01*
X160550172Y-83349993D01*
X160609719Y-83233126D01*
X160616349Y-83191270D01*
X160629253Y-83109793D01*
X160630804Y-83100000D01*
X160629253Y-83090207D01*
X160611270Y-82976665D01*
X160611269Y-82976663D01*
X160609719Y-82966874D01*
X160550043Y-82849753D01*
X171532915Y-82849753D01*
X171534466Y-82859546D01*
X171544731Y-82924354D01*
X171554000Y-82982879D01*
X171615191Y-83102973D01*
X171710499Y-83198281D01*
X171830593Y-83259472D01*
X171840382Y-83261022D01*
X171840384Y-83261023D01*
X171953926Y-83279006D01*
X171963719Y-83280557D01*
X171973512Y-83279006D01*
X172087054Y-83261023D01*
X172087056Y-83261022D01*
X172096845Y-83259472D01*
X172216939Y-83198281D01*
X172312247Y-83102973D01*
X172350569Y-83027762D01*
X178932020Y-83027762D01*
X178932536Y-83033906D01*
X178948731Y-83226760D01*
X178949259Y-83233053D01*
X178950958Y-83238978D01*
X178985727Y-83360231D01*
X179006044Y-83431086D01*
X179008859Y-83436563D01*
X179008860Y-83436566D01*
X179089966Y-83594381D01*
X179100212Y-83614318D01*
X179228177Y-83775770D01*
X179232870Y-83779764D01*
X179232871Y-83779765D01*
X179325365Y-83858483D01*
X179385064Y-83909291D01*
X179390442Y-83912297D01*
X179390444Y-83912298D01*
X179474981Y-83959544D01*
X179564898Y-84009797D01*
X179641603Y-84034720D01*
X179754971Y-84071556D01*
X179754975Y-84071557D01*
X179760829Y-84073459D01*
X179965394Y-84097851D01*
X179971529Y-84097379D01*
X179971531Y-84097379D01*
X180027539Y-84093069D01*
X180170800Y-84082046D01*
X180176730Y-84080390D01*
X180176732Y-84080390D01*
X180363297Y-84028300D01*
X180363296Y-84028300D01*
X180369225Y-84026645D01*
X180374714Y-84023872D01*
X180374720Y-84023870D01*
X180547616Y-83936533D01*
X180553110Y-83933758D01*
X180715451Y-83806924D01*
X180731258Y-83788612D01*
X180846040Y-83655634D01*
X180846040Y-83655633D01*
X180850064Y-83650972D01*
X180870887Y-83614318D01*
X180948776Y-83477207D01*
X180951823Y-83471844D01*
X181016851Y-83276363D01*
X181042671Y-83071974D01*
X181043083Y-83042500D01*
X181041638Y-83027762D01*
X181472020Y-83027762D01*
X181472536Y-83033906D01*
X181488731Y-83226760D01*
X181489259Y-83233053D01*
X181490958Y-83238978D01*
X181525727Y-83360231D01*
X181546044Y-83431086D01*
X181548859Y-83436563D01*
X181548860Y-83436566D01*
X181629966Y-83594381D01*
X181640212Y-83614318D01*
X181768177Y-83775770D01*
X181772870Y-83779764D01*
X181772871Y-83779765D01*
X181865365Y-83858483D01*
X181925064Y-83909291D01*
X181930442Y-83912297D01*
X181930444Y-83912298D01*
X182014981Y-83959544D01*
X182104898Y-84009797D01*
X182181603Y-84034720D01*
X182294971Y-84071556D01*
X182294975Y-84071557D01*
X182300829Y-84073459D01*
X182505394Y-84097851D01*
X182511529Y-84097379D01*
X182511531Y-84097379D01*
X182567539Y-84093069D01*
X182710800Y-84082046D01*
X182716730Y-84080390D01*
X182716732Y-84080390D01*
X182903297Y-84028300D01*
X182903296Y-84028300D01*
X182909225Y-84026645D01*
X182914714Y-84023872D01*
X182914720Y-84023870D01*
X183087616Y-83936533D01*
X183093110Y-83933758D01*
X183255451Y-83806924D01*
X183271258Y-83788612D01*
X183386040Y-83655634D01*
X183386040Y-83655633D01*
X183390064Y-83650972D01*
X183410887Y-83614318D01*
X183488776Y-83477207D01*
X183491823Y-83471844D01*
X183556851Y-83276363D01*
X183582671Y-83071974D01*
X183583083Y-83042500D01*
X183562980Y-82837470D01*
X183503435Y-82640249D01*
X183406718Y-82458349D01*
X183318879Y-82350648D01*
X183280406Y-82303475D01*
X183280403Y-82303472D01*
X183276511Y-82298700D01*
X183253253Y-82279459D01*
X183122525Y-82171311D01*
X183122521Y-82171309D01*
X183117775Y-82167382D01*
X182936555Y-82069397D01*
X182739754Y-82008477D01*
X182733629Y-82007833D01*
X182733628Y-82007833D01*
X182540998Y-81987587D01*
X182540996Y-81987587D01*
X182534869Y-81986943D01*
X182448029Y-81994846D01*
X182335842Y-82005055D01*
X182335839Y-82005056D01*
X182329703Y-82005614D01*
X182132072Y-82063780D01*
X181949502Y-82159226D01*
X181944701Y-82163086D01*
X181944698Y-82163088D01*
X181799962Y-82279459D01*
X181788947Y-82288315D01*
X181656524Y-82446130D01*
X181653556Y-82451528D01*
X181653553Y-82451533D01*
X181568984Y-82605365D01*
X181557276Y-82626662D01*
X181494984Y-82823032D01*
X181494298Y-82829149D01*
X181494297Y-82829153D01*
X181472707Y-83021637D01*
X181472020Y-83027762D01*
X181041638Y-83027762D01*
X181022980Y-82837470D01*
X180963435Y-82640249D01*
X180866718Y-82458349D01*
X180778879Y-82350648D01*
X180740406Y-82303475D01*
X180740403Y-82303472D01*
X180736511Y-82298700D01*
X180713253Y-82279459D01*
X180582525Y-82171311D01*
X180582521Y-82171309D01*
X180577775Y-82167382D01*
X180396555Y-82069397D01*
X180199754Y-82008477D01*
X180193629Y-82007833D01*
X180193628Y-82007833D01*
X180000998Y-81987587D01*
X180000996Y-81987587D01*
X179994869Y-81986943D01*
X179908029Y-81994846D01*
X179795842Y-82005055D01*
X179795839Y-82005056D01*
X179789703Y-82005614D01*
X179592072Y-82063780D01*
X179409502Y-82159226D01*
X179404701Y-82163086D01*
X179404698Y-82163088D01*
X179259962Y-82279459D01*
X179248947Y-82288315D01*
X179116524Y-82446130D01*
X179113556Y-82451528D01*
X179113553Y-82451533D01*
X179028984Y-82605365D01*
X179017276Y-82626662D01*
X178954984Y-82823032D01*
X178954298Y-82829149D01*
X178954297Y-82829153D01*
X178932707Y-83021637D01*
X178932020Y-83027762D01*
X172350569Y-83027762D01*
X172373438Y-82982879D01*
X172382708Y-82924354D01*
X172392972Y-82859546D01*
X172394523Y-82849753D01*
X172390291Y-82823032D01*
X172374989Y-82726418D01*
X172374988Y-82726416D01*
X172373438Y-82716627D01*
X172312247Y-82596533D01*
X172216939Y-82501225D01*
X172096845Y-82440034D01*
X172087056Y-82438484D01*
X172087054Y-82438483D01*
X171973512Y-82420500D01*
X171963719Y-82418949D01*
X171953926Y-82420500D01*
X171840384Y-82438483D01*
X171840382Y-82438484D01*
X171830593Y-82440034D01*
X171710499Y-82501225D01*
X171615191Y-82596533D01*
X171554000Y-82716627D01*
X171552450Y-82726416D01*
X171552449Y-82726418D01*
X171537147Y-82823032D01*
X171532915Y-82849753D01*
X160550043Y-82849753D01*
X160548528Y-82846780D01*
X160453220Y-82751472D01*
X160333126Y-82690281D01*
X160323337Y-82688731D01*
X160323335Y-82688730D01*
X160209793Y-82670747D01*
X160200000Y-82669196D01*
X160190207Y-82670747D01*
X160076665Y-82688730D01*
X160076663Y-82688731D01*
X160066874Y-82690281D01*
X159946780Y-82751472D01*
X159851472Y-82846780D01*
X159790281Y-82966874D01*
X159788731Y-82976663D01*
X159788730Y-82976665D01*
X159770747Y-83090207D01*
X159769196Y-83100000D01*
X157639983Y-83100000D01*
X157673142Y-83034922D01*
X157675856Y-83017790D01*
X157692676Y-82911589D01*
X157694227Y-82901796D01*
X157687535Y-82859546D01*
X157674693Y-82778461D01*
X157674692Y-82778459D01*
X157673142Y-82768670D01*
X157611951Y-82648576D01*
X157516643Y-82553268D01*
X157396549Y-82492077D01*
X157386760Y-82490527D01*
X157386758Y-82490526D01*
X157273216Y-82472543D01*
X157263423Y-82470992D01*
X157253630Y-82472543D01*
X157140088Y-82490526D01*
X157140086Y-82490527D01*
X157130297Y-82492077D01*
X157010203Y-82553268D01*
X156914895Y-82648576D01*
X156853704Y-82768670D01*
X156852154Y-82778459D01*
X156852153Y-82778461D01*
X156839311Y-82859546D01*
X156832619Y-82901796D01*
X148768000Y-82901796D01*
X148768000Y-82137000D01*
X153231696Y-82137000D01*
X153233247Y-82146793D01*
X153251216Y-82260242D01*
X153252781Y-82270126D01*
X153313972Y-82390220D01*
X153409280Y-82485528D01*
X153529374Y-82546719D01*
X153539163Y-82548269D01*
X153539165Y-82548270D01*
X153652707Y-82566253D01*
X153662500Y-82567804D01*
X153672293Y-82566253D01*
X153785835Y-82548270D01*
X153785837Y-82548269D01*
X153795626Y-82546719D01*
X153915720Y-82485528D01*
X154011028Y-82390220D01*
X154072219Y-82270126D01*
X154073785Y-82260242D01*
X154091753Y-82146793D01*
X154093225Y-82137500D01*
X172644196Y-82137500D01*
X172645747Y-82147293D01*
X172660475Y-82240280D01*
X172665281Y-82270626D01*
X172726472Y-82390720D01*
X172821780Y-82486028D01*
X172941874Y-82547219D01*
X172951663Y-82548769D01*
X172951665Y-82548770D01*
X173065207Y-82566753D01*
X173075000Y-82568304D01*
X173084793Y-82566753D01*
X173198335Y-82548770D01*
X173198337Y-82548769D01*
X173208126Y-82547219D01*
X173328220Y-82486028D01*
X173423528Y-82390720D01*
X173484719Y-82270626D01*
X173489526Y-82240280D01*
X173504253Y-82147293D01*
X173505804Y-82137500D01*
X173498671Y-82092461D01*
X173486270Y-82014165D01*
X173486269Y-82014163D01*
X173484719Y-82004374D01*
X173423528Y-81884280D01*
X173328220Y-81788972D01*
X173208126Y-81727781D01*
X173198337Y-81726231D01*
X173198335Y-81726230D01*
X173084793Y-81708247D01*
X173075000Y-81706696D01*
X173065207Y-81708247D01*
X172951665Y-81726230D01*
X172951663Y-81726231D01*
X172941874Y-81727781D01*
X172821780Y-81788972D01*
X172726472Y-81884280D01*
X172665281Y-82004374D01*
X172663731Y-82014163D01*
X172663730Y-82014165D01*
X172651329Y-82092461D01*
X172644196Y-82137500D01*
X154093225Y-82137500D01*
X154093304Y-82137000D01*
X154077105Y-82034720D01*
X154073770Y-82013665D01*
X154073769Y-82013663D01*
X154072219Y-82003874D01*
X154011028Y-81883780D01*
X153915720Y-81788472D01*
X153795626Y-81727281D01*
X153785837Y-81725731D01*
X153785835Y-81725730D01*
X153672293Y-81707747D01*
X153662500Y-81706196D01*
X153652707Y-81707747D01*
X153539165Y-81725730D01*
X153539163Y-81725731D01*
X153529374Y-81727281D01*
X153409280Y-81788472D01*
X153313972Y-81883780D01*
X153252781Y-82003874D01*
X153251231Y-82013663D01*
X153251230Y-82013665D01*
X153247895Y-82034720D01*
X153231696Y-82137000D01*
X148768000Y-82137000D01*
X148768000Y-80987500D01*
X156774196Y-80987500D01*
X156775747Y-80997293D01*
X156792534Y-81103280D01*
X156795281Y-81120626D01*
X156856472Y-81240720D01*
X156951780Y-81336028D01*
X157071874Y-81397219D01*
X157081663Y-81398769D01*
X157081665Y-81398770D01*
X157195207Y-81416753D01*
X157205000Y-81418304D01*
X157214793Y-81416753D01*
X157328335Y-81398770D01*
X157328337Y-81398769D01*
X157338126Y-81397219D01*
X157458220Y-81336028D01*
X157553528Y-81240720D01*
X157614719Y-81120626D01*
X157617467Y-81103280D01*
X157623474Y-81065354D01*
X170694788Y-81065354D01*
X170696339Y-81075147D01*
X170704095Y-81124114D01*
X170715873Y-81198480D01*
X170777064Y-81318574D01*
X170872372Y-81413882D01*
X170992466Y-81475073D01*
X171002255Y-81476623D01*
X171002257Y-81476624D01*
X171115799Y-81494607D01*
X171125592Y-81496158D01*
X171135385Y-81494607D01*
X171248927Y-81476624D01*
X171248929Y-81476623D01*
X171258718Y-81475073D01*
X171378812Y-81413882D01*
X171474120Y-81318574D01*
X171515987Y-81236406D01*
X173467418Y-81236406D01*
X173468969Y-81246199D01*
X173483197Y-81336028D01*
X173488503Y-81369532D01*
X173549694Y-81489626D01*
X173645002Y-81584934D01*
X173765096Y-81646125D01*
X173774885Y-81647675D01*
X173774887Y-81647676D01*
X173888429Y-81665659D01*
X173898222Y-81667210D01*
X173908015Y-81665659D01*
X174021557Y-81647676D01*
X174021559Y-81647675D01*
X174031348Y-81646125D01*
X174151442Y-81584934D01*
X174246750Y-81489626D01*
X174307941Y-81369532D01*
X174313248Y-81336028D01*
X174327475Y-81246199D01*
X174329026Y-81236406D01*
X174327475Y-81226613D01*
X174309492Y-81113071D01*
X174309491Y-81113069D01*
X174307941Y-81103280D01*
X174246750Y-80983186D01*
X174151442Y-80887878D01*
X174031348Y-80826687D01*
X174021559Y-80825137D01*
X174021557Y-80825136D01*
X173908015Y-80807153D01*
X173898222Y-80805602D01*
X173888429Y-80807153D01*
X173774887Y-80825136D01*
X173774885Y-80825137D01*
X173765096Y-80826687D01*
X173645002Y-80887878D01*
X173549694Y-80983186D01*
X173488503Y-81103280D01*
X173486953Y-81113069D01*
X173486952Y-81113071D01*
X173468969Y-81226613D01*
X173467418Y-81236406D01*
X171515987Y-81236406D01*
X171535311Y-81198480D01*
X171547090Y-81124114D01*
X171554845Y-81075147D01*
X171556396Y-81065354D01*
X171542514Y-80977707D01*
X171536862Y-80942019D01*
X171536861Y-80942017D01*
X171535311Y-80932228D01*
X171474120Y-80812134D01*
X171378812Y-80716826D01*
X171258718Y-80655635D01*
X171248929Y-80654085D01*
X171248927Y-80654084D01*
X171135385Y-80636101D01*
X171125592Y-80634550D01*
X171115799Y-80636101D01*
X171002257Y-80654084D01*
X171002255Y-80654085D01*
X170992466Y-80655635D01*
X170872372Y-80716826D01*
X170777064Y-80812134D01*
X170715873Y-80932228D01*
X170714323Y-80942017D01*
X170714322Y-80942019D01*
X170708670Y-80977707D01*
X170694788Y-81065354D01*
X157623474Y-81065354D01*
X157634253Y-80997293D01*
X157635804Y-80987500D01*
X157634010Y-80976175D01*
X157616270Y-80864165D01*
X157616269Y-80864163D01*
X157614719Y-80854374D01*
X157553528Y-80734280D01*
X157458220Y-80638972D01*
X157397862Y-80608218D01*
X157391384Y-80604917D01*
X157339769Y-80556168D01*
X157322829Y-80487762D01*
X178932020Y-80487762D01*
X178932536Y-80493906D01*
X178946886Y-80664790D01*
X178949259Y-80693053D01*
X178950958Y-80698978D01*
X179003834Y-80883378D01*
X179006044Y-80891086D01*
X179008859Y-80896563D01*
X179008860Y-80896566D01*
X179095605Y-81065354D01*
X179100212Y-81074318D01*
X179228177Y-81235770D01*
X179232870Y-81239764D01*
X179232871Y-81239765D01*
X179351268Y-81340528D01*
X179385064Y-81369291D01*
X179390442Y-81372297D01*
X179390444Y-81372298D01*
X179428842Y-81393758D01*
X179564898Y-81469797D01*
X179641255Y-81494607D01*
X179754971Y-81531556D01*
X179754975Y-81531557D01*
X179760829Y-81533459D01*
X179965394Y-81557851D01*
X179971529Y-81557379D01*
X179971531Y-81557379D01*
X180027539Y-81553069D01*
X180170800Y-81542046D01*
X180176730Y-81540390D01*
X180176732Y-81540390D01*
X180300604Y-81505804D01*
X180369225Y-81486645D01*
X180374714Y-81483872D01*
X180374720Y-81483870D01*
X180513271Y-81413882D01*
X180553110Y-81393758D01*
X180715451Y-81266924D01*
X180727934Y-81252463D01*
X180846040Y-81115634D01*
X180846040Y-81115633D01*
X180850064Y-81110972D01*
X180870416Y-81075147D01*
X180920206Y-80987500D01*
X180951823Y-80931844D01*
X181016851Y-80736363D01*
X181042671Y-80531974D01*
X181042930Y-80513464D01*
X181043034Y-80506022D01*
X181043034Y-80506018D01*
X181043083Y-80502500D01*
X181041638Y-80487762D01*
X181472020Y-80487762D01*
X181472536Y-80493906D01*
X181486886Y-80664790D01*
X181489259Y-80693053D01*
X181490958Y-80698978D01*
X181543834Y-80883378D01*
X181546044Y-80891086D01*
X181548859Y-80896563D01*
X181548860Y-80896566D01*
X181635605Y-81065354D01*
X181640212Y-81074318D01*
X181768177Y-81235770D01*
X181772870Y-81239764D01*
X181772871Y-81239765D01*
X181891268Y-81340528D01*
X181925064Y-81369291D01*
X181930442Y-81372297D01*
X181930444Y-81372298D01*
X181968842Y-81393758D01*
X182104898Y-81469797D01*
X182181255Y-81494607D01*
X182294971Y-81531556D01*
X182294975Y-81531557D01*
X182300829Y-81533459D01*
X182505394Y-81557851D01*
X182511529Y-81557379D01*
X182511531Y-81557379D01*
X182567539Y-81553069D01*
X182710800Y-81542046D01*
X182716730Y-81540390D01*
X182716732Y-81540390D01*
X182840604Y-81505804D01*
X182909225Y-81486645D01*
X182914714Y-81483872D01*
X182914720Y-81483870D01*
X183053271Y-81413882D01*
X183093110Y-81393758D01*
X183255451Y-81266924D01*
X183267934Y-81252463D01*
X183386040Y-81115634D01*
X183386040Y-81115633D01*
X183390064Y-81110972D01*
X183410416Y-81075147D01*
X183460206Y-80987500D01*
X183491823Y-80931844D01*
X183556851Y-80736363D01*
X183582671Y-80531974D01*
X183582930Y-80513464D01*
X183583034Y-80506022D01*
X183583034Y-80506018D01*
X183583083Y-80502500D01*
X183562980Y-80297470D01*
X183503435Y-80100249D01*
X183406718Y-79918349D01*
X183327677Y-79821436D01*
X183280406Y-79763475D01*
X183280403Y-79763472D01*
X183276511Y-79758700D01*
X183253978Y-79740059D01*
X183122525Y-79631311D01*
X183122521Y-79631309D01*
X183117775Y-79627382D01*
X182936555Y-79529397D01*
X182739754Y-79468477D01*
X182733629Y-79467833D01*
X182733628Y-79467833D01*
X182540998Y-79447587D01*
X182540996Y-79447587D01*
X182534869Y-79446943D01*
X182448029Y-79454846D01*
X182335842Y-79465055D01*
X182335839Y-79465056D01*
X182329703Y-79465614D01*
X182132072Y-79523780D01*
X181949502Y-79619226D01*
X181944701Y-79623086D01*
X181944698Y-79623088D01*
X181793754Y-79744450D01*
X181788947Y-79748315D01*
X181656524Y-79906130D01*
X181653556Y-79911528D01*
X181653553Y-79911533D01*
X181577223Y-80050379D01*
X181557276Y-80086662D01*
X181494984Y-80283032D01*
X181494298Y-80289149D01*
X181494297Y-80289153D01*
X181483505Y-80385366D01*
X181472020Y-80487762D01*
X181041638Y-80487762D01*
X181022980Y-80297470D01*
X180963435Y-80100249D01*
X180866718Y-79918349D01*
X180787677Y-79821436D01*
X180740406Y-79763475D01*
X180740403Y-79763472D01*
X180736511Y-79758700D01*
X180713978Y-79740059D01*
X180582525Y-79631311D01*
X180582521Y-79631309D01*
X180577775Y-79627382D01*
X180396555Y-79529397D01*
X180199754Y-79468477D01*
X180193629Y-79467833D01*
X180193628Y-79467833D01*
X180000998Y-79447587D01*
X180000996Y-79447587D01*
X179994869Y-79446943D01*
X179908029Y-79454846D01*
X179795842Y-79465055D01*
X179795839Y-79465056D01*
X179789703Y-79465614D01*
X179592072Y-79523780D01*
X179409502Y-79619226D01*
X179404701Y-79623086D01*
X179404698Y-79623088D01*
X179253754Y-79744450D01*
X179248947Y-79748315D01*
X179116524Y-79906130D01*
X179113556Y-79911528D01*
X179113553Y-79911533D01*
X179037223Y-80050379D01*
X179017276Y-80086662D01*
X178954984Y-80283032D01*
X178954298Y-80289149D01*
X178954297Y-80289153D01*
X178943505Y-80385366D01*
X178932020Y-80487762D01*
X157322829Y-80487762D01*
X157322703Y-80487253D01*
X157345604Y-80420052D01*
X157401202Y-80375900D01*
X157428879Y-80368201D01*
X157443836Y-80365832D01*
X157453629Y-80364281D01*
X157573723Y-80303090D01*
X157669031Y-80207782D01*
X157730222Y-80087688D01*
X157733044Y-80069874D01*
X157749756Y-79964355D01*
X157751307Y-79954562D01*
X157746076Y-79921536D01*
X157742665Y-79900000D01*
X174969196Y-79900000D01*
X174970747Y-79909793D01*
X174986341Y-80008247D01*
X174990281Y-80033126D01*
X175051472Y-80153220D01*
X175146780Y-80248528D01*
X175266874Y-80309719D01*
X175276663Y-80311269D01*
X175276665Y-80311270D01*
X175390207Y-80329253D01*
X175400000Y-80330804D01*
X175409793Y-80329253D01*
X175523335Y-80311270D01*
X175523337Y-80311269D01*
X175533126Y-80309719D01*
X175653220Y-80248528D01*
X175748528Y-80153220D01*
X175809719Y-80033126D01*
X175813660Y-80008247D01*
X175829253Y-79909793D01*
X175830804Y-79900000D01*
X175823314Y-79852707D01*
X175811270Y-79776665D01*
X175811269Y-79776663D01*
X175809719Y-79766874D01*
X175748528Y-79646780D01*
X175653220Y-79551472D01*
X175533126Y-79490281D01*
X175523337Y-79488731D01*
X175523335Y-79488730D01*
X175409793Y-79470747D01*
X175400000Y-79469196D01*
X175390207Y-79470747D01*
X175276665Y-79488730D01*
X175276663Y-79488731D01*
X175266874Y-79490281D01*
X175146780Y-79551472D01*
X175051472Y-79646780D01*
X174990281Y-79766874D01*
X174988731Y-79776663D01*
X174988730Y-79776665D01*
X174976686Y-79852707D01*
X174969196Y-79900000D01*
X157742665Y-79900000D01*
X157731773Y-79831227D01*
X157731772Y-79831225D01*
X157730222Y-79821436D01*
X157669031Y-79701342D01*
X157573723Y-79606034D01*
X157453629Y-79544843D01*
X157443840Y-79543293D01*
X157443838Y-79543292D01*
X157330296Y-79525309D01*
X157320503Y-79523758D01*
X157310710Y-79525309D01*
X157197168Y-79543292D01*
X157197166Y-79543293D01*
X157187377Y-79544843D01*
X157067283Y-79606034D01*
X156971975Y-79701342D01*
X156910784Y-79821436D01*
X156909234Y-79831225D01*
X156909233Y-79831227D01*
X156894930Y-79921536D01*
X156889699Y-79954562D01*
X156891250Y-79964355D01*
X156907963Y-80069874D01*
X156910784Y-80087688D01*
X156971975Y-80207782D01*
X157067283Y-80303090D01*
X157112904Y-80326335D01*
X157134119Y-80337145D01*
X157185734Y-80385894D01*
X157202800Y-80454809D01*
X157179899Y-80522010D01*
X157124301Y-80566162D01*
X157096624Y-80573861D01*
X157071874Y-80577781D01*
X156951780Y-80638972D01*
X156856472Y-80734280D01*
X156795281Y-80854374D01*
X156793731Y-80864163D01*
X156793730Y-80864165D01*
X156775990Y-80976175D01*
X156774196Y-80987500D01*
X148768000Y-80987500D01*
X148768000Y-80437500D01*
X153431696Y-80437500D01*
X153433247Y-80447293D01*
X153450575Y-80556696D01*
X153452781Y-80570626D01*
X153513972Y-80690720D01*
X153609280Y-80786028D01*
X153729374Y-80847219D01*
X153739163Y-80848769D01*
X153739165Y-80848770D01*
X153852707Y-80866753D01*
X153862500Y-80868304D01*
X153872293Y-80866753D01*
X153985835Y-80848770D01*
X153985837Y-80848769D01*
X153995626Y-80847219D01*
X154115720Y-80786028D01*
X154211028Y-80690720D01*
X154272219Y-80570626D01*
X154274426Y-80556696D01*
X154291753Y-80447293D01*
X154293304Y-80437500D01*
X154288177Y-80405131D01*
X154273770Y-80314165D01*
X154273769Y-80314163D01*
X154272219Y-80304374D01*
X154220566Y-80203000D01*
X154875930Y-80203000D01*
X154877481Y-80212793D01*
X154893537Y-80314165D01*
X154897015Y-80336126D01*
X154958206Y-80456220D01*
X155053514Y-80551528D01*
X155173608Y-80612719D01*
X155183397Y-80614269D01*
X155183399Y-80614270D01*
X155296941Y-80632253D01*
X155306734Y-80633804D01*
X155316527Y-80632253D01*
X155430069Y-80614270D01*
X155430071Y-80614269D01*
X155439860Y-80612719D01*
X155559954Y-80551528D01*
X155655262Y-80456220D01*
X155716453Y-80336126D01*
X155719932Y-80314165D01*
X155735987Y-80212793D01*
X155737538Y-80203000D01*
X155730764Y-80160231D01*
X155718004Y-80079665D01*
X155718003Y-80079663D01*
X155716453Y-80069874D01*
X155655262Y-79949780D01*
X155559954Y-79854472D01*
X155439860Y-79793281D01*
X155430071Y-79791731D01*
X155430069Y-79791730D01*
X155316527Y-79773747D01*
X155306734Y-79772196D01*
X155296941Y-79773747D01*
X155183399Y-79791730D01*
X155183397Y-79791731D01*
X155173608Y-79793281D01*
X155053514Y-79854472D01*
X154958206Y-79949780D01*
X154897015Y-80069874D01*
X154895465Y-80079663D01*
X154895464Y-80079665D01*
X154882704Y-80160231D01*
X154875930Y-80203000D01*
X154220566Y-80203000D01*
X154211028Y-80184280D01*
X154115720Y-80088972D01*
X153995626Y-80027781D01*
X153985837Y-80026231D01*
X153985835Y-80026230D01*
X153872293Y-80008247D01*
X153862500Y-80006696D01*
X153852707Y-80008247D01*
X153739165Y-80026230D01*
X153739163Y-80026231D01*
X153729374Y-80027781D01*
X153609280Y-80088972D01*
X153513972Y-80184280D01*
X153452781Y-80304374D01*
X153451231Y-80314163D01*
X153451230Y-80314165D01*
X153436823Y-80405131D01*
X153431696Y-80437500D01*
X148768000Y-80437500D01*
X148768000Y-79862500D01*
X149931696Y-79862500D01*
X149933247Y-79872293D01*
X149946919Y-79958612D01*
X149952781Y-79995626D01*
X150013972Y-80115720D01*
X150109280Y-80211028D01*
X150229374Y-80272219D01*
X150239163Y-80273769D01*
X150239165Y-80273770D01*
X150352707Y-80291753D01*
X150362500Y-80293304D01*
X150372293Y-80291753D01*
X150485835Y-80273770D01*
X150485837Y-80273769D01*
X150495626Y-80272219D01*
X150615720Y-80211028D01*
X150711028Y-80115720D01*
X150772219Y-79995626D01*
X150778082Y-79958612D01*
X150791753Y-79872293D01*
X150793304Y-79862500D01*
X150779050Y-79772503D01*
X150773770Y-79739165D01*
X150773769Y-79739163D01*
X150772219Y-79729374D01*
X150711028Y-79609280D01*
X150615720Y-79513972D01*
X150495626Y-79452781D01*
X150485837Y-79451231D01*
X150485835Y-79451230D01*
X150372293Y-79433247D01*
X150362500Y-79431696D01*
X150352707Y-79433247D01*
X150239165Y-79451230D01*
X150239163Y-79451231D01*
X150229374Y-79452781D01*
X150109280Y-79513972D01*
X150013972Y-79609280D01*
X149952781Y-79729374D01*
X149951231Y-79739163D01*
X149951230Y-79739165D01*
X149945950Y-79772503D01*
X149931696Y-79862500D01*
X148768000Y-79862500D01*
X148768000Y-79524042D01*
X148768755Y-79510272D01*
X148781708Y-79392460D01*
X148786674Y-79347294D01*
X148792657Y-79320416D01*
X148839664Y-79182517D01*
X148851341Y-79157585D01*
X148927183Y-79033195D01*
X148944002Y-79011391D01*
X149057740Y-78893283D01*
X149067836Y-78883888D01*
X149129804Y-78832248D01*
X178937000Y-78832248D01*
X178938207Y-78838316D01*
X178941831Y-78856533D01*
X178948633Y-78890731D01*
X178992948Y-78957052D01*
X179059269Y-79001367D01*
X179071438Y-79003788D01*
X179071439Y-79003788D01*
X179109663Y-79011391D01*
X179117752Y-79013000D01*
X180857248Y-79013000D01*
X180865337Y-79011391D01*
X180903561Y-79003788D01*
X180903562Y-79003788D01*
X180915731Y-79001367D01*
X180982052Y-78957052D01*
X181026367Y-78890731D01*
X181033170Y-78856533D01*
X181036793Y-78838316D01*
X181038000Y-78832248D01*
X181038000Y-77947762D01*
X181472020Y-77947762D01*
X181472536Y-77953906D01*
X181487240Y-78129005D01*
X181489259Y-78153053D01*
X181490958Y-78158978D01*
X181541707Y-78335960D01*
X181546044Y-78351086D01*
X181548859Y-78356563D01*
X181548860Y-78356566D01*
X181637397Y-78528841D01*
X181640212Y-78534318D01*
X181768177Y-78695770D01*
X181925064Y-78829291D01*
X182104898Y-78929797D01*
X182188780Y-78957052D01*
X182294971Y-78991556D01*
X182294975Y-78991557D01*
X182300829Y-78993459D01*
X182505394Y-79017851D01*
X182511529Y-79017379D01*
X182511531Y-79017379D01*
X182584125Y-79011793D01*
X182710800Y-79002046D01*
X182716730Y-79000390D01*
X182716732Y-79000390D01*
X182903297Y-78948300D01*
X182903296Y-78948300D01*
X182909225Y-78946645D01*
X182914714Y-78943872D01*
X182914720Y-78943870D01*
X183087616Y-78856533D01*
X183093110Y-78853758D01*
X183255451Y-78726924D01*
X183297640Y-78678048D01*
X183386040Y-78575634D01*
X183386040Y-78575633D01*
X183390064Y-78570972D01*
X183410887Y-78534318D01*
X183458575Y-78450371D01*
X183491823Y-78391844D01*
X183556851Y-78196363D01*
X183582671Y-77991974D01*
X183583083Y-77962500D01*
X183562980Y-77757470D01*
X183503435Y-77560249D01*
X183406718Y-77378349D01*
X183328084Y-77281934D01*
X183280406Y-77223475D01*
X183280403Y-77223472D01*
X183276511Y-77218700D01*
X183257238Y-77202756D01*
X183122525Y-77091311D01*
X183122521Y-77091309D01*
X183117775Y-77087382D01*
X182936555Y-76989397D01*
X182739754Y-76928477D01*
X182733629Y-76927833D01*
X182733628Y-76927833D01*
X182540998Y-76907587D01*
X182540996Y-76907587D01*
X182534869Y-76906943D01*
X182450895Y-76914585D01*
X182335842Y-76925055D01*
X182335839Y-76925056D01*
X182329703Y-76925614D01*
X182132072Y-76983780D01*
X181949502Y-77079226D01*
X181944701Y-77083086D01*
X181944698Y-77083088D01*
X181793849Y-77204374D01*
X181788947Y-77208315D01*
X181656524Y-77366130D01*
X181653556Y-77371528D01*
X181653553Y-77371533D01*
X181595757Y-77476665D01*
X181557276Y-77546662D01*
X181494984Y-77743032D01*
X181494298Y-77749149D01*
X181494297Y-77749153D01*
X181472721Y-77941514D01*
X181472020Y-77947762D01*
X181038000Y-77947762D01*
X181038000Y-77092752D01*
X181026367Y-77034269D01*
X180982052Y-76967948D01*
X180915731Y-76923633D01*
X180903562Y-76921212D01*
X180903561Y-76921212D01*
X180863316Y-76913207D01*
X180857248Y-76912000D01*
X179117752Y-76912000D01*
X179111684Y-76913207D01*
X179071439Y-76921212D01*
X179071438Y-76921212D01*
X179059269Y-76923633D01*
X178992948Y-76967948D01*
X178948633Y-77034269D01*
X178937000Y-77092752D01*
X178937000Y-78832248D01*
X149129804Y-78832248D01*
X149601157Y-78439455D01*
X149612879Y-78430785D01*
X149757942Y-78335960D01*
X149783986Y-78322954D01*
X149928738Y-78270547D01*
X149957074Y-78263865D01*
X150129206Y-78243844D01*
X150143763Y-78243000D01*
X152456863Y-78243000D01*
X152474545Y-78241719D01*
X152484214Y-78241019D01*
X152484220Y-78241018D01*
X152486475Y-78240855D01*
X152488717Y-78240529D01*
X152488722Y-78240528D01*
X152498065Y-78239167D01*
X152522405Y-78235623D01*
X152528750Y-78233237D01*
X152528754Y-78233236D01*
X152598161Y-78207136D01*
X152598160Y-78207136D01*
X152604509Y-78204749D01*
X152664098Y-78166153D01*
X152664557Y-78165814D01*
X152731815Y-78143541D01*
X152800580Y-78161202D01*
X152824040Y-78179209D01*
X152851966Y-78206413D01*
X153020137Y-78318782D01*
X153025440Y-78321060D01*
X153025443Y-78321062D01*
X153113791Y-78359019D01*
X153205970Y-78398622D01*
X153403240Y-78443260D01*
X153409009Y-78443487D01*
X153409012Y-78443487D01*
X153485183Y-78446479D01*
X153605342Y-78451200D01*
X153691632Y-78438689D01*
X153799786Y-78423008D01*
X153799791Y-78423007D01*
X153805507Y-78422178D01*
X153810979Y-78420320D01*
X153810981Y-78420320D01*
X153991567Y-78359019D01*
X153991569Y-78359018D01*
X153997031Y-78357164D01*
X154151698Y-78270547D01*
X154168464Y-78261158D01*
X154168465Y-78261157D01*
X154173501Y-78258337D01*
X154276211Y-78172914D01*
X154341374Y-78144733D01*
X154411430Y-78156256D01*
X154428286Y-78166607D01*
X154431637Y-78170027D01*
X154439500Y-78174425D01*
X154439501Y-78174426D01*
X154461159Y-78186541D01*
X154511455Y-78214674D01*
X154544920Y-78224500D01*
X154575253Y-78233407D01*
X154575257Y-78233408D01*
X154579576Y-78234676D01*
X154584024Y-78235316D01*
X154584031Y-78235317D01*
X154633024Y-78242361D01*
X154633031Y-78242362D01*
X154637472Y-78243000D01*
X154996863Y-78243000D01*
X155014545Y-78241719D01*
X155024214Y-78241019D01*
X155024220Y-78241018D01*
X155026475Y-78240855D01*
X155028717Y-78240529D01*
X155028722Y-78240528D01*
X155038065Y-78239167D01*
X155062405Y-78235623D01*
X155068750Y-78233237D01*
X155068754Y-78233236D01*
X155138161Y-78207136D01*
X155138160Y-78207136D01*
X155144509Y-78204749D01*
X155204098Y-78166153D01*
X155204557Y-78165814D01*
X155271815Y-78143541D01*
X155340580Y-78161202D01*
X155364040Y-78179209D01*
X155391966Y-78206413D01*
X155560137Y-78318782D01*
X155565440Y-78321060D01*
X155565443Y-78321062D01*
X155653791Y-78359019D01*
X155745970Y-78398622D01*
X155943240Y-78443260D01*
X155949009Y-78443487D01*
X155949012Y-78443487D01*
X156025183Y-78446479D01*
X156145342Y-78451200D01*
X156231632Y-78438689D01*
X156339786Y-78423008D01*
X156339791Y-78423007D01*
X156345507Y-78422178D01*
X156350979Y-78420320D01*
X156350981Y-78420320D01*
X156531567Y-78359019D01*
X156531569Y-78359018D01*
X156537031Y-78357164D01*
X156587104Y-78329122D01*
X165793696Y-78329122D01*
X165795247Y-78338915D01*
X165811810Y-78443487D01*
X165814781Y-78462248D01*
X165875972Y-78582342D01*
X165971280Y-78677650D01*
X166091374Y-78738841D01*
X166101163Y-78740391D01*
X166101165Y-78740392D01*
X166214707Y-78758375D01*
X166224500Y-78759926D01*
X166234293Y-78758375D01*
X166347835Y-78740392D01*
X166347837Y-78740391D01*
X166357626Y-78738841D01*
X166477720Y-78677650D01*
X166573028Y-78582342D01*
X166634219Y-78462248D01*
X166637191Y-78443487D01*
X166653753Y-78338915D01*
X166655304Y-78329122D01*
X166645430Y-78266778D01*
X171269196Y-78266778D01*
X171270747Y-78276571D01*
X171283512Y-78357164D01*
X171290281Y-78399904D01*
X171351472Y-78519998D01*
X171446780Y-78615306D01*
X171566874Y-78676497D01*
X171576663Y-78678047D01*
X171576665Y-78678048D01*
X171690207Y-78696031D01*
X171700000Y-78697582D01*
X171709793Y-78696031D01*
X171823335Y-78678048D01*
X171823337Y-78678047D01*
X171833126Y-78676497D01*
X171953220Y-78615306D01*
X172048528Y-78519998D01*
X172109719Y-78399904D01*
X172116489Y-78357164D01*
X172129253Y-78276571D01*
X172130804Y-78266778D01*
X172129253Y-78256985D01*
X172111270Y-78143443D01*
X172111269Y-78143441D01*
X172109719Y-78133652D01*
X172105218Y-78124819D01*
X172105217Y-78124815D01*
X172100774Y-78116095D01*
X172087670Y-78046318D01*
X172114371Y-77980533D01*
X172138977Y-77956959D01*
X172144385Y-77953030D01*
X172153220Y-77948528D01*
X172248528Y-77853220D01*
X172309719Y-77733126D01*
X172330804Y-77600000D01*
X172321501Y-77541265D01*
X172311270Y-77476665D01*
X172311269Y-77476663D01*
X172309719Y-77466874D01*
X172248528Y-77346780D01*
X172153220Y-77251472D01*
X172125106Y-77237147D01*
X174886795Y-77237147D01*
X174888346Y-77246940D01*
X174905770Y-77356948D01*
X174907880Y-77370273D01*
X174969071Y-77490367D01*
X175064379Y-77585675D01*
X175184473Y-77646866D01*
X175194262Y-77648416D01*
X175194264Y-77648417D01*
X175307806Y-77666400D01*
X175317599Y-77667951D01*
X175327392Y-77666400D01*
X175440934Y-77648417D01*
X175440936Y-77648416D01*
X175450725Y-77646866D01*
X175570819Y-77585675D01*
X175666127Y-77490367D01*
X175727318Y-77370273D01*
X175729429Y-77356948D01*
X175746852Y-77246940D01*
X175748403Y-77237147D01*
X175744585Y-77213043D01*
X175728869Y-77113812D01*
X175728868Y-77113810D01*
X175727318Y-77104021D01*
X175666127Y-76983927D01*
X175570819Y-76888619D01*
X175450725Y-76827428D01*
X175440936Y-76825878D01*
X175440934Y-76825877D01*
X175327392Y-76807894D01*
X175317599Y-76806343D01*
X175307806Y-76807894D01*
X175194264Y-76825877D01*
X175194262Y-76825878D01*
X175184473Y-76827428D01*
X175064379Y-76888619D01*
X174969071Y-76983927D01*
X174907880Y-77104021D01*
X174906330Y-77113810D01*
X174906329Y-77113812D01*
X174890613Y-77213043D01*
X174886795Y-77237147D01*
X172125106Y-77237147D01*
X172033126Y-77190281D01*
X172023337Y-77188731D01*
X172023335Y-77188730D01*
X171909793Y-77170747D01*
X171900000Y-77169196D01*
X171890207Y-77170747D01*
X171776665Y-77188730D01*
X171776663Y-77188731D01*
X171766874Y-77190281D01*
X171646780Y-77251472D01*
X171551472Y-77346780D01*
X171490281Y-77466874D01*
X171488731Y-77476663D01*
X171488730Y-77476665D01*
X171478499Y-77541265D01*
X171469196Y-77600000D01*
X171490281Y-77733126D01*
X171494782Y-77741959D01*
X171494783Y-77741963D01*
X171499226Y-77750683D01*
X171512330Y-77820460D01*
X171485629Y-77886245D01*
X171461023Y-77909819D01*
X171455615Y-77913748D01*
X171446780Y-77918250D01*
X171351472Y-78013558D01*
X171290281Y-78133652D01*
X171288731Y-78143441D01*
X171288730Y-78143443D01*
X171270747Y-78256985D01*
X171269196Y-78266778D01*
X166645430Y-78266778D01*
X166635770Y-78205787D01*
X166635769Y-78205785D01*
X166634219Y-78195996D01*
X166573028Y-78075902D01*
X166477720Y-77980594D01*
X166357626Y-77919403D01*
X166347837Y-77917853D01*
X166347835Y-77917852D01*
X166234293Y-77899869D01*
X166224500Y-77898318D01*
X166214707Y-77899869D01*
X166101165Y-77917852D01*
X166101163Y-77917853D01*
X166091374Y-77919403D01*
X165971280Y-77980594D01*
X165875972Y-78075902D01*
X165814781Y-78195996D01*
X165813231Y-78205785D01*
X165813230Y-78205787D01*
X165803570Y-78266778D01*
X165793696Y-78329122D01*
X156587104Y-78329122D01*
X156691698Y-78270547D01*
X156708464Y-78261158D01*
X156708465Y-78261157D01*
X156713501Y-78258337D01*
X156740812Y-78235623D01*
X156824692Y-78165860D01*
X156869005Y-78129005D01*
X156998337Y-77973501D01*
X157002526Y-77966022D01*
X157034000Y-77909819D01*
X157097164Y-77797031D01*
X157108512Y-77763603D01*
X157160320Y-77610981D01*
X157160320Y-77610979D01*
X157162178Y-77605507D01*
X157163007Y-77599791D01*
X157163008Y-77599786D01*
X157190667Y-77409016D01*
X157191200Y-77405342D01*
X157192715Y-77347500D01*
X157174208Y-77146091D01*
X157165105Y-77113812D01*
X157124014Y-76968117D01*
X157119307Y-76951426D01*
X157029851Y-76770027D01*
X157022040Y-76759566D01*
X156912288Y-76612591D01*
X156912287Y-76612590D01*
X156908835Y-76607967D01*
X156901307Y-76601008D01*
X156764553Y-76474594D01*
X156764551Y-76474592D01*
X156760312Y-76470674D01*
X156755430Y-76467594D01*
X156750843Y-76464074D01*
X156752525Y-76461882D01*
X156713263Y-76417437D01*
X156702487Y-76347263D01*
X156731360Y-76282403D01*
X156790716Y-76243449D01*
X156827370Y-76238000D01*
X161677012Y-76238000D01*
X161745133Y-76258002D01*
G37*
G04 #@! TD.AperFunction*
G04 #@! TA.AperFunction,Conductor*
G36*
X124235853Y-88322118D02*
G01*
X124257407Y-88334174D01*
X124290872Y-88344000D01*
X124321205Y-88352907D01*
X124321209Y-88352908D01*
X124325528Y-88354176D01*
X124329976Y-88354816D01*
X124329983Y-88354817D01*
X124378976Y-88361861D01*
X124378983Y-88361862D01*
X124383424Y-88362500D01*
X125241947Y-88362500D01*
X125258393Y-88363578D01*
X125326390Y-88372530D01*
X125355714Y-88380059D01*
X125438928Y-88412503D01*
X125465608Y-88426809D01*
X125538682Y-88478166D01*
X125561181Y-88498424D01*
X125619898Y-88565733D01*
X125636913Y-88590770D01*
X125677879Y-88670139D01*
X125688430Y-88698508D01*
X125689223Y-88701811D01*
X125709283Y-88785365D01*
X125712762Y-88815439D01*
X125712368Y-88890713D01*
X125712294Y-88904745D01*
X125708500Y-88934780D01*
X125686739Y-89021415D01*
X125675891Y-89049674D01*
X125634097Y-89128609D01*
X125616823Y-89153464D01*
X125560593Y-89216576D01*
X125557403Y-89220156D01*
X125534693Y-89240177D01*
X125461086Y-89290765D01*
X125434258Y-89304791D01*
X125350703Y-89336364D01*
X125321313Y-89343583D01*
X125255152Y-89351589D01*
X125240032Y-89352500D01*
X124093053Y-89352500D01*
X124076607Y-89351422D01*
X124008609Y-89342470D01*
X123979285Y-89334941D01*
X123896072Y-89302497D01*
X123869392Y-89288191D01*
X123796318Y-89236834D01*
X123773819Y-89216576D01*
X123715102Y-89149267D01*
X123698086Y-89124229D01*
X123693975Y-89116264D01*
X123657121Y-89044861D01*
X123646569Y-89016490D01*
X123646080Y-89014450D01*
X123625717Y-88929635D01*
X123622238Y-88899561D01*
X123622706Y-88810255D01*
X123626500Y-88780220D01*
X123648261Y-88693585D01*
X123659109Y-88665326D01*
X123700903Y-88586391D01*
X123718177Y-88561536D01*
X123731526Y-88546553D01*
X123777598Y-88494843D01*
X123800307Y-88474823D01*
X123873914Y-88424235D01*
X123900743Y-88410209D01*
X123996019Y-88374207D01*
X124006329Y-88371005D01*
X124006310Y-88370944D01*
X124009698Y-88369907D01*
X124013122Y-88369066D01*
X124056268Y-88353169D01*
X124057510Y-88352145D01*
X124061685Y-88350210D01*
X124072028Y-88346471D01*
X124072069Y-88346455D01*
X124072994Y-88346121D01*
X124085204Y-88341260D01*
X124091710Y-88336464D01*
X124091715Y-88336461D01*
X124099580Y-88330663D01*
X124166281Y-88306342D01*
X124235853Y-88322118D01*
G37*
G04 #@! TD.AperFunction*
G04 #@! TA.AperFunction,Conductor*
G36*
X120828393Y-88363578D02*
G01*
X120896391Y-88372530D01*
X120925715Y-88380059D01*
X121008928Y-88412503D01*
X121035608Y-88426809D01*
X121108682Y-88478166D01*
X121131181Y-88498424D01*
X121189898Y-88565733D01*
X121206913Y-88590770D01*
X121247879Y-88670139D01*
X121258430Y-88698508D01*
X121259223Y-88701811D01*
X121279283Y-88785366D01*
X121282762Y-88815439D01*
X121282318Y-88900394D01*
X121282295Y-88904742D01*
X121278501Y-88934777D01*
X121256739Y-89021415D01*
X121256739Y-89021416D01*
X121245891Y-89049674D01*
X121204097Y-89128609D01*
X121186823Y-89153464D01*
X121130593Y-89216576D01*
X121127403Y-89220156D01*
X121104693Y-89240177D01*
X121031086Y-89290765D01*
X121004258Y-89304791D01*
X120920703Y-89336364D01*
X120891313Y-89343583D01*
X120825152Y-89351589D01*
X120810032Y-89352500D01*
X120163053Y-89352500D01*
X120146607Y-89351422D01*
X120078609Y-89342470D01*
X120049285Y-89334941D01*
X119966072Y-89302497D01*
X119939392Y-89288191D01*
X119866318Y-89236834D01*
X119843819Y-89216576D01*
X119785102Y-89149267D01*
X119768086Y-89124229D01*
X119763975Y-89116264D01*
X119727121Y-89044861D01*
X119716569Y-89016490D01*
X119716080Y-89014450D01*
X119695717Y-88929635D01*
X119692238Y-88899561D01*
X119692706Y-88810255D01*
X119696500Y-88780220D01*
X119718261Y-88693585D01*
X119729109Y-88665326D01*
X119770903Y-88586391D01*
X119788177Y-88561536D01*
X119801526Y-88546553D01*
X119847598Y-88494843D01*
X119870307Y-88474823D01*
X119943914Y-88424235D01*
X119970742Y-88410209D01*
X119999736Y-88399253D01*
X120054297Y-88378636D01*
X120083687Y-88371417D01*
X120149848Y-88363411D01*
X120164968Y-88362500D01*
X120811947Y-88362500D01*
X120828393Y-88363578D01*
G37*
G04 #@! TD.AperFunction*
G04 #@! TA.AperFunction,Conductor*
G36*
X134915268Y-88686339D02*
G01*
X134952760Y-88698521D01*
X134979294Y-88712041D01*
X135011185Y-88735212D01*
X135054561Y-88778588D01*
X135088587Y-88840900D01*
X135090524Y-88878852D01*
X135089899Y-88881590D01*
X135089899Y-88888669D01*
X135089107Y-88895698D01*
X135089058Y-88895692D01*
X135088348Y-88904709D01*
X135081109Y-88950420D01*
X135068928Y-88987911D01*
X135055404Y-89014452D01*
X135032235Y-89046340D01*
X135011185Y-89067390D01*
X134979294Y-89090561D01*
X134952760Y-89104081D01*
X134915268Y-89116263D01*
X134885853Y-89120922D01*
X134846439Y-89120922D01*
X134817024Y-89116263D01*
X134779532Y-89104081D01*
X134752998Y-89090561D01*
X134721107Y-89067390D01*
X134700057Y-89046340D01*
X134676886Y-89014449D01*
X134663366Y-88987915D01*
X134651183Y-88950421D01*
X134647891Y-88929635D01*
X134646525Y-88921008D01*
X134646525Y-88881594D01*
X134651184Y-88852179D01*
X134663366Y-88814687D01*
X134676886Y-88788153D01*
X134700057Y-88756262D01*
X134721107Y-88735212D01*
X134752998Y-88712041D01*
X134779532Y-88698521D01*
X134817024Y-88686339D01*
X134846439Y-88681680D01*
X134885853Y-88681680D01*
X134915268Y-88686339D01*
G37*
G04 #@! TD.AperFunction*
G04 #@! TA.AperFunction,Conductor*
G36*
X147311622Y-86922538D02*
G01*
X147349114Y-86934720D01*
X147375648Y-86948240D01*
X147407539Y-86971411D01*
X147428589Y-86992461D01*
X147451760Y-87024352D01*
X147465280Y-87050886D01*
X147477462Y-87088378D01*
X147482121Y-87117793D01*
X147482121Y-87157207D01*
X147477504Y-87186362D01*
X147477463Y-87186620D01*
X147465280Y-87224114D01*
X147451760Y-87250648D01*
X147428589Y-87282539D01*
X147407539Y-87303589D01*
X147375648Y-87326760D01*
X147349114Y-87340280D01*
X147311622Y-87352462D01*
X147282207Y-87357121D01*
X147242793Y-87357121D01*
X147213378Y-87352462D01*
X147175886Y-87340280D01*
X147149352Y-87326760D01*
X147117461Y-87303589D01*
X147096411Y-87282539D01*
X147073240Y-87250648D01*
X147059720Y-87224114D01*
X147047537Y-87186620D01*
X147047496Y-87186362D01*
X147042879Y-87157207D01*
X147042879Y-87117793D01*
X147047538Y-87088378D01*
X147059720Y-87050886D01*
X147073240Y-87024352D01*
X147096411Y-86992461D01*
X147117461Y-86971411D01*
X147149352Y-86948240D01*
X147175886Y-86934720D01*
X147213378Y-86922538D01*
X147242793Y-86917879D01*
X147282207Y-86917879D01*
X147311622Y-86922538D01*
G37*
G04 #@! TD.AperFunction*
G04 #@! TA.AperFunction,Conductor*
G36*
X131107122Y-85822538D02*
G01*
X131144614Y-85834720D01*
X131171148Y-85848240D01*
X131203039Y-85871411D01*
X131224089Y-85892461D01*
X131247261Y-85924354D01*
X131260781Y-85950889D01*
X131272963Y-85988379D01*
X131277621Y-86017790D01*
X131277621Y-86057207D01*
X131273712Y-86081888D01*
X131272963Y-86086620D01*
X131260780Y-86124114D01*
X131247260Y-86150648D01*
X131224089Y-86182539D01*
X131203039Y-86203589D01*
X131171148Y-86226760D01*
X131144614Y-86240280D01*
X131107122Y-86252462D01*
X131077707Y-86257121D01*
X131038293Y-86257121D01*
X131008878Y-86252462D01*
X130971386Y-86240280D01*
X130944852Y-86226760D01*
X130912961Y-86203589D01*
X130891911Y-86182539D01*
X130868740Y-86150648D01*
X130855220Y-86124114D01*
X130843037Y-86086620D01*
X130842288Y-86081888D01*
X130838379Y-86057207D01*
X130838379Y-86017793D01*
X130843038Y-85988378D01*
X130855220Y-85950886D01*
X130868740Y-85924352D01*
X130891911Y-85892461D01*
X130912961Y-85871411D01*
X130944852Y-85848240D01*
X130971386Y-85834720D01*
X131008878Y-85822538D01*
X131038293Y-85817879D01*
X131077707Y-85817879D01*
X131107122Y-85822538D01*
G37*
G04 #@! TD.AperFunction*
G04 #@! TA.AperFunction,Conductor*
G36*
X128520451Y-85808346D02*
G01*
X128557943Y-85820528D01*
X128584477Y-85834048D01*
X128616368Y-85857219D01*
X128637418Y-85878269D01*
X128660587Y-85910157D01*
X128674111Y-85936698D01*
X128686292Y-85974191D01*
X128690949Y-86003601D01*
X128690950Y-86043012D01*
X128686292Y-86072428D01*
X128674111Y-86109918D01*
X128660587Y-86136459D01*
X128637418Y-86168347D01*
X128616368Y-86189397D01*
X128584477Y-86212568D01*
X128557943Y-86226088D01*
X128520451Y-86238270D01*
X128491036Y-86242929D01*
X128451622Y-86242929D01*
X128422207Y-86238270D01*
X128384715Y-86226088D01*
X128358181Y-86212568D01*
X128326290Y-86189397D01*
X128305240Y-86168347D01*
X128282069Y-86136456D01*
X128268549Y-86109922D01*
X128256366Y-86072428D01*
X128251708Y-86043012D01*
X128251708Y-86003601D01*
X128256367Y-85974186D01*
X128268549Y-85936694D01*
X128282069Y-85910160D01*
X128305240Y-85878269D01*
X128326290Y-85857219D01*
X128358181Y-85834048D01*
X128384715Y-85820528D01*
X128422207Y-85808346D01*
X128451622Y-85803687D01*
X128491036Y-85803687D01*
X128520451Y-85808346D01*
G37*
G04 #@! TD.AperFunction*
G04 #@! TA.AperFunction,Conductor*
G36*
X144311622Y-85722538D02*
G01*
X144349114Y-85734720D01*
X144375648Y-85748240D01*
X144407539Y-85771411D01*
X144428589Y-85792461D01*
X144451760Y-85824352D01*
X144465280Y-85850886D01*
X144477462Y-85888378D01*
X144482121Y-85917793D01*
X144482121Y-85957207D01*
X144477463Y-85986620D01*
X144465280Y-86024114D01*
X144451760Y-86050648D01*
X144428589Y-86082539D01*
X144407539Y-86103589D01*
X144375648Y-86126760D01*
X144349114Y-86140280D01*
X144311622Y-86152462D01*
X144282207Y-86157121D01*
X144242793Y-86157121D01*
X144213378Y-86152462D01*
X144175886Y-86140280D01*
X144149352Y-86126760D01*
X144117461Y-86103589D01*
X144096411Y-86082539D01*
X144073240Y-86050648D01*
X144059720Y-86024114D01*
X144047537Y-85986620D01*
X144042879Y-85957207D01*
X144042879Y-85917793D01*
X144047538Y-85888378D01*
X144059720Y-85850886D01*
X144073240Y-85824352D01*
X144096411Y-85792461D01*
X144117461Y-85771411D01*
X144149352Y-85748240D01*
X144175886Y-85734720D01*
X144213378Y-85722538D01*
X144242793Y-85717879D01*
X144282207Y-85717879D01*
X144311622Y-85722538D01*
G37*
G04 #@! TD.AperFunction*
G04 #@! TA.AperFunction,Conductor*
G36*
X128611622Y-84022538D02*
G01*
X128649114Y-84034720D01*
X128675648Y-84048240D01*
X128707539Y-84071411D01*
X128728589Y-84092461D01*
X128751758Y-84124349D01*
X128765282Y-84150890D01*
X128777466Y-84188403D01*
X128777741Y-84190139D01*
X128777747Y-84190175D01*
X128777747Y-84190178D01*
X128782120Y-84217793D01*
X128782120Y-84257208D01*
X128777463Y-84286617D01*
X128765280Y-84324114D01*
X128751760Y-84350648D01*
X128728589Y-84382539D01*
X128707539Y-84403589D01*
X128675648Y-84426760D01*
X128649114Y-84440280D01*
X128611622Y-84452462D01*
X128582207Y-84457121D01*
X128542793Y-84457121D01*
X128513378Y-84452462D01*
X128475886Y-84440280D01*
X128449352Y-84426760D01*
X128417461Y-84403589D01*
X128396411Y-84382539D01*
X128373240Y-84350648D01*
X128359720Y-84324114D01*
X128347537Y-84286620D01*
X128345709Y-84275076D01*
X128342879Y-84257207D01*
X128342879Y-84217793D01*
X128347538Y-84188378D01*
X128359720Y-84150886D01*
X128373240Y-84124352D01*
X128396411Y-84092461D01*
X128417461Y-84071411D01*
X128449352Y-84048240D01*
X128475886Y-84034720D01*
X128513378Y-84022538D01*
X128542793Y-84017879D01*
X128582207Y-84017879D01*
X128611622Y-84022538D01*
G37*
G04 #@! TD.AperFunction*
G04 #@! TA.AperFunction,Conductor*
G36*
X131311622Y-82822538D02*
G01*
X131349114Y-82834720D01*
X131375648Y-82848240D01*
X131407539Y-82871411D01*
X131428588Y-82892460D01*
X131451761Y-82924354D01*
X131458460Y-82937502D01*
X131465281Y-82950889D01*
X131477462Y-82988380D01*
X131482120Y-83017787D01*
X131482121Y-83057208D01*
X131477463Y-83086620D01*
X131465282Y-83124110D01*
X131451758Y-83150651D01*
X131428589Y-83182539D01*
X131407539Y-83203589D01*
X131375648Y-83226760D01*
X131363298Y-83233053D01*
X131349114Y-83240280D01*
X131311622Y-83252462D01*
X131282207Y-83257121D01*
X131242793Y-83257121D01*
X131213378Y-83252462D01*
X131175886Y-83240280D01*
X131161703Y-83233053D01*
X131149352Y-83226760D01*
X131117461Y-83203589D01*
X131096411Y-83182539D01*
X131073240Y-83150648D01*
X131059720Y-83124114D01*
X131047537Y-83086620D01*
X131042879Y-83057207D01*
X131042879Y-83017793D01*
X131047538Y-82988378D01*
X131059720Y-82950886D01*
X131073240Y-82924352D01*
X131096411Y-82892461D01*
X131117461Y-82871411D01*
X131149352Y-82848240D01*
X131175886Y-82834720D01*
X131213378Y-82822538D01*
X131242793Y-82817879D01*
X131282207Y-82817879D01*
X131311622Y-82822538D01*
G37*
G04 #@! TD.AperFunction*
G04 #@! TA.AperFunction,Conductor*
G36*
X128711622Y-82022538D02*
G01*
X128749112Y-82034719D01*
X128754570Y-82037500D01*
X128775648Y-82048240D01*
X128807540Y-82071412D01*
X128828589Y-82092461D01*
X128851759Y-82124350D01*
X128855043Y-82130795D01*
X128865281Y-82150888D01*
X128877462Y-82188378D01*
X128882121Y-82217793D01*
X128882121Y-82257207D01*
X128877463Y-82286620D01*
X128865280Y-82324114D01*
X128851760Y-82350648D01*
X128828589Y-82382539D01*
X128807539Y-82403589D01*
X128775648Y-82426760D01*
X128749114Y-82440280D01*
X128711622Y-82452462D01*
X128682207Y-82457121D01*
X128642793Y-82457121D01*
X128613378Y-82452462D01*
X128575886Y-82440280D01*
X128549352Y-82426760D01*
X128517461Y-82403589D01*
X128496411Y-82382539D01*
X128473240Y-82350648D01*
X128459720Y-82324114D01*
X128447537Y-82286620D01*
X128442879Y-82257207D01*
X128442879Y-82217793D01*
X128447538Y-82188378D01*
X128459720Y-82150886D01*
X128473240Y-82124352D01*
X128496411Y-82092461D01*
X128517461Y-82071411D01*
X128549352Y-82048240D01*
X128575886Y-82034720D01*
X128613378Y-82022538D01*
X128642793Y-82017879D01*
X128682207Y-82017879D01*
X128711622Y-82022538D01*
G37*
G04 #@! TD.AperFunction*
G04 #@! TA.AperFunction,Conductor*
G36*
X143311622Y-81822538D02*
G01*
X143349114Y-81834720D01*
X143375648Y-81848240D01*
X143407539Y-81871411D01*
X143428589Y-81892461D01*
X143451760Y-81924352D01*
X143465280Y-81950886D01*
X143477462Y-81988378D01*
X143482121Y-82017793D01*
X143482121Y-82057207D01*
X143477463Y-82086620D01*
X143465280Y-82124114D01*
X143451760Y-82150648D01*
X143428589Y-82182539D01*
X143407539Y-82203589D01*
X143375648Y-82226760D01*
X143349114Y-82240280D01*
X143311622Y-82252462D01*
X143282207Y-82257121D01*
X143242793Y-82257121D01*
X143213378Y-82252462D01*
X143175886Y-82240280D01*
X143149352Y-82226760D01*
X143117461Y-82203589D01*
X143096411Y-82182539D01*
X143073240Y-82150648D01*
X143059720Y-82124114D01*
X143047537Y-82086620D01*
X143042879Y-82057207D01*
X143042879Y-82017793D01*
X143047538Y-81988378D01*
X143059720Y-81950886D01*
X143073240Y-81924352D01*
X143096411Y-81892461D01*
X143117461Y-81871411D01*
X143149352Y-81848240D01*
X143175886Y-81834720D01*
X143213378Y-81822538D01*
X143242793Y-81817879D01*
X143282207Y-81817879D01*
X143311622Y-81822538D01*
G37*
G04 #@! TD.AperFunction*
G04 #@! TA.AperFunction,Conductor*
G36*
X147311622Y-80822538D02*
G01*
X147349114Y-80834720D01*
X147375648Y-80848240D01*
X147407539Y-80871411D01*
X147428589Y-80892461D01*
X147451760Y-80924352D01*
X147465280Y-80950886D01*
X147477462Y-80988378D01*
X147482121Y-81017793D01*
X147482121Y-81057207D01*
X147477463Y-81086620D01*
X147465280Y-81124114D01*
X147451760Y-81150648D01*
X147428589Y-81182539D01*
X147407539Y-81203589D01*
X147375648Y-81226760D01*
X147349114Y-81240280D01*
X147311622Y-81252462D01*
X147282207Y-81257121D01*
X147242793Y-81257121D01*
X147213378Y-81252462D01*
X147175886Y-81240280D01*
X147149352Y-81226760D01*
X147117461Y-81203589D01*
X147096411Y-81182539D01*
X147073240Y-81150648D01*
X147059720Y-81124114D01*
X147047537Y-81086620D01*
X147042879Y-81057207D01*
X147042879Y-81017793D01*
X147047538Y-80988378D01*
X147059720Y-80950886D01*
X147073240Y-80924352D01*
X147096411Y-80892461D01*
X147117461Y-80871411D01*
X147149352Y-80848240D01*
X147175886Y-80834720D01*
X147213378Y-80822538D01*
X147242793Y-80817879D01*
X147282207Y-80817879D01*
X147311622Y-80822538D01*
G37*
G04 #@! TD.AperFunction*
G04 #@! TA.AperFunction,Conductor*
G36*
X131396578Y-79993578D02*
G01*
X131449171Y-80000502D01*
X131480939Y-80009014D01*
X131546383Y-80036121D01*
X131574867Y-80052567D01*
X131631058Y-80095684D01*
X131654316Y-80118942D01*
X131697433Y-80175133D01*
X131713879Y-80203617D01*
X131740986Y-80269061D01*
X131749498Y-80300830D01*
X131756421Y-80353420D01*
X131757499Y-80369861D01*
X131757500Y-80405131D01*
X131756422Y-80421580D01*
X131750938Y-80463231D01*
X131749498Y-80474172D01*
X131740985Y-80505941D01*
X131731662Y-80528449D01*
X131713881Y-80571378D01*
X131697433Y-80599866D01*
X131654314Y-80656058D01*
X131631059Y-80679314D01*
X131581908Y-80717030D01*
X131574865Y-80722434D01*
X131546377Y-80738881D01*
X131480941Y-80765985D01*
X131449170Y-80774498D01*
X131396580Y-80781421D01*
X131380137Y-80782499D01*
X131362510Y-80782499D01*
X131093499Y-80782500D01*
X131025380Y-80762498D01*
X130978887Y-80708843D01*
X130967500Y-80656500D01*
X130967500Y-80118500D01*
X130987502Y-80050379D01*
X131041158Y-80003886D01*
X131093500Y-79992500D01*
X131380132Y-79992500D01*
X131396578Y-79993578D01*
G37*
G04 #@! TD.AperFunction*
G04 #@! TA.AperFunction,Conductor*
G36*
X125258393Y-79723578D02*
G01*
X125326391Y-79732530D01*
X125355715Y-79740059D01*
X125438928Y-79772503D01*
X125465608Y-79786809D01*
X125538682Y-79838166D01*
X125561181Y-79858424D01*
X125619898Y-79925733D01*
X125636913Y-79950770D01*
X125677879Y-80030139D01*
X125688430Y-80058508D01*
X125702166Y-80115720D01*
X125709283Y-80145365D01*
X125712762Y-80175439D01*
X125712294Y-80264745D01*
X125708500Y-80294780D01*
X125686739Y-80381415D01*
X125675891Y-80409674D01*
X125634097Y-80488609D01*
X125616822Y-80513465D01*
X125557399Y-80580159D01*
X125534691Y-80600178D01*
X125479821Y-80637890D01*
X125461091Y-80650763D01*
X125434261Y-80664790D01*
X125422548Y-80669216D01*
X125359466Y-80693053D01*
X125350706Y-80696363D01*
X125321313Y-80703583D01*
X125255152Y-80711589D01*
X125240032Y-80712500D01*
X124393073Y-80712500D01*
X124389664Y-80712875D01*
X124389659Y-80712875D01*
X124351862Y-80717030D01*
X124351857Y-80717031D01*
X124348435Y-80717407D01*
X124345070Y-80718156D01*
X124345069Y-80718156D01*
X124295857Y-80729107D01*
X124295845Y-80729110D01*
X124295004Y-80729297D01*
X124292845Y-80729841D01*
X124291613Y-80730151D01*
X124291611Y-80730152D01*
X124283894Y-80732096D01*
X124276909Y-80735904D01*
X124276904Y-80735906D01*
X124238196Y-80757009D01*
X124168812Y-80772054D01*
X124108331Y-80749534D01*
X124107855Y-80750348D01*
X124103172Y-80747613D01*
X124102555Y-80747383D01*
X124101747Y-80746780D01*
X124096073Y-80742548D01*
X124054062Y-80723966D01*
X124042953Y-80719052D01*
X124042951Y-80719051D01*
X124039604Y-80717571D01*
X124039436Y-80717952D01*
X124024343Y-80713229D01*
X124008002Y-80704811D01*
X124001145Y-80703051D01*
X123996391Y-80701242D01*
X123990963Y-80699494D01*
X123896072Y-80662497D01*
X123869392Y-80648191D01*
X123796318Y-80596834D01*
X123773819Y-80576576D01*
X123715102Y-80509267D01*
X123698086Y-80484229D01*
X123682901Y-80454809D01*
X123657121Y-80404861D01*
X123646569Y-80376490D01*
X123646428Y-80375900D01*
X123625717Y-80289635D01*
X123622238Y-80259561D01*
X123622586Y-80193112D01*
X123622706Y-80170254D01*
X123626500Y-80140220D01*
X123648261Y-80053585D01*
X123659109Y-80025326D01*
X123700903Y-79946391D01*
X123718177Y-79921536D01*
X123777598Y-79854843D01*
X123800307Y-79834823D01*
X123805540Y-79831227D01*
X123832638Y-79812603D01*
X123873914Y-79784235D01*
X123900742Y-79770209D01*
X123941597Y-79754771D01*
X123984297Y-79738636D01*
X124013687Y-79731417D01*
X124079848Y-79723411D01*
X124094968Y-79722500D01*
X125241947Y-79722500D01*
X125258393Y-79723578D01*
G37*
G04 #@! TD.AperFunction*
G04 #@! TA.AperFunction,Conductor*
G36*
X120828393Y-79723578D02*
G01*
X120896391Y-79732530D01*
X120925715Y-79740059D01*
X121008928Y-79772503D01*
X121035608Y-79786809D01*
X121108682Y-79838166D01*
X121131181Y-79858424D01*
X121189898Y-79925733D01*
X121206913Y-79950770D01*
X121247879Y-80030139D01*
X121258430Y-80058508D01*
X121272166Y-80115720D01*
X121279283Y-80145365D01*
X121282762Y-80175439D01*
X121282576Y-80211028D01*
X121282294Y-80264747D01*
X121278500Y-80294780D01*
X121257976Y-80376490D01*
X121256739Y-80381416D01*
X121245891Y-80409674D01*
X121204097Y-80488609D01*
X121186823Y-80513464D01*
X121130593Y-80576576D01*
X121127403Y-80580156D01*
X121104694Y-80600176D01*
X121097796Y-80604917D01*
X121031086Y-80650765D01*
X121004258Y-80664791D01*
X120920703Y-80696364D01*
X120891313Y-80703583D01*
X120825152Y-80711589D01*
X120810032Y-80712500D01*
X120163053Y-80712500D01*
X120146607Y-80711422D01*
X120078609Y-80702470D01*
X120049285Y-80694941D01*
X119966072Y-80662497D01*
X119939392Y-80648191D01*
X119866318Y-80596834D01*
X119843819Y-80576576D01*
X119785102Y-80509267D01*
X119768086Y-80484229D01*
X119752901Y-80454809D01*
X119727121Y-80404861D01*
X119716569Y-80376490D01*
X119716428Y-80375900D01*
X119695717Y-80289635D01*
X119692238Y-80259561D01*
X119692586Y-80193112D01*
X119692706Y-80170254D01*
X119696500Y-80140220D01*
X119718261Y-80053585D01*
X119729109Y-80025326D01*
X119770903Y-79946391D01*
X119788177Y-79921536D01*
X119847598Y-79854843D01*
X119870307Y-79834823D01*
X119875540Y-79831227D01*
X119902638Y-79812603D01*
X119943914Y-79784235D01*
X119970742Y-79770209D01*
X120011597Y-79754771D01*
X120054297Y-79738636D01*
X120083687Y-79731417D01*
X120149848Y-79723411D01*
X120164968Y-79722500D01*
X120811947Y-79722500D01*
X120828393Y-79723578D01*
G37*
G04 #@! TD.AperFunction*
G04 #@! TA.AperFunction,Conductor*
G36*
X128811622Y-79322538D02*
G01*
X128849114Y-79334720D01*
X128875648Y-79348240D01*
X128907539Y-79371411D01*
X128928588Y-79392460D01*
X128951761Y-79424354D01*
X128958460Y-79437502D01*
X128965281Y-79450889D01*
X128977462Y-79488380D01*
X128982120Y-79517787D01*
X128982121Y-79557208D01*
X128977463Y-79586620D01*
X128965282Y-79624110D01*
X128951758Y-79650651D01*
X128928589Y-79682539D01*
X128907539Y-79703589D01*
X128875648Y-79726760D01*
X128852339Y-79738637D01*
X128849114Y-79740280D01*
X128811622Y-79752462D01*
X128782207Y-79757121D01*
X128742793Y-79757121D01*
X128713378Y-79752462D01*
X128675886Y-79740280D01*
X128672662Y-79738637D01*
X128649352Y-79726760D01*
X128617461Y-79703589D01*
X128596411Y-79682539D01*
X128573240Y-79650648D01*
X128559720Y-79624114D01*
X128547537Y-79586620D01*
X128543081Y-79558483D01*
X128542879Y-79557207D01*
X128542879Y-79517793D01*
X128547538Y-79488378D01*
X128559720Y-79450886D01*
X128573240Y-79424352D01*
X128596411Y-79392461D01*
X128617461Y-79371411D01*
X128649352Y-79348240D01*
X128675886Y-79334720D01*
X128713378Y-79322538D01*
X128742793Y-79317879D01*
X128782207Y-79317879D01*
X128811622Y-79322538D01*
G37*
G04 #@! TD.AperFunction*
G04 #@! TA.AperFunction,Conductor*
G36*
X134896048Y-76919244D02*
G01*
X134933540Y-76931426D01*
X134960074Y-76944946D01*
X134991965Y-76968117D01*
X135013015Y-76989167D01*
X135036186Y-77021058D01*
X135049119Y-77046439D01*
X135049706Y-77047592D01*
X135061888Y-77085084D01*
X135066547Y-77114499D01*
X135066547Y-77153913D01*
X135065064Y-77163277D01*
X135061889Y-77183326D01*
X135049706Y-77220820D01*
X135036186Y-77247354D01*
X135013015Y-77279245D01*
X134991965Y-77300295D01*
X134960074Y-77323466D01*
X134933540Y-77336986D01*
X134896048Y-77349168D01*
X134866633Y-77353827D01*
X134827219Y-77353827D01*
X134797804Y-77349168D01*
X134760312Y-77336986D01*
X134733778Y-77323466D01*
X134701887Y-77300295D01*
X134680837Y-77279245D01*
X134657666Y-77247354D01*
X134644146Y-77220820D01*
X134631963Y-77183326D01*
X134628788Y-77163277D01*
X134627305Y-77153913D01*
X134627305Y-77114499D01*
X134631964Y-77085084D01*
X134644146Y-77047592D01*
X134644734Y-77046439D01*
X134657666Y-77021058D01*
X134680837Y-76989167D01*
X134701887Y-76968117D01*
X134733778Y-76944946D01*
X134760312Y-76931426D01*
X134797804Y-76919244D01*
X134827219Y-76914585D01*
X134866633Y-76914585D01*
X134896048Y-76919244D01*
G37*
G04 #@! TD.AperFunction*
G04 #@! TA.AperFunction,Conductor*
G36*
X131629449Y-76258002D02*
G01*
X131675942Y-76311658D01*
X131686738Y-76361908D01*
X131686539Y-76363596D01*
X131687295Y-76370628D01*
X131687295Y-76370631D01*
X131693647Y-76429712D01*
X131694128Y-76434184D01*
X131708594Y-76490858D01*
X131710316Y-76495016D01*
X131710317Y-76495018D01*
X131740985Y-76569057D01*
X131749498Y-76600830D01*
X131756421Y-76653420D01*
X131757499Y-76669861D01*
X131757500Y-76705131D01*
X131756422Y-76721580D01*
X131752077Y-76754584D01*
X131751981Y-76757757D01*
X131751231Y-76782466D01*
X131750825Y-76795825D01*
X131754357Y-76846041D01*
X131756726Y-76853345D01*
X131758189Y-76860878D01*
X131755879Y-76861327D01*
X131757543Y-76920702D01*
X131720847Y-76981480D01*
X131715654Y-76985725D01*
X131709280Y-76988972D01*
X131613972Y-77084280D01*
X131588533Y-77134206D01*
X131573721Y-77163277D01*
X131524973Y-77214892D01*
X131465083Y-77231481D01*
X131460036Y-77230818D01*
X131451134Y-77232208D01*
X131451133Y-77232208D01*
X131412869Y-77238183D01*
X131369674Y-77244927D01*
X131322791Y-77263614D01*
X131252107Y-77270256D01*
X131189052Y-77237629D01*
X131173369Y-77219469D01*
X131102829Y-77120026D01*
X131102828Y-77120025D01*
X131099363Y-77115140D01*
X130947669Y-76969925D01*
X130949669Y-76967835D01*
X130915660Y-76919983D01*
X130912346Y-76849064D01*
X130924801Y-76817372D01*
X130935717Y-76797856D01*
X130935718Y-76797853D01*
X130939174Y-76791675D01*
X130959176Y-76723554D01*
X130961992Y-76703968D01*
X130966861Y-76670106D01*
X130966862Y-76670099D01*
X130967500Y-76665658D01*
X130967500Y-76364000D01*
X130987502Y-76295879D01*
X131041158Y-76249386D01*
X131093500Y-76238000D01*
X131561328Y-76238000D01*
X131629449Y-76258002D01*
G37*
G04 #@! TD.AperFunction*
M02*
