G04 #@! TF.GenerationSoftware,KiCad,Pcbnew,6.0.10+dfsg-1~bpo11+1*
G04 #@! TF.ProjectId,project,70726f6a-6563-4742-9e6b-696361645f70,rev?*
G04 #@! TF.SameCoordinates,Original*
G04 #@! TF.FileFunction,Copper,L4,Inr*
G04 #@! TF.FilePolarity,Positive*
%FSLAX46Y46*%
G04 Gerber Fmt 4.6, Leading zero omitted, Abs format (unit mm)*
%MOMM*%
%LPD*%
G01*
G04 APERTURE LIST*
G04 #@! TA.AperFunction,Profile*
%ADD10C,0.100000*%
G04 #@! TD*
G04 #@! TA.AperFunction,ComponentPad*
%ADD11C,1.800000*%
G04 #@! TD*
G04 #@! TA.AperFunction,ComponentPad*
%ADD12R,1.700000X1.700000*%
G04 #@! TD*
G04 #@! TA.AperFunction,ComponentPad*
%ADD13O,1.700000X1.700000*%
G04 #@! TD*
G04 #@! TA.AperFunction,ComponentPad*
%ADD14O,2.750000X1.450000*%
G04 #@! TD*
G04 #@! TA.AperFunction,ComponentPad*
%ADD15O,2.100000X1.000000*%
G04 #@! TD*
G04 #@! TA.AperFunction,ComponentPad*
%ADD16O,1.600000X1.000000*%
G04 #@! TD*
G04 #@! TA.AperFunction,ViaPad*
%ADD17C,0.400000*%
G04 #@! TD*
G04 #@! TA.AperFunction,Conductor*
%ADD18C,0.200000*%
G04 #@! TD*
G04 APERTURE END LIST*
D10*
X120262500Y-76037500D02*
X120262500Y-75037500D01*
X184262500Y-76037500D02*
X184262500Y-90037500D01*
X184262500Y-90037500D02*
X130262500Y-90037500D01*
X130262500Y-75037500D02*
X130262500Y-76037500D01*
X130262500Y-76037500D02*
X184262500Y-76037500D01*
X120262500Y-75037500D02*
X130262500Y-75037500D01*
X118262500Y-90037500D02*
X120262500Y-90037500D01*
X120262500Y-76037500D02*
X118262500Y-76037500D01*
X120262500Y-91037500D02*
X130262500Y-91037500D01*
X118262500Y-90037500D02*
X118262500Y-76037500D01*
X130262500Y-91037500D02*
X130262500Y-90037500D01*
X120262500Y-90037500D02*
X120262500Y-91037500D01*
D11*
X137437500Y-88727500D03*
X139977500Y-88727500D03*
X153547500Y-88727500D03*
X156087500Y-88727500D03*
X156087500Y-77347500D03*
X153547500Y-77347500D03*
X139977500Y-77347500D03*
X137437500Y-77347500D03*
D12*
X179987500Y-77962500D03*
D13*
X182527500Y-77962500D03*
X179987500Y-80502500D03*
X182527500Y-80502500D03*
X179987500Y-83042500D03*
X182527500Y-83042500D03*
X179987500Y-85582500D03*
X182527500Y-85582500D03*
X179987500Y-88122500D03*
X182527500Y-88122500D03*
D14*
X122462500Y-75987500D03*
X122462500Y-90087500D03*
X128362500Y-90087500D03*
X128362500Y-75987500D03*
D15*
X124667500Y-80217500D03*
D16*
X120487500Y-88857500D03*
D15*
X124667500Y-88857500D03*
D16*
X120487500Y-80217500D03*
G04 #@! TA.AperFunction,ComponentPad*
G36*
X131362500Y-79987500D02*
G01*
X131486107Y-80007077D01*
X131597614Y-80063893D01*
X131686107Y-80152386D01*
X131742923Y-80263893D01*
X131762500Y-80387500D01*
X131742923Y-80511107D01*
X131686107Y-80622614D01*
X131597614Y-80711107D01*
X131486107Y-80767923D01*
X131362500Y-80787500D01*
X130962500Y-80787500D01*
X130962500Y-79987500D01*
X131362500Y-79987500D01*
G37*
G04 #@! TD.AperFunction*
G04 #@! TA.AperFunction,ComponentPad*
G36*
X131362500Y-76287500D02*
G01*
X131486107Y-76307077D01*
X131597614Y-76363893D01*
X131686107Y-76452386D01*
X131742923Y-76563893D01*
X131762500Y-76687500D01*
X131742923Y-76811107D01*
X131686107Y-76922614D01*
X131597614Y-77011107D01*
X131486107Y-77067923D01*
X131362500Y-77087500D01*
X130962500Y-77087500D01*
X130962500Y-76287500D01*
X131362500Y-76287500D01*
G37*
G04 #@! TD.AperFunction*
D17*
X146100000Y-84400000D03*
X161700000Y-84400000D03*
X131962500Y-77337500D03*
X164600000Y-82600000D03*
X128620440Y-84237500D03*
X170105498Y-81937500D03*
X162706177Y-85514205D03*
X171600000Y-79200000D03*
X143262500Y-82037500D03*
X176200000Y-85700000D03*
X128762500Y-79537500D03*
X159858814Y-76714438D03*
X167400000Y-78600000D03*
X170962500Y-83837500D03*
X147262500Y-81037500D03*
X134862500Y-88937500D03*
X164600000Y-79500000D03*
X168655529Y-83387531D03*
X163162500Y-89137500D03*
X161400000Y-79500000D03*
X149062500Y-80437500D03*
X159700000Y-84100000D03*
X173400000Y-88600000D03*
X159117306Y-87282694D03*
X155880704Y-83083050D03*
X155062500Y-85137500D03*
X131058000Y-86037500D03*
X158577182Y-86006969D03*
X168300000Y-79700000D03*
X169562500Y-86200000D03*
X128489534Y-86006174D03*
X134806177Y-77160795D03*
X165162500Y-89137500D03*
X159362500Y-80637500D03*
X164162500Y-89137500D03*
X169100000Y-84800000D03*
X170462500Y-83937500D03*
X175562500Y-80937500D03*
X165487669Y-85144671D03*
X162162500Y-89137500D03*
X155962500Y-80337500D03*
X173162500Y-79137500D03*
X169064500Y-84337500D03*
X152062500Y-83937500D03*
X161212500Y-85488000D03*
X173300000Y-86700000D03*
X128741470Y-82216470D03*
X149062500Y-84037500D03*
X131262500Y-83037500D03*
X170600000Y-80100000D03*
X170800000Y-76500000D03*
X149562500Y-86737500D03*
X149062500Y-81737500D03*
X161162500Y-89137500D03*
X161400000Y-82600000D03*
X170100000Y-80100000D03*
X160162500Y-89137500D03*
X155880704Y-83538000D03*
X144262500Y-85937500D03*
X147262500Y-87137500D03*
X168395000Y-86105000D03*
X173075000Y-82137500D03*
X148868750Y-85143750D03*
X163714917Y-84585083D03*
X167760573Y-83920694D03*
X159750000Y-85250000D03*
X168549765Y-85038000D03*
X171804500Y-82982432D03*
X160200000Y-83100000D03*
X166200000Y-78300000D03*
X160400000Y-84200000D03*
X148212500Y-89037500D03*
X150262500Y-89037500D03*
X144262500Y-89037500D03*
X176109620Y-88509619D03*
X170925000Y-87075000D03*
X174032500Y-86567500D03*
X171700000Y-78266778D03*
X149562500Y-89037500D03*
X146312500Y-89037500D03*
X173824509Y-81332113D03*
X173962500Y-83837500D03*
X136512002Y-80887000D03*
X137467444Y-80883239D03*
X135539743Y-86317000D03*
X137399818Y-84190139D03*
X138413000Y-82937500D03*
X144162500Y-80537500D03*
X144162500Y-81037500D03*
X131694195Y-81996698D03*
X139662500Y-85837000D03*
X150462500Y-85737500D03*
X157229682Y-82817248D03*
X157150624Y-84725624D03*
X158028750Y-86971250D03*
X155062500Y-85837500D03*
X157205000Y-80987500D03*
X166462500Y-87737500D03*
X160130000Y-87970000D03*
X163702301Y-87591580D03*
X166462500Y-86137500D03*
X161130000Y-87970000D03*
X150362500Y-79862500D03*
X136162500Y-79437500D03*
X135862500Y-83937500D03*
X157305786Y-79908962D03*
X156163580Y-85625472D03*
X165000000Y-83300000D03*
X164245416Y-84298055D03*
X163214917Y-84230388D03*
X161962500Y-76837500D03*
X162880557Y-76947214D03*
X153662500Y-82137000D03*
X153862500Y-80437500D03*
X155306734Y-80228000D03*
X154562500Y-84737500D03*
X175400000Y-79900000D03*
X175310858Y-77261221D03*
X171121379Y-79804082D03*
X171900000Y-77600000D03*
X175500000Y-88200000D03*
X175500000Y-86000000D03*
X134766903Y-78239613D03*
X167662500Y-85037500D03*
X135762500Y-88537500D03*
X165462500Y-84337500D03*
D18*
X146100000Y-84400000D02*
X146465686Y-84400000D01*
X133562500Y-87737500D02*
X135996814Y-87737500D01*
X159844607Y-83537500D02*
X160007107Y-83700000D01*
X135996814Y-87737500D02*
X136696815Y-87037500D01*
X136696815Y-87037500D02*
X141362500Y-87037500D01*
X154262500Y-83037500D02*
X155262500Y-84037500D01*
X160007107Y-83700000D02*
X161000000Y-83700000D01*
X156565955Y-84037500D02*
X157065955Y-83537500D01*
X141362500Y-87037500D02*
X144000000Y-84400000D01*
X157065955Y-83537500D02*
X159844607Y-83537500D01*
X146465686Y-84400000D02*
X147828186Y-83037500D01*
X131862500Y-78337500D02*
X130962500Y-79237500D01*
X144000000Y-84400000D02*
X146100000Y-84400000D01*
X131962500Y-77836316D02*
X131862500Y-77936316D01*
X155262500Y-84037500D02*
X156565955Y-84037500D01*
X130447647Y-79237500D02*
X129762500Y-79922648D01*
X131962500Y-77337500D02*
X131962500Y-77836316D01*
X131862500Y-77936316D02*
X131862500Y-78337500D01*
X129762500Y-83937500D02*
X133562500Y-87737500D01*
X147828186Y-83037500D02*
X154262500Y-83037500D01*
X130962500Y-79237500D02*
X130447647Y-79237500D01*
X129762500Y-79922648D02*
X129762500Y-83937500D01*
X161000000Y-83700000D02*
X161700000Y-84400000D01*
X156013145Y-82279748D02*
X155655893Y-82637000D01*
X167662500Y-85037500D02*
X166355388Y-83730388D01*
X130162500Y-80088333D02*
X130613333Y-79637500D01*
X144029657Y-83804657D02*
X141196814Y-86637500D01*
X141196814Y-86637500D02*
X136531130Y-86637500D01*
X135913971Y-87254657D02*
X133645343Y-87254657D01*
X165207107Y-83800000D02*
X164792893Y-83800000D01*
X130162500Y-83771814D02*
X130162500Y-80088333D01*
X130613333Y-79637500D02*
X131128186Y-79637500D01*
X166355388Y-83730388D02*
X165276719Y-83730388D01*
X160372641Y-82279748D02*
X156013145Y-82279748D01*
X147663000Y-82637000D02*
X146495343Y-83804657D01*
X155655893Y-82637000D02*
X147663000Y-82637000D01*
X164723281Y-83730388D02*
X161823281Y-83730388D01*
X161823281Y-83730388D02*
X160372641Y-82279748D01*
X165276719Y-83730388D02*
X165207107Y-83800000D01*
X136531130Y-86637500D02*
X135913971Y-87254657D01*
X131128186Y-79637500D02*
X132526073Y-78239613D01*
X164792893Y-83800000D02*
X164723281Y-83730388D01*
X133645343Y-87254657D02*
X130162500Y-83771814D01*
X132526073Y-78239613D02*
X134766903Y-78239613D01*
X146495343Y-83804657D02*
X144029657Y-83804657D01*
X162913284Y-85014205D02*
X161607098Y-85014205D01*
X165462500Y-84337500D02*
X164714917Y-85085083D01*
X154969607Y-84437500D02*
X153969606Y-83437500D01*
X146795343Y-85070343D02*
X143895343Y-85070343D01*
X159542893Y-84750000D02*
X159018517Y-84225624D01*
X156731641Y-84437500D02*
X154969607Y-84437500D01*
X164714917Y-85085083D02*
X162984162Y-85085083D01*
X148428186Y-83437500D02*
X146795343Y-85070343D01*
X156943517Y-84225624D02*
X156731641Y-84437500D01*
X161342893Y-84750000D02*
X159542893Y-84750000D01*
X153969606Y-83437500D02*
X148428186Y-83437500D01*
X143895343Y-85070343D02*
X141528186Y-87437500D01*
X141528186Y-87437500D02*
X136862500Y-87437500D01*
X162984162Y-85085083D02*
X162913284Y-85014205D01*
X136862500Y-87437500D02*
X135762500Y-88537500D01*
X159018517Y-84225624D02*
X156943517Y-84225624D01*
X161607098Y-85014205D02*
X161342893Y-84750000D01*
G04 #@! TA.AperFunction,Conductor*
G36*
X120864295Y-76157502D02*
G01*
X120910788Y-76211158D01*
X120919420Y-76237303D01*
X120926073Y-76268601D01*
X120926075Y-76268608D01*
X120927449Y-76275071D01*
X120930135Y-76281104D01*
X120930136Y-76281107D01*
X121003779Y-76446512D01*
X121006578Y-76452799D01*
X121010458Y-76458140D01*
X121010459Y-76458141D01*
X121088874Y-76566069D01*
X121120931Y-76610192D01*
X121125833Y-76614605D01*
X121125834Y-76614607D01*
X121250741Y-76727074D01*
X121265508Y-76740370D01*
X121271229Y-76743673D01*
X121416781Y-76827707D01*
X121433992Y-76837644D01*
X121490533Y-76856015D01*
X121564586Y-76880076D01*
X121619018Y-76897762D01*
X121625581Y-76898452D01*
X121625582Y-76898452D01*
X121649211Y-76900935D01*
X121763996Y-76913000D01*
X123161004Y-76913000D01*
X123275789Y-76900935D01*
X123299418Y-76898452D01*
X123299419Y-76898452D01*
X123305982Y-76897762D01*
X123360415Y-76880076D01*
X123434467Y-76856015D01*
X123491008Y-76837644D01*
X123508220Y-76827707D01*
X123653771Y-76743673D01*
X123659492Y-76740370D01*
X123674259Y-76727074D01*
X123799166Y-76614607D01*
X123799167Y-76614605D01*
X123804069Y-76610192D01*
X123836126Y-76566069D01*
X123914541Y-76458141D01*
X123914542Y-76458140D01*
X123918422Y-76452799D01*
X123921222Y-76446512D01*
X123994864Y-76281107D01*
X123994865Y-76281104D01*
X123997551Y-76275071D01*
X123998925Y-76268608D01*
X123998927Y-76268601D01*
X124005580Y-76237303D01*
X124039308Y-76174829D01*
X124101458Y-76140508D01*
X124128826Y-76137500D01*
X126696174Y-76137500D01*
X126764295Y-76157502D01*
X126810788Y-76211158D01*
X126819420Y-76237303D01*
X126826073Y-76268601D01*
X126826075Y-76268608D01*
X126827449Y-76275071D01*
X126830135Y-76281104D01*
X126830136Y-76281107D01*
X126903779Y-76446512D01*
X126906578Y-76452799D01*
X126910458Y-76458140D01*
X126910459Y-76458141D01*
X126988874Y-76566069D01*
X127020931Y-76610192D01*
X127025833Y-76614605D01*
X127025834Y-76614607D01*
X127150741Y-76727074D01*
X127165508Y-76740370D01*
X127171229Y-76743673D01*
X127316781Y-76827707D01*
X127333992Y-76837644D01*
X127390533Y-76856015D01*
X127464586Y-76880076D01*
X127519018Y-76897762D01*
X127525581Y-76898452D01*
X127525582Y-76898452D01*
X127549211Y-76900935D01*
X127663996Y-76913000D01*
X129061004Y-76913000D01*
X129175789Y-76900935D01*
X129199418Y-76898452D01*
X129199419Y-76898452D01*
X129205982Y-76897762D01*
X129212264Y-76895721D01*
X129352422Y-76850182D01*
X129423389Y-76848155D01*
X129484187Y-76884817D01*
X129515512Y-76948530D01*
X129507418Y-77019064D01*
X129486523Y-77052594D01*
X129460062Y-77083088D01*
X129366421Y-77190998D01*
X129366417Y-77191003D01*
X129362490Y-77195529D01*
X129257334Y-77377299D01*
X129252029Y-77392576D01*
X129191755Y-77566149D01*
X129188447Y-77575674D01*
X129187586Y-77581609D01*
X129187586Y-77581611D01*
X129161078Y-77764435D01*
X129158314Y-77783496D01*
X129168023Y-77993267D01*
X129169427Y-77999092D01*
X129169427Y-77999093D01*
X129214108Y-78184487D01*
X129217224Y-78197418D01*
X129219706Y-78202876D01*
X129219707Y-78202880D01*
X129248760Y-78266778D01*
X129304140Y-78388581D01*
X129425637Y-78559860D01*
X129577331Y-78705075D01*
X129582366Y-78708326D01*
X129748709Y-78815733D01*
X129748712Y-78815734D01*
X129753746Y-78818985D01*
X129759309Y-78821227D01*
X129942955Y-78895239D01*
X129942958Y-78895240D01*
X129948519Y-78897481D01*
X129954400Y-78898629D01*
X129954405Y-78898631D01*
X130062693Y-78919778D01*
X130125717Y-78952466D01*
X130161064Y-79014038D01*
X130157511Y-79084946D01*
X130127639Y-79132537D01*
X129587045Y-79673132D01*
X129585015Y-79674885D01*
X129580231Y-79677223D01*
X129572319Y-79685752D01*
X129572318Y-79685753D01*
X129546927Y-79713125D01*
X129543647Y-79716530D01*
X129530252Y-79729925D01*
X129527528Y-79733895D01*
X129525203Y-79736543D01*
X129518215Y-79744076D01*
X129504099Y-79759294D01*
X129499787Y-79770101D01*
X129497268Y-79774086D01*
X129491496Y-79784895D01*
X129489589Y-79789200D01*
X129483007Y-79798794D01*
X129477323Y-79822747D01*
X129477314Y-79822784D01*
X129471749Y-79840380D01*
X129462617Y-79863270D01*
X129462000Y-79869563D01*
X129462000Y-79872645D01*
X129461850Y-79875715D01*
X129461634Y-79875704D01*
X129460302Y-79887079D01*
X129459847Y-79896393D01*
X129457160Y-79907714D01*
X129458729Y-79919243D01*
X129458729Y-79919244D01*
X129460849Y-79934821D01*
X129462000Y-79951812D01*
X129462000Y-83885134D01*
X129461804Y-83887807D01*
X129460075Y-83892842D01*
X129460511Y-83904464D01*
X129460511Y-83904466D01*
X129461911Y-83941755D01*
X129462000Y-83946481D01*
X129462000Y-83965448D01*
X129462882Y-83970183D01*
X129463110Y-83973709D01*
X129464274Y-84004708D01*
X129468864Y-84015393D01*
X129469901Y-84019993D01*
X129473462Y-84031714D01*
X129475161Y-84036117D01*
X129477291Y-84047553D01*
X129486692Y-84062804D01*
X129490227Y-84068539D01*
X129498731Y-84084911D01*
X129504951Y-84099388D01*
X129504953Y-84099392D01*
X129508464Y-84107563D01*
X129512478Y-84112449D01*
X129514663Y-84114634D01*
X129516715Y-84116897D01*
X129516555Y-84117042D01*
X129523675Y-84126049D01*
X129529927Y-84132944D01*
X129536032Y-84142848D01*
X129557820Y-84159416D01*
X129570639Y-84170610D01*
X133312981Y-87912952D01*
X133314737Y-87914986D01*
X133317075Y-87919769D01*
X133325604Y-87927681D01*
X133325605Y-87927682D01*
X133352977Y-87953073D01*
X133356382Y-87956353D01*
X133369777Y-87969748D01*
X133373747Y-87972472D01*
X133376395Y-87974797D01*
X133377522Y-87975842D01*
X133399146Y-87995901D01*
X133409953Y-88000213D01*
X133413938Y-88002732D01*
X133424747Y-88008504D01*
X133429052Y-88010411D01*
X133438646Y-88016993D01*
X133462599Y-88022677D01*
X133462636Y-88022686D01*
X133480232Y-88028251D01*
X133503122Y-88037383D01*
X133509415Y-88038000D01*
X133512497Y-88038000D01*
X133515567Y-88038150D01*
X133515556Y-88038366D01*
X133526931Y-88039698D01*
X133536245Y-88040153D01*
X133547566Y-88042840D01*
X133559095Y-88041271D01*
X133559096Y-88041271D01*
X133574673Y-88039151D01*
X133591664Y-88038000D01*
X135391418Y-88038000D01*
X135459539Y-88058002D01*
X135506032Y-88111658D01*
X135516136Y-88181932D01*
X135486642Y-88246512D01*
X135480513Y-88253095D01*
X135434450Y-88299158D01*
X135376854Y-88412196D01*
X135375304Y-88421985D01*
X135375303Y-88421987D01*
X135360324Y-88516566D01*
X135357008Y-88537500D01*
X135358559Y-88547293D01*
X135375120Y-88651854D01*
X135376854Y-88662804D01*
X135434450Y-88775842D01*
X135524158Y-88865550D01*
X135637196Y-88923146D01*
X135646985Y-88924696D01*
X135646987Y-88924697D01*
X135752707Y-88941441D01*
X135762500Y-88942992D01*
X135772293Y-88941441D01*
X135878013Y-88924697D01*
X135878015Y-88924696D01*
X135887804Y-88923146D01*
X136000842Y-88865550D01*
X136090550Y-88775842D01*
X136095051Y-88767009D01*
X136095052Y-88767008D01*
X136101528Y-88754297D01*
X136150275Y-88702681D01*
X136219190Y-88685615D01*
X136286392Y-88708515D01*
X136330545Y-88764112D01*
X136339525Y-88803258D01*
X136342967Y-88855770D01*
X136345892Y-88900394D01*
X136360994Y-88959860D01*
X136390828Y-89077329D01*
X136395678Y-89096428D01*
X136480356Y-89280107D01*
X136597088Y-89445280D01*
X136741966Y-89586413D01*
X136746771Y-89589624D01*
X136746774Y-89589626D01*
X136771631Y-89606235D01*
X136817159Y-89660711D01*
X136826008Y-89731154D01*
X136795367Y-89795199D01*
X136734965Y-89832510D01*
X136701630Y-89837000D01*
X130268392Y-89837000D01*
X130231126Y-89836967D01*
X130231124Y-89836967D01*
X130216937Y-89836955D01*
X130204146Y-89843097D01*
X130199233Y-89844213D01*
X130191683Y-89846850D01*
X130187149Y-89849032D01*
X130173315Y-89852188D01*
X130162220Y-89861029D01*
X130157346Y-89863375D01*
X130151494Y-89867046D01*
X130147262Y-89870412D01*
X130134476Y-89876552D01*
X130125617Y-89887630D01*
X130121674Y-89890766D01*
X130108900Y-89903518D01*
X130106385Y-89905522D01*
X130040645Y-89932330D01*
X129970846Y-89919340D01*
X129919151Y-89870677D01*
X129904618Y-89833177D01*
X129904399Y-89832144D01*
X129897551Y-89799929D01*
X129876425Y-89752479D01*
X129821108Y-89628233D01*
X129821106Y-89628230D01*
X129818422Y-89622201D01*
X129792421Y-89586413D01*
X129707948Y-89470147D01*
X129704069Y-89464808D01*
X129699166Y-89460393D01*
X129694743Y-89455481D01*
X129695675Y-89454642D01*
X129662042Y-89400053D01*
X129663393Y-89329069D01*
X129702906Y-89270084D01*
X129768036Y-89241825D01*
X129830690Y-89249995D01*
X129942952Y-89295238D01*
X129942957Y-89295240D01*
X129948519Y-89297481D01*
X129954400Y-89298629D01*
X129954405Y-89298631D01*
X130150176Y-89336862D01*
X130150179Y-89336862D01*
X130154622Y-89337730D01*
X130160143Y-89338000D01*
X130314969Y-89338000D01*
X130471546Y-89323061D01*
X130477302Y-89321372D01*
X130477304Y-89321372D01*
X130566387Y-89295238D01*
X130673049Y-89263947D01*
X130785583Y-89205988D01*
X130854408Y-89170541D01*
X130854411Y-89170539D01*
X130859739Y-89167795D01*
X130937587Y-89106645D01*
X131020162Y-89041782D01*
X131020167Y-89041778D01*
X131024879Y-89038076D01*
X131049269Y-89009969D01*
X131158579Y-88884002D01*
X131158583Y-88883997D01*
X131162510Y-88879471D01*
X131267666Y-88697701D01*
X131315260Y-88560645D01*
X131334586Y-88504991D01*
X131334586Y-88504989D01*
X131336553Y-88499326D01*
X131344379Y-88445353D01*
X131365825Y-88297444D01*
X131365825Y-88297441D01*
X131366686Y-88291504D01*
X131356977Y-88081733D01*
X131307776Y-87877582D01*
X131305216Y-87871950D01*
X131245445Y-87740491D01*
X131220860Y-87686419D01*
X131115426Y-87537785D01*
X131102829Y-87520026D01*
X131102828Y-87520025D01*
X131099363Y-87515140D01*
X130947669Y-87369925D01*
X130888946Y-87332008D01*
X130776291Y-87259267D01*
X130776288Y-87259266D01*
X130771254Y-87256015D01*
X130739178Y-87243088D01*
X130582045Y-87179761D01*
X130582042Y-87179760D01*
X130576481Y-87177519D01*
X130570600Y-87176371D01*
X130570595Y-87176369D01*
X130374824Y-87138138D01*
X130374821Y-87138138D01*
X130370378Y-87137270D01*
X130364857Y-87137000D01*
X130210031Y-87137000D01*
X130053454Y-87151939D01*
X130047698Y-87153628D01*
X130047696Y-87153628D01*
X129975708Y-87174747D01*
X129851951Y-87211053D01*
X129769005Y-87253773D01*
X129670592Y-87304459D01*
X129670589Y-87304461D01*
X129665261Y-87307205D01*
X129652518Y-87317215D01*
X129504838Y-87433218D01*
X129504833Y-87433222D01*
X129500121Y-87436924D01*
X129496190Y-87441454D01*
X129496189Y-87441455D01*
X129366421Y-87590998D01*
X129366417Y-87591003D01*
X129362490Y-87595529D01*
X129257334Y-87777299D01*
X129224575Y-87871637D01*
X129194330Y-87958734D01*
X129188447Y-87975674D01*
X129187586Y-87981609D01*
X129187586Y-87981611D01*
X129162416Y-88155208D01*
X129158314Y-88183496D01*
X129168023Y-88393267D01*
X129169427Y-88399092D01*
X129169427Y-88399093D01*
X129214761Y-88587197D01*
X129217224Y-88597418D01*
X129219706Y-88602876D01*
X129219707Y-88602880D01*
X129267736Y-88708515D01*
X129304140Y-88788581D01*
X129425637Y-88959860D01*
X129429960Y-88963998D01*
X129429964Y-88964003D01*
X129484044Y-89015773D01*
X129519420Y-89077329D01*
X129515901Y-89148238D01*
X129474604Y-89205988D01*
X129408641Y-89232244D01*
X129357978Y-89226624D01*
X129205982Y-89177238D01*
X129199419Y-89176548D01*
X129199418Y-89176548D01*
X129175789Y-89174065D01*
X129061004Y-89162000D01*
X127663996Y-89162000D01*
X127549211Y-89174065D01*
X127525582Y-89176548D01*
X127525581Y-89176548D01*
X127519018Y-89177238D01*
X127333992Y-89237356D01*
X127328270Y-89240659D01*
X127328269Y-89240660D01*
X127233737Y-89295238D01*
X127165508Y-89334630D01*
X127160601Y-89339048D01*
X127160600Y-89339049D01*
X127031290Y-89455481D01*
X127020931Y-89464808D01*
X127017052Y-89470147D01*
X126932580Y-89586413D01*
X126906578Y-89622201D01*
X126903894Y-89628230D01*
X126903892Y-89628233D01*
X126848575Y-89752479D01*
X126827449Y-89799929D01*
X126826076Y-89806389D01*
X126826073Y-89806399D01*
X126819420Y-89837697D01*
X126785692Y-89900171D01*
X126723542Y-89934492D01*
X126696174Y-89937500D01*
X124128826Y-89937500D01*
X124060705Y-89917498D01*
X124014212Y-89863842D01*
X124005580Y-89837697D01*
X123998927Y-89806399D01*
X123998924Y-89806389D01*
X123997551Y-89799929D01*
X123976425Y-89752479D01*
X123921108Y-89628233D01*
X123921106Y-89628230D01*
X123918422Y-89622201D01*
X123892421Y-89586413D01*
X123807948Y-89470147D01*
X123804069Y-89464808D01*
X123793711Y-89455481D01*
X123664400Y-89339049D01*
X123664399Y-89339048D01*
X123659492Y-89334630D01*
X123591263Y-89295238D01*
X123496731Y-89240660D01*
X123496730Y-89240659D01*
X123491008Y-89237356D01*
X123305982Y-89177238D01*
X123299419Y-89176548D01*
X123299418Y-89176548D01*
X123275789Y-89174065D01*
X123161004Y-89162000D01*
X121763996Y-89162000D01*
X121649211Y-89174065D01*
X121625582Y-89176548D01*
X121625581Y-89176548D01*
X121619018Y-89177238D01*
X121433992Y-89237356D01*
X121428270Y-89240659D01*
X121428269Y-89240660D01*
X121333737Y-89295238D01*
X121265508Y-89334630D01*
X121260601Y-89339048D01*
X121260600Y-89339049D01*
X121131290Y-89455481D01*
X121120931Y-89464808D01*
X121117052Y-89470147D01*
X121032580Y-89586413D01*
X121006578Y-89622201D01*
X121003894Y-89628230D01*
X121003892Y-89628233D01*
X120948575Y-89752479D01*
X120927449Y-89799929D01*
X120926076Y-89806389D01*
X120926073Y-89806399D01*
X120919420Y-89837697D01*
X120885692Y-89900171D01*
X120823542Y-89934492D01*
X120796174Y-89937500D01*
X120502483Y-89937500D01*
X120434362Y-89917498D01*
X120424304Y-89908410D01*
X120423450Y-89909477D01*
X120416331Y-89903784D01*
X120403584Y-89891015D01*
X120399648Y-89887873D01*
X120390805Y-89876776D01*
X120378023Y-89870611D01*
X120373796Y-89867237D01*
X120367953Y-89863558D01*
X120363090Y-89861207D01*
X120352008Y-89852344D01*
X120338180Y-89849164D01*
X120333649Y-89846974D01*
X120326103Y-89844324D01*
X120321193Y-89843200D01*
X120308413Y-89837035D01*
X120285345Y-89837015D01*
X120285347Y-89834990D01*
X120285281Y-89834974D01*
X120285281Y-89837000D01*
X120268392Y-89837000D01*
X120216937Y-89836955D01*
X120216941Y-89832150D01*
X120216843Y-89832144D01*
X120216843Y-89837000D01*
X118713058Y-89837000D01*
X118644937Y-89816998D01*
X118633124Y-89808399D01*
X118564986Y-89752479D01*
X118547521Y-89735014D01*
X118491601Y-89666876D01*
X118463847Y-89601529D01*
X118463000Y-89586942D01*
X118463000Y-87460807D01*
X123608106Y-87460807D01*
X123636564Y-87601944D01*
X123701929Y-87730230D01*
X123707742Y-87736552D01*
X123707743Y-87736553D01*
X123734981Y-87766174D01*
X123799384Y-87836212D01*
X123921750Y-87912082D01*
X124060012Y-87952251D01*
X124066827Y-87952751D01*
X124067904Y-87952831D01*
X124067917Y-87952831D01*
X124070212Y-87953000D01*
X124173570Y-87953000D01*
X124177815Y-87952418D01*
X124177822Y-87952418D01*
X124236731Y-87944348D01*
X124280146Y-87938401D01*
X124288031Y-87934989D01*
X124404402Y-87884631D01*
X124404405Y-87884629D01*
X124412283Y-87881220D01*
X124524175Y-87790612D01*
X124607579Y-87673251D01*
X124639584Y-87584354D01*
X124653442Y-87545863D01*
X124653442Y-87545861D01*
X124656350Y-87537785D01*
X124659187Y-87499158D01*
X124662798Y-87449978D01*
X124666894Y-87394193D01*
X124638436Y-87253056D01*
X124573071Y-87124770D01*
X124555248Y-87105387D01*
X124481430Y-87025111D01*
X124475616Y-87018788D01*
X124353250Y-86942918D01*
X124214988Y-86902749D01*
X124208173Y-86902249D01*
X124207096Y-86902169D01*
X124207083Y-86902169D01*
X124204788Y-86902000D01*
X124101430Y-86902000D01*
X124097185Y-86902582D01*
X124097178Y-86902582D01*
X124038269Y-86910652D01*
X123994854Y-86916599D01*
X123986970Y-86920011D01*
X123986969Y-86920011D01*
X123870598Y-86970369D01*
X123870595Y-86970371D01*
X123862717Y-86973780D01*
X123750825Y-87064388D01*
X123667421Y-87181749D01*
X123644847Y-87244451D01*
X123623480Y-87303800D01*
X123618650Y-87317215D01*
X123618022Y-87325773D01*
X123618021Y-87325776D01*
X123613616Y-87385774D01*
X123608106Y-87460807D01*
X118463000Y-87460807D01*
X118463000Y-81680807D01*
X123608106Y-81680807D01*
X123636564Y-81821944D01*
X123701929Y-81950230D01*
X123707742Y-81956552D01*
X123707743Y-81956553D01*
X123735653Y-81986905D01*
X123799384Y-82056212D01*
X123921750Y-82132082D01*
X124060012Y-82172251D01*
X124066827Y-82172751D01*
X124067904Y-82172831D01*
X124067917Y-82172831D01*
X124070212Y-82173000D01*
X124173570Y-82173000D01*
X124177815Y-82172418D01*
X124177822Y-82172418D01*
X124236731Y-82164348D01*
X124280146Y-82158401D01*
X124305815Y-82147293D01*
X124404402Y-82104631D01*
X124404405Y-82104629D01*
X124412283Y-82101220D01*
X124524175Y-82010612D01*
X124607579Y-81893251D01*
X124637929Y-81808950D01*
X124653442Y-81765863D01*
X124653442Y-81765861D01*
X124656350Y-81757785D01*
X124666894Y-81614193D01*
X124641176Y-81486645D01*
X124640134Y-81481477D01*
X124638436Y-81473056D01*
X124573071Y-81344770D01*
X124561433Y-81332113D01*
X124521541Y-81288731D01*
X124475616Y-81238788D01*
X124353250Y-81162918D01*
X124214988Y-81122749D01*
X124208173Y-81122249D01*
X124207096Y-81122169D01*
X124207083Y-81122169D01*
X124204788Y-81122000D01*
X124101430Y-81122000D01*
X124097185Y-81122582D01*
X124097178Y-81122582D01*
X124038269Y-81130652D01*
X123994854Y-81136599D01*
X123986970Y-81140011D01*
X123986969Y-81140011D01*
X123870598Y-81190369D01*
X123870595Y-81190371D01*
X123862717Y-81193780D01*
X123750825Y-81284388D01*
X123709949Y-81341906D01*
X123674747Y-81391441D01*
X123667421Y-81401749D01*
X123618650Y-81537215D01*
X123618022Y-81545773D01*
X123618021Y-81545776D01*
X123613616Y-81605774D01*
X123608106Y-81680807D01*
X118463000Y-81680807D01*
X118463000Y-77994545D01*
X119218606Y-77994545D01*
X119219342Y-78001547D01*
X119219342Y-78001549D01*
X119234621Y-78146911D01*
X119236816Y-78167797D01*
X119244914Y-78191585D01*
X119270512Y-78266778D01*
X119292956Y-78332709D01*
X119296646Y-78338707D01*
X119296647Y-78338709D01*
X119348508Y-78423008D01*
X119384238Y-78481086D01*
X119431003Y-78528841D01*
X119488757Y-78587817D01*
X119506124Y-78605552D01*
X119652556Y-78699921D01*
X119659179Y-78702332D01*
X119659182Y-78702333D01*
X119809634Y-78757093D01*
X119809639Y-78757094D01*
X119816257Y-78759503D01*
X119950801Y-78776500D01*
X120043800Y-78776500D01*
X120173121Y-78761994D01*
X120262949Y-78730713D01*
X120330990Y-78707019D01*
X120330992Y-78707018D01*
X120337637Y-78704704D01*
X120345292Y-78699921D01*
X120479399Y-78616121D01*
X120485373Y-78612388D01*
X120497323Y-78600521D01*
X120603988Y-78494599D01*
X120603991Y-78494595D01*
X120608985Y-78489636D01*
X120618220Y-78475085D01*
X120670894Y-78392082D01*
X120702329Y-78342549D01*
X120754008Y-78197418D01*
X120758405Y-78185071D01*
X120758406Y-78185066D01*
X120760767Y-78178436D01*
X120762267Y-78165863D01*
X120780560Y-78012448D01*
X120781394Y-78005455D01*
X120780658Y-77998451D01*
X120763920Y-77839203D01*
X120763920Y-77839201D01*
X120763184Y-77832203D01*
X120725558Y-77721675D01*
X120709315Y-77673961D01*
X120709314Y-77673958D01*
X120707044Y-77667291D01*
X120700991Y-77657451D01*
X120619454Y-77524915D01*
X120619453Y-77524914D01*
X120615762Y-77518914D01*
X120493876Y-77394448D01*
X120347444Y-77300079D01*
X120340821Y-77297668D01*
X120340818Y-77297667D01*
X120190366Y-77242907D01*
X120190361Y-77242906D01*
X120183743Y-77240497D01*
X120049199Y-77223500D01*
X119956200Y-77223500D01*
X119826879Y-77238006D01*
X119820231Y-77240321D01*
X119669010Y-77292981D01*
X119669008Y-77292982D01*
X119662363Y-77295296D01*
X119656393Y-77299027D01*
X119656392Y-77299027D01*
X119520743Y-77383790D01*
X119514627Y-77387612D01*
X119509629Y-77392575D01*
X119509628Y-77392576D01*
X119396012Y-77505401D01*
X119396009Y-77505405D01*
X119391015Y-77510364D01*
X119387241Y-77516310D01*
X119387240Y-77516312D01*
X119362809Y-77554810D01*
X119297671Y-77657451D01*
X119295306Y-77664093D01*
X119241595Y-77814929D01*
X119241594Y-77814934D01*
X119239233Y-77821564D01*
X119238400Y-77828552D01*
X119238399Y-77828555D01*
X119225227Y-77939024D01*
X119218606Y-77994545D01*
X118463000Y-77994545D01*
X118463000Y-76488058D01*
X118483002Y-76419937D01*
X118491601Y-76408124D01*
X118547521Y-76339986D01*
X118564986Y-76322521D01*
X118633124Y-76266601D01*
X118698471Y-76238847D01*
X118713058Y-76238000D01*
X120256608Y-76238000D01*
X120293874Y-76238033D01*
X120293876Y-76238033D01*
X120308063Y-76238045D01*
X120320854Y-76231903D01*
X120325767Y-76230787D01*
X120333317Y-76228150D01*
X120337851Y-76225968D01*
X120351685Y-76222812D01*
X120362780Y-76213971D01*
X120367654Y-76211625D01*
X120373506Y-76207954D01*
X120377738Y-76204588D01*
X120390524Y-76198448D01*
X120399384Y-76187369D01*
X120403324Y-76184235D01*
X120416097Y-76171484D01*
X120416444Y-76171208D01*
X120423224Y-76165805D01*
X120423225Y-76165804D01*
X120426073Y-76169378D01*
X120462103Y-76144125D01*
X120502422Y-76137500D01*
X120796174Y-76137500D01*
X120864295Y-76157502D01*
G37*
G04 #@! TD.AperFunction*
G04 #@! TA.AperFunction,Conductor*
G36*
X130071351Y-76149681D02*
G01*
X130106564Y-76169533D01*
X130108659Y-76171208D01*
X130121413Y-76183982D01*
X130125351Y-76187125D01*
X130134195Y-76198224D01*
X130146978Y-76204389D01*
X130151204Y-76207763D01*
X130157047Y-76211442D01*
X130161910Y-76213793D01*
X130172992Y-76222656D01*
X130186820Y-76225836D01*
X130191351Y-76228026D01*
X130198897Y-76230676D01*
X130203807Y-76231800D01*
X130216587Y-76237965D01*
X130239655Y-76237985D01*
X130239653Y-76240010D01*
X130239719Y-76240026D01*
X130239719Y-76238000D01*
X130256608Y-76238000D01*
X130308063Y-76238045D01*
X130308059Y-76242850D01*
X130308157Y-76242856D01*
X130308157Y-76238000D01*
X136698671Y-76238000D01*
X136766792Y-76258002D01*
X136813285Y-76311658D01*
X136823389Y-76381932D01*
X136793895Y-76446512D01*
X136781750Y-76458730D01*
X136635805Y-76586720D01*
X136510589Y-76745557D01*
X136416414Y-76924553D01*
X136356437Y-77117713D01*
X136332664Y-77318569D01*
X136345892Y-77520394D01*
X136363622Y-77590207D01*
X136394184Y-77710544D01*
X136395678Y-77716428D01*
X136480356Y-77900107D01*
X136483689Y-77904823D01*
X136582137Y-78044124D01*
X136597088Y-78065280D01*
X136741966Y-78206413D01*
X136910137Y-78318782D01*
X136915440Y-78321060D01*
X136915443Y-78321062D01*
X137057958Y-78382291D01*
X137095970Y-78398622D01*
X137293240Y-78443260D01*
X137299009Y-78443487D01*
X137299012Y-78443487D01*
X137375183Y-78446479D01*
X137495342Y-78451200D01*
X137581632Y-78438689D01*
X137689786Y-78423008D01*
X137689791Y-78423007D01*
X137695507Y-78422178D01*
X137700979Y-78420320D01*
X137700981Y-78420320D01*
X137881567Y-78359019D01*
X137881569Y-78359018D01*
X137887031Y-78357164D01*
X138030942Y-78276571D01*
X138058464Y-78261158D01*
X138058465Y-78261157D01*
X138063501Y-78258337D01*
X138125933Y-78206413D01*
X138151593Y-78185071D01*
X138219005Y-78129005D01*
X138338236Y-77985646D01*
X138344646Y-77977939D01*
X138348337Y-77973501D01*
X138352526Y-77966022D01*
X138389439Y-77900107D01*
X138447164Y-77797031D01*
X138455335Y-77772962D01*
X138510320Y-77610981D01*
X138510320Y-77610979D01*
X138512178Y-77605507D01*
X138513007Y-77599791D01*
X138513008Y-77599786D01*
X138532425Y-77465863D01*
X138541200Y-77405342D01*
X138542715Y-77347500D01*
X138524208Y-77146091D01*
X138518848Y-77127084D01*
X138474524Y-76969925D01*
X138469307Y-76951426D01*
X138379851Y-76770027D01*
X138365919Y-76751369D01*
X138262288Y-76612591D01*
X138262287Y-76612590D01*
X138258835Y-76607967D01*
X138254599Y-76604051D01*
X138114553Y-76474594D01*
X138114551Y-76474592D01*
X138110312Y-76470674D01*
X138105430Y-76467594D01*
X138100843Y-76464074D01*
X138102525Y-76461882D01*
X138063263Y-76417437D01*
X138052487Y-76347263D01*
X138081360Y-76282403D01*
X138140716Y-76243449D01*
X138177370Y-76238000D01*
X139238671Y-76238000D01*
X139306792Y-76258002D01*
X139353285Y-76311658D01*
X139363389Y-76381932D01*
X139333895Y-76446512D01*
X139321750Y-76458730D01*
X139175805Y-76586720D01*
X139050589Y-76745557D01*
X138956414Y-76924553D01*
X138896437Y-77117713D01*
X138872664Y-77318569D01*
X138885892Y-77520394D01*
X138903622Y-77590207D01*
X138934184Y-77710544D01*
X138935678Y-77716428D01*
X139020356Y-77900107D01*
X139023689Y-77904823D01*
X139122137Y-78044124D01*
X139137088Y-78065280D01*
X139281966Y-78206413D01*
X139450137Y-78318782D01*
X139455440Y-78321060D01*
X139455443Y-78321062D01*
X139597958Y-78382291D01*
X139635970Y-78398622D01*
X139833240Y-78443260D01*
X139839009Y-78443487D01*
X139839012Y-78443487D01*
X139915183Y-78446479D01*
X140035342Y-78451200D01*
X140121632Y-78438689D01*
X140229786Y-78423008D01*
X140229791Y-78423007D01*
X140235507Y-78422178D01*
X140240979Y-78420320D01*
X140240981Y-78420320D01*
X140421567Y-78359019D01*
X140421569Y-78359018D01*
X140427031Y-78357164D01*
X140570942Y-78276571D01*
X140598464Y-78261158D01*
X140598465Y-78261157D01*
X140603501Y-78258337D01*
X140665933Y-78206413D01*
X140691593Y-78185071D01*
X140759005Y-78129005D01*
X140878236Y-77985646D01*
X140884646Y-77977939D01*
X140888337Y-77973501D01*
X140892526Y-77966022D01*
X140929439Y-77900107D01*
X140987164Y-77797031D01*
X140995335Y-77772962D01*
X141050320Y-77610981D01*
X141050320Y-77610979D01*
X141052178Y-77605507D01*
X141053007Y-77599791D01*
X141053008Y-77599786D01*
X141072425Y-77465863D01*
X141081200Y-77405342D01*
X141082715Y-77347500D01*
X141064208Y-77146091D01*
X141058848Y-77127084D01*
X141014524Y-76969925D01*
X141009307Y-76951426D01*
X140919851Y-76770027D01*
X140905919Y-76751369D01*
X140802288Y-76612591D01*
X140802287Y-76612590D01*
X140798835Y-76607967D01*
X140794599Y-76604051D01*
X140654553Y-76474594D01*
X140654551Y-76474592D01*
X140650312Y-76470674D01*
X140645430Y-76467594D01*
X140640843Y-76464074D01*
X140642525Y-76461882D01*
X140603263Y-76417437D01*
X140592487Y-76347263D01*
X140621360Y-76282403D01*
X140680716Y-76243449D01*
X140717370Y-76238000D01*
X152808671Y-76238000D01*
X152876792Y-76258002D01*
X152923285Y-76311658D01*
X152933389Y-76381932D01*
X152903895Y-76446512D01*
X152891750Y-76458730D01*
X152745805Y-76586720D01*
X152620589Y-76745557D01*
X152526414Y-76924553D01*
X152466437Y-77117713D01*
X152442664Y-77318569D01*
X152455892Y-77520394D01*
X152473622Y-77590207D01*
X152504184Y-77710544D01*
X152505678Y-77716428D01*
X152590356Y-77900107D01*
X152593689Y-77904823D01*
X152692137Y-78044124D01*
X152707088Y-78065280D01*
X152851966Y-78206413D01*
X153020137Y-78318782D01*
X153025440Y-78321060D01*
X153025443Y-78321062D01*
X153167958Y-78382291D01*
X153205970Y-78398622D01*
X153403240Y-78443260D01*
X153409009Y-78443487D01*
X153409012Y-78443487D01*
X153485183Y-78446479D01*
X153605342Y-78451200D01*
X153691632Y-78438689D01*
X153799786Y-78423008D01*
X153799791Y-78423007D01*
X153805507Y-78422178D01*
X153810979Y-78420320D01*
X153810981Y-78420320D01*
X153991567Y-78359019D01*
X153991569Y-78359018D01*
X153997031Y-78357164D01*
X154140942Y-78276571D01*
X154168464Y-78261158D01*
X154168465Y-78261157D01*
X154173501Y-78258337D01*
X154235933Y-78206413D01*
X154261593Y-78185071D01*
X154329005Y-78129005D01*
X154448236Y-77985646D01*
X154454646Y-77977939D01*
X154458337Y-77973501D01*
X154462526Y-77966022D01*
X154499439Y-77900107D01*
X154557164Y-77797031D01*
X154565335Y-77772962D01*
X154620320Y-77610981D01*
X154620320Y-77610979D01*
X154622178Y-77605507D01*
X154623007Y-77599791D01*
X154623008Y-77599786D01*
X154642425Y-77465863D01*
X154651200Y-77405342D01*
X154652715Y-77347500D01*
X154634208Y-77146091D01*
X154628848Y-77127084D01*
X154584524Y-76969925D01*
X154579307Y-76951426D01*
X154489851Y-76770027D01*
X154475919Y-76751369D01*
X154372288Y-76612591D01*
X154372287Y-76612590D01*
X154368835Y-76607967D01*
X154364599Y-76604051D01*
X154224553Y-76474594D01*
X154224551Y-76474592D01*
X154220312Y-76470674D01*
X154215430Y-76467594D01*
X154210843Y-76464074D01*
X154212525Y-76461882D01*
X154173263Y-76417437D01*
X154162487Y-76347263D01*
X154191360Y-76282403D01*
X154250716Y-76243449D01*
X154287370Y-76238000D01*
X155348671Y-76238000D01*
X155416792Y-76258002D01*
X155463285Y-76311658D01*
X155473389Y-76381932D01*
X155443895Y-76446512D01*
X155431750Y-76458730D01*
X155285805Y-76586720D01*
X155160589Y-76745557D01*
X155066414Y-76924553D01*
X155006437Y-77117713D01*
X154982664Y-77318569D01*
X154995892Y-77520394D01*
X155013622Y-77590207D01*
X155044184Y-77710544D01*
X155045678Y-77716428D01*
X155130356Y-77900107D01*
X155133689Y-77904823D01*
X155232137Y-78044124D01*
X155247088Y-78065280D01*
X155391966Y-78206413D01*
X155560137Y-78318782D01*
X155565440Y-78321060D01*
X155565443Y-78321062D01*
X155707958Y-78382291D01*
X155745970Y-78398622D01*
X155943240Y-78443260D01*
X155949009Y-78443487D01*
X155949012Y-78443487D01*
X156025183Y-78446479D01*
X156145342Y-78451200D01*
X156231632Y-78438689D01*
X156339786Y-78423008D01*
X156339791Y-78423007D01*
X156345507Y-78422178D01*
X156350979Y-78420320D01*
X156350981Y-78420320D01*
X156531567Y-78359019D01*
X156531569Y-78359018D01*
X156537031Y-78357164D01*
X156639106Y-78300000D01*
X165794508Y-78300000D01*
X165796059Y-78309793D01*
X165809312Y-78393468D01*
X165814354Y-78425304D01*
X165871950Y-78538342D01*
X165961658Y-78628050D01*
X166074696Y-78685646D01*
X166084485Y-78687196D01*
X166084487Y-78687197D01*
X166190207Y-78703941D01*
X166200000Y-78705492D01*
X166209793Y-78703941D01*
X166315513Y-78687197D01*
X166315515Y-78687196D01*
X166325304Y-78685646D01*
X166438342Y-78628050D01*
X166528050Y-78538342D01*
X166585646Y-78425304D01*
X166590689Y-78393468D01*
X166603941Y-78309793D01*
X166605492Y-78300000D01*
X166600230Y-78266778D01*
X171294508Y-78266778D01*
X171296059Y-78276571D01*
X171311451Y-78373750D01*
X171314354Y-78392082D01*
X171371950Y-78505120D01*
X171461658Y-78594828D01*
X171574696Y-78652424D01*
X171584485Y-78653974D01*
X171584487Y-78653975D01*
X171690207Y-78670719D01*
X171700000Y-78672270D01*
X171709793Y-78670719D01*
X171815513Y-78653975D01*
X171815515Y-78653974D01*
X171825304Y-78652424D01*
X171938342Y-78594828D01*
X172028050Y-78505120D01*
X172085646Y-78392082D01*
X172088550Y-78373750D01*
X172103941Y-78276571D01*
X172105492Y-78266778D01*
X172103941Y-78256985D01*
X172087197Y-78151265D01*
X172087196Y-78151263D01*
X172085646Y-78141474D01*
X172067378Y-78105621D01*
X172054274Y-78035844D01*
X172080974Y-77970059D01*
X172122445Y-77936150D01*
X172129508Y-77932551D01*
X172138342Y-77928050D01*
X172228050Y-77838342D01*
X172285646Y-77725304D01*
X172295172Y-77665162D01*
X172303941Y-77609793D01*
X172305492Y-77600000D01*
X172302682Y-77582260D01*
X172287197Y-77484487D01*
X172287196Y-77484485D01*
X172285646Y-77474696D01*
X172228050Y-77361658D01*
X172138342Y-77271950D01*
X172117285Y-77261221D01*
X174905366Y-77261221D01*
X174906917Y-77271014D01*
X174923161Y-77373573D01*
X174925212Y-77386525D01*
X174982808Y-77499563D01*
X175072516Y-77589271D01*
X175185554Y-77646867D01*
X175195343Y-77648417D01*
X175195345Y-77648418D01*
X175301065Y-77665162D01*
X175310858Y-77666713D01*
X175320651Y-77665162D01*
X175426371Y-77648418D01*
X175426373Y-77648417D01*
X175436162Y-77646867D01*
X175549200Y-77589271D01*
X175638908Y-77499563D01*
X175696504Y-77386525D01*
X175698556Y-77373573D01*
X175714799Y-77271014D01*
X175716350Y-77261221D01*
X175709640Y-77218855D01*
X175698055Y-77145708D01*
X175698054Y-77145706D01*
X175696504Y-77135917D01*
X175638908Y-77022879D01*
X175549200Y-76933171D01*
X175436162Y-76875575D01*
X175426373Y-76874025D01*
X175426371Y-76874024D01*
X175320651Y-76857280D01*
X175310858Y-76855729D01*
X175301065Y-76857280D01*
X175195345Y-76874024D01*
X175195343Y-76874025D01*
X175185554Y-76875575D01*
X175072516Y-76933171D01*
X174982808Y-77022879D01*
X174925212Y-77135917D01*
X174923662Y-77145706D01*
X174923661Y-77145708D01*
X174912076Y-77218855D01*
X174905366Y-77261221D01*
X172117285Y-77261221D01*
X172025304Y-77214354D01*
X172015515Y-77212804D01*
X172015513Y-77212803D01*
X171909793Y-77196059D01*
X171900000Y-77194508D01*
X171890207Y-77196059D01*
X171784487Y-77212803D01*
X171784485Y-77212804D01*
X171774696Y-77214354D01*
X171661658Y-77271950D01*
X171571950Y-77361658D01*
X171514354Y-77474696D01*
X171512804Y-77484485D01*
X171512803Y-77484487D01*
X171497318Y-77582260D01*
X171494508Y-77600000D01*
X171496059Y-77609793D01*
X171504829Y-77665162D01*
X171514354Y-77725304D01*
X171523387Y-77743032D01*
X171532622Y-77761157D01*
X171545726Y-77830934D01*
X171519026Y-77896719D01*
X171477555Y-77930628D01*
X171461658Y-77938728D01*
X171371950Y-78028436D01*
X171314354Y-78141474D01*
X171312804Y-78151263D01*
X171312803Y-78151265D01*
X171296059Y-78256985D01*
X171294508Y-78266778D01*
X166600230Y-78266778D01*
X166591178Y-78209623D01*
X166587197Y-78184487D01*
X166587196Y-78184485D01*
X166585646Y-78174696D01*
X166528050Y-78061658D01*
X166438342Y-77971950D01*
X166325304Y-77914354D01*
X166315515Y-77912804D01*
X166315513Y-77912803D01*
X166209793Y-77896059D01*
X166200000Y-77894508D01*
X166190207Y-77896059D01*
X166084487Y-77912803D01*
X166084485Y-77912804D01*
X166074696Y-77914354D01*
X165961658Y-77971950D01*
X165871950Y-78061658D01*
X165814354Y-78174696D01*
X165812804Y-78184485D01*
X165812803Y-78184487D01*
X165808822Y-78209623D01*
X165794508Y-78300000D01*
X156639106Y-78300000D01*
X156680942Y-78276571D01*
X156708464Y-78261158D01*
X156708465Y-78261157D01*
X156713501Y-78258337D01*
X156775933Y-78206413D01*
X156801593Y-78185071D01*
X156869005Y-78129005D01*
X156988236Y-77985646D01*
X156994646Y-77977939D01*
X156998337Y-77973501D01*
X157002526Y-77966022D01*
X157039439Y-77900107D01*
X157097164Y-77797031D01*
X157105335Y-77772962D01*
X157160320Y-77610981D01*
X157160320Y-77610979D01*
X157162178Y-77605507D01*
X157163007Y-77599791D01*
X157163008Y-77599786D01*
X157182425Y-77465863D01*
X157191200Y-77405342D01*
X157192715Y-77347500D01*
X157174208Y-77146091D01*
X157168848Y-77127084D01*
X157124524Y-76969925D01*
X157119307Y-76951426D01*
X157029851Y-76770027D01*
X157015919Y-76751369D01*
X156912288Y-76612591D01*
X156912287Y-76612590D01*
X156908835Y-76607967D01*
X156904599Y-76604051D01*
X156764553Y-76474594D01*
X156764551Y-76474592D01*
X156760312Y-76470674D01*
X156755430Y-76467594D01*
X156750843Y-76464074D01*
X156752525Y-76461882D01*
X156713263Y-76417437D01*
X156702487Y-76347263D01*
X156731360Y-76282403D01*
X156790716Y-76243449D01*
X156827370Y-76238000D01*
X161732080Y-76238000D01*
X161800201Y-76258002D01*
X161846694Y-76311658D01*
X161856798Y-76381932D01*
X161827304Y-76446512D01*
X161789283Y-76476267D01*
X161724158Y-76509450D01*
X161634450Y-76599158D01*
X161576854Y-76712196D01*
X161575304Y-76721985D01*
X161575303Y-76721987D01*
X161561464Y-76809367D01*
X161557008Y-76837500D01*
X161558559Y-76847293D01*
X161575120Y-76951854D01*
X161576854Y-76962804D01*
X161634450Y-77075842D01*
X161724158Y-77165550D01*
X161837196Y-77223146D01*
X161846985Y-77224696D01*
X161846987Y-77224697D01*
X161952707Y-77241441D01*
X161962500Y-77242992D01*
X161972293Y-77241441D01*
X162078013Y-77224697D01*
X162078015Y-77224696D01*
X162087804Y-77223146D01*
X162200842Y-77165550D01*
X162290550Y-77075842D01*
X162292497Y-77072021D01*
X162346245Y-77030579D01*
X162416982Y-77024505D01*
X162479772Y-77057640D01*
X162504222Y-77090792D01*
X162505221Y-77092752D01*
X162552507Y-77185556D01*
X162642215Y-77275264D01*
X162755253Y-77332860D01*
X162765042Y-77334410D01*
X162765044Y-77334411D01*
X162870764Y-77351155D01*
X162880557Y-77352706D01*
X162890350Y-77351155D01*
X162996070Y-77334411D01*
X162996072Y-77334410D01*
X163005861Y-77332860D01*
X163118899Y-77275264D01*
X163208607Y-77185556D01*
X163266203Y-77072518D01*
X163268560Y-77057640D01*
X163284498Y-76957007D01*
X163286049Y-76947214D01*
X163277894Y-76895722D01*
X163267754Y-76831701D01*
X163267753Y-76831699D01*
X163266203Y-76821910D01*
X163208607Y-76708872D01*
X163118899Y-76619164D01*
X163005861Y-76561568D01*
X162996072Y-76560018D01*
X162996070Y-76560017D01*
X162890350Y-76543273D01*
X162880557Y-76541722D01*
X162870764Y-76543273D01*
X162765044Y-76560017D01*
X162765042Y-76560018D01*
X162755253Y-76561568D01*
X162642215Y-76619164D01*
X162552507Y-76708872D01*
X162550560Y-76712693D01*
X162496812Y-76754135D01*
X162426075Y-76760209D01*
X162363285Y-76727074D01*
X162338835Y-76693922D01*
X162327040Y-76670773D01*
X162290550Y-76599158D01*
X162200842Y-76509450D01*
X162135717Y-76476267D01*
X162084102Y-76427518D01*
X162067036Y-76358604D01*
X162089937Y-76291402D01*
X162145534Y-76247250D01*
X162192920Y-76238000D01*
X183811942Y-76238000D01*
X183880063Y-76258002D01*
X183891876Y-76266601D01*
X183960014Y-76322521D01*
X183977479Y-76339986D01*
X184033399Y-76408124D01*
X184061153Y-76473471D01*
X184062000Y-76488058D01*
X184062000Y-89586942D01*
X184041998Y-89655063D01*
X184033399Y-89666876D01*
X183977479Y-89735014D01*
X183960014Y-89752479D01*
X183891876Y-89808399D01*
X183826529Y-89836153D01*
X183811942Y-89837000D01*
X156823181Y-89837000D01*
X156755060Y-89816998D01*
X156708567Y-89763342D01*
X156698463Y-89693068D01*
X156727957Y-89628488D01*
X156742612Y-89614126D01*
X156864568Y-89512696D01*
X156864573Y-89512691D01*
X156869005Y-89509005D01*
X156998337Y-89353501D01*
X157006431Y-89339049D01*
X157050026Y-89261203D01*
X157097164Y-89177031D01*
X157101994Y-89162804D01*
X157160320Y-88990981D01*
X157160320Y-88990979D01*
X157162178Y-88985507D01*
X157163007Y-88979791D01*
X157163008Y-88979786D01*
X157183613Y-88837669D01*
X157191200Y-88785342D01*
X157192715Y-88727500D01*
X157174208Y-88526091D01*
X157172325Y-88519412D01*
X157138391Y-88399093D01*
X157119307Y-88331426D01*
X157029851Y-88150027D01*
X157011579Y-88125557D01*
X156912288Y-87992591D01*
X156912287Y-87992590D01*
X156908835Y-87987967D01*
X156901959Y-87981611D01*
X156889398Y-87970000D01*
X159724508Y-87970000D01*
X159726059Y-87979793D01*
X159742205Y-88081733D01*
X159744354Y-88095304D01*
X159801950Y-88208342D01*
X159891658Y-88298050D01*
X160004696Y-88355646D01*
X160014485Y-88357196D01*
X160014487Y-88357197D01*
X160120207Y-88373941D01*
X160130000Y-88375492D01*
X160139793Y-88373941D01*
X160245513Y-88357197D01*
X160245515Y-88357196D01*
X160255304Y-88355646D01*
X160368342Y-88298050D01*
X160458050Y-88208342D01*
X160515646Y-88095304D01*
X160517588Y-88096294D01*
X160550241Y-88048542D01*
X160615638Y-88020905D01*
X160685595Y-88033012D01*
X160737900Y-88081019D01*
X160744317Y-88095068D01*
X160744354Y-88095304D01*
X160801950Y-88208342D01*
X160891658Y-88298050D01*
X161004696Y-88355646D01*
X161014485Y-88357196D01*
X161014487Y-88357197D01*
X161120207Y-88373941D01*
X161130000Y-88375492D01*
X161139793Y-88373941D01*
X161245513Y-88357197D01*
X161245515Y-88357196D01*
X161255304Y-88355646D01*
X161368342Y-88298050D01*
X161458050Y-88208342D01*
X161462300Y-88200000D01*
X175094508Y-88200000D01*
X175096059Y-88209793D01*
X175112414Y-88313053D01*
X175114354Y-88325304D01*
X175171950Y-88438342D01*
X175261658Y-88528050D01*
X175374696Y-88585646D01*
X175384485Y-88587196D01*
X175384487Y-88587197D01*
X175490207Y-88603941D01*
X175500000Y-88605492D01*
X175509793Y-88603941D01*
X175509794Y-88603941D01*
X175602956Y-88589186D01*
X175673367Y-88598286D01*
X175727681Y-88644008D01*
X175734933Y-88656432D01*
X175773444Y-88732013D01*
X175781570Y-88747961D01*
X175871278Y-88837669D01*
X175984316Y-88895265D01*
X175994105Y-88896815D01*
X175994107Y-88896816D01*
X176099827Y-88913560D01*
X176109620Y-88915111D01*
X176119413Y-88913560D01*
X176225133Y-88896816D01*
X176225135Y-88896815D01*
X176234924Y-88895265D01*
X176347962Y-88837669D01*
X176437670Y-88747961D01*
X176495266Y-88634923D01*
X176499928Y-88605492D01*
X176513561Y-88519412D01*
X176515112Y-88509619D01*
X176513226Y-88497713D01*
X176496817Y-88394106D01*
X176496816Y-88394104D01*
X176495266Y-88384315D01*
X176437670Y-88271277D01*
X176347962Y-88181569D01*
X176234924Y-88123973D01*
X176225135Y-88122423D01*
X176225133Y-88122422D01*
X176132571Y-88107762D01*
X178932020Y-88107762D01*
X178932536Y-88113906D01*
X178948116Y-88299437D01*
X178949259Y-88313053D01*
X178950958Y-88318978D01*
X178973931Y-88399093D01*
X179006044Y-88511086D01*
X179008859Y-88516563D01*
X179008860Y-88516566D01*
X179095739Y-88685615D01*
X179100212Y-88694318D01*
X179228177Y-88855770D01*
X179232870Y-88859764D01*
X179232871Y-88859765D01*
X179373896Y-88979786D01*
X179385064Y-88989291D01*
X179564898Y-89089797D01*
X179659738Y-89120613D01*
X179754971Y-89151556D01*
X179754975Y-89151557D01*
X179760829Y-89153459D01*
X179965394Y-89177851D01*
X179971529Y-89177379D01*
X179971531Y-89177379D01*
X180027539Y-89173069D01*
X180170800Y-89162046D01*
X180176730Y-89160390D01*
X180176732Y-89160390D01*
X180363297Y-89108300D01*
X180363296Y-89108300D01*
X180369225Y-89106645D01*
X180374714Y-89103872D01*
X180374720Y-89103870D01*
X180513938Y-89033545D01*
X180553110Y-89013758D01*
X180582264Y-88990981D01*
X180645672Y-88941441D01*
X180715451Y-88886924D01*
X180721885Y-88879471D01*
X180846040Y-88735634D01*
X180846040Y-88735633D01*
X180850064Y-88730972D01*
X180854136Y-88723805D01*
X180906283Y-88632008D01*
X180951823Y-88551844D01*
X181016851Y-88356363D01*
X181042671Y-88151974D01*
X181042969Y-88130667D01*
X181043034Y-88126022D01*
X181043034Y-88126018D01*
X181043083Y-88122500D01*
X181041638Y-88107762D01*
X181472020Y-88107762D01*
X181472536Y-88113906D01*
X181488116Y-88299437D01*
X181489259Y-88313053D01*
X181490958Y-88318978D01*
X181513931Y-88399093D01*
X181546044Y-88511086D01*
X181548859Y-88516563D01*
X181548860Y-88516566D01*
X181635739Y-88685615D01*
X181640212Y-88694318D01*
X181768177Y-88855770D01*
X181772870Y-88859764D01*
X181772871Y-88859765D01*
X181913896Y-88979786D01*
X181925064Y-88989291D01*
X182104898Y-89089797D01*
X182199738Y-89120613D01*
X182294971Y-89151556D01*
X182294975Y-89151557D01*
X182300829Y-89153459D01*
X182505394Y-89177851D01*
X182511529Y-89177379D01*
X182511531Y-89177379D01*
X182567539Y-89173069D01*
X182710800Y-89162046D01*
X182716730Y-89160390D01*
X182716732Y-89160390D01*
X182903297Y-89108300D01*
X182903296Y-89108300D01*
X182909225Y-89106645D01*
X182914714Y-89103872D01*
X182914720Y-89103870D01*
X183053938Y-89033545D01*
X183093110Y-89013758D01*
X183122264Y-88990981D01*
X183185672Y-88941441D01*
X183255451Y-88886924D01*
X183261885Y-88879471D01*
X183386040Y-88735634D01*
X183386040Y-88735633D01*
X183390064Y-88730972D01*
X183394136Y-88723805D01*
X183446283Y-88632008D01*
X183491823Y-88551844D01*
X183556851Y-88356363D01*
X183582671Y-88151974D01*
X183582969Y-88130667D01*
X183583034Y-88126022D01*
X183583034Y-88126018D01*
X183583083Y-88122500D01*
X183562980Y-87917470D01*
X183503435Y-87720249D01*
X183406718Y-87538349D01*
X183320975Y-87433218D01*
X183280406Y-87383475D01*
X183280403Y-87383472D01*
X183276511Y-87378700D01*
X183271762Y-87374771D01*
X183122525Y-87251311D01*
X183122521Y-87251309D01*
X183117775Y-87247382D01*
X182936555Y-87149397D01*
X182739754Y-87088477D01*
X182733629Y-87087833D01*
X182733628Y-87087833D01*
X182540998Y-87067587D01*
X182540996Y-87067587D01*
X182534869Y-87066943D01*
X182448029Y-87074846D01*
X182335842Y-87085055D01*
X182335839Y-87085056D01*
X182329703Y-87085614D01*
X182132072Y-87143780D01*
X181949502Y-87239226D01*
X181944701Y-87243086D01*
X181944698Y-87243088D01*
X181807699Y-87353238D01*
X181788947Y-87368315D01*
X181656524Y-87526130D01*
X181653556Y-87531528D01*
X181653553Y-87531533D01*
X181570040Y-87683445D01*
X181557276Y-87706662D01*
X181555413Y-87712535D01*
X181497343Y-87895597D01*
X181494984Y-87903032D01*
X181494298Y-87909149D01*
X181494297Y-87909153D01*
X181477601Y-88058002D01*
X181472020Y-88107762D01*
X181041638Y-88107762D01*
X181022980Y-87917470D01*
X180963435Y-87720249D01*
X180866718Y-87538349D01*
X180780975Y-87433218D01*
X180740406Y-87383475D01*
X180740403Y-87383472D01*
X180736511Y-87378700D01*
X180731762Y-87374771D01*
X180582525Y-87251311D01*
X180582521Y-87251309D01*
X180577775Y-87247382D01*
X180396555Y-87149397D01*
X180199754Y-87088477D01*
X180193629Y-87087833D01*
X180193628Y-87087833D01*
X180000998Y-87067587D01*
X180000996Y-87067587D01*
X179994869Y-87066943D01*
X179908029Y-87074846D01*
X179795842Y-87085055D01*
X179795839Y-87085056D01*
X179789703Y-87085614D01*
X179592072Y-87143780D01*
X179409502Y-87239226D01*
X179404701Y-87243086D01*
X179404698Y-87243088D01*
X179267699Y-87353238D01*
X179248947Y-87368315D01*
X179116524Y-87526130D01*
X179113556Y-87531528D01*
X179113553Y-87531533D01*
X179030040Y-87683445D01*
X179017276Y-87706662D01*
X179015413Y-87712535D01*
X178957343Y-87895597D01*
X178954984Y-87903032D01*
X178954298Y-87909149D01*
X178954297Y-87909153D01*
X178937601Y-88058002D01*
X178932020Y-88107762D01*
X176132571Y-88107762D01*
X176119413Y-88105678D01*
X176109620Y-88104127D01*
X176099827Y-88105678D01*
X176099826Y-88105678D01*
X176006664Y-88120433D01*
X175936253Y-88111333D01*
X175881939Y-88065611D01*
X175874687Y-88053187D01*
X175832551Y-87970491D01*
X175832550Y-87970489D01*
X175828050Y-87961658D01*
X175738342Y-87871950D01*
X175625304Y-87814354D01*
X175615515Y-87812804D01*
X175615513Y-87812803D01*
X175509793Y-87796059D01*
X175500000Y-87794508D01*
X175490207Y-87796059D01*
X175384487Y-87812803D01*
X175384485Y-87812804D01*
X175374696Y-87814354D01*
X175261658Y-87871950D01*
X175171950Y-87961658D01*
X175114354Y-88074696D01*
X175112804Y-88084485D01*
X175112803Y-88084487D01*
X175099764Y-88166814D01*
X175094508Y-88200000D01*
X161462300Y-88200000D01*
X161515646Y-88095304D01*
X161517796Y-88081733D01*
X161533941Y-87979793D01*
X161535492Y-87970000D01*
X161532811Y-87953073D01*
X161517197Y-87854487D01*
X161517196Y-87854485D01*
X161515646Y-87844696D01*
X161458050Y-87731658D01*
X161368342Y-87641950D01*
X161269486Y-87591580D01*
X163296809Y-87591580D01*
X163298360Y-87601373D01*
X163313197Y-87695049D01*
X163316655Y-87716884D01*
X163374251Y-87829922D01*
X163463959Y-87919630D01*
X163576997Y-87977226D01*
X163586786Y-87978776D01*
X163586788Y-87978777D01*
X163692508Y-87995521D01*
X163702301Y-87997072D01*
X163712094Y-87995521D01*
X163817814Y-87978777D01*
X163817816Y-87978776D01*
X163827605Y-87977226D01*
X163940643Y-87919630D01*
X164030351Y-87829922D01*
X164077443Y-87737500D01*
X166057008Y-87737500D01*
X166058559Y-87747293D01*
X166073776Y-87843368D01*
X166076854Y-87862804D01*
X166134450Y-87975842D01*
X166224158Y-88065550D01*
X166337196Y-88123146D01*
X166346985Y-88124696D01*
X166346987Y-88124697D01*
X166452707Y-88141441D01*
X166462500Y-88142992D01*
X166472293Y-88141441D01*
X166578013Y-88124697D01*
X166578015Y-88124696D01*
X166587804Y-88123146D01*
X166700842Y-88065550D01*
X166790550Y-87975842D01*
X166848146Y-87862804D01*
X166851225Y-87843368D01*
X166866441Y-87747293D01*
X166867992Y-87737500D01*
X166862253Y-87701265D01*
X166849697Y-87621987D01*
X166849696Y-87621985D01*
X166848146Y-87612196D01*
X166790550Y-87499158D01*
X166700842Y-87409450D01*
X166587804Y-87351854D01*
X166578015Y-87350304D01*
X166578013Y-87350303D01*
X166472293Y-87333559D01*
X166462500Y-87332008D01*
X166452707Y-87333559D01*
X166346987Y-87350303D01*
X166346985Y-87350304D01*
X166337196Y-87351854D01*
X166224158Y-87409450D01*
X166134450Y-87499158D01*
X166076854Y-87612196D01*
X166075304Y-87621985D01*
X166075303Y-87621987D01*
X166062747Y-87701265D01*
X166057008Y-87737500D01*
X164077443Y-87737500D01*
X164087947Y-87716884D01*
X164091406Y-87695049D01*
X164106242Y-87601373D01*
X164107793Y-87591580D01*
X164087947Y-87466276D01*
X164030351Y-87353238D01*
X163940643Y-87263530D01*
X163827605Y-87205934D01*
X163817816Y-87204384D01*
X163817814Y-87204383D01*
X163712094Y-87187639D01*
X163702301Y-87186088D01*
X163692508Y-87187639D01*
X163586788Y-87204383D01*
X163586786Y-87204384D01*
X163576997Y-87205934D01*
X163463959Y-87263530D01*
X163374251Y-87353238D01*
X163316655Y-87466276D01*
X163296809Y-87591580D01*
X161269486Y-87591580D01*
X161255304Y-87584354D01*
X161245515Y-87582804D01*
X161245513Y-87582803D01*
X161139793Y-87566059D01*
X161130000Y-87564508D01*
X161120207Y-87566059D01*
X161014487Y-87582803D01*
X161014485Y-87582804D01*
X161004696Y-87584354D01*
X160891658Y-87641950D01*
X160801950Y-87731658D01*
X160744354Y-87844696D01*
X160742412Y-87843706D01*
X160709759Y-87891458D01*
X160644362Y-87919095D01*
X160574405Y-87906988D01*
X160522100Y-87858981D01*
X160515683Y-87844932D01*
X160515646Y-87844696D01*
X160458050Y-87731658D01*
X160368342Y-87641950D01*
X160255304Y-87584354D01*
X160245515Y-87582804D01*
X160245513Y-87582803D01*
X160139793Y-87566059D01*
X160130000Y-87564508D01*
X160120207Y-87566059D01*
X160014487Y-87582803D01*
X160014485Y-87582804D01*
X160004696Y-87584354D01*
X159891658Y-87641950D01*
X159801950Y-87731658D01*
X159744354Y-87844696D01*
X159742804Y-87854485D01*
X159742803Y-87854487D01*
X159727189Y-87953073D01*
X159724508Y-87970000D01*
X156889398Y-87970000D01*
X156764553Y-87854594D01*
X156764551Y-87854592D01*
X156760312Y-87850674D01*
X156755429Y-87847593D01*
X156594137Y-87745825D01*
X156589257Y-87742746D01*
X156401398Y-87667798D01*
X156203026Y-87628339D01*
X156197252Y-87628263D01*
X156197248Y-87628263D01*
X156094757Y-87626922D01*
X156000786Y-87625692D01*
X155995089Y-87626671D01*
X155995088Y-87626671D01*
X155807146Y-87658965D01*
X155807145Y-87658965D01*
X155801449Y-87659944D01*
X155611693Y-87729949D01*
X155606732Y-87732901D01*
X155606731Y-87732901D01*
X155443709Y-87829889D01*
X155437871Y-87833362D01*
X155285805Y-87966720D01*
X155160589Y-88125557D01*
X155066414Y-88304553D01*
X155006437Y-88497713D01*
X154982664Y-88698569D01*
X154995892Y-88900394D01*
X155010994Y-88959860D01*
X155040828Y-89077329D01*
X155045678Y-89096428D01*
X155130356Y-89280107D01*
X155247088Y-89445280D01*
X155391966Y-89586413D01*
X155396771Y-89589624D01*
X155396774Y-89589626D01*
X155421631Y-89606235D01*
X155467159Y-89660711D01*
X155476008Y-89731154D01*
X155445367Y-89795199D01*
X155384965Y-89832510D01*
X155351630Y-89837000D01*
X140713181Y-89837000D01*
X140645060Y-89816998D01*
X140598567Y-89763342D01*
X140588463Y-89693068D01*
X140617957Y-89628488D01*
X140632612Y-89614126D01*
X140754568Y-89512696D01*
X140754573Y-89512691D01*
X140759005Y-89509005D01*
X140888337Y-89353501D01*
X140896431Y-89339049D01*
X140940026Y-89261203D01*
X140987164Y-89177031D01*
X140991994Y-89162804D01*
X141034529Y-89037500D01*
X143857008Y-89037500D01*
X143858559Y-89047293D01*
X143875073Y-89151556D01*
X143876854Y-89162804D01*
X143934450Y-89275842D01*
X144024158Y-89365550D01*
X144137196Y-89423146D01*
X144146985Y-89424696D01*
X144146987Y-89424697D01*
X144252707Y-89441441D01*
X144262500Y-89442992D01*
X144272293Y-89441441D01*
X144378013Y-89424697D01*
X144378015Y-89424696D01*
X144387804Y-89423146D01*
X144500842Y-89365550D01*
X144590550Y-89275842D01*
X144648146Y-89162804D01*
X144649928Y-89151556D01*
X144666441Y-89047293D01*
X144667992Y-89037500D01*
X145907008Y-89037500D01*
X145908559Y-89047293D01*
X145925073Y-89151556D01*
X145926854Y-89162804D01*
X145984450Y-89275842D01*
X146074158Y-89365550D01*
X146187196Y-89423146D01*
X146196985Y-89424696D01*
X146196987Y-89424697D01*
X146302707Y-89441441D01*
X146312500Y-89442992D01*
X146322293Y-89441441D01*
X146428013Y-89424697D01*
X146428015Y-89424696D01*
X146437804Y-89423146D01*
X146550842Y-89365550D01*
X146640550Y-89275842D01*
X146698146Y-89162804D01*
X146699928Y-89151556D01*
X146716441Y-89047293D01*
X146717992Y-89037500D01*
X147807008Y-89037500D01*
X147808559Y-89047293D01*
X147825073Y-89151556D01*
X147826854Y-89162804D01*
X147884450Y-89275842D01*
X147974158Y-89365550D01*
X148087196Y-89423146D01*
X148096985Y-89424696D01*
X148096987Y-89424697D01*
X148202707Y-89441441D01*
X148212500Y-89442992D01*
X148222293Y-89441441D01*
X148328013Y-89424697D01*
X148328015Y-89424696D01*
X148337804Y-89423146D01*
X148450842Y-89365550D01*
X148540550Y-89275842D01*
X148598146Y-89162804D01*
X148599928Y-89151556D01*
X148616441Y-89047293D01*
X148617992Y-89037500D01*
X149157008Y-89037500D01*
X149158559Y-89047293D01*
X149175073Y-89151556D01*
X149176854Y-89162804D01*
X149234450Y-89275842D01*
X149324158Y-89365550D01*
X149437196Y-89423146D01*
X149446985Y-89424696D01*
X149446987Y-89424697D01*
X149552707Y-89441441D01*
X149562500Y-89442992D01*
X149572293Y-89441441D01*
X149678013Y-89424697D01*
X149678015Y-89424696D01*
X149687804Y-89423146D01*
X149800842Y-89365550D01*
X149823405Y-89342987D01*
X149885717Y-89308961D01*
X149956532Y-89314026D01*
X150001595Y-89342987D01*
X150024158Y-89365550D01*
X150137196Y-89423146D01*
X150146985Y-89424696D01*
X150146987Y-89424697D01*
X150252707Y-89441441D01*
X150262500Y-89442992D01*
X150272293Y-89441441D01*
X150378013Y-89424697D01*
X150378015Y-89424696D01*
X150387804Y-89423146D01*
X150500842Y-89365550D01*
X150590550Y-89275842D01*
X150648146Y-89162804D01*
X150649928Y-89151556D01*
X150666441Y-89047293D01*
X150667992Y-89037500D01*
X150658851Y-88979786D01*
X150649697Y-88921987D01*
X150649696Y-88921985D01*
X150648146Y-88912196D01*
X150590550Y-88799158D01*
X150500842Y-88709450D01*
X150387804Y-88651854D01*
X150378015Y-88650304D01*
X150378013Y-88650303D01*
X150272293Y-88633559D01*
X150262500Y-88632008D01*
X150252707Y-88633559D01*
X150146987Y-88650303D01*
X150146985Y-88650304D01*
X150137196Y-88651854D01*
X150024158Y-88709450D01*
X150001595Y-88732013D01*
X149939283Y-88766039D01*
X149868468Y-88760974D01*
X149823405Y-88732013D01*
X149800842Y-88709450D01*
X149687804Y-88651854D01*
X149678015Y-88650304D01*
X149678013Y-88650303D01*
X149572293Y-88633559D01*
X149562500Y-88632008D01*
X149552707Y-88633559D01*
X149446987Y-88650303D01*
X149446985Y-88650304D01*
X149437196Y-88651854D01*
X149324158Y-88709450D01*
X149234450Y-88799158D01*
X149176854Y-88912196D01*
X149175304Y-88921985D01*
X149175303Y-88921987D01*
X149166149Y-88979786D01*
X149157008Y-89037500D01*
X148617992Y-89037500D01*
X148608851Y-88979786D01*
X148599697Y-88921987D01*
X148599696Y-88921985D01*
X148598146Y-88912196D01*
X148540550Y-88799158D01*
X148450842Y-88709450D01*
X148337804Y-88651854D01*
X148328015Y-88650304D01*
X148328013Y-88650303D01*
X148222293Y-88633559D01*
X148212500Y-88632008D01*
X148202707Y-88633559D01*
X148096987Y-88650303D01*
X148096985Y-88650304D01*
X148087196Y-88651854D01*
X147974158Y-88709450D01*
X147884450Y-88799158D01*
X147826854Y-88912196D01*
X147825304Y-88921985D01*
X147825303Y-88921987D01*
X147816149Y-88979786D01*
X147807008Y-89037500D01*
X146717992Y-89037500D01*
X146708851Y-88979786D01*
X146699697Y-88921987D01*
X146699696Y-88921985D01*
X146698146Y-88912196D01*
X146640550Y-88799158D01*
X146550842Y-88709450D01*
X146437804Y-88651854D01*
X146428015Y-88650304D01*
X146428013Y-88650303D01*
X146322293Y-88633559D01*
X146312500Y-88632008D01*
X146302707Y-88633559D01*
X146196987Y-88650303D01*
X146196985Y-88650304D01*
X146187196Y-88651854D01*
X146074158Y-88709450D01*
X145984450Y-88799158D01*
X145926854Y-88912196D01*
X145925304Y-88921985D01*
X145925303Y-88921987D01*
X145916149Y-88979786D01*
X145907008Y-89037500D01*
X144667992Y-89037500D01*
X144658851Y-88979786D01*
X144649697Y-88921987D01*
X144649696Y-88921985D01*
X144648146Y-88912196D01*
X144590550Y-88799158D01*
X144500842Y-88709450D01*
X144387804Y-88651854D01*
X144378015Y-88650304D01*
X144378013Y-88650303D01*
X144272293Y-88633559D01*
X144262500Y-88632008D01*
X144252707Y-88633559D01*
X144146987Y-88650303D01*
X144146985Y-88650304D01*
X144137196Y-88651854D01*
X144024158Y-88709450D01*
X143934450Y-88799158D01*
X143876854Y-88912196D01*
X143875304Y-88921985D01*
X143875303Y-88921987D01*
X143866149Y-88979786D01*
X143857008Y-89037500D01*
X141034529Y-89037500D01*
X141050320Y-88990981D01*
X141050320Y-88990979D01*
X141052178Y-88985507D01*
X141053007Y-88979791D01*
X141053008Y-88979786D01*
X141073613Y-88837669D01*
X141081200Y-88785342D01*
X141082715Y-88727500D01*
X141064208Y-88526091D01*
X141062325Y-88519412D01*
X141028391Y-88399093D01*
X141009307Y-88331426D01*
X140919851Y-88150027D01*
X140901579Y-88125557D01*
X140802288Y-87992591D01*
X140802287Y-87992590D01*
X140798835Y-87987967D01*
X140789993Y-87979793D01*
X140764821Y-87956525D01*
X140728376Y-87895597D01*
X140730657Y-87824637D01*
X140770939Y-87766174D01*
X140836434Y-87738771D01*
X140850350Y-87738000D01*
X141475820Y-87738000D01*
X141478493Y-87738196D01*
X141483528Y-87739925D01*
X141495150Y-87739489D01*
X141495152Y-87739489D01*
X141532441Y-87738089D01*
X141537167Y-87738000D01*
X141556134Y-87738000D01*
X141560869Y-87737118D01*
X141564395Y-87736890D01*
X141568135Y-87736749D01*
X141595394Y-87735726D01*
X141606079Y-87731136D01*
X141610679Y-87730099D01*
X141622400Y-87726538D01*
X141626803Y-87724839D01*
X141638239Y-87722709D01*
X141659227Y-87709772D01*
X141675597Y-87701269D01*
X141690074Y-87695049D01*
X141690078Y-87695047D01*
X141698249Y-87691536D01*
X141703135Y-87687522D01*
X141705320Y-87685337D01*
X141707583Y-87683285D01*
X141707728Y-87683445D01*
X141716735Y-87676325D01*
X141723630Y-87670073D01*
X141733534Y-87663968D01*
X141750102Y-87642180D01*
X141761296Y-87629361D01*
X142419407Y-86971250D01*
X157623258Y-86971250D01*
X157624809Y-86981043D01*
X157641283Y-87085055D01*
X157643104Y-87096554D01*
X157700700Y-87209592D01*
X157790408Y-87299300D01*
X157903446Y-87356896D01*
X157913235Y-87358446D01*
X157913237Y-87358447D01*
X158018957Y-87375191D01*
X158028750Y-87376742D01*
X158038543Y-87375191D01*
X158144263Y-87358447D01*
X158144265Y-87358446D01*
X158154054Y-87356896D01*
X158267092Y-87299300D01*
X158356800Y-87209592D01*
X158414396Y-87096554D01*
X158416218Y-87085055D01*
X158417810Y-87075000D01*
X170519508Y-87075000D01*
X170521059Y-87084793D01*
X170531604Y-87151369D01*
X170539354Y-87200304D01*
X170596950Y-87313342D01*
X170686658Y-87403050D01*
X170799696Y-87460646D01*
X170809485Y-87462196D01*
X170809487Y-87462197D01*
X170915207Y-87478941D01*
X170925000Y-87480492D01*
X170934793Y-87478941D01*
X171040513Y-87462197D01*
X171040515Y-87462196D01*
X171050304Y-87460646D01*
X171163342Y-87403050D01*
X171253050Y-87313342D01*
X171310646Y-87200304D01*
X171318397Y-87151369D01*
X171328941Y-87084793D01*
X171330492Y-87075000D01*
X171327955Y-87058982D01*
X171312197Y-86959487D01*
X171312196Y-86959485D01*
X171310646Y-86949696D01*
X171253050Y-86836658D01*
X171163342Y-86746950D01*
X171050304Y-86689354D01*
X171040515Y-86687804D01*
X171040513Y-86687803D01*
X170934793Y-86671059D01*
X170925000Y-86669508D01*
X170915207Y-86671059D01*
X170809487Y-86687803D01*
X170809485Y-86687804D01*
X170799696Y-86689354D01*
X170686658Y-86746950D01*
X170596950Y-86836658D01*
X170539354Y-86949696D01*
X170537804Y-86959485D01*
X170537803Y-86959487D01*
X170522045Y-87058982D01*
X170519508Y-87075000D01*
X158417810Y-87075000D01*
X158432691Y-86981043D01*
X158434242Y-86971250D01*
X158422965Y-86900050D01*
X158415947Y-86855737D01*
X158415946Y-86855735D01*
X158414396Y-86845946D01*
X158356800Y-86732908D01*
X158267092Y-86643200D01*
X158154054Y-86585604D01*
X158144265Y-86584054D01*
X158144263Y-86584053D01*
X158039749Y-86567500D01*
X173627008Y-86567500D01*
X173628559Y-86577293D01*
X173639291Y-86645050D01*
X173646854Y-86692804D01*
X173704450Y-86805842D01*
X173794158Y-86895550D01*
X173907196Y-86953146D01*
X173916985Y-86954696D01*
X173916987Y-86954697D01*
X174022707Y-86971441D01*
X174032500Y-86972992D01*
X174042293Y-86971441D01*
X174148013Y-86954697D01*
X174148015Y-86954696D01*
X174157804Y-86953146D01*
X174270842Y-86895550D01*
X174360550Y-86805842D01*
X174418146Y-86692804D01*
X174425710Y-86645050D01*
X174436441Y-86577293D01*
X174437992Y-86567500D01*
X174425107Y-86486145D01*
X174419697Y-86451987D01*
X174419696Y-86451985D01*
X174418146Y-86442196D01*
X174360550Y-86329158D01*
X174270842Y-86239450D01*
X174157804Y-86181854D01*
X174148015Y-86180304D01*
X174148013Y-86180303D01*
X174042293Y-86163559D01*
X174032500Y-86162008D01*
X174022707Y-86163559D01*
X173916987Y-86180303D01*
X173916985Y-86180304D01*
X173907196Y-86181854D01*
X173794158Y-86239450D01*
X173704450Y-86329158D01*
X173646854Y-86442196D01*
X173645304Y-86451985D01*
X173645303Y-86451987D01*
X173639893Y-86486145D01*
X173627008Y-86567500D01*
X158039749Y-86567500D01*
X158038543Y-86567309D01*
X158028750Y-86565758D01*
X158018957Y-86567309D01*
X157913237Y-86584053D01*
X157913235Y-86584054D01*
X157903446Y-86585604D01*
X157790408Y-86643200D01*
X157700700Y-86732908D01*
X157643104Y-86845946D01*
X157641554Y-86855735D01*
X157641553Y-86855737D01*
X157634535Y-86900050D01*
X157623258Y-86971250D01*
X142419407Y-86971250D01*
X143653157Y-85737500D01*
X150057008Y-85737500D01*
X150058559Y-85747293D01*
X150069499Y-85816363D01*
X150076854Y-85862804D01*
X150134450Y-85975842D01*
X150224158Y-86065550D01*
X150337196Y-86123146D01*
X150346985Y-86124696D01*
X150346987Y-86124697D01*
X150452707Y-86141441D01*
X150462500Y-86142992D01*
X150472293Y-86141441D01*
X150578013Y-86124697D01*
X150578015Y-86124696D01*
X150587804Y-86123146D01*
X150700842Y-86065550D01*
X150790550Y-85975842D01*
X150848146Y-85862804D01*
X150852154Y-85837500D01*
X154657008Y-85837500D01*
X154658559Y-85847293D01*
X154668730Y-85911508D01*
X154676854Y-85962804D01*
X154734450Y-86075842D01*
X154824158Y-86165550D01*
X154937196Y-86223146D01*
X154946985Y-86224696D01*
X154946987Y-86224697D01*
X155052707Y-86241441D01*
X155062500Y-86242992D01*
X155072293Y-86241441D01*
X155178013Y-86224697D01*
X155178015Y-86224696D01*
X155187804Y-86223146D01*
X155300842Y-86165550D01*
X155328892Y-86137500D01*
X166057008Y-86137500D01*
X166058559Y-86147293D01*
X166074266Y-86246461D01*
X166076854Y-86262804D01*
X166134450Y-86375842D01*
X166224158Y-86465550D01*
X166337196Y-86523146D01*
X166346985Y-86524696D01*
X166346987Y-86524697D01*
X166452707Y-86541441D01*
X166462500Y-86542992D01*
X166472293Y-86541441D01*
X166578013Y-86524697D01*
X166578015Y-86524696D01*
X166587804Y-86523146D01*
X166700842Y-86465550D01*
X166790550Y-86375842D01*
X166848146Y-86262804D01*
X166850735Y-86246461D01*
X166866441Y-86147293D01*
X166867992Y-86137500D01*
X166862845Y-86105000D01*
X167989508Y-86105000D01*
X167991059Y-86114793D01*
X168002055Y-86184217D01*
X168009354Y-86230304D01*
X168066950Y-86343342D01*
X168156658Y-86433050D01*
X168269696Y-86490646D01*
X168279485Y-86492196D01*
X168279487Y-86492197D01*
X168385207Y-86508941D01*
X168395000Y-86510492D01*
X168404793Y-86508941D01*
X168510513Y-86492197D01*
X168510515Y-86492196D01*
X168520304Y-86490646D01*
X168633342Y-86433050D01*
X168723050Y-86343342D01*
X168780646Y-86230304D01*
X168787946Y-86184217D01*
X168798941Y-86114793D01*
X168800492Y-86105000D01*
X168795795Y-86075342D01*
X168783862Y-86000000D01*
X175094508Y-86000000D01*
X175096059Y-86009793D01*
X175105856Y-86071647D01*
X175114354Y-86125304D01*
X175171950Y-86238342D01*
X175261658Y-86328050D01*
X175374696Y-86385646D01*
X175384485Y-86387196D01*
X175384487Y-86387197D01*
X175490207Y-86403941D01*
X175500000Y-86405492D01*
X175509793Y-86403941D01*
X175615513Y-86387197D01*
X175615515Y-86387196D01*
X175625304Y-86385646D01*
X175738342Y-86328050D01*
X175828050Y-86238342D01*
X175885646Y-86125304D01*
X175894145Y-86071647D01*
X175903941Y-86009793D01*
X175905492Y-86000000D01*
X175902276Y-85979696D01*
X175887197Y-85884487D01*
X175887196Y-85884485D01*
X175885646Y-85874696D01*
X175828050Y-85761658D01*
X175738342Y-85671950D01*
X175625304Y-85614354D01*
X175615515Y-85612804D01*
X175615513Y-85612803D01*
X175509793Y-85596059D01*
X175500000Y-85594508D01*
X175490207Y-85596059D01*
X175384487Y-85612803D01*
X175384485Y-85612804D01*
X175374696Y-85614354D01*
X175261658Y-85671950D01*
X175171950Y-85761658D01*
X175114354Y-85874696D01*
X175112804Y-85884485D01*
X175112803Y-85884487D01*
X175097724Y-85979696D01*
X175094508Y-86000000D01*
X168783862Y-86000000D01*
X168782197Y-85989487D01*
X168782196Y-85989485D01*
X168780646Y-85979696D01*
X168723050Y-85866658D01*
X168633342Y-85776950D01*
X168520304Y-85719354D01*
X168510515Y-85717804D01*
X168510513Y-85717803D01*
X168404793Y-85701059D01*
X168395000Y-85699508D01*
X168385207Y-85701059D01*
X168279487Y-85717803D01*
X168279485Y-85717804D01*
X168269696Y-85719354D01*
X168156658Y-85776950D01*
X168066950Y-85866658D01*
X168009354Y-85979696D01*
X168007804Y-85989485D01*
X168007803Y-85989487D01*
X167994205Y-86075342D01*
X167989508Y-86105000D01*
X166862845Y-86105000D01*
X166861294Y-86095207D01*
X166849697Y-86021987D01*
X166849696Y-86021985D01*
X166848146Y-86012196D01*
X166790550Y-85899158D01*
X166700842Y-85809450D01*
X166587804Y-85751854D01*
X166578015Y-85750304D01*
X166578013Y-85750303D01*
X166472293Y-85733559D01*
X166462500Y-85732008D01*
X166452707Y-85733559D01*
X166346987Y-85750303D01*
X166346985Y-85750304D01*
X166337196Y-85751854D01*
X166224158Y-85809450D01*
X166134450Y-85899158D01*
X166076854Y-86012196D01*
X166075304Y-86021985D01*
X166075303Y-86021987D01*
X166063706Y-86095207D01*
X166057008Y-86137500D01*
X155328892Y-86137500D01*
X155390550Y-86075842D01*
X155448146Y-85962804D01*
X155456271Y-85911508D01*
X155466441Y-85847293D01*
X155467992Y-85837500D01*
X155455980Y-85761658D01*
X155449697Y-85721987D01*
X155449696Y-85721985D01*
X155448146Y-85712196D01*
X155403958Y-85625472D01*
X155758088Y-85625472D01*
X155759639Y-85635265D01*
X155772712Y-85717803D01*
X155777934Y-85750776D01*
X155835530Y-85863814D01*
X155925238Y-85953522D01*
X156038276Y-86011118D01*
X156048065Y-86012668D01*
X156048067Y-86012669D01*
X156153787Y-86029413D01*
X156163580Y-86030964D01*
X156173373Y-86029413D01*
X156279093Y-86012669D01*
X156279095Y-86012668D01*
X156288884Y-86011118D01*
X156401922Y-85953522D01*
X156491630Y-85863814D01*
X156549226Y-85750776D01*
X156554449Y-85717803D01*
X156567521Y-85635265D01*
X156569072Y-85625472D01*
X156564825Y-85598658D01*
X156550777Y-85509959D01*
X156550776Y-85509957D01*
X156549226Y-85500168D01*
X156491630Y-85387130D01*
X156401922Y-85297422D01*
X156288884Y-85239826D01*
X156279095Y-85238276D01*
X156279093Y-85238275D01*
X156173373Y-85221531D01*
X156163580Y-85219980D01*
X156153787Y-85221531D01*
X156048067Y-85238275D01*
X156048065Y-85238276D01*
X156038276Y-85239826D01*
X155925238Y-85297422D01*
X155835530Y-85387130D01*
X155777934Y-85500168D01*
X155776384Y-85509957D01*
X155776383Y-85509959D01*
X155762335Y-85598658D01*
X155758088Y-85625472D01*
X155403958Y-85625472D01*
X155390550Y-85599158D01*
X155300842Y-85509450D01*
X155187804Y-85451854D01*
X155178015Y-85450304D01*
X155178013Y-85450303D01*
X155072293Y-85433559D01*
X155062500Y-85432008D01*
X155052707Y-85433559D01*
X154946987Y-85450303D01*
X154946985Y-85450304D01*
X154937196Y-85451854D01*
X154824158Y-85509450D01*
X154734450Y-85599158D01*
X154676854Y-85712196D01*
X154675304Y-85721985D01*
X154675303Y-85721987D01*
X154669020Y-85761658D01*
X154657008Y-85837500D01*
X150852154Y-85837500D01*
X150855502Y-85816363D01*
X150866441Y-85747293D01*
X150867992Y-85737500D01*
X150861975Y-85699508D01*
X150849697Y-85621987D01*
X150849696Y-85621985D01*
X150848146Y-85612196D01*
X150790550Y-85499158D01*
X150700842Y-85409450D01*
X150587804Y-85351854D01*
X150578015Y-85350304D01*
X150578013Y-85350303D01*
X150472293Y-85333559D01*
X150462500Y-85332008D01*
X150452707Y-85333559D01*
X150346987Y-85350303D01*
X150346985Y-85350304D01*
X150337196Y-85351854D01*
X150224158Y-85409450D01*
X150134450Y-85499158D01*
X150076854Y-85612196D01*
X150075304Y-85621985D01*
X150075303Y-85621987D01*
X150063025Y-85699508D01*
X150057008Y-85737500D01*
X143653157Y-85737500D01*
X143982909Y-85407748D01*
X144045221Y-85373722D01*
X144072004Y-85370843D01*
X146742977Y-85370843D01*
X146745650Y-85371039D01*
X146750685Y-85372768D01*
X146762307Y-85372332D01*
X146762309Y-85372332D01*
X146799598Y-85370932D01*
X146804324Y-85370843D01*
X146823291Y-85370843D01*
X146828026Y-85369961D01*
X146831552Y-85369733D01*
X146835292Y-85369592D01*
X146862551Y-85368569D01*
X146873236Y-85363979D01*
X146877836Y-85362942D01*
X146889557Y-85359381D01*
X146893960Y-85357682D01*
X146905396Y-85355552D01*
X146926384Y-85342615D01*
X146942754Y-85334112D01*
X146957231Y-85327892D01*
X146957235Y-85327890D01*
X146965406Y-85324379D01*
X146970292Y-85320365D01*
X146972477Y-85318180D01*
X146974740Y-85316128D01*
X146974885Y-85316288D01*
X146983892Y-85309168D01*
X146990787Y-85302916D01*
X147000691Y-85296811D01*
X147017259Y-85275023D01*
X147028453Y-85262204D01*
X147146907Y-85143750D01*
X148463258Y-85143750D01*
X148464809Y-85153543D01*
X148481509Y-85258982D01*
X148483104Y-85269054D01*
X148540700Y-85382092D01*
X148630408Y-85471800D01*
X148743446Y-85529396D01*
X148753235Y-85530946D01*
X148753237Y-85530947D01*
X148858957Y-85547691D01*
X148868750Y-85549242D01*
X148878543Y-85547691D01*
X148984263Y-85530947D01*
X148984265Y-85530946D01*
X148994054Y-85529396D01*
X149107092Y-85471800D01*
X149196800Y-85382092D01*
X149254396Y-85269054D01*
X149255992Y-85258982D01*
X149272691Y-85153543D01*
X149274242Y-85143750D01*
X149265318Y-85087405D01*
X149255947Y-85028237D01*
X149255946Y-85028235D01*
X149254396Y-85018446D01*
X149196800Y-84905408D01*
X149107092Y-84815700D01*
X148994054Y-84758104D01*
X148984265Y-84756554D01*
X148984263Y-84756553D01*
X148878543Y-84739809D01*
X148868750Y-84738258D01*
X148858957Y-84739809D01*
X148753237Y-84756553D01*
X148753235Y-84756554D01*
X148743446Y-84758104D01*
X148630408Y-84815700D01*
X148540700Y-84905408D01*
X148483104Y-85018446D01*
X148481554Y-85028235D01*
X148481553Y-85028237D01*
X148472182Y-85087405D01*
X148463258Y-85143750D01*
X147146907Y-85143750D01*
X148515752Y-83774905D01*
X148578064Y-83740879D01*
X148604847Y-83738000D01*
X153792944Y-83738000D01*
X153861065Y-83758002D01*
X153882039Y-83774904D01*
X154150491Y-84043355D01*
X154332404Y-84225268D01*
X154366429Y-84287581D01*
X154361365Y-84358396D01*
X154323258Y-84408550D01*
X154324158Y-84409450D01*
X154234450Y-84499158D01*
X154176854Y-84612196D01*
X154175304Y-84621985D01*
X154175303Y-84621987D01*
X154160777Y-84713705D01*
X154157008Y-84737500D01*
X154158559Y-84747293D01*
X154175095Y-84851696D01*
X154176854Y-84862804D01*
X154234450Y-84975842D01*
X154324158Y-85065550D01*
X154437196Y-85123146D01*
X154446985Y-85124696D01*
X154446987Y-85124697D01*
X154552707Y-85141441D01*
X154562500Y-85142992D01*
X154572293Y-85141441D01*
X154678013Y-85124697D01*
X154678015Y-85124696D01*
X154687804Y-85123146D01*
X154800842Y-85065550D01*
X154890550Y-84975842D01*
X154948146Y-84862804D01*
X154951078Y-84844292D01*
X154981488Y-84780139D01*
X155041756Y-84742610D01*
X155075527Y-84738000D01*
X156639477Y-84738000D01*
X156707598Y-84758002D01*
X156754091Y-84811658D01*
X156760153Y-84831771D01*
X156760362Y-84831703D01*
X156763427Y-84841136D01*
X156764978Y-84850928D01*
X156822574Y-84963966D01*
X156912282Y-85053674D01*
X157025320Y-85111270D01*
X157035109Y-85112820D01*
X157035111Y-85112821D01*
X157140831Y-85129565D01*
X157150624Y-85131116D01*
X157160417Y-85129565D01*
X157266137Y-85112821D01*
X157266139Y-85112820D01*
X157275928Y-85111270D01*
X157388966Y-85053674D01*
X157478674Y-84963966D01*
X157536270Y-84850928D01*
X157544470Y-84799158D01*
X157554565Y-84735417D01*
X157556116Y-84725624D01*
X157554228Y-84713705D01*
X157547597Y-84671834D01*
X157556697Y-84601423D01*
X157602419Y-84547109D01*
X157672046Y-84526124D01*
X158841856Y-84526124D01*
X158909977Y-84546126D01*
X158930951Y-84563029D01*
X159293374Y-84925452D01*
X159295130Y-84927486D01*
X159297468Y-84932269D01*
X159305997Y-84940181D01*
X159305998Y-84940182D01*
X159333370Y-84965573D01*
X159336775Y-84968853D01*
X159342916Y-84974994D01*
X159376942Y-85037306D01*
X159371877Y-85108121D01*
X159369933Y-85112543D01*
X159368854Y-85115865D01*
X159364354Y-85124696D01*
X159362804Y-85134485D01*
X159362803Y-85134487D01*
X159351733Y-85204384D01*
X159344508Y-85250000D01*
X159346059Y-85259793D01*
X159361699Y-85358539D01*
X159364354Y-85375304D01*
X159421950Y-85488342D01*
X159511658Y-85578050D01*
X159624696Y-85635646D01*
X159634485Y-85637196D01*
X159634487Y-85637197D01*
X159740207Y-85653941D01*
X159750000Y-85655492D01*
X159759793Y-85653941D01*
X159865513Y-85637197D01*
X159865515Y-85637196D01*
X159875304Y-85635646D01*
X159988342Y-85578050D01*
X159998630Y-85567762D01*
X178932020Y-85567762D01*
X178932536Y-85573906D01*
X178947349Y-85750303D01*
X178949259Y-85773053D01*
X178950958Y-85778978D01*
X179003526Y-85962304D01*
X179006044Y-85971086D01*
X179008859Y-85976563D01*
X179008860Y-85976566D01*
X179097397Y-86148841D01*
X179100212Y-86154318D01*
X179228177Y-86315770D01*
X179232870Y-86319764D01*
X179232871Y-86319765D01*
X179366349Y-86433363D01*
X179385064Y-86449291D01*
X179564898Y-86549797D01*
X179649522Y-86577293D01*
X179754971Y-86611556D01*
X179754975Y-86611557D01*
X179760829Y-86613459D01*
X179965394Y-86637851D01*
X179971529Y-86637379D01*
X179971531Y-86637379D01*
X180032026Y-86632724D01*
X180170800Y-86622046D01*
X180176730Y-86620390D01*
X180176732Y-86620390D01*
X180363297Y-86568300D01*
X180363296Y-86568300D01*
X180369225Y-86566645D01*
X180374714Y-86563872D01*
X180374720Y-86563870D01*
X180547616Y-86476533D01*
X180553110Y-86473758D01*
X180599455Y-86437550D01*
X180689743Y-86367009D01*
X180715451Y-86346924D01*
X180722055Y-86339274D01*
X180846040Y-86195634D01*
X180846040Y-86195633D01*
X180850064Y-86190972D01*
X180853902Y-86184217D01*
X180889300Y-86121905D01*
X180951823Y-86011844D01*
X181016851Y-85816363D01*
X181042671Y-85611974D01*
X181043083Y-85582500D01*
X181022980Y-85377470D01*
X181020980Y-85370843D01*
X180987206Y-85258982D01*
X180963435Y-85180249D01*
X180866718Y-84998349D01*
X180751868Y-84857529D01*
X180740406Y-84843475D01*
X180740403Y-84843472D01*
X180736511Y-84838700D01*
X180729673Y-84833043D01*
X180582525Y-84711311D01*
X180582521Y-84711309D01*
X180577775Y-84707382D01*
X180396555Y-84609397D01*
X180199754Y-84548477D01*
X180193629Y-84547833D01*
X180193628Y-84547833D01*
X180000998Y-84527587D01*
X180000996Y-84527587D01*
X179994869Y-84526943D01*
X179908029Y-84534846D01*
X179795842Y-84545055D01*
X179795839Y-84545056D01*
X179789703Y-84545614D01*
X179592072Y-84603780D01*
X179586607Y-84606637D01*
X179548674Y-84626468D01*
X179409502Y-84699226D01*
X179404701Y-84703086D01*
X179404698Y-84703088D01*
X179255917Y-84822711D01*
X179248947Y-84828315D01*
X179116524Y-84986130D01*
X179113556Y-84991528D01*
X179113553Y-84991533D01*
X179035256Y-85133957D01*
X179017276Y-85166662D01*
X178954984Y-85363032D01*
X178954298Y-85369149D01*
X178954297Y-85369153D01*
X178937830Y-85515961D01*
X178932020Y-85567762D01*
X159998630Y-85567762D01*
X160078050Y-85488342D01*
X160135646Y-85375304D01*
X160138302Y-85358539D01*
X160153941Y-85259793D01*
X160155492Y-85250000D01*
X160152541Y-85231368D01*
X160146973Y-85196210D01*
X160156073Y-85125799D01*
X160201795Y-85071485D01*
X160271422Y-85050500D01*
X161166231Y-85050500D01*
X161234352Y-85070502D01*
X161255326Y-85087404D01*
X161309362Y-85141441D01*
X161357586Y-85189665D01*
X161359335Y-85191691D01*
X161361673Y-85196474D01*
X161397588Y-85229790D01*
X161400967Y-85233046D01*
X161414374Y-85246453D01*
X161418353Y-85249183D01*
X161420982Y-85251491D01*
X161443744Y-85272606D01*
X161454551Y-85276917D01*
X161458546Y-85279443D01*
X161469340Y-85285206D01*
X161473652Y-85287117D01*
X161483244Y-85293697D01*
X161494561Y-85296383D01*
X161494562Y-85296383D01*
X161507225Y-85299388D01*
X161524822Y-85304953D01*
X161539460Y-85310793D01*
X161539463Y-85310794D01*
X161547720Y-85314088D01*
X161554013Y-85314705D01*
X161557092Y-85314705D01*
X161560165Y-85314855D01*
X161560154Y-85315071D01*
X161571529Y-85316403D01*
X161580844Y-85316859D01*
X161592164Y-85319545D01*
X161603693Y-85317976D01*
X161603694Y-85317976D01*
X161619271Y-85315856D01*
X161636262Y-85314705D01*
X162742782Y-85314705D01*
X162810109Y-85334201D01*
X162812281Y-85335574D01*
X162820808Y-85343484D01*
X162831612Y-85347795D01*
X162835599Y-85350315D01*
X162846409Y-85356087D01*
X162850714Y-85357994D01*
X162860308Y-85364576D01*
X162883375Y-85370050D01*
X162884298Y-85370269D01*
X162901894Y-85375834D01*
X162924784Y-85384966D01*
X162931077Y-85385583D01*
X162934159Y-85385583D01*
X162937229Y-85385733D01*
X162937218Y-85385949D01*
X162948593Y-85387281D01*
X162957907Y-85387736D01*
X162969228Y-85390423D01*
X162980757Y-85388854D01*
X162980758Y-85388854D01*
X162996335Y-85386734D01*
X163013326Y-85385583D01*
X164662551Y-85385583D01*
X164665224Y-85385779D01*
X164670259Y-85387508D01*
X164681881Y-85387072D01*
X164681883Y-85387072D01*
X164719172Y-85385672D01*
X164723898Y-85385583D01*
X164742865Y-85385583D01*
X164747600Y-85384701D01*
X164751126Y-85384473D01*
X164754866Y-85384332D01*
X164782125Y-85383309D01*
X164792810Y-85378719D01*
X164797410Y-85377682D01*
X164809131Y-85374121D01*
X164813534Y-85372422D01*
X164824970Y-85370292D01*
X164845958Y-85357355D01*
X164862328Y-85348852D01*
X164876805Y-85342632D01*
X164876809Y-85342630D01*
X164884980Y-85339119D01*
X164889866Y-85335105D01*
X164892051Y-85332920D01*
X164894314Y-85330868D01*
X164894459Y-85331028D01*
X164903466Y-85323908D01*
X164910361Y-85317656D01*
X164920265Y-85311551D01*
X164936833Y-85289763D01*
X164948027Y-85276944D01*
X165456695Y-84768276D01*
X165519007Y-84734250D01*
X165526079Y-84732922D01*
X165578012Y-84724697D01*
X165578013Y-84724697D01*
X165587804Y-84723146D01*
X165602163Y-84715830D01*
X165632249Y-84700500D01*
X165700842Y-84665550D01*
X165790550Y-84575842D01*
X165848146Y-84462804D01*
X165852021Y-84438342D01*
X165866441Y-84347293D01*
X165867992Y-84337500D01*
X165864155Y-84313276D01*
X165849697Y-84221987D01*
X165849696Y-84221985D01*
X165848146Y-84212196D01*
X165843646Y-84203364D01*
X165841196Y-84195824D01*
X165839169Y-84124856D01*
X165875831Y-84064058D01*
X165939544Y-84032733D01*
X165961029Y-84030888D01*
X166178727Y-84030888D01*
X166246848Y-84050890D01*
X166267822Y-84067793D01*
X167231724Y-85031695D01*
X167265750Y-85094007D01*
X167267078Y-85101079D01*
X167273471Y-85141441D01*
X167276854Y-85162804D01*
X167334450Y-85275842D01*
X167424158Y-85365550D01*
X167537196Y-85423146D01*
X167546985Y-85424696D01*
X167546987Y-85424697D01*
X167652707Y-85441441D01*
X167662500Y-85442992D01*
X167672293Y-85441441D01*
X167778013Y-85424697D01*
X167778015Y-85424696D01*
X167787804Y-85423146D01*
X167900842Y-85365550D01*
X167990550Y-85275842D01*
X167995051Y-85267009D01*
X168000883Y-85258982D01*
X168002585Y-85260219D01*
X168042485Y-85217971D01*
X168111400Y-85200904D01*
X168178601Y-85223804D01*
X168210238Y-85260313D01*
X168211382Y-85259482D01*
X168217214Y-85267509D01*
X168221715Y-85276342D01*
X168311423Y-85366050D01*
X168424461Y-85423646D01*
X168434250Y-85425196D01*
X168434252Y-85425197D01*
X168539972Y-85441941D01*
X168549765Y-85443492D01*
X168559558Y-85441941D01*
X168665278Y-85425197D01*
X168665280Y-85425196D01*
X168675069Y-85423646D01*
X168788107Y-85366050D01*
X168877815Y-85276342D01*
X168935411Y-85163304D01*
X168941772Y-85123146D01*
X168953706Y-85047793D01*
X168955257Y-85038000D01*
X168948221Y-84993573D01*
X168936962Y-84922487D01*
X168936961Y-84922485D01*
X168935411Y-84912696D01*
X168877815Y-84799658D01*
X168788107Y-84709950D01*
X168675069Y-84652354D01*
X168665280Y-84650804D01*
X168665278Y-84650803D01*
X168559558Y-84634059D01*
X168549765Y-84632508D01*
X168539972Y-84634059D01*
X168434252Y-84650803D01*
X168434250Y-84650804D01*
X168424461Y-84652354D01*
X168311423Y-84709950D01*
X168221715Y-84799658D01*
X168217215Y-84808490D01*
X168211382Y-84816518D01*
X168209680Y-84815281D01*
X168169780Y-84857529D01*
X168100865Y-84874596D01*
X168033664Y-84851696D01*
X168002027Y-84815187D01*
X168000883Y-84816018D01*
X167995050Y-84807990D01*
X167990550Y-84799158D01*
X167900842Y-84709450D01*
X167787804Y-84651854D01*
X167778013Y-84650303D01*
X167778012Y-84650303D01*
X167726079Y-84642078D01*
X167661926Y-84611666D01*
X167656695Y-84606724D01*
X167578021Y-84528050D01*
X167543995Y-84465738D01*
X167549060Y-84394923D01*
X167591607Y-84338087D01*
X167658127Y-84313276D01*
X167686826Y-84314506D01*
X167750779Y-84324635D01*
X167750780Y-84324635D01*
X167760573Y-84326186D01*
X167770366Y-84324635D01*
X167876086Y-84307891D01*
X167876088Y-84307890D01*
X167885877Y-84306340D01*
X167998915Y-84248744D01*
X168088623Y-84159036D01*
X168146219Y-84045998D01*
X168147828Y-84035843D01*
X168164514Y-83930487D01*
X168166065Y-83920694D01*
X168161654Y-83892842D01*
X168152889Y-83837500D01*
X173557008Y-83837500D01*
X173558559Y-83847293D01*
X173575111Y-83951797D01*
X173576854Y-83962804D01*
X173634450Y-84075842D01*
X173724158Y-84165550D01*
X173837196Y-84223146D01*
X173846985Y-84224696D01*
X173846987Y-84224697D01*
X173952707Y-84241441D01*
X173962500Y-84242992D01*
X173972293Y-84241441D01*
X174078013Y-84224697D01*
X174078015Y-84224696D01*
X174087804Y-84223146D01*
X174200842Y-84165550D01*
X174290550Y-84075842D01*
X174348146Y-83962804D01*
X174349890Y-83951797D01*
X174366441Y-83847293D01*
X174367992Y-83837500D01*
X174362412Y-83802266D01*
X174349697Y-83721987D01*
X174349696Y-83721985D01*
X174348146Y-83712196D01*
X174290550Y-83599158D01*
X174200842Y-83509450D01*
X174087804Y-83451854D01*
X174078015Y-83450304D01*
X174078013Y-83450303D01*
X173972293Y-83433559D01*
X173962500Y-83432008D01*
X173952707Y-83433559D01*
X173846987Y-83450303D01*
X173846985Y-83450304D01*
X173837196Y-83451854D01*
X173724158Y-83509450D01*
X173634450Y-83599158D01*
X173576854Y-83712196D01*
X173575304Y-83721985D01*
X173575303Y-83721987D01*
X173562588Y-83802266D01*
X173557008Y-83837500D01*
X168152889Y-83837500D01*
X168147770Y-83805181D01*
X168147769Y-83805179D01*
X168146219Y-83795390D01*
X168088623Y-83682352D01*
X167998915Y-83592644D01*
X167885877Y-83535048D01*
X167876088Y-83533498D01*
X167876086Y-83533497D01*
X167770366Y-83516753D01*
X167760573Y-83515202D01*
X167750780Y-83516753D01*
X167645060Y-83533497D01*
X167645058Y-83533498D01*
X167635269Y-83535048D01*
X167522231Y-83592644D01*
X167432523Y-83682352D01*
X167374927Y-83795390D01*
X167373377Y-83805179D01*
X167373376Y-83805181D01*
X167359492Y-83892842D01*
X167355081Y-83920694D01*
X167356632Y-83930487D01*
X167356632Y-83930488D01*
X167366761Y-83994441D01*
X167357661Y-84064852D01*
X167311939Y-84119166D01*
X167244111Y-84140138D01*
X167175711Y-84121111D01*
X167153217Y-84103246D01*
X166604907Y-83554936D01*
X166603151Y-83552902D01*
X166600813Y-83548119D01*
X166591575Y-83539549D01*
X166564911Y-83514815D01*
X166561506Y-83511535D01*
X166548111Y-83498140D01*
X166544141Y-83495416D01*
X166541493Y-83493091D01*
X166527269Y-83479896D01*
X166527266Y-83479894D01*
X166518742Y-83471987D01*
X166507938Y-83467677D01*
X166503949Y-83465155D01*
X166493161Y-83459394D01*
X166488836Y-83457477D01*
X166479242Y-83450896D01*
X166467923Y-83448210D01*
X166467921Y-83448209D01*
X166455261Y-83445205D01*
X166437664Y-83439640D01*
X166423026Y-83433800D01*
X166423023Y-83433799D01*
X166414766Y-83430505D01*
X166408473Y-83429888D01*
X166405394Y-83429888D01*
X166402321Y-83429738D01*
X166402332Y-83429522D01*
X166390957Y-83428190D01*
X166381642Y-83427734D01*
X166370322Y-83425048D01*
X166358793Y-83426617D01*
X166358792Y-83426617D01*
X166343215Y-83428737D01*
X166326224Y-83429888D01*
X165529941Y-83429888D01*
X165461820Y-83409886D01*
X165415327Y-83356230D01*
X165404482Y-83306376D01*
X165405492Y-83300000D01*
X165400753Y-83270081D01*
X165387197Y-83184487D01*
X165387196Y-83184485D01*
X165385646Y-83174696D01*
X165328050Y-83061658D01*
X165248824Y-82982432D01*
X171399008Y-82982432D01*
X171400559Y-82992225D01*
X171416090Y-83090283D01*
X171418854Y-83107736D01*
X171476450Y-83220774D01*
X171566158Y-83310482D01*
X171679196Y-83368078D01*
X171688985Y-83369628D01*
X171688987Y-83369629D01*
X171794707Y-83386373D01*
X171804500Y-83387924D01*
X171814293Y-83386373D01*
X171920013Y-83369629D01*
X171920015Y-83369628D01*
X171929804Y-83368078D01*
X172042842Y-83310482D01*
X172132550Y-83220774D01*
X172190146Y-83107736D01*
X172192911Y-83090283D01*
X172202813Y-83027762D01*
X178932020Y-83027762D01*
X178932536Y-83033906D01*
X178945044Y-83182853D01*
X178949259Y-83233053D01*
X178950958Y-83238978D01*
X179004313Y-83425048D01*
X179006044Y-83431086D01*
X179008859Y-83436563D01*
X179008860Y-83436566D01*
X179096327Y-83606759D01*
X179100212Y-83614318D01*
X179228177Y-83775770D01*
X179232870Y-83779764D01*
X179232871Y-83779765D01*
X179379395Y-83904466D01*
X179385064Y-83909291D01*
X179390442Y-83912297D01*
X179390444Y-83912298D01*
X179453060Y-83947293D01*
X179564898Y-84009797D01*
X179659738Y-84040613D01*
X179754971Y-84071556D01*
X179754975Y-84071557D01*
X179760829Y-84073459D01*
X179965394Y-84097851D01*
X179971529Y-84097379D01*
X179971531Y-84097379D01*
X180027539Y-84093069D01*
X180170800Y-84082046D01*
X180176730Y-84080390D01*
X180176732Y-84080390D01*
X180329906Y-84037623D01*
X180369225Y-84026645D01*
X180374714Y-84023872D01*
X180374720Y-84023870D01*
X180507452Y-83956822D01*
X180553110Y-83933758D01*
X180560300Y-83928141D01*
X180710601Y-83810713D01*
X180715451Y-83806924D01*
X180733032Y-83786557D01*
X180846040Y-83655634D01*
X180846040Y-83655633D01*
X180850064Y-83650972D01*
X180870887Y-83614318D01*
X180904791Y-83554635D01*
X180951823Y-83471844D01*
X181016851Y-83276363D01*
X181042671Y-83071974D01*
X181042936Y-83053013D01*
X181043034Y-83046022D01*
X181043034Y-83046018D01*
X181043083Y-83042500D01*
X181041638Y-83027762D01*
X181472020Y-83027762D01*
X181472536Y-83033906D01*
X181485044Y-83182853D01*
X181489259Y-83233053D01*
X181490958Y-83238978D01*
X181544313Y-83425048D01*
X181546044Y-83431086D01*
X181548859Y-83436563D01*
X181548860Y-83436566D01*
X181636327Y-83606759D01*
X181640212Y-83614318D01*
X181768177Y-83775770D01*
X181772870Y-83779764D01*
X181772871Y-83779765D01*
X181919395Y-83904466D01*
X181925064Y-83909291D01*
X181930442Y-83912297D01*
X181930444Y-83912298D01*
X181993060Y-83947293D01*
X182104898Y-84009797D01*
X182199738Y-84040613D01*
X182294971Y-84071556D01*
X182294975Y-84071557D01*
X182300829Y-84073459D01*
X182505394Y-84097851D01*
X182511529Y-84097379D01*
X182511531Y-84097379D01*
X182567539Y-84093069D01*
X182710800Y-84082046D01*
X182716730Y-84080390D01*
X182716732Y-84080390D01*
X182869906Y-84037623D01*
X182909225Y-84026645D01*
X182914714Y-84023872D01*
X182914720Y-84023870D01*
X183047452Y-83956822D01*
X183093110Y-83933758D01*
X183100300Y-83928141D01*
X183250601Y-83810713D01*
X183255451Y-83806924D01*
X183273032Y-83786557D01*
X183386040Y-83655634D01*
X183386040Y-83655633D01*
X183390064Y-83650972D01*
X183410887Y-83614318D01*
X183444791Y-83554635D01*
X183491823Y-83471844D01*
X183556851Y-83276363D01*
X183582671Y-83071974D01*
X183582936Y-83053013D01*
X183583034Y-83046022D01*
X183583034Y-83046018D01*
X183583083Y-83042500D01*
X183562980Y-82837470D01*
X183503435Y-82640249D01*
X183406718Y-82458349D01*
X183332223Y-82367009D01*
X183280406Y-82303475D01*
X183280403Y-82303472D01*
X183276511Y-82298700D01*
X183259286Y-82284450D01*
X183122525Y-82171311D01*
X183122521Y-82171309D01*
X183117775Y-82167382D01*
X182936555Y-82069397D01*
X182739754Y-82008477D01*
X182733629Y-82007833D01*
X182733628Y-82007833D01*
X182540998Y-81987587D01*
X182540996Y-81987587D01*
X182534869Y-81986943D01*
X182451115Y-81994565D01*
X182335842Y-82005055D01*
X182335839Y-82005056D01*
X182329703Y-82005614D01*
X182132072Y-82063780D01*
X181949502Y-82159226D01*
X181944701Y-82163086D01*
X181944698Y-82163088D01*
X181910244Y-82190790D01*
X181788947Y-82288315D01*
X181656524Y-82446130D01*
X181653556Y-82451528D01*
X181653553Y-82451533D01*
X181598402Y-82551854D01*
X181557276Y-82626662D01*
X181494984Y-82823032D01*
X181494298Y-82829149D01*
X181494297Y-82829153D01*
X181476874Y-82984487D01*
X181472020Y-83027762D01*
X181041638Y-83027762D01*
X181022980Y-82837470D01*
X180963435Y-82640249D01*
X180866718Y-82458349D01*
X180792223Y-82367009D01*
X180740406Y-82303475D01*
X180740403Y-82303472D01*
X180736511Y-82298700D01*
X180719286Y-82284450D01*
X180582525Y-82171311D01*
X180582521Y-82171309D01*
X180577775Y-82167382D01*
X180396555Y-82069397D01*
X180199754Y-82008477D01*
X180193629Y-82007833D01*
X180193628Y-82007833D01*
X180000998Y-81987587D01*
X180000996Y-81987587D01*
X179994869Y-81986943D01*
X179911115Y-81994565D01*
X179795842Y-82005055D01*
X179795839Y-82005056D01*
X179789703Y-82005614D01*
X179592072Y-82063780D01*
X179409502Y-82159226D01*
X179404701Y-82163086D01*
X179404698Y-82163088D01*
X179370244Y-82190790D01*
X179248947Y-82288315D01*
X179116524Y-82446130D01*
X179113556Y-82451528D01*
X179113553Y-82451533D01*
X179058402Y-82551854D01*
X179017276Y-82626662D01*
X178954984Y-82823032D01*
X178954298Y-82829149D01*
X178954297Y-82829153D01*
X178936874Y-82984487D01*
X178932020Y-83027762D01*
X172202813Y-83027762D01*
X172208441Y-82992225D01*
X172209992Y-82982432D01*
X172203676Y-82942552D01*
X172191697Y-82866919D01*
X172191696Y-82866917D01*
X172190146Y-82857128D01*
X172132550Y-82744090D01*
X172042842Y-82654382D01*
X171929804Y-82596786D01*
X171920015Y-82595236D01*
X171920013Y-82595235D01*
X171814293Y-82578491D01*
X171804500Y-82576940D01*
X171794707Y-82578491D01*
X171688987Y-82595235D01*
X171688985Y-82595236D01*
X171679196Y-82596786D01*
X171566158Y-82654382D01*
X171476450Y-82744090D01*
X171418854Y-82857128D01*
X171417304Y-82866917D01*
X171417303Y-82866919D01*
X171405324Y-82942552D01*
X171399008Y-82982432D01*
X165248824Y-82982432D01*
X165238342Y-82971950D01*
X165125304Y-82914354D01*
X165115515Y-82912804D01*
X165115513Y-82912803D01*
X165009793Y-82896059D01*
X165000000Y-82894508D01*
X164990207Y-82896059D01*
X164884487Y-82912803D01*
X164884485Y-82912804D01*
X164874696Y-82914354D01*
X164761658Y-82971950D01*
X164671950Y-83061658D01*
X164614354Y-83174696D01*
X164612804Y-83184485D01*
X164612803Y-83184487D01*
X164599247Y-83270081D01*
X164594508Y-83300000D01*
X164595451Y-83305957D01*
X164576057Y-83372009D01*
X164522401Y-83418502D01*
X164470059Y-83429888D01*
X161999943Y-83429888D01*
X161931822Y-83409886D01*
X161910848Y-83392983D01*
X160655364Y-82137500D01*
X172669508Y-82137500D01*
X172671059Y-82147293D01*
X172684957Y-82235040D01*
X172689354Y-82262804D01*
X172746950Y-82375842D01*
X172836658Y-82465550D01*
X172949696Y-82523146D01*
X172959485Y-82524696D01*
X172959487Y-82524697D01*
X173065207Y-82541441D01*
X173075000Y-82542992D01*
X173084793Y-82541441D01*
X173190513Y-82524697D01*
X173190515Y-82524696D01*
X173200304Y-82523146D01*
X173313342Y-82465550D01*
X173403050Y-82375842D01*
X173460646Y-82262804D01*
X173465044Y-82235040D01*
X173478941Y-82147293D01*
X173480492Y-82137500D01*
X173471678Y-82081847D01*
X173462197Y-82021987D01*
X173462196Y-82021985D01*
X173460646Y-82012196D01*
X173403050Y-81899158D01*
X173313342Y-81809450D01*
X173200304Y-81751854D01*
X173190515Y-81750304D01*
X173190513Y-81750303D01*
X173084793Y-81733559D01*
X173075000Y-81732008D01*
X173065207Y-81733559D01*
X172959487Y-81750303D01*
X172959485Y-81750304D01*
X172949696Y-81751854D01*
X172836658Y-81809450D01*
X172746950Y-81899158D01*
X172689354Y-82012196D01*
X172687804Y-82021985D01*
X172687803Y-82021987D01*
X172678322Y-82081847D01*
X172669508Y-82137500D01*
X160655364Y-82137500D01*
X160622160Y-82104296D01*
X160620404Y-82102262D01*
X160618066Y-82097479D01*
X160582164Y-82064175D01*
X160578759Y-82060895D01*
X160565364Y-82047500D01*
X160561394Y-82044776D01*
X160558746Y-82042451D01*
X160544522Y-82029256D01*
X160544519Y-82029254D01*
X160535995Y-82021347D01*
X160525191Y-82017037D01*
X160521202Y-82014515D01*
X160510414Y-82008754D01*
X160506089Y-82006837D01*
X160496495Y-82000256D01*
X160485176Y-81997570D01*
X160485174Y-81997569D01*
X160472514Y-81994565D01*
X160454917Y-81989000D01*
X160440279Y-81983160D01*
X160440276Y-81983159D01*
X160432019Y-81979865D01*
X160425726Y-81979248D01*
X160422647Y-81979248D01*
X160419574Y-81979098D01*
X160419585Y-81978882D01*
X160408210Y-81977550D01*
X160398895Y-81977094D01*
X160387575Y-81974408D01*
X160376046Y-81975977D01*
X160376045Y-81975977D01*
X160360468Y-81978097D01*
X160343477Y-81979248D01*
X156065517Y-81979248D01*
X156062840Y-81979051D01*
X156057803Y-81977322D01*
X156046182Y-81977758D01*
X156046180Y-81977758D01*
X156008875Y-81979159D01*
X156004148Y-81979248D01*
X155985197Y-81979248D01*
X155980464Y-81980130D01*
X155976937Y-81980358D01*
X155957565Y-81981085D01*
X155957563Y-81981086D01*
X155945937Y-81981522D01*
X155935245Y-81986116D01*
X155930642Y-81987153D01*
X155918932Y-81990710D01*
X155914529Y-81992409D01*
X155903092Y-81994539D01*
X155893191Y-82000642D01*
X155893188Y-82000643D01*
X155882101Y-82007477D01*
X155865730Y-82015981D01*
X155851251Y-82022202D01*
X155851248Y-82022204D01*
X155843083Y-82025712D01*
X155838196Y-82029725D01*
X155836001Y-82031920D01*
X155833731Y-82033978D01*
X155833584Y-82033816D01*
X155824606Y-82040913D01*
X155817699Y-82047177D01*
X155807797Y-82053280D01*
X155791236Y-82075059D01*
X155780041Y-82087880D01*
X155568327Y-82299595D01*
X155506015Y-82333620D01*
X155479231Y-82336500D01*
X154183922Y-82336500D01*
X154115801Y-82316498D01*
X154069308Y-82262842D01*
X154059473Y-82190790D01*
X154066441Y-82146794D01*
X154066441Y-82146793D01*
X154067992Y-82137000D01*
X154056204Y-82062573D01*
X154049697Y-82021487D01*
X154049696Y-82021485D01*
X154048146Y-82011696D01*
X153990550Y-81898658D01*
X153900842Y-81808950D01*
X153787804Y-81751354D01*
X153778015Y-81749804D01*
X153778013Y-81749803D01*
X153672293Y-81733059D01*
X153662500Y-81731508D01*
X153652707Y-81733059D01*
X153546987Y-81749803D01*
X153546985Y-81749804D01*
X153537196Y-81751354D01*
X153424158Y-81808950D01*
X153334450Y-81898658D01*
X153276854Y-82011696D01*
X153275304Y-82021485D01*
X153275303Y-82021487D01*
X153268796Y-82062573D01*
X153257008Y-82137000D01*
X153258559Y-82146793D01*
X153258559Y-82146794D01*
X153265527Y-82190790D01*
X153256427Y-82261201D01*
X153210705Y-82315515D01*
X153141078Y-82336500D01*
X147715366Y-82336500D01*
X147712693Y-82336304D01*
X147707658Y-82334575D01*
X147696036Y-82335011D01*
X147696034Y-82335011D01*
X147658744Y-82336411D01*
X147654018Y-82336500D01*
X147635052Y-82336500D01*
X147630317Y-82337381D01*
X147626790Y-82337610D01*
X147622254Y-82337780D01*
X147595791Y-82338774D01*
X147585104Y-82343366D01*
X147580492Y-82344405D01*
X147568800Y-82347957D01*
X147564383Y-82349661D01*
X147552947Y-82351791D01*
X147531961Y-82364727D01*
X147515589Y-82373231D01*
X147501112Y-82379451D01*
X147501108Y-82379453D01*
X147492937Y-82382964D01*
X147488051Y-82386978D01*
X147485866Y-82389163D01*
X147483603Y-82391215D01*
X147483458Y-82391055D01*
X147474451Y-82398175D01*
X147467556Y-82404427D01*
X147457652Y-82410532D01*
X147441084Y-82432320D01*
X147429890Y-82445139D01*
X146407777Y-83467252D01*
X146345465Y-83501278D01*
X146318682Y-83504157D01*
X144082023Y-83504157D01*
X144079350Y-83503961D01*
X144074315Y-83502232D01*
X144062693Y-83502668D01*
X144062691Y-83502668D01*
X144025402Y-83504068D01*
X144020676Y-83504157D01*
X144001709Y-83504157D01*
X143996974Y-83505039D01*
X143993448Y-83505267D01*
X143989708Y-83505408D01*
X143962449Y-83506431D01*
X143951764Y-83511021D01*
X143947164Y-83512058D01*
X143935443Y-83515619D01*
X143931040Y-83517318D01*
X143919604Y-83519448D01*
X143899228Y-83532008D01*
X143898618Y-83532384D01*
X143882246Y-83540888D01*
X143867769Y-83547108D01*
X143867765Y-83547110D01*
X143859594Y-83550621D01*
X143854708Y-83554635D01*
X143852523Y-83556820D01*
X143850260Y-83558872D01*
X143850115Y-83558712D01*
X143841108Y-83565832D01*
X143834213Y-83572084D01*
X143824309Y-83578189D01*
X143807741Y-83599977D01*
X143796547Y-83612796D01*
X141109248Y-86300095D01*
X141046936Y-86334121D01*
X141020153Y-86337000D01*
X140033082Y-86337000D01*
X139964961Y-86316998D01*
X139918468Y-86263342D01*
X139908364Y-86193068D01*
X139937858Y-86128488D01*
X139943987Y-86121905D01*
X139990550Y-86075342D01*
X140048146Y-85962304D01*
X140050648Y-85946511D01*
X140066441Y-85846793D01*
X140067992Y-85837000D01*
X140064739Y-85816461D01*
X140049697Y-85721487D01*
X140049696Y-85721485D01*
X140048146Y-85711696D01*
X139990550Y-85598658D01*
X139900842Y-85508950D01*
X139787804Y-85451354D01*
X139778015Y-85449804D01*
X139778013Y-85449803D01*
X139672293Y-85433059D01*
X139662500Y-85431508D01*
X139652707Y-85433059D01*
X139546987Y-85449803D01*
X139546985Y-85449804D01*
X139537196Y-85451354D01*
X139424158Y-85508950D01*
X139334450Y-85598658D01*
X139276854Y-85711696D01*
X139275304Y-85721485D01*
X139275303Y-85721487D01*
X139260261Y-85816461D01*
X139257008Y-85837000D01*
X139258559Y-85846793D01*
X139274353Y-85946511D01*
X139276854Y-85962304D01*
X139334450Y-86075342D01*
X139381013Y-86121905D01*
X139415039Y-86184217D01*
X139409974Y-86255032D01*
X139367427Y-86311868D01*
X139300907Y-86336679D01*
X139291918Y-86337000D01*
X136583496Y-86337000D01*
X136580823Y-86336804D01*
X136575788Y-86335075D01*
X136564166Y-86335511D01*
X136564164Y-86335511D01*
X136526875Y-86336911D01*
X136522149Y-86337000D01*
X136503182Y-86337000D01*
X136498447Y-86337882D01*
X136494921Y-86338110D01*
X136491181Y-86338251D01*
X136463922Y-86339274D01*
X136453237Y-86343864D01*
X136448637Y-86344901D01*
X136436917Y-86348462D01*
X136432514Y-86350161D01*
X136421077Y-86352291D01*
X136411176Y-86358394D01*
X136411173Y-86358395D01*
X136400086Y-86365229D01*
X136383715Y-86373733D01*
X136369236Y-86379954D01*
X136369233Y-86379956D01*
X136361068Y-86383464D01*
X136356181Y-86387478D01*
X136353992Y-86389667D01*
X136351727Y-86391721D01*
X136351581Y-86391560D01*
X136342581Y-86398675D01*
X136335686Y-86404927D01*
X136325782Y-86411032D01*
X136309448Y-86432513D01*
X136309224Y-86432807D01*
X136298023Y-86445636D01*
X136097347Y-86646311D01*
X136035035Y-86680336D01*
X135964219Y-86675271D01*
X135907384Y-86632724D01*
X135882573Y-86566203D01*
X135895985Y-86500012D01*
X135909362Y-86473758D01*
X135925389Y-86442304D01*
X135928876Y-86420292D01*
X135943684Y-86326793D01*
X135945235Y-86317000D01*
X135938050Y-86271637D01*
X135926940Y-86201487D01*
X135926939Y-86201485D01*
X135925389Y-86191696D01*
X135867793Y-86078658D01*
X135778085Y-85988950D01*
X135665047Y-85931354D01*
X135655258Y-85929804D01*
X135655256Y-85929803D01*
X135549536Y-85913059D01*
X135539743Y-85911508D01*
X135529950Y-85913059D01*
X135424230Y-85929803D01*
X135424228Y-85929804D01*
X135414439Y-85931354D01*
X135301401Y-85988950D01*
X135211693Y-86078658D01*
X135154097Y-86191696D01*
X135152547Y-86201485D01*
X135152546Y-86201487D01*
X135141436Y-86271637D01*
X135134251Y-86317000D01*
X135135802Y-86326793D01*
X135150611Y-86420292D01*
X135154097Y-86442304D01*
X135211693Y-86555342D01*
X135301401Y-86645050D01*
X135414439Y-86702646D01*
X135424231Y-86704197D01*
X135433664Y-86707262D01*
X135432994Y-86709326D01*
X135485297Y-86734121D01*
X135522824Y-86794389D01*
X135521810Y-86865379D01*
X135482577Y-86924550D01*
X135417581Y-86953118D01*
X135401433Y-86954157D01*
X133822004Y-86954157D01*
X133753883Y-86934155D01*
X133732909Y-86917252D01*
X130753157Y-83937500D01*
X135457008Y-83937500D01*
X135458559Y-83947293D01*
X135474439Y-84047553D01*
X135476854Y-84062804D01*
X135534450Y-84175842D01*
X135624158Y-84265550D01*
X135737196Y-84323146D01*
X135746985Y-84324696D01*
X135746987Y-84324697D01*
X135852707Y-84341441D01*
X135862500Y-84342992D01*
X135872293Y-84341441D01*
X135978013Y-84324697D01*
X135978015Y-84324696D01*
X135987804Y-84323146D01*
X136100842Y-84265550D01*
X136176253Y-84190139D01*
X136994326Y-84190139D01*
X136995877Y-84199932D01*
X137009867Y-84288260D01*
X137014172Y-84315443D01*
X137071768Y-84428481D01*
X137161476Y-84518189D01*
X137274514Y-84575785D01*
X137284303Y-84577335D01*
X137284305Y-84577336D01*
X137390025Y-84594080D01*
X137399818Y-84595631D01*
X137409611Y-84594080D01*
X137515331Y-84577336D01*
X137515333Y-84577335D01*
X137525122Y-84575785D01*
X137638160Y-84518189D01*
X137727868Y-84428481D01*
X137785464Y-84315443D01*
X137789770Y-84288260D01*
X137803759Y-84199932D01*
X137805310Y-84190139D01*
X137793005Y-84112449D01*
X137787015Y-84074626D01*
X137787014Y-84074624D01*
X137785464Y-84064835D01*
X137727868Y-83951797D01*
X137638160Y-83862089D01*
X137525122Y-83804493D01*
X137515333Y-83802943D01*
X137515331Y-83802942D01*
X137409611Y-83786198D01*
X137399818Y-83784647D01*
X137390025Y-83786198D01*
X137284305Y-83802942D01*
X137284303Y-83802943D01*
X137274514Y-83804493D01*
X137161476Y-83862089D01*
X137071768Y-83951797D01*
X137014172Y-84064835D01*
X137012622Y-84074624D01*
X137012621Y-84074626D01*
X137006631Y-84112449D01*
X136994326Y-84190139D01*
X136176253Y-84190139D01*
X136190550Y-84175842D01*
X136248146Y-84062804D01*
X136250562Y-84047553D01*
X136266441Y-83947293D01*
X136267992Y-83937500D01*
X136264519Y-83915573D01*
X136249697Y-83821987D01*
X136249696Y-83821985D01*
X136248146Y-83812196D01*
X136190550Y-83699158D01*
X136100842Y-83609450D01*
X135987804Y-83551854D01*
X135978015Y-83550304D01*
X135978013Y-83550303D01*
X135872293Y-83533559D01*
X135862500Y-83532008D01*
X135852707Y-83533559D01*
X135746987Y-83550303D01*
X135746985Y-83550304D01*
X135737196Y-83551854D01*
X135624158Y-83609450D01*
X135534450Y-83699158D01*
X135476854Y-83812196D01*
X135475304Y-83821985D01*
X135475303Y-83821987D01*
X135460481Y-83915573D01*
X135457008Y-83937500D01*
X130753157Y-83937500D01*
X130499905Y-83684248D01*
X130465879Y-83621936D01*
X130463000Y-83595153D01*
X130463000Y-82937500D01*
X138007508Y-82937500D01*
X138009059Y-82947293D01*
X138012252Y-82967450D01*
X138027354Y-83062804D01*
X138084950Y-83175842D01*
X138174658Y-83265550D01*
X138287696Y-83323146D01*
X138297485Y-83324696D01*
X138297487Y-83324697D01*
X138403207Y-83341441D01*
X138413000Y-83342992D01*
X138422793Y-83341441D01*
X138528513Y-83324697D01*
X138528515Y-83324696D01*
X138538304Y-83323146D01*
X138651342Y-83265550D01*
X138741050Y-83175842D01*
X138798646Y-83062804D01*
X138813749Y-82967450D01*
X138816941Y-82947293D01*
X138818492Y-82937500D01*
X138816941Y-82927707D01*
X138800197Y-82821987D01*
X138800196Y-82821985D01*
X138798646Y-82812196D01*
X138741050Y-82699158D01*
X138651342Y-82609450D01*
X138538304Y-82551854D01*
X138528515Y-82550304D01*
X138528513Y-82550303D01*
X138422793Y-82533559D01*
X138413000Y-82532008D01*
X138403207Y-82533559D01*
X138297487Y-82550303D01*
X138297485Y-82550304D01*
X138287696Y-82551854D01*
X138174658Y-82609450D01*
X138084950Y-82699158D01*
X138027354Y-82812196D01*
X138025804Y-82821985D01*
X138025803Y-82821987D01*
X138009059Y-82927707D01*
X138007508Y-82937500D01*
X130463000Y-82937500D01*
X130463000Y-81996698D01*
X131288703Y-81996698D01*
X131290254Y-82006491D01*
X131305798Y-82104631D01*
X131308549Y-82122002D01*
X131366145Y-82235040D01*
X131455853Y-82324748D01*
X131568891Y-82382344D01*
X131578680Y-82383894D01*
X131578682Y-82383895D01*
X131684402Y-82400639D01*
X131694195Y-82402190D01*
X131703988Y-82400639D01*
X131809708Y-82383895D01*
X131809710Y-82383894D01*
X131819499Y-82382344D01*
X131932537Y-82324748D01*
X132022245Y-82235040D01*
X132079841Y-82122002D01*
X132082593Y-82104631D01*
X132098136Y-82006491D01*
X132099687Y-81996698D01*
X132096909Y-81979159D01*
X132081392Y-81881185D01*
X132081391Y-81881183D01*
X132079841Y-81871394D01*
X132022245Y-81758356D01*
X131932537Y-81668648D01*
X131819499Y-81611052D01*
X131809710Y-81609502D01*
X131809708Y-81609501D01*
X131703988Y-81592757D01*
X131694195Y-81591206D01*
X131684402Y-81592757D01*
X131578682Y-81609501D01*
X131578680Y-81609502D01*
X131568891Y-81611052D01*
X131455853Y-81668648D01*
X131366145Y-81758356D01*
X131308549Y-81871394D01*
X131306999Y-81881183D01*
X131306998Y-81881185D01*
X131291481Y-81979159D01*
X131288703Y-81996698D01*
X130463000Y-81996698D01*
X130463000Y-80887000D01*
X136106510Y-80887000D01*
X136108061Y-80896793D01*
X136124210Y-80998752D01*
X136126356Y-81012304D01*
X136183952Y-81125342D01*
X136273660Y-81215050D01*
X136386698Y-81272646D01*
X136396487Y-81274196D01*
X136396489Y-81274197D01*
X136502209Y-81290941D01*
X136512002Y-81292492D01*
X136521795Y-81290941D01*
X136627515Y-81274197D01*
X136627517Y-81274196D01*
X136637306Y-81272646D01*
X136750344Y-81215050D01*
X136840052Y-81125342D01*
X136878415Y-81050051D01*
X136927162Y-80998437D01*
X136996077Y-80981371D01*
X137063279Y-81004272D01*
X137102948Y-81050052D01*
X137139394Y-81121581D01*
X137229102Y-81211289D01*
X137342140Y-81268885D01*
X137351929Y-81270435D01*
X137351931Y-81270436D01*
X137457651Y-81287180D01*
X137467444Y-81288731D01*
X137477237Y-81287180D01*
X137582957Y-81270436D01*
X137582959Y-81270435D01*
X137592748Y-81268885D01*
X137705786Y-81211289D01*
X137795494Y-81121581D01*
X137838336Y-81037500D01*
X143757008Y-81037500D01*
X143758559Y-81047293D01*
X143772704Y-81136599D01*
X143776854Y-81162804D01*
X143834450Y-81275842D01*
X143924158Y-81365550D01*
X144037196Y-81423146D01*
X144046985Y-81424696D01*
X144046987Y-81424697D01*
X144152707Y-81441441D01*
X144162500Y-81442992D01*
X144172293Y-81441441D01*
X144278013Y-81424697D01*
X144278015Y-81424696D01*
X144287804Y-81423146D01*
X144400842Y-81365550D01*
X144490550Y-81275842D01*
X144548146Y-81162804D01*
X144552297Y-81136599D01*
X144566441Y-81047293D01*
X144567992Y-81037500D01*
X144562451Y-81002513D01*
X144560073Y-80987500D01*
X156799508Y-80987500D01*
X156801059Y-80997293D01*
X156804836Y-81021137D01*
X156819354Y-81112804D01*
X156876950Y-81225842D01*
X156966658Y-81315550D01*
X157079696Y-81373146D01*
X157089485Y-81374696D01*
X157089487Y-81374697D01*
X157195207Y-81391441D01*
X157205000Y-81392992D01*
X157214793Y-81391441D01*
X157320513Y-81374697D01*
X157320515Y-81374696D01*
X157330304Y-81373146D01*
X157410835Y-81332113D01*
X173419017Y-81332113D01*
X173420568Y-81341906D01*
X173436333Y-81441441D01*
X173438863Y-81457417D01*
X173496459Y-81570455D01*
X173586167Y-81660163D01*
X173699205Y-81717759D01*
X173708994Y-81719309D01*
X173708996Y-81719310D01*
X173814716Y-81736054D01*
X173824509Y-81737605D01*
X173834302Y-81736054D01*
X173940022Y-81719310D01*
X173940024Y-81719309D01*
X173949813Y-81717759D01*
X174062851Y-81660163D01*
X174152559Y-81570455D01*
X174210155Y-81457417D01*
X174212686Y-81441441D01*
X174228450Y-81341906D01*
X174230001Y-81332113D01*
X174223726Y-81292492D01*
X174211706Y-81216600D01*
X174211705Y-81216598D01*
X174210155Y-81206809D01*
X174152559Y-81093771D01*
X174062851Y-81004063D01*
X173949813Y-80946467D01*
X173940024Y-80944917D01*
X173940022Y-80944916D01*
X173834302Y-80928172D01*
X173824509Y-80926621D01*
X173814716Y-80928172D01*
X173708996Y-80944916D01*
X173708994Y-80944917D01*
X173699205Y-80946467D01*
X173586167Y-81004063D01*
X173496459Y-81093771D01*
X173438863Y-81206809D01*
X173437313Y-81216598D01*
X173437312Y-81216600D01*
X173425292Y-81292492D01*
X173419017Y-81332113D01*
X157410835Y-81332113D01*
X157443342Y-81315550D01*
X157533050Y-81225842D01*
X157590646Y-81112804D01*
X157605165Y-81021137D01*
X157608941Y-80997293D01*
X157610492Y-80987500D01*
X157603993Y-80946467D01*
X157592197Y-80871987D01*
X157592196Y-80871985D01*
X157590646Y-80862196D01*
X157533050Y-80749158D01*
X157443342Y-80659450D01*
X157330304Y-80601854D01*
X157320515Y-80600304D01*
X157320513Y-80600303D01*
X157214793Y-80583559D01*
X157205000Y-80582008D01*
X157195207Y-80583559D01*
X157089487Y-80600303D01*
X157089485Y-80600304D01*
X157079696Y-80601854D01*
X156966658Y-80659450D01*
X156876950Y-80749158D01*
X156819354Y-80862196D01*
X156817804Y-80871985D01*
X156817803Y-80871987D01*
X156806007Y-80946467D01*
X156799508Y-80987500D01*
X144560073Y-80987500D01*
X144549697Y-80921987D01*
X144549696Y-80921985D01*
X144548146Y-80912196D01*
X144543646Y-80903365D01*
X144543645Y-80903361D01*
X144513757Y-80844704D01*
X144500652Y-80774927D01*
X144513757Y-80730296D01*
X144543645Y-80671639D01*
X144543646Y-80671635D01*
X144548146Y-80662804D01*
X144550387Y-80648658D01*
X144566441Y-80547293D01*
X144567992Y-80537500D01*
X144566441Y-80527707D01*
X144552154Y-80437500D01*
X153457008Y-80437500D01*
X153458559Y-80447293D01*
X153467239Y-80502094D01*
X153476854Y-80562804D01*
X153534450Y-80675842D01*
X153624158Y-80765550D01*
X153737196Y-80823146D01*
X153746985Y-80824696D01*
X153746987Y-80824697D01*
X153852707Y-80841441D01*
X153862500Y-80842992D01*
X153872293Y-80841441D01*
X153978013Y-80824697D01*
X153978015Y-80824696D01*
X153987804Y-80823146D01*
X154100842Y-80765550D01*
X154190550Y-80675842D01*
X154248146Y-80562804D01*
X154257762Y-80502094D01*
X154266441Y-80447293D01*
X154267992Y-80437500D01*
X154248146Y-80312196D01*
X154205246Y-80228000D01*
X154901242Y-80228000D01*
X154902793Y-80237793D01*
X154911792Y-80294608D01*
X154921088Y-80353304D01*
X154978684Y-80466342D01*
X155068392Y-80556050D01*
X155181430Y-80613646D01*
X155191219Y-80615196D01*
X155191221Y-80615197D01*
X155296941Y-80631941D01*
X155306734Y-80633492D01*
X155316527Y-80631941D01*
X155422247Y-80615197D01*
X155422249Y-80615196D01*
X155432038Y-80613646D01*
X155545076Y-80556050D01*
X155613364Y-80487762D01*
X178932020Y-80487762D01*
X178932536Y-80493906D01*
X178938322Y-80562804D01*
X178949259Y-80693053D01*
X178950958Y-80698978D01*
X178991809Y-80841441D01*
X179006044Y-80891086D01*
X179008859Y-80896563D01*
X179008860Y-80896566D01*
X179061793Y-80999563D01*
X179100212Y-81074318D01*
X179228177Y-81235770D01*
X179232870Y-81239764D01*
X179232871Y-81239765D01*
X179352887Y-81341906D01*
X179385064Y-81369291D01*
X179390442Y-81372297D01*
X179390444Y-81372298D01*
X179427472Y-81392992D01*
X179564898Y-81469797D01*
X179659738Y-81500613D01*
X179754971Y-81531556D01*
X179754975Y-81531557D01*
X179760829Y-81533459D01*
X179965394Y-81557851D01*
X179971529Y-81557379D01*
X179971531Y-81557379D01*
X180027539Y-81553069D01*
X180170800Y-81542046D01*
X180176730Y-81540390D01*
X180176732Y-81540390D01*
X180363297Y-81488300D01*
X180363296Y-81488300D01*
X180369225Y-81486645D01*
X180374714Y-81483872D01*
X180374720Y-81483870D01*
X180521293Y-81409830D01*
X180553110Y-81393758D01*
X180585254Y-81368645D01*
X180693098Y-81284388D01*
X180715451Y-81266924D01*
X180734280Y-81245111D01*
X180846040Y-81115634D01*
X180846040Y-81115633D01*
X180850064Y-81110972D01*
X180854586Y-81103013D01*
X180920206Y-80987500D01*
X180951823Y-80931844D01*
X181016851Y-80736363D01*
X181042671Y-80531974D01*
X181043083Y-80502500D01*
X181041638Y-80487762D01*
X181472020Y-80487762D01*
X181472536Y-80493906D01*
X181478322Y-80562804D01*
X181489259Y-80693053D01*
X181490958Y-80698978D01*
X181531809Y-80841441D01*
X181546044Y-80891086D01*
X181548859Y-80896563D01*
X181548860Y-80896566D01*
X181601793Y-80999563D01*
X181640212Y-81074318D01*
X181768177Y-81235770D01*
X181772870Y-81239764D01*
X181772871Y-81239765D01*
X181892887Y-81341906D01*
X181925064Y-81369291D01*
X181930442Y-81372297D01*
X181930444Y-81372298D01*
X181967472Y-81392992D01*
X182104898Y-81469797D01*
X182199738Y-81500613D01*
X182294971Y-81531556D01*
X182294975Y-81531557D01*
X182300829Y-81533459D01*
X182505394Y-81557851D01*
X182511529Y-81557379D01*
X182511531Y-81557379D01*
X182567539Y-81553069D01*
X182710800Y-81542046D01*
X182716730Y-81540390D01*
X182716732Y-81540390D01*
X182903297Y-81488300D01*
X182903296Y-81488300D01*
X182909225Y-81486645D01*
X182914714Y-81483872D01*
X182914720Y-81483870D01*
X183061293Y-81409830D01*
X183093110Y-81393758D01*
X183125254Y-81368645D01*
X183233098Y-81284388D01*
X183255451Y-81266924D01*
X183274280Y-81245111D01*
X183386040Y-81115634D01*
X183386040Y-81115633D01*
X183390064Y-81110972D01*
X183394586Y-81103013D01*
X183460206Y-80987500D01*
X183491823Y-80931844D01*
X183556851Y-80736363D01*
X183582671Y-80531974D01*
X183583083Y-80502500D01*
X183562980Y-80297470D01*
X183503435Y-80100249D01*
X183406718Y-79918349D01*
X183304852Y-79793449D01*
X183280406Y-79763475D01*
X183280403Y-79763472D01*
X183276511Y-79758700D01*
X183269673Y-79753043D01*
X183122525Y-79631311D01*
X183122521Y-79631309D01*
X183117775Y-79627382D01*
X182936555Y-79529397D01*
X182739754Y-79468477D01*
X182733629Y-79467833D01*
X182733628Y-79467833D01*
X182540998Y-79447587D01*
X182540996Y-79447587D01*
X182534869Y-79446943D01*
X182448029Y-79454846D01*
X182335842Y-79465055D01*
X182335839Y-79465056D01*
X182329703Y-79465614D01*
X182132072Y-79523780D01*
X181949502Y-79619226D01*
X181944701Y-79623086D01*
X181944698Y-79623088D01*
X181806205Y-79734439D01*
X181788947Y-79748315D01*
X181656524Y-79906130D01*
X181653556Y-79911528D01*
X181653553Y-79911533D01*
X181586452Y-80033591D01*
X181557276Y-80086662D01*
X181494984Y-80283032D01*
X181494298Y-80289149D01*
X181494297Y-80289153D01*
X181486111Y-80362137D01*
X181472020Y-80487762D01*
X181041638Y-80487762D01*
X181022980Y-80297470D01*
X180963435Y-80100249D01*
X180866718Y-79918349D01*
X180764852Y-79793449D01*
X180740406Y-79763475D01*
X180740403Y-79763472D01*
X180736511Y-79758700D01*
X180729673Y-79753043D01*
X180582525Y-79631311D01*
X180582521Y-79631309D01*
X180577775Y-79627382D01*
X180396555Y-79529397D01*
X180199754Y-79468477D01*
X180193629Y-79467833D01*
X180193628Y-79467833D01*
X180000998Y-79447587D01*
X180000996Y-79447587D01*
X179994869Y-79446943D01*
X179908029Y-79454846D01*
X179795842Y-79465055D01*
X179795839Y-79465056D01*
X179789703Y-79465614D01*
X179592072Y-79523780D01*
X179409502Y-79619226D01*
X179404701Y-79623086D01*
X179404698Y-79623088D01*
X179266205Y-79734439D01*
X179248947Y-79748315D01*
X179116524Y-79906130D01*
X179113556Y-79911528D01*
X179113553Y-79911533D01*
X179046452Y-80033591D01*
X179017276Y-80086662D01*
X178954984Y-80283032D01*
X178954298Y-80289149D01*
X178954297Y-80289153D01*
X178946111Y-80362137D01*
X178932020Y-80487762D01*
X155613364Y-80487762D01*
X155634784Y-80466342D01*
X155692380Y-80353304D01*
X155701677Y-80294608D01*
X155710675Y-80237793D01*
X155712226Y-80228000D01*
X155706164Y-80189728D01*
X155693931Y-80112487D01*
X155693930Y-80112485D01*
X155692380Y-80102696D01*
X155634784Y-79989658D01*
X155554088Y-79908962D01*
X156900294Y-79908962D01*
X156901845Y-79918755D01*
X156902643Y-79923790D01*
X156920140Y-80034266D01*
X156977736Y-80147304D01*
X157067444Y-80237012D01*
X157180482Y-80294608D01*
X157190271Y-80296158D01*
X157190273Y-80296159D01*
X157295993Y-80312903D01*
X157305786Y-80314454D01*
X157315579Y-80312903D01*
X157421299Y-80296159D01*
X157421301Y-80296158D01*
X157431090Y-80294608D01*
X157544128Y-80237012D01*
X157633836Y-80147304D01*
X157691432Y-80034266D01*
X157708930Y-79923790D01*
X157709727Y-79918755D01*
X157711278Y-79908962D01*
X157701441Y-79846855D01*
X157694667Y-79804082D01*
X170715887Y-79804082D01*
X170717438Y-79813875D01*
X170734127Y-79919244D01*
X170735733Y-79929386D01*
X170793329Y-80042424D01*
X170883037Y-80132132D01*
X170996075Y-80189728D01*
X171005864Y-80191278D01*
X171005866Y-80191279D01*
X171111586Y-80208023D01*
X171121379Y-80209574D01*
X171131172Y-80208023D01*
X171236892Y-80191279D01*
X171236894Y-80191278D01*
X171246683Y-80189728D01*
X171359721Y-80132132D01*
X171449429Y-80042424D01*
X171507025Y-79929386D01*
X171508632Y-79919244D01*
X171511680Y-79900000D01*
X174994508Y-79900000D01*
X174996059Y-79909793D01*
X175009814Y-79996637D01*
X175014354Y-80025304D01*
X175071950Y-80138342D01*
X175161658Y-80228050D01*
X175274696Y-80285646D01*
X175284485Y-80287196D01*
X175284487Y-80287197D01*
X175390207Y-80303941D01*
X175400000Y-80305492D01*
X175409793Y-80303941D01*
X175515513Y-80287197D01*
X175515515Y-80287196D01*
X175525304Y-80285646D01*
X175638342Y-80228050D01*
X175728050Y-80138342D01*
X175785646Y-80025304D01*
X175790187Y-79996637D01*
X175803941Y-79909793D01*
X175805492Y-79900000D01*
X175793320Y-79823146D01*
X175787197Y-79784487D01*
X175787196Y-79784485D01*
X175785646Y-79774696D01*
X175728050Y-79661658D01*
X175638342Y-79571950D01*
X175525304Y-79514354D01*
X175515515Y-79512804D01*
X175515513Y-79512803D01*
X175409793Y-79496059D01*
X175400000Y-79494508D01*
X175390207Y-79496059D01*
X175284487Y-79512803D01*
X175284485Y-79512804D01*
X175274696Y-79514354D01*
X175161658Y-79571950D01*
X175071950Y-79661658D01*
X175014354Y-79774696D01*
X175012804Y-79784485D01*
X175012803Y-79784487D01*
X175006680Y-79823146D01*
X174994508Y-79900000D01*
X171511680Y-79900000D01*
X171525320Y-79813875D01*
X171526871Y-79804082D01*
X171523832Y-79784895D01*
X171508576Y-79688569D01*
X171508575Y-79688567D01*
X171507025Y-79678778D01*
X171449429Y-79565740D01*
X171359721Y-79476032D01*
X171246683Y-79418436D01*
X171236894Y-79416886D01*
X171236892Y-79416885D01*
X171131172Y-79400141D01*
X171121379Y-79398590D01*
X171111586Y-79400141D01*
X171005866Y-79416885D01*
X171005864Y-79416886D01*
X170996075Y-79418436D01*
X170883037Y-79476032D01*
X170793329Y-79565740D01*
X170735733Y-79678778D01*
X170734183Y-79688567D01*
X170734182Y-79688569D01*
X170718926Y-79784895D01*
X170715887Y-79804082D01*
X157694667Y-79804082D01*
X157692983Y-79793449D01*
X157692982Y-79793447D01*
X157691432Y-79783658D01*
X157633836Y-79670620D01*
X157544128Y-79580912D01*
X157431090Y-79523316D01*
X157421301Y-79521766D01*
X157421299Y-79521765D01*
X157315579Y-79505021D01*
X157305786Y-79503470D01*
X157295993Y-79505021D01*
X157190273Y-79521765D01*
X157190271Y-79521766D01*
X157180482Y-79523316D01*
X157067444Y-79580912D01*
X156977736Y-79670620D01*
X156920140Y-79783658D01*
X156918590Y-79793447D01*
X156918589Y-79793449D01*
X156910131Y-79846855D01*
X156900294Y-79908962D01*
X155554088Y-79908962D01*
X155545076Y-79899950D01*
X155432038Y-79842354D01*
X155422249Y-79840804D01*
X155422247Y-79840803D01*
X155316527Y-79824059D01*
X155306734Y-79822508D01*
X155296941Y-79824059D01*
X155191221Y-79840803D01*
X155191219Y-79840804D01*
X155181430Y-79842354D01*
X155068392Y-79899950D01*
X154978684Y-79989658D01*
X154921088Y-80102696D01*
X154919538Y-80112485D01*
X154919537Y-80112487D01*
X154907304Y-80189728D01*
X154901242Y-80228000D01*
X154205246Y-80228000D01*
X154190550Y-80199158D01*
X154100842Y-80109450D01*
X153987804Y-80051854D01*
X153978015Y-80050304D01*
X153978013Y-80050303D01*
X153872293Y-80033559D01*
X153862500Y-80032008D01*
X153852707Y-80033559D01*
X153746987Y-80050303D01*
X153746985Y-80050304D01*
X153737196Y-80051854D01*
X153624158Y-80109450D01*
X153534450Y-80199158D01*
X153476854Y-80312196D01*
X153457008Y-80437500D01*
X144552154Y-80437500D01*
X144549697Y-80421987D01*
X144549696Y-80421985D01*
X144548146Y-80412196D01*
X144490550Y-80299158D01*
X144400842Y-80209450D01*
X144287804Y-80151854D01*
X144278015Y-80150304D01*
X144278013Y-80150303D01*
X144172293Y-80133559D01*
X144162500Y-80132008D01*
X144152707Y-80133559D01*
X144046987Y-80150303D01*
X144046985Y-80150304D01*
X144037196Y-80151854D01*
X143924158Y-80209450D01*
X143834450Y-80299158D01*
X143776854Y-80412196D01*
X143775304Y-80421985D01*
X143775303Y-80421987D01*
X143758559Y-80527707D01*
X143757008Y-80537500D01*
X143758559Y-80547293D01*
X143774614Y-80648658D01*
X143776854Y-80662804D01*
X143781354Y-80671635D01*
X143781355Y-80671639D01*
X143811243Y-80730296D01*
X143824348Y-80800073D01*
X143811243Y-80844704D01*
X143781355Y-80903361D01*
X143781354Y-80903365D01*
X143776854Y-80912196D01*
X143775304Y-80921985D01*
X143775303Y-80921987D01*
X143762549Y-81002513D01*
X143757008Y-81037500D01*
X137838336Y-81037500D01*
X137853090Y-81008543D01*
X137863168Y-80944916D01*
X137871385Y-80893032D01*
X137872936Y-80883239D01*
X137863418Y-80823146D01*
X137854641Y-80767726D01*
X137854640Y-80767724D01*
X137853090Y-80757935D01*
X137795494Y-80644897D01*
X137705786Y-80555189D01*
X137592748Y-80497593D01*
X137582959Y-80496043D01*
X137582957Y-80496042D01*
X137477237Y-80479298D01*
X137467444Y-80477747D01*
X137457651Y-80479298D01*
X137351931Y-80496042D01*
X137351929Y-80496043D01*
X137342140Y-80497593D01*
X137229102Y-80555189D01*
X137139394Y-80644897D01*
X137111839Y-80698978D01*
X137101032Y-80720187D01*
X137052284Y-80771802D01*
X136983369Y-80788868D01*
X136916167Y-80765967D01*
X136876498Y-80720187D01*
X136849123Y-80666461D01*
X136840052Y-80648658D01*
X136750344Y-80558950D01*
X136637306Y-80501354D01*
X136627517Y-80499804D01*
X136627515Y-80499803D01*
X136521795Y-80483059D01*
X136512002Y-80481508D01*
X136502209Y-80483059D01*
X136396489Y-80499803D01*
X136396487Y-80499804D01*
X136386698Y-80501354D01*
X136273660Y-80558950D01*
X136183952Y-80648658D01*
X136126356Y-80761696D01*
X136124806Y-80771485D01*
X136124805Y-80771487D01*
X136108888Y-80871987D01*
X136106510Y-80887000D01*
X130463000Y-80887000D01*
X130463000Y-80264994D01*
X130483002Y-80196873D01*
X130499905Y-80175899D01*
X130700899Y-79974905D01*
X130763211Y-79940879D01*
X130789994Y-79938000D01*
X131075820Y-79938000D01*
X131078493Y-79938196D01*
X131083528Y-79939925D01*
X131095150Y-79939489D01*
X131095152Y-79939489D01*
X131132441Y-79938089D01*
X131137167Y-79938000D01*
X131156134Y-79938000D01*
X131160869Y-79937118D01*
X131164395Y-79936890D01*
X131168135Y-79936749D01*
X131195394Y-79935726D01*
X131206079Y-79931136D01*
X131210679Y-79930099D01*
X131222400Y-79926538D01*
X131226803Y-79924839D01*
X131238239Y-79922709D01*
X131259227Y-79909772D01*
X131275597Y-79901269D01*
X131290074Y-79895049D01*
X131290078Y-79895047D01*
X131298249Y-79891536D01*
X131303135Y-79887522D01*
X131305320Y-79885337D01*
X131307583Y-79883285D01*
X131307728Y-79883445D01*
X131316735Y-79876325D01*
X131323630Y-79870073D01*
X131333534Y-79863968D01*
X131334650Y-79862500D01*
X149957008Y-79862500D01*
X149958559Y-79872293D01*
X149969001Y-79938219D01*
X149976854Y-79987804D01*
X150034450Y-80100842D01*
X150124158Y-80190550D01*
X150237196Y-80248146D01*
X150246985Y-80249696D01*
X150246987Y-80249697D01*
X150352707Y-80266441D01*
X150362500Y-80267992D01*
X150372293Y-80266441D01*
X150478013Y-80249697D01*
X150478015Y-80249696D01*
X150487804Y-80248146D01*
X150600842Y-80190550D01*
X150690550Y-80100842D01*
X150748146Y-79987804D01*
X150756000Y-79938219D01*
X150766441Y-79872293D01*
X150767992Y-79862500D01*
X150755505Y-79783658D01*
X150749697Y-79746987D01*
X150749696Y-79746985D01*
X150748146Y-79737196D01*
X150690550Y-79624158D01*
X150600842Y-79534450D01*
X150487804Y-79476854D01*
X150478015Y-79475304D01*
X150478013Y-79475303D01*
X150372293Y-79458559D01*
X150362500Y-79457008D01*
X150352707Y-79458559D01*
X150246987Y-79475303D01*
X150246985Y-79475304D01*
X150237196Y-79476854D01*
X150124158Y-79534450D01*
X150034450Y-79624158D01*
X149976854Y-79737196D01*
X149975304Y-79746985D01*
X149975303Y-79746987D01*
X149969495Y-79783658D01*
X149957008Y-79862500D01*
X131334650Y-79862500D01*
X131350102Y-79842180D01*
X131361296Y-79829361D01*
X131753157Y-79437500D01*
X135757008Y-79437500D01*
X135758559Y-79447293D01*
X135773474Y-79541461D01*
X135776854Y-79562804D01*
X135834450Y-79675842D01*
X135924158Y-79765550D01*
X136037196Y-79823146D01*
X136046985Y-79824696D01*
X136046987Y-79824697D01*
X136152707Y-79841441D01*
X136162500Y-79842992D01*
X136172293Y-79841441D01*
X136278013Y-79824697D01*
X136278015Y-79824696D01*
X136287804Y-79823146D01*
X136400842Y-79765550D01*
X136490550Y-79675842D01*
X136548146Y-79562804D01*
X136551527Y-79541461D01*
X136566441Y-79447293D01*
X136567992Y-79437500D01*
X136566441Y-79427707D01*
X136549697Y-79321987D01*
X136549696Y-79321985D01*
X136548146Y-79312196D01*
X136490550Y-79199158D01*
X136400842Y-79109450D01*
X136287804Y-79051854D01*
X136278015Y-79050304D01*
X136278013Y-79050303D01*
X136172293Y-79033559D01*
X136162500Y-79032008D01*
X136152707Y-79033559D01*
X136046987Y-79050303D01*
X136046985Y-79050304D01*
X136037196Y-79051854D01*
X135924158Y-79109450D01*
X135834450Y-79199158D01*
X135776854Y-79312196D01*
X135775304Y-79321985D01*
X135775303Y-79321987D01*
X135758559Y-79427707D01*
X135757008Y-79437500D01*
X131753157Y-79437500D01*
X132358409Y-78832248D01*
X178937000Y-78832248D01*
X178938207Y-78838316D01*
X178941831Y-78856533D01*
X178948633Y-78890731D01*
X178992948Y-78957052D01*
X179059269Y-79001367D01*
X179071438Y-79003788D01*
X179071439Y-79003788D01*
X179107858Y-79011032D01*
X179117752Y-79013000D01*
X180857248Y-79013000D01*
X180867142Y-79011032D01*
X180903561Y-79003788D01*
X180903562Y-79003788D01*
X180915731Y-79001367D01*
X180982052Y-78957052D01*
X181026367Y-78890731D01*
X181033170Y-78856533D01*
X181036793Y-78838316D01*
X181038000Y-78832248D01*
X181038000Y-77947762D01*
X181472020Y-77947762D01*
X181472536Y-77953906D01*
X181488287Y-78141474D01*
X181489259Y-78153053D01*
X181490958Y-78158978D01*
X181537435Y-78321062D01*
X181546044Y-78351086D01*
X181548859Y-78356563D01*
X181548860Y-78356566D01*
X181619799Y-78494599D01*
X181640212Y-78534318D01*
X181768177Y-78695770D01*
X181772870Y-78699764D01*
X181772871Y-78699765D01*
X181863035Y-78776500D01*
X181925064Y-78829291D01*
X181930442Y-78832297D01*
X181930444Y-78832298D01*
X182013222Y-78878561D01*
X182104898Y-78929797D01*
X182174666Y-78952466D01*
X182294971Y-78991556D01*
X182294975Y-78991557D01*
X182300829Y-78993459D01*
X182505394Y-79017851D01*
X182511529Y-79017379D01*
X182511531Y-79017379D01*
X182584125Y-79011793D01*
X182710800Y-79002046D01*
X182716730Y-79000390D01*
X182716732Y-79000390D01*
X182903297Y-78948300D01*
X182903296Y-78948300D01*
X182909225Y-78946645D01*
X182914714Y-78943872D01*
X182914720Y-78943870D01*
X183087616Y-78856533D01*
X183093110Y-78853758D01*
X183255451Y-78726924D01*
X183271505Y-78708326D01*
X183386040Y-78575634D01*
X183386040Y-78575633D01*
X183390064Y-78570972D01*
X183407595Y-78540113D01*
X183458575Y-78450371D01*
X183491823Y-78391844D01*
X183556851Y-78196363D01*
X183582671Y-77991974D01*
X183582929Y-77973501D01*
X183583034Y-77966022D01*
X183583034Y-77966018D01*
X183583083Y-77962500D01*
X183562980Y-77757470D01*
X183503435Y-77560249D01*
X183406718Y-77378349D01*
X183319941Y-77271950D01*
X183280406Y-77223475D01*
X183280403Y-77223472D01*
X183276511Y-77218700D01*
X183257972Y-77203363D01*
X183122525Y-77091311D01*
X183122521Y-77091309D01*
X183117775Y-77087382D01*
X182936555Y-76989397D01*
X182739754Y-76928477D01*
X182733629Y-76927833D01*
X182733628Y-76927833D01*
X182540998Y-76907587D01*
X182540996Y-76907587D01*
X182534869Y-76906943D01*
X182448029Y-76914846D01*
X182335842Y-76925055D01*
X182335839Y-76925056D01*
X182329703Y-76925614D01*
X182132072Y-76983780D01*
X181949502Y-77079226D01*
X181944701Y-77083086D01*
X181944698Y-77083088D01*
X181804190Y-77196059D01*
X181788947Y-77208315D01*
X181656524Y-77366130D01*
X181653556Y-77371528D01*
X181653553Y-77371533D01*
X181571717Y-77520394D01*
X181557276Y-77546662D01*
X181555413Y-77552535D01*
X181503714Y-77715513D01*
X181494984Y-77743032D01*
X181494298Y-77749149D01*
X181494297Y-77749153D01*
X181482541Y-77853967D01*
X181472020Y-77947762D01*
X181038000Y-77947762D01*
X181038000Y-77092752D01*
X181033975Y-77072518D01*
X181028788Y-77046439D01*
X181028788Y-77046438D01*
X181026367Y-77034269D01*
X180982052Y-76967948D01*
X180915731Y-76923633D01*
X180903562Y-76921212D01*
X180903561Y-76921212D01*
X180863316Y-76913207D01*
X180857248Y-76912000D01*
X179117752Y-76912000D01*
X179111684Y-76913207D01*
X179071439Y-76921212D01*
X179071438Y-76921212D01*
X179059269Y-76923633D01*
X178992948Y-76967948D01*
X178948633Y-77034269D01*
X178946212Y-77046438D01*
X178946212Y-77046439D01*
X178941025Y-77072518D01*
X178937000Y-77092752D01*
X178937000Y-78832248D01*
X132358409Y-78832248D01*
X132613639Y-78577018D01*
X132675951Y-78542992D01*
X132702734Y-78540113D01*
X134452341Y-78540113D01*
X134520462Y-78560115D01*
X134522205Y-78561307D01*
X134528561Y-78567663D01*
X134537392Y-78572163D01*
X134537394Y-78572164D01*
X134546921Y-78577018D01*
X134641599Y-78625259D01*
X134651388Y-78626809D01*
X134651390Y-78626810D01*
X134757110Y-78643554D01*
X134766903Y-78645105D01*
X134776696Y-78643554D01*
X134882416Y-78626810D01*
X134882418Y-78626809D01*
X134892207Y-78625259D01*
X135005245Y-78567663D01*
X135094953Y-78477955D01*
X135152549Y-78364917D01*
X135154224Y-78354345D01*
X135170844Y-78249406D01*
X135172395Y-78239613D01*
X135164576Y-78190244D01*
X135154100Y-78124100D01*
X135154099Y-78124098D01*
X135152549Y-78114309D01*
X135094953Y-78001271D01*
X135005245Y-77911563D01*
X134892207Y-77853967D01*
X134882418Y-77852417D01*
X134882416Y-77852416D01*
X134776696Y-77835672D01*
X134766903Y-77834121D01*
X134757110Y-77835672D01*
X134651390Y-77852416D01*
X134651388Y-77852417D01*
X134641599Y-77853967D01*
X134606904Y-77871645D01*
X134537394Y-77907062D01*
X134537392Y-77907063D01*
X134528561Y-77911563D01*
X134524340Y-77915784D01*
X134459536Y-77938907D01*
X134452341Y-77939113D01*
X132578443Y-77939113D01*
X132575768Y-77938917D01*
X132570731Y-77937187D01*
X132521803Y-77939024D01*
X132517076Y-77939113D01*
X132498125Y-77939113D01*
X132493392Y-77939995D01*
X132489865Y-77940223D01*
X132470493Y-77940950D01*
X132470491Y-77940951D01*
X132458865Y-77941387D01*
X132448173Y-77945981D01*
X132443570Y-77947018D01*
X132424388Y-77952845D01*
X132416024Y-77954403D01*
X132415244Y-77950214D01*
X132366872Y-77954240D01*
X132304168Y-77920943D01*
X132269420Y-77859031D01*
X132267371Y-77847804D01*
X132264151Y-77824140D01*
X132263000Y-77807152D01*
X132263000Y-77652062D01*
X132283002Y-77583941D01*
X132284194Y-77582198D01*
X132290550Y-77575842D01*
X132301267Y-77554810D01*
X132340616Y-77477582D01*
X132348146Y-77462804D01*
X132357835Y-77401633D01*
X132366441Y-77347293D01*
X132367992Y-77337500D01*
X132358848Y-77279764D01*
X132349697Y-77221987D01*
X132349696Y-77221985D01*
X132348146Y-77212196D01*
X132290550Y-77099158D01*
X132200842Y-77009450D01*
X132087804Y-76951854D01*
X132078015Y-76950304D01*
X132078013Y-76950303D01*
X131972293Y-76933559D01*
X131962500Y-76932008D01*
X131952707Y-76933559D01*
X131846987Y-76950303D01*
X131846985Y-76950304D01*
X131837196Y-76951854D01*
X131724158Y-77009450D01*
X131634450Y-77099158D01*
X131576854Y-77212196D01*
X131575304Y-77221985D01*
X131575303Y-77221987D01*
X131566152Y-77279764D01*
X131557008Y-77337500D01*
X131558559Y-77347293D01*
X131567166Y-77401633D01*
X131576854Y-77462804D01*
X131584384Y-77477582D01*
X131623734Y-77554810D01*
X131634450Y-77575842D01*
X131638671Y-77580063D01*
X131661794Y-77644867D01*
X131662000Y-77652062D01*
X131662000Y-77660703D01*
X131641998Y-77728824D01*
X131633713Y-77740132D01*
X131630252Y-77743593D01*
X131627528Y-77747563D01*
X131625203Y-77750211D01*
X131612008Y-77764435D01*
X131612006Y-77764438D01*
X131604099Y-77772962D01*
X131599790Y-77783763D01*
X131593572Y-77793599D01*
X131590884Y-77791900D01*
X131558574Y-77833082D01*
X131491509Y-77856379D01*
X131422495Y-77839720D01*
X131373443Y-77788394D01*
X131359505Y-77736354D01*
X131359402Y-77734137D01*
X131356977Y-77681733D01*
X131314763Y-77506574D01*
X131309182Y-77483415D01*
X131309181Y-77483413D01*
X131307776Y-77477582D01*
X131296606Y-77453013D01*
X131244085Y-77337500D01*
X131220860Y-77286419D01*
X131114101Y-77135917D01*
X131102829Y-77120026D01*
X131102828Y-77120025D01*
X131099363Y-77115140D01*
X130968010Y-76989397D01*
X130951999Y-76974070D01*
X130947669Y-76969925D01*
X130878178Y-76925055D01*
X130776291Y-76859267D01*
X130776288Y-76859266D01*
X130771254Y-76856015D01*
X130717472Y-76834340D01*
X130582045Y-76779761D01*
X130582042Y-76779760D01*
X130576481Y-76777519D01*
X130570600Y-76776371D01*
X130570595Y-76776369D01*
X130374824Y-76738138D01*
X130374821Y-76738138D01*
X130370378Y-76737270D01*
X130364857Y-76737000D01*
X130210031Y-76737000D01*
X130053454Y-76751939D01*
X130047698Y-76753628D01*
X130047696Y-76753628D01*
X129970179Y-76776369D01*
X129851951Y-76811053D01*
X129846623Y-76813797D01*
X129841053Y-76816025D01*
X129840336Y-76814231D01*
X129779300Y-76825963D01*
X129713402Y-76799544D01*
X129672249Y-76741691D01*
X129668907Y-76670773D01*
X129697704Y-76616229D01*
X129699160Y-76614612D01*
X129704069Y-76610192D01*
X129717180Y-76592147D01*
X129814541Y-76458141D01*
X129814542Y-76458140D01*
X129818422Y-76452799D01*
X129821222Y-76446512D01*
X129894864Y-76281107D01*
X129894865Y-76281104D01*
X129897551Y-76275071D01*
X129904634Y-76241748D01*
X129938362Y-76179275D01*
X130000512Y-76144953D01*
X130071351Y-76149681D01*
G37*
G04 #@! TD.AperFunction*
G04 #@! TA.AperFunction,Conductor*
G36*
X159736067Y-83858002D02*
G01*
X159757041Y-83874905D01*
X159757588Y-83875452D01*
X159759344Y-83877486D01*
X159761682Y-83882269D01*
X159770211Y-83890181D01*
X159770212Y-83890182D01*
X159797584Y-83915573D01*
X159800989Y-83918853D01*
X159814384Y-83932248D01*
X159818354Y-83934972D01*
X159821002Y-83937297D01*
X159843753Y-83958401D01*
X159854560Y-83962713D01*
X159858545Y-83965232D01*
X159869354Y-83971004D01*
X159873659Y-83972911D01*
X159883253Y-83979493D01*
X159907206Y-83985177D01*
X159907243Y-83985186D01*
X159924831Y-83990748D01*
X159928031Y-83992024D01*
X159983889Y-84035843D01*
X160007191Y-84102906D01*
X160005790Y-84128764D01*
X159998601Y-84174158D01*
X159994508Y-84200000D01*
X159996059Y-84209793D01*
X159996059Y-84209794D01*
X160010946Y-84303790D01*
X160001846Y-84374201D01*
X159956124Y-84428515D01*
X159886497Y-84449500D01*
X159719556Y-84449500D01*
X159651435Y-84429498D01*
X159630461Y-84412596D01*
X159270960Y-84053096D01*
X159236935Y-83990783D01*
X159241999Y-83919968D01*
X159284546Y-83863132D01*
X159351066Y-83838321D01*
X159360055Y-83838000D01*
X159667946Y-83838000D01*
X159736067Y-83858002D01*
G37*
G04 #@! TD.AperFunction*
G04 #@! TA.AperFunction,Conductor*
G36*
X156782321Y-82600250D02*
G01*
X156828814Y-82653906D01*
X156838649Y-82725958D01*
X156824190Y-82817248D01*
X156825741Y-82827041D01*
X156836427Y-82894508D01*
X156844036Y-82942552D01*
X156901632Y-83055590D01*
X156928656Y-83082614D01*
X156962682Y-83144926D01*
X156957617Y-83215741D01*
X156915070Y-83272577D01*
X156905066Y-83279343D01*
X156904063Y-83279953D01*
X156895892Y-83283464D01*
X156891006Y-83287477D01*
X156888823Y-83289660D01*
X156886547Y-83291724D01*
X156886401Y-83291563D01*
X156877416Y-83298665D01*
X156870509Y-83304929D01*
X156860607Y-83311032D01*
X156844046Y-83332811D01*
X156832851Y-83345632D01*
X156641246Y-83537238D01*
X156478389Y-83700095D01*
X156416076Y-83734120D01*
X156389293Y-83737000D01*
X155439163Y-83737000D01*
X155371042Y-83716998D01*
X155350068Y-83700096D01*
X154802567Y-83152595D01*
X154768542Y-83090283D01*
X154773606Y-83019468D01*
X154816153Y-82962632D01*
X154882673Y-82937821D01*
X154891662Y-82937500D01*
X155603527Y-82937500D01*
X155606200Y-82937696D01*
X155611235Y-82939425D01*
X155622857Y-82938989D01*
X155622859Y-82938989D01*
X155660148Y-82937589D01*
X155664874Y-82937500D01*
X155683841Y-82937500D01*
X155688576Y-82936618D01*
X155692102Y-82936390D01*
X155695842Y-82936249D01*
X155723101Y-82935226D01*
X155733786Y-82930636D01*
X155738386Y-82929599D01*
X155750107Y-82926038D01*
X155754510Y-82924339D01*
X155765946Y-82922209D01*
X155786934Y-82909272D01*
X155803304Y-82900769D01*
X155817781Y-82894549D01*
X155817785Y-82894547D01*
X155825956Y-82891036D01*
X155830842Y-82887022D01*
X155833027Y-82884837D01*
X155835290Y-82882785D01*
X155835435Y-82882945D01*
X155844442Y-82875825D01*
X155851337Y-82869573D01*
X155861241Y-82863468D01*
X155877809Y-82841680D01*
X155889003Y-82828861D01*
X156100711Y-82617153D01*
X156163023Y-82583127D01*
X156189806Y-82580248D01*
X156714200Y-82580248D01*
X156782321Y-82600250D01*
G37*
G04 #@! TD.AperFunction*
M02*
