M48
; FORMAT={-:-/ absolute / metric / decimal}
; #@! TF.GenerationSoftware,Kicad,Pcbnew,6.0.10+dfsg-1~bpo11+1
; #@! TF.FileFunction,Plated,1,6,PTH
FMAT,2
METRIC
; #@! TA.AperFunction,Plated,PTH,ViaDrill
T1C0.200
; #@! TA.AperFunction,Plated,PTH,ComponentDrill
T2C0.550
; #@! TA.AperFunction,Plated,PTH,ComponentDrill
T3C0.600
; #@! TA.AperFunction,Plated,PTH,ComponentDrill
T4C0.650
; #@! TA.AperFunction,Plated,PTH,ComponentDrill
T5C1.000
%
G90
G05
T1
X128.49Y-86.006
X128.62Y-84.237
X128.741Y-82.216
X128.762Y-79.537
X131.058Y-86.037
X131.262Y-83.037
X131.694Y-81.997
X131.963Y-77.337
X134.767Y-78.24
X134.806Y-77.161
X134.862Y-88.938
X135.54Y-86.317
X135.762Y-88.537
X135.862Y-83.938
X136.162Y-79.438
X136.512Y-80.887
X137.4Y-84.19
X137.467Y-80.883
X138.413Y-82.938
X139.662Y-85.837
X143.262Y-82.037
X144.162Y-80.537
X144.162Y-81.037
X144.262Y-85.938
X144.262Y-89.037
X146.1Y-84.4
X146.312Y-89.037
X147.262Y-81.037
X147.262Y-87.138
X148.213Y-89.037
X148.869Y-85.144
X149.062Y-80.438
X149.062Y-81.737
X149.062Y-84.037
X149.562Y-86.737
X149.562Y-89.037
X150.262Y-89.037
X150.362Y-79.862
X150.463Y-85.737
X152.062Y-83.938
X153.662Y-82.137
X153.862Y-80.438
X154.562Y-84.737
X155.062Y-85.138
X155.062Y-85.837
X155.307Y-80.228
X155.881Y-83.083
X155.881Y-83.538
X155.963Y-80.337
X156.164Y-85.625
X157.151Y-84.726
X157.205Y-80.987
X157.23Y-82.817
X157.306Y-79.909
X158.029Y-86.971
X158.577Y-86.007
X159.117Y-87.283
X159.362Y-80.638
X159.7Y-84.1
X159.75Y-85.25
X159.859Y-76.714
X160.13Y-87.97
X160.162Y-89.138
X160.2Y-83.1
X160.4Y-84.2
X161.13Y-87.97
X161.162Y-89.138
X161.213Y-85.488
X161.4Y-79.5
X161.4Y-82.6
X161.7Y-84.4
X161.963Y-76.837
X162.162Y-89.138
X162.706Y-85.514
X162.881Y-76.947
X163.162Y-89.138
X163.215Y-84.23
X163.702Y-87.592
X163.715Y-84.585
X164.162Y-89.138
X164.245Y-84.298
X164.6Y-79.5
X164.6Y-82.6
X165.0Y-83.3
X165.162Y-89.138
X165.463Y-84.337
X165.488Y-85.145
X166.2Y-78.3
X166.463Y-86.138
X166.463Y-87.737
X167.4Y-78.6
X167.662Y-85.037
X167.761Y-83.921
X168.3Y-79.7
X168.395Y-86.105
X168.55Y-85.038
X168.656Y-83.388
X169.064Y-84.337
X169.1Y-84.8
X169.562Y-86.2
X170.1Y-80.1
X170.105Y-81.938
X170.463Y-83.938
X170.6Y-80.1
X170.8Y-76.5
X170.925Y-87.075
X170.963Y-83.837
X171.121Y-79.804
X171.6Y-79.2
X171.7Y-78.267
X171.804Y-82.982
X171.9Y-77.6
X173.075Y-82.138
X173.162Y-79.138
X173.3Y-86.7
X173.4Y-88.6
X173.825Y-81.332
X173.963Y-83.837
X174.032Y-86.567
X175.311Y-77.261
X175.4Y-79.9
X175.5Y-86.0
X175.5Y-88.2
X175.562Y-80.938
X176.11Y-88.51
X176.2Y-85.7
T2
X131.362Y-76.688
X131.362Y-80.388
T5
X137.438Y-77.347
X137.438Y-88.727
X139.977Y-77.347
X139.977Y-88.727
X153.547Y-77.347
X153.547Y-88.727
X156.088Y-77.347
X156.088Y-88.727
X179.987Y-77.962
X179.987Y-80.502
X179.987Y-83.042
X179.987Y-85.582
X179.987Y-88.123
X182.528Y-77.962
X182.528Y-80.502
X182.528Y-83.042
X182.528Y-85.582
X182.528Y-88.123
T3
G00X120.188Y-80.218
M15
G01X120.787Y-80.218
M16
G05
G00X120.188Y-88.858
M15
G01X120.787Y-88.858
M16
G05
G00X124.117Y-80.218
M15
G01X125.218Y-80.218
M16
G05
G00X124.117Y-88.858
M15
G01X125.218Y-88.858
M16
G05
T4
G00X123.112Y-75.987
M15
G01X121.812Y-75.987
M16
G05
G00X123.112Y-90.087
M15
G01X121.812Y-90.087
M16
G05
G00X129.012Y-75.987
M15
G01X127.712Y-75.987
M16
G05
G00X129.012Y-90.087
M15
G01X127.712Y-90.087
M16
G05
T0
M30
