G04 #@! TF.GenerationSoftware,KiCad,Pcbnew,6.0.10+dfsg-1~bpo11+1*
G04 #@! TF.ProjectId,project,70726f6a-6563-4742-9e6b-696361645f70,rev?*
G04 #@! TF.SameCoordinates,Original*
G04 #@! TF.FileFunction,Soldermask,Bot*
G04 #@! TF.FilePolarity,Negative*
%FSLAX46Y46*%
G04 Gerber Fmt 4.6, Leading zero omitted, Abs format (unit mm)*
%MOMM*%
%LPD*%
G01*
G04 APERTURE LIST*
G04 #@! TA.AperFunction,Profile*
%ADD10C,0.100000*%
G04 #@! TD*
%ADD11C,1.800000*%
%ADD12R,1.700000X1.700000*%
%ADD13O,1.700000X1.700000*%
%ADD14O,2.750000X1.450000*%
%ADD15C,1.552000*%
%ADD16R,2.500000X1.800000*%
%ADD17R,0.800000X0.900000*%
%ADD18C,0.650000*%
%ADD19R,1.450000X0.600000*%
%ADD20R,1.450000X0.300000*%
%ADD21O,2.100000X1.000000*%
%ADD22O,1.600000X1.000000*%
%ADD23R,1.000000X0.800000*%
%ADD24R,0.900000X1.200000*%
%ADD25R,3.650000X3.650000*%
G04 APERTURE END LIST*
D10*
X120262500Y-76037500D02*
X120262500Y-75037500D01*
X184262500Y-76037500D02*
X184262500Y-90037500D01*
X184262500Y-90037500D02*
X130262500Y-90037500D01*
X130262500Y-75037500D02*
X130262500Y-76037500D01*
X130262500Y-76037500D02*
X184262500Y-76037500D01*
X120262500Y-75037500D02*
X130262500Y-75037500D01*
X118262500Y-90037500D02*
X120262500Y-90037500D01*
X120262500Y-76037500D02*
X118262500Y-76037500D01*
X120262500Y-91037500D02*
X130262500Y-91037500D01*
X118262500Y-90037500D02*
X118262500Y-76037500D01*
X130262500Y-91037500D02*
X130262500Y-90037500D01*
X120262500Y-90037500D02*
X120262500Y-91037500D01*
D11*
X137437500Y-88727500D03*
X139977500Y-88727500D03*
X153547500Y-88727500D03*
X156087500Y-88727500D03*
X156087500Y-77347500D03*
X153547500Y-77347500D03*
X139977500Y-77347500D03*
X137437500Y-77347500D03*
D12*
X179987500Y-77962500D03*
D13*
X182527500Y-77962500D03*
X179987500Y-80502500D03*
X182527500Y-80502500D03*
X179987500Y-83042500D03*
X182527500Y-83042500D03*
X179987500Y-85582500D03*
X182527500Y-85582500D03*
X179987500Y-88122500D03*
X182527500Y-88122500D03*
D11*
X130262500Y-88237500D03*
X130262500Y-77837500D03*
D14*
X122462500Y-75987500D03*
X122462500Y-90087500D03*
X128362500Y-90087500D03*
X128362500Y-75987500D03*
D15*
X120262500Y-78037500D03*
D16*
X148562500Y-77837500D03*
X144562500Y-77837500D03*
G36*
G01*
X151707500Y-81797500D02*
X151707500Y-81477500D01*
G75*
G02*
X151867500Y-81317500I160000J0D01*
G01*
X152262500Y-81317500D01*
G75*
G02*
X152422500Y-81477500I0J-160000D01*
G01*
X152422500Y-81797500D01*
G75*
G02*
X152262500Y-81957500I-160000J0D01*
G01*
X151867500Y-81957500D01*
G75*
G02*
X151707500Y-81797500I0J160000D01*
G01*
G37*
G36*
G01*
X152902500Y-81797500D02*
X152902500Y-81477500D01*
G75*
G02*
X153062500Y-81317500I160000J0D01*
G01*
X153457500Y-81317500D01*
G75*
G02*
X153617500Y-81477500I0J-160000D01*
G01*
X153617500Y-81797500D01*
G75*
G02*
X153457500Y-81957500I-160000J0D01*
G01*
X153062500Y-81957500D01*
G75*
G02*
X152902500Y-81797500I0J160000D01*
G01*
G37*
G36*
G01*
X169102500Y-77007500D02*
X169102500Y-76667500D01*
G75*
G02*
X169242500Y-76527500I140000J0D01*
G01*
X169522500Y-76527500D01*
G75*
G02*
X169662500Y-76667500I0J-140000D01*
G01*
X169662500Y-77007500D01*
G75*
G02*
X169522500Y-77147500I-140000J0D01*
G01*
X169242500Y-77147500D01*
G75*
G02*
X169102500Y-77007500I0J140000D01*
G01*
G37*
G36*
G01*
X170062500Y-77007500D02*
X170062500Y-76667500D01*
G75*
G02*
X170202500Y-76527500I140000J0D01*
G01*
X170482500Y-76527500D01*
G75*
G02*
X170622500Y-76667500I0J-140000D01*
G01*
X170622500Y-77007500D01*
G75*
G02*
X170482500Y-77147500I-140000J0D01*
G01*
X170202500Y-77147500D01*
G75*
G02*
X170062500Y-77007500I0J140000D01*
G01*
G37*
G36*
G01*
X166327500Y-80192500D02*
X166327500Y-79882500D01*
G75*
G02*
X166482500Y-79727500I155000J0D01*
G01*
X166907500Y-79727500D01*
G75*
G02*
X167062500Y-79882500I0J-155000D01*
G01*
X167062500Y-80192500D01*
G75*
G02*
X166907500Y-80347500I-155000J0D01*
G01*
X166482500Y-80347500D01*
G75*
G02*
X166327500Y-80192500I0J155000D01*
G01*
G37*
G36*
G01*
X167462500Y-80192500D02*
X167462500Y-79882500D01*
G75*
G02*
X167617500Y-79727500I155000J0D01*
G01*
X168042500Y-79727500D01*
G75*
G02*
X168197500Y-79882500I0J-155000D01*
G01*
X168197500Y-80192500D01*
G75*
G02*
X168042500Y-80347500I-155000J0D01*
G01*
X167617500Y-80347500D01*
G75*
G02*
X167462500Y-80192500I0J155000D01*
G01*
G37*
G36*
G01*
X158907500Y-77497500D02*
X158907500Y-77177500D01*
G75*
G02*
X159067500Y-77017500I160000J0D01*
G01*
X159462500Y-77017500D01*
G75*
G02*
X159622500Y-77177500I0J-160000D01*
G01*
X159622500Y-77497500D01*
G75*
G02*
X159462500Y-77657500I-160000J0D01*
G01*
X159067500Y-77657500D01*
G75*
G02*
X158907500Y-77497500I0J160000D01*
G01*
G37*
G36*
G01*
X160102500Y-77497500D02*
X160102500Y-77177500D01*
G75*
G02*
X160262500Y-77017500I160000J0D01*
G01*
X160657500Y-77017500D01*
G75*
G02*
X160817500Y-77177500I0J-160000D01*
G01*
X160817500Y-77497500D01*
G75*
G02*
X160657500Y-77657500I-160000J0D01*
G01*
X160262500Y-77657500D01*
G75*
G02*
X160102500Y-77497500I0J160000D01*
G01*
G37*
G36*
G01*
X134112500Y-85962500D02*
X132812500Y-85962500D01*
G75*
G02*
X132562500Y-85712500I0J250000D01*
G01*
X132562500Y-84887500D01*
G75*
G02*
X132812500Y-84637500I250000J0D01*
G01*
X134112500Y-84637500D01*
G75*
G02*
X134362500Y-84887500I0J-250000D01*
G01*
X134362500Y-85712500D01*
G75*
G02*
X134112500Y-85962500I-250000J0D01*
G01*
G37*
G36*
G01*
X134112500Y-82837500D02*
X132812500Y-82837500D01*
G75*
G02*
X132562500Y-82587500I0J250000D01*
G01*
X132562500Y-81762500D01*
G75*
G02*
X132812500Y-81512500I250000J0D01*
G01*
X134112500Y-81512500D01*
G75*
G02*
X134362500Y-81762500I0J-250000D01*
G01*
X134362500Y-82587500D01*
G75*
G02*
X134112500Y-82837500I-250000J0D01*
G01*
G37*
G36*
G01*
X159417500Y-82672500D02*
X159107500Y-82672500D01*
G75*
G02*
X158952500Y-82517500I0J155000D01*
G01*
X158952500Y-82092500D01*
G75*
G02*
X159107500Y-81937500I155000J0D01*
G01*
X159417500Y-81937500D01*
G75*
G02*
X159572500Y-82092500I0J-155000D01*
G01*
X159572500Y-82517500D01*
G75*
G02*
X159417500Y-82672500I-155000J0D01*
G01*
G37*
G36*
G01*
X159417500Y-81537500D02*
X159107500Y-81537500D01*
G75*
G02*
X158952500Y-81382500I0J155000D01*
G01*
X158952500Y-80957500D01*
G75*
G02*
X159107500Y-80802500I155000J0D01*
G01*
X159417500Y-80802500D01*
G75*
G02*
X159572500Y-80957500I0J-155000D01*
G01*
X159572500Y-81382500D01*
G75*
G02*
X159417500Y-81537500I-155000J0D01*
G01*
G37*
G36*
G01*
X151197500Y-80282500D02*
X151197500Y-80592500D01*
G75*
G02*
X151042500Y-80747500I-155000J0D01*
G01*
X150617500Y-80747500D01*
G75*
G02*
X150462500Y-80592500I0J155000D01*
G01*
X150462500Y-80282500D01*
G75*
G02*
X150617500Y-80127500I155000J0D01*
G01*
X151042500Y-80127500D01*
G75*
G02*
X151197500Y-80282500I0J-155000D01*
G01*
G37*
G36*
G01*
X150062500Y-80282500D02*
X150062500Y-80592500D01*
G75*
G02*
X149907500Y-80747500I-155000J0D01*
G01*
X149482500Y-80747500D01*
G75*
G02*
X149327500Y-80592500I0J155000D01*
G01*
X149327500Y-80282500D01*
G75*
G02*
X149482500Y-80127500I155000J0D01*
G01*
X149907500Y-80127500D01*
G75*
G02*
X150062500Y-80282500I0J-155000D01*
G01*
G37*
D17*
X170312500Y-78037500D03*
X170312500Y-79437500D03*
X169212500Y-79437500D03*
X169212500Y-78037500D03*
G36*
G01*
X144912500Y-88762500D02*
X143612500Y-88762500D01*
G75*
G02*
X143362500Y-88512500I0J250000D01*
G01*
X143362500Y-87687500D01*
G75*
G02*
X143612500Y-87437500I250000J0D01*
G01*
X144912500Y-87437500D01*
G75*
G02*
X145162500Y-87687500I0J-250000D01*
G01*
X145162500Y-88512500D01*
G75*
G02*
X144912500Y-88762500I-250000J0D01*
G01*
G37*
G36*
G01*
X144912500Y-85637500D02*
X143612500Y-85637500D01*
G75*
G02*
X143362500Y-85387500I0J250000D01*
G01*
X143362500Y-84562500D01*
G75*
G02*
X143612500Y-84312500I250000J0D01*
G01*
X144912500Y-84312500D01*
G75*
G02*
X145162500Y-84562500I0J-250000D01*
G01*
X145162500Y-85387500D01*
G75*
G02*
X144912500Y-85637500I-250000J0D01*
G01*
G37*
G36*
G01*
X148255000Y-84140000D02*
X148255000Y-84460000D01*
G75*
G02*
X148095000Y-84620000I-160000J0D01*
G01*
X147700000Y-84620000D01*
G75*
G02*
X147540000Y-84460000I0J160000D01*
G01*
X147540000Y-84140000D01*
G75*
G02*
X147700000Y-83980000I160000J0D01*
G01*
X148095000Y-83980000D01*
G75*
G02*
X148255000Y-84140000I0J-160000D01*
G01*
G37*
G36*
G01*
X147060000Y-84140000D02*
X147060000Y-84460000D01*
G75*
G02*
X146900000Y-84620000I-160000J0D01*
G01*
X146505000Y-84620000D01*
G75*
G02*
X146345000Y-84460000I0J160000D01*
G01*
X146345000Y-84140000D01*
G75*
G02*
X146505000Y-83980000I160000J0D01*
G01*
X146900000Y-83980000D01*
G75*
G02*
X147060000Y-84140000I0J-160000D01*
G01*
G37*
G36*
G01*
X127162500Y-85337500D02*
X127162500Y-85037500D01*
G75*
G02*
X127312500Y-84887500I150000J0D01*
G01*
X128337500Y-84887500D01*
G75*
G02*
X128487500Y-85037500I0J-150000D01*
G01*
X128487500Y-85337500D01*
G75*
G02*
X128337500Y-85487500I-150000J0D01*
G01*
X127312500Y-85487500D01*
G75*
G02*
X127162500Y-85337500I0J150000D01*
G01*
G37*
G36*
G01*
X127162500Y-84387500D02*
X127162500Y-84087500D01*
G75*
G02*
X127312500Y-83937500I150000J0D01*
G01*
X128337500Y-83937500D01*
G75*
G02*
X128487500Y-84087500I0J-150000D01*
G01*
X128487500Y-84387500D01*
G75*
G02*
X128337500Y-84537500I-150000J0D01*
G01*
X127312500Y-84537500D01*
G75*
G02*
X127162500Y-84387500I0J150000D01*
G01*
G37*
G36*
G01*
X127162500Y-83437500D02*
X127162500Y-83137500D01*
G75*
G02*
X127312500Y-82987500I150000J0D01*
G01*
X128337500Y-82987500D01*
G75*
G02*
X128487500Y-83137500I0J-150000D01*
G01*
X128487500Y-83437500D01*
G75*
G02*
X128337500Y-83587500I-150000J0D01*
G01*
X127312500Y-83587500D01*
G75*
G02*
X127162500Y-83437500I0J150000D01*
G01*
G37*
G36*
G01*
X129437500Y-83437500D02*
X129437500Y-83137500D01*
G75*
G02*
X129587500Y-82987500I150000J0D01*
G01*
X130612500Y-82987500D01*
G75*
G02*
X130762500Y-83137500I0J-150000D01*
G01*
X130762500Y-83437500D01*
G75*
G02*
X130612500Y-83587500I-150000J0D01*
G01*
X129587500Y-83587500D01*
G75*
G02*
X129437500Y-83437500I0J150000D01*
G01*
G37*
G36*
G01*
X129437500Y-84387500D02*
X129437500Y-84087500D01*
G75*
G02*
X129587500Y-83937500I150000J0D01*
G01*
X130612500Y-83937500D01*
G75*
G02*
X130762500Y-84087500I0J-150000D01*
G01*
X130762500Y-84387500D01*
G75*
G02*
X130612500Y-84537500I-150000J0D01*
G01*
X129587500Y-84537500D01*
G75*
G02*
X129437500Y-84387500I0J150000D01*
G01*
G37*
G36*
G01*
X129437500Y-85337500D02*
X129437500Y-85037500D01*
G75*
G02*
X129587500Y-84887500I150000J0D01*
G01*
X130612500Y-84887500D01*
G75*
G02*
X130762500Y-85037500I0J-150000D01*
G01*
X130762500Y-85337500D01*
G75*
G02*
X130612500Y-85487500I-150000J0D01*
G01*
X129587500Y-85487500D01*
G75*
G02*
X129437500Y-85337500I0J150000D01*
G01*
G37*
G36*
G01*
X151707500Y-80597500D02*
X151707500Y-80277500D01*
G75*
G02*
X151867500Y-80117500I160000J0D01*
G01*
X152262500Y-80117500D01*
G75*
G02*
X152422500Y-80277500I0J-160000D01*
G01*
X152422500Y-80597500D01*
G75*
G02*
X152262500Y-80757500I-160000J0D01*
G01*
X151867500Y-80757500D01*
G75*
G02*
X151707500Y-80597500I0J160000D01*
G01*
G37*
G36*
G01*
X152902500Y-80597500D02*
X152902500Y-80277500D01*
G75*
G02*
X153062500Y-80117500I160000J0D01*
G01*
X153457500Y-80117500D01*
G75*
G02*
X153617500Y-80277500I0J-160000D01*
G01*
X153617500Y-80597500D01*
G75*
G02*
X153457500Y-80757500I-160000J0D01*
G01*
X153062500Y-80757500D01*
G75*
G02*
X152902500Y-80597500I0J160000D01*
G01*
G37*
G36*
G01*
X134117500Y-78272500D02*
X133807500Y-78272500D01*
G75*
G02*
X133652500Y-78117500I0J155000D01*
G01*
X133652500Y-77692500D01*
G75*
G02*
X133807500Y-77537500I155000J0D01*
G01*
X134117500Y-77537500D01*
G75*
G02*
X134272500Y-77692500I0J-155000D01*
G01*
X134272500Y-78117500D01*
G75*
G02*
X134117500Y-78272500I-155000J0D01*
G01*
G37*
G36*
G01*
X134117500Y-77137500D02*
X133807500Y-77137500D01*
G75*
G02*
X133652500Y-76982500I0J155000D01*
G01*
X133652500Y-76557500D01*
G75*
G02*
X133807500Y-76402500I155000J0D01*
G01*
X134117500Y-76402500D01*
G75*
G02*
X134272500Y-76557500I0J-155000D01*
G01*
X134272500Y-76982500D01*
G75*
G02*
X134117500Y-77137500I-155000J0D01*
G01*
G37*
G36*
G01*
X168235000Y-82145000D02*
X168235000Y-82455000D01*
G75*
G02*
X168080000Y-82610000I-155000J0D01*
G01*
X167655000Y-82610000D01*
G75*
G02*
X167500000Y-82455000I0J155000D01*
G01*
X167500000Y-82145000D01*
G75*
G02*
X167655000Y-81990000I155000J0D01*
G01*
X168080000Y-81990000D01*
G75*
G02*
X168235000Y-82145000I0J-155000D01*
G01*
G37*
G36*
G01*
X167100000Y-82145000D02*
X167100000Y-82455000D01*
G75*
G02*
X166945000Y-82610000I-155000J0D01*
G01*
X166520000Y-82610000D01*
G75*
G02*
X166365000Y-82455000I0J155000D01*
G01*
X166365000Y-82145000D01*
G75*
G02*
X166520000Y-81990000I155000J0D01*
G01*
X166945000Y-81990000D01*
G75*
G02*
X167100000Y-82145000I0J-155000D01*
G01*
G37*
D18*
X124137500Y-87427500D03*
X124137500Y-81647500D03*
D19*
X125582500Y-87737500D03*
X125582500Y-86937500D03*
D20*
X125582500Y-85787500D03*
X125582500Y-84787500D03*
X125582500Y-84287500D03*
X125582500Y-83287500D03*
D19*
X125582500Y-82137500D03*
X125582500Y-81337500D03*
X125582500Y-81337500D03*
X125582500Y-82137500D03*
D20*
X125582500Y-82787500D03*
X125582500Y-83787500D03*
X125582500Y-85287500D03*
X125582500Y-86287500D03*
D19*
X125582500Y-86937500D03*
X125582500Y-87737500D03*
G36*
X120837500Y-88987500D02*
G01*
X120730367Y-88971871D01*
X120619736Y-88917793D01*
X120532587Y-88830796D01*
X120478317Y-88720260D01*
X120462500Y-88612500D01*
X120462500Y-87862500D01*
X120478129Y-87755367D01*
X120532207Y-87644736D01*
X120619204Y-87557587D01*
X120729740Y-87503317D01*
X120837500Y-87487500D01*
X123712500Y-87487500D01*
X124462500Y-88237500D01*
X124462500Y-88612500D01*
X124446871Y-88719633D01*
X124392793Y-88830264D01*
X124305796Y-88917413D01*
X124195260Y-88971683D01*
X124087500Y-88987500D01*
X120837500Y-88987500D01*
G37*
D21*
X124667500Y-80217500D03*
D22*
X120487500Y-88857500D03*
D21*
X124667500Y-88857500D03*
G36*
X120837500Y-81587500D02*
G01*
X120730367Y-81571871D01*
X120619736Y-81517793D01*
X120532587Y-81430796D01*
X120478317Y-81320260D01*
X120462500Y-81212500D01*
X120462500Y-80462500D01*
X120478129Y-80355367D01*
X120532207Y-80244736D01*
X120619204Y-80157587D01*
X120729740Y-80103317D01*
X120837500Y-80087500D01*
X124087500Y-80087500D01*
X124194633Y-80103129D01*
X124305264Y-80157207D01*
X124392413Y-80244204D01*
X124446683Y-80354740D01*
X124462500Y-80462500D01*
X124462500Y-80837500D01*
X123712500Y-81587500D01*
X120837500Y-81587500D01*
G37*
D22*
X120487500Y-80217500D03*
G36*
G01*
X144337500Y-81687500D02*
X144337500Y-80387500D01*
G75*
G02*
X144587500Y-80137500I250000J0D01*
G01*
X145412500Y-80137500D01*
G75*
G02*
X145662500Y-80387500I0J-250000D01*
G01*
X145662500Y-81687500D01*
G75*
G02*
X145412500Y-81937500I-250000J0D01*
G01*
X144587500Y-81937500D01*
G75*
G02*
X144337500Y-81687500I0J250000D01*
G01*
G37*
G36*
G01*
X147462500Y-81687500D02*
X147462500Y-80387500D01*
G75*
G02*
X147712500Y-80137500I250000J0D01*
G01*
X148537500Y-80137500D01*
G75*
G02*
X148787500Y-80387500I0J-250000D01*
G01*
X148787500Y-81687500D01*
G75*
G02*
X148537500Y-81937500I-250000J0D01*
G01*
X147712500Y-81937500D01*
G75*
G02*
X147462500Y-81687500I0J250000D01*
G01*
G37*
G36*
G01*
X151197500Y-81482500D02*
X151197500Y-81792500D01*
G75*
G02*
X151042500Y-81947500I-155000J0D01*
G01*
X150617500Y-81947500D01*
G75*
G02*
X150462500Y-81792500I0J155000D01*
G01*
X150462500Y-81482500D01*
G75*
G02*
X150617500Y-81327500I155000J0D01*
G01*
X151042500Y-81327500D01*
G75*
G02*
X151197500Y-81482500I0J-155000D01*
G01*
G37*
G36*
G01*
X150062500Y-81482500D02*
X150062500Y-81792500D01*
G75*
G02*
X149907500Y-81947500I-155000J0D01*
G01*
X149482500Y-81947500D01*
G75*
G02*
X149327500Y-81792500I0J155000D01*
G01*
X149327500Y-81482500D01*
G75*
G02*
X149482500Y-81327500I155000J0D01*
G01*
X149907500Y-81327500D01*
G75*
G02*
X150062500Y-81482500I0J-155000D01*
G01*
G37*
G36*
G01*
X160555000Y-86235000D02*
X160245000Y-86235000D01*
G75*
G02*
X160090000Y-86080000I0J155000D01*
G01*
X160090000Y-85655000D01*
G75*
G02*
X160245000Y-85500000I155000J0D01*
G01*
X160555000Y-85500000D01*
G75*
G02*
X160710000Y-85655000I0J-155000D01*
G01*
X160710000Y-86080000D01*
G75*
G02*
X160555000Y-86235000I-155000J0D01*
G01*
G37*
G36*
G01*
X160555000Y-85100000D02*
X160245000Y-85100000D01*
G75*
G02*
X160090000Y-84945000I0J155000D01*
G01*
X160090000Y-84520000D01*
G75*
G02*
X160245000Y-84365000I155000J0D01*
G01*
X160555000Y-84365000D01*
G75*
G02*
X160710000Y-84520000I0J-155000D01*
G01*
X160710000Y-84945000D01*
G75*
G02*
X160555000Y-85100000I-155000J0D01*
G01*
G37*
G36*
G01*
X173807500Y-82397500D02*
X173807500Y-82077500D01*
G75*
G02*
X173967500Y-81917500I160000J0D01*
G01*
X174362500Y-81917500D01*
G75*
G02*
X174522500Y-82077500I0J-160000D01*
G01*
X174522500Y-82397500D01*
G75*
G02*
X174362500Y-82557500I-160000J0D01*
G01*
X173967500Y-82557500D01*
G75*
G02*
X173807500Y-82397500I0J160000D01*
G01*
G37*
G36*
G01*
X175002500Y-82397500D02*
X175002500Y-82077500D01*
G75*
G02*
X175162500Y-81917500I160000J0D01*
G01*
X175557500Y-81917500D01*
G75*
G02*
X175717500Y-82077500I0J-160000D01*
G01*
X175717500Y-82397500D01*
G75*
G02*
X175557500Y-82557500I-160000J0D01*
G01*
X175162500Y-82557500D01*
G75*
G02*
X175002500Y-82397500I0J160000D01*
G01*
G37*
G36*
G01*
X151000000Y-88937500D02*
X150525000Y-88937500D01*
G75*
G02*
X150287500Y-88700000I0J237500D01*
G01*
X150287500Y-88100000D01*
G75*
G02*
X150525000Y-87862500I237500J0D01*
G01*
X151000000Y-87862500D01*
G75*
G02*
X151237500Y-88100000I0J-237500D01*
G01*
X151237500Y-88700000D01*
G75*
G02*
X151000000Y-88937500I-237500J0D01*
G01*
G37*
G36*
G01*
X151000000Y-87212500D02*
X150525000Y-87212500D01*
G75*
G02*
X150287500Y-86975000I0J237500D01*
G01*
X150287500Y-86375000D01*
G75*
G02*
X150525000Y-86137500I237500J0D01*
G01*
X151000000Y-86137500D01*
G75*
G02*
X151237500Y-86375000I0J-237500D01*
G01*
X151237500Y-86975000D01*
G75*
G02*
X151000000Y-87212500I-237500J0D01*
G01*
G37*
G36*
G01*
X168255000Y-83240000D02*
X168255000Y-83560000D01*
G75*
G02*
X168095000Y-83720000I-160000J0D01*
G01*
X167700000Y-83720000D01*
G75*
G02*
X167540000Y-83560000I0J160000D01*
G01*
X167540000Y-83240000D01*
G75*
G02*
X167700000Y-83080000I160000J0D01*
G01*
X168095000Y-83080000D01*
G75*
G02*
X168255000Y-83240000I0J-160000D01*
G01*
G37*
G36*
G01*
X167060000Y-83240000D02*
X167060000Y-83560000D01*
G75*
G02*
X166900000Y-83720000I-160000J0D01*
G01*
X166505000Y-83720000D01*
G75*
G02*
X166345000Y-83560000I0J160000D01*
G01*
X166345000Y-83240000D01*
G75*
G02*
X166505000Y-83080000I160000J0D01*
G01*
X166900000Y-83080000D01*
G75*
G02*
X167060000Y-83240000I0J-160000D01*
G01*
G37*
G36*
G01*
X166327500Y-79192500D02*
X166327500Y-78882500D01*
G75*
G02*
X166482500Y-78727500I155000J0D01*
G01*
X166907500Y-78727500D01*
G75*
G02*
X167062500Y-78882500I0J-155000D01*
G01*
X167062500Y-79192500D01*
G75*
G02*
X166907500Y-79347500I-155000J0D01*
G01*
X166482500Y-79347500D01*
G75*
G02*
X166327500Y-79192500I0J155000D01*
G01*
G37*
G36*
G01*
X167462500Y-79192500D02*
X167462500Y-78882500D01*
G75*
G02*
X167617500Y-78727500I155000J0D01*
G01*
X168042500Y-78727500D01*
G75*
G02*
X168197500Y-78882500I0J-155000D01*
G01*
X168197500Y-79192500D01*
G75*
G02*
X168042500Y-79347500I-155000J0D01*
G01*
X167617500Y-79347500D01*
G75*
G02*
X167462500Y-79192500I0J155000D01*
G01*
G37*
D23*
X140062500Y-79402500D03*
X140062500Y-80672500D03*
X135462500Y-80672500D03*
X135462500Y-79402500D03*
X140062500Y-82902500D03*
X140062500Y-84172500D03*
X135462500Y-84172500D03*
X135462500Y-82902500D03*
G36*
G01*
X159417500Y-87135000D02*
X159107500Y-87135000D01*
G75*
G02*
X158952500Y-86980000I0J155000D01*
G01*
X158952500Y-86555000D01*
G75*
G02*
X159107500Y-86400000I155000J0D01*
G01*
X159417500Y-86400000D01*
G75*
G02*
X159572500Y-86555000I0J-155000D01*
G01*
X159572500Y-86980000D01*
G75*
G02*
X159417500Y-87135000I-155000J0D01*
G01*
G37*
G36*
G01*
X159417500Y-86000000D02*
X159107500Y-86000000D01*
G75*
G02*
X158952500Y-85845000I0J155000D01*
G01*
X158952500Y-85420000D01*
G75*
G02*
X159107500Y-85265000I155000J0D01*
G01*
X159417500Y-85265000D01*
G75*
G02*
X159572500Y-85420000I0J-155000D01*
G01*
X159572500Y-85845000D01*
G75*
G02*
X159417500Y-86000000I-155000J0D01*
G01*
G37*
G36*
G01*
X169455000Y-88840000D02*
X169455000Y-89160000D01*
G75*
G02*
X169295000Y-89320000I-160000J0D01*
G01*
X168900000Y-89320000D01*
G75*
G02*
X168740000Y-89160000I0J160000D01*
G01*
X168740000Y-88840000D01*
G75*
G02*
X168900000Y-88680000I160000J0D01*
G01*
X169295000Y-88680000D01*
G75*
G02*
X169455000Y-88840000I0J-160000D01*
G01*
G37*
G36*
G01*
X168260000Y-88840000D02*
X168260000Y-89160000D01*
G75*
G02*
X168100000Y-89320000I-160000J0D01*
G01*
X167705000Y-89320000D01*
G75*
G02*
X167545000Y-89160000I0J160000D01*
G01*
X167545000Y-88840000D01*
G75*
G02*
X167705000Y-88680000I160000J0D01*
G01*
X168100000Y-88680000D01*
G75*
G02*
X168260000Y-88840000I0J-160000D01*
G01*
G37*
G36*
G01*
X163465000Y-85292500D02*
X163465000Y-84982500D01*
G75*
G02*
X163620000Y-84827500I155000J0D01*
G01*
X164045000Y-84827500D01*
G75*
G02*
X164200000Y-84982500I0J-155000D01*
G01*
X164200000Y-85292500D01*
G75*
G02*
X164045000Y-85447500I-155000J0D01*
G01*
X163620000Y-85447500D01*
G75*
G02*
X163465000Y-85292500I0J155000D01*
G01*
G37*
G36*
G01*
X164600000Y-85292500D02*
X164600000Y-84982500D01*
G75*
G02*
X164755000Y-84827500I155000J0D01*
G01*
X165180000Y-84827500D01*
G75*
G02*
X165335000Y-84982500I0J-155000D01*
G01*
X165335000Y-85292500D01*
G75*
G02*
X165180000Y-85447500I-155000J0D01*
G01*
X164755000Y-85447500D01*
G75*
G02*
X164600000Y-85292500I0J155000D01*
G01*
G37*
G36*
G01*
X159422500Y-79992500D02*
X159102500Y-79992500D01*
G75*
G02*
X158942500Y-79832500I0J160000D01*
G01*
X158942500Y-79437500D01*
G75*
G02*
X159102500Y-79277500I160000J0D01*
G01*
X159422500Y-79277500D01*
G75*
G02*
X159582500Y-79437500I0J-160000D01*
G01*
X159582500Y-79832500D01*
G75*
G02*
X159422500Y-79992500I-160000J0D01*
G01*
G37*
G36*
G01*
X159422500Y-78797500D02*
X159102500Y-78797500D01*
G75*
G02*
X158942500Y-78637500I0J160000D01*
G01*
X158942500Y-78242500D01*
G75*
G02*
X159102500Y-78082500I160000J0D01*
G01*
X159422500Y-78082500D01*
G75*
G02*
X159582500Y-78242500I0J-160000D01*
G01*
X159582500Y-78637500D01*
G75*
G02*
X159422500Y-78797500I-160000J0D01*
G01*
G37*
G36*
G01*
X171550000Y-81055000D02*
X171550000Y-80755000D01*
G75*
G02*
X171700000Y-80605000I150000J0D01*
G01*
X173350000Y-80605000D01*
G75*
G02*
X173500000Y-80755000I0J-150000D01*
G01*
X173500000Y-81055000D01*
G75*
G02*
X173350000Y-81205000I-150000J0D01*
G01*
X171700000Y-81205000D01*
G75*
G02*
X171550000Y-81055000I0J150000D01*
G01*
G37*
G36*
G01*
X171550000Y-79785000D02*
X171550000Y-79485000D01*
G75*
G02*
X171700000Y-79335000I150000J0D01*
G01*
X173350000Y-79335000D01*
G75*
G02*
X173500000Y-79485000I0J-150000D01*
G01*
X173500000Y-79785000D01*
G75*
G02*
X173350000Y-79935000I-150000J0D01*
G01*
X171700000Y-79935000D01*
G75*
G02*
X171550000Y-79785000I0J150000D01*
G01*
G37*
G36*
G01*
X171550000Y-78515000D02*
X171550000Y-78215000D01*
G75*
G02*
X171700000Y-78065000I150000J0D01*
G01*
X173350000Y-78065000D01*
G75*
G02*
X173500000Y-78215000I0J-150000D01*
G01*
X173500000Y-78515000D01*
G75*
G02*
X173350000Y-78665000I-150000J0D01*
G01*
X171700000Y-78665000D01*
G75*
G02*
X171550000Y-78515000I0J150000D01*
G01*
G37*
G36*
G01*
X171550000Y-77245000D02*
X171550000Y-76945000D01*
G75*
G02*
X171700000Y-76795000I150000J0D01*
G01*
X173350000Y-76795000D01*
G75*
G02*
X173500000Y-76945000I0J-150000D01*
G01*
X173500000Y-77245000D01*
G75*
G02*
X173350000Y-77395000I-150000J0D01*
G01*
X171700000Y-77395000D01*
G75*
G02*
X171550000Y-77245000I0J150000D01*
G01*
G37*
G36*
G01*
X176500000Y-77245000D02*
X176500000Y-76945000D01*
G75*
G02*
X176650000Y-76795000I150000J0D01*
G01*
X178300000Y-76795000D01*
G75*
G02*
X178450000Y-76945000I0J-150000D01*
G01*
X178450000Y-77245000D01*
G75*
G02*
X178300000Y-77395000I-150000J0D01*
G01*
X176650000Y-77395000D01*
G75*
G02*
X176500000Y-77245000I0J150000D01*
G01*
G37*
G36*
G01*
X176500000Y-78515000D02*
X176500000Y-78215000D01*
G75*
G02*
X176650000Y-78065000I150000J0D01*
G01*
X178300000Y-78065000D01*
G75*
G02*
X178450000Y-78215000I0J-150000D01*
G01*
X178450000Y-78515000D01*
G75*
G02*
X178300000Y-78665000I-150000J0D01*
G01*
X176650000Y-78665000D01*
G75*
G02*
X176500000Y-78515000I0J150000D01*
G01*
G37*
G36*
G01*
X176500000Y-79785000D02*
X176500000Y-79485000D01*
G75*
G02*
X176650000Y-79335000I150000J0D01*
G01*
X178300000Y-79335000D01*
G75*
G02*
X178450000Y-79485000I0J-150000D01*
G01*
X178450000Y-79785000D01*
G75*
G02*
X178300000Y-79935000I-150000J0D01*
G01*
X176650000Y-79935000D01*
G75*
G02*
X176500000Y-79785000I0J150000D01*
G01*
G37*
G36*
G01*
X176500000Y-81055000D02*
X176500000Y-80755000D01*
G75*
G02*
X176650000Y-80605000I150000J0D01*
G01*
X178300000Y-80605000D01*
G75*
G02*
X178450000Y-80755000I0J-150000D01*
G01*
X178450000Y-81055000D01*
G75*
G02*
X178300000Y-81205000I-150000J0D01*
G01*
X176650000Y-81205000D01*
G75*
G02*
X176500000Y-81055000I0J150000D01*
G01*
G37*
G36*
G01*
X132267500Y-79587500D02*
X133157500Y-79587500D01*
G75*
G02*
X133262500Y-79692500I0J-105000D01*
G01*
X133262500Y-80182500D01*
G75*
G02*
X133157500Y-80287500I-105000J0D01*
G01*
X132267500Y-80287500D01*
G75*
G02*
X132162500Y-80182500I0J105000D01*
G01*
X132162500Y-79692500D01*
G75*
G02*
X132267500Y-79587500I105000J0D01*
G01*
G37*
G36*
G01*
X132267500Y-76787500D02*
X133157500Y-76787500D01*
G75*
G02*
X133262500Y-76892500I0J-105000D01*
G01*
X133262500Y-77382500D01*
G75*
G02*
X133157500Y-77487500I-105000J0D01*
G01*
X132267500Y-77487500D01*
G75*
G02*
X132162500Y-77382500I0J105000D01*
G01*
X132162500Y-76892500D01*
G75*
G02*
X132267500Y-76787500I105000J0D01*
G01*
G37*
G36*
X131362500Y-79987500D02*
G01*
X131486107Y-80007077D01*
X131597614Y-80063893D01*
X131686107Y-80152386D01*
X131742923Y-80263893D01*
X131762500Y-80387500D01*
X131742923Y-80511107D01*
X131686107Y-80622614D01*
X131597614Y-80711107D01*
X131486107Y-80767923D01*
X131362500Y-80787500D01*
X130962500Y-80787500D01*
X130962500Y-79987500D01*
X131362500Y-79987500D01*
G37*
G36*
X131362500Y-76287500D02*
G01*
X131486107Y-76307077D01*
X131597614Y-76363893D01*
X131686107Y-76452386D01*
X131742923Y-76563893D01*
X131762500Y-76687500D01*
X131742923Y-76811107D01*
X131686107Y-76922614D01*
X131597614Y-77011107D01*
X131486107Y-77067923D01*
X131362500Y-77087500D01*
X130962500Y-77087500D01*
X130962500Y-76287500D01*
X131362500Y-76287500D01*
G37*
G36*
G01*
X130532500Y-76237500D02*
X131092500Y-76237500D01*
G75*
G02*
X131212500Y-76357500I0J-120000D01*
G01*
X131212500Y-77267500D01*
G75*
G02*
X131092500Y-77387500I-120000J0D01*
G01*
X130532500Y-77387500D01*
G75*
G02*
X130412500Y-77267500I0J120000D01*
G01*
X130412500Y-76357500D01*
G75*
G02*
X130532500Y-76237500I120000J0D01*
G01*
G37*
G36*
G01*
X130532500Y-79687500D02*
X131092500Y-79687500D01*
G75*
G02*
X131212500Y-79807500I0J-120000D01*
G01*
X131212500Y-80717500D01*
G75*
G02*
X131092500Y-80837500I-120000J0D01*
G01*
X130532500Y-80837500D01*
G75*
G02*
X130412500Y-80717500I0J120000D01*
G01*
X130412500Y-79807500D01*
G75*
G02*
X130532500Y-79687500I120000J0D01*
G01*
G37*
G36*
G01*
X132477500Y-77837500D02*
X133247500Y-77837500D01*
G75*
G02*
X133412500Y-78002500I0J-165000D01*
G01*
X133412500Y-79072500D01*
G75*
G02*
X133247500Y-79237500I-165000J0D01*
G01*
X132477500Y-79237500D01*
G75*
G02*
X132312500Y-79072500I0J165000D01*
G01*
X132312500Y-78002500D01*
G75*
G02*
X132477500Y-77837500I165000J0D01*
G01*
G37*
G36*
G01*
X131197500Y-86382500D02*
X131197500Y-86692500D01*
G75*
G02*
X131042500Y-86847500I-155000J0D01*
G01*
X130617500Y-86847500D01*
G75*
G02*
X130462500Y-86692500I0J155000D01*
G01*
X130462500Y-86382500D01*
G75*
G02*
X130617500Y-86227500I155000J0D01*
G01*
X131042500Y-86227500D01*
G75*
G02*
X131197500Y-86382500I0J-155000D01*
G01*
G37*
G36*
G01*
X130062500Y-86382500D02*
X130062500Y-86692500D01*
G75*
G02*
X129907500Y-86847500I-155000J0D01*
G01*
X129482500Y-86847500D01*
G75*
G02*
X129327500Y-86692500I0J155000D01*
G01*
X129327500Y-86382500D01*
G75*
G02*
X129482500Y-86227500I155000J0D01*
G01*
X129907500Y-86227500D01*
G75*
G02*
X130062500Y-86382500I0J-155000D01*
G01*
G37*
D24*
X131912500Y-88237500D03*
X128612500Y-88237500D03*
G36*
G01*
X168135000Y-77845000D02*
X168135000Y-78155000D01*
G75*
G02*
X167980000Y-78310000I-155000J0D01*
G01*
X167555000Y-78310000D01*
G75*
G02*
X167400000Y-78155000I0J155000D01*
G01*
X167400000Y-77845000D01*
G75*
G02*
X167555000Y-77690000I155000J0D01*
G01*
X167980000Y-77690000D01*
G75*
G02*
X168135000Y-77845000I0J-155000D01*
G01*
G37*
G36*
G01*
X167000000Y-77845000D02*
X167000000Y-78155000D01*
G75*
G02*
X166845000Y-78310000I-155000J0D01*
G01*
X166420000Y-78310000D01*
G75*
G02*
X166265000Y-78155000I0J155000D01*
G01*
X166265000Y-77845000D01*
G75*
G02*
X166420000Y-77690000I155000J0D01*
G01*
X166845000Y-77690000D01*
G75*
G02*
X167000000Y-77845000I0J-155000D01*
G01*
G37*
G36*
G01*
X169950000Y-89155000D02*
X169950000Y-88855000D01*
G75*
G02*
X170100000Y-88705000I150000J0D01*
G01*
X171750000Y-88705000D01*
G75*
G02*
X171900000Y-88855000I0J-150000D01*
G01*
X171900000Y-89155000D01*
G75*
G02*
X171750000Y-89305000I-150000J0D01*
G01*
X170100000Y-89305000D01*
G75*
G02*
X169950000Y-89155000I0J150000D01*
G01*
G37*
G36*
G01*
X169950000Y-87885000D02*
X169950000Y-87585000D01*
G75*
G02*
X170100000Y-87435000I150000J0D01*
G01*
X171750000Y-87435000D01*
G75*
G02*
X171900000Y-87585000I0J-150000D01*
G01*
X171900000Y-87885000D01*
G75*
G02*
X171750000Y-88035000I-150000J0D01*
G01*
X170100000Y-88035000D01*
G75*
G02*
X169950000Y-87885000I0J150000D01*
G01*
G37*
G36*
G01*
X169950000Y-86615000D02*
X169950000Y-86315000D01*
G75*
G02*
X170100000Y-86165000I150000J0D01*
G01*
X171750000Y-86165000D01*
G75*
G02*
X171900000Y-86315000I0J-150000D01*
G01*
X171900000Y-86615000D01*
G75*
G02*
X171750000Y-86765000I-150000J0D01*
G01*
X170100000Y-86765000D01*
G75*
G02*
X169950000Y-86615000I0J150000D01*
G01*
G37*
G36*
G01*
X169950000Y-85345000D02*
X169950000Y-85045000D01*
G75*
G02*
X170100000Y-84895000I150000J0D01*
G01*
X171750000Y-84895000D01*
G75*
G02*
X171900000Y-85045000I0J-150000D01*
G01*
X171900000Y-85345000D01*
G75*
G02*
X171750000Y-85495000I-150000J0D01*
G01*
X170100000Y-85495000D01*
G75*
G02*
X169950000Y-85345000I0J150000D01*
G01*
G37*
G36*
G01*
X174900000Y-85345000D02*
X174900000Y-85045000D01*
G75*
G02*
X175050000Y-84895000I150000J0D01*
G01*
X176700000Y-84895000D01*
G75*
G02*
X176850000Y-85045000I0J-150000D01*
G01*
X176850000Y-85345000D01*
G75*
G02*
X176700000Y-85495000I-150000J0D01*
G01*
X175050000Y-85495000D01*
G75*
G02*
X174900000Y-85345000I0J150000D01*
G01*
G37*
G36*
G01*
X174900000Y-86615000D02*
X174900000Y-86315000D01*
G75*
G02*
X175050000Y-86165000I150000J0D01*
G01*
X176700000Y-86165000D01*
G75*
G02*
X176850000Y-86315000I0J-150000D01*
G01*
X176850000Y-86615000D01*
G75*
G02*
X176700000Y-86765000I-150000J0D01*
G01*
X175050000Y-86765000D01*
G75*
G02*
X174900000Y-86615000I0J150000D01*
G01*
G37*
G36*
G01*
X174900000Y-87885000D02*
X174900000Y-87585000D01*
G75*
G02*
X175050000Y-87435000I150000J0D01*
G01*
X176700000Y-87435000D01*
G75*
G02*
X176850000Y-87585000I0J-150000D01*
G01*
X176850000Y-87885000D01*
G75*
G02*
X176700000Y-88035000I-150000J0D01*
G01*
X175050000Y-88035000D01*
G75*
G02*
X174900000Y-87885000I0J150000D01*
G01*
G37*
G36*
G01*
X174900000Y-89155000D02*
X174900000Y-88855000D01*
G75*
G02*
X175050000Y-88705000I150000J0D01*
G01*
X176700000Y-88705000D01*
G75*
G02*
X176850000Y-88855000I0J-150000D01*
G01*
X176850000Y-89155000D01*
G75*
G02*
X176700000Y-89305000I-150000J0D01*
G01*
X175050000Y-89305000D01*
G75*
G02*
X174900000Y-89155000I0J150000D01*
G01*
G37*
G36*
G01*
X166062500Y-79224993D02*
X166062500Y-79349993D01*
G75*
G02*
X166000000Y-79412493I-62500J0D01*
G01*
X165125000Y-79412493D01*
G75*
G02*
X165062500Y-79349993I0J62500D01*
G01*
X165062500Y-79224993D01*
G75*
G02*
X165125000Y-79162493I62500J0D01*
G01*
X166000000Y-79162493D01*
G75*
G02*
X166062500Y-79224993I0J-62500D01*
G01*
G37*
G36*
G01*
X166062500Y-79724993D02*
X166062500Y-79849993D01*
G75*
G02*
X166000000Y-79912493I-62500J0D01*
G01*
X165125000Y-79912493D01*
G75*
G02*
X165062500Y-79849993I0J62500D01*
G01*
X165062500Y-79724993D01*
G75*
G02*
X165125000Y-79662493I62500J0D01*
G01*
X166000000Y-79662493D01*
G75*
G02*
X166062500Y-79724993I0J-62500D01*
G01*
G37*
G36*
G01*
X166062500Y-80224993D02*
X166062500Y-80349993D01*
G75*
G02*
X166000000Y-80412493I-62500J0D01*
G01*
X165125000Y-80412493D01*
G75*
G02*
X165062500Y-80349993I0J62500D01*
G01*
X165062500Y-80224993D01*
G75*
G02*
X165125000Y-80162493I62500J0D01*
G01*
X166000000Y-80162493D01*
G75*
G02*
X166062500Y-80224993I0J-62500D01*
G01*
G37*
G36*
G01*
X166062500Y-80724993D02*
X166062500Y-80849993D01*
G75*
G02*
X166000000Y-80912493I-62500J0D01*
G01*
X165125000Y-80912493D01*
G75*
G02*
X165062500Y-80849993I0J62500D01*
G01*
X165062500Y-80724993D01*
G75*
G02*
X165125000Y-80662493I62500J0D01*
G01*
X166000000Y-80662493D01*
G75*
G02*
X166062500Y-80724993I0J-62500D01*
G01*
G37*
G36*
G01*
X166062500Y-81224993D02*
X166062500Y-81349993D01*
G75*
G02*
X166000000Y-81412493I-62500J0D01*
G01*
X165125000Y-81412493D01*
G75*
G02*
X165062500Y-81349993I0J62500D01*
G01*
X165062500Y-81224993D01*
G75*
G02*
X165125000Y-81162493I62500J0D01*
G01*
X166000000Y-81162493D01*
G75*
G02*
X166062500Y-81224993I0J-62500D01*
G01*
G37*
G36*
G01*
X166062500Y-81724993D02*
X166062500Y-81849993D01*
G75*
G02*
X166000000Y-81912493I-62500J0D01*
G01*
X165125000Y-81912493D01*
G75*
G02*
X165062500Y-81849993I0J62500D01*
G01*
X165062500Y-81724993D01*
G75*
G02*
X165125000Y-81662493I62500J0D01*
G01*
X166000000Y-81662493D01*
G75*
G02*
X166062500Y-81724993I0J-62500D01*
G01*
G37*
G36*
G01*
X166062500Y-82224993D02*
X166062500Y-82349993D01*
G75*
G02*
X166000000Y-82412493I-62500J0D01*
G01*
X165125000Y-82412493D01*
G75*
G02*
X165062500Y-82349993I0J62500D01*
G01*
X165062500Y-82224993D01*
G75*
G02*
X165125000Y-82162493I62500J0D01*
G01*
X166000000Y-82162493D01*
G75*
G02*
X166062500Y-82224993I0J-62500D01*
G01*
G37*
G36*
G01*
X166062500Y-82724993D02*
X166062500Y-82849993D01*
G75*
G02*
X166000000Y-82912493I-62500J0D01*
G01*
X165125000Y-82912493D01*
G75*
G02*
X165062500Y-82849993I0J62500D01*
G01*
X165062500Y-82724993D01*
G75*
G02*
X165125000Y-82662493I62500J0D01*
G01*
X166000000Y-82662493D01*
G75*
G02*
X166062500Y-82724993I0J-62500D01*
G01*
G37*
G36*
G01*
X164837500Y-83199993D02*
X164837500Y-84074993D01*
G75*
G02*
X164775000Y-84137493I-62500J0D01*
G01*
X164650000Y-84137493D01*
G75*
G02*
X164587500Y-84074993I0J62500D01*
G01*
X164587500Y-83199993D01*
G75*
G02*
X164650000Y-83137493I62500J0D01*
G01*
X164775000Y-83137493D01*
G75*
G02*
X164837500Y-83199993I0J-62500D01*
G01*
G37*
G36*
G01*
X164337500Y-83199993D02*
X164337500Y-84074993D01*
G75*
G02*
X164275000Y-84137493I-62500J0D01*
G01*
X164150000Y-84137493D01*
G75*
G02*
X164087500Y-84074993I0J62500D01*
G01*
X164087500Y-83199993D01*
G75*
G02*
X164150000Y-83137493I62500J0D01*
G01*
X164275000Y-83137493D01*
G75*
G02*
X164337500Y-83199993I0J-62500D01*
G01*
G37*
G36*
G01*
X163837500Y-83199993D02*
X163837500Y-84074993D01*
G75*
G02*
X163775000Y-84137493I-62500J0D01*
G01*
X163650000Y-84137493D01*
G75*
G02*
X163587500Y-84074993I0J62500D01*
G01*
X163587500Y-83199993D01*
G75*
G02*
X163650000Y-83137493I62500J0D01*
G01*
X163775000Y-83137493D01*
G75*
G02*
X163837500Y-83199993I0J-62500D01*
G01*
G37*
G36*
G01*
X163337500Y-83199993D02*
X163337500Y-84074993D01*
G75*
G02*
X163275000Y-84137493I-62500J0D01*
G01*
X163150000Y-84137493D01*
G75*
G02*
X163087500Y-84074993I0J62500D01*
G01*
X163087500Y-83199993D01*
G75*
G02*
X163150000Y-83137493I62500J0D01*
G01*
X163275000Y-83137493D01*
G75*
G02*
X163337500Y-83199993I0J-62500D01*
G01*
G37*
G36*
G01*
X162837500Y-83199993D02*
X162837500Y-84074993D01*
G75*
G02*
X162775000Y-84137493I-62500J0D01*
G01*
X162650000Y-84137493D01*
G75*
G02*
X162587500Y-84074993I0J62500D01*
G01*
X162587500Y-83199993D01*
G75*
G02*
X162650000Y-83137493I62500J0D01*
G01*
X162775000Y-83137493D01*
G75*
G02*
X162837500Y-83199993I0J-62500D01*
G01*
G37*
G36*
G01*
X162337500Y-83199993D02*
X162337500Y-84074993D01*
G75*
G02*
X162275000Y-84137493I-62500J0D01*
G01*
X162150000Y-84137493D01*
G75*
G02*
X162087500Y-84074993I0J62500D01*
G01*
X162087500Y-83199993D01*
G75*
G02*
X162150000Y-83137493I62500J0D01*
G01*
X162275000Y-83137493D01*
G75*
G02*
X162337500Y-83199993I0J-62500D01*
G01*
G37*
G36*
G01*
X161837500Y-83199993D02*
X161837500Y-84074993D01*
G75*
G02*
X161775000Y-84137493I-62500J0D01*
G01*
X161650000Y-84137493D01*
G75*
G02*
X161587500Y-84074993I0J62500D01*
G01*
X161587500Y-83199993D01*
G75*
G02*
X161650000Y-83137493I62500J0D01*
G01*
X161775000Y-83137493D01*
G75*
G02*
X161837500Y-83199993I0J-62500D01*
G01*
G37*
G36*
G01*
X161337500Y-83199993D02*
X161337500Y-84074993D01*
G75*
G02*
X161275000Y-84137493I-62500J0D01*
G01*
X161150000Y-84137493D01*
G75*
G02*
X161087500Y-84074993I0J62500D01*
G01*
X161087500Y-83199993D01*
G75*
G02*
X161150000Y-83137493I62500J0D01*
G01*
X161275000Y-83137493D01*
G75*
G02*
X161337500Y-83199993I0J-62500D01*
G01*
G37*
G36*
G01*
X160862500Y-82724993D02*
X160862500Y-82849993D01*
G75*
G02*
X160800000Y-82912493I-62500J0D01*
G01*
X159925000Y-82912493D01*
G75*
G02*
X159862500Y-82849993I0J62500D01*
G01*
X159862500Y-82724993D01*
G75*
G02*
X159925000Y-82662493I62500J0D01*
G01*
X160800000Y-82662493D01*
G75*
G02*
X160862500Y-82724993I0J-62500D01*
G01*
G37*
G36*
G01*
X160862500Y-82224993D02*
X160862500Y-82349993D01*
G75*
G02*
X160800000Y-82412493I-62500J0D01*
G01*
X159925000Y-82412493D01*
G75*
G02*
X159862500Y-82349993I0J62500D01*
G01*
X159862500Y-82224993D01*
G75*
G02*
X159925000Y-82162493I62500J0D01*
G01*
X160800000Y-82162493D01*
G75*
G02*
X160862500Y-82224993I0J-62500D01*
G01*
G37*
G36*
G01*
X160862500Y-81724993D02*
X160862500Y-81849993D01*
G75*
G02*
X160800000Y-81912493I-62500J0D01*
G01*
X159925000Y-81912493D01*
G75*
G02*
X159862500Y-81849993I0J62500D01*
G01*
X159862500Y-81724993D01*
G75*
G02*
X159925000Y-81662493I62500J0D01*
G01*
X160800000Y-81662493D01*
G75*
G02*
X160862500Y-81724993I0J-62500D01*
G01*
G37*
G36*
G01*
X160862500Y-81224993D02*
X160862500Y-81349993D01*
G75*
G02*
X160800000Y-81412493I-62500J0D01*
G01*
X159925000Y-81412493D01*
G75*
G02*
X159862500Y-81349993I0J62500D01*
G01*
X159862500Y-81224993D01*
G75*
G02*
X159925000Y-81162493I62500J0D01*
G01*
X160800000Y-81162493D01*
G75*
G02*
X160862500Y-81224993I0J-62500D01*
G01*
G37*
G36*
G01*
X160862500Y-80724993D02*
X160862500Y-80849993D01*
G75*
G02*
X160800000Y-80912493I-62500J0D01*
G01*
X159925000Y-80912493D01*
G75*
G02*
X159862500Y-80849993I0J62500D01*
G01*
X159862500Y-80724993D01*
G75*
G02*
X159925000Y-80662493I62500J0D01*
G01*
X160800000Y-80662493D01*
G75*
G02*
X160862500Y-80724993I0J-62500D01*
G01*
G37*
G36*
G01*
X160862500Y-80224993D02*
X160862500Y-80349993D01*
G75*
G02*
X160800000Y-80412493I-62500J0D01*
G01*
X159925000Y-80412493D01*
G75*
G02*
X159862500Y-80349993I0J62500D01*
G01*
X159862500Y-80224993D01*
G75*
G02*
X159925000Y-80162493I62500J0D01*
G01*
X160800000Y-80162493D01*
G75*
G02*
X160862500Y-80224993I0J-62500D01*
G01*
G37*
G36*
G01*
X160862500Y-79724993D02*
X160862500Y-79849993D01*
G75*
G02*
X160800000Y-79912493I-62500J0D01*
G01*
X159925000Y-79912493D01*
G75*
G02*
X159862500Y-79849993I0J62500D01*
G01*
X159862500Y-79724993D01*
G75*
G02*
X159925000Y-79662493I62500J0D01*
G01*
X160800000Y-79662493D01*
G75*
G02*
X160862500Y-79724993I0J-62500D01*
G01*
G37*
G36*
G01*
X160862500Y-79224993D02*
X160862500Y-79349993D01*
G75*
G02*
X160800000Y-79412493I-62500J0D01*
G01*
X159925000Y-79412493D01*
G75*
G02*
X159862500Y-79349993I0J62500D01*
G01*
X159862500Y-79224993D01*
G75*
G02*
X159925000Y-79162493I62500J0D01*
G01*
X160800000Y-79162493D01*
G75*
G02*
X160862500Y-79224993I0J-62500D01*
G01*
G37*
G36*
G01*
X161337500Y-77999993D02*
X161337500Y-78874993D01*
G75*
G02*
X161275000Y-78937493I-62500J0D01*
G01*
X161150000Y-78937493D01*
G75*
G02*
X161087500Y-78874993I0J62500D01*
G01*
X161087500Y-77999993D01*
G75*
G02*
X161150000Y-77937493I62500J0D01*
G01*
X161275000Y-77937493D01*
G75*
G02*
X161337500Y-77999993I0J-62500D01*
G01*
G37*
G36*
G01*
X161837500Y-77999993D02*
X161837500Y-78874993D01*
G75*
G02*
X161775000Y-78937493I-62500J0D01*
G01*
X161650000Y-78937493D01*
G75*
G02*
X161587500Y-78874993I0J62500D01*
G01*
X161587500Y-77999993D01*
G75*
G02*
X161650000Y-77937493I62500J0D01*
G01*
X161775000Y-77937493D01*
G75*
G02*
X161837500Y-77999993I0J-62500D01*
G01*
G37*
G36*
G01*
X162337500Y-77999993D02*
X162337500Y-78874993D01*
G75*
G02*
X162275000Y-78937493I-62500J0D01*
G01*
X162150000Y-78937493D01*
G75*
G02*
X162087500Y-78874993I0J62500D01*
G01*
X162087500Y-77999993D01*
G75*
G02*
X162150000Y-77937493I62500J0D01*
G01*
X162275000Y-77937493D01*
G75*
G02*
X162337500Y-77999993I0J-62500D01*
G01*
G37*
G36*
G01*
X162837500Y-77999993D02*
X162837500Y-78874993D01*
G75*
G02*
X162775000Y-78937493I-62500J0D01*
G01*
X162650000Y-78937493D01*
G75*
G02*
X162587500Y-78874993I0J62500D01*
G01*
X162587500Y-77999993D01*
G75*
G02*
X162650000Y-77937493I62500J0D01*
G01*
X162775000Y-77937493D01*
G75*
G02*
X162837500Y-77999993I0J-62500D01*
G01*
G37*
G36*
G01*
X163337500Y-77999993D02*
X163337500Y-78874993D01*
G75*
G02*
X163275000Y-78937493I-62500J0D01*
G01*
X163150000Y-78937493D01*
G75*
G02*
X163087500Y-78874993I0J62500D01*
G01*
X163087500Y-77999993D01*
G75*
G02*
X163150000Y-77937493I62500J0D01*
G01*
X163275000Y-77937493D01*
G75*
G02*
X163337500Y-77999993I0J-62500D01*
G01*
G37*
G36*
G01*
X163837500Y-77999993D02*
X163837500Y-78874993D01*
G75*
G02*
X163775000Y-78937493I-62500J0D01*
G01*
X163650000Y-78937493D01*
G75*
G02*
X163587500Y-78874993I0J62500D01*
G01*
X163587500Y-77999993D01*
G75*
G02*
X163650000Y-77937493I62500J0D01*
G01*
X163775000Y-77937493D01*
G75*
G02*
X163837500Y-77999993I0J-62500D01*
G01*
G37*
G36*
G01*
X164337500Y-77999993D02*
X164337500Y-78874993D01*
G75*
G02*
X164275000Y-78937493I-62500J0D01*
G01*
X164150000Y-78937493D01*
G75*
G02*
X164087500Y-78874993I0J62500D01*
G01*
X164087500Y-77999993D01*
G75*
G02*
X164150000Y-77937493I62500J0D01*
G01*
X164275000Y-77937493D01*
G75*
G02*
X164337500Y-77999993I0J-62500D01*
G01*
G37*
G36*
G01*
X164837500Y-77999993D02*
X164837500Y-78874993D01*
G75*
G02*
X164775000Y-78937493I-62500J0D01*
G01*
X164650000Y-78937493D01*
G75*
G02*
X164587500Y-78874993I0J62500D01*
G01*
X164587500Y-77999993D01*
G75*
G02*
X164650000Y-77937493I62500J0D01*
G01*
X164775000Y-77937493D01*
G75*
G02*
X164837500Y-77999993I0J-62500D01*
G01*
G37*
D25*
X162962500Y-81037493D03*
G36*
G01*
X159107500Y-83002500D02*
X159417500Y-83002500D01*
G75*
G02*
X159572500Y-83157500I0J-155000D01*
G01*
X159572500Y-83582500D01*
G75*
G02*
X159417500Y-83737500I-155000J0D01*
G01*
X159107500Y-83737500D01*
G75*
G02*
X158952500Y-83582500I0J155000D01*
G01*
X158952500Y-83157500D01*
G75*
G02*
X159107500Y-83002500I155000J0D01*
G01*
G37*
G36*
G01*
X159107500Y-84137500D02*
X159417500Y-84137500D01*
G75*
G02*
X159572500Y-84292500I0J-155000D01*
G01*
X159572500Y-84717500D01*
G75*
G02*
X159417500Y-84872500I-155000J0D01*
G01*
X159107500Y-84872500D01*
G75*
G02*
X158952500Y-84717500I0J155000D01*
G01*
X158952500Y-84292500D01*
G75*
G02*
X159107500Y-84137500I155000J0D01*
G01*
G37*
G36*
G01*
X149717500Y-88772500D02*
X149407500Y-88772500D01*
G75*
G02*
X149252500Y-88617500I0J155000D01*
G01*
X149252500Y-88192500D01*
G75*
G02*
X149407500Y-88037500I155000J0D01*
G01*
X149717500Y-88037500D01*
G75*
G02*
X149872500Y-88192500I0J-155000D01*
G01*
X149872500Y-88617500D01*
G75*
G02*
X149717500Y-88772500I-155000J0D01*
G01*
G37*
G36*
G01*
X149717500Y-87637500D02*
X149407500Y-87637500D01*
G75*
G02*
X149252500Y-87482500I0J155000D01*
G01*
X149252500Y-87057500D01*
G75*
G02*
X149407500Y-86902500I155000J0D01*
G01*
X149717500Y-86902500D01*
G75*
G02*
X149872500Y-87057500I0J-155000D01*
G01*
X149872500Y-87482500D01*
G75*
G02*
X149717500Y-87637500I-155000J0D01*
G01*
G37*
G36*
G01*
X129517500Y-81577500D02*
X129517500Y-81897500D01*
G75*
G02*
X129357500Y-82057500I-160000J0D01*
G01*
X128962500Y-82057500D01*
G75*
G02*
X128802500Y-81897500I0J160000D01*
G01*
X128802500Y-81577500D01*
G75*
G02*
X128962500Y-81417500I160000J0D01*
G01*
X129357500Y-81417500D01*
G75*
G02*
X129517500Y-81577500I0J-160000D01*
G01*
G37*
G36*
G01*
X128322500Y-81577500D02*
X128322500Y-81897500D01*
G75*
G02*
X128162500Y-82057500I-160000J0D01*
G01*
X127767500Y-82057500D01*
G75*
G02*
X127607500Y-81897500I0J160000D01*
G01*
X127607500Y-81577500D01*
G75*
G02*
X127767500Y-81417500I160000J0D01*
G01*
X128162500Y-81417500D01*
G75*
G02*
X128322500Y-81577500I0J-160000D01*
G01*
G37*
G36*
G01*
X149407500Y-84702500D02*
X149717500Y-84702500D01*
G75*
G02*
X149872500Y-84857500I0J-155000D01*
G01*
X149872500Y-85282500D01*
G75*
G02*
X149717500Y-85437500I-155000J0D01*
G01*
X149407500Y-85437500D01*
G75*
G02*
X149252500Y-85282500I0J155000D01*
G01*
X149252500Y-84857500D01*
G75*
G02*
X149407500Y-84702500I155000J0D01*
G01*
G37*
G36*
G01*
X149407500Y-85837500D02*
X149717500Y-85837500D01*
G75*
G02*
X149872500Y-85992500I0J-155000D01*
G01*
X149872500Y-86417500D01*
G75*
G02*
X149717500Y-86572500I-155000J0D01*
G01*
X149407500Y-86572500D01*
G75*
G02*
X149252500Y-86417500I0J155000D01*
G01*
X149252500Y-85992500D01*
G75*
G02*
X149407500Y-85837500I155000J0D01*
G01*
G37*
G36*
G01*
X148362500Y-88737500D02*
X148062500Y-88737500D01*
G75*
G02*
X147912500Y-88587500I0J150000D01*
G01*
X147912500Y-87562500D01*
G75*
G02*
X148062500Y-87412500I150000J0D01*
G01*
X148362500Y-87412500D01*
G75*
G02*
X148512500Y-87562500I0J-150000D01*
G01*
X148512500Y-88587500D01*
G75*
G02*
X148362500Y-88737500I-150000J0D01*
G01*
G37*
G36*
G01*
X147412500Y-88737500D02*
X147112500Y-88737500D01*
G75*
G02*
X146962500Y-88587500I0J150000D01*
G01*
X146962500Y-87562500D01*
G75*
G02*
X147112500Y-87412500I150000J0D01*
G01*
X147412500Y-87412500D01*
G75*
G02*
X147562500Y-87562500I0J-150000D01*
G01*
X147562500Y-88587500D01*
G75*
G02*
X147412500Y-88737500I-150000J0D01*
G01*
G37*
G36*
G01*
X146462500Y-88737500D02*
X146162500Y-88737500D01*
G75*
G02*
X146012500Y-88587500I0J150000D01*
G01*
X146012500Y-87562500D01*
G75*
G02*
X146162500Y-87412500I150000J0D01*
G01*
X146462500Y-87412500D01*
G75*
G02*
X146612500Y-87562500I0J-150000D01*
G01*
X146612500Y-88587500D01*
G75*
G02*
X146462500Y-88737500I-150000J0D01*
G01*
G37*
G36*
G01*
X146462500Y-86462500D02*
X146162500Y-86462500D01*
G75*
G02*
X146012500Y-86312500I0J150000D01*
G01*
X146012500Y-85287500D01*
G75*
G02*
X146162500Y-85137500I150000J0D01*
G01*
X146462500Y-85137500D01*
G75*
G02*
X146612500Y-85287500I0J-150000D01*
G01*
X146612500Y-86312500D01*
G75*
G02*
X146462500Y-86462500I-150000J0D01*
G01*
G37*
G36*
G01*
X148362500Y-86462500D02*
X148062500Y-86462500D01*
G75*
G02*
X147912500Y-86312500I0J150000D01*
G01*
X147912500Y-85287500D01*
G75*
G02*
X148062500Y-85137500I150000J0D01*
G01*
X148362500Y-85137500D01*
G75*
G02*
X148512500Y-85287500I0J-150000D01*
G01*
X148512500Y-86312500D01*
G75*
G02*
X148362500Y-86462500I-150000J0D01*
G01*
G37*
G36*
G01*
X169002500Y-80807500D02*
X169002500Y-80467500D01*
G75*
G02*
X169142500Y-80327500I140000J0D01*
G01*
X169422500Y-80327500D01*
G75*
G02*
X169562500Y-80467500I0J-140000D01*
G01*
X169562500Y-80807500D01*
G75*
G02*
X169422500Y-80947500I-140000J0D01*
G01*
X169142500Y-80947500D01*
G75*
G02*
X169002500Y-80807500I0J140000D01*
G01*
G37*
G36*
G01*
X169962500Y-80807500D02*
X169962500Y-80467500D01*
G75*
G02*
X170102500Y-80327500I140000J0D01*
G01*
X170382500Y-80327500D01*
G75*
G02*
X170522500Y-80467500I0J-140000D01*
G01*
X170522500Y-80807500D01*
G75*
G02*
X170382500Y-80947500I-140000J0D01*
G01*
X170102500Y-80947500D01*
G75*
G02*
X169962500Y-80807500I0J140000D01*
G01*
G37*
G36*
G01*
X171545000Y-83960000D02*
X171545000Y-83640000D01*
G75*
G02*
X171705000Y-83480000I160000J0D01*
G01*
X172100000Y-83480000D01*
G75*
G02*
X172260000Y-83640000I0J-160000D01*
G01*
X172260000Y-83960000D01*
G75*
G02*
X172100000Y-84120000I-160000J0D01*
G01*
X171705000Y-84120000D01*
G75*
G02*
X171545000Y-83960000I0J160000D01*
G01*
G37*
G36*
G01*
X172740000Y-83960000D02*
X172740000Y-83640000D01*
G75*
G02*
X172900000Y-83480000I160000J0D01*
G01*
X173295000Y-83480000D01*
G75*
G02*
X173455000Y-83640000I0J-160000D01*
G01*
X173455000Y-83960000D01*
G75*
G02*
X173295000Y-84120000I-160000J0D01*
G01*
X172900000Y-84120000D01*
G75*
G02*
X172740000Y-83960000I0J160000D01*
G01*
G37*
G36*
G01*
X127007500Y-86697500D02*
X127007500Y-86377500D01*
G75*
G02*
X127167500Y-86217500I160000J0D01*
G01*
X127562500Y-86217500D01*
G75*
G02*
X127722500Y-86377500I0J-160000D01*
G01*
X127722500Y-86697500D01*
G75*
G02*
X127562500Y-86857500I-160000J0D01*
G01*
X127167500Y-86857500D01*
G75*
G02*
X127007500Y-86697500I0J160000D01*
G01*
G37*
G36*
G01*
X128202500Y-86697500D02*
X128202500Y-86377500D01*
G75*
G02*
X128362500Y-86217500I160000J0D01*
G01*
X128757500Y-86217500D01*
G75*
G02*
X128917500Y-86377500I0J-160000D01*
G01*
X128917500Y-86697500D01*
G75*
G02*
X128757500Y-86857500I-160000J0D01*
G01*
X128362500Y-86857500D01*
G75*
G02*
X128202500Y-86697500I0J160000D01*
G01*
G37*
M02*
