G04 #@! TF.GenerationSoftware,KiCad,Pcbnew,6.0.10+dfsg-1~bpo11+1*
G04 #@! TF.ProjectId,project,70726f6a-6563-4742-9e6b-696361645f70,rev?*
G04 #@! TF.SameCoordinates,Original*
G04 #@! TF.FileFunction,Copper,L5,Inr*
G04 #@! TF.FilePolarity,Positive*
%FSLAX46Y46*%
G04 Gerber Fmt 4.6, Leading zero omitted, Abs format (unit mm)*
%MOMM*%
%LPD*%
G01*
G04 APERTURE LIST*
G04 #@! TA.AperFunction,Profile*
%ADD10C,0.100000*%
G04 #@! TD*
G04 #@! TA.AperFunction,ComponentPad*
%ADD11C,1.800000*%
G04 #@! TD*
G04 #@! TA.AperFunction,ComponentPad*
%ADD12R,1.700000X1.700000*%
G04 #@! TD*
G04 #@! TA.AperFunction,ComponentPad*
%ADD13O,1.700000X1.700000*%
G04 #@! TD*
G04 #@! TA.AperFunction,ComponentPad*
%ADD14O,2.750000X1.450000*%
G04 #@! TD*
G04 #@! TA.AperFunction,ComponentPad*
%ADD15O,2.100000X1.000000*%
G04 #@! TD*
G04 #@! TA.AperFunction,ComponentPad*
%ADD16O,1.600000X1.000000*%
G04 #@! TD*
G04 #@! TA.AperFunction,ViaPad*
%ADD17C,0.450000*%
G04 #@! TD*
G04 APERTURE END LIST*
D10*
X120262500Y-76037500D02*
X120262500Y-75037500D01*
X184262500Y-76037500D02*
X184262500Y-90037500D01*
X184262500Y-90037500D02*
X130262500Y-90037500D01*
X130262500Y-75037500D02*
X130262500Y-76037500D01*
X130262500Y-76037500D02*
X184262500Y-76037500D01*
X120262500Y-75037500D02*
X130262500Y-75037500D01*
X118262500Y-90037500D02*
X120262500Y-90037500D01*
X120262500Y-76037500D02*
X118262500Y-76037500D01*
X120262500Y-91037500D02*
X130262500Y-91037500D01*
X118262500Y-90037500D02*
X118262500Y-76037500D01*
X130262500Y-91037500D02*
X130262500Y-90037500D01*
X120262500Y-90037500D02*
X120262500Y-91037500D01*
D11*
X137437500Y-88727500D03*
X139977500Y-88727500D03*
X153547500Y-88727500D03*
X156087500Y-88727500D03*
X156087500Y-77347500D03*
X153547500Y-77347500D03*
X139977500Y-77347500D03*
X137437500Y-77347500D03*
D12*
X179987500Y-77962500D03*
D13*
X182527500Y-77962500D03*
X179987500Y-80502500D03*
X182527500Y-80502500D03*
X179987500Y-83042500D03*
X182527500Y-83042500D03*
X179987500Y-85582500D03*
X182527500Y-85582500D03*
X179987500Y-88122500D03*
X182527500Y-88122500D03*
D14*
X122462500Y-75987500D03*
X122462500Y-90087500D03*
X128362500Y-90087500D03*
X128362500Y-75987500D03*
D15*
X124667500Y-80217500D03*
D16*
X120487500Y-88857500D03*
D15*
X124667500Y-88857500D03*
D16*
X120487500Y-80217500D03*
G04 #@! TA.AperFunction,ComponentPad*
G36*
X131362500Y-79987500D02*
G01*
X131486107Y-80007077D01*
X131597614Y-80063893D01*
X131686107Y-80152386D01*
X131742923Y-80263893D01*
X131762500Y-80387500D01*
X131742923Y-80511107D01*
X131686107Y-80622614D01*
X131597614Y-80711107D01*
X131486107Y-80767923D01*
X131362500Y-80787500D01*
X130962500Y-80787500D01*
X130962500Y-79987500D01*
X131362500Y-79987500D01*
G37*
G04 #@! TD.AperFunction*
G04 #@! TA.AperFunction,ComponentPad*
G36*
X131362500Y-76287500D02*
G01*
X131486107Y-76307077D01*
X131597614Y-76363893D01*
X131686107Y-76452386D01*
X131742923Y-76563893D01*
X131762500Y-76687500D01*
X131742923Y-76811107D01*
X131686107Y-76922614D01*
X131597614Y-77011107D01*
X131486107Y-77067923D01*
X131362500Y-77087500D01*
X130962500Y-77087500D01*
X130962500Y-76287500D01*
X131362500Y-76287500D01*
G37*
G04 #@! TD.AperFunction*
D17*
X146100000Y-84400000D03*
X161667000Y-84437500D03*
X131962500Y-77337500D03*
X164600000Y-82600000D03*
X128562500Y-84237500D03*
X170062500Y-81937500D03*
X162673034Y-85429238D03*
X171600000Y-79200000D03*
X143262500Y-82037500D03*
X176200000Y-85700000D03*
X128762500Y-79537500D03*
X159858814Y-76714438D03*
X167410176Y-78594163D03*
X170962500Y-83837500D03*
X147262500Y-81037500D03*
X134866146Y-88901301D03*
X164600000Y-79500000D03*
X168679500Y-83387531D03*
X163162500Y-89137500D03*
X161400000Y-79500000D03*
X149062500Y-80437500D03*
X159700000Y-84100000D03*
X173400000Y-88600000D03*
X159117306Y-87282694D03*
X155880704Y-83083050D03*
X155062500Y-85137500D03*
X131058000Y-86037500D03*
X158561083Y-86038001D03*
X168300000Y-79700000D03*
X169538214Y-86194804D03*
X128471329Y-86023308D03*
X134846926Y-77134206D03*
X165162500Y-89137500D03*
X159362500Y-80537500D03*
X164162500Y-89137500D03*
X169100000Y-84800000D03*
X170462500Y-83937500D03*
X175562500Y-80937500D03*
X165462310Y-85144703D03*
X162162500Y-89137500D03*
X155953333Y-80325761D03*
X173162500Y-79137500D03*
X152062500Y-84013000D03*
X161213000Y-85426577D03*
X173212500Y-86787500D03*
X128662500Y-82237500D03*
X149062500Y-84037500D03*
X131262500Y-83037500D03*
X170772534Y-78907735D03*
X170800000Y-76500000D03*
X149562500Y-86737500D03*
X149062500Y-81737500D03*
X161162500Y-89137500D03*
X161400000Y-82600000D03*
X170100000Y-80100000D03*
X160162500Y-89137500D03*
X155880704Y-83538000D03*
X144262500Y-85937500D03*
X147262500Y-87137500D03*
X168395000Y-86105000D03*
X173075000Y-82137500D03*
X148868750Y-85143750D03*
X163762500Y-84737500D03*
X167779500Y-84033000D03*
X159785332Y-85165295D03*
X168503873Y-85057850D03*
X171963719Y-82849753D03*
X160200000Y-83100000D03*
X166224500Y-78329122D03*
X160400000Y-84200000D03*
X148212500Y-89037500D03*
X150262500Y-89037500D03*
X144262500Y-89037500D03*
X176109620Y-88509619D03*
X170925000Y-87075000D03*
X174032500Y-86567500D03*
X171700000Y-78266778D03*
X149562500Y-89037500D03*
X146312500Y-89037500D03*
X173898222Y-81236406D03*
X173962500Y-83837500D03*
X136512002Y-80887000D03*
X137467444Y-80883239D03*
X135572230Y-86342000D03*
X137399818Y-84190139D03*
X138413000Y-82937500D03*
X144162500Y-80537500D03*
X144162500Y-81037500D03*
X131675718Y-82021450D03*
X139762500Y-85862000D03*
X150460408Y-85716158D03*
X157263423Y-82901796D03*
X157157568Y-84743903D03*
X158008544Y-86982954D03*
X155062500Y-85837500D03*
X157205000Y-80987500D03*
X166462500Y-87737500D03*
X160130000Y-87970000D03*
X163702301Y-87591580D03*
X166662500Y-86138000D03*
X161130000Y-87970000D03*
X150362500Y-79862500D03*
X136162500Y-79437500D03*
X135862500Y-83937500D03*
X157320503Y-79954562D03*
X156200689Y-85699311D03*
X165000000Y-83349993D03*
X164413220Y-84514518D03*
X163139103Y-84398411D03*
X161962500Y-76837500D03*
X162960812Y-76942525D03*
X153662500Y-82137000D03*
X153862500Y-80437500D03*
X155306734Y-80203000D03*
X154462500Y-84837500D03*
X175400000Y-79900000D03*
X175317599Y-77237147D03*
X171125592Y-81065354D03*
X171900000Y-77600000D03*
X175500000Y-88200000D03*
X175500000Y-86000000D03*
X134789441Y-78250431D03*
X167652169Y-85095500D03*
X135862500Y-88537500D03*
X165455500Y-84437500D03*
G04 #@! TA.AperFunction,Conductor*
G36*
X120864295Y-76157502D02*
G01*
X120910788Y-76211158D01*
X120919420Y-76237303D01*
X120926073Y-76268601D01*
X120926075Y-76268608D01*
X120927449Y-76275071D01*
X120930135Y-76281104D01*
X120930136Y-76281107D01*
X121003779Y-76446512D01*
X121006578Y-76452799D01*
X121010458Y-76458140D01*
X121010459Y-76458141D01*
X121029590Y-76484472D01*
X121120931Y-76610192D01*
X121125833Y-76614605D01*
X121125834Y-76614607D01*
X121225530Y-76704374D01*
X121265508Y-76740370D01*
X121271229Y-76743673D01*
X121416781Y-76827707D01*
X121433992Y-76837644D01*
X121490533Y-76856015D01*
X121577029Y-76884119D01*
X121619018Y-76897762D01*
X121625581Y-76898452D01*
X121625582Y-76898452D01*
X121649211Y-76900935D01*
X121763996Y-76913000D01*
X123161004Y-76913000D01*
X123275789Y-76900935D01*
X123299418Y-76898452D01*
X123299419Y-76898452D01*
X123305982Y-76897762D01*
X123347972Y-76884119D01*
X123434467Y-76856015D01*
X123491008Y-76837644D01*
X123508220Y-76827707D01*
X123653771Y-76743673D01*
X123659492Y-76740370D01*
X123699470Y-76704374D01*
X123799166Y-76614607D01*
X123799167Y-76614605D01*
X123804069Y-76610192D01*
X123895410Y-76484472D01*
X123914541Y-76458141D01*
X123914542Y-76458140D01*
X123918422Y-76452799D01*
X123921222Y-76446512D01*
X123994864Y-76281107D01*
X123994865Y-76281104D01*
X123997551Y-76275071D01*
X123998925Y-76268608D01*
X123998927Y-76268601D01*
X124005580Y-76237303D01*
X124039308Y-76174829D01*
X124101458Y-76140508D01*
X124128826Y-76137500D01*
X126696174Y-76137500D01*
X126764295Y-76157502D01*
X126810788Y-76211158D01*
X126819420Y-76237303D01*
X126826073Y-76268601D01*
X126826075Y-76268608D01*
X126827449Y-76275071D01*
X126830135Y-76281104D01*
X126830136Y-76281107D01*
X126903779Y-76446512D01*
X126906578Y-76452799D01*
X126910458Y-76458140D01*
X126910459Y-76458141D01*
X126929590Y-76484472D01*
X127020931Y-76610192D01*
X127025833Y-76614605D01*
X127025834Y-76614607D01*
X127125530Y-76704374D01*
X127165508Y-76740370D01*
X127171229Y-76743673D01*
X127316781Y-76827707D01*
X127333992Y-76837644D01*
X127390533Y-76856015D01*
X127477029Y-76884119D01*
X127519018Y-76897762D01*
X127525581Y-76898452D01*
X127525582Y-76898452D01*
X127549211Y-76900935D01*
X127663996Y-76913000D01*
X129061004Y-76913000D01*
X129175789Y-76900935D01*
X129199418Y-76898452D01*
X129199419Y-76898452D01*
X129205982Y-76897762D01*
X129234122Y-76888619D01*
X129352422Y-76850182D01*
X129423389Y-76848155D01*
X129484187Y-76884817D01*
X129515512Y-76948530D01*
X129507418Y-77019064D01*
X129486523Y-77052594D01*
X129458328Y-77085086D01*
X129366421Y-77190998D01*
X129366417Y-77191003D01*
X129362490Y-77195529D01*
X129257334Y-77377299D01*
X129255366Y-77382967D01*
X129191755Y-77566149D01*
X129188447Y-77575674D01*
X129187586Y-77581609D01*
X129187586Y-77581611D01*
X129160517Y-77768304D01*
X129158314Y-77783496D01*
X129168023Y-77993267D01*
X129169427Y-77999092D01*
X129169427Y-77999093D01*
X129214753Y-78187163D01*
X129217224Y-78197418D01*
X129219706Y-78202876D01*
X129219707Y-78202880D01*
X129262820Y-78297701D01*
X129304140Y-78388581D01*
X129425637Y-78559860D01*
X129577331Y-78705075D01*
X129582366Y-78708326D01*
X129748709Y-78815733D01*
X129748712Y-78815734D01*
X129753746Y-78818985D01*
X129759309Y-78821227D01*
X129942955Y-78895239D01*
X129942958Y-78895240D01*
X129948519Y-78897481D01*
X129954400Y-78898629D01*
X129954405Y-78898631D01*
X130150176Y-78936862D01*
X130150179Y-78936862D01*
X130154622Y-78937730D01*
X130160143Y-78938000D01*
X130314969Y-78938000D01*
X130471546Y-78923061D01*
X130477302Y-78921372D01*
X130477304Y-78921372D01*
X130613386Y-78881450D01*
X130673049Y-78863947D01*
X130802687Y-78797179D01*
X130854408Y-78770541D01*
X130854411Y-78770539D01*
X130859739Y-78767795D01*
X130917700Y-78722266D01*
X131020162Y-78641782D01*
X131020167Y-78641778D01*
X131024879Y-78638076D01*
X131050722Y-78608295D01*
X131158579Y-78484002D01*
X131158583Y-78483997D01*
X131162510Y-78479471D01*
X131267666Y-78297701D01*
X131306051Y-78187163D01*
X131334586Y-78104991D01*
X131334586Y-78104989D01*
X131336553Y-78099326D01*
X131338669Y-78084734D01*
X131365825Y-77897444D01*
X131365825Y-77897441D01*
X131366686Y-77891504D01*
X131356977Y-77681733D01*
X131353656Y-77667951D01*
X131345612Y-77634577D01*
X131335059Y-77590789D01*
X131338544Y-77519880D01*
X131344229Y-77511922D01*
X131301538Y-77463277D01*
X131529284Y-77463277D01*
X131569819Y-77504066D01*
X131609471Y-77581887D01*
X131613972Y-77590720D01*
X131709280Y-77686028D01*
X131829374Y-77747219D01*
X131839163Y-77748769D01*
X131839165Y-77748770D01*
X131952707Y-77766753D01*
X131962500Y-77768304D01*
X131972293Y-77766753D01*
X132085835Y-77748770D01*
X132085837Y-77748769D01*
X132095626Y-77747219D01*
X132215720Y-77686028D01*
X132311028Y-77590720D01*
X132372219Y-77470626D01*
X132374213Y-77458041D01*
X132391753Y-77347293D01*
X132393304Y-77337500D01*
X132384440Y-77281532D01*
X132373770Y-77214165D01*
X132373769Y-77214163D01*
X132372219Y-77204374D01*
X132311028Y-77084280D01*
X132215720Y-76988972D01*
X132095626Y-76927781D01*
X132085837Y-76926231D01*
X132085835Y-76926230D01*
X131972293Y-76908247D01*
X131962500Y-76906696D01*
X131952707Y-76908247D01*
X131839165Y-76926230D01*
X131839163Y-76926231D01*
X131829374Y-76927781D01*
X131709280Y-76988972D01*
X131613972Y-77084280D01*
X131552781Y-77204374D01*
X131551231Y-77214163D01*
X131551230Y-77214165D01*
X131540560Y-77281532D01*
X131531696Y-77337500D01*
X131533247Y-77347293D01*
X131533247Y-77347294D01*
X131540135Y-77390786D01*
X131531035Y-77461197D01*
X131529284Y-77463277D01*
X131301538Y-77463277D01*
X131300986Y-77462648D01*
X131220860Y-77286419D01*
X131126869Y-77153916D01*
X131102829Y-77120026D01*
X131102828Y-77120025D01*
X131099363Y-77115140D01*
X130967566Y-76988972D01*
X130951999Y-76974070D01*
X130947669Y-76969925D01*
X130890067Y-76932732D01*
X130776291Y-76859267D01*
X130776288Y-76859266D01*
X130771254Y-76856015D01*
X130717472Y-76834340D01*
X130582045Y-76779761D01*
X130582042Y-76779760D01*
X130576481Y-76777519D01*
X130570600Y-76776371D01*
X130570595Y-76776369D01*
X130374824Y-76738138D01*
X130374821Y-76738138D01*
X130370378Y-76737270D01*
X130364857Y-76737000D01*
X130210031Y-76737000D01*
X130053454Y-76751939D01*
X130047698Y-76753628D01*
X130047696Y-76753628D01*
X130007569Y-76765400D01*
X129851951Y-76811053D01*
X129846623Y-76813797D01*
X129841053Y-76816025D01*
X129840336Y-76814231D01*
X129779300Y-76825963D01*
X129713402Y-76799544D01*
X129672249Y-76741691D01*
X129668907Y-76670773D01*
X129697704Y-76616229D01*
X129699160Y-76614612D01*
X129704069Y-76610192D01*
X129715836Y-76593997D01*
X129814541Y-76458141D01*
X129814542Y-76458140D01*
X129818422Y-76452799D01*
X129821222Y-76446512D01*
X129894864Y-76281107D01*
X129894865Y-76281104D01*
X129897551Y-76275071D01*
X129904634Y-76241748D01*
X129938362Y-76179275D01*
X130000512Y-76144953D01*
X130071351Y-76149681D01*
X130106564Y-76169533D01*
X130108659Y-76171208D01*
X130121413Y-76183982D01*
X130125351Y-76187125D01*
X130134195Y-76198224D01*
X130146978Y-76204389D01*
X130151204Y-76207763D01*
X130157047Y-76211442D01*
X130161910Y-76213793D01*
X130172992Y-76222656D01*
X130186820Y-76225836D01*
X130191351Y-76228026D01*
X130198897Y-76230676D01*
X130203807Y-76231800D01*
X130216587Y-76237965D01*
X130239655Y-76237985D01*
X130239653Y-76240010D01*
X130239719Y-76240026D01*
X130239719Y-76238000D01*
X130256608Y-76238000D01*
X130308063Y-76238045D01*
X130308059Y-76242850D01*
X130308157Y-76242856D01*
X130308157Y-76238000D01*
X134818182Y-76238000D01*
X134886303Y-76258002D01*
X134932796Y-76311658D01*
X134942900Y-76381932D01*
X134929305Y-76423394D01*
X134875220Y-76524580D01*
X134863094Y-76551868D01*
X134850727Y-76586234D01*
X134839341Y-76673398D01*
X134839922Y-76680165D01*
X134839922Y-76680167D01*
X134845092Y-76740370D01*
X134845415Y-76744135D01*
X134849094Y-76769002D01*
X134852872Y-76777186D01*
X134852872Y-76777187D01*
X134880713Y-76837500D01*
X134887424Y-76852039D01*
X134891746Y-76857644D01*
X134912699Y-76884817D01*
X134930169Y-76907474D01*
X134935537Y-76911928D01*
X134942976Y-76918101D01*
X134954598Y-76931226D01*
X134954836Y-76930988D01*
X135013015Y-76989167D01*
X135036186Y-77021058D01*
X135049119Y-77046439D01*
X135049706Y-77047592D01*
X135061888Y-77085084D01*
X135066547Y-77114499D01*
X135066547Y-77153913D01*
X135064127Y-77169196D01*
X135061889Y-77183326D01*
X135049706Y-77220820D01*
X135036186Y-77247354D01*
X135013015Y-77279245D01*
X134991965Y-77300295D01*
X134960072Y-77323467D01*
X134941719Y-77332818D01*
X134941712Y-77332822D01*
X134938003Y-77334712D01*
X134934575Y-77337074D01*
X134934570Y-77337077D01*
X134896865Y-77363057D01*
X134893430Y-77365424D01*
X134890339Y-77368220D01*
X134890337Y-77368222D01*
X134865397Y-77390786D01*
X134844634Y-77409570D01*
X134829973Y-77424246D01*
X134825743Y-77431809D01*
X134825741Y-77431811D01*
X134811069Y-77458041D01*
X134785326Y-77504064D01*
X134783332Y-77510856D01*
X134768193Y-77562415D01*
X134765324Y-77572185D01*
X134764684Y-77576633D01*
X134764683Y-77576640D01*
X134757639Y-77625633D01*
X134757638Y-77625640D01*
X134757000Y-77630081D01*
X134757000Y-77718084D01*
X134736998Y-77786205D01*
X134683342Y-77832698D01*
X134669936Y-77837917D01*
X134666107Y-77839161D01*
X134656315Y-77840712D01*
X134536221Y-77901903D01*
X134440913Y-77997211D01*
X134379722Y-78117305D01*
X134378172Y-78127094D01*
X134378171Y-78127096D01*
X134360471Y-78238851D01*
X134358637Y-78250431D01*
X134360188Y-78260224D01*
X134366899Y-78302593D01*
X134379722Y-78383557D01*
X134440913Y-78503651D01*
X134536221Y-78598959D01*
X134656315Y-78660150D01*
X134666107Y-78661701D01*
X134669936Y-78662945D01*
X134728542Y-78703018D01*
X134756179Y-78768415D01*
X134757000Y-78782778D01*
X134757000Y-80045099D01*
X134756385Y-80057535D01*
X134741765Y-80204939D01*
X134736879Y-80229326D01*
X134698410Y-80355213D01*
X134688831Y-80378160D01*
X134626381Y-80494043D01*
X134612483Y-80514660D01*
X134528476Y-80616028D01*
X134510800Y-80633512D01*
X134408532Y-80716394D01*
X134387758Y-80730070D01*
X134271199Y-80791250D01*
X134248145Y-80800579D01*
X134121827Y-80837675D01*
X134097397Y-80842291D01*
X133949855Y-80855297D01*
X133937420Y-80855776D01*
X132124563Y-80835948D01*
X132114349Y-80836090D01*
X132108051Y-80836334D01*
X132102660Y-80836543D01*
X132102621Y-80836545D01*
X132101822Y-80836576D01*
X132101018Y-80836627D01*
X132100985Y-80836629D01*
X132095550Y-80836976D01*
X132091604Y-80837228D01*
X132090886Y-80837292D01*
X132090870Y-80837293D01*
X131945536Y-80850204D01*
X131945523Y-80850205D01*
X131943975Y-80850343D01*
X131934907Y-80851606D01*
X131925240Y-80852952D01*
X131925233Y-80852953D01*
X131923719Y-80853164D01*
X131922217Y-80853450D01*
X131922205Y-80853452D01*
X131910471Y-80855687D01*
X131899121Y-80857848D01*
X131879253Y-80862667D01*
X131877760Y-80863109D01*
X131877748Y-80863112D01*
X131809260Y-80883378D01*
X131797020Y-80887000D01*
X131743195Y-80902927D01*
X131741709Y-80903448D01*
X131741704Y-80903450D01*
X131725358Y-80909185D01*
X131725339Y-80909192D01*
X131723906Y-80909695D01*
X131700718Y-80919151D01*
X131682189Y-80927806D01*
X131680804Y-80928539D01*
X131587902Y-80977707D01*
X131556778Y-80994179D01*
X131555438Y-80994976D01*
X131555429Y-80994981D01*
X131551542Y-80997293D01*
X131539204Y-81004631D01*
X131537905Y-81005494D01*
X131537892Y-81005502D01*
X131519644Y-81017623D01*
X131518342Y-81018488D01*
X131501892Y-81030636D01*
X131500694Y-81031617D01*
X131500683Y-81031625D01*
X131423921Y-81094447D01*
X131392020Y-81120555D01*
X131390882Y-81121584D01*
X131390873Y-81121592D01*
X131382430Y-81129229D01*
X131376960Y-81134176D01*
X131359362Y-81151750D01*
X131358340Y-81152877D01*
X131346755Y-81165649D01*
X131346742Y-81165665D01*
X131345719Y-81166792D01*
X131319136Y-81199184D01*
X131280552Y-81246199D01*
X131255365Y-81276889D01*
X131254453Y-81278118D01*
X131254452Y-81278120D01*
X131249689Y-81284543D01*
X131243353Y-81293086D01*
X131229637Y-81313613D01*
X131219268Y-81330911D01*
X131218543Y-81332268D01*
X131218537Y-81332278D01*
X131197146Y-81372298D01*
X131152087Y-81456597D01*
X131143466Y-81474825D01*
X131134016Y-81497638D01*
X131127221Y-81516629D01*
X131126769Y-81518118D01*
X131126767Y-81518125D01*
X131120976Y-81537215D01*
X131085852Y-81653004D01*
X131080951Y-81672571D01*
X131076133Y-81696795D01*
X131075910Y-81698299D01*
X131074509Y-81707747D01*
X131073175Y-81716739D01*
X131058597Y-81864746D01*
X131057855Y-81874802D01*
X131057248Y-81887153D01*
X131057000Y-81897240D01*
X131057000Y-82031302D01*
X131057248Y-82041396D01*
X131057286Y-82042163D01*
X131057287Y-82042198D01*
X131057459Y-82045683D01*
X131057856Y-82053759D01*
X131058600Y-82063829D01*
X131061077Y-82088953D01*
X131074612Y-82226230D01*
X131074615Y-82226252D01*
X131074763Y-82227756D01*
X131074985Y-82229253D01*
X131074987Y-82229267D01*
X131077504Y-82246221D01*
X131077508Y-82246243D01*
X131077728Y-82247726D01*
X131082557Y-82271976D01*
X131087467Y-82291556D01*
X131133523Y-82443213D01*
X131140331Y-82462218D01*
X131140914Y-82463624D01*
X131140916Y-82463629D01*
X131147258Y-82478921D01*
X131149803Y-82485059D01*
X131158444Y-82503307D01*
X131233230Y-82643046D01*
X131243617Y-82660354D01*
X131244486Y-82661652D01*
X131244488Y-82661656D01*
X131250571Y-82670747D01*
X131257367Y-82680905D01*
X131258266Y-82682115D01*
X131258277Y-82682131D01*
X131262743Y-82688143D01*
X131269406Y-82697114D01*
X131270385Y-82698305D01*
X131369079Y-82818385D01*
X131369091Y-82818399D01*
X131370047Y-82819562D01*
X131371075Y-82820694D01*
X131380946Y-82831568D01*
X131383619Y-82834513D01*
X131401118Y-82851982D01*
X131402258Y-82853014D01*
X131402264Y-82853019D01*
X131414939Y-82864486D01*
X131414954Y-82864499D01*
X131416086Y-82865523D01*
X131503959Y-82937500D01*
X131543514Y-82969900D01*
X131544119Y-82970371D01*
X131550895Y-82975650D01*
X131550919Y-82975668D01*
X131551481Y-82976106D01*
X131561431Y-82983470D01*
X131569691Y-82989274D01*
X131748509Y-83108486D01*
X132189639Y-83402572D01*
X132199580Y-83409928D01*
X132290585Y-83484472D01*
X132313515Y-83503254D01*
X132331012Y-83520723D01*
X132414110Y-83621826D01*
X132427861Y-83642378D01*
X132489609Y-83757757D01*
X132499081Y-83780596D01*
X132501551Y-83788730D01*
X132536953Y-83905298D01*
X132537115Y-83905833D01*
X132541944Y-83930085D01*
X132542675Y-83937500D01*
X132544663Y-83957664D01*
X132544663Y-83957665D01*
X132556392Y-84076622D01*
X132557000Y-84088985D01*
X132557000Y-85117099D01*
X132557248Y-85127187D01*
X132557855Y-85139537D01*
X132558597Y-85149591D01*
X132575988Y-85326166D01*
X132578946Y-85346110D01*
X132579243Y-85347603D01*
X132582312Y-85363032D01*
X132583763Y-85370330D01*
X132584137Y-85371823D01*
X132588223Y-85388138D01*
X132588663Y-85389896D01*
X132638366Y-85553748D01*
X132638891Y-85555215D01*
X132644456Y-85570765D01*
X132645163Y-85572742D01*
X132654616Y-85595562D01*
X132663236Y-85613788D01*
X132663963Y-85615149D01*
X132663970Y-85615162D01*
X132713668Y-85708140D01*
X132743945Y-85764784D01*
X132744735Y-85766102D01*
X132744739Y-85766109D01*
X132752197Y-85778551D01*
X132754313Y-85782081D01*
X132768036Y-85802619D01*
X132780050Y-85818818D01*
X132781028Y-85820009D01*
X132781029Y-85820011D01*
X132882538Y-85943699D01*
X132892618Y-85955982D01*
X132899213Y-85963628D01*
X132907517Y-85972789D01*
X132914465Y-85980085D01*
X133319915Y-86385535D01*
X133327211Y-86392483D01*
X133336372Y-86400787D01*
X133344018Y-86407382D01*
X133344608Y-86407866D01*
X133344622Y-86407878D01*
X133474808Y-86514719D01*
X133481182Y-86519950D01*
X133497381Y-86531964D01*
X133517919Y-86545687D01*
X133519254Y-86546487D01*
X133519260Y-86546491D01*
X133531289Y-86553701D01*
X133535216Y-86556055D01*
X133538307Y-86557707D01*
X133684838Y-86636030D01*
X133684851Y-86636037D01*
X133686212Y-86636764D01*
X133704435Y-86645383D01*
X133705830Y-86645961D01*
X133705837Y-86645964D01*
X133708770Y-86647179D01*
X133727254Y-86654836D01*
X133728720Y-86655360D01*
X133728721Y-86655361D01*
X133744775Y-86661106D01*
X133744782Y-86661108D01*
X133746251Y-86661634D01*
X133747728Y-86662082D01*
X133747743Y-86662087D01*
X133840245Y-86690146D01*
X133910104Y-86711337D01*
X133911583Y-86711708D01*
X133911596Y-86711711D01*
X133928183Y-86715865D01*
X133928189Y-86715866D01*
X133929673Y-86716238D01*
X133953890Y-86721054D01*
X133973830Y-86724011D01*
X134150408Y-86741403D01*
X134151230Y-86741464D01*
X134151234Y-86741464D01*
X134159684Y-86742088D01*
X134159723Y-86742090D01*
X134160463Y-86742145D01*
X134161230Y-86742183D01*
X134161235Y-86742183D01*
X134172056Y-86742715D01*
X134172072Y-86742716D01*
X134172813Y-86742752D01*
X134182901Y-86743000D01*
X135024863Y-86743000D01*
X135029418Y-86742328D01*
X135029424Y-86742328D01*
X135079604Y-86734930D01*
X135079610Y-86734929D01*
X135084166Y-86734257D01*
X135088583Y-86732926D01*
X135088586Y-86732925D01*
X135151840Y-86713860D01*
X135151842Y-86713859D01*
X135153794Y-86713271D01*
X135178713Y-86703962D01*
X135185994Y-86698465D01*
X135193992Y-86694074D01*
X135195062Y-86696023D01*
X135249803Y-86675345D01*
X135318462Y-86689980D01*
X135319010Y-86690528D01*
X135323386Y-86692757D01*
X135323388Y-86692759D01*
X135359850Y-86711337D01*
X135439104Y-86751719D01*
X135448893Y-86753269D01*
X135448895Y-86753270D01*
X135562437Y-86771253D01*
X135572230Y-86772804D01*
X135582023Y-86771253D01*
X135695565Y-86753270D01*
X135695567Y-86753269D01*
X135705356Y-86751719D01*
X135825450Y-86690528D01*
X135832462Y-86683516D01*
X135840482Y-86677689D01*
X135842358Y-86680271D01*
X135890018Y-86654246D01*
X135960833Y-86659311D01*
X135980468Y-86668659D01*
X135981520Y-86669322D01*
X135983200Y-86670242D01*
X135992517Y-86675345D01*
X136003568Y-86681398D01*
X136012373Y-86683325D01*
X136012375Y-86683326D01*
X136065839Y-86695028D01*
X136092909Y-86700953D01*
X136099980Y-86700890D01*
X136111091Y-86700791D01*
X136163903Y-86700320D01*
X136168363Y-86699638D01*
X136168364Y-86699638D01*
X136177802Y-86698195D01*
X136221724Y-86691479D01*
X136283370Y-86672779D01*
X136302362Y-86665984D01*
X136325175Y-86656534D01*
X136343403Y-86647913D01*
X136469089Y-86580732D01*
X136486389Y-86570362D01*
X136487638Y-86569527D01*
X136487656Y-86569516D01*
X136499871Y-86561353D01*
X136506920Y-86556643D01*
X136523114Y-86544632D01*
X136698391Y-86400787D01*
X136746972Y-86360918D01*
X136767508Y-86347196D01*
X136835339Y-86310939D01*
X136857493Y-86299097D01*
X136880308Y-86289647D01*
X136977953Y-86260027D01*
X137002170Y-86255211D01*
X137119981Y-86243607D01*
X137132331Y-86243000D01*
X139211965Y-86243000D01*
X139271266Y-86234258D01*
X139340893Y-86213273D01*
X139365814Y-86203963D01*
X139372829Y-86198667D01*
X139442004Y-86183454D01*
X139505174Y-86206422D01*
X139509280Y-86210528D01*
X139518111Y-86215028D01*
X139518113Y-86215029D01*
X139563444Y-86238126D01*
X139629374Y-86271719D01*
X139639163Y-86273269D01*
X139639165Y-86273270D01*
X139752707Y-86291253D01*
X139762500Y-86292804D01*
X139772293Y-86291253D01*
X139885835Y-86273270D01*
X139885837Y-86273269D01*
X139895626Y-86271719D01*
X140015720Y-86210528D01*
X140111028Y-86115220D01*
X140172219Y-85995126D01*
X140174602Y-85980085D01*
X140191753Y-85871793D01*
X140193304Y-85862000D01*
X140180087Y-85778551D01*
X140188151Y-85716158D01*
X150029604Y-85716158D01*
X150031155Y-85725951D01*
X150048823Y-85837500D01*
X150050689Y-85849284D01*
X150111880Y-85969378D01*
X150207188Y-86064686D01*
X150327282Y-86125877D01*
X150337071Y-86127427D01*
X150337073Y-86127428D01*
X150450615Y-86145411D01*
X150460408Y-86146962D01*
X150470201Y-86145411D01*
X150583743Y-86127428D01*
X150583745Y-86127427D01*
X150593534Y-86125877D01*
X150713628Y-86064686D01*
X150808936Y-85969378D01*
X150870127Y-85849284D01*
X150871994Y-85837500D01*
X154631696Y-85837500D01*
X154633247Y-85847293D01*
X154650462Y-85955982D01*
X154652781Y-85970626D01*
X154713972Y-86090720D01*
X154809280Y-86186028D01*
X154929374Y-86247219D01*
X154939163Y-86248769D01*
X154939165Y-86248770D01*
X155052707Y-86266753D01*
X155062500Y-86268304D01*
X155072293Y-86266753D01*
X155185835Y-86248770D01*
X155185837Y-86248769D01*
X155195626Y-86247219D01*
X155315720Y-86186028D01*
X155363748Y-86138000D01*
X166231696Y-86138000D01*
X166233247Y-86147793D01*
X166248995Y-86247219D01*
X166252781Y-86271126D01*
X166313972Y-86391220D01*
X166409280Y-86486528D01*
X166529374Y-86547719D01*
X166539163Y-86549269D01*
X166539165Y-86549270D01*
X166652707Y-86567253D01*
X166662500Y-86568804D01*
X166670733Y-86567500D01*
X173601696Y-86567500D01*
X173603247Y-86577293D01*
X173621182Y-86690528D01*
X173622781Y-86700626D01*
X173683972Y-86820720D01*
X173779280Y-86916028D01*
X173899374Y-86977219D01*
X173909163Y-86978769D01*
X173909165Y-86978770D01*
X174022707Y-86996753D01*
X174032500Y-86998304D01*
X174042293Y-86996753D01*
X174155835Y-86978770D01*
X174155837Y-86978769D01*
X174165626Y-86977219D01*
X174285720Y-86916028D01*
X174381028Y-86820720D01*
X174442219Y-86700626D01*
X174443819Y-86690528D01*
X174461753Y-86577293D01*
X174463304Y-86567500D01*
X174461366Y-86555261D01*
X174443770Y-86444165D01*
X174443769Y-86444163D01*
X174442219Y-86434374D01*
X174381028Y-86314280D01*
X174285720Y-86218972D01*
X174165626Y-86157781D01*
X174155837Y-86156231D01*
X174155835Y-86156230D01*
X174042293Y-86138247D01*
X174032500Y-86136696D01*
X174022707Y-86138247D01*
X173909165Y-86156230D01*
X173909163Y-86156231D01*
X173899374Y-86157781D01*
X173779280Y-86218972D01*
X173683972Y-86314280D01*
X173622781Y-86434374D01*
X173621231Y-86444163D01*
X173621230Y-86444165D01*
X173603634Y-86555261D01*
X173601696Y-86567500D01*
X166670733Y-86567500D01*
X166672293Y-86567253D01*
X166785835Y-86549270D01*
X166785837Y-86549269D01*
X166795626Y-86547719D01*
X166915720Y-86486528D01*
X167011028Y-86391220D01*
X167072219Y-86271126D01*
X167076006Y-86247219D01*
X167091753Y-86147793D01*
X167093304Y-86138000D01*
X167090981Y-86123335D01*
X167073770Y-86014665D01*
X167073769Y-86014663D01*
X167072219Y-86004874D01*
X167011028Y-85884780D01*
X166915720Y-85789472D01*
X166795626Y-85728281D01*
X166785837Y-85726731D01*
X166785835Y-85726730D01*
X166672293Y-85708747D01*
X166662500Y-85707196D01*
X166652707Y-85708747D01*
X166539165Y-85726730D01*
X166539163Y-85726731D01*
X166529374Y-85728281D01*
X166409280Y-85789472D01*
X166313972Y-85884780D01*
X166252781Y-86004874D01*
X166251231Y-86014663D01*
X166251230Y-86014665D01*
X166234019Y-86123335D01*
X166231696Y-86138000D01*
X155363748Y-86138000D01*
X155411028Y-86090720D01*
X155472219Y-85970626D01*
X155474539Y-85955982D01*
X155491753Y-85847293D01*
X155493304Y-85837500D01*
X155487976Y-85803862D01*
X155473770Y-85714165D01*
X155473769Y-85714163D01*
X155472219Y-85704374D01*
X155469639Y-85699311D01*
X155769885Y-85699311D01*
X155771436Y-85709104D01*
X155783201Y-85783383D01*
X155790970Y-85832437D01*
X155852161Y-85952531D01*
X155947469Y-86047839D01*
X156067563Y-86109030D01*
X156077352Y-86110580D01*
X156077354Y-86110581D01*
X156190896Y-86128564D01*
X156200689Y-86130115D01*
X156210482Y-86128564D01*
X156324024Y-86110581D01*
X156324026Y-86110580D01*
X156333815Y-86109030D01*
X156453909Y-86047839D01*
X156549217Y-85952531D01*
X156610408Y-85832437D01*
X156618178Y-85783383D01*
X156629942Y-85709104D01*
X156631493Y-85699311D01*
X156623203Y-85646972D01*
X156611959Y-85575976D01*
X156611958Y-85575974D01*
X156610408Y-85566185D01*
X156549217Y-85446091D01*
X156453909Y-85350783D01*
X156333815Y-85289592D01*
X156324026Y-85288042D01*
X156324024Y-85288041D01*
X156210482Y-85270058D01*
X156200689Y-85268507D01*
X156190896Y-85270058D01*
X156077354Y-85288041D01*
X156077352Y-85288042D01*
X156067563Y-85289592D01*
X155947469Y-85350783D01*
X155852161Y-85446091D01*
X155790970Y-85566185D01*
X155789420Y-85575974D01*
X155789419Y-85575976D01*
X155778175Y-85646972D01*
X155769885Y-85699311D01*
X155469639Y-85699311D01*
X155411028Y-85584280D01*
X155315720Y-85488972D01*
X155195626Y-85427781D01*
X155185837Y-85426231D01*
X155185835Y-85426230D01*
X155072293Y-85408247D01*
X155062500Y-85406696D01*
X155052707Y-85408247D01*
X154939165Y-85426230D01*
X154939163Y-85426231D01*
X154929374Y-85427781D01*
X154809280Y-85488972D01*
X154713972Y-85584280D01*
X154652781Y-85704374D01*
X154651231Y-85714163D01*
X154651230Y-85714165D01*
X154637024Y-85803862D01*
X154631696Y-85837500D01*
X150871994Y-85837500D01*
X150889661Y-85725951D01*
X150891212Y-85716158D01*
X150887905Y-85695281D01*
X150871678Y-85592823D01*
X150871677Y-85592821D01*
X150870127Y-85583032D01*
X150808936Y-85462938D01*
X150713628Y-85367630D01*
X150593534Y-85306439D01*
X150583745Y-85304889D01*
X150583743Y-85304888D01*
X150470201Y-85286905D01*
X150460408Y-85285354D01*
X150450615Y-85286905D01*
X150337073Y-85304888D01*
X150337071Y-85304889D01*
X150327282Y-85306439D01*
X150207188Y-85367630D01*
X150111880Y-85462938D01*
X150050689Y-85583032D01*
X150049139Y-85592821D01*
X150049138Y-85592823D01*
X150032911Y-85695281D01*
X150029604Y-85716158D01*
X140188151Y-85716158D01*
X140189187Y-85708140D01*
X140228487Y-85661480D01*
X140227167Y-85659904D01*
X140278143Y-85617211D01*
X140278144Y-85617210D01*
X140281596Y-85614319D01*
X140320636Y-85570765D01*
X140539334Y-85242718D01*
X140605313Y-85143750D01*
X148437946Y-85143750D01*
X148439497Y-85153543D01*
X148457428Y-85266753D01*
X148459031Y-85276876D01*
X148520222Y-85396970D01*
X148615530Y-85492278D01*
X148735624Y-85553469D01*
X148745413Y-85555019D01*
X148745415Y-85555020D01*
X148858957Y-85573003D01*
X148868750Y-85574554D01*
X148878543Y-85573003D01*
X148992085Y-85555020D01*
X148992087Y-85555019D01*
X149001876Y-85553469D01*
X149121970Y-85492278D01*
X149217278Y-85396970D01*
X149278469Y-85276876D01*
X149280073Y-85266753D01*
X149298003Y-85153543D01*
X149299554Y-85143750D01*
X149295204Y-85116287D01*
X149280020Y-85020415D01*
X149280019Y-85020413D01*
X149278469Y-85010624D01*
X149217278Y-84890530D01*
X149164248Y-84837500D01*
X154031696Y-84837500D01*
X154033247Y-84847293D01*
X154048528Y-84943771D01*
X154052781Y-84970626D01*
X154113972Y-85090720D01*
X154209280Y-85186028D01*
X154329374Y-85247219D01*
X154339163Y-85248769D01*
X154339165Y-85248770D01*
X154452707Y-85266753D01*
X154462500Y-85268304D01*
X154472293Y-85266753D01*
X154585835Y-85248770D01*
X154585837Y-85248769D01*
X154595626Y-85247219D01*
X154715720Y-85186028D01*
X154811028Y-85090720D01*
X154872219Y-84970626D01*
X154876473Y-84943771D01*
X154891753Y-84847293D01*
X154893304Y-84837500D01*
X154888098Y-84804630D01*
X154878480Y-84743903D01*
X156726764Y-84743903D01*
X156728315Y-84753696D01*
X156743128Y-84847219D01*
X156747849Y-84877029D01*
X156809040Y-84997123D01*
X156904348Y-85092431D01*
X157024442Y-85153622D01*
X157034231Y-85155172D01*
X157034233Y-85155173D01*
X157147775Y-85173156D01*
X157157568Y-85174707D01*
X157167361Y-85173156D01*
X157216994Y-85165295D01*
X159354528Y-85165295D01*
X159356079Y-85175088D01*
X159373600Y-85285709D01*
X159375613Y-85298421D01*
X159436804Y-85418515D01*
X159532112Y-85513823D01*
X159652206Y-85575014D01*
X159661995Y-85576564D01*
X159661997Y-85576565D01*
X159775539Y-85594548D01*
X159785332Y-85596099D01*
X159795125Y-85594548D01*
X159908667Y-85576565D01*
X159908669Y-85576564D01*
X159918458Y-85575014D01*
X160038552Y-85513823D01*
X160133860Y-85418515D01*
X160195051Y-85298421D01*
X160197065Y-85285709D01*
X160214585Y-85175088D01*
X160216136Y-85165295D01*
X160204294Y-85090528D01*
X160196602Y-85041960D01*
X160196601Y-85041958D01*
X160195051Y-85032169D01*
X160133860Y-84912075D01*
X160038552Y-84816767D01*
X159918458Y-84755576D01*
X159908669Y-84754026D01*
X159908667Y-84754025D01*
X159795125Y-84736042D01*
X159785332Y-84734491D01*
X159775539Y-84736042D01*
X159661997Y-84754025D01*
X159661995Y-84754026D01*
X159652206Y-84755576D01*
X159532112Y-84816767D01*
X159436804Y-84912075D01*
X159375613Y-85032169D01*
X159374063Y-85041958D01*
X159374062Y-85041960D01*
X159366370Y-85090528D01*
X159354528Y-85165295D01*
X157216994Y-85165295D01*
X157280903Y-85155173D01*
X157280905Y-85155172D01*
X157290694Y-85153622D01*
X157410788Y-85092431D01*
X157506096Y-84997123D01*
X157567287Y-84877029D01*
X157572009Y-84847219D01*
X157586821Y-84753696D01*
X157588372Y-84743903D01*
X157582176Y-84704781D01*
X157568838Y-84620568D01*
X157568837Y-84620566D01*
X157567287Y-84610777D01*
X157506096Y-84490683D01*
X157410788Y-84395375D01*
X157290694Y-84334184D01*
X157280905Y-84332634D01*
X157280903Y-84332633D01*
X157167361Y-84314650D01*
X157157568Y-84313099D01*
X157147775Y-84314650D01*
X157034233Y-84332633D01*
X157034231Y-84332634D01*
X157024442Y-84334184D01*
X156904348Y-84395375D01*
X156809040Y-84490683D01*
X156747849Y-84610777D01*
X156746299Y-84620566D01*
X156746298Y-84620568D01*
X156732960Y-84704781D01*
X156726764Y-84743903D01*
X154878480Y-84743903D01*
X154873770Y-84714165D01*
X154873769Y-84714163D01*
X154872219Y-84704374D01*
X154811028Y-84584280D01*
X154715720Y-84488972D01*
X154595626Y-84427781D01*
X154585837Y-84426231D01*
X154585835Y-84426230D01*
X154472293Y-84408247D01*
X154462500Y-84406696D01*
X154452707Y-84408247D01*
X154339165Y-84426230D01*
X154339163Y-84426231D01*
X154329374Y-84427781D01*
X154209280Y-84488972D01*
X154113972Y-84584280D01*
X154052781Y-84704374D01*
X154051231Y-84714163D01*
X154051230Y-84714165D01*
X154036902Y-84804630D01*
X154031696Y-84837500D01*
X149164248Y-84837500D01*
X149121970Y-84795222D01*
X149001876Y-84734031D01*
X148992087Y-84732481D01*
X148992085Y-84732480D01*
X148878543Y-84714497D01*
X148868750Y-84712946D01*
X148858957Y-84714497D01*
X148745415Y-84732480D01*
X148745413Y-84732481D01*
X148735624Y-84734031D01*
X148615530Y-84795222D01*
X148520222Y-84890530D01*
X148459031Y-85010624D01*
X148457481Y-85020413D01*
X148457480Y-85020415D01*
X148442296Y-85116287D01*
X148437946Y-85143750D01*
X140605313Y-85143750D01*
X140761686Y-84909192D01*
X140761711Y-84909154D01*
X140762112Y-84908552D01*
X140767491Y-84900040D01*
X140773821Y-84889456D01*
X140778776Y-84880690D01*
X140843733Y-84758906D01*
X140861414Y-84725758D01*
X140861416Y-84725754D01*
X140862135Y-84724406D01*
X140870727Y-84706203D01*
X140872015Y-84703088D01*
X140879563Y-84684830D01*
X140879567Y-84684819D01*
X140880146Y-84683419D01*
X140886916Y-84664461D01*
X140903491Y-84609719D01*
X140935997Y-84502362D01*
X140936000Y-84502350D01*
X140936446Y-84500878D01*
X140941330Y-84481346D01*
X140946132Y-84457160D01*
X140949080Y-84437246D01*
X140952742Y-84400000D01*
X145669196Y-84400000D01*
X145670747Y-84409793D01*
X145688479Y-84521746D01*
X145690281Y-84533126D01*
X145751472Y-84653220D01*
X145846780Y-84748528D01*
X145966874Y-84809719D01*
X145976663Y-84811269D01*
X145976665Y-84811270D01*
X146090207Y-84829253D01*
X146100000Y-84830804D01*
X146109793Y-84829253D01*
X146223335Y-84811270D01*
X146223337Y-84811269D01*
X146233126Y-84809719D01*
X146353220Y-84748528D01*
X146448528Y-84653220D01*
X146509719Y-84533126D01*
X146511522Y-84521746D01*
X146529253Y-84409793D01*
X146530804Y-84400000D01*
X146520380Y-84334184D01*
X146511270Y-84276665D01*
X146511269Y-84276663D01*
X146509719Y-84266874D01*
X146475645Y-84200000D01*
X159969196Y-84200000D01*
X159970747Y-84209793D01*
X159987355Y-84314650D01*
X159990281Y-84333126D01*
X160051472Y-84453220D01*
X160146780Y-84548528D01*
X160266874Y-84609719D01*
X160276663Y-84611269D01*
X160276665Y-84611270D01*
X160390207Y-84629253D01*
X160400000Y-84630804D01*
X160409793Y-84629253D01*
X160523335Y-84611270D01*
X160523337Y-84611269D01*
X160533126Y-84609719D01*
X160653220Y-84548528D01*
X160748528Y-84453220D01*
X160756538Y-84437500D01*
X161236196Y-84437500D01*
X161237747Y-84447293D01*
X161254062Y-84550299D01*
X161257281Y-84570626D01*
X161318472Y-84690720D01*
X161413780Y-84786028D01*
X161533874Y-84847219D01*
X161543663Y-84848769D01*
X161543665Y-84848770D01*
X161657207Y-84866753D01*
X161667000Y-84868304D01*
X161676793Y-84866753D01*
X161790335Y-84848770D01*
X161790337Y-84848769D01*
X161800126Y-84847219D01*
X161920220Y-84786028D01*
X162015528Y-84690720D01*
X162076719Y-84570626D01*
X162079939Y-84550299D01*
X162096253Y-84447293D01*
X162097804Y-84437500D01*
X162091613Y-84398411D01*
X162708299Y-84398411D01*
X162709850Y-84408204D01*
X162725487Y-84506930D01*
X162729384Y-84531537D01*
X162790575Y-84651631D01*
X162885883Y-84746939D01*
X163005977Y-84808130D01*
X163015766Y-84809680D01*
X163015768Y-84809681D01*
X163129310Y-84827664D01*
X163139103Y-84829215D01*
X163226883Y-84815312D01*
X163297294Y-84824412D01*
X163351608Y-84870134D01*
X163358858Y-84882553D01*
X163413972Y-84990720D01*
X163509280Y-85086028D01*
X163629374Y-85147219D01*
X163639163Y-85148769D01*
X163639165Y-85148770D01*
X163752707Y-85166753D01*
X163762500Y-85168304D01*
X163772293Y-85166753D01*
X163885835Y-85148770D01*
X163885837Y-85148769D01*
X163895626Y-85147219D01*
X163997130Y-85095500D01*
X167221365Y-85095500D01*
X167222916Y-85105293D01*
X167230571Y-85153622D01*
X167242450Y-85228626D01*
X167303641Y-85348720D01*
X167398949Y-85444028D01*
X167519043Y-85505219D01*
X167528832Y-85506769D01*
X167528834Y-85506770D01*
X167642376Y-85524753D01*
X167652169Y-85526304D01*
X167661962Y-85524753D01*
X167775504Y-85506770D01*
X167775506Y-85506769D01*
X167785295Y-85505219D01*
X167905389Y-85444028D01*
X168000697Y-85348720D01*
X168001565Y-85349588D01*
X168050019Y-85312228D01*
X168120756Y-85306154D01*
X168184824Y-85340549D01*
X168250653Y-85406378D01*
X168340340Y-85452076D01*
X168391954Y-85500823D01*
X168409020Y-85569738D01*
X168386119Y-85636940D01*
X168330522Y-85681092D01*
X168302848Y-85688790D01*
X168271671Y-85693728D01*
X168271663Y-85693731D01*
X168261874Y-85695281D01*
X168141780Y-85756472D01*
X168046472Y-85851780D01*
X167985281Y-85971874D01*
X167983731Y-85981663D01*
X167983730Y-85981665D01*
X167966458Y-86090720D01*
X167964196Y-86105000D01*
X167965747Y-86114793D01*
X167983358Y-86225983D01*
X167985281Y-86238126D01*
X168046472Y-86358220D01*
X168141780Y-86453528D01*
X168261874Y-86514719D01*
X168271663Y-86516269D01*
X168271665Y-86516270D01*
X168385207Y-86534253D01*
X168395000Y-86535804D01*
X168404793Y-86534253D01*
X168518335Y-86516270D01*
X168518337Y-86516269D01*
X168528126Y-86514719D01*
X168648220Y-86453528D01*
X168743528Y-86358220D01*
X168804719Y-86238126D01*
X168806643Y-86225983D01*
X168824253Y-86114793D01*
X168825804Y-86105000D01*
X168823542Y-86090720D01*
X168809174Y-86000000D01*
X175069196Y-86000000D01*
X175070747Y-86009793D01*
X175086465Y-86109030D01*
X175090281Y-86133126D01*
X175151472Y-86253220D01*
X175246780Y-86348528D01*
X175366874Y-86409719D01*
X175376663Y-86411269D01*
X175376665Y-86411270D01*
X175490207Y-86429253D01*
X175500000Y-86430804D01*
X175509793Y-86429253D01*
X175623335Y-86411270D01*
X175623337Y-86411269D01*
X175633126Y-86409719D01*
X175753220Y-86348528D01*
X175848528Y-86253220D01*
X175909719Y-86133126D01*
X175913536Y-86109030D01*
X175929253Y-86009793D01*
X175930804Y-86000000D01*
X175927900Y-85981665D01*
X175911270Y-85876665D01*
X175911269Y-85876663D01*
X175909719Y-85866874D01*
X175848528Y-85746780D01*
X175753220Y-85651472D01*
X175633126Y-85590281D01*
X175623337Y-85588731D01*
X175623335Y-85588730D01*
X175509793Y-85570747D01*
X175500000Y-85569196D01*
X175490207Y-85570747D01*
X175376665Y-85588730D01*
X175376663Y-85588731D01*
X175366874Y-85590281D01*
X175246780Y-85651472D01*
X175151472Y-85746780D01*
X175090281Y-85866874D01*
X175088731Y-85876663D01*
X175088730Y-85876665D01*
X175072100Y-85981665D01*
X175069196Y-86000000D01*
X168809174Y-86000000D01*
X168806270Y-85981665D01*
X168806269Y-85981663D01*
X168804719Y-85971874D01*
X168743528Y-85851780D01*
X168648220Y-85756472D01*
X168558533Y-85710774D01*
X168506919Y-85662027D01*
X168489853Y-85593112D01*
X168498492Y-85567762D01*
X178932020Y-85567762D01*
X178932536Y-85573906D01*
X178948565Y-85764784D01*
X178949259Y-85773053D01*
X178950958Y-85778978D01*
X179003105Y-85960835D01*
X179006044Y-85971086D01*
X179008859Y-85976563D01*
X179008860Y-85976566D01*
X179097397Y-86148841D01*
X179100212Y-86154318D01*
X179228177Y-86315770D01*
X179232870Y-86319764D01*
X179232871Y-86319765D01*
X179367537Y-86434374D01*
X179385064Y-86449291D01*
X179564898Y-86549797D01*
X179630591Y-86571142D01*
X179754971Y-86611556D01*
X179754975Y-86611557D01*
X179760829Y-86613459D01*
X179965394Y-86637851D01*
X179971529Y-86637379D01*
X179971531Y-86637379D01*
X180027539Y-86633069D01*
X180170800Y-86622046D01*
X180176730Y-86620390D01*
X180176732Y-86620390D01*
X180363297Y-86568300D01*
X180363296Y-86568300D01*
X180369225Y-86566645D01*
X180374714Y-86563872D01*
X180374720Y-86563870D01*
X180518921Y-86491028D01*
X180553110Y-86473758D01*
X180579004Y-86453528D01*
X180697539Y-86360918D01*
X180715451Y-86346924D01*
X180720119Y-86341517D01*
X180846040Y-86195634D01*
X180846040Y-86195633D01*
X180850064Y-86190972D01*
X180856856Y-86179017D01*
X180893340Y-86114793D01*
X180951823Y-86011844D01*
X181016851Y-85816363D01*
X181042671Y-85611974D01*
X181043083Y-85582500D01*
X181022980Y-85377470D01*
X180963435Y-85180249D01*
X180866718Y-84998349D01*
X180786539Y-84900040D01*
X180740406Y-84843475D01*
X180740403Y-84843472D01*
X180736511Y-84838700D01*
X180729673Y-84833043D01*
X180582525Y-84711311D01*
X180582521Y-84711309D01*
X180577775Y-84707382D01*
X180396555Y-84609397D01*
X180199754Y-84548477D01*
X180193629Y-84547833D01*
X180193628Y-84547833D01*
X180000998Y-84527587D01*
X180000996Y-84527587D01*
X179994869Y-84526943D01*
X179908029Y-84534846D01*
X179795842Y-84545055D01*
X179795839Y-84545056D01*
X179789703Y-84545614D01*
X179592072Y-84603780D01*
X179409502Y-84699226D01*
X179404701Y-84703086D01*
X179404698Y-84703088D01*
X179263310Y-84816767D01*
X179248947Y-84828315D01*
X179116524Y-84986130D01*
X179113556Y-84991528D01*
X179113553Y-84991533D01*
X179055611Y-85096931D01*
X179017276Y-85166662D01*
X178954984Y-85363032D01*
X178954298Y-85369149D01*
X178954297Y-85369153D01*
X178938070Y-85513823D01*
X178932020Y-85567762D01*
X168498492Y-85567762D01*
X168512754Y-85525910D01*
X168568351Y-85481758D01*
X168596025Y-85474060D01*
X168627202Y-85469122D01*
X168627210Y-85469119D01*
X168636999Y-85467569D01*
X168757093Y-85406378D01*
X168852401Y-85311070D01*
X168913592Y-85190976D01*
X168916109Y-85175088D01*
X168933126Y-85067643D01*
X168934677Y-85057850D01*
X168924497Y-84993573D01*
X168915143Y-84934515D01*
X168915142Y-84934513D01*
X168913592Y-84924724D01*
X168852401Y-84804630D01*
X168757093Y-84709322D01*
X168636999Y-84648131D01*
X168627210Y-84646581D01*
X168627208Y-84646580D01*
X168513666Y-84628597D01*
X168503873Y-84627046D01*
X168494080Y-84628597D01*
X168380538Y-84646580D01*
X168380536Y-84646581D01*
X168370747Y-84648131D01*
X168250653Y-84709322D01*
X168155345Y-84804630D01*
X168154477Y-84803762D01*
X168106023Y-84841122D01*
X168035286Y-84847196D01*
X167971218Y-84812801D01*
X167905389Y-84746972D01*
X167797098Y-84691795D01*
X167745483Y-84643047D01*
X167728417Y-84574132D01*
X167751318Y-84506930D01*
X167806915Y-84462778D01*
X167834590Y-84455079D01*
X167902834Y-84444270D01*
X167902835Y-84444270D01*
X167912626Y-84442719D01*
X168032720Y-84381528D01*
X168128028Y-84286220D01*
X168189219Y-84166126D01*
X168190885Y-84155612D01*
X168208753Y-84042793D01*
X168210304Y-84033000D01*
X168200425Y-83970626D01*
X168190770Y-83909665D01*
X168190769Y-83909663D01*
X168189219Y-83899874D01*
X168157438Y-83837500D01*
X173531696Y-83837500D01*
X173533247Y-83847293D01*
X173546942Y-83933758D01*
X173552781Y-83970626D01*
X173613972Y-84090720D01*
X173709280Y-84186028D01*
X173829374Y-84247219D01*
X173839163Y-84248769D01*
X173839165Y-84248770D01*
X173952707Y-84266753D01*
X173962500Y-84268304D01*
X173972293Y-84266753D01*
X174085835Y-84248770D01*
X174085837Y-84248769D01*
X174095626Y-84247219D01*
X174215720Y-84186028D01*
X174311028Y-84090720D01*
X174372219Y-83970626D01*
X174378059Y-83933758D01*
X174391753Y-83847293D01*
X174393304Y-83837500D01*
X174382762Y-83770939D01*
X174373770Y-83714165D01*
X174373769Y-83714163D01*
X174372219Y-83704374D01*
X174311028Y-83584280D01*
X174215720Y-83488972D01*
X174095626Y-83427781D01*
X174085837Y-83426231D01*
X174085835Y-83426230D01*
X173972293Y-83408247D01*
X173962500Y-83406696D01*
X173952707Y-83408247D01*
X173839165Y-83426230D01*
X173839163Y-83426231D01*
X173829374Y-83427781D01*
X173709280Y-83488972D01*
X173613972Y-83584280D01*
X173552781Y-83704374D01*
X173551231Y-83714163D01*
X173551230Y-83714165D01*
X173542238Y-83770939D01*
X173531696Y-83837500D01*
X168157438Y-83837500D01*
X168128028Y-83779780D01*
X168032720Y-83684472D01*
X167912626Y-83623281D01*
X167902837Y-83621731D01*
X167902835Y-83621730D01*
X167789293Y-83603747D01*
X167779500Y-83602196D01*
X167769707Y-83603747D01*
X167656165Y-83621730D01*
X167656163Y-83621731D01*
X167646374Y-83623281D01*
X167526280Y-83684472D01*
X167430972Y-83779780D01*
X167369781Y-83899874D01*
X167368231Y-83909663D01*
X167368230Y-83909665D01*
X167358575Y-83970626D01*
X167348696Y-84033000D01*
X167350247Y-84042793D01*
X167368116Y-84155612D01*
X167369781Y-84166126D01*
X167430972Y-84286220D01*
X167526280Y-84381528D01*
X167567216Y-84402386D01*
X167634571Y-84436705D01*
X167686186Y-84485453D01*
X167703252Y-84554368D01*
X167680351Y-84621570D01*
X167624754Y-84665722D01*
X167597079Y-84673421D01*
X167528835Y-84684230D01*
X167528834Y-84684230D01*
X167519043Y-84685781D01*
X167398949Y-84746972D01*
X167303641Y-84842280D01*
X167242450Y-84962374D01*
X167240900Y-84972163D01*
X167240899Y-84972165D01*
X167222916Y-85085707D01*
X167221365Y-85095500D01*
X163997130Y-85095500D01*
X164015720Y-85086028D01*
X164111028Y-84990720D01*
X164115529Y-84981888D01*
X164115961Y-84981038D01*
X164116761Y-84980190D01*
X164121361Y-84973860D01*
X164122179Y-84974454D01*
X164164708Y-84929422D01*
X164233623Y-84912354D01*
X164267164Y-84918405D01*
X164271260Y-84919736D01*
X164280094Y-84924237D01*
X164413220Y-84945322D01*
X164423013Y-84943771D01*
X164536555Y-84925788D01*
X164536557Y-84925787D01*
X164546346Y-84924237D01*
X164666440Y-84863046D01*
X164761748Y-84767738D01*
X164822939Y-84647644D01*
X164824490Y-84637852D01*
X164827555Y-84628419D01*
X164828887Y-84628852D01*
X164854839Y-84574108D01*
X164915108Y-84536583D01*
X164986097Y-84537598D01*
X165045269Y-84576832D01*
X165061140Y-84600769D01*
X165106972Y-84690720D01*
X165202280Y-84786028D01*
X165322374Y-84847219D01*
X165332163Y-84848769D01*
X165332165Y-84848770D01*
X165445707Y-84866753D01*
X165455500Y-84868304D01*
X165465293Y-84866753D01*
X165578835Y-84848770D01*
X165578837Y-84848769D01*
X165588626Y-84847219D01*
X165708720Y-84786028D01*
X165804028Y-84690720D01*
X165865219Y-84570626D01*
X165868439Y-84550299D01*
X165884753Y-84447293D01*
X165886304Y-84437500D01*
X165877439Y-84381528D01*
X165866770Y-84314165D01*
X165866769Y-84314163D01*
X165865219Y-84304374D01*
X165804028Y-84184280D01*
X165708720Y-84088972D01*
X165588626Y-84027781D01*
X165578837Y-84026231D01*
X165578835Y-84026230D01*
X165465293Y-84008247D01*
X165455500Y-84006696D01*
X165445707Y-84008247D01*
X165332165Y-84026230D01*
X165332163Y-84026231D01*
X165322374Y-84027781D01*
X165202280Y-84088972D01*
X165106972Y-84184280D01*
X165045781Y-84304374D01*
X165044230Y-84314165D01*
X165041165Y-84323599D01*
X165039833Y-84323166D01*
X165013881Y-84377910D01*
X164953612Y-84415435D01*
X164882623Y-84414420D01*
X164823451Y-84375186D01*
X164807579Y-84351247D01*
X164801678Y-84339664D01*
X164761748Y-84261298D01*
X164666440Y-84165990D01*
X164546346Y-84104799D01*
X164536557Y-84103249D01*
X164536555Y-84103248D01*
X164423013Y-84085265D01*
X164413220Y-84083714D01*
X164403427Y-84085265D01*
X164289885Y-84103248D01*
X164289883Y-84103249D01*
X164280094Y-84104799D01*
X164160000Y-84165990D01*
X164064692Y-84261298D01*
X164060193Y-84270127D01*
X164060192Y-84270129D01*
X164059759Y-84270980D01*
X164058959Y-84271828D01*
X164054359Y-84278158D01*
X164053541Y-84277564D01*
X164011012Y-84322596D01*
X163942097Y-84339664D01*
X163908556Y-84333613D01*
X163904460Y-84332282D01*
X163895626Y-84327781D01*
X163762500Y-84306696D01*
X163674720Y-84320599D01*
X163604309Y-84311499D01*
X163549995Y-84265777D01*
X163542742Y-84253353D01*
X163541871Y-84251642D01*
X163487631Y-84145191D01*
X163392323Y-84049883D01*
X163272229Y-83988692D01*
X163262440Y-83987142D01*
X163262438Y-83987141D01*
X163148896Y-83969158D01*
X163139103Y-83967607D01*
X163129310Y-83969158D01*
X163015768Y-83987141D01*
X163015766Y-83987142D01*
X163005977Y-83988692D01*
X162885883Y-84049883D01*
X162790575Y-84145191D01*
X162729384Y-84265285D01*
X162727834Y-84275074D01*
X162727833Y-84275076D01*
X162710973Y-84381528D01*
X162708299Y-84398411D01*
X162091613Y-84398411D01*
X162088939Y-84381528D01*
X162078270Y-84314165D01*
X162078269Y-84314163D01*
X162076719Y-84304374D01*
X162015528Y-84184280D01*
X161920220Y-84088972D01*
X161800126Y-84027781D01*
X161790337Y-84026231D01*
X161790335Y-84026230D01*
X161676793Y-84008247D01*
X161667000Y-84006696D01*
X161657207Y-84008247D01*
X161543665Y-84026230D01*
X161543663Y-84026231D01*
X161533874Y-84027781D01*
X161413780Y-84088972D01*
X161318472Y-84184280D01*
X161257281Y-84304374D01*
X161255731Y-84314163D01*
X161255730Y-84314165D01*
X161245061Y-84381528D01*
X161236196Y-84437500D01*
X160756538Y-84437500D01*
X160809719Y-84333126D01*
X160812646Y-84314650D01*
X160829253Y-84209793D01*
X160830804Y-84200000D01*
X160822123Y-84145191D01*
X160811270Y-84076665D01*
X160811269Y-84076663D01*
X160809719Y-84066874D01*
X160748528Y-83946780D01*
X160653220Y-83851472D01*
X160533126Y-83790281D01*
X160523337Y-83788731D01*
X160523335Y-83788730D01*
X160409793Y-83770747D01*
X160400000Y-83769196D01*
X160390207Y-83770747D01*
X160276665Y-83788730D01*
X160276663Y-83788731D01*
X160266874Y-83790281D01*
X160146780Y-83851472D01*
X160051472Y-83946780D01*
X159990281Y-84066874D01*
X159988731Y-84076663D01*
X159988730Y-84076665D01*
X159977877Y-84145191D01*
X159969196Y-84200000D01*
X146475645Y-84200000D01*
X146448528Y-84146780D01*
X146353220Y-84051472D01*
X146233126Y-83990281D01*
X146223337Y-83988731D01*
X146223335Y-83988730D01*
X146109793Y-83970747D01*
X146100000Y-83969196D01*
X146090207Y-83970747D01*
X145976665Y-83988730D01*
X145976663Y-83988731D01*
X145966874Y-83990281D01*
X145846780Y-84051472D01*
X145751472Y-84146780D01*
X145690281Y-84266874D01*
X145688731Y-84276663D01*
X145688730Y-84276665D01*
X145679620Y-84334184D01*
X145669196Y-84400000D01*
X140952742Y-84400000D01*
X140966409Y-84260983D01*
X140967148Y-84250951D01*
X140967753Y-84238624D01*
X140968000Y-84228550D01*
X140968000Y-83967992D01*
X140968607Y-83955642D01*
X140980243Y-83837500D01*
X140983024Y-83809260D01*
X140987843Y-83785036D01*
X141025795Y-83659927D01*
X141035247Y-83637107D01*
X141096875Y-83521808D01*
X141110598Y-83501270D01*
X141203921Y-83387556D01*
X141212225Y-83378395D01*
X141688824Y-82901796D01*
X156832619Y-82901796D01*
X156834170Y-82911589D01*
X156846399Y-82988797D01*
X156853704Y-83034922D01*
X156914895Y-83155016D01*
X157010203Y-83250324D01*
X157130297Y-83311515D01*
X157140086Y-83313065D01*
X157140088Y-83313066D01*
X157253630Y-83331049D01*
X157263423Y-83332600D01*
X157273216Y-83331049D01*
X157386758Y-83313066D01*
X157386760Y-83313065D01*
X157396549Y-83311515D01*
X157516643Y-83250324D01*
X157611951Y-83155016D01*
X157639983Y-83100000D01*
X159769196Y-83100000D01*
X159770747Y-83109793D01*
X159783652Y-83191270D01*
X159790281Y-83233126D01*
X159851472Y-83353220D01*
X159946780Y-83448528D01*
X160066874Y-83509719D01*
X160076663Y-83511269D01*
X160076665Y-83511270D01*
X160190207Y-83529253D01*
X160200000Y-83530804D01*
X160209793Y-83529253D01*
X160323335Y-83511270D01*
X160323337Y-83511269D01*
X160333126Y-83509719D01*
X160453220Y-83448528D01*
X160548528Y-83353220D01*
X160550172Y-83349993D01*
X164569196Y-83349993D01*
X164570747Y-83359786D01*
X164581102Y-83425162D01*
X164590281Y-83483119D01*
X164651472Y-83603213D01*
X164746780Y-83698521D01*
X164866874Y-83759712D01*
X164876663Y-83761262D01*
X164876665Y-83761263D01*
X164990207Y-83779246D01*
X165000000Y-83780797D01*
X165009793Y-83779246D01*
X165123335Y-83761263D01*
X165123337Y-83761262D01*
X165133126Y-83759712D01*
X165253220Y-83698521D01*
X165348528Y-83603213D01*
X165409719Y-83483119D01*
X165418899Y-83425162D01*
X165429253Y-83359786D01*
X165430804Y-83349993D01*
X165420069Y-83282215D01*
X165411270Y-83226658D01*
X165411269Y-83226656D01*
X165409719Y-83216867D01*
X165348528Y-83096773D01*
X165253220Y-83001465D01*
X165133126Y-82940274D01*
X165123337Y-82938724D01*
X165123335Y-82938723D01*
X165009793Y-82920740D01*
X165000000Y-82919189D01*
X164990207Y-82920740D01*
X164876665Y-82938723D01*
X164876663Y-82938724D01*
X164866874Y-82940274D01*
X164746780Y-83001465D01*
X164651472Y-83096773D01*
X164590281Y-83216867D01*
X164588731Y-83226656D01*
X164588730Y-83226658D01*
X164579931Y-83282215D01*
X164569196Y-83349993D01*
X160550172Y-83349993D01*
X160609719Y-83233126D01*
X160616349Y-83191270D01*
X160629253Y-83109793D01*
X160630804Y-83100000D01*
X160629253Y-83090207D01*
X160611270Y-82976665D01*
X160611269Y-82976663D01*
X160609719Y-82966874D01*
X160550043Y-82849753D01*
X171532915Y-82849753D01*
X171534466Y-82859546D01*
X171543913Y-82919189D01*
X171554000Y-82982879D01*
X171615191Y-83102973D01*
X171710499Y-83198281D01*
X171830593Y-83259472D01*
X171840382Y-83261022D01*
X171840384Y-83261023D01*
X171953926Y-83279006D01*
X171963719Y-83280557D01*
X171973512Y-83279006D01*
X172087054Y-83261023D01*
X172087056Y-83261022D01*
X172096845Y-83259472D01*
X172216939Y-83198281D01*
X172312247Y-83102973D01*
X172350569Y-83027762D01*
X178932020Y-83027762D01*
X178949259Y-83233053D01*
X178950958Y-83238978D01*
X178998854Y-83406010D01*
X179006044Y-83431086D01*
X179008859Y-83436563D01*
X179008860Y-83436566D01*
X179089966Y-83594381D01*
X179100212Y-83614318D01*
X179228177Y-83775770D01*
X179232870Y-83779764D01*
X179232871Y-83779765D01*
X179325365Y-83858483D01*
X179385064Y-83909291D01*
X179390442Y-83912297D01*
X179390444Y-83912298D01*
X179467999Y-83955642D01*
X179564898Y-84009797D01*
X179659738Y-84040613D01*
X179754971Y-84071556D01*
X179754975Y-84071557D01*
X179760829Y-84073459D01*
X179965394Y-84097851D01*
X179971529Y-84097379D01*
X179971531Y-84097379D01*
X180027539Y-84093069D01*
X180170800Y-84082046D01*
X180176730Y-84080390D01*
X180176732Y-84080390D01*
X180363297Y-84028300D01*
X180363296Y-84028300D01*
X180369225Y-84026645D01*
X180374714Y-84023872D01*
X180374720Y-84023870D01*
X180547616Y-83936533D01*
X180553110Y-83933758D01*
X180715451Y-83806924D01*
X180731258Y-83788612D01*
X180846040Y-83655634D01*
X180846040Y-83655633D01*
X180850064Y-83650972D01*
X180857941Y-83637107D01*
X180932864Y-83505218D01*
X180951823Y-83471844D01*
X181016851Y-83276363D01*
X181042671Y-83071974D01*
X181043083Y-83042500D01*
X181041638Y-83027762D01*
X181472020Y-83027762D01*
X181489259Y-83233053D01*
X181490958Y-83238978D01*
X181538854Y-83406010D01*
X181546044Y-83431086D01*
X181548859Y-83436563D01*
X181548860Y-83436566D01*
X181629966Y-83594381D01*
X181640212Y-83614318D01*
X181768177Y-83775770D01*
X181772870Y-83779764D01*
X181772871Y-83779765D01*
X181865365Y-83858483D01*
X181925064Y-83909291D01*
X181930442Y-83912297D01*
X181930444Y-83912298D01*
X182007999Y-83955642D01*
X182104898Y-84009797D01*
X182199738Y-84040613D01*
X182294971Y-84071556D01*
X182294975Y-84071557D01*
X182300829Y-84073459D01*
X182505394Y-84097851D01*
X182511529Y-84097379D01*
X182511531Y-84097379D01*
X182567539Y-84093069D01*
X182710800Y-84082046D01*
X182716730Y-84080390D01*
X182716732Y-84080390D01*
X182903297Y-84028300D01*
X182903296Y-84028300D01*
X182909225Y-84026645D01*
X182914714Y-84023872D01*
X182914720Y-84023870D01*
X183087616Y-83936533D01*
X183093110Y-83933758D01*
X183255451Y-83806924D01*
X183271258Y-83788612D01*
X183386040Y-83655634D01*
X183386040Y-83655633D01*
X183390064Y-83650972D01*
X183397941Y-83637107D01*
X183472864Y-83505218D01*
X183491823Y-83471844D01*
X183556851Y-83276363D01*
X183582671Y-83071974D01*
X183583083Y-83042500D01*
X183562980Y-82837470D01*
X183503435Y-82640249D01*
X183406718Y-82458349D01*
X183281156Y-82304395D01*
X183280406Y-82303475D01*
X183280403Y-82303472D01*
X183276511Y-82298700D01*
X183269673Y-82293043D01*
X183122525Y-82171311D01*
X183122521Y-82171309D01*
X183117775Y-82167382D01*
X182936555Y-82069397D01*
X182739754Y-82008477D01*
X182733629Y-82007833D01*
X182733628Y-82007833D01*
X182540998Y-81987587D01*
X182540996Y-81987587D01*
X182534869Y-81986943D01*
X182473257Y-81992550D01*
X182335842Y-82005055D01*
X182335839Y-82005056D01*
X182329703Y-82005614D01*
X182132072Y-82063780D01*
X181949502Y-82159226D01*
X181944701Y-82163086D01*
X181944698Y-82163088D01*
X181799962Y-82279459D01*
X181788947Y-82288315D01*
X181656524Y-82446130D01*
X181653556Y-82451528D01*
X181653553Y-82451533D01*
X181568984Y-82605365D01*
X181557276Y-82626662D01*
X181494984Y-82823032D01*
X181494298Y-82829149D01*
X181494297Y-82829153D01*
X181486149Y-82901796D01*
X181472020Y-83027762D01*
X181041638Y-83027762D01*
X181022980Y-82837470D01*
X180963435Y-82640249D01*
X180866718Y-82458349D01*
X180741156Y-82304395D01*
X180740406Y-82303475D01*
X180740403Y-82303472D01*
X180736511Y-82298700D01*
X180729673Y-82293043D01*
X180582525Y-82171311D01*
X180582521Y-82171309D01*
X180577775Y-82167382D01*
X180396555Y-82069397D01*
X180199754Y-82008477D01*
X180193629Y-82007833D01*
X180193628Y-82007833D01*
X180000998Y-81987587D01*
X180000996Y-81987587D01*
X179994869Y-81986943D01*
X179933257Y-81992550D01*
X179795842Y-82005055D01*
X179795839Y-82005056D01*
X179789703Y-82005614D01*
X179592072Y-82063780D01*
X179409502Y-82159226D01*
X179404701Y-82163086D01*
X179404698Y-82163088D01*
X179259962Y-82279459D01*
X179248947Y-82288315D01*
X179116524Y-82446130D01*
X179113556Y-82451528D01*
X179113553Y-82451533D01*
X179028984Y-82605365D01*
X179017276Y-82626662D01*
X178954984Y-82823032D01*
X178954298Y-82829149D01*
X178954297Y-82829153D01*
X178946149Y-82901796D01*
X178932020Y-83027762D01*
X172350569Y-83027762D01*
X172373438Y-82982879D01*
X172383526Y-82919189D01*
X172392972Y-82859546D01*
X172394523Y-82849753D01*
X172380282Y-82759837D01*
X172374989Y-82726418D01*
X172374988Y-82726416D01*
X172373438Y-82716627D01*
X172312247Y-82596533D01*
X172216939Y-82501225D01*
X172096845Y-82440034D01*
X172087056Y-82438484D01*
X172087054Y-82438483D01*
X171973512Y-82420500D01*
X171963719Y-82418949D01*
X171953926Y-82420500D01*
X171840384Y-82438483D01*
X171840382Y-82438484D01*
X171830593Y-82440034D01*
X171710499Y-82501225D01*
X171615191Y-82596533D01*
X171554000Y-82716627D01*
X171552450Y-82726416D01*
X171552449Y-82726418D01*
X171547156Y-82759837D01*
X171532915Y-82849753D01*
X160550043Y-82849753D01*
X160548528Y-82846780D01*
X160453220Y-82751472D01*
X160333126Y-82690281D01*
X160323337Y-82688731D01*
X160323335Y-82688730D01*
X160209793Y-82670747D01*
X160200000Y-82669196D01*
X160190207Y-82670747D01*
X160076665Y-82688730D01*
X160076663Y-82688731D01*
X160066874Y-82690281D01*
X159946780Y-82751472D01*
X159851472Y-82846780D01*
X159790281Y-82966874D01*
X159788731Y-82976663D01*
X159788730Y-82976665D01*
X159770747Y-83090207D01*
X159769196Y-83100000D01*
X157639983Y-83100000D01*
X157673142Y-83034922D01*
X157680448Y-82988797D01*
X157692676Y-82911589D01*
X157694227Y-82901796D01*
X157683745Y-82835612D01*
X157674693Y-82778461D01*
X157674692Y-82778459D01*
X157673142Y-82768670D01*
X157611951Y-82648576D01*
X157516643Y-82553268D01*
X157396549Y-82492077D01*
X157386760Y-82490527D01*
X157386758Y-82490526D01*
X157273216Y-82472543D01*
X157263423Y-82470992D01*
X157253630Y-82472543D01*
X157140088Y-82490526D01*
X157140086Y-82490527D01*
X157130297Y-82492077D01*
X157010203Y-82553268D01*
X156914895Y-82648576D01*
X156853704Y-82768670D01*
X156852154Y-82778459D01*
X156852153Y-82778461D01*
X156843101Y-82835612D01*
X156832619Y-82901796D01*
X141688824Y-82901796D01*
X142103395Y-82487225D01*
X142112556Y-82478921D01*
X142226270Y-82385598D01*
X142246808Y-82371875D01*
X142362107Y-82310247D01*
X142384927Y-82300795D01*
X142510036Y-82262843D01*
X142534260Y-82258024D01*
X142680642Y-82243607D01*
X142692992Y-82243000D01*
X142724081Y-82243000D01*
X142726196Y-82242856D01*
X142726206Y-82242856D01*
X142749742Y-82241257D01*
X142749747Y-82241256D01*
X142751874Y-82241112D01*
X142753986Y-82240824D01*
X142753993Y-82240823D01*
X142765232Y-82239289D01*
X142785640Y-82236503D01*
X142791882Y-82234251D01*
X142791885Y-82234250D01*
X142860222Y-82209592D01*
X142866466Y-82207339D01*
X142919328Y-82174425D01*
X142925094Y-82170835D01*
X142925100Y-82170831D01*
X142926735Y-82169813D01*
X142947221Y-82155246D01*
X142952797Y-82148166D01*
X142952800Y-82148163D01*
X142979468Y-82114299D01*
X143003806Y-82083396D01*
X143028627Y-82031040D01*
X143032294Y-82023305D01*
X143032295Y-82023302D01*
X143034219Y-82019244D01*
X143035544Y-82014959D01*
X143035548Y-82014949D01*
X143045426Y-81983003D01*
X143053536Y-81963023D01*
X143073241Y-81924351D01*
X143096412Y-81892460D01*
X143117461Y-81871411D01*
X143149352Y-81848240D01*
X143175886Y-81834720D01*
X143213378Y-81822538D01*
X143242793Y-81817879D01*
X143282207Y-81817879D01*
X143311622Y-81822538D01*
X143349114Y-81834720D01*
X143375648Y-81848240D01*
X143407539Y-81871411D01*
X143428588Y-81892460D01*
X143451761Y-81924354D01*
X143467941Y-81956110D01*
X143478497Y-81985198D01*
X143479713Y-81990514D01*
X143489547Y-82023143D01*
X143530998Y-82098416D01*
X143577491Y-82152072D01*
X143595084Y-82170027D01*
X143674902Y-82214674D01*
X143706701Y-82224011D01*
X143738700Y-82233407D01*
X143738704Y-82233408D01*
X143743023Y-82234676D01*
X143747471Y-82235316D01*
X143747478Y-82235317D01*
X143796471Y-82242361D01*
X143796478Y-82242362D01*
X143800919Y-82243000D01*
X145256313Y-82243000D01*
X145266401Y-82242752D01*
X145267142Y-82242716D01*
X145267158Y-82242715D01*
X145277979Y-82242183D01*
X145277984Y-82242183D01*
X145278751Y-82242145D01*
X145279491Y-82242090D01*
X145279530Y-82242088D01*
X145287980Y-82241464D01*
X145287984Y-82241464D01*
X145288806Y-82241403D01*
X145465383Y-82224011D01*
X145485323Y-82221054D01*
X145509540Y-82216238D01*
X145511024Y-82215866D01*
X145511030Y-82215865D01*
X145527617Y-82211711D01*
X145527630Y-82211708D01*
X145529109Y-82211337D01*
X145650795Y-82174425D01*
X145691470Y-82162087D01*
X145691485Y-82162082D01*
X145692962Y-82161634D01*
X145694431Y-82161108D01*
X145694438Y-82161106D01*
X145710492Y-82155361D01*
X145710493Y-82155360D01*
X145711959Y-82154836D01*
X145728067Y-82148163D01*
X145733376Y-82145964D01*
X145733383Y-82145961D01*
X145734778Y-82145383D01*
X145752502Y-82137000D01*
X153231696Y-82137000D01*
X153233247Y-82146793D01*
X153248485Y-82243000D01*
X153252781Y-82270126D01*
X153313972Y-82390220D01*
X153409280Y-82485528D01*
X153529374Y-82546719D01*
X153539163Y-82548269D01*
X153539165Y-82548270D01*
X153652707Y-82566253D01*
X153662500Y-82567804D01*
X153672293Y-82566253D01*
X153785835Y-82548270D01*
X153785837Y-82548269D01*
X153795626Y-82546719D01*
X153915720Y-82485528D01*
X154011028Y-82390220D01*
X154072219Y-82270126D01*
X154076516Y-82243000D01*
X154091753Y-82146793D01*
X154093225Y-82137500D01*
X172644196Y-82137500D01*
X172645747Y-82147293D01*
X172661416Y-82246221D01*
X172665281Y-82270626D01*
X172726472Y-82390720D01*
X172821780Y-82486028D01*
X172941874Y-82547219D01*
X172951663Y-82548769D01*
X172951665Y-82548770D01*
X173065207Y-82566753D01*
X173075000Y-82568304D01*
X173084793Y-82566753D01*
X173198335Y-82548770D01*
X173198337Y-82548769D01*
X173208126Y-82547219D01*
X173328220Y-82486028D01*
X173423528Y-82390720D01*
X173484719Y-82270626D01*
X173488585Y-82246221D01*
X173504253Y-82147293D01*
X173505804Y-82137500D01*
X173499202Y-82095816D01*
X173486270Y-82014165D01*
X173486269Y-82014163D01*
X173484719Y-82004374D01*
X173423528Y-81884280D01*
X173328220Y-81788972D01*
X173208126Y-81727781D01*
X173198337Y-81726231D01*
X173198335Y-81726230D01*
X173084793Y-81708247D01*
X173075000Y-81706696D01*
X173065207Y-81708247D01*
X172951665Y-81726230D01*
X172951663Y-81726231D01*
X172941874Y-81727781D01*
X172821780Y-81788972D01*
X172726472Y-81884280D01*
X172665281Y-82004374D01*
X172663731Y-82014163D01*
X172663730Y-82014165D01*
X172650798Y-82095816D01*
X172644196Y-82137500D01*
X154093225Y-82137500D01*
X154093304Y-82137000D01*
X154080600Y-82056789D01*
X154073770Y-82013665D01*
X154073769Y-82013663D01*
X154072219Y-82003874D01*
X154011028Y-81883780D01*
X153915720Y-81788472D01*
X153795626Y-81727281D01*
X153785837Y-81725731D01*
X153785835Y-81725730D01*
X153672293Y-81707747D01*
X153662500Y-81706196D01*
X153652707Y-81707747D01*
X153539165Y-81725730D01*
X153539163Y-81725731D01*
X153529374Y-81727281D01*
X153409280Y-81788472D01*
X153313972Y-81883780D01*
X153252781Y-82003874D01*
X153251231Y-82013663D01*
X153251230Y-82013665D01*
X153244400Y-82056789D01*
X153231696Y-82137000D01*
X145752502Y-82137000D01*
X145753001Y-82136764D01*
X145754362Y-82136037D01*
X145754375Y-82136030D01*
X145824745Y-82098416D01*
X145904003Y-82056052D01*
X145921302Y-82045683D01*
X145922572Y-82044834D01*
X145922590Y-82044823D01*
X145940536Y-82032831D01*
X145940537Y-82032830D01*
X145941829Y-82031967D01*
X145958025Y-82019955D01*
X145965080Y-82014165D01*
X146089199Y-81912304D01*
X146089204Y-81912300D01*
X146090388Y-81911328D01*
X146105331Y-81897784D01*
X146122784Y-81880331D01*
X146136328Y-81865388D01*
X146142967Y-81857299D01*
X146243972Y-81734223D01*
X146243975Y-81734219D01*
X146244955Y-81733025D01*
X146256967Y-81716829D01*
X146270685Y-81696299D01*
X146271469Y-81694991D01*
X146271481Y-81694972D01*
X146280250Y-81680341D01*
X146280256Y-81680330D01*
X146281054Y-81678999D01*
X146281779Y-81677643D01*
X146281789Y-81677625D01*
X146361030Y-81529374D01*
X146361037Y-81529361D01*
X146361764Y-81528000D01*
X146362421Y-81526610D01*
X146362431Y-81526591D01*
X146367831Y-81515173D01*
X146370384Y-81509775D01*
X146379837Y-81486955D01*
X146386634Y-81467961D01*
X146436337Y-81304109D01*
X146438772Y-81294388D01*
X146440863Y-81286036D01*
X146441237Y-81284543D01*
X146442515Y-81278120D01*
X146445757Y-81261816D01*
X146446054Y-81260323D01*
X146449012Y-81240379D01*
X146449160Y-81238871D01*
X146449163Y-81238851D01*
X146466325Y-81064596D01*
X146466403Y-81063805D01*
X146467145Y-81053751D01*
X146467752Y-81041401D01*
X146468000Y-81031313D01*
X146468000Y-80987500D01*
X156774196Y-80987500D01*
X156775747Y-80997293D01*
X156792534Y-81103280D01*
X156795281Y-81120626D01*
X156856472Y-81240720D01*
X156951780Y-81336028D01*
X157071874Y-81397219D01*
X157081663Y-81398769D01*
X157081665Y-81398770D01*
X157195207Y-81416753D01*
X157205000Y-81418304D01*
X157214793Y-81416753D01*
X157328335Y-81398770D01*
X157328337Y-81398769D01*
X157338126Y-81397219D01*
X157458220Y-81336028D01*
X157553528Y-81240720D01*
X157614719Y-81120626D01*
X157617467Y-81103280D01*
X157623474Y-81065354D01*
X170694788Y-81065354D01*
X170696339Y-81075147D01*
X170711046Y-81168001D01*
X170715873Y-81198480D01*
X170777064Y-81318574D01*
X170872372Y-81413882D01*
X170992466Y-81475073D01*
X171002255Y-81476623D01*
X171002257Y-81476624D01*
X171115799Y-81494607D01*
X171125592Y-81496158D01*
X171135385Y-81494607D01*
X171248927Y-81476624D01*
X171248929Y-81476623D01*
X171258718Y-81475073D01*
X171378812Y-81413882D01*
X171474120Y-81318574D01*
X171515987Y-81236406D01*
X173467418Y-81236406D01*
X173468969Y-81246199D01*
X173483580Y-81338447D01*
X173488503Y-81369532D01*
X173549694Y-81489626D01*
X173645002Y-81584934D01*
X173765096Y-81646125D01*
X173774885Y-81647675D01*
X173774887Y-81647676D01*
X173888429Y-81665659D01*
X173898222Y-81667210D01*
X173908015Y-81665659D01*
X174021557Y-81647676D01*
X174021559Y-81647675D01*
X174031348Y-81646125D01*
X174151442Y-81584934D01*
X174246750Y-81489626D01*
X174307941Y-81369532D01*
X174312865Y-81338447D01*
X174327475Y-81246199D01*
X174329026Y-81236406D01*
X174322275Y-81193780D01*
X174309492Y-81113071D01*
X174309491Y-81113069D01*
X174307941Y-81103280D01*
X174246750Y-80983186D01*
X174151442Y-80887878D01*
X174031348Y-80826687D01*
X174021559Y-80825137D01*
X174021557Y-80825136D01*
X173908015Y-80807153D01*
X173898222Y-80805602D01*
X173888429Y-80807153D01*
X173774887Y-80825136D01*
X173774885Y-80825137D01*
X173765096Y-80826687D01*
X173645002Y-80887878D01*
X173549694Y-80983186D01*
X173488503Y-81103280D01*
X173486953Y-81113069D01*
X173486952Y-81113071D01*
X173474169Y-81193780D01*
X173467418Y-81236406D01*
X171515987Y-81236406D01*
X171535311Y-81198480D01*
X171540139Y-81168001D01*
X171554845Y-81075147D01*
X171556396Y-81065354D01*
X171551054Y-81031625D01*
X171536862Y-80942019D01*
X171536861Y-80942017D01*
X171535311Y-80932228D01*
X171474120Y-80812134D01*
X171378812Y-80716826D01*
X171258718Y-80655635D01*
X171248929Y-80654085D01*
X171248927Y-80654084D01*
X171135385Y-80636101D01*
X171125592Y-80634550D01*
X171115799Y-80636101D01*
X171002257Y-80654084D01*
X171002255Y-80654085D01*
X170992466Y-80655635D01*
X170872372Y-80716826D01*
X170777064Y-80812134D01*
X170715873Y-80932228D01*
X170714323Y-80942017D01*
X170714322Y-80942019D01*
X170700130Y-81031625D01*
X170694788Y-81065354D01*
X157623474Y-81065354D01*
X157634253Y-80997293D01*
X157635804Y-80987500D01*
X157628601Y-80942019D01*
X157616270Y-80864165D01*
X157616269Y-80864163D01*
X157614719Y-80854374D01*
X157553528Y-80734280D01*
X157458220Y-80638972D01*
X157397862Y-80608218D01*
X157391384Y-80604917D01*
X157339769Y-80556168D01*
X157322829Y-80487762D01*
X178932020Y-80487762D01*
X178932963Y-80498994D01*
X178945987Y-80654084D01*
X178949259Y-80693053D01*
X178950958Y-80698978D01*
X179003834Y-80883378D01*
X179006044Y-80891086D01*
X179008859Y-80896563D01*
X179008860Y-80896566D01*
X179095605Y-81065354D01*
X179100212Y-81074318D01*
X179228177Y-81235770D01*
X179232870Y-81239764D01*
X179232871Y-81239765D01*
X179351268Y-81340528D01*
X179385064Y-81369291D01*
X179390442Y-81372297D01*
X179390444Y-81372298D01*
X179428842Y-81393758D01*
X179564898Y-81469797D01*
X179647503Y-81496637D01*
X179754971Y-81531556D01*
X179754975Y-81531557D01*
X179760829Y-81533459D01*
X179965394Y-81557851D01*
X179971529Y-81557379D01*
X179971531Y-81557379D01*
X180027539Y-81553069D01*
X180170800Y-81542046D01*
X180176730Y-81540390D01*
X180176732Y-81540390D01*
X180329852Y-81497638D01*
X180369225Y-81486645D01*
X180374714Y-81483872D01*
X180374720Y-81483870D01*
X180521293Y-81409830D01*
X180553110Y-81393758D01*
X180715451Y-81266924D01*
X180733341Y-81246199D01*
X180846040Y-81115634D01*
X180846040Y-81115633D01*
X180850064Y-81110972D01*
X180870416Y-81075147D01*
X180889586Y-81041401D01*
X180951823Y-80931844D01*
X181016851Y-80736363D01*
X181042671Y-80531974D01*
X181043083Y-80502500D01*
X181041638Y-80487762D01*
X181472020Y-80487762D01*
X181472963Y-80498994D01*
X181485987Y-80654084D01*
X181489259Y-80693053D01*
X181490958Y-80698978D01*
X181543834Y-80883378D01*
X181546044Y-80891086D01*
X181548859Y-80896563D01*
X181548860Y-80896566D01*
X181635605Y-81065354D01*
X181640212Y-81074318D01*
X181768177Y-81235770D01*
X181772870Y-81239764D01*
X181772871Y-81239765D01*
X181891268Y-81340528D01*
X181925064Y-81369291D01*
X181930442Y-81372297D01*
X181930444Y-81372298D01*
X181968842Y-81393758D01*
X182104898Y-81469797D01*
X182187503Y-81496637D01*
X182294971Y-81531556D01*
X182294975Y-81531557D01*
X182300829Y-81533459D01*
X182505394Y-81557851D01*
X182511529Y-81557379D01*
X182511531Y-81557379D01*
X182567539Y-81553069D01*
X182710800Y-81542046D01*
X182716730Y-81540390D01*
X182716732Y-81540390D01*
X182869852Y-81497638D01*
X182909225Y-81486645D01*
X182914714Y-81483872D01*
X182914720Y-81483870D01*
X183061293Y-81409830D01*
X183093110Y-81393758D01*
X183255451Y-81266924D01*
X183273341Y-81246199D01*
X183386040Y-81115634D01*
X183386040Y-81115633D01*
X183390064Y-81110972D01*
X183410416Y-81075147D01*
X183429586Y-81041401D01*
X183491823Y-80931844D01*
X183556851Y-80736363D01*
X183582671Y-80531974D01*
X183583083Y-80502500D01*
X183562980Y-80297470D01*
X183503435Y-80100249D01*
X183406718Y-79918349D01*
X183327677Y-79821436D01*
X183280406Y-79763475D01*
X183280403Y-79763472D01*
X183276511Y-79758700D01*
X183263958Y-79748315D01*
X183122525Y-79631311D01*
X183122521Y-79631309D01*
X183117775Y-79627382D01*
X182936555Y-79529397D01*
X182739754Y-79468477D01*
X182733629Y-79467833D01*
X182733628Y-79467833D01*
X182540998Y-79447587D01*
X182540996Y-79447587D01*
X182534869Y-79446943D01*
X182448029Y-79454846D01*
X182335842Y-79465055D01*
X182335839Y-79465056D01*
X182329703Y-79465614D01*
X182132072Y-79523780D01*
X181949502Y-79619226D01*
X181944701Y-79623086D01*
X181944698Y-79623088D01*
X181856090Y-79694331D01*
X181788947Y-79748315D01*
X181656524Y-79906130D01*
X181653556Y-79911528D01*
X181653553Y-79911533D01*
X181573289Y-80057535D01*
X181557276Y-80086662D01*
X181494984Y-80283032D01*
X181494298Y-80289149D01*
X181494297Y-80289153D01*
X181485547Y-80367163D01*
X181472020Y-80487762D01*
X181041638Y-80487762D01*
X181022980Y-80297470D01*
X180963435Y-80100249D01*
X180866718Y-79918349D01*
X180787677Y-79821436D01*
X180740406Y-79763475D01*
X180740403Y-79763472D01*
X180736511Y-79758700D01*
X180723958Y-79748315D01*
X180582525Y-79631311D01*
X180582521Y-79631309D01*
X180577775Y-79627382D01*
X180396555Y-79529397D01*
X180199754Y-79468477D01*
X180193629Y-79467833D01*
X180193628Y-79467833D01*
X180000998Y-79447587D01*
X180000996Y-79447587D01*
X179994869Y-79446943D01*
X179908029Y-79454846D01*
X179795842Y-79465055D01*
X179795839Y-79465056D01*
X179789703Y-79465614D01*
X179592072Y-79523780D01*
X179409502Y-79619226D01*
X179404701Y-79623086D01*
X179404698Y-79623088D01*
X179316090Y-79694331D01*
X179248947Y-79748315D01*
X179116524Y-79906130D01*
X179113556Y-79911528D01*
X179113553Y-79911533D01*
X179033289Y-80057535D01*
X179017276Y-80086662D01*
X178954984Y-80283032D01*
X178954298Y-80289149D01*
X178954297Y-80289153D01*
X178945547Y-80367163D01*
X178932020Y-80487762D01*
X157322829Y-80487762D01*
X157322703Y-80487253D01*
X157345604Y-80420052D01*
X157401202Y-80375900D01*
X157428879Y-80368201D01*
X157443836Y-80365832D01*
X157453629Y-80364281D01*
X157573723Y-80303090D01*
X157669031Y-80207782D01*
X157730222Y-80087688D01*
X157733044Y-80069874D01*
X157749756Y-79964355D01*
X157751307Y-79954562D01*
X157746433Y-79923790D01*
X157742665Y-79900000D01*
X174969196Y-79900000D01*
X174970747Y-79909793D01*
X174986341Y-80008247D01*
X174990281Y-80033126D01*
X175051472Y-80153220D01*
X175146780Y-80248528D01*
X175266874Y-80309719D01*
X175276663Y-80311269D01*
X175276665Y-80311270D01*
X175390207Y-80329253D01*
X175400000Y-80330804D01*
X175409793Y-80329253D01*
X175523335Y-80311270D01*
X175523337Y-80311269D01*
X175533126Y-80309719D01*
X175653220Y-80248528D01*
X175748528Y-80153220D01*
X175809719Y-80033126D01*
X175813660Y-80008247D01*
X175829253Y-79909793D01*
X175830804Y-79900000D01*
X175823314Y-79852707D01*
X175811270Y-79776665D01*
X175811269Y-79776663D01*
X175809719Y-79766874D01*
X175748528Y-79646780D01*
X175653220Y-79551472D01*
X175533126Y-79490281D01*
X175523337Y-79488731D01*
X175523335Y-79488730D01*
X175409793Y-79470747D01*
X175400000Y-79469196D01*
X175390207Y-79470747D01*
X175276665Y-79488730D01*
X175276663Y-79488731D01*
X175266874Y-79490281D01*
X175146780Y-79551472D01*
X175051472Y-79646780D01*
X174990281Y-79766874D01*
X174988731Y-79776663D01*
X174988730Y-79776665D01*
X174976686Y-79852707D01*
X174969196Y-79900000D01*
X157742665Y-79900000D01*
X157731773Y-79831227D01*
X157731772Y-79831225D01*
X157730222Y-79821436D01*
X157669031Y-79701342D01*
X157573723Y-79606034D01*
X157453629Y-79544843D01*
X157443840Y-79543293D01*
X157443838Y-79543292D01*
X157330296Y-79525309D01*
X157320503Y-79523758D01*
X157310710Y-79525309D01*
X157197168Y-79543292D01*
X157197166Y-79543293D01*
X157187377Y-79544843D01*
X157067283Y-79606034D01*
X156971975Y-79701342D01*
X156910784Y-79821436D01*
X156909234Y-79831225D01*
X156909233Y-79831227D01*
X156894573Y-79923790D01*
X156889699Y-79954562D01*
X156891250Y-79964355D01*
X156907963Y-80069874D01*
X156910784Y-80087688D01*
X156971975Y-80207782D01*
X157067283Y-80303090D01*
X157112904Y-80326335D01*
X157134119Y-80337145D01*
X157185734Y-80385894D01*
X157202800Y-80454809D01*
X157179899Y-80522010D01*
X157124301Y-80566162D01*
X157096624Y-80573861D01*
X157071874Y-80577781D01*
X156951780Y-80638972D01*
X156856472Y-80734280D01*
X156795281Y-80854374D01*
X156793731Y-80864163D01*
X156793730Y-80864165D01*
X156781399Y-80942019D01*
X156774196Y-80987500D01*
X146468000Y-80987500D01*
X146468000Y-80437500D01*
X153431696Y-80437500D01*
X153433247Y-80447293D01*
X153450575Y-80556696D01*
X153452781Y-80570626D01*
X153513972Y-80690720D01*
X153609280Y-80786028D01*
X153729374Y-80847219D01*
X153739163Y-80848769D01*
X153739165Y-80848770D01*
X153852707Y-80866753D01*
X153862500Y-80868304D01*
X153872293Y-80866753D01*
X153985835Y-80848770D01*
X153985837Y-80848769D01*
X153995626Y-80847219D01*
X154115720Y-80786028D01*
X154211028Y-80690720D01*
X154272219Y-80570626D01*
X154274426Y-80556696D01*
X154291753Y-80447293D01*
X154293304Y-80437500D01*
X154290541Y-80420052D01*
X154273770Y-80314165D01*
X154273769Y-80314163D01*
X154272219Y-80304374D01*
X154220566Y-80203000D01*
X154875930Y-80203000D01*
X154877481Y-80212793D01*
X154893537Y-80314165D01*
X154897015Y-80336126D01*
X154958206Y-80456220D01*
X155053514Y-80551528D01*
X155173608Y-80612719D01*
X155183397Y-80614269D01*
X155183399Y-80614270D01*
X155296941Y-80632253D01*
X155306734Y-80633804D01*
X155316527Y-80632253D01*
X155430069Y-80614270D01*
X155430071Y-80614269D01*
X155439860Y-80612719D01*
X155559954Y-80551528D01*
X155655262Y-80456220D01*
X155716453Y-80336126D01*
X155719932Y-80314165D01*
X155735987Y-80212793D01*
X155737538Y-80203000D01*
X155723714Y-80115720D01*
X155718004Y-80079665D01*
X155718003Y-80079663D01*
X155716453Y-80069874D01*
X155655262Y-79949780D01*
X155559954Y-79854472D01*
X155439860Y-79793281D01*
X155430071Y-79791731D01*
X155430069Y-79791730D01*
X155316527Y-79773747D01*
X155306734Y-79772196D01*
X155296941Y-79773747D01*
X155183399Y-79791730D01*
X155183397Y-79791731D01*
X155173608Y-79793281D01*
X155053514Y-79854472D01*
X154958206Y-79949780D01*
X154897015Y-80069874D01*
X154895465Y-80079663D01*
X154895464Y-80079665D01*
X154889754Y-80115720D01*
X154875930Y-80203000D01*
X154220566Y-80203000D01*
X154211028Y-80184280D01*
X154115720Y-80088972D01*
X153995626Y-80027781D01*
X153985837Y-80026231D01*
X153985835Y-80026230D01*
X153872293Y-80008247D01*
X153862500Y-80006696D01*
X153852707Y-80008247D01*
X153739165Y-80026230D01*
X153739163Y-80026231D01*
X153729374Y-80027781D01*
X153609280Y-80088972D01*
X153513972Y-80184280D01*
X153452781Y-80304374D01*
X153451231Y-80314163D01*
X153451230Y-80314165D01*
X153434459Y-80420052D01*
X153431696Y-80437500D01*
X146468000Y-80437500D01*
X146468000Y-80053779D01*
X146468607Y-80041429D01*
X146473118Y-79995626D01*
X146483024Y-79895047D01*
X146487843Y-79870823D01*
X146525795Y-79745713D01*
X146535247Y-79722893D01*
X146596873Y-79607598D01*
X146610596Y-79587060D01*
X146693535Y-79486000D01*
X146711000Y-79468535D01*
X146812060Y-79385596D01*
X146832598Y-79371873D01*
X146947893Y-79310247D01*
X146970713Y-79300795D01*
X147095823Y-79262843D01*
X147120047Y-79258024D01*
X147266429Y-79243607D01*
X147278779Y-79243000D01*
X150116264Y-79243000D01*
X150184385Y-79263002D01*
X150230878Y-79316658D01*
X150240982Y-79386932D01*
X150211488Y-79451512D01*
X150173467Y-79481267D01*
X150109280Y-79513972D01*
X150013972Y-79609280D01*
X149952781Y-79729374D01*
X149951231Y-79739163D01*
X149951230Y-79739165D01*
X149945753Y-79773747D01*
X149931696Y-79862500D01*
X149933247Y-79872293D01*
X149946919Y-79958612D01*
X149952781Y-79995626D01*
X150013972Y-80115720D01*
X150109280Y-80211028D01*
X150229374Y-80272219D01*
X150239163Y-80273769D01*
X150239165Y-80273770D01*
X150352707Y-80291753D01*
X150362500Y-80293304D01*
X150372293Y-80291753D01*
X150485835Y-80273770D01*
X150485837Y-80273769D01*
X150495626Y-80272219D01*
X150615720Y-80211028D01*
X150711028Y-80115720D01*
X150772219Y-79995626D01*
X150778082Y-79958612D01*
X150791753Y-79872293D01*
X150793304Y-79862500D01*
X150779247Y-79773747D01*
X150773770Y-79739165D01*
X150773769Y-79739163D01*
X150772219Y-79729374D01*
X150711028Y-79609280D01*
X150615720Y-79513972D01*
X150551533Y-79481267D01*
X150499918Y-79432519D01*
X150482852Y-79363604D01*
X150505753Y-79296402D01*
X150561350Y-79252250D01*
X150608736Y-79243000D01*
X156756313Y-79243000D01*
X156766401Y-79242752D01*
X156767142Y-79242716D01*
X156767158Y-79242715D01*
X156777979Y-79242183D01*
X156777984Y-79242183D01*
X156778751Y-79242145D01*
X156779491Y-79242090D01*
X156779530Y-79242088D01*
X156787980Y-79241464D01*
X156787984Y-79241464D01*
X156788806Y-79241403D01*
X156965383Y-79224011D01*
X156985323Y-79221054D01*
X157009540Y-79216238D01*
X157011024Y-79215866D01*
X157011030Y-79215865D01*
X157027617Y-79211711D01*
X157027630Y-79211708D01*
X157029109Y-79211337D01*
X157098434Y-79190308D01*
X157191470Y-79162087D01*
X157191485Y-79162082D01*
X157192962Y-79161634D01*
X157194431Y-79161108D01*
X157194438Y-79161106D01*
X157210492Y-79155361D01*
X157210493Y-79155360D01*
X157211959Y-79154836D01*
X157226139Y-79148962D01*
X157233376Y-79145964D01*
X157233383Y-79145961D01*
X157234778Y-79145383D01*
X157253001Y-79136764D01*
X157254362Y-79136037D01*
X157254375Y-79136030D01*
X157313729Y-79104305D01*
X157404003Y-79056052D01*
X157421302Y-79045683D01*
X157422572Y-79044834D01*
X157422590Y-79044823D01*
X157440536Y-79032831D01*
X157440537Y-79032830D01*
X157441829Y-79031967D01*
X157458025Y-79019955D01*
X157466500Y-79013000D01*
X157589199Y-78912304D01*
X157589204Y-78912300D01*
X157590388Y-78911328D01*
X157605331Y-78897784D01*
X157622784Y-78880331D01*
X157624389Y-78878561D01*
X157635288Y-78866535D01*
X157636328Y-78865388D01*
X157645873Y-78853758D01*
X157663526Y-78832248D01*
X178937000Y-78832248D01*
X178938207Y-78838316D01*
X178942760Y-78861203D01*
X178948633Y-78890731D01*
X178992948Y-78957052D01*
X179059269Y-79001367D01*
X179071438Y-79003788D01*
X179071439Y-79003788D01*
X179111684Y-79011793D01*
X179117752Y-79013000D01*
X180857248Y-79013000D01*
X180863316Y-79011793D01*
X180903561Y-79003788D01*
X180903562Y-79003788D01*
X180915731Y-79001367D01*
X180982052Y-78957052D01*
X181026367Y-78890731D01*
X181032241Y-78861203D01*
X181036793Y-78838316D01*
X181038000Y-78832248D01*
X181038000Y-77947762D01*
X181472020Y-77947762D01*
X181472536Y-77953906D01*
X181486156Y-78116095D01*
X181489259Y-78153053D01*
X181490958Y-78158978D01*
X181532574Y-78304109D01*
X181546044Y-78351086D01*
X181548859Y-78356563D01*
X181548860Y-78356566D01*
X181636521Y-78527136D01*
X181640212Y-78534318D01*
X181768177Y-78695770D01*
X181772870Y-78699764D01*
X181772871Y-78699765D01*
X181890053Y-78799494D01*
X181925064Y-78829291D01*
X181930442Y-78832297D01*
X181930444Y-78832298D01*
X181987524Y-78864199D01*
X182104898Y-78929797D01*
X182188780Y-78957052D01*
X182294971Y-78991556D01*
X182294975Y-78991557D01*
X182300829Y-78993459D01*
X182505394Y-79017851D01*
X182511529Y-79017379D01*
X182511531Y-79017379D01*
X182584125Y-79011793D01*
X182710800Y-79002046D01*
X182716730Y-79000390D01*
X182716732Y-79000390D01*
X182903297Y-78948300D01*
X182903296Y-78948300D01*
X182909225Y-78946645D01*
X182914714Y-78943872D01*
X182914720Y-78943870D01*
X183069601Y-78865633D01*
X183093110Y-78853758D01*
X183165754Y-78797003D01*
X183235893Y-78742204D01*
X183255451Y-78726924D01*
X183264004Y-78717016D01*
X183386040Y-78575634D01*
X183386040Y-78575633D01*
X183390064Y-78570972D01*
X183410887Y-78534318D01*
X183488776Y-78397207D01*
X183491823Y-78391844D01*
X183556851Y-78196363D01*
X183582671Y-77991974D01*
X183583083Y-77962500D01*
X183562980Y-77757470D01*
X183503435Y-77560249D01*
X183406718Y-77378349D01*
X183326838Y-77280407D01*
X183280406Y-77223475D01*
X183280403Y-77223472D01*
X183276511Y-77218700D01*
X183257238Y-77202756D01*
X183122525Y-77091311D01*
X183122521Y-77091309D01*
X183117775Y-77087382D01*
X182936555Y-76989397D01*
X182739754Y-76928477D01*
X182733629Y-76927833D01*
X182733628Y-76927833D01*
X182540998Y-76907587D01*
X182540996Y-76907587D01*
X182534869Y-76906943D01*
X182448029Y-76914846D01*
X182335842Y-76925055D01*
X182335839Y-76925056D01*
X182329703Y-76925614D01*
X182132072Y-76983780D01*
X181949502Y-77079226D01*
X181944701Y-77083086D01*
X181944698Y-77083088D01*
X181793849Y-77204374D01*
X181788947Y-77208315D01*
X181656524Y-77366130D01*
X181653556Y-77371528D01*
X181653553Y-77371533D01*
X181580694Y-77504064D01*
X181557276Y-77546662D01*
X181494984Y-77743032D01*
X181494298Y-77749149D01*
X181494297Y-77749153D01*
X181472721Y-77941514D01*
X181472020Y-77947762D01*
X181038000Y-77947762D01*
X181038000Y-77092752D01*
X181032554Y-77065375D01*
X181028788Y-77046439D01*
X181028788Y-77046438D01*
X181026367Y-77034269D01*
X180982052Y-76967948D01*
X180915731Y-76923633D01*
X180903562Y-76921212D01*
X180903561Y-76921212D01*
X180863316Y-76913207D01*
X180857248Y-76912000D01*
X179117752Y-76912000D01*
X179111684Y-76913207D01*
X179071439Y-76921212D01*
X179071438Y-76921212D01*
X179059269Y-76923633D01*
X178992948Y-76967948D01*
X178948633Y-77034269D01*
X178946212Y-77046438D01*
X178946212Y-77046439D01*
X178942446Y-77065375D01*
X178937000Y-77092752D01*
X178937000Y-78832248D01*
X157663526Y-78832248D01*
X157743972Y-78734223D01*
X157743975Y-78734219D01*
X157744955Y-78733025D01*
X157756967Y-78716829D01*
X157764821Y-78705075D01*
X157769828Y-78697582D01*
X157769833Y-78697574D01*
X157770685Y-78696299D01*
X157771469Y-78694991D01*
X157771481Y-78694972D01*
X157780250Y-78680341D01*
X157780256Y-78680330D01*
X157781054Y-78678999D01*
X157781779Y-78677643D01*
X157781789Y-78677625D01*
X157861030Y-78529374D01*
X157861037Y-78529361D01*
X157861764Y-78528000D01*
X157862421Y-78526610D01*
X157862431Y-78526591D01*
X157869055Y-78512585D01*
X157870384Y-78509775D01*
X157879837Y-78486955D01*
X157886634Y-78467961D01*
X157928750Y-78329122D01*
X165793696Y-78329122D01*
X165795247Y-78338915D01*
X165804480Y-78397207D01*
X165814781Y-78462248D01*
X165875972Y-78582342D01*
X165971280Y-78677650D01*
X166091374Y-78738841D01*
X166101163Y-78740391D01*
X166101165Y-78740392D01*
X166214707Y-78758375D01*
X166224500Y-78759926D01*
X166234293Y-78758375D01*
X166347835Y-78740392D01*
X166347837Y-78740391D01*
X166357626Y-78738841D01*
X166477720Y-78677650D01*
X166573028Y-78582342D01*
X166634219Y-78462248D01*
X166644521Y-78397207D01*
X166653753Y-78338915D01*
X166655304Y-78329122D01*
X166651102Y-78302593D01*
X166645430Y-78266778D01*
X171269196Y-78266778D01*
X171270747Y-78276571D01*
X171288488Y-78388581D01*
X171290281Y-78399904D01*
X171351472Y-78519998D01*
X171446780Y-78615306D01*
X171566874Y-78676497D01*
X171576663Y-78678047D01*
X171576665Y-78678048D01*
X171690207Y-78696031D01*
X171700000Y-78697582D01*
X171709793Y-78696031D01*
X171823335Y-78678048D01*
X171823337Y-78678047D01*
X171833126Y-78676497D01*
X171953220Y-78615306D01*
X172048528Y-78519998D01*
X172109719Y-78399904D01*
X172111513Y-78388581D01*
X172129253Y-78276571D01*
X172130804Y-78266778D01*
X172123802Y-78222571D01*
X172111270Y-78143443D01*
X172111269Y-78143441D01*
X172109719Y-78133652D01*
X172105218Y-78124819D01*
X172105217Y-78124815D01*
X172100774Y-78116095D01*
X172087670Y-78046318D01*
X172114371Y-77980533D01*
X172138977Y-77956959D01*
X172144385Y-77953030D01*
X172153220Y-77948528D01*
X172248528Y-77853220D01*
X172309719Y-77733126D01*
X172312102Y-77718084D01*
X172329253Y-77609793D01*
X172330804Y-77600000D01*
X172327935Y-77581887D01*
X172311270Y-77476665D01*
X172311269Y-77476663D01*
X172309719Y-77466874D01*
X172248528Y-77346780D01*
X172153220Y-77251472D01*
X172125106Y-77237147D01*
X174886795Y-77237147D01*
X174888346Y-77246940D01*
X174896046Y-77295553D01*
X174907880Y-77370273D01*
X174969071Y-77490367D01*
X175064379Y-77585675D01*
X175184473Y-77646866D01*
X175194262Y-77648416D01*
X175194264Y-77648417D01*
X175307806Y-77666400D01*
X175317599Y-77667951D01*
X175327392Y-77666400D01*
X175440934Y-77648417D01*
X175440936Y-77648416D01*
X175450725Y-77646866D01*
X175570819Y-77585675D01*
X175666127Y-77490367D01*
X175727318Y-77370273D01*
X175739153Y-77295553D01*
X175746852Y-77246940D01*
X175748403Y-77237147D01*
X175744585Y-77213043D01*
X175728869Y-77113812D01*
X175728868Y-77113810D01*
X175727318Y-77104021D01*
X175666127Y-76983927D01*
X175570819Y-76888619D01*
X175450725Y-76827428D01*
X175440936Y-76825878D01*
X175440934Y-76825877D01*
X175327392Y-76807894D01*
X175317599Y-76806343D01*
X175307806Y-76807894D01*
X175194264Y-76825877D01*
X175194262Y-76825878D01*
X175184473Y-76827428D01*
X175064379Y-76888619D01*
X174969071Y-76983927D01*
X174907880Y-77104021D01*
X174906330Y-77113810D01*
X174906329Y-77113812D01*
X174890613Y-77213043D01*
X174886795Y-77237147D01*
X172125106Y-77237147D01*
X172033126Y-77190281D01*
X172023337Y-77188731D01*
X172023335Y-77188730D01*
X171909793Y-77170747D01*
X171900000Y-77169196D01*
X171890207Y-77170747D01*
X171776665Y-77188730D01*
X171776663Y-77188731D01*
X171766874Y-77190281D01*
X171646780Y-77251472D01*
X171551472Y-77346780D01*
X171490281Y-77466874D01*
X171488731Y-77476663D01*
X171488730Y-77476665D01*
X171472065Y-77581887D01*
X171469196Y-77600000D01*
X171470747Y-77609793D01*
X171487899Y-77718084D01*
X171490281Y-77733126D01*
X171494782Y-77741959D01*
X171494783Y-77741963D01*
X171499226Y-77750683D01*
X171512330Y-77820460D01*
X171485629Y-77886245D01*
X171461023Y-77909819D01*
X171455615Y-77913748D01*
X171446780Y-77918250D01*
X171351472Y-78013558D01*
X171290281Y-78133652D01*
X171288731Y-78143441D01*
X171288730Y-78143443D01*
X171276198Y-78222571D01*
X171269196Y-78266778D01*
X166645430Y-78266778D01*
X166635770Y-78205787D01*
X166635769Y-78205785D01*
X166634219Y-78195996D01*
X166573028Y-78075902D01*
X166477720Y-77980594D01*
X166357626Y-77919403D01*
X166347837Y-77917853D01*
X166347835Y-77917852D01*
X166234293Y-77899869D01*
X166224500Y-77898318D01*
X166214707Y-77899869D01*
X166101165Y-77917852D01*
X166101163Y-77917853D01*
X166091374Y-77919403D01*
X165971280Y-77980594D01*
X165875972Y-78075902D01*
X165814781Y-78195996D01*
X165813231Y-78205785D01*
X165813230Y-78205787D01*
X165797898Y-78302593D01*
X165793696Y-78329122D01*
X157928750Y-78329122D01*
X157936337Y-78304109D01*
X157941237Y-78284543D01*
X157946054Y-78260323D01*
X157949012Y-78240379D01*
X157949160Y-78238871D01*
X157949163Y-78238851D01*
X157964342Y-78084734D01*
X157966403Y-78063805D01*
X157967145Y-78053751D01*
X157967752Y-78041401D01*
X157968000Y-78031313D01*
X157968000Y-77043687D01*
X157967752Y-77033599D01*
X157967145Y-77021249D01*
X157966403Y-77011194D01*
X157949011Y-76834617D01*
X157946054Y-76814677D01*
X157941238Y-76790460D01*
X157939236Y-76782466D01*
X157936711Y-76772383D01*
X157936708Y-76772370D01*
X157936337Y-76770891D01*
X157886634Y-76607038D01*
X157879836Y-76588041D01*
X157870383Y-76565222D01*
X157861764Y-76547000D01*
X157861021Y-76545609D01*
X157795697Y-76423395D01*
X157781225Y-76353889D01*
X157806629Y-76287593D01*
X157863842Y-76245556D01*
X157906819Y-76238000D01*
X161677012Y-76238000D01*
X161745133Y-76258002D01*
X161791626Y-76311658D01*
X161801730Y-76381932D01*
X161772236Y-76446512D01*
X161734215Y-76476267D01*
X161709280Y-76488972D01*
X161613972Y-76584280D01*
X161552781Y-76704374D01*
X161551231Y-76714163D01*
X161551230Y-76714165D01*
X161541196Y-76777519D01*
X161531696Y-76837500D01*
X161533247Y-76847293D01*
X161546541Y-76931226D01*
X161552781Y-76970626D01*
X161613972Y-77090720D01*
X161709280Y-77186028D01*
X161829374Y-77247219D01*
X161839163Y-77248769D01*
X161839165Y-77248770D01*
X161952707Y-77266753D01*
X161962500Y-77268304D01*
X161972293Y-77266753D01*
X162085835Y-77248770D01*
X162085837Y-77248769D01*
X162095626Y-77247219D01*
X162215720Y-77186028D01*
X162311028Y-77090720D01*
X162315527Y-77081890D01*
X162315530Y-77081886D01*
X162323501Y-77066241D01*
X162372249Y-77014625D01*
X162441163Y-76997559D01*
X162508365Y-77020459D01*
X162550818Y-77073917D01*
X162551093Y-77075651D01*
X162612284Y-77195745D01*
X162707592Y-77291053D01*
X162827686Y-77352244D01*
X162837475Y-77353794D01*
X162837477Y-77353795D01*
X162951019Y-77371778D01*
X162960812Y-77373329D01*
X162970605Y-77371778D01*
X163084147Y-77353795D01*
X163084149Y-77353794D01*
X163093938Y-77352244D01*
X163214032Y-77291053D01*
X163309340Y-77195745D01*
X163370531Y-77075651D01*
X163377073Y-77034350D01*
X163390065Y-76952318D01*
X163391616Y-76942525D01*
X163386069Y-76907502D01*
X163372082Y-76819190D01*
X163372081Y-76819188D01*
X163370531Y-76809399D01*
X163309340Y-76689305D01*
X163214032Y-76593997D01*
X163093938Y-76532806D01*
X163084149Y-76531256D01*
X163084147Y-76531255D01*
X162970605Y-76513272D01*
X162960812Y-76511721D01*
X162951019Y-76513272D01*
X162837477Y-76531255D01*
X162837475Y-76531256D01*
X162827686Y-76532806D01*
X162707592Y-76593997D01*
X162612284Y-76689305D01*
X162607785Y-76698135D01*
X162607782Y-76698139D01*
X162599811Y-76713784D01*
X162551063Y-76765400D01*
X162482149Y-76782466D01*
X162414947Y-76759566D01*
X162372494Y-76706108D01*
X162372219Y-76704374D01*
X162311028Y-76584280D01*
X162215720Y-76488972D01*
X162190785Y-76476267D01*
X162139170Y-76427519D01*
X162122104Y-76358604D01*
X162145005Y-76291402D01*
X162200602Y-76247250D01*
X162247988Y-76238000D01*
X183811942Y-76238000D01*
X183880063Y-76258002D01*
X183891876Y-76266601D01*
X183960014Y-76322521D01*
X183977479Y-76339986D01*
X184033399Y-76408124D01*
X184061153Y-76473471D01*
X184062000Y-76488058D01*
X184062000Y-89586942D01*
X184041998Y-89655063D01*
X184033399Y-89666876D01*
X183977479Y-89735014D01*
X183960014Y-89752479D01*
X183891876Y-89808399D01*
X183826529Y-89836153D01*
X183811942Y-89837000D01*
X156823181Y-89837000D01*
X156755060Y-89816998D01*
X156708567Y-89763342D01*
X156698463Y-89693068D01*
X156727957Y-89628488D01*
X156742612Y-89614126D01*
X156864568Y-89512696D01*
X156864573Y-89512691D01*
X156869005Y-89509005D01*
X156998337Y-89353501D01*
X157006431Y-89339049D01*
X157050026Y-89261203D01*
X157097164Y-89177031D01*
X157102267Y-89162000D01*
X157160320Y-88990981D01*
X157160320Y-88990979D01*
X157162178Y-88985507D01*
X157163007Y-88979791D01*
X157163008Y-88979786D01*
X157180989Y-88855770D01*
X157191200Y-88785342D01*
X157192715Y-88727500D01*
X157174208Y-88526091D01*
X157172325Y-88519412D01*
X157139880Y-88404374D01*
X157119307Y-88331426D01*
X157029851Y-88150027D01*
X157015394Y-88130666D01*
X156912288Y-87992591D01*
X156912287Y-87992590D01*
X156908835Y-87987967D01*
X156901959Y-87981611D01*
X156889398Y-87970000D01*
X159699196Y-87970000D01*
X159700747Y-87979793D01*
X159718286Y-88090528D01*
X159720281Y-88103126D01*
X159781472Y-88223220D01*
X159876780Y-88318528D01*
X159996874Y-88379719D01*
X160006663Y-88381269D01*
X160006665Y-88381270D01*
X160120207Y-88399253D01*
X160130000Y-88400804D01*
X160139793Y-88399253D01*
X160253335Y-88381270D01*
X160253337Y-88381269D01*
X160263126Y-88379719D01*
X160383220Y-88318528D01*
X160478528Y-88223220D01*
X160516626Y-88148449D01*
X160517733Y-88146276D01*
X160566481Y-88094661D01*
X160635396Y-88077595D01*
X160702598Y-88100496D01*
X160742267Y-88146276D01*
X160743374Y-88148449D01*
X160781472Y-88223220D01*
X160876780Y-88318528D01*
X160996874Y-88379719D01*
X161006663Y-88381269D01*
X161006665Y-88381270D01*
X161120207Y-88399253D01*
X161130000Y-88400804D01*
X161139793Y-88399253D01*
X161253335Y-88381270D01*
X161253337Y-88381269D01*
X161263126Y-88379719D01*
X161383220Y-88318528D01*
X161478528Y-88223220D01*
X161490359Y-88200000D01*
X175069196Y-88200000D01*
X175070747Y-88209793D01*
X175088682Y-88323028D01*
X175090281Y-88333126D01*
X175151472Y-88453220D01*
X175246780Y-88548528D01*
X175366874Y-88609719D01*
X175376663Y-88611269D01*
X175376665Y-88611270D01*
X175490207Y-88629253D01*
X175500000Y-88630804D01*
X175509793Y-88629253D01*
X175509794Y-88629253D01*
X175588927Y-88616720D01*
X175659338Y-88625820D01*
X175713652Y-88671542D01*
X175720904Y-88683966D01*
X175728089Y-88698068D01*
X175761092Y-88762839D01*
X175856400Y-88858147D01*
X175976494Y-88919338D01*
X175986283Y-88920888D01*
X175986285Y-88920889D01*
X176099827Y-88938872D01*
X176109620Y-88940423D01*
X176119413Y-88938872D01*
X176232955Y-88920889D01*
X176232957Y-88920888D01*
X176242746Y-88919338D01*
X176362840Y-88858147D01*
X176458148Y-88762839D01*
X176519339Y-88642745D01*
X176521231Y-88630804D01*
X176538873Y-88519412D01*
X176540424Y-88509619D01*
X176537853Y-88493389D01*
X176520890Y-88386284D01*
X176520889Y-88386282D01*
X176519339Y-88376493D01*
X176458148Y-88256399D01*
X176362840Y-88161091D01*
X176258176Y-88107762D01*
X178932020Y-88107762D01*
X178933943Y-88130666D01*
X178948116Y-88299437D01*
X178949259Y-88313053D01*
X178950958Y-88318978D01*
X178991462Y-88460231D01*
X179006044Y-88511086D01*
X179008859Y-88516563D01*
X179008860Y-88516566D01*
X179094892Y-88683966D01*
X179100212Y-88694318D01*
X179228177Y-88855770D01*
X179232870Y-88859764D01*
X179232871Y-88859765D01*
X179373896Y-88979786D01*
X179385064Y-88989291D01*
X179564898Y-89089797D01*
X179659738Y-89120613D01*
X179754971Y-89151556D01*
X179754975Y-89151557D01*
X179760829Y-89153459D01*
X179965394Y-89177851D01*
X179971529Y-89177379D01*
X179971531Y-89177379D01*
X180027539Y-89173069D01*
X180170800Y-89162046D01*
X180176730Y-89160390D01*
X180176732Y-89160390D01*
X180363297Y-89108300D01*
X180363296Y-89108300D01*
X180369225Y-89106645D01*
X180374714Y-89103872D01*
X180374720Y-89103870D01*
X180513938Y-89033545D01*
X180553110Y-89013758D01*
X180582264Y-88990981D01*
X180648960Y-88938872D01*
X180715451Y-88886924D01*
X180721885Y-88879471D01*
X180846040Y-88735634D01*
X180846040Y-88735633D01*
X180850064Y-88730972D01*
X180854136Y-88723805D01*
X180906967Y-88630804D01*
X180951823Y-88551844D01*
X181016851Y-88356363D01*
X181042671Y-88151974D01*
X181043083Y-88122500D01*
X181041638Y-88107762D01*
X181472020Y-88107762D01*
X181473943Y-88130666D01*
X181488116Y-88299437D01*
X181489259Y-88313053D01*
X181490958Y-88318978D01*
X181531462Y-88460231D01*
X181546044Y-88511086D01*
X181548859Y-88516563D01*
X181548860Y-88516566D01*
X181634892Y-88683966D01*
X181640212Y-88694318D01*
X181768177Y-88855770D01*
X181772870Y-88859764D01*
X181772871Y-88859765D01*
X181913896Y-88979786D01*
X181925064Y-88989291D01*
X182104898Y-89089797D01*
X182199738Y-89120613D01*
X182294971Y-89151556D01*
X182294975Y-89151557D01*
X182300829Y-89153459D01*
X182505394Y-89177851D01*
X182511529Y-89177379D01*
X182511531Y-89177379D01*
X182567539Y-89173069D01*
X182710800Y-89162046D01*
X182716730Y-89160390D01*
X182716732Y-89160390D01*
X182903297Y-89108300D01*
X182903296Y-89108300D01*
X182909225Y-89106645D01*
X182914714Y-89103872D01*
X182914720Y-89103870D01*
X183053938Y-89033545D01*
X183093110Y-89013758D01*
X183122264Y-88990981D01*
X183188960Y-88938872D01*
X183255451Y-88886924D01*
X183261885Y-88879471D01*
X183386040Y-88735634D01*
X183386040Y-88735633D01*
X183390064Y-88730972D01*
X183394136Y-88723805D01*
X183446967Y-88630804D01*
X183491823Y-88551844D01*
X183556851Y-88356363D01*
X183582671Y-88151974D01*
X183583083Y-88122500D01*
X183562980Y-87917470D01*
X183503435Y-87720249D01*
X183406718Y-87538349D01*
X183290607Y-87395983D01*
X183280406Y-87383475D01*
X183280403Y-87383472D01*
X183276511Y-87378700D01*
X183271762Y-87374771D01*
X183122525Y-87251311D01*
X183122521Y-87251309D01*
X183117775Y-87247382D01*
X182936555Y-87149397D01*
X182739754Y-87088477D01*
X182733629Y-87087833D01*
X182733628Y-87087833D01*
X182540998Y-87067587D01*
X182540996Y-87067587D01*
X182534869Y-87066943D01*
X182448029Y-87074846D01*
X182335842Y-87085055D01*
X182335839Y-87085056D01*
X182329703Y-87085614D01*
X182132072Y-87143780D01*
X181949502Y-87239226D01*
X181944701Y-87243086D01*
X181944698Y-87243088D01*
X181815219Y-87347192D01*
X181788947Y-87368315D01*
X181656524Y-87526130D01*
X181653556Y-87531528D01*
X181653553Y-87531533D01*
X181577464Y-87669940D01*
X181557276Y-87706662D01*
X181494984Y-87903032D01*
X181494298Y-87909149D01*
X181494297Y-87909153D01*
X181473076Y-88098349D01*
X181472020Y-88107762D01*
X181041638Y-88107762D01*
X181022980Y-87917470D01*
X180963435Y-87720249D01*
X180866718Y-87538349D01*
X180750607Y-87395983D01*
X180740406Y-87383475D01*
X180740403Y-87383472D01*
X180736511Y-87378700D01*
X180731762Y-87374771D01*
X180582525Y-87251311D01*
X180582521Y-87251309D01*
X180577775Y-87247382D01*
X180396555Y-87149397D01*
X180199754Y-87088477D01*
X180193629Y-87087833D01*
X180193628Y-87087833D01*
X180000998Y-87067587D01*
X180000996Y-87067587D01*
X179994869Y-87066943D01*
X179908029Y-87074846D01*
X179795842Y-87085055D01*
X179795839Y-87085056D01*
X179789703Y-87085614D01*
X179592072Y-87143780D01*
X179409502Y-87239226D01*
X179404701Y-87243086D01*
X179404698Y-87243088D01*
X179275219Y-87347192D01*
X179248947Y-87368315D01*
X179116524Y-87526130D01*
X179113556Y-87531528D01*
X179113553Y-87531533D01*
X179037464Y-87669940D01*
X179017276Y-87706662D01*
X178954984Y-87903032D01*
X178954298Y-87909149D01*
X178954297Y-87909153D01*
X178933076Y-88098349D01*
X178932020Y-88107762D01*
X176258176Y-88107762D01*
X176242746Y-88099900D01*
X176232957Y-88098350D01*
X176232955Y-88098349D01*
X176119413Y-88080366D01*
X176109620Y-88078815D01*
X176099827Y-88080366D01*
X176099826Y-88080366D01*
X176020693Y-88092899D01*
X175950282Y-88083799D01*
X175895968Y-88038077D01*
X175888716Y-88025653D01*
X175871870Y-87992591D01*
X175848528Y-87946780D01*
X175753220Y-87851472D01*
X175633126Y-87790281D01*
X175623337Y-87788731D01*
X175623335Y-87788730D01*
X175509793Y-87770747D01*
X175500000Y-87769196D01*
X175490207Y-87770747D01*
X175376665Y-87788730D01*
X175376663Y-87788731D01*
X175366874Y-87790281D01*
X175246780Y-87851472D01*
X175151472Y-87946780D01*
X175090281Y-88066874D01*
X175088731Y-88076663D01*
X175088730Y-88076665D01*
X175074462Y-88166753D01*
X175069196Y-88200000D01*
X161490359Y-88200000D01*
X161539719Y-88103126D01*
X161541715Y-88090528D01*
X161559253Y-87979793D01*
X161560804Y-87970000D01*
X161558525Y-87955612D01*
X161541270Y-87846665D01*
X161541269Y-87846663D01*
X161539719Y-87836874D01*
X161478528Y-87716780D01*
X161383220Y-87621472D01*
X161324554Y-87591580D01*
X163271497Y-87591580D01*
X163273048Y-87601373D01*
X163291015Y-87714810D01*
X163292582Y-87724706D01*
X163353773Y-87844800D01*
X163449081Y-87940108D01*
X163569175Y-88001299D01*
X163578964Y-88002849D01*
X163578966Y-88002850D01*
X163692508Y-88020833D01*
X163702301Y-88022384D01*
X163712094Y-88020833D01*
X163825636Y-88002850D01*
X163825638Y-88002849D01*
X163835427Y-88001299D01*
X163955521Y-87940108D01*
X164050829Y-87844800D01*
X164105501Y-87737500D01*
X166031696Y-87737500D01*
X166033247Y-87747293D01*
X166050858Y-87858483D01*
X166052781Y-87870626D01*
X166113972Y-87990720D01*
X166209280Y-88086028D01*
X166329374Y-88147219D01*
X166339163Y-88148769D01*
X166339165Y-88148770D01*
X166452707Y-88166753D01*
X166462500Y-88168304D01*
X166472293Y-88166753D01*
X166585835Y-88148770D01*
X166585837Y-88148769D01*
X166595626Y-88147219D01*
X166715720Y-88086028D01*
X166811028Y-87990720D01*
X166872219Y-87870626D01*
X166874143Y-87858483D01*
X166891753Y-87747293D01*
X166893304Y-87737500D01*
X166881337Y-87661945D01*
X166873770Y-87614165D01*
X166873769Y-87614163D01*
X166872219Y-87604374D01*
X166811028Y-87484280D01*
X166715720Y-87388972D01*
X166595626Y-87327781D01*
X166585837Y-87326231D01*
X166585835Y-87326230D01*
X166472293Y-87308247D01*
X166462500Y-87306696D01*
X166452707Y-87308247D01*
X166339165Y-87326230D01*
X166339163Y-87326231D01*
X166329374Y-87327781D01*
X166209280Y-87388972D01*
X166113972Y-87484280D01*
X166052781Y-87604374D01*
X166051231Y-87614163D01*
X166051230Y-87614165D01*
X166043663Y-87661945D01*
X166031696Y-87737500D01*
X164105501Y-87737500D01*
X164112020Y-87724706D01*
X164113588Y-87714810D01*
X164131554Y-87601373D01*
X164133105Y-87591580D01*
X164120342Y-87510998D01*
X164113571Y-87468245D01*
X164113570Y-87468243D01*
X164112020Y-87458454D01*
X164050829Y-87338360D01*
X163955521Y-87243052D01*
X163835427Y-87181861D01*
X163825638Y-87180311D01*
X163825636Y-87180310D01*
X163712094Y-87162327D01*
X163702301Y-87160776D01*
X163692508Y-87162327D01*
X163578966Y-87180310D01*
X163578964Y-87180311D01*
X163569175Y-87181861D01*
X163449081Y-87243052D01*
X163353773Y-87338360D01*
X163292582Y-87458454D01*
X163291032Y-87468243D01*
X163291031Y-87468245D01*
X163284260Y-87510998D01*
X163271497Y-87591580D01*
X161324554Y-87591580D01*
X161263126Y-87560281D01*
X161253337Y-87558731D01*
X161253335Y-87558730D01*
X161139793Y-87540747D01*
X161130000Y-87539196D01*
X161120207Y-87540747D01*
X161006665Y-87558730D01*
X161006663Y-87558731D01*
X160996874Y-87560281D01*
X160876780Y-87621472D01*
X160781472Y-87716780D01*
X160775780Y-87727951D01*
X160742267Y-87793724D01*
X160693519Y-87845339D01*
X160624604Y-87862405D01*
X160557402Y-87839504D01*
X160517733Y-87793724D01*
X160484220Y-87727951D01*
X160478528Y-87716780D01*
X160383220Y-87621472D01*
X160263126Y-87560281D01*
X160253337Y-87558731D01*
X160253335Y-87558730D01*
X160139793Y-87540747D01*
X160130000Y-87539196D01*
X160120207Y-87540747D01*
X160006665Y-87558730D01*
X160006663Y-87558731D01*
X159996874Y-87560281D01*
X159876780Y-87621472D01*
X159781472Y-87716780D01*
X159720281Y-87836874D01*
X159718731Y-87846663D01*
X159718730Y-87846665D01*
X159701475Y-87955612D01*
X159699196Y-87970000D01*
X156889398Y-87970000D01*
X156764553Y-87854594D01*
X156764551Y-87854592D01*
X156760312Y-87850674D01*
X156737391Y-87836212D01*
X156594137Y-87745825D01*
X156589257Y-87742746D01*
X156401398Y-87667798D01*
X156203026Y-87628339D01*
X156197252Y-87628263D01*
X156197248Y-87628263D01*
X156094757Y-87626922D01*
X156000786Y-87625692D01*
X155995089Y-87626671D01*
X155995088Y-87626671D01*
X155807146Y-87658965D01*
X155807145Y-87658965D01*
X155801449Y-87659944D01*
X155611693Y-87729949D01*
X155606732Y-87732901D01*
X155606731Y-87732901D01*
X155443709Y-87829889D01*
X155437871Y-87833362D01*
X155285805Y-87966720D01*
X155160589Y-88125557D01*
X155066414Y-88304553D01*
X155006437Y-88497713D01*
X154982664Y-88698569D01*
X154995892Y-88900394D01*
X155010994Y-88959860D01*
X155040828Y-89077329D01*
X155045678Y-89096428D01*
X155130356Y-89280107D01*
X155142635Y-89297481D01*
X155196718Y-89374007D01*
X155247088Y-89445280D01*
X155391966Y-89586413D01*
X155396771Y-89589624D01*
X155396774Y-89589626D01*
X155421631Y-89606235D01*
X155467159Y-89660711D01*
X155476008Y-89731154D01*
X155445367Y-89795199D01*
X155384965Y-89832510D01*
X155351630Y-89837000D01*
X140713181Y-89837000D01*
X140645060Y-89816998D01*
X140598567Y-89763342D01*
X140588463Y-89693068D01*
X140617957Y-89628488D01*
X140632612Y-89614126D01*
X140754568Y-89512696D01*
X140754573Y-89512691D01*
X140759005Y-89509005D01*
X140888337Y-89353501D01*
X140896431Y-89339049D01*
X140940026Y-89261203D01*
X140987164Y-89177031D01*
X140992267Y-89162000D01*
X141034529Y-89037500D01*
X143831696Y-89037500D01*
X143833247Y-89047293D01*
X143849761Y-89151556D01*
X143852781Y-89170626D01*
X143913972Y-89290720D01*
X144009280Y-89386028D01*
X144129374Y-89447219D01*
X144139163Y-89448769D01*
X144139165Y-89448770D01*
X144252707Y-89466753D01*
X144262500Y-89468304D01*
X144272293Y-89466753D01*
X144385835Y-89448770D01*
X144385837Y-89448769D01*
X144395626Y-89447219D01*
X144515720Y-89386028D01*
X144611028Y-89290720D01*
X144672219Y-89170626D01*
X144675240Y-89151556D01*
X144691753Y-89047293D01*
X144693304Y-89037500D01*
X145881696Y-89037500D01*
X145883247Y-89047293D01*
X145899761Y-89151556D01*
X145902781Y-89170626D01*
X145963972Y-89290720D01*
X146059280Y-89386028D01*
X146179374Y-89447219D01*
X146189163Y-89448769D01*
X146189165Y-89448770D01*
X146302707Y-89466753D01*
X146312500Y-89468304D01*
X146322293Y-89466753D01*
X146435835Y-89448770D01*
X146435837Y-89448769D01*
X146445626Y-89447219D01*
X146565720Y-89386028D01*
X146661028Y-89290720D01*
X146722219Y-89170626D01*
X146725240Y-89151556D01*
X146741753Y-89047293D01*
X146743304Y-89037500D01*
X147781696Y-89037500D01*
X147783247Y-89047293D01*
X147799761Y-89151556D01*
X147802781Y-89170626D01*
X147863972Y-89290720D01*
X147959280Y-89386028D01*
X148079374Y-89447219D01*
X148089163Y-89448769D01*
X148089165Y-89448770D01*
X148202707Y-89466753D01*
X148212500Y-89468304D01*
X148222293Y-89466753D01*
X148335835Y-89448770D01*
X148335837Y-89448769D01*
X148345626Y-89447219D01*
X148465720Y-89386028D01*
X148561028Y-89290720D01*
X148622219Y-89170626D01*
X148625240Y-89151556D01*
X148641753Y-89047293D01*
X148643304Y-89037500D01*
X149131696Y-89037500D01*
X149133247Y-89047293D01*
X149149761Y-89151556D01*
X149152781Y-89170626D01*
X149213972Y-89290720D01*
X149309280Y-89386028D01*
X149429374Y-89447219D01*
X149439163Y-89448769D01*
X149439165Y-89448770D01*
X149552707Y-89466753D01*
X149562500Y-89468304D01*
X149572293Y-89466753D01*
X149685835Y-89448770D01*
X149685837Y-89448769D01*
X149695626Y-89447219D01*
X149815720Y-89386028D01*
X149823405Y-89378343D01*
X149824425Y-89377786D01*
X149830752Y-89373189D01*
X149831346Y-89374007D01*
X149885717Y-89344317D01*
X149956532Y-89349382D01*
X149994034Y-89373484D01*
X149994248Y-89373189D01*
X149999400Y-89376932D01*
X150001595Y-89378343D01*
X150009280Y-89386028D01*
X150129374Y-89447219D01*
X150139163Y-89448769D01*
X150139165Y-89448770D01*
X150252707Y-89466753D01*
X150262500Y-89468304D01*
X150272293Y-89466753D01*
X150385835Y-89448770D01*
X150385837Y-89448769D01*
X150395626Y-89447219D01*
X150515720Y-89386028D01*
X150611028Y-89290720D01*
X150672219Y-89170626D01*
X150675240Y-89151556D01*
X150691753Y-89047293D01*
X150693304Y-89037500D01*
X150685936Y-88990981D01*
X150673770Y-88914165D01*
X150673769Y-88914163D01*
X150672219Y-88904374D01*
X150611028Y-88784280D01*
X150515720Y-88688972D01*
X150395626Y-88627781D01*
X150385837Y-88626231D01*
X150385835Y-88626230D01*
X150272293Y-88608247D01*
X150262500Y-88606696D01*
X150252707Y-88608247D01*
X150139165Y-88626230D01*
X150139163Y-88626231D01*
X150129374Y-88627781D01*
X150009280Y-88688972D01*
X150001595Y-88696657D01*
X150000575Y-88697214D01*
X149994248Y-88701811D01*
X149993654Y-88700993D01*
X149939283Y-88730683D01*
X149868468Y-88725618D01*
X149830966Y-88701516D01*
X149830752Y-88701811D01*
X149825600Y-88698068D01*
X149823405Y-88696657D01*
X149815720Y-88688972D01*
X149695626Y-88627781D01*
X149685837Y-88626231D01*
X149685835Y-88626230D01*
X149572293Y-88608247D01*
X149562500Y-88606696D01*
X149552707Y-88608247D01*
X149439165Y-88626230D01*
X149439163Y-88626231D01*
X149429374Y-88627781D01*
X149309280Y-88688972D01*
X149213972Y-88784280D01*
X149152781Y-88904374D01*
X149151231Y-88914163D01*
X149151230Y-88914165D01*
X149139064Y-88990981D01*
X149131696Y-89037500D01*
X148643304Y-89037500D01*
X148635936Y-88990981D01*
X148623770Y-88914165D01*
X148623769Y-88914163D01*
X148622219Y-88904374D01*
X148561028Y-88784280D01*
X148465720Y-88688972D01*
X148345626Y-88627781D01*
X148335837Y-88626231D01*
X148335835Y-88626230D01*
X148222293Y-88608247D01*
X148212500Y-88606696D01*
X148202707Y-88608247D01*
X148089165Y-88626230D01*
X148089163Y-88626231D01*
X148079374Y-88627781D01*
X147959280Y-88688972D01*
X147863972Y-88784280D01*
X147802781Y-88904374D01*
X147801231Y-88914163D01*
X147801230Y-88914165D01*
X147789064Y-88990981D01*
X147781696Y-89037500D01*
X146743304Y-89037500D01*
X146735936Y-88990981D01*
X146723770Y-88914165D01*
X146723769Y-88914163D01*
X146722219Y-88904374D01*
X146661028Y-88784280D01*
X146565720Y-88688972D01*
X146445626Y-88627781D01*
X146435837Y-88626231D01*
X146435835Y-88626230D01*
X146322293Y-88608247D01*
X146312500Y-88606696D01*
X146302707Y-88608247D01*
X146189165Y-88626230D01*
X146189163Y-88626231D01*
X146179374Y-88627781D01*
X146059280Y-88688972D01*
X145963972Y-88784280D01*
X145902781Y-88904374D01*
X145901231Y-88914163D01*
X145901230Y-88914165D01*
X145889064Y-88990981D01*
X145881696Y-89037500D01*
X144693304Y-89037500D01*
X144685936Y-88990981D01*
X144673770Y-88914165D01*
X144673769Y-88914163D01*
X144672219Y-88904374D01*
X144611028Y-88784280D01*
X144515720Y-88688972D01*
X144395626Y-88627781D01*
X144385837Y-88626231D01*
X144385835Y-88626230D01*
X144272293Y-88608247D01*
X144262500Y-88606696D01*
X144252707Y-88608247D01*
X144139165Y-88626230D01*
X144139163Y-88626231D01*
X144129374Y-88627781D01*
X144009280Y-88688972D01*
X143913972Y-88784280D01*
X143852781Y-88904374D01*
X143851231Y-88914163D01*
X143851230Y-88914165D01*
X143839064Y-88990981D01*
X143831696Y-89037500D01*
X141034529Y-89037500D01*
X141050320Y-88990981D01*
X141050320Y-88990979D01*
X141052178Y-88985507D01*
X141053007Y-88979791D01*
X141053008Y-88979786D01*
X141070989Y-88855770D01*
X141081200Y-88785342D01*
X141082715Y-88727500D01*
X141064208Y-88526091D01*
X141062325Y-88519412D01*
X141029880Y-88404374D01*
X141009307Y-88331426D01*
X140919851Y-88150027D01*
X140905394Y-88130666D01*
X140802288Y-87992591D01*
X140802287Y-87992590D01*
X140798835Y-87987967D01*
X140791959Y-87981611D01*
X140654553Y-87854594D01*
X140654551Y-87854592D01*
X140650312Y-87850674D01*
X140627391Y-87836212D01*
X140484137Y-87745825D01*
X140479257Y-87742746D01*
X140291398Y-87667798D01*
X140093026Y-87628339D01*
X140087252Y-87628263D01*
X140087248Y-87628263D01*
X139984757Y-87626922D01*
X139890786Y-87625692D01*
X139885089Y-87626671D01*
X139885088Y-87626671D01*
X139697146Y-87658965D01*
X139697145Y-87658965D01*
X139691449Y-87659944D01*
X139501693Y-87729949D01*
X139496732Y-87732901D01*
X139496731Y-87732901D01*
X139333709Y-87829889D01*
X139327871Y-87833362D01*
X139175805Y-87966720D01*
X139050589Y-88125557D01*
X138956414Y-88304553D01*
X138896437Y-88497713D01*
X138872664Y-88698569D01*
X138885892Y-88900394D01*
X138900994Y-88959860D01*
X138930828Y-89077329D01*
X138935678Y-89096428D01*
X139020356Y-89280107D01*
X139032635Y-89297481D01*
X139086718Y-89374007D01*
X139137088Y-89445280D01*
X139281966Y-89586413D01*
X139286771Y-89589624D01*
X139286774Y-89589626D01*
X139311631Y-89606235D01*
X139357159Y-89660711D01*
X139366008Y-89731154D01*
X139335367Y-89795199D01*
X139274965Y-89832510D01*
X139241630Y-89837000D01*
X138173181Y-89837000D01*
X138105060Y-89816998D01*
X138058567Y-89763342D01*
X138048463Y-89693068D01*
X138077957Y-89628488D01*
X138092612Y-89614126D01*
X138214568Y-89512696D01*
X138214573Y-89512691D01*
X138219005Y-89509005D01*
X138348337Y-89353501D01*
X138356431Y-89339049D01*
X138400026Y-89261203D01*
X138447164Y-89177031D01*
X138452267Y-89162000D01*
X138510320Y-88990981D01*
X138510320Y-88990979D01*
X138512178Y-88985507D01*
X138513007Y-88979791D01*
X138513008Y-88979786D01*
X138530989Y-88855770D01*
X138541200Y-88785342D01*
X138542715Y-88727500D01*
X138524208Y-88526091D01*
X138522325Y-88519412D01*
X138489880Y-88404374D01*
X138469307Y-88331426D01*
X138379851Y-88150027D01*
X138365394Y-88130666D01*
X138262288Y-87992591D01*
X138262287Y-87992590D01*
X138258835Y-87987967D01*
X138251959Y-87981611D01*
X138114553Y-87854594D01*
X138114551Y-87854592D01*
X138110312Y-87850674D01*
X138087391Y-87836212D01*
X137944137Y-87745825D01*
X137939257Y-87742746D01*
X137751398Y-87667798D01*
X137553026Y-87628339D01*
X137547252Y-87628263D01*
X137547248Y-87628263D01*
X137444757Y-87626922D01*
X137350786Y-87625692D01*
X137345089Y-87626671D01*
X137345088Y-87626671D01*
X137157146Y-87658965D01*
X137157145Y-87658965D01*
X137151449Y-87659944D01*
X136961693Y-87729949D01*
X136956732Y-87732901D01*
X136956731Y-87732901D01*
X136793709Y-87829889D01*
X136787871Y-87833362D01*
X136635805Y-87966720D01*
X136510589Y-88125557D01*
X136430771Y-88277266D01*
X136429877Y-88278965D01*
X136380458Y-88329937D01*
X136311325Y-88346100D01*
X136244429Y-88322321D01*
X136216435Y-88294361D01*
X136215530Y-88293115D01*
X136211028Y-88284280D01*
X136115720Y-88188972D01*
X135995626Y-88127781D01*
X135985837Y-88126231D01*
X135985835Y-88126230D01*
X135872293Y-88108247D01*
X135862500Y-88106696D01*
X135852707Y-88108247D01*
X135739165Y-88126230D01*
X135739163Y-88126231D01*
X135729374Y-88127781D01*
X135609280Y-88188972D01*
X135513972Y-88284280D01*
X135452781Y-88404374D01*
X135451231Y-88414163D01*
X135451230Y-88414165D01*
X135435012Y-88516566D01*
X135431696Y-88537500D01*
X135433247Y-88547293D01*
X135442656Y-88606696D01*
X135452781Y-88670626D01*
X135513972Y-88790720D01*
X135609280Y-88886028D01*
X135729374Y-88947219D01*
X135739163Y-88948769D01*
X135739165Y-88948770D01*
X135852707Y-88966753D01*
X135862500Y-88968304D01*
X135872293Y-88966753D01*
X135985835Y-88948770D01*
X135985837Y-88948769D01*
X135995626Y-88947219D01*
X136115720Y-88886028D01*
X136139689Y-88862059D01*
X136202001Y-88828033D01*
X136272816Y-88833098D01*
X136329652Y-88875645D01*
X136350906Y-88920137D01*
X136362047Y-88964003D01*
X136390828Y-89077329D01*
X136395678Y-89096428D01*
X136480356Y-89280107D01*
X136492635Y-89297481D01*
X136546718Y-89374007D01*
X136597088Y-89445280D01*
X136741966Y-89586413D01*
X136746771Y-89589624D01*
X136746774Y-89589626D01*
X136771631Y-89606235D01*
X136817159Y-89660711D01*
X136826008Y-89731154D01*
X136795367Y-89795199D01*
X136734965Y-89832510D01*
X136701630Y-89837000D01*
X130268392Y-89837000D01*
X130231126Y-89836967D01*
X130231124Y-89836967D01*
X130216937Y-89836955D01*
X130204146Y-89843097D01*
X130199233Y-89844213D01*
X130191683Y-89846850D01*
X130187149Y-89849032D01*
X130173315Y-89852188D01*
X130162220Y-89861029D01*
X130157346Y-89863375D01*
X130151494Y-89867046D01*
X130147262Y-89870412D01*
X130134476Y-89876552D01*
X130125617Y-89887630D01*
X130121674Y-89890766D01*
X130108900Y-89903518D01*
X130106385Y-89905522D01*
X130040645Y-89932330D01*
X129970846Y-89919340D01*
X129919151Y-89870677D01*
X129904618Y-89833177D01*
X129904399Y-89832144D01*
X129897551Y-89799929D01*
X129876425Y-89752479D01*
X129821108Y-89628233D01*
X129821106Y-89628230D01*
X129818422Y-89622201D01*
X129792421Y-89586413D01*
X129707948Y-89470147D01*
X129704069Y-89464808D01*
X129699166Y-89460393D01*
X129694743Y-89455481D01*
X129695675Y-89454642D01*
X129662042Y-89400053D01*
X129663393Y-89329069D01*
X129702906Y-89270084D01*
X129768036Y-89241825D01*
X129830690Y-89249995D01*
X129942952Y-89295238D01*
X129942957Y-89295240D01*
X129948519Y-89297481D01*
X129954400Y-89298629D01*
X129954405Y-89298631D01*
X130150176Y-89336862D01*
X130150179Y-89336862D01*
X130154622Y-89337730D01*
X130160143Y-89338000D01*
X130314969Y-89338000D01*
X130471546Y-89323061D01*
X130477302Y-89321372D01*
X130477304Y-89321372D01*
X130591635Y-89287831D01*
X130673049Y-89263947D01*
X130785583Y-89205988D01*
X130854408Y-89170541D01*
X130854411Y-89170539D01*
X130859739Y-89167795D01*
X130937587Y-89106645D01*
X131020162Y-89041782D01*
X131020167Y-89041778D01*
X131024879Y-89038076D01*
X131049269Y-89009969D01*
X131158579Y-88884002D01*
X131158583Y-88883997D01*
X131162510Y-88879471D01*
X131267666Y-88697701D01*
X131308295Y-88580702D01*
X131334586Y-88504991D01*
X131334586Y-88504989D01*
X131336553Y-88499326D01*
X131348901Y-88414165D01*
X131365825Y-88297444D01*
X131365825Y-88297441D01*
X131366686Y-88291504D01*
X131356977Y-88081733D01*
X131307776Y-87877582D01*
X131304614Y-87870626D01*
X131241994Y-87732901D01*
X131220860Y-87686419D01*
X131115426Y-87537785D01*
X131102829Y-87520026D01*
X131102828Y-87520025D01*
X131099363Y-87515140D01*
X130947669Y-87369925D01*
X130893938Y-87335231D01*
X130776291Y-87259267D01*
X130776288Y-87259266D01*
X130771254Y-87256015D01*
X130739089Y-87243052D01*
X130582045Y-87179761D01*
X130582042Y-87179760D01*
X130576481Y-87177519D01*
X130570600Y-87176371D01*
X130570595Y-87176369D01*
X130374824Y-87138138D01*
X130374821Y-87138138D01*
X130370378Y-87137270D01*
X130364857Y-87137000D01*
X130210031Y-87137000D01*
X130053454Y-87151939D01*
X130047698Y-87153628D01*
X130047696Y-87153628D01*
X130023331Y-87160776D01*
X129851951Y-87211053D01*
X129769005Y-87253773D01*
X129670592Y-87304459D01*
X129670589Y-87304461D01*
X129665261Y-87307205D01*
X129629582Y-87335231D01*
X129504838Y-87433218D01*
X129504833Y-87433222D01*
X129500121Y-87436924D01*
X129496190Y-87441454D01*
X129496189Y-87441455D01*
X129366421Y-87590998D01*
X129366417Y-87591003D01*
X129362490Y-87595529D01*
X129257334Y-87777299D01*
X129251263Y-87794782D01*
X129195414Y-87955612D01*
X129188447Y-87975674D01*
X129187586Y-87981609D01*
X129187586Y-87981611D01*
X129160517Y-88168304D01*
X129158314Y-88183496D01*
X129168023Y-88393267D01*
X129169427Y-88399092D01*
X129169427Y-88399093D01*
X129206241Y-88551844D01*
X129217224Y-88597418D01*
X129219706Y-88602876D01*
X129219707Y-88602880D01*
X129262345Y-88696657D01*
X129304140Y-88788581D01*
X129425637Y-88959860D01*
X129429960Y-88963998D01*
X129429964Y-88964003D01*
X129484044Y-89015773D01*
X129519420Y-89077329D01*
X129515901Y-89148238D01*
X129474604Y-89205988D01*
X129408641Y-89232244D01*
X129357978Y-89226624D01*
X129205982Y-89177238D01*
X129199419Y-89176548D01*
X129199418Y-89176548D01*
X129175789Y-89174065D01*
X129061004Y-89162000D01*
X127663996Y-89162000D01*
X127549211Y-89174065D01*
X127525582Y-89176548D01*
X127525581Y-89176548D01*
X127519018Y-89177238D01*
X127333992Y-89237356D01*
X127328270Y-89240659D01*
X127328269Y-89240660D01*
X127233737Y-89295238D01*
X127165508Y-89334630D01*
X127160601Y-89339048D01*
X127160600Y-89339049D01*
X127031290Y-89455481D01*
X127020931Y-89464808D01*
X127017052Y-89470147D01*
X126932580Y-89586413D01*
X126906578Y-89622201D01*
X126903894Y-89628230D01*
X126903892Y-89628233D01*
X126848575Y-89752479D01*
X126827449Y-89799929D01*
X126826076Y-89806389D01*
X126826073Y-89806399D01*
X126819420Y-89837697D01*
X126785692Y-89900171D01*
X126723542Y-89934492D01*
X126696174Y-89937500D01*
X124128826Y-89937500D01*
X124060705Y-89917498D01*
X124014212Y-89863842D01*
X124005580Y-89837697D01*
X123998927Y-89806399D01*
X123998924Y-89806389D01*
X123997551Y-89799929D01*
X123976425Y-89752479D01*
X123921108Y-89628233D01*
X123921106Y-89628230D01*
X123918422Y-89622201D01*
X123892421Y-89586413D01*
X123807948Y-89470147D01*
X123804069Y-89464808D01*
X123793711Y-89455481D01*
X123664400Y-89339049D01*
X123664399Y-89339048D01*
X123659492Y-89334630D01*
X123591263Y-89295238D01*
X123496731Y-89240660D01*
X123496730Y-89240659D01*
X123491008Y-89237356D01*
X123305982Y-89177238D01*
X123299419Y-89176548D01*
X123299418Y-89176548D01*
X123275789Y-89174065D01*
X123161004Y-89162000D01*
X121763996Y-89162000D01*
X121649211Y-89174065D01*
X121625582Y-89176548D01*
X121625581Y-89176548D01*
X121619018Y-89177238D01*
X121433992Y-89237356D01*
X121428270Y-89240659D01*
X121428269Y-89240660D01*
X121333737Y-89295238D01*
X121265508Y-89334630D01*
X121260601Y-89339048D01*
X121260600Y-89339049D01*
X121131290Y-89455481D01*
X121120931Y-89464808D01*
X121117052Y-89470147D01*
X121032580Y-89586413D01*
X121006578Y-89622201D01*
X121003894Y-89628230D01*
X121003892Y-89628233D01*
X120948575Y-89752479D01*
X120927449Y-89799929D01*
X120926076Y-89806389D01*
X120926073Y-89806399D01*
X120919420Y-89837697D01*
X120885692Y-89900171D01*
X120823542Y-89934492D01*
X120796174Y-89937500D01*
X120502483Y-89937500D01*
X120434362Y-89917498D01*
X120424304Y-89908410D01*
X120423450Y-89909477D01*
X120416331Y-89903784D01*
X120403584Y-89891015D01*
X120399648Y-89887873D01*
X120390805Y-89876776D01*
X120378023Y-89870611D01*
X120373796Y-89867237D01*
X120367953Y-89863558D01*
X120363090Y-89861207D01*
X120352008Y-89852344D01*
X120338180Y-89849164D01*
X120333649Y-89846974D01*
X120326103Y-89844324D01*
X120321193Y-89843200D01*
X120308413Y-89837035D01*
X120285345Y-89837015D01*
X120285347Y-89834990D01*
X120285281Y-89834974D01*
X120285281Y-89837000D01*
X120268392Y-89837000D01*
X120216937Y-89836955D01*
X120216941Y-89832150D01*
X120216843Y-89832144D01*
X120216843Y-89837000D01*
X118713058Y-89837000D01*
X118644937Y-89816998D01*
X118633124Y-89808399D01*
X118564986Y-89752479D01*
X118547521Y-89735014D01*
X118491601Y-89666876D01*
X118463847Y-89601529D01*
X118463000Y-89586942D01*
X118463000Y-87460807D01*
X123608106Y-87460807D01*
X123636564Y-87601944D01*
X123701929Y-87730230D01*
X123799384Y-87836212D01*
X123921750Y-87912082D01*
X124060012Y-87952251D01*
X124066827Y-87952751D01*
X124067904Y-87952831D01*
X124067917Y-87952831D01*
X124070212Y-87953000D01*
X124173570Y-87953000D01*
X124177815Y-87952418D01*
X124177822Y-87952418D01*
X124236731Y-87944348D01*
X124280146Y-87938401D01*
X124292403Y-87933097D01*
X124404402Y-87884631D01*
X124404405Y-87884629D01*
X124412283Y-87881220D01*
X124524175Y-87790612D01*
X124607579Y-87673251D01*
X124640508Y-87581787D01*
X124653442Y-87545863D01*
X124653442Y-87545861D01*
X124656350Y-87537785D01*
X124658699Y-87505804D01*
X124662824Y-87449621D01*
X124666894Y-87394193D01*
X124638436Y-87253056D01*
X124573071Y-87124770D01*
X124541374Y-87090299D01*
X124481430Y-87025111D01*
X124475616Y-87018788D01*
X124417822Y-86982954D01*
X157577740Y-86982954D01*
X157579291Y-86992747D01*
X157594742Y-87090299D01*
X157598825Y-87116080D01*
X157660016Y-87236174D01*
X157755324Y-87331482D01*
X157875418Y-87392673D01*
X157885207Y-87394223D01*
X157885209Y-87394224D01*
X157998751Y-87412207D01*
X158008544Y-87413758D01*
X158018337Y-87412207D01*
X158131879Y-87394224D01*
X158131881Y-87394223D01*
X158141670Y-87392673D01*
X158261764Y-87331482D01*
X158357072Y-87236174D01*
X158418263Y-87116080D01*
X158422347Y-87090299D01*
X158424770Y-87075000D01*
X170494196Y-87075000D01*
X170495747Y-87084793D01*
X170507782Y-87160776D01*
X170515281Y-87208126D01*
X170576472Y-87328220D01*
X170671780Y-87423528D01*
X170791874Y-87484719D01*
X170801663Y-87486269D01*
X170801665Y-87486270D01*
X170915207Y-87504253D01*
X170925000Y-87505804D01*
X170934793Y-87504253D01*
X171048335Y-87486270D01*
X171048337Y-87486269D01*
X171058126Y-87484719D01*
X171178220Y-87423528D01*
X171273528Y-87328220D01*
X171334719Y-87208126D01*
X171342219Y-87160776D01*
X171354253Y-87084793D01*
X171355804Y-87075000D01*
X171353267Y-87058982D01*
X171336270Y-86951665D01*
X171336269Y-86951663D01*
X171334719Y-86941874D01*
X171273528Y-86821780D01*
X171178220Y-86726472D01*
X171058126Y-86665281D01*
X171048337Y-86663731D01*
X171048335Y-86663730D01*
X170934793Y-86645747D01*
X170925000Y-86644196D01*
X170915207Y-86645747D01*
X170801665Y-86663730D01*
X170801663Y-86663731D01*
X170791874Y-86665281D01*
X170671780Y-86726472D01*
X170576472Y-86821780D01*
X170515281Y-86941874D01*
X170513731Y-86951663D01*
X170513730Y-86951665D01*
X170496733Y-87058982D01*
X170494196Y-87075000D01*
X158424770Y-87075000D01*
X158437797Y-86992747D01*
X158439348Y-86982954D01*
X158432842Y-86941874D01*
X158419814Y-86859619D01*
X158419813Y-86859617D01*
X158418263Y-86849828D01*
X158357072Y-86729734D01*
X158261764Y-86634426D01*
X158141670Y-86573235D01*
X158131881Y-86571685D01*
X158131879Y-86571684D01*
X158018337Y-86553701D01*
X158008544Y-86552150D01*
X157998751Y-86553701D01*
X157885209Y-86571684D01*
X157885207Y-86571685D01*
X157875418Y-86573235D01*
X157755324Y-86634426D01*
X157660016Y-86729734D01*
X157598825Y-86849828D01*
X157597275Y-86859617D01*
X157597274Y-86859619D01*
X157584246Y-86941874D01*
X157577740Y-86982954D01*
X124417822Y-86982954D01*
X124353250Y-86942918D01*
X124214988Y-86902749D01*
X124208173Y-86902249D01*
X124207096Y-86902169D01*
X124207083Y-86902169D01*
X124204788Y-86902000D01*
X124101430Y-86902000D01*
X124097185Y-86902582D01*
X124097178Y-86902582D01*
X124050204Y-86909017D01*
X123994854Y-86916599D01*
X123986970Y-86920011D01*
X123986969Y-86920011D01*
X123870598Y-86970369D01*
X123870595Y-86970371D01*
X123862717Y-86973780D01*
X123750825Y-87064388D01*
X123667421Y-87181749D01*
X123645303Y-87243185D01*
X123621879Y-87308247D01*
X123618650Y-87317215D01*
X123618022Y-87325773D01*
X123618021Y-87325776D01*
X123613711Y-87384472D01*
X123608106Y-87460807D01*
X118463000Y-87460807D01*
X118463000Y-81680807D01*
X123608106Y-81680807D01*
X123636564Y-81821944D01*
X123701929Y-81950230D01*
X123707742Y-81956552D01*
X123707743Y-81956553D01*
X123738972Y-81990514D01*
X123799384Y-82056212D01*
X123921750Y-82132082D01*
X124060012Y-82172251D01*
X124066827Y-82172751D01*
X124067904Y-82172831D01*
X124067917Y-82172831D01*
X124070212Y-82173000D01*
X124173570Y-82173000D01*
X124177815Y-82172418D01*
X124177822Y-82172418D01*
X124236731Y-82164348D01*
X124280146Y-82158401D01*
X124288031Y-82154989D01*
X124404402Y-82104631D01*
X124404405Y-82104629D01*
X124412283Y-82101220D01*
X124524175Y-82010612D01*
X124607579Y-81893251D01*
X124656350Y-81757785D01*
X124658260Y-81731782D01*
X124666265Y-81622756D01*
X124666894Y-81614193D01*
X124640947Y-81485508D01*
X124640134Y-81481477D01*
X124638436Y-81473056D01*
X124573071Y-81344770D01*
X124565033Y-81336028D01*
X124511783Y-81278120D01*
X124475616Y-81238788D01*
X124353250Y-81162918D01*
X124214988Y-81122749D01*
X124208173Y-81122249D01*
X124207096Y-81122169D01*
X124207083Y-81122169D01*
X124204788Y-81122000D01*
X124101430Y-81122000D01*
X124097185Y-81122582D01*
X124097178Y-81122582D01*
X124038269Y-81130652D01*
X123994854Y-81136599D01*
X123986970Y-81140011D01*
X123986969Y-81140011D01*
X123870598Y-81190369D01*
X123870595Y-81190371D01*
X123862717Y-81193780D01*
X123750825Y-81284388D01*
X123667421Y-81401749D01*
X123644504Y-81465402D01*
X123621968Y-81528000D01*
X123618650Y-81537215D01*
X123618022Y-81545773D01*
X123618021Y-81545776D01*
X123613616Y-81605774D01*
X123608106Y-81680807D01*
X118463000Y-81680807D01*
X118463000Y-78032045D01*
X119481106Y-78032045D01*
X119481842Y-78039047D01*
X119481842Y-78039049D01*
X119494448Y-78158978D01*
X119499316Y-78205297D01*
X119528780Y-78291849D01*
X119550812Y-78356566D01*
X119555456Y-78370209D01*
X119559146Y-78376207D01*
X119559147Y-78376209D01*
X119632116Y-78494819D01*
X119646738Y-78518586D01*
X119768624Y-78643052D01*
X119915056Y-78737421D01*
X119921679Y-78739832D01*
X119921682Y-78739833D01*
X120072134Y-78794593D01*
X120072139Y-78794594D01*
X120078757Y-78797003D01*
X120213301Y-78814000D01*
X120306300Y-78814000D01*
X120435621Y-78799494D01*
X120449695Y-78794593D01*
X120593490Y-78744519D01*
X120593492Y-78744518D01*
X120600137Y-78742204D01*
X120607792Y-78737421D01*
X120741899Y-78653621D01*
X120747873Y-78649888D01*
X120759823Y-78638021D01*
X120866488Y-78532099D01*
X120866491Y-78532095D01*
X120871485Y-78527136D01*
X120880720Y-78512585D01*
X120946623Y-78408737D01*
X120964829Y-78380049D01*
X120982963Y-78329122D01*
X121020905Y-78222571D01*
X121020906Y-78222566D01*
X121023267Y-78215936D01*
X121024478Y-78205787D01*
X121043060Y-78049948D01*
X121043894Y-78042955D01*
X121043158Y-78035951D01*
X121026420Y-77876703D01*
X121026420Y-77876701D01*
X121025684Y-77869703D01*
X120975857Y-77723335D01*
X120971815Y-77711461D01*
X120971814Y-77711458D01*
X120969544Y-77704791D01*
X120963491Y-77694951D01*
X120881954Y-77562415D01*
X120881953Y-77562414D01*
X120878262Y-77556414D01*
X120756376Y-77431948D01*
X120609944Y-77337579D01*
X120603321Y-77335168D01*
X120603318Y-77335167D01*
X120452866Y-77280407D01*
X120452861Y-77280406D01*
X120446243Y-77277997D01*
X120311699Y-77261000D01*
X120218700Y-77261000D01*
X120089379Y-77275506D01*
X120082731Y-77277821D01*
X119931510Y-77330481D01*
X119931508Y-77330482D01*
X119924863Y-77332796D01*
X119918893Y-77336527D01*
X119918892Y-77336527D01*
X119851963Y-77378349D01*
X119777127Y-77425112D01*
X119772129Y-77430075D01*
X119772128Y-77430076D01*
X119658512Y-77542901D01*
X119658509Y-77542905D01*
X119653515Y-77547864D01*
X119649741Y-77553810D01*
X119649740Y-77553812D01*
X119620429Y-77600000D01*
X119560171Y-77694951D01*
X119557806Y-77701593D01*
X119504095Y-77852429D01*
X119504094Y-77852434D01*
X119501733Y-77859064D01*
X119500900Y-77866052D01*
X119500899Y-77866055D01*
X119489817Y-77958994D01*
X119481106Y-78032045D01*
X118463000Y-78032045D01*
X118463000Y-76488058D01*
X118483002Y-76419937D01*
X118491601Y-76408124D01*
X118547521Y-76339986D01*
X118564986Y-76322521D01*
X118633124Y-76266601D01*
X118698471Y-76238847D01*
X118713058Y-76238000D01*
X120256608Y-76238000D01*
X120293874Y-76238033D01*
X120293876Y-76238033D01*
X120308063Y-76238045D01*
X120320854Y-76231903D01*
X120325767Y-76230787D01*
X120333317Y-76228150D01*
X120337851Y-76225968D01*
X120351685Y-76222812D01*
X120362780Y-76213971D01*
X120367654Y-76211625D01*
X120373506Y-76207954D01*
X120377738Y-76204588D01*
X120390524Y-76198448D01*
X120399384Y-76187369D01*
X120403324Y-76184235D01*
X120416097Y-76171484D01*
X120416444Y-76171208D01*
X120423224Y-76165805D01*
X120423225Y-76165804D01*
X120426073Y-76169378D01*
X120462103Y-76144125D01*
X120502422Y-76137500D01*
X120796174Y-76137500D01*
X120864295Y-76157502D01*
G37*
G04 #@! TD.AperFunction*
G04 #@! TA.AperFunction,Conductor*
G36*
X136766792Y-76258002D02*
G01*
X136813285Y-76311658D01*
X136823389Y-76381932D01*
X136793895Y-76446512D01*
X136781750Y-76458730D01*
X136635805Y-76586720D01*
X136510589Y-76745557D01*
X136416414Y-76924553D01*
X136356437Y-77117713D01*
X136332664Y-77318569D01*
X136345892Y-77520394D01*
X136366055Y-77599786D01*
X136386867Y-77681733D01*
X136395678Y-77716428D01*
X136480356Y-77900107D01*
X136483689Y-77904823D01*
X136581811Y-78043663D01*
X136597088Y-78065280D01*
X136741966Y-78206413D01*
X136910137Y-78318782D01*
X136915440Y-78321060D01*
X136915443Y-78321062D01*
X137090663Y-78396342D01*
X137095970Y-78398622D01*
X137293240Y-78443260D01*
X137299009Y-78443487D01*
X137299012Y-78443487D01*
X137375183Y-78446479D01*
X137495342Y-78451200D01*
X137581632Y-78438689D01*
X137689786Y-78423008D01*
X137689791Y-78423007D01*
X137695507Y-78422178D01*
X137700979Y-78420320D01*
X137700981Y-78420320D01*
X137881567Y-78359019D01*
X137881569Y-78359018D01*
X137887031Y-78357164D01*
X138063501Y-78258337D01*
X138125933Y-78206413D01*
X138214573Y-78132691D01*
X138219005Y-78129005D01*
X138321272Y-78006043D01*
X138344646Y-77977939D01*
X138348337Y-77973501D01*
X138447164Y-77797031D01*
X138512178Y-77605507D01*
X138513007Y-77599791D01*
X138513008Y-77599786D01*
X138540667Y-77409016D01*
X138541200Y-77405342D01*
X138542715Y-77347500D01*
X138524208Y-77146091D01*
X138469307Y-76951426D01*
X138379851Y-76770027D01*
X138361579Y-76745557D01*
X138262288Y-76612591D01*
X138262287Y-76612590D01*
X138258835Y-76607967D01*
X138235850Y-76586720D01*
X138114553Y-76474594D01*
X138114551Y-76474592D01*
X138110312Y-76470674D01*
X138105430Y-76467594D01*
X138100843Y-76464074D01*
X138102525Y-76461882D01*
X138063263Y-76417437D01*
X138052487Y-76347263D01*
X138081360Y-76282403D01*
X138140716Y-76243449D01*
X138177370Y-76238000D01*
X139238671Y-76238000D01*
X139306792Y-76258002D01*
X139353285Y-76311658D01*
X139363389Y-76381932D01*
X139333895Y-76446512D01*
X139321750Y-76458730D01*
X139175805Y-76586720D01*
X139050589Y-76745557D01*
X138956414Y-76924553D01*
X138896437Y-77117713D01*
X138872664Y-77318569D01*
X138885892Y-77520394D01*
X138906055Y-77599786D01*
X138926867Y-77681733D01*
X138935678Y-77716428D01*
X139020356Y-77900107D01*
X139023689Y-77904823D01*
X139121811Y-78043663D01*
X139137088Y-78065280D01*
X139281966Y-78206413D01*
X139450137Y-78318782D01*
X139455440Y-78321060D01*
X139455443Y-78321062D01*
X139630663Y-78396342D01*
X139635970Y-78398622D01*
X139833240Y-78443260D01*
X139839009Y-78443487D01*
X139839012Y-78443487D01*
X139915183Y-78446479D01*
X140035342Y-78451200D01*
X140121632Y-78438689D01*
X140229786Y-78423008D01*
X140229791Y-78423007D01*
X140235507Y-78422178D01*
X140240979Y-78420320D01*
X140240981Y-78420320D01*
X140421567Y-78359019D01*
X140421569Y-78359018D01*
X140427031Y-78357164D01*
X140603501Y-78258337D01*
X140665933Y-78206413D01*
X140754573Y-78132691D01*
X140759005Y-78129005D01*
X140861272Y-78006043D01*
X140884646Y-77977939D01*
X140888337Y-77973501D01*
X140987164Y-77797031D01*
X141052178Y-77605507D01*
X141053007Y-77599791D01*
X141053008Y-77599786D01*
X141080667Y-77409016D01*
X141081200Y-77405342D01*
X141082715Y-77347500D01*
X141064208Y-77146091D01*
X141009307Y-76951426D01*
X140919851Y-76770027D01*
X140901579Y-76745557D01*
X140802288Y-76612591D01*
X140802287Y-76612590D01*
X140798835Y-76607967D01*
X140775850Y-76586720D01*
X140654553Y-76474594D01*
X140654551Y-76474592D01*
X140650312Y-76470674D01*
X140645430Y-76467594D01*
X140640843Y-76464074D01*
X140642525Y-76461882D01*
X140603263Y-76417437D01*
X140592487Y-76347263D01*
X140621360Y-76282403D01*
X140680716Y-76243449D01*
X140717370Y-76238000D01*
X152808671Y-76238000D01*
X152876792Y-76258002D01*
X152923285Y-76311658D01*
X152933389Y-76381932D01*
X152903895Y-76446512D01*
X152891750Y-76458730D01*
X152745805Y-76586720D01*
X152620589Y-76745557D01*
X152526414Y-76924553D01*
X152466437Y-77117713D01*
X152442664Y-77318569D01*
X152455892Y-77520394D01*
X152476055Y-77599786D01*
X152496867Y-77681733D01*
X152505678Y-77716428D01*
X152590356Y-77900107D01*
X152593689Y-77904823D01*
X152691811Y-78043663D01*
X152707088Y-78065280D01*
X152851966Y-78206413D01*
X153020137Y-78318782D01*
X153025440Y-78321060D01*
X153025443Y-78321062D01*
X153200663Y-78396342D01*
X153205970Y-78398622D01*
X153403240Y-78443260D01*
X153409009Y-78443487D01*
X153409012Y-78443487D01*
X153485183Y-78446479D01*
X153605342Y-78451200D01*
X153691632Y-78438689D01*
X153799786Y-78423008D01*
X153799791Y-78423007D01*
X153805507Y-78422178D01*
X153810979Y-78420320D01*
X153810981Y-78420320D01*
X153991567Y-78359019D01*
X153991569Y-78359018D01*
X153997031Y-78357164D01*
X154173501Y-78258337D01*
X154235933Y-78206413D01*
X154324573Y-78132691D01*
X154329005Y-78129005D01*
X154431272Y-78006043D01*
X154454646Y-77977939D01*
X154458337Y-77973501D01*
X154557164Y-77797031D01*
X154622178Y-77605507D01*
X154623007Y-77599791D01*
X154623008Y-77599786D01*
X154650667Y-77409016D01*
X154651200Y-77405342D01*
X154652715Y-77347500D01*
X154634208Y-77146091D01*
X154579307Y-76951426D01*
X154489851Y-76770027D01*
X154471579Y-76745557D01*
X154372288Y-76612591D01*
X154372287Y-76612590D01*
X154368835Y-76607967D01*
X154345850Y-76586720D01*
X154224553Y-76474594D01*
X154224551Y-76474592D01*
X154220312Y-76470674D01*
X154215430Y-76467594D01*
X154210843Y-76464074D01*
X154212525Y-76461882D01*
X154173263Y-76417437D01*
X154162487Y-76347263D01*
X154191360Y-76282403D01*
X154250716Y-76243449D01*
X154287370Y-76238000D01*
X155348671Y-76238000D01*
X155416792Y-76258002D01*
X155463285Y-76311658D01*
X155473389Y-76381932D01*
X155443895Y-76446512D01*
X155431750Y-76458730D01*
X155285805Y-76586720D01*
X155160589Y-76745557D01*
X155066414Y-76924553D01*
X155006437Y-77117713D01*
X154982664Y-77318569D01*
X154995892Y-77520394D01*
X155016055Y-77599786D01*
X155036867Y-77681733D01*
X155045678Y-77716428D01*
X155130356Y-77900107D01*
X155133689Y-77904823D01*
X155231811Y-78043663D01*
X155247088Y-78065280D01*
X155391966Y-78206413D01*
X155560137Y-78318782D01*
X155565440Y-78321060D01*
X155565443Y-78321062D01*
X155740663Y-78396342D01*
X155745970Y-78398622D01*
X155943240Y-78443260D01*
X155949009Y-78443487D01*
X155949012Y-78443487D01*
X156025183Y-78446479D01*
X156145342Y-78451200D01*
X156231632Y-78438689D01*
X156339786Y-78423008D01*
X156339791Y-78423007D01*
X156345507Y-78422178D01*
X156350979Y-78420320D01*
X156350981Y-78420320D01*
X156531567Y-78359019D01*
X156531569Y-78359018D01*
X156537031Y-78357164D01*
X156713501Y-78258337D01*
X156775933Y-78206413D01*
X156864573Y-78132691D01*
X156869005Y-78129005D01*
X156971272Y-78006043D01*
X156994646Y-77977939D01*
X156998337Y-77973501D01*
X157097164Y-77797031D01*
X157162178Y-77605507D01*
X157163007Y-77599791D01*
X157163008Y-77599786D01*
X157190667Y-77409016D01*
X157191200Y-77405342D01*
X157192715Y-77347500D01*
X157174208Y-77146091D01*
X157119307Y-76951426D01*
X157029851Y-76770027D01*
X157011579Y-76745557D01*
X156912288Y-76612591D01*
X156912287Y-76612590D01*
X156908835Y-76607967D01*
X156885850Y-76586720D01*
X156764553Y-76474594D01*
X156764551Y-76474592D01*
X156760312Y-76470674D01*
X156755430Y-76467594D01*
X156750843Y-76464074D01*
X156752525Y-76461882D01*
X156713263Y-76417437D01*
X156702487Y-76347263D01*
X156731360Y-76282403D01*
X156790716Y-76243449D01*
X156827370Y-76238000D01*
X157311942Y-76238000D01*
X157380063Y-76258002D01*
X157391876Y-76266601D01*
X157460017Y-76322523D01*
X157477479Y-76339985D01*
X157586101Y-76472342D01*
X157599819Y-76492872D01*
X157680529Y-76643871D01*
X157689982Y-76666690D01*
X157739685Y-76830543D01*
X157744501Y-76854760D01*
X157750872Y-76919437D01*
X157761893Y-77031337D01*
X157762500Y-77043687D01*
X157762500Y-78031313D01*
X157761893Y-78043663D01*
X157746261Y-78202380D01*
X157744502Y-78220237D01*
X157739685Y-78244457D01*
X157704934Y-78359019D01*
X157689982Y-78408309D01*
X157680529Y-78431129D01*
X157599819Y-78582128D01*
X157586101Y-78602658D01*
X157477474Y-78735021D01*
X157460021Y-78752474D01*
X157327658Y-78861101D01*
X157307131Y-78874817D01*
X157214917Y-78924107D01*
X157156129Y-78955529D01*
X157133310Y-78964982D01*
X156969457Y-79014685D01*
X156945240Y-79019501D01*
X156768663Y-79036893D01*
X156756313Y-79037500D01*
X147262500Y-79037500D01*
X147259427Y-79037803D01*
X147259420Y-79037803D01*
X147159443Y-79047650D01*
X147067410Y-79056715D01*
X147061490Y-79058511D01*
X147061484Y-79058512D01*
X146975906Y-79084472D01*
X146879817Y-79113620D01*
X146706930Y-79206030D01*
X146555393Y-79330393D01*
X146431030Y-79481930D01*
X146338620Y-79654817D01*
X146336825Y-79660735D01*
X146283512Y-79836484D01*
X146283511Y-79836490D01*
X146281715Y-79842410D01*
X146262500Y-80037500D01*
X146262500Y-81031313D01*
X146261893Y-81043663D01*
X146248878Y-81175810D01*
X146244502Y-81220237D01*
X146239685Y-81244457D01*
X146190303Y-81407252D01*
X146189982Y-81408309D01*
X146180529Y-81431129D01*
X146109288Y-81564413D01*
X146099819Y-81582128D01*
X146086101Y-81602658D01*
X145977474Y-81735021D01*
X145960021Y-81752474D01*
X145827658Y-81861101D01*
X145807131Y-81874817D01*
X145765181Y-81897240D01*
X145656129Y-81955529D01*
X145633310Y-81964982D01*
X145469457Y-82014685D01*
X145445240Y-82019501D01*
X145268663Y-82036893D01*
X145256313Y-82037500D01*
X143800919Y-82037500D01*
X143732798Y-82017498D01*
X143686305Y-81963842D01*
X143676471Y-81931213D01*
X143673771Y-81914170D01*
X143673770Y-81914167D01*
X143672219Y-81904374D01*
X143611028Y-81784280D01*
X143515720Y-81688972D01*
X143395626Y-81627781D01*
X143385837Y-81626231D01*
X143385835Y-81626230D01*
X143272293Y-81608247D01*
X143262500Y-81606696D01*
X143252707Y-81608247D01*
X143139165Y-81626230D01*
X143139163Y-81626231D01*
X143129374Y-81627781D01*
X143009280Y-81688972D01*
X142913972Y-81784280D01*
X142852781Y-81904374D01*
X142851230Y-81914167D01*
X142851229Y-81914170D01*
X142848529Y-81931213D01*
X142818116Y-81995365D01*
X142757847Y-82032891D01*
X142724081Y-82037500D01*
X142676714Y-82037500D01*
X142673641Y-82037803D01*
X142673634Y-82037803D01*
X142555854Y-82049404D01*
X142481623Y-82056715D01*
X142475703Y-82058511D01*
X142475697Y-82058512D01*
X142340535Y-82099513D01*
X142294030Y-82113620D01*
X142121143Y-82206030D01*
X142116358Y-82209957D01*
X141972002Y-82328427D01*
X141971997Y-82328432D01*
X141969607Y-82330393D01*
X141055393Y-83244607D01*
X140931030Y-83396143D01*
X140838620Y-83569030D01*
X140836825Y-83574948D01*
X140783512Y-83750697D01*
X140783511Y-83750703D01*
X140781715Y-83756623D01*
X140781108Y-83762788D01*
X140764648Y-83929908D01*
X140762500Y-83951714D01*
X140762500Y-84228550D01*
X140761895Y-84240877D01*
X140749520Y-84366753D01*
X140744566Y-84417140D01*
X140739764Y-84441326D01*
X140690234Y-84604909D01*
X140680815Y-84627693D01*
X140597456Y-84783977D01*
X140591126Y-84794561D01*
X140408710Y-85068186D01*
X140149650Y-85456774D01*
X140095221Y-85502359D01*
X140024787Y-85511281D01*
X139987611Y-85499150D01*
X139895626Y-85452281D01*
X139885837Y-85450731D01*
X139885835Y-85450730D01*
X139772293Y-85432747D01*
X139762500Y-85431196D01*
X139752707Y-85432747D01*
X139639165Y-85450730D01*
X139639163Y-85450731D01*
X139629374Y-85452281D01*
X139509280Y-85513472D01*
X139413972Y-85608780D01*
X139352781Y-85728874D01*
X139351231Y-85738663D01*
X139351230Y-85738665D01*
X139340823Y-85804374D01*
X139331696Y-85862000D01*
X139333247Y-85871793D01*
X139333247Y-85871794D01*
X139336414Y-85891790D01*
X139327314Y-85962201D01*
X139281592Y-86016515D01*
X139211965Y-86037500D01*
X137116053Y-86037500D01*
X137112980Y-86037803D01*
X137112973Y-86037803D01*
X137013435Y-86047607D01*
X136949533Y-86053901D01*
X136789413Y-86102473D01*
X136783958Y-86105389D01*
X136783955Y-86105390D01*
X136708629Y-86145653D01*
X136641845Y-86181350D01*
X136637062Y-86185276D01*
X136637058Y-86185278D01*
X136392747Y-86385778D01*
X136372216Y-86399497D01*
X136249703Y-86464982D01*
X136246530Y-86466678D01*
X136223717Y-86476128D01*
X136162071Y-86494828D01*
X136091077Y-86495461D01*
X136031011Y-86457611D01*
X136000943Y-86393296D01*
X136001048Y-86354537D01*
X136001483Y-86351791D01*
X136003034Y-86342000D01*
X136000782Y-86327781D01*
X135983500Y-86218665D01*
X135983499Y-86218663D01*
X135981949Y-86208874D01*
X135920758Y-86088780D01*
X135825450Y-85993472D01*
X135705356Y-85932281D01*
X135695567Y-85930731D01*
X135695565Y-85930730D01*
X135582023Y-85912747D01*
X135572230Y-85911196D01*
X135562437Y-85912747D01*
X135448895Y-85930730D01*
X135448893Y-85930731D01*
X135439104Y-85932281D01*
X135319010Y-85993472D01*
X135223702Y-86088780D01*
X135162511Y-86208874D01*
X135160961Y-86218663D01*
X135160960Y-86218665D01*
X135143678Y-86327781D01*
X135141426Y-86342000D01*
X135148400Y-86386028D01*
X135149312Y-86391789D01*
X135140213Y-86462200D01*
X135094491Y-86516514D01*
X135024863Y-86537500D01*
X134182901Y-86537500D01*
X134170551Y-86536893D01*
X133993973Y-86519501D01*
X133969756Y-86514685D01*
X133805903Y-86464982D01*
X133783084Y-86455529D01*
X133632088Y-86374820D01*
X133611550Y-86361097D01*
X133474386Y-86248529D01*
X133465225Y-86240225D01*
X133059775Y-85834775D01*
X133051471Y-85825614D01*
X132938903Y-85688450D01*
X132925180Y-85667912D01*
X132844471Y-85516916D01*
X132835018Y-85494096D01*
X132816408Y-85432747D01*
X132785315Y-85330244D01*
X132780498Y-85306024D01*
X132763107Y-85129449D01*
X132762500Y-85117099D01*
X132762500Y-84072684D01*
X132749171Y-83937500D01*
X135431696Y-83937500D01*
X135433247Y-83947293D01*
X135433315Y-83947719D01*
X135452781Y-84070626D01*
X135513972Y-84190720D01*
X135609280Y-84286028D01*
X135729374Y-84347219D01*
X135739163Y-84348769D01*
X135739165Y-84348770D01*
X135852707Y-84366753D01*
X135862500Y-84368304D01*
X135872293Y-84366753D01*
X135985835Y-84348770D01*
X135985837Y-84348769D01*
X135995626Y-84347219D01*
X136115720Y-84286028D01*
X136211028Y-84190720D01*
X136211324Y-84190139D01*
X136969014Y-84190139D01*
X136970565Y-84199932D01*
X136981168Y-84266874D01*
X136990099Y-84323265D01*
X137051290Y-84443359D01*
X137146598Y-84538667D01*
X137266692Y-84599858D01*
X137276481Y-84601408D01*
X137276483Y-84601409D01*
X137390025Y-84619392D01*
X137399818Y-84620943D01*
X137409611Y-84619392D01*
X137523153Y-84601409D01*
X137523155Y-84601408D01*
X137532944Y-84599858D01*
X137653038Y-84538667D01*
X137748346Y-84443359D01*
X137809537Y-84323265D01*
X137818469Y-84266874D01*
X137829071Y-84199932D01*
X137830622Y-84190139D01*
X137829071Y-84180346D01*
X137811088Y-84066804D01*
X137811087Y-84066802D01*
X137809537Y-84057013D01*
X137748346Y-83936919D01*
X137653038Y-83841611D01*
X137532944Y-83780420D01*
X137523155Y-83778870D01*
X137523153Y-83778869D01*
X137409611Y-83760886D01*
X137399818Y-83759335D01*
X137390025Y-83760886D01*
X137276483Y-83778869D01*
X137276481Y-83778870D01*
X137266692Y-83780420D01*
X137146598Y-83841611D01*
X137051290Y-83936919D01*
X136990099Y-84057013D01*
X136988549Y-84066802D01*
X136988548Y-84066804D01*
X136970565Y-84180346D01*
X136969014Y-84190139D01*
X136211324Y-84190139D01*
X136272219Y-84070626D01*
X136291686Y-83947719D01*
X136291753Y-83947293D01*
X136293304Y-83937500D01*
X136272219Y-83804374D01*
X136211028Y-83684280D01*
X136115720Y-83588972D01*
X135995626Y-83527781D01*
X135985837Y-83526231D01*
X135985835Y-83526230D01*
X135872293Y-83508247D01*
X135862500Y-83506696D01*
X135852707Y-83508247D01*
X135739165Y-83526230D01*
X135739163Y-83526231D01*
X135729374Y-83527781D01*
X135609280Y-83588972D01*
X135513972Y-83684280D01*
X135452781Y-83804374D01*
X135431696Y-83937500D01*
X132749171Y-83937500D01*
X132743244Y-83877388D01*
X132731013Y-83837111D01*
X132688019Y-83695541D01*
X132686219Y-83689614D01*
X132621685Y-83569030D01*
X132596544Y-83522053D01*
X132596542Y-83522050D01*
X132593621Y-83516592D01*
X132469015Y-83364986D01*
X132317200Y-83240633D01*
X131862500Y-82937500D01*
X137982196Y-82937500D01*
X138003281Y-83070626D01*
X138064472Y-83190720D01*
X138159780Y-83286028D01*
X138279874Y-83347219D01*
X138289663Y-83348769D01*
X138289665Y-83348770D01*
X138403207Y-83366753D01*
X138413000Y-83368304D01*
X138422793Y-83366753D01*
X138536335Y-83348770D01*
X138536337Y-83348769D01*
X138546126Y-83347219D01*
X138666220Y-83286028D01*
X138761528Y-83190720D01*
X138822719Y-83070626D01*
X138843804Y-82937500D01*
X138822719Y-82804374D01*
X138761528Y-82684280D01*
X138666220Y-82588972D01*
X138546126Y-82527781D01*
X138536337Y-82526231D01*
X138536335Y-82526230D01*
X138422793Y-82508247D01*
X138413000Y-82506696D01*
X138403207Y-82508247D01*
X138289665Y-82526230D01*
X138289663Y-82526231D01*
X138279874Y-82527781D01*
X138159780Y-82588972D01*
X138064472Y-82684280D01*
X138003281Y-82804374D01*
X137982196Y-82937500D01*
X131862500Y-82937500D01*
X131683682Y-82818288D01*
X131673732Y-82810924D01*
X131546304Y-82706547D01*
X131528805Y-82689078D01*
X131428164Y-82566630D01*
X131414414Y-82546079D01*
X131339628Y-82406340D01*
X131330156Y-82383499D01*
X131284100Y-82231842D01*
X131279271Y-82207592D01*
X131263108Y-82043665D01*
X131262500Y-82031302D01*
X131262500Y-81897240D01*
X131263107Y-81884889D01*
X131265451Y-81861096D01*
X131267125Y-81844093D01*
X131277685Y-81736882D01*
X131282503Y-81712658D01*
X131323872Y-81576283D01*
X131333322Y-81553470D01*
X131400503Y-81427784D01*
X131414219Y-81407257D01*
X131459869Y-81351631D01*
X131504573Y-81297160D01*
X131522171Y-81279586D01*
X131632043Y-81189667D01*
X131652905Y-81175810D01*
X131778316Y-81109437D01*
X131801504Y-81099981D01*
X131937562Y-81059721D01*
X131962160Y-81055037D01*
X132038583Y-81048247D01*
X132109789Y-81041922D01*
X132122316Y-81041436D01*
X133948435Y-81061409D01*
X133948439Y-81061409D01*
X133951563Y-81061443D01*
X133951564Y-81061443D01*
X134148195Y-81044110D01*
X134337592Y-80988490D01*
X134512374Y-80896751D01*
X134524406Y-80887000D01*
X136081198Y-80887000D01*
X136082749Y-80896793D01*
X136100137Y-81006574D01*
X136102283Y-81020126D01*
X136163474Y-81140220D01*
X136258782Y-81235528D01*
X136378876Y-81296719D01*
X136388665Y-81298269D01*
X136388667Y-81298270D01*
X136502209Y-81316253D01*
X136512002Y-81317804D01*
X136521795Y-81316253D01*
X136635337Y-81298270D01*
X136635339Y-81298269D01*
X136645128Y-81296719D01*
X136765222Y-81235528D01*
X136860530Y-81140220D01*
X136865029Y-81131390D01*
X136865032Y-81131386D01*
X136878414Y-81105121D01*
X136927161Y-81053505D01*
X136996076Y-81036439D01*
X137063278Y-81059339D01*
X137102948Y-81105120D01*
X137118916Y-81136459D01*
X137214224Y-81231767D01*
X137334318Y-81292958D01*
X137344107Y-81294508D01*
X137344109Y-81294509D01*
X137457651Y-81312492D01*
X137467444Y-81314043D01*
X137477237Y-81312492D01*
X137590779Y-81294509D01*
X137590781Y-81294508D01*
X137600570Y-81292958D01*
X137720664Y-81231767D01*
X137815972Y-81136459D01*
X137877163Y-81016365D01*
X137898248Y-80883239D01*
X137886212Y-80807248D01*
X137878714Y-80759904D01*
X137878713Y-80759902D01*
X137877163Y-80750113D01*
X137815972Y-80630019D01*
X137720664Y-80534711D01*
X137600570Y-80473520D01*
X137590781Y-80471970D01*
X137590779Y-80471969D01*
X137477237Y-80453986D01*
X137467444Y-80452435D01*
X137457651Y-80453986D01*
X137344109Y-80471969D01*
X137344107Y-80471970D01*
X137334318Y-80473520D01*
X137214224Y-80534711D01*
X137118916Y-80630019D01*
X137114417Y-80638849D01*
X137114414Y-80638853D01*
X137101032Y-80665118D01*
X137052285Y-80716734D01*
X136983370Y-80733800D01*
X136916168Y-80710900D01*
X136876498Y-80665119D01*
X136860530Y-80633780D01*
X136765222Y-80538472D01*
X136645128Y-80477281D01*
X136635339Y-80475731D01*
X136635337Y-80475730D01*
X136521795Y-80457747D01*
X136512002Y-80456196D01*
X136502209Y-80457747D01*
X136388667Y-80475730D01*
X136388665Y-80475731D01*
X136378876Y-80477281D01*
X136258782Y-80538472D01*
X136163474Y-80633780D01*
X136102283Y-80753874D01*
X136081198Y-80887000D01*
X134524406Y-80887000D01*
X134536490Y-80877207D01*
X134660888Y-80776389D01*
X134665729Y-80772466D01*
X134791684Y-80620478D01*
X134885330Y-80446711D01*
X134943018Y-80257934D01*
X134962500Y-80061503D01*
X134962500Y-79437500D01*
X135731696Y-79437500D01*
X135752781Y-79570626D01*
X135813972Y-79690720D01*
X135909280Y-79786028D01*
X136029374Y-79847219D01*
X136039163Y-79848769D01*
X136039165Y-79848770D01*
X136152707Y-79866753D01*
X136162500Y-79868304D01*
X136172293Y-79866753D01*
X136285835Y-79848770D01*
X136285837Y-79848769D01*
X136295626Y-79847219D01*
X136415720Y-79786028D01*
X136511028Y-79690720D01*
X136572219Y-79570626D01*
X136593304Y-79437500D01*
X136572219Y-79304374D01*
X136511028Y-79184280D01*
X136415720Y-79088972D01*
X136295626Y-79027781D01*
X136285837Y-79026231D01*
X136285835Y-79026230D01*
X136172293Y-79008247D01*
X136162500Y-79006696D01*
X136152707Y-79008247D01*
X136039165Y-79026230D01*
X136039163Y-79026231D01*
X136029374Y-79027781D01*
X135909280Y-79088972D01*
X135813972Y-79184280D01*
X135752781Y-79304374D01*
X135731696Y-79437500D01*
X134962500Y-79437500D01*
X134962500Y-78717016D01*
X134982502Y-78648895D01*
X135025990Y-78609552D01*
X135025801Y-78609292D01*
X135028215Y-78607538D01*
X135031299Y-78604748D01*
X135033829Y-78603459D01*
X135033828Y-78603459D01*
X135042661Y-78598959D01*
X135137969Y-78503651D01*
X135199160Y-78383557D01*
X135203047Y-78359019D01*
X135218694Y-78260224D01*
X135220245Y-78250431D01*
X135199160Y-78117305D01*
X135137969Y-77997211D01*
X135042661Y-77901903D01*
X135031298Y-77896113D01*
X135028778Y-77893733D01*
X135025801Y-77891570D01*
X135026080Y-77891185D01*
X134979683Y-77847367D01*
X134962500Y-77783846D01*
X134962500Y-77630081D01*
X134982502Y-77561960D01*
X135031298Y-77517814D01*
X135091311Y-77487236D01*
X135091313Y-77487235D01*
X135100146Y-77482734D01*
X135195454Y-77387426D01*
X135256645Y-77267332D01*
X135268018Y-77195529D01*
X135276179Y-77143999D01*
X135277730Y-77134206D01*
X135256645Y-77001080D01*
X135195454Y-76880986D01*
X135100146Y-76785678D01*
X135092907Y-76781989D01*
X135050162Y-76726554D01*
X135044088Y-76655817D01*
X135056455Y-76621451D01*
X135125183Y-76492869D01*
X135138899Y-76472342D01*
X135247521Y-76339985D01*
X135264983Y-76322523D01*
X135333124Y-76266601D01*
X135398472Y-76238847D01*
X135413058Y-76238000D01*
X136698671Y-76238000D01*
X136766792Y-76258002D01*
G37*
G04 #@! TD.AperFunction*
M02*
