G04 #@! TF.GenerationSoftware,KiCad,Pcbnew,6.0.10+dfsg-1~bpo11+1*
G04 #@! TF.ProjectId,project,70726f6a-6563-4742-9e6b-696361645f70,rev?*
G04 #@! TF.SameCoordinates,Original*
G04 #@! TF.FileFunction,Copper,L4,Inr*
G04 #@! TF.FilePolarity,Positive*
%FSLAX46Y46*%
G04 Gerber Fmt 4.6, Leading zero omitted, Abs format (unit mm)*
%MOMM*%
%LPD*%
G01*
G04 APERTURE LIST*
G04 #@! TA.AperFunction,Profile*
%ADD10C,0.100000*%
G04 #@! TD*
G04 #@! TA.AperFunction,ComponentPad*
%ADD11C,1.800000*%
G04 #@! TD*
G04 #@! TA.AperFunction,ComponentPad*
%ADD12R,1.700000X1.700000*%
G04 #@! TD*
G04 #@! TA.AperFunction,ComponentPad*
%ADD13O,1.700000X1.700000*%
G04 #@! TD*
G04 #@! TA.AperFunction,ComponentPad*
%ADD14O,2.750000X1.450000*%
G04 #@! TD*
G04 #@! TA.AperFunction,ComponentPad*
%ADD15O,2.100000X1.000000*%
G04 #@! TD*
G04 #@! TA.AperFunction,ComponentPad*
%ADD16O,1.600000X1.000000*%
G04 #@! TD*
G04 #@! TA.AperFunction,ViaPad*
%ADD17C,0.450000*%
G04 #@! TD*
G04 #@! TA.AperFunction,Conductor*
%ADD18C,0.200000*%
G04 #@! TD*
G04 APERTURE END LIST*
D10*
X120262500Y-76037500D02*
X120262500Y-75037500D01*
X184262500Y-76037500D02*
X184262500Y-90037500D01*
X184262500Y-90037500D02*
X130262500Y-90037500D01*
X130262500Y-75037500D02*
X130262500Y-76037500D01*
X130262500Y-76037500D02*
X184262500Y-76037500D01*
X120262500Y-75037500D02*
X130262500Y-75037500D01*
X118262500Y-90037500D02*
X120262500Y-90037500D01*
X120262500Y-76037500D02*
X118262500Y-76037500D01*
X120262500Y-91037500D02*
X130262500Y-91037500D01*
X118262500Y-90037500D02*
X118262500Y-76037500D01*
X130262500Y-91037500D02*
X130262500Y-90037500D01*
X120262500Y-90037500D02*
X120262500Y-91037500D01*
D11*
X137437500Y-88727500D03*
X139977500Y-88727500D03*
X153547500Y-88727500D03*
X156087500Y-88727500D03*
X156087500Y-77347500D03*
X153547500Y-77347500D03*
X139977500Y-77347500D03*
X137437500Y-77347500D03*
D12*
X179987500Y-77962500D03*
D13*
X182527500Y-77962500D03*
X179987500Y-80502500D03*
X182527500Y-80502500D03*
X179987500Y-83042500D03*
X182527500Y-83042500D03*
X179987500Y-85582500D03*
X182527500Y-85582500D03*
X179987500Y-88122500D03*
X182527500Y-88122500D03*
D14*
X122462500Y-75987500D03*
X122462500Y-90087500D03*
X128362500Y-90087500D03*
X128362500Y-75987500D03*
D15*
X124667500Y-80217500D03*
D16*
X120487500Y-88857500D03*
D15*
X124667500Y-88857500D03*
D16*
X120487500Y-80217500D03*
G04 #@! TA.AperFunction,ComponentPad*
G36*
X131362500Y-79987500D02*
G01*
X131486107Y-80007077D01*
X131597614Y-80063893D01*
X131686107Y-80152386D01*
X131742923Y-80263893D01*
X131762500Y-80387500D01*
X131742923Y-80511107D01*
X131686107Y-80622614D01*
X131597614Y-80711107D01*
X131486107Y-80767923D01*
X131362500Y-80787500D01*
X130962500Y-80787500D01*
X130962500Y-79987500D01*
X131362500Y-79987500D01*
G37*
G04 #@! TD.AperFunction*
G04 #@! TA.AperFunction,ComponentPad*
G36*
X131362500Y-76287500D02*
G01*
X131486107Y-76307077D01*
X131597614Y-76363893D01*
X131686107Y-76452386D01*
X131742923Y-76563893D01*
X131762500Y-76687500D01*
X131742923Y-76811107D01*
X131686107Y-76922614D01*
X131597614Y-77011107D01*
X131486107Y-77067923D01*
X131362500Y-77087500D01*
X130962500Y-77087500D01*
X130962500Y-76287500D01*
X131362500Y-76287500D01*
G37*
G04 #@! TD.AperFunction*
D17*
X146100000Y-84400000D03*
X161667000Y-84437500D03*
X131962500Y-77337500D03*
X164600000Y-82600000D03*
X128562500Y-84237500D03*
X170062500Y-81937500D03*
X162673034Y-85429238D03*
X171600000Y-79200000D03*
X143262500Y-82037500D03*
X176200000Y-85700000D03*
X128762500Y-79537500D03*
X159858814Y-76714438D03*
X167410176Y-78594163D03*
X170962500Y-83837500D03*
X147262500Y-81037500D03*
X134866146Y-88901301D03*
X164600000Y-79500000D03*
X168679500Y-83387531D03*
X163162500Y-89137500D03*
X161400000Y-79500000D03*
X149062500Y-80437500D03*
X159700000Y-84100000D03*
X173400000Y-88600000D03*
X159117306Y-87282694D03*
X155880704Y-83083050D03*
X155062500Y-85137500D03*
X131058000Y-86037500D03*
X158561083Y-86038001D03*
X168300000Y-79700000D03*
X169538214Y-86194804D03*
X128471329Y-86023308D03*
X134846926Y-77134206D03*
X165162500Y-89137500D03*
X159362500Y-80537500D03*
X164162500Y-89137500D03*
X169100000Y-84800000D03*
X170462500Y-83937500D03*
X175562500Y-80937500D03*
X165462310Y-85144703D03*
X162162500Y-89137500D03*
X155953333Y-80325761D03*
X173162500Y-79137500D03*
X152062500Y-84013000D03*
X161213000Y-85426577D03*
X173212500Y-86787500D03*
X128662500Y-82237500D03*
X149062500Y-84037500D03*
X131262500Y-83037500D03*
X170772534Y-78907735D03*
X170800000Y-76500000D03*
X149562500Y-86737500D03*
X149062500Y-81737500D03*
X161162500Y-89137500D03*
X161400000Y-82600000D03*
X170100000Y-80100000D03*
X160162500Y-89137500D03*
X155880704Y-83538000D03*
X144262500Y-85937500D03*
X147262500Y-87137500D03*
X168395000Y-86105000D03*
X173075000Y-82137500D03*
X148868750Y-85143750D03*
X163762500Y-84737500D03*
X167779500Y-84033000D03*
X159785332Y-85165295D03*
X168503873Y-85057850D03*
X171963719Y-82849753D03*
X160200000Y-83100000D03*
X166224500Y-78329122D03*
X160400000Y-84200000D03*
X148212500Y-89037500D03*
X150262500Y-89037500D03*
X144262500Y-89037500D03*
X176109620Y-88509619D03*
X170925000Y-87075000D03*
X174032500Y-86567500D03*
X171700000Y-78266778D03*
X149562500Y-89037500D03*
X146312500Y-89037500D03*
X173898222Y-81236406D03*
X173962500Y-83837500D03*
X136512002Y-80887000D03*
X137467444Y-80883239D03*
X135572230Y-86342000D03*
X137399818Y-84190139D03*
X138413000Y-82937500D03*
X144162500Y-80537500D03*
X144162500Y-81037500D03*
X131675718Y-82021450D03*
X139762500Y-85862000D03*
X150460408Y-85716158D03*
X157263423Y-82901796D03*
X157157568Y-84743903D03*
X158008544Y-86982954D03*
X155062500Y-85837500D03*
X157205000Y-80987500D03*
X166462500Y-87737500D03*
X160130000Y-87970000D03*
X163702301Y-87591580D03*
X166662500Y-86138000D03*
X161130000Y-87970000D03*
X150362500Y-79862500D03*
X136162500Y-79437500D03*
X135862500Y-83937500D03*
X157320503Y-79954562D03*
X156200689Y-85699311D03*
X165000000Y-83349993D03*
X164413220Y-84514518D03*
X163139103Y-84398411D03*
X161962500Y-76837500D03*
X162960812Y-76942525D03*
X153662500Y-82137000D03*
X153862500Y-80437500D03*
X155306734Y-80203000D03*
X154462500Y-84837500D03*
X175400000Y-79900000D03*
X175317599Y-77237147D03*
X171125592Y-81065354D03*
X171900000Y-77600000D03*
X175500000Y-88200000D03*
X175500000Y-86000000D03*
X134789441Y-78250431D03*
X167652169Y-85095500D03*
X135862500Y-88537500D03*
X165455500Y-84437500D03*
D18*
X133562500Y-87737500D02*
X135996814Y-87737500D01*
X160867000Y-83637500D02*
X159979963Y-83637500D01*
X135996814Y-87737500D02*
X136696815Y-87037500D01*
X136696815Y-87037500D02*
X141362500Y-87037500D01*
X159979963Y-83637500D02*
X159879963Y-83537500D01*
X157077617Y-83537500D02*
X156098167Y-82558050D01*
X141362500Y-87037500D02*
X144000000Y-84400000D01*
X154741950Y-82558050D02*
X154262500Y-83037500D01*
X131862500Y-78337500D02*
X130962500Y-79237500D01*
X144000000Y-84400000D02*
X146100000Y-84400000D01*
X131962500Y-77836316D02*
X131862500Y-77936316D01*
X147462500Y-83037500D02*
X146100000Y-84400000D01*
X130447647Y-79237500D02*
X129762500Y-79922648D01*
X161667000Y-84437500D02*
X160867000Y-83637500D01*
X154262500Y-83037500D02*
X147462500Y-83037500D01*
X131962500Y-77337500D02*
X131962500Y-77836316D01*
X131862500Y-77936316D02*
X131862500Y-78337500D01*
X129762500Y-83937500D02*
X133562500Y-87737500D01*
X156098167Y-82558050D02*
X154741950Y-82558050D01*
X130962500Y-79237500D02*
X130447647Y-79237500D01*
X129762500Y-79922648D02*
X129762500Y-83937500D01*
X159879963Y-83537500D02*
X157077617Y-83537500D01*
X130613333Y-79637500D02*
X131128186Y-79637500D01*
X164354463Y-81612000D02*
X153445037Y-81612000D01*
X167652169Y-84909706D02*
X164354463Y-81612000D01*
X130162500Y-83771814D02*
X130162500Y-80088333D01*
X131128186Y-79637500D02*
X132515255Y-78250431D01*
X153445037Y-81612000D02*
X152420037Y-82637000D01*
X135913971Y-87254657D02*
X133645343Y-87254657D01*
X132515255Y-78250431D02*
X134789441Y-78250431D01*
X167652169Y-85095500D02*
X167652169Y-84909706D01*
X152420037Y-82637000D02*
X140531628Y-82637000D01*
X130162500Y-80088333D02*
X130613333Y-79637500D01*
X133645343Y-87254657D02*
X130162500Y-83771814D01*
X140531628Y-82637000D02*
X135913971Y-87254657D01*
X136962500Y-87437500D02*
X135862500Y-88537500D01*
X157092463Y-85467463D02*
X156062500Y-84437500D01*
X144428186Y-87437500D02*
X136962500Y-87437500D01*
X154722426Y-84154963D02*
X152745037Y-84154963D01*
X165427050Y-84437500D02*
X163825345Y-86039205D01*
X151762500Y-84537500D02*
X150662500Y-83437500D01*
X163825345Y-86039205D02*
X159796742Y-86039205D01*
X165455500Y-84437500D02*
X165427050Y-84437500D01*
X148428186Y-83437500D02*
X144428186Y-87437500D01*
X156062500Y-84437500D02*
X155004963Y-84437500D01*
X155004963Y-84437500D02*
X154722426Y-84154963D01*
X152362500Y-84537500D02*
X151762500Y-84537500D01*
X159796742Y-86039205D02*
X159225000Y-85467463D01*
X159225000Y-85467463D02*
X157092463Y-85467463D01*
X152745037Y-84154963D02*
X152362500Y-84537500D01*
X150662500Y-83437500D02*
X148428186Y-83437500D01*
G04 #@! TA.AperFunction,Conductor*
G36*
X120864295Y-76157502D02*
G01*
X120910788Y-76211158D01*
X120919420Y-76237303D01*
X120926073Y-76268601D01*
X120926075Y-76268608D01*
X120927449Y-76275071D01*
X120930135Y-76281104D01*
X120930136Y-76281107D01*
X121003779Y-76446512D01*
X121006578Y-76452799D01*
X121010458Y-76458140D01*
X121010459Y-76458141D01*
X121029590Y-76484472D01*
X121120931Y-76610192D01*
X121125833Y-76614605D01*
X121125834Y-76614607D01*
X121225530Y-76704374D01*
X121265508Y-76740370D01*
X121271229Y-76743673D01*
X121416781Y-76827707D01*
X121433992Y-76837644D01*
X121490533Y-76856015D01*
X121577029Y-76884119D01*
X121619018Y-76897762D01*
X121625581Y-76898452D01*
X121625582Y-76898452D01*
X121649211Y-76900935D01*
X121763996Y-76913000D01*
X123161004Y-76913000D01*
X123275789Y-76900935D01*
X123299418Y-76898452D01*
X123299419Y-76898452D01*
X123305982Y-76897762D01*
X123347972Y-76884119D01*
X123434467Y-76856015D01*
X123491008Y-76837644D01*
X123508220Y-76827707D01*
X123653771Y-76743673D01*
X123659492Y-76740370D01*
X123699470Y-76704374D01*
X123799166Y-76614607D01*
X123799167Y-76614605D01*
X123804069Y-76610192D01*
X123895410Y-76484472D01*
X123914541Y-76458141D01*
X123914542Y-76458140D01*
X123918422Y-76452799D01*
X123921222Y-76446512D01*
X123994864Y-76281107D01*
X123994865Y-76281104D01*
X123997551Y-76275071D01*
X123998925Y-76268608D01*
X123998927Y-76268601D01*
X124005580Y-76237303D01*
X124039308Y-76174829D01*
X124101458Y-76140508D01*
X124128826Y-76137500D01*
X126696174Y-76137500D01*
X126764295Y-76157502D01*
X126810788Y-76211158D01*
X126819420Y-76237303D01*
X126826073Y-76268601D01*
X126826075Y-76268608D01*
X126827449Y-76275071D01*
X126830135Y-76281104D01*
X126830136Y-76281107D01*
X126903779Y-76446512D01*
X126906578Y-76452799D01*
X126910458Y-76458140D01*
X126910459Y-76458141D01*
X126929590Y-76484472D01*
X127020931Y-76610192D01*
X127025833Y-76614605D01*
X127025834Y-76614607D01*
X127125530Y-76704374D01*
X127165508Y-76740370D01*
X127171229Y-76743673D01*
X127316781Y-76827707D01*
X127333992Y-76837644D01*
X127390533Y-76856015D01*
X127477029Y-76884119D01*
X127519018Y-76897762D01*
X127525581Y-76898452D01*
X127525582Y-76898452D01*
X127549211Y-76900935D01*
X127663996Y-76913000D01*
X129061004Y-76913000D01*
X129175789Y-76900935D01*
X129199418Y-76898452D01*
X129199419Y-76898452D01*
X129205982Y-76897762D01*
X129234122Y-76888619D01*
X129352422Y-76850182D01*
X129423389Y-76848155D01*
X129484187Y-76884817D01*
X129515512Y-76948530D01*
X129507418Y-77019064D01*
X129486523Y-77052594D01*
X129456941Y-77086684D01*
X129366421Y-77190998D01*
X129366417Y-77191003D01*
X129362490Y-77195529D01*
X129257334Y-77377299D01*
X129255366Y-77382967D01*
X129191755Y-77566149D01*
X129188447Y-77575674D01*
X129187586Y-77581609D01*
X129187586Y-77581611D01*
X129162088Y-77757470D01*
X129158314Y-77783496D01*
X129168023Y-77993267D01*
X129169427Y-77999092D01*
X129169427Y-77999093D01*
X129214753Y-78187163D01*
X129217224Y-78197418D01*
X129219706Y-78202876D01*
X129219707Y-78202880D01*
X129248760Y-78266778D01*
X129304140Y-78388581D01*
X129425637Y-78559860D01*
X129577331Y-78705075D01*
X129582366Y-78708326D01*
X129748709Y-78815733D01*
X129748712Y-78815734D01*
X129753746Y-78818985D01*
X129759309Y-78821227D01*
X129942955Y-78895239D01*
X129942958Y-78895240D01*
X129948519Y-78897481D01*
X129954400Y-78898629D01*
X129954405Y-78898631D01*
X130062693Y-78919778D01*
X130125717Y-78952466D01*
X130161064Y-79014038D01*
X130157511Y-79084946D01*
X130127639Y-79132537D01*
X129587045Y-79673132D01*
X129585015Y-79674885D01*
X129580231Y-79677223D01*
X129572319Y-79685752D01*
X129572318Y-79685753D01*
X129546927Y-79713125D01*
X129543647Y-79716530D01*
X129530252Y-79729925D01*
X129527528Y-79733895D01*
X129525203Y-79736543D01*
X129504099Y-79759294D01*
X129499787Y-79770101D01*
X129497268Y-79774086D01*
X129491496Y-79784895D01*
X129489589Y-79789200D01*
X129483007Y-79798794D01*
X129479730Y-79812603D01*
X129477314Y-79822784D01*
X129471749Y-79840380D01*
X129462617Y-79863270D01*
X129462000Y-79869563D01*
X129462000Y-79872645D01*
X129461850Y-79875715D01*
X129461634Y-79875704D01*
X129460302Y-79887079D01*
X129459847Y-79896393D01*
X129457160Y-79907714D01*
X129458729Y-79919243D01*
X129458729Y-79919244D01*
X129460849Y-79934821D01*
X129462000Y-79951812D01*
X129462000Y-83885134D01*
X129461804Y-83887807D01*
X129460075Y-83892842D01*
X129460511Y-83904464D01*
X129460511Y-83904466D01*
X129461911Y-83941755D01*
X129462000Y-83946481D01*
X129462000Y-83965448D01*
X129462882Y-83970183D01*
X129463110Y-83973709D01*
X129464274Y-84004708D01*
X129468864Y-84015393D01*
X129469901Y-84019993D01*
X129473462Y-84031714D01*
X129475161Y-84036117D01*
X129477291Y-84047553D01*
X129489201Y-84066874D01*
X129490227Y-84068539D01*
X129498731Y-84084911D01*
X129504951Y-84099388D01*
X129504953Y-84099392D01*
X129508464Y-84107563D01*
X129512478Y-84112449D01*
X129514663Y-84114634D01*
X129516715Y-84116897D01*
X129516555Y-84117042D01*
X129523675Y-84126049D01*
X129529927Y-84132944D01*
X129536032Y-84142848D01*
X129557820Y-84159416D01*
X129570639Y-84170610D01*
X133312981Y-87912952D01*
X133314737Y-87914986D01*
X133317075Y-87919769D01*
X133325604Y-87927681D01*
X133325605Y-87927682D01*
X133352977Y-87953073D01*
X133356382Y-87956353D01*
X133369777Y-87969748D01*
X133373747Y-87972472D01*
X133376395Y-87974797D01*
X133381781Y-87979793D01*
X133399146Y-87995901D01*
X133409953Y-88000213D01*
X133413938Y-88002732D01*
X133424747Y-88008504D01*
X133429052Y-88010411D01*
X133438646Y-88016993D01*
X133462599Y-88022677D01*
X133462636Y-88022686D01*
X133480232Y-88028251D01*
X133503122Y-88037383D01*
X133509415Y-88038000D01*
X133512497Y-88038000D01*
X133515567Y-88038150D01*
X133515556Y-88038366D01*
X133526931Y-88039698D01*
X133536245Y-88040153D01*
X133547566Y-88042840D01*
X133559095Y-88041271D01*
X133559096Y-88041271D01*
X133574673Y-88039151D01*
X133591664Y-88038000D01*
X135456062Y-88038000D01*
X135524183Y-88058002D01*
X135570676Y-88111658D01*
X135580780Y-88181932D01*
X135551286Y-88246512D01*
X135545157Y-88253095D01*
X135513972Y-88284280D01*
X135452781Y-88404374D01*
X135451231Y-88414163D01*
X135451230Y-88414165D01*
X135435012Y-88516566D01*
X135431696Y-88537500D01*
X135433247Y-88547293D01*
X135442656Y-88606696D01*
X135452781Y-88670626D01*
X135513972Y-88790720D01*
X135609280Y-88886028D01*
X135729374Y-88947219D01*
X135739163Y-88948769D01*
X135739165Y-88948770D01*
X135852707Y-88966753D01*
X135862500Y-88968304D01*
X135872293Y-88966753D01*
X135985835Y-88948770D01*
X135985837Y-88948769D01*
X135995626Y-88947219D01*
X136115720Y-88886028D01*
X136139689Y-88862059D01*
X136202001Y-88828033D01*
X136272816Y-88833098D01*
X136329652Y-88875645D01*
X136350906Y-88920137D01*
X136362047Y-88964003D01*
X136390828Y-89077329D01*
X136395678Y-89096428D01*
X136480356Y-89280107D01*
X136492635Y-89297481D01*
X136546718Y-89374007D01*
X136597088Y-89445280D01*
X136741966Y-89586413D01*
X136746771Y-89589624D01*
X136746774Y-89589626D01*
X136771631Y-89606235D01*
X136817159Y-89660711D01*
X136826008Y-89731154D01*
X136795367Y-89795199D01*
X136734965Y-89832510D01*
X136701630Y-89837000D01*
X130268392Y-89837000D01*
X130231126Y-89836967D01*
X130231124Y-89836967D01*
X130216937Y-89836955D01*
X130204146Y-89843097D01*
X130199233Y-89844213D01*
X130191683Y-89846850D01*
X130187149Y-89849032D01*
X130173315Y-89852188D01*
X130162220Y-89861029D01*
X130157346Y-89863375D01*
X130151494Y-89867046D01*
X130147262Y-89870412D01*
X130134476Y-89876552D01*
X130125617Y-89887630D01*
X130121674Y-89890766D01*
X130108900Y-89903518D01*
X130106385Y-89905522D01*
X130040645Y-89932330D01*
X129970846Y-89919340D01*
X129919151Y-89870677D01*
X129904618Y-89833177D01*
X129904399Y-89832144D01*
X129897551Y-89799929D01*
X129876425Y-89752479D01*
X129821108Y-89628233D01*
X129821106Y-89628230D01*
X129818422Y-89622201D01*
X129792421Y-89586413D01*
X129707948Y-89470147D01*
X129704069Y-89464808D01*
X129699166Y-89460393D01*
X129694743Y-89455481D01*
X129695675Y-89454642D01*
X129662042Y-89400053D01*
X129663393Y-89329069D01*
X129702906Y-89270084D01*
X129768036Y-89241825D01*
X129830690Y-89249995D01*
X129942952Y-89295238D01*
X129942957Y-89295240D01*
X129948519Y-89297481D01*
X129954400Y-89298629D01*
X129954405Y-89298631D01*
X130150176Y-89336862D01*
X130150179Y-89336862D01*
X130154622Y-89337730D01*
X130160143Y-89338000D01*
X130314969Y-89338000D01*
X130471546Y-89323061D01*
X130477302Y-89321372D01*
X130477304Y-89321372D01*
X130591635Y-89287831D01*
X130673049Y-89263947D01*
X130785583Y-89205988D01*
X130854408Y-89170541D01*
X130854411Y-89170539D01*
X130859739Y-89167795D01*
X130937587Y-89106645D01*
X131020162Y-89041782D01*
X131020167Y-89041778D01*
X131024879Y-89038076D01*
X131049269Y-89009969D01*
X131158579Y-88884002D01*
X131158583Y-88883997D01*
X131162510Y-88879471D01*
X131267666Y-88697701D01*
X131308295Y-88580702D01*
X131334586Y-88504991D01*
X131334586Y-88504989D01*
X131336553Y-88499326D01*
X131348901Y-88414165D01*
X131365825Y-88297444D01*
X131365825Y-88297441D01*
X131366686Y-88291504D01*
X131356977Y-88081733D01*
X131307776Y-87877582D01*
X131304614Y-87870626D01*
X131245498Y-87740607D01*
X131220860Y-87686419D01*
X131115426Y-87537785D01*
X131102829Y-87520026D01*
X131102828Y-87520025D01*
X131099363Y-87515140D01*
X130947669Y-87369925D01*
X130893938Y-87335231D01*
X130776291Y-87259267D01*
X130776288Y-87259266D01*
X130771254Y-87256015D01*
X130739089Y-87243052D01*
X130582045Y-87179761D01*
X130582042Y-87179760D01*
X130576481Y-87177519D01*
X130570600Y-87176371D01*
X130570595Y-87176369D01*
X130374824Y-87138138D01*
X130374821Y-87138138D01*
X130370378Y-87137270D01*
X130364857Y-87137000D01*
X130210031Y-87137000D01*
X130053454Y-87151939D01*
X130047698Y-87153628D01*
X130047696Y-87153628D01*
X130023331Y-87160776D01*
X129851951Y-87211053D01*
X129769005Y-87253773D01*
X129670592Y-87304459D01*
X129670589Y-87304461D01*
X129665261Y-87307205D01*
X129629582Y-87335231D01*
X129504838Y-87433218D01*
X129504833Y-87433222D01*
X129500121Y-87436924D01*
X129496190Y-87441454D01*
X129496189Y-87441455D01*
X129366421Y-87590998D01*
X129366417Y-87591003D01*
X129362490Y-87595529D01*
X129257334Y-87777299D01*
X129251263Y-87794782D01*
X129194330Y-87958734D01*
X129188447Y-87975674D01*
X129187586Y-87981609D01*
X129187586Y-87981611D01*
X129160517Y-88168304D01*
X129158314Y-88183496D01*
X129168023Y-88393267D01*
X129169427Y-88399092D01*
X129169427Y-88399093D01*
X129206241Y-88551844D01*
X129217224Y-88597418D01*
X129219706Y-88602876D01*
X129219707Y-88602880D01*
X129262345Y-88696657D01*
X129304140Y-88788581D01*
X129425637Y-88959860D01*
X129429960Y-88963998D01*
X129429964Y-88964003D01*
X129484044Y-89015773D01*
X129519420Y-89077329D01*
X129515901Y-89148238D01*
X129474604Y-89205988D01*
X129408641Y-89232244D01*
X129357978Y-89226624D01*
X129205982Y-89177238D01*
X129199419Y-89176548D01*
X129199418Y-89176548D01*
X129175789Y-89174065D01*
X129061004Y-89162000D01*
X127663996Y-89162000D01*
X127549211Y-89174065D01*
X127525582Y-89176548D01*
X127525581Y-89176548D01*
X127519018Y-89177238D01*
X127333992Y-89237356D01*
X127328270Y-89240659D01*
X127328269Y-89240660D01*
X127233737Y-89295238D01*
X127165508Y-89334630D01*
X127160601Y-89339048D01*
X127160600Y-89339049D01*
X127031290Y-89455481D01*
X127020931Y-89464808D01*
X127017052Y-89470147D01*
X126932580Y-89586413D01*
X126906578Y-89622201D01*
X126903894Y-89628230D01*
X126903892Y-89628233D01*
X126848575Y-89752479D01*
X126827449Y-89799929D01*
X126826076Y-89806389D01*
X126826073Y-89806399D01*
X126819420Y-89837697D01*
X126785692Y-89900171D01*
X126723542Y-89934492D01*
X126696174Y-89937500D01*
X124128826Y-89937500D01*
X124060705Y-89917498D01*
X124014212Y-89863842D01*
X124005580Y-89837697D01*
X123998927Y-89806399D01*
X123998924Y-89806389D01*
X123997551Y-89799929D01*
X123976425Y-89752479D01*
X123921108Y-89628233D01*
X123921106Y-89628230D01*
X123918422Y-89622201D01*
X123892421Y-89586413D01*
X123807948Y-89470147D01*
X123804069Y-89464808D01*
X123793711Y-89455481D01*
X123664400Y-89339049D01*
X123664399Y-89339048D01*
X123659492Y-89334630D01*
X123591263Y-89295238D01*
X123496731Y-89240660D01*
X123496730Y-89240659D01*
X123491008Y-89237356D01*
X123305982Y-89177238D01*
X123299419Y-89176548D01*
X123299418Y-89176548D01*
X123275789Y-89174065D01*
X123161004Y-89162000D01*
X121763996Y-89162000D01*
X121649211Y-89174065D01*
X121625582Y-89176548D01*
X121625581Y-89176548D01*
X121619018Y-89177238D01*
X121433992Y-89237356D01*
X121428270Y-89240659D01*
X121428269Y-89240660D01*
X121333737Y-89295238D01*
X121265508Y-89334630D01*
X121260601Y-89339048D01*
X121260600Y-89339049D01*
X121131290Y-89455481D01*
X121120931Y-89464808D01*
X121117052Y-89470147D01*
X121032580Y-89586413D01*
X121006578Y-89622201D01*
X121003894Y-89628230D01*
X121003892Y-89628233D01*
X120948575Y-89752479D01*
X120927449Y-89799929D01*
X120926076Y-89806389D01*
X120926073Y-89806399D01*
X120919420Y-89837697D01*
X120885692Y-89900171D01*
X120823542Y-89934492D01*
X120796174Y-89937500D01*
X120502483Y-89937500D01*
X120434362Y-89917498D01*
X120424304Y-89908410D01*
X120423450Y-89909477D01*
X120416331Y-89903784D01*
X120403584Y-89891015D01*
X120399648Y-89887873D01*
X120390805Y-89876776D01*
X120378023Y-89870611D01*
X120373796Y-89867237D01*
X120367953Y-89863558D01*
X120363090Y-89861207D01*
X120352008Y-89852344D01*
X120338180Y-89849164D01*
X120333649Y-89846974D01*
X120326103Y-89844324D01*
X120321193Y-89843200D01*
X120308413Y-89837035D01*
X120285345Y-89837015D01*
X120285347Y-89834990D01*
X120285281Y-89834974D01*
X120285281Y-89837000D01*
X120268392Y-89837000D01*
X120216937Y-89836955D01*
X120216941Y-89832150D01*
X120216843Y-89832144D01*
X120216843Y-89837000D01*
X118713058Y-89837000D01*
X118644937Y-89816998D01*
X118633124Y-89808399D01*
X118564986Y-89752479D01*
X118547521Y-89735014D01*
X118491601Y-89666876D01*
X118463847Y-89601529D01*
X118463000Y-89586942D01*
X118463000Y-87460807D01*
X123608106Y-87460807D01*
X123636564Y-87601944D01*
X123701929Y-87730230D01*
X123707742Y-87736552D01*
X123707743Y-87736553D01*
X123734981Y-87766174D01*
X123799384Y-87836212D01*
X123921750Y-87912082D01*
X124060012Y-87952251D01*
X124066827Y-87952751D01*
X124067904Y-87952831D01*
X124067917Y-87952831D01*
X124070212Y-87953000D01*
X124173570Y-87953000D01*
X124177815Y-87952418D01*
X124177822Y-87952418D01*
X124236731Y-87944348D01*
X124280146Y-87938401D01*
X124292403Y-87933097D01*
X124404402Y-87884631D01*
X124404405Y-87884629D01*
X124412283Y-87881220D01*
X124524175Y-87790612D01*
X124607579Y-87673251D01*
X124640508Y-87581787D01*
X124653442Y-87545863D01*
X124653442Y-87545861D01*
X124656350Y-87537785D01*
X124658699Y-87505804D01*
X124662824Y-87449621D01*
X124666894Y-87394193D01*
X124638436Y-87253056D01*
X124573071Y-87124770D01*
X124565925Y-87116998D01*
X124481430Y-87025111D01*
X124475616Y-87018788D01*
X124353250Y-86942918D01*
X124214988Y-86902749D01*
X124208173Y-86902249D01*
X124207096Y-86902169D01*
X124207083Y-86902169D01*
X124204788Y-86902000D01*
X124101430Y-86902000D01*
X124097185Y-86902582D01*
X124097178Y-86902582D01*
X124050204Y-86909017D01*
X123994854Y-86916599D01*
X123986970Y-86920011D01*
X123986969Y-86920011D01*
X123870598Y-86970369D01*
X123870595Y-86970371D01*
X123862717Y-86973780D01*
X123750825Y-87064388D01*
X123667421Y-87181749D01*
X123645303Y-87243185D01*
X123621879Y-87308247D01*
X123618650Y-87317215D01*
X123618022Y-87325773D01*
X123618021Y-87325776D01*
X123613711Y-87384472D01*
X123608106Y-87460807D01*
X118463000Y-87460807D01*
X118463000Y-81680807D01*
X123608106Y-81680807D01*
X123636564Y-81821944D01*
X123701929Y-81950230D01*
X123799384Y-82056212D01*
X123921750Y-82132082D01*
X124060012Y-82172251D01*
X124066827Y-82172751D01*
X124067904Y-82172831D01*
X124067917Y-82172831D01*
X124070212Y-82173000D01*
X124173570Y-82173000D01*
X124177815Y-82172418D01*
X124177822Y-82172418D01*
X124243586Y-82163409D01*
X124280146Y-82158401D01*
X124305815Y-82147293D01*
X124404402Y-82104631D01*
X124404405Y-82104629D01*
X124412283Y-82101220D01*
X124524175Y-82010612D01*
X124607579Y-81893251D01*
X124656350Y-81757785D01*
X124660102Y-81706696D01*
X124666265Y-81622756D01*
X124666894Y-81614193D01*
X124641176Y-81486645D01*
X124640134Y-81481477D01*
X124638436Y-81473056D01*
X124573071Y-81344770D01*
X124562152Y-81332895D01*
X124497205Y-81262266D01*
X124475616Y-81238788D01*
X124353250Y-81162918D01*
X124214988Y-81122749D01*
X124208173Y-81122249D01*
X124207096Y-81122169D01*
X124207083Y-81122169D01*
X124204788Y-81122000D01*
X124101430Y-81122000D01*
X124097185Y-81122582D01*
X124097178Y-81122582D01*
X124038269Y-81130652D01*
X123994854Y-81136599D01*
X123986970Y-81140011D01*
X123986969Y-81140011D01*
X123870598Y-81190369D01*
X123870595Y-81190371D01*
X123862717Y-81193780D01*
X123750825Y-81284388D01*
X123667421Y-81401749D01*
X123664512Y-81409830D01*
X123633432Y-81496158D01*
X123618650Y-81537215D01*
X123618022Y-81545773D01*
X123618021Y-81545776D01*
X123614613Y-81592197D01*
X123608106Y-81680807D01*
X118463000Y-81680807D01*
X118463000Y-78032045D01*
X119481106Y-78032045D01*
X119481842Y-78039047D01*
X119481842Y-78039049D01*
X119494448Y-78158978D01*
X119499316Y-78205297D01*
X119520246Y-78266778D01*
X119551647Y-78359019D01*
X119555456Y-78370209D01*
X119559146Y-78376207D01*
X119559147Y-78376209D01*
X119617513Y-78471081D01*
X119646738Y-78518586D01*
X119768624Y-78643052D01*
X119915056Y-78737421D01*
X119921679Y-78739832D01*
X119921682Y-78739833D01*
X120072134Y-78794593D01*
X120072139Y-78794594D01*
X120078757Y-78797003D01*
X120213301Y-78814000D01*
X120306300Y-78814000D01*
X120435621Y-78799494D01*
X120449695Y-78794593D01*
X120593490Y-78744519D01*
X120593492Y-78744518D01*
X120600137Y-78742204D01*
X120607792Y-78737421D01*
X120741899Y-78653621D01*
X120747873Y-78649888D01*
X120778166Y-78619806D01*
X120866488Y-78532099D01*
X120866491Y-78532095D01*
X120871485Y-78527136D01*
X120880720Y-78512585D01*
X120946623Y-78408737D01*
X120964829Y-78380049D01*
X120985833Y-78321062D01*
X121020905Y-78222571D01*
X121020906Y-78222566D01*
X121023267Y-78215936D01*
X121024478Y-78205787D01*
X121043060Y-78049948D01*
X121043894Y-78042955D01*
X121042747Y-78032045D01*
X121026420Y-77876703D01*
X121026420Y-77876701D01*
X121025684Y-77869703D01*
X120969544Y-77704791D01*
X120963491Y-77694951D01*
X120881954Y-77562415D01*
X120881953Y-77562414D01*
X120878262Y-77556414D01*
X120756376Y-77431948D01*
X120609944Y-77337579D01*
X120603321Y-77335168D01*
X120603318Y-77335167D01*
X120452866Y-77280407D01*
X120452861Y-77280406D01*
X120446243Y-77277997D01*
X120311699Y-77261000D01*
X120218700Y-77261000D01*
X120089379Y-77275506D01*
X120082731Y-77277821D01*
X119931510Y-77330481D01*
X119931508Y-77330482D01*
X119924863Y-77332796D01*
X119918893Y-77336527D01*
X119918892Y-77336527D01*
X119802886Y-77409016D01*
X119777127Y-77425112D01*
X119772129Y-77430075D01*
X119772128Y-77430076D01*
X119658512Y-77542901D01*
X119658509Y-77542905D01*
X119653515Y-77547864D01*
X119649741Y-77553810D01*
X119649740Y-77553812D01*
X119620564Y-77599786D01*
X119560171Y-77694951D01*
X119557806Y-77701593D01*
X119504095Y-77852429D01*
X119504094Y-77852434D01*
X119501733Y-77859064D01*
X119500900Y-77866052D01*
X119500899Y-77866055D01*
X119489817Y-77958994D01*
X119481106Y-78032045D01*
X118463000Y-78032045D01*
X118463000Y-76488058D01*
X118483002Y-76419937D01*
X118491601Y-76408124D01*
X118547521Y-76339986D01*
X118564986Y-76322521D01*
X118633124Y-76266601D01*
X118698471Y-76238847D01*
X118713058Y-76238000D01*
X120256608Y-76238000D01*
X120293874Y-76238033D01*
X120293876Y-76238033D01*
X120308063Y-76238045D01*
X120320854Y-76231903D01*
X120325767Y-76230787D01*
X120333317Y-76228150D01*
X120337851Y-76225968D01*
X120351685Y-76222812D01*
X120362780Y-76213971D01*
X120367654Y-76211625D01*
X120373506Y-76207954D01*
X120377738Y-76204588D01*
X120390524Y-76198448D01*
X120399384Y-76187369D01*
X120403324Y-76184235D01*
X120416097Y-76171484D01*
X120416444Y-76171208D01*
X120423224Y-76165805D01*
X120423225Y-76165804D01*
X120426073Y-76169378D01*
X120462103Y-76144125D01*
X120502422Y-76137500D01*
X120796174Y-76137500D01*
X120864295Y-76157502D01*
G37*
G04 #@! TD.AperFunction*
G04 #@! TA.AperFunction,Conductor*
G36*
X130071351Y-76149681D02*
G01*
X130106564Y-76169533D01*
X130108659Y-76171208D01*
X130121413Y-76183982D01*
X130125351Y-76187125D01*
X130134195Y-76198224D01*
X130146978Y-76204389D01*
X130151204Y-76207763D01*
X130157047Y-76211442D01*
X130161910Y-76213793D01*
X130172992Y-76222656D01*
X130186820Y-76225836D01*
X130191351Y-76228026D01*
X130198897Y-76230676D01*
X130203807Y-76231800D01*
X130216587Y-76237965D01*
X130239655Y-76237985D01*
X130239653Y-76240010D01*
X130239719Y-76240026D01*
X130239719Y-76238000D01*
X130256608Y-76238000D01*
X130308063Y-76238045D01*
X130308059Y-76242850D01*
X130308157Y-76242856D01*
X130308157Y-76238000D01*
X136698671Y-76238000D01*
X136766792Y-76258002D01*
X136813285Y-76311658D01*
X136823389Y-76381932D01*
X136793895Y-76446512D01*
X136781750Y-76458730D01*
X136635805Y-76586720D01*
X136510589Y-76745557D01*
X136416414Y-76924553D01*
X136356437Y-77117713D01*
X136332664Y-77318569D01*
X136345892Y-77520394D01*
X136365533Y-77597731D01*
X136394184Y-77710544D01*
X136395678Y-77716428D01*
X136480356Y-77900107D01*
X136483689Y-77904823D01*
X136582137Y-78044124D01*
X136597088Y-78065280D01*
X136741966Y-78206413D01*
X136910137Y-78318782D01*
X136915440Y-78321060D01*
X136915443Y-78321062D01*
X137083974Y-78393468D01*
X137095970Y-78398622D01*
X137293240Y-78443260D01*
X137299009Y-78443487D01*
X137299012Y-78443487D01*
X137375183Y-78446479D01*
X137495342Y-78451200D01*
X137581632Y-78438689D01*
X137689786Y-78423008D01*
X137689791Y-78423007D01*
X137695507Y-78422178D01*
X137700979Y-78420320D01*
X137700981Y-78420320D01*
X137881567Y-78359019D01*
X137881569Y-78359018D01*
X137887031Y-78357164D01*
X138030942Y-78276571D01*
X138058464Y-78261158D01*
X138058465Y-78261157D01*
X138063501Y-78258337D01*
X138125933Y-78206413D01*
X138214573Y-78132691D01*
X138219005Y-78129005D01*
X138327052Y-77999093D01*
X138344646Y-77977939D01*
X138348337Y-77973501D01*
X138352526Y-77966022D01*
X138389439Y-77900107D01*
X138447164Y-77797031D01*
X138455335Y-77772962D01*
X138510320Y-77610981D01*
X138510320Y-77610979D01*
X138512178Y-77605507D01*
X138513007Y-77599791D01*
X138513008Y-77599786D01*
X138532891Y-77462647D01*
X138541200Y-77405342D01*
X138542715Y-77347500D01*
X138524208Y-77146091D01*
X138515105Y-77113812D01*
X138474524Y-76969925D01*
X138469307Y-76951426D01*
X138379851Y-76770027D01*
X138372040Y-76759566D01*
X138262288Y-76612591D01*
X138262287Y-76612590D01*
X138258835Y-76607967D01*
X138251307Y-76601008D01*
X138114553Y-76474594D01*
X138114551Y-76474592D01*
X138110312Y-76470674D01*
X138105430Y-76467594D01*
X138100843Y-76464074D01*
X138102525Y-76461882D01*
X138063263Y-76417437D01*
X138052487Y-76347263D01*
X138081360Y-76282403D01*
X138140716Y-76243449D01*
X138177370Y-76238000D01*
X139238671Y-76238000D01*
X139306792Y-76258002D01*
X139353285Y-76311658D01*
X139363389Y-76381932D01*
X139333895Y-76446512D01*
X139321750Y-76458730D01*
X139175805Y-76586720D01*
X139050589Y-76745557D01*
X138956414Y-76924553D01*
X138896437Y-77117713D01*
X138872664Y-77318569D01*
X138885892Y-77520394D01*
X138905533Y-77597731D01*
X138934184Y-77710544D01*
X138935678Y-77716428D01*
X139020356Y-77900107D01*
X139023689Y-77904823D01*
X139122137Y-78044124D01*
X139137088Y-78065280D01*
X139281966Y-78206413D01*
X139450137Y-78318782D01*
X139455440Y-78321060D01*
X139455443Y-78321062D01*
X139623974Y-78393468D01*
X139635970Y-78398622D01*
X139833240Y-78443260D01*
X139839009Y-78443487D01*
X139839012Y-78443487D01*
X139915183Y-78446479D01*
X140035342Y-78451200D01*
X140121632Y-78438689D01*
X140229786Y-78423008D01*
X140229791Y-78423007D01*
X140235507Y-78422178D01*
X140240979Y-78420320D01*
X140240981Y-78420320D01*
X140421567Y-78359019D01*
X140421569Y-78359018D01*
X140427031Y-78357164D01*
X140570942Y-78276571D01*
X140598464Y-78261158D01*
X140598465Y-78261157D01*
X140603501Y-78258337D01*
X140665933Y-78206413D01*
X140754573Y-78132691D01*
X140759005Y-78129005D01*
X140867052Y-77999093D01*
X140884646Y-77977939D01*
X140888337Y-77973501D01*
X140892526Y-77966022D01*
X140929439Y-77900107D01*
X140987164Y-77797031D01*
X140995335Y-77772962D01*
X141050320Y-77610981D01*
X141050320Y-77610979D01*
X141052178Y-77605507D01*
X141053007Y-77599791D01*
X141053008Y-77599786D01*
X141072891Y-77462647D01*
X141081200Y-77405342D01*
X141082715Y-77347500D01*
X141064208Y-77146091D01*
X141055105Y-77113812D01*
X141014524Y-76969925D01*
X141009307Y-76951426D01*
X140919851Y-76770027D01*
X140912040Y-76759566D01*
X140802288Y-76612591D01*
X140802287Y-76612590D01*
X140798835Y-76607967D01*
X140791307Y-76601008D01*
X140654553Y-76474594D01*
X140654551Y-76474592D01*
X140650312Y-76470674D01*
X140645430Y-76467594D01*
X140640843Y-76464074D01*
X140642525Y-76461882D01*
X140603263Y-76417437D01*
X140592487Y-76347263D01*
X140621360Y-76282403D01*
X140680716Y-76243449D01*
X140717370Y-76238000D01*
X152808671Y-76238000D01*
X152876792Y-76258002D01*
X152923285Y-76311658D01*
X152933389Y-76381932D01*
X152903895Y-76446512D01*
X152891750Y-76458730D01*
X152745805Y-76586720D01*
X152620589Y-76745557D01*
X152526414Y-76924553D01*
X152466437Y-77117713D01*
X152442664Y-77318569D01*
X152455892Y-77520394D01*
X152475533Y-77597731D01*
X152504184Y-77710544D01*
X152505678Y-77716428D01*
X152590356Y-77900107D01*
X152593689Y-77904823D01*
X152692137Y-78044124D01*
X152707088Y-78065280D01*
X152851966Y-78206413D01*
X153020137Y-78318782D01*
X153025440Y-78321060D01*
X153025443Y-78321062D01*
X153193974Y-78393468D01*
X153205970Y-78398622D01*
X153403240Y-78443260D01*
X153409009Y-78443487D01*
X153409012Y-78443487D01*
X153485183Y-78446479D01*
X153605342Y-78451200D01*
X153691632Y-78438689D01*
X153799786Y-78423008D01*
X153799791Y-78423007D01*
X153805507Y-78422178D01*
X153810979Y-78420320D01*
X153810981Y-78420320D01*
X153991567Y-78359019D01*
X153991569Y-78359018D01*
X153997031Y-78357164D01*
X154140942Y-78276571D01*
X154168464Y-78261158D01*
X154168465Y-78261157D01*
X154173501Y-78258337D01*
X154235933Y-78206413D01*
X154324573Y-78132691D01*
X154329005Y-78129005D01*
X154437052Y-77999093D01*
X154454646Y-77977939D01*
X154458337Y-77973501D01*
X154462526Y-77966022D01*
X154499439Y-77900107D01*
X154557164Y-77797031D01*
X154565335Y-77772962D01*
X154620320Y-77610981D01*
X154620320Y-77610979D01*
X154622178Y-77605507D01*
X154623007Y-77599791D01*
X154623008Y-77599786D01*
X154642891Y-77462647D01*
X154651200Y-77405342D01*
X154652715Y-77347500D01*
X154634208Y-77146091D01*
X154625105Y-77113812D01*
X154584524Y-76969925D01*
X154579307Y-76951426D01*
X154489851Y-76770027D01*
X154482040Y-76759566D01*
X154372288Y-76612591D01*
X154372287Y-76612590D01*
X154368835Y-76607967D01*
X154361307Y-76601008D01*
X154224553Y-76474594D01*
X154224551Y-76474592D01*
X154220312Y-76470674D01*
X154215430Y-76467594D01*
X154210843Y-76464074D01*
X154212525Y-76461882D01*
X154173263Y-76417437D01*
X154162487Y-76347263D01*
X154191360Y-76282403D01*
X154250716Y-76243449D01*
X154287370Y-76238000D01*
X155348671Y-76238000D01*
X155416792Y-76258002D01*
X155463285Y-76311658D01*
X155473389Y-76381932D01*
X155443895Y-76446512D01*
X155431750Y-76458730D01*
X155285805Y-76586720D01*
X155160589Y-76745557D01*
X155066414Y-76924553D01*
X155006437Y-77117713D01*
X154982664Y-77318569D01*
X154995892Y-77520394D01*
X155015533Y-77597731D01*
X155044184Y-77710544D01*
X155045678Y-77716428D01*
X155130356Y-77900107D01*
X155133689Y-77904823D01*
X155232137Y-78044124D01*
X155247088Y-78065280D01*
X155391966Y-78206413D01*
X155560137Y-78318782D01*
X155565440Y-78321060D01*
X155565443Y-78321062D01*
X155733974Y-78393468D01*
X155745970Y-78398622D01*
X155943240Y-78443260D01*
X155949009Y-78443487D01*
X155949012Y-78443487D01*
X156025183Y-78446479D01*
X156145342Y-78451200D01*
X156231632Y-78438689D01*
X156339786Y-78423008D01*
X156339791Y-78423007D01*
X156345507Y-78422178D01*
X156350979Y-78420320D01*
X156350981Y-78420320D01*
X156531567Y-78359019D01*
X156531569Y-78359018D01*
X156537031Y-78357164D01*
X156587104Y-78329122D01*
X165793696Y-78329122D01*
X165795247Y-78338915D01*
X165811810Y-78443487D01*
X165814781Y-78462248D01*
X165875972Y-78582342D01*
X165971280Y-78677650D01*
X166091374Y-78738841D01*
X166101163Y-78740391D01*
X166101165Y-78740392D01*
X166214707Y-78758375D01*
X166224500Y-78759926D01*
X166234293Y-78758375D01*
X166347835Y-78740392D01*
X166347837Y-78740391D01*
X166357626Y-78738841D01*
X166477720Y-78677650D01*
X166573028Y-78582342D01*
X166634219Y-78462248D01*
X166637191Y-78443487D01*
X166653753Y-78338915D01*
X166655304Y-78329122D01*
X166653158Y-78315572D01*
X166645430Y-78266778D01*
X171269196Y-78266778D01*
X171270747Y-78276571D01*
X171288488Y-78388581D01*
X171290281Y-78399904D01*
X171351472Y-78519998D01*
X171446780Y-78615306D01*
X171566874Y-78676497D01*
X171576663Y-78678047D01*
X171576665Y-78678048D01*
X171690207Y-78696031D01*
X171700000Y-78697582D01*
X171709793Y-78696031D01*
X171823335Y-78678048D01*
X171823337Y-78678047D01*
X171833126Y-78676497D01*
X171953220Y-78615306D01*
X172048528Y-78519998D01*
X172109719Y-78399904D01*
X172111513Y-78388581D01*
X172129253Y-78276571D01*
X172130804Y-78266778D01*
X172129253Y-78256985D01*
X172111270Y-78143443D01*
X172111269Y-78143441D01*
X172109719Y-78133652D01*
X172105218Y-78124819D01*
X172105217Y-78124815D01*
X172100774Y-78116095D01*
X172087670Y-78046318D01*
X172114371Y-77980533D01*
X172138977Y-77956959D01*
X172144385Y-77953030D01*
X172153220Y-77948528D01*
X172248528Y-77853220D01*
X172309719Y-77733126D01*
X172313151Y-77711461D01*
X172329253Y-77609793D01*
X172330804Y-77600000D01*
X172327935Y-77581884D01*
X172311270Y-77476665D01*
X172311269Y-77476663D01*
X172309719Y-77466874D01*
X172248528Y-77346780D01*
X172153220Y-77251472D01*
X172125106Y-77237147D01*
X174886795Y-77237147D01*
X174888346Y-77246940D01*
X174904312Y-77347743D01*
X174907880Y-77370273D01*
X174969071Y-77490367D01*
X175064379Y-77585675D01*
X175184473Y-77646866D01*
X175194262Y-77648416D01*
X175194264Y-77648417D01*
X175307806Y-77666400D01*
X175317599Y-77667951D01*
X175327392Y-77666400D01*
X175440934Y-77648417D01*
X175440936Y-77648416D01*
X175450725Y-77646866D01*
X175570819Y-77585675D01*
X175666127Y-77490367D01*
X175727318Y-77370273D01*
X175730887Y-77347743D01*
X175746852Y-77246940D01*
X175748403Y-77237147D01*
X175744585Y-77213043D01*
X175728869Y-77113812D01*
X175728868Y-77113810D01*
X175727318Y-77104021D01*
X175666127Y-76983927D01*
X175570819Y-76888619D01*
X175450725Y-76827428D01*
X175440936Y-76825878D01*
X175440934Y-76825877D01*
X175327392Y-76807894D01*
X175317599Y-76806343D01*
X175307806Y-76807894D01*
X175194264Y-76825877D01*
X175194262Y-76825878D01*
X175184473Y-76827428D01*
X175064379Y-76888619D01*
X174969071Y-76983927D01*
X174907880Y-77104021D01*
X174906330Y-77113810D01*
X174906329Y-77113812D01*
X174890613Y-77213043D01*
X174886795Y-77237147D01*
X172125106Y-77237147D01*
X172033126Y-77190281D01*
X172023337Y-77188731D01*
X172023335Y-77188730D01*
X171909793Y-77170747D01*
X171900000Y-77169196D01*
X171890207Y-77170747D01*
X171776665Y-77188730D01*
X171776663Y-77188731D01*
X171766874Y-77190281D01*
X171646780Y-77251472D01*
X171551472Y-77346780D01*
X171490281Y-77466874D01*
X171488731Y-77476663D01*
X171488730Y-77476665D01*
X171472065Y-77581884D01*
X171469196Y-77600000D01*
X171470747Y-77609793D01*
X171486850Y-77711461D01*
X171490281Y-77733126D01*
X171494782Y-77741959D01*
X171494783Y-77741963D01*
X171499226Y-77750683D01*
X171512330Y-77820460D01*
X171485629Y-77886245D01*
X171461023Y-77909819D01*
X171455615Y-77913748D01*
X171446780Y-77918250D01*
X171351472Y-78013558D01*
X171290281Y-78133652D01*
X171288731Y-78143441D01*
X171288730Y-78143443D01*
X171270747Y-78256985D01*
X171269196Y-78266778D01*
X166645430Y-78266778D01*
X166635770Y-78205787D01*
X166635769Y-78205785D01*
X166634219Y-78195996D01*
X166573028Y-78075902D01*
X166477720Y-77980594D01*
X166357626Y-77919403D01*
X166347837Y-77917853D01*
X166347835Y-77917852D01*
X166234293Y-77899869D01*
X166224500Y-77898318D01*
X166214707Y-77899869D01*
X166101165Y-77917852D01*
X166101163Y-77917853D01*
X166091374Y-77919403D01*
X165971280Y-77980594D01*
X165875972Y-78075902D01*
X165814781Y-78195996D01*
X165813231Y-78205785D01*
X165813230Y-78205787D01*
X165795842Y-78315572D01*
X165793696Y-78329122D01*
X156587104Y-78329122D01*
X156680942Y-78276571D01*
X156708464Y-78261158D01*
X156708465Y-78261157D01*
X156713501Y-78258337D01*
X156775933Y-78206413D01*
X156864573Y-78132691D01*
X156869005Y-78129005D01*
X156977052Y-77999093D01*
X156994646Y-77977939D01*
X156998337Y-77973501D01*
X157002526Y-77966022D01*
X157039439Y-77900107D01*
X157097164Y-77797031D01*
X157105335Y-77772962D01*
X157160320Y-77610981D01*
X157160320Y-77610979D01*
X157162178Y-77605507D01*
X157163007Y-77599791D01*
X157163008Y-77599786D01*
X157182891Y-77462647D01*
X157191200Y-77405342D01*
X157192715Y-77347500D01*
X157174208Y-77146091D01*
X157165105Y-77113812D01*
X157124524Y-76969925D01*
X157119307Y-76951426D01*
X157029851Y-76770027D01*
X157022040Y-76759566D01*
X156912288Y-76612591D01*
X156912287Y-76612590D01*
X156908835Y-76607967D01*
X156901307Y-76601008D01*
X156764553Y-76474594D01*
X156764551Y-76474592D01*
X156760312Y-76470674D01*
X156755430Y-76467594D01*
X156750843Y-76464074D01*
X156752525Y-76461882D01*
X156713263Y-76417437D01*
X156702487Y-76347263D01*
X156731360Y-76282403D01*
X156790716Y-76243449D01*
X156827370Y-76238000D01*
X161677012Y-76238000D01*
X161745133Y-76258002D01*
X161791626Y-76311658D01*
X161801730Y-76381932D01*
X161772236Y-76446512D01*
X161734215Y-76476267D01*
X161709280Y-76488972D01*
X161613972Y-76584280D01*
X161552781Y-76704374D01*
X161551231Y-76714163D01*
X161551230Y-76714165D01*
X161541562Y-76775208D01*
X161531696Y-76837500D01*
X161533247Y-76847293D01*
X161544955Y-76921212D01*
X161552781Y-76970626D01*
X161613972Y-77090720D01*
X161709280Y-77186028D01*
X161829374Y-77247219D01*
X161839163Y-77248769D01*
X161839165Y-77248770D01*
X161952707Y-77266753D01*
X161962500Y-77268304D01*
X161972293Y-77266753D01*
X162085835Y-77248770D01*
X162085837Y-77248769D01*
X162095626Y-77247219D01*
X162215720Y-77186028D01*
X162311028Y-77090720D01*
X162315527Y-77081890D01*
X162315530Y-77081886D01*
X162323501Y-77066241D01*
X162372249Y-77014625D01*
X162441163Y-76997559D01*
X162508365Y-77020459D01*
X162550818Y-77073917D01*
X162551093Y-77075651D01*
X162612284Y-77195745D01*
X162707592Y-77291053D01*
X162827686Y-77352244D01*
X162837475Y-77353794D01*
X162837477Y-77353795D01*
X162951019Y-77371778D01*
X162960812Y-77373329D01*
X162970605Y-77371778D01*
X163084147Y-77353795D01*
X163084149Y-77353794D01*
X163093938Y-77352244D01*
X163214032Y-77291053D01*
X163309340Y-77195745D01*
X163370531Y-77075651D01*
X163379494Y-77019064D01*
X163390065Y-76952318D01*
X163391616Y-76942525D01*
X163389680Y-76930299D01*
X163372082Y-76819190D01*
X163372081Y-76819188D01*
X163370531Y-76809399D01*
X163309340Y-76689305D01*
X163214032Y-76593997D01*
X163093938Y-76532806D01*
X163084149Y-76531256D01*
X163084147Y-76531255D01*
X162970605Y-76513272D01*
X162960812Y-76511721D01*
X162951019Y-76513272D01*
X162837477Y-76531255D01*
X162837475Y-76531256D01*
X162827686Y-76532806D01*
X162707592Y-76593997D01*
X162612284Y-76689305D01*
X162607785Y-76698135D01*
X162607782Y-76698139D01*
X162599811Y-76713784D01*
X162551063Y-76765400D01*
X162482149Y-76782466D01*
X162414947Y-76759566D01*
X162372494Y-76706108D01*
X162372219Y-76704374D01*
X162311028Y-76584280D01*
X162215720Y-76488972D01*
X162190785Y-76476267D01*
X162139170Y-76427519D01*
X162122104Y-76358604D01*
X162145005Y-76291402D01*
X162200602Y-76247250D01*
X162247988Y-76238000D01*
X183811942Y-76238000D01*
X183880063Y-76258002D01*
X183891876Y-76266601D01*
X183960014Y-76322521D01*
X183977479Y-76339986D01*
X184033399Y-76408124D01*
X184061153Y-76473471D01*
X184062000Y-76488058D01*
X184062000Y-89586942D01*
X184041998Y-89655063D01*
X184033399Y-89666876D01*
X183977479Y-89735014D01*
X183960014Y-89752479D01*
X183891876Y-89808399D01*
X183826529Y-89836153D01*
X183811942Y-89837000D01*
X156823181Y-89837000D01*
X156755060Y-89816998D01*
X156708567Y-89763342D01*
X156698463Y-89693068D01*
X156727957Y-89628488D01*
X156742612Y-89614126D01*
X156864568Y-89512696D01*
X156864573Y-89512691D01*
X156869005Y-89509005D01*
X156998337Y-89353501D01*
X157006431Y-89339049D01*
X157050026Y-89261203D01*
X157097164Y-89177031D01*
X157102267Y-89162000D01*
X157160320Y-88990981D01*
X157160320Y-88990979D01*
X157162178Y-88985507D01*
X157163007Y-88979791D01*
X157163008Y-88979786D01*
X157180989Y-88855770D01*
X157191200Y-88785342D01*
X157192715Y-88727500D01*
X157174208Y-88526091D01*
X157172325Y-88519412D01*
X157139880Y-88404374D01*
X157119307Y-88331426D01*
X157029851Y-88150027D01*
X157014088Y-88128917D01*
X156912288Y-87992591D01*
X156912287Y-87992590D01*
X156908835Y-87987967D01*
X156901959Y-87981611D01*
X156889398Y-87970000D01*
X159699196Y-87970000D01*
X159700747Y-87979793D01*
X159718286Y-88090528D01*
X159720281Y-88103126D01*
X159781472Y-88223220D01*
X159876780Y-88318528D01*
X159996874Y-88379719D01*
X160006663Y-88381269D01*
X160006665Y-88381270D01*
X160120207Y-88399253D01*
X160130000Y-88400804D01*
X160139793Y-88399253D01*
X160253335Y-88381270D01*
X160253337Y-88381269D01*
X160263126Y-88379719D01*
X160383220Y-88318528D01*
X160478528Y-88223220D01*
X160516626Y-88148449D01*
X160517733Y-88146276D01*
X160566481Y-88094661D01*
X160635396Y-88077595D01*
X160702598Y-88100496D01*
X160742267Y-88146276D01*
X160743374Y-88148449D01*
X160781472Y-88223220D01*
X160876780Y-88318528D01*
X160996874Y-88379719D01*
X161006663Y-88381269D01*
X161006665Y-88381270D01*
X161120207Y-88399253D01*
X161130000Y-88400804D01*
X161139793Y-88399253D01*
X161253335Y-88381270D01*
X161253337Y-88381269D01*
X161263126Y-88379719D01*
X161383220Y-88318528D01*
X161478528Y-88223220D01*
X161490359Y-88200000D01*
X175069196Y-88200000D01*
X175070747Y-88209793D01*
X175088682Y-88323028D01*
X175090281Y-88333126D01*
X175151472Y-88453220D01*
X175246780Y-88548528D01*
X175366874Y-88609719D01*
X175376663Y-88611269D01*
X175376665Y-88611270D01*
X175490207Y-88629253D01*
X175500000Y-88630804D01*
X175509793Y-88629253D01*
X175509794Y-88629253D01*
X175588927Y-88616720D01*
X175659338Y-88625820D01*
X175713652Y-88671542D01*
X175720904Y-88683966D01*
X175728089Y-88698068D01*
X175761092Y-88762839D01*
X175856400Y-88858147D01*
X175976494Y-88919338D01*
X175986283Y-88920888D01*
X175986285Y-88920889D01*
X176099827Y-88938872D01*
X176109620Y-88940423D01*
X176119413Y-88938872D01*
X176232955Y-88920889D01*
X176232957Y-88920888D01*
X176242746Y-88919338D01*
X176362840Y-88858147D01*
X176458148Y-88762839D01*
X176519339Y-88642745D01*
X176521231Y-88630804D01*
X176538873Y-88519412D01*
X176540424Y-88509619D01*
X176537853Y-88493389D01*
X176520890Y-88386284D01*
X176520889Y-88386282D01*
X176519339Y-88376493D01*
X176458148Y-88256399D01*
X176362840Y-88161091D01*
X176258176Y-88107762D01*
X178932020Y-88107762D01*
X178933943Y-88130667D01*
X178948116Y-88299437D01*
X178949259Y-88313053D01*
X178950958Y-88318978D01*
X178991462Y-88460231D01*
X179006044Y-88511086D01*
X179008859Y-88516563D01*
X179008860Y-88516566D01*
X179094892Y-88683966D01*
X179100212Y-88694318D01*
X179228177Y-88855770D01*
X179232870Y-88859764D01*
X179232871Y-88859765D01*
X179373896Y-88979786D01*
X179385064Y-88989291D01*
X179564898Y-89089797D01*
X179659738Y-89120613D01*
X179754971Y-89151556D01*
X179754975Y-89151557D01*
X179760829Y-89153459D01*
X179965394Y-89177851D01*
X179971529Y-89177379D01*
X179971531Y-89177379D01*
X180027539Y-89173069D01*
X180170800Y-89162046D01*
X180176730Y-89160390D01*
X180176732Y-89160390D01*
X180363297Y-89108300D01*
X180363296Y-89108300D01*
X180369225Y-89106645D01*
X180374714Y-89103872D01*
X180374720Y-89103870D01*
X180513938Y-89033545D01*
X180553110Y-89013758D01*
X180582264Y-88990981D01*
X180648960Y-88938872D01*
X180715451Y-88886924D01*
X180721885Y-88879471D01*
X180846040Y-88735634D01*
X180846040Y-88735633D01*
X180850064Y-88730972D01*
X180854136Y-88723805D01*
X180906967Y-88630804D01*
X180951823Y-88551844D01*
X181016851Y-88356363D01*
X181042671Y-88151974D01*
X181043083Y-88122500D01*
X181041638Y-88107762D01*
X181472020Y-88107762D01*
X181473943Y-88130667D01*
X181488116Y-88299437D01*
X181489259Y-88313053D01*
X181490958Y-88318978D01*
X181531462Y-88460231D01*
X181546044Y-88511086D01*
X181548859Y-88516563D01*
X181548860Y-88516566D01*
X181634892Y-88683966D01*
X181640212Y-88694318D01*
X181768177Y-88855770D01*
X181772870Y-88859764D01*
X181772871Y-88859765D01*
X181913896Y-88979786D01*
X181925064Y-88989291D01*
X182104898Y-89089797D01*
X182199738Y-89120613D01*
X182294971Y-89151556D01*
X182294975Y-89151557D01*
X182300829Y-89153459D01*
X182505394Y-89177851D01*
X182511529Y-89177379D01*
X182511531Y-89177379D01*
X182567539Y-89173069D01*
X182710800Y-89162046D01*
X182716730Y-89160390D01*
X182716732Y-89160390D01*
X182903297Y-89108300D01*
X182903296Y-89108300D01*
X182909225Y-89106645D01*
X182914714Y-89103872D01*
X182914720Y-89103870D01*
X183053938Y-89033545D01*
X183093110Y-89013758D01*
X183122264Y-88990981D01*
X183188960Y-88938872D01*
X183255451Y-88886924D01*
X183261885Y-88879471D01*
X183386040Y-88735634D01*
X183386040Y-88735633D01*
X183390064Y-88730972D01*
X183394136Y-88723805D01*
X183446967Y-88630804D01*
X183491823Y-88551844D01*
X183556851Y-88356363D01*
X183582671Y-88151974D01*
X183583083Y-88122500D01*
X183562980Y-87917470D01*
X183503435Y-87720249D01*
X183406718Y-87538349D01*
X183290607Y-87395983D01*
X183280406Y-87383475D01*
X183280403Y-87383472D01*
X183276511Y-87378700D01*
X183271762Y-87374771D01*
X183122525Y-87251311D01*
X183122521Y-87251309D01*
X183117775Y-87247382D01*
X182936555Y-87149397D01*
X182739754Y-87088477D01*
X182733629Y-87087833D01*
X182733628Y-87087833D01*
X182540998Y-87067587D01*
X182540996Y-87067587D01*
X182534869Y-87066943D01*
X182448029Y-87074846D01*
X182335842Y-87085055D01*
X182335839Y-87085056D01*
X182329703Y-87085614D01*
X182132072Y-87143780D01*
X181949502Y-87239226D01*
X181944701Y-87243086D01*
X181944698Y-87243088D01*
X181815219Y-87347192D01*
X181788947Y-87368315D01*
X181656524Y-87526130D01*
X181653556Y-87531528D01*
X181653553Y-87531533D01*
X181570040Y-87683445D01*
X181557276Y-87706662D01*
X181555413Y-87712535D01*
X181497343Y-87895597D01*
X181494984Y-87903032D01*
X181494298Y-87909149D01*
X181494297Y-87909153D01*
X181473076Y-88098349D01*
X181472020Y-88107762D01*
X181041638Y-88107762D01*
X181022980Y-87917470D01*
X180963435Y-87720249D01*
X180866718Y-87538349D01*
X180750607Y-87395983D01*
X180740406Y-87383475D01*
X180740403Y-87383472D01*
X180736511Y-87378700D01*
X180731762Y-87374771D01*
X180582525Y-87251311D01*
X180582521Y-87251309D01*
X180577775Y-87247382D01*
X180396555Y-87149397D01*
X180199754Y-87088477D01*
X180193629Y-87087833D01*
X180193628Y-87087833D01*
X180000998Y-87067587D01*
X180000996Y-87067587D01*
X179994869Y-87066943D01*
X179908029Y-87074846D01*
X179795842Y-87085055D01*
X179795839Y-87085056D01*
X179789703Y-87085614D01*
X179592072Y-87143780D01*
X179409502Y-87239226D01*
X179404701Y-87243086D01*
X179404698Y-87243088D01*
X179275219Y-87347192D01*
X179248947Y-87368315D01*
X179116524Y-87526130D01*
X179113556Y-87531528D01*
X179113553Y-87531533D01*
X179030040Y-87683445D01*
X179017276Y-87706662D01*
X179015413Y-87712535D01*
X178957343Y-87895597D01*
X178954984Y-87903032D01*
X178954298Y-87909149D01*
X178954297Y-87909153D01*
X178933076Y-88098349D01*
X178932020Y-88107762D01*
X176258176Y-88107762D01*
X176242746Y-88099900D01*
X176232957Y-88098350D01*
X176232955Y-88098349D01*
X176119413Y-88080366D01*
X176109620Y-88078815D01*
X176099827Y-88080366D01*
X176099826Y-88080366D01*
X176020693Y-88092899D01*
X175950282Y-88083799D01*
X175895968Y-88038077D01*
X175888716Y-88025653D01*
X175871870Y-87992591D01*
X175848528Y-87946780D01*
X175753220Y-87851472D01*
X175633126Y-87790281D01*
X175623337Y-87788731D01*
X175623335Y-87788730D01*
X175509793Y-87770747D01*
X175500000Y-87769196D01*
X175490207Y-87770747D01*
X175376665Y-87788730D01*
X175376663Y-87788731D01*
X175366874Y-87790281D01*
X175246780Y-87851472D01*
X175151472Y-87946780D01*
X175090281Y-88066874D01*
X175088731Y-88076663D01*
X175088730Y-88076665D01*
X175074462Y-88166753D01*
X175069196Y-88200000D01*
X161490359Y-88200000D01*
X161539719Y-88103126D01*
X161541715Y-88090528D01*
X161559253Y-87979793D01*
X161560804Y-87970000D01*
X161558123Y-87953073D01*
X161541270Y-87846665D01*
X161541269Y-87846663D01*
X161539719Y-87836874D01*
X161478528Y-87716780D01*
X161383220Y-87621472D01*
X161324554Y-87591580D01*
X163271497Y-87591580D01*
X163273048Y-87601373D01*
X163291015Y-87714810D01*
X163292582Y-87724706D01*
X163353773Y-87844800D01*
X163449081Y-87940108D01*
X163569175Y-88001299D01*
X163578964Y-88002849D01*
X163578966Y-88002850D01*
X163692508Y-88020833D01*
X163702301Y-88022384D01*
X163712094Y-88020833D01*
X163825636Y-88002850D01*
X163825638Y-88002849D01*
X163835427Y-88001299D01*
X163955521Y-87940108D01*
X164050829Y-87844800D01*
X164105501Y-87737500D01*
X166031696Y-87737500D01*
X166033247Y-87747293D01*
X166050858Y-87858483D01*
X166052781Y-87870626D01*
X166113972Y-87990720D01*
X166209280Y-88086028D01*
X166329374Y-88147219D01*
X166339163Y-88148769D01*
X166339165Y-88148770D01*
X166452707Y-88166753D01*
X166462500Y-88168304D01*
X166472293Y-88166753D01*
X166585835Y-88148770D01*
X166585837Y-88148769D01*
X166595626Y-88147219D01*
X166715720Y-88086028D01*
X166811028Y-87990720D01*
X166872219Y-87870626D01*
X166874143Y-87858483D01*
X166891753Y-87747293D01*
X166893304Y-87737500D01*
X166889350Y-87712535D01*
X166873770Y-87614165D01*
X166873769Y-87614163D01*
X166872219Y-87604374D01*
X166811028Y-87484280D01*
X166715720Y-87388972D01*
X166595626Y-87327781D01*
X166585837Y-87326231D01*
X166585835Y-87326230D01*
X166472293Y-87308247D01*
X166462500Y-87306696D01*
X166452707Y-87308247D01*
X166339165Y-87326230D01*
X166339163Y-87326231D01*
X166329374Y-87327781D01*
X166209280Y-87388972D01*
X166113972Y-87484280D01*
X166052781Y-87604374D01*
X166051231Y-87614163D01*
X166051230Y-87614165D01*
X166035650Y-87712535D01*
X166031696Y-87737500D01*
X164105501Y-87737500D01*
X164112020Y-87724706D01*
X164113588Y-87714810D01*
X164131554Y-87601373D01*
X164133105Y-87591580D01*
X164120342Y-87510998D01*
X164113571Y-87468245D01*
X164113570Y-87468243D01*
X164112020Y-87458454D01*
X164050829Y-87338360D01*
X163955521Y-87243052D01*
X163835427Y-87181861D01*
X163825638Y-87180311D01*
X163825636Y-87180310D01*
X163712094Y-87162327D01*
X163702301Y-87160776D01*
X163692508Y-87162327D01*
X163578966Y-87180310D01*
X163578964Y-87180311D01*
X163569175Y-87181861D01*
X163449081Y-87243052D01*
X163353773Y-87338360D01*
X163292582Y-87458454D01*
X163291032Y-87468243D01*
X163291031Y-87468245D01*
X163284260Y-87510998D01*
X163271497Y-87591580D01*
X161324554Y-87591580D01*
X161263126Y-87560281D01*
X161253337Y-87558731D01*
X161253335Y-87558730D01*
X161139793Y-87540747D01*
X161130000Y-87539196D01*
X161120207Y-87540747D01*
X161006665Y-87558730D01*
X161006663Y-87558731D01*
X160996874Y-87560281D01*
X160876780Y-87621472D01*
X160781472Y-87716780D01*
X160754765Y-87769196D01*
X160742267Y-87793724D01*
X160693519Y-87845339D01*
X160624604Y-87862405D01*
X160557402Y-87839504D01*
X160517733Y-87793724D01*
X160505235Y-87769196D01*
X160478528Y-87716780D01*
X160383220Y-87621472D01*
X160263126Y-87560281D01*
X160253337Y-87558731D01*
X160253335Y-87558730D01*
X160139793Y-87540747D01*
X160130000Y-87539196D01*
X160120207Y-87540747D01*
X160006665Y-87558730D01*
X160006663Y-87558731D01*
X159996874Y-87560281D01*
X159876780Y-87621472D01*
X159781472Y-87716780D01*
X159720281Y-87836874D01*
X159718731Y-87846663D01*
X159718730Y-87846665D01*
X159701877Y-87953073D01*
X159699196Y-87970000D01*
X156889398Y-87970000D01*
X156764553Y-87854594D01*
X156764551Y-87854592D01*
X156760312Y-87850674D01*
X156737391Y-87836212D01*
X156594137Y-87745825D01*
X156589257Y-87742746D01*
X156401398Y-87667798D01*
X156203026Y-87628339D01*
X156197252Y-87628263D01*
X156197248Y-87628263D01*
X156094757Y-87626922D01*
X156000786Y-87625692D01*
X155995089Y-87626671D01*
X155995088Y-87626671D01*
X155807146Y-87658965D01*
X155807145Y-87658965D01*
X155801449Y-87659944D01*
X155611693Y-87729949D01*
X155606732Y-87732901D01*
X155606731Y-87732901D01*
X155443709Y-87829889D01*
X155437871Y-87833362D01*
X155285805Y-87966720D01*
X155160589Y-88125557D01*
X155066414Y-88304553D01*
X155006437Y-88497713D01*
X154982664Y-88698569D01*
X154995892Y-88900394D01*
X155010994Y-88959860D01*
X155040828Y-89077329D01*
X155045678Y-89096428D01*
X155130356Y-89280107D01*
X155142635Y-89297481D01*
X155196718Y-89374007D01*
X155247088Y-89445280D01*
X155391966Y-89586413D01*
X155396771Y-89589624D01*
X155396774Y-89589626D01*
X155421631Y-89606235D01*
X155467159Y-89660711D01*
X155476008Y-89731154D01*
X155445367Y-89795199D01*
X155384965Y-89832510D01*
X155351630Y-89837000D01*
X140713181Y-89837000D01*
X140645060Y-89816998D01*
X140598567Y-89763342D01*
X140588463Y-89693068D01*
X140617957Y-89628488D01*
X140632612Y-89614126D01*
X140754568Y-89512696D01*
X140754573Y-89512691D01*
X140759005Y-89509005D01*
X140888337Y-89353501D01*
X140896431Y-89339049D01*
X140940026Y-89261203D01*
X140987164Y-89177031D01*
X140992267Y-89162000D01*
X141034529Y-89037500D01*
X143831696Y-89037500D01*
X143833247Y-89047293D01*
X143849761Y-89151556D01*
X143852781Y-89170626D01*
X143913972Y-89290720D01*
X144009280Y-89386028D01*
X144129374Y-89447219D01*
X144139163Y-89448769D01*
X144139165Y-89448770D01*
X144252707Y-89466753D01*
X144262500Y-89468304D01*
X144272293Y-89466753D01*
X144385835Y-89448770D01*
X144385837Y-89448769D01*
X144395626Y-89447219D01*
X144515720Y-89386028D01*
X144611028Y-89290720D01*
X144672219Y-89170626D01*
X144675240Y-89151556D01*
X144691753Y-89047293D01*
X144693304Y-89037500D01*
X145881696Y-89037500D01*
X145883247Y-89047293D01*
X145899761Y-89151556D01*
X145902781Y-89170626D01*
X145963972Y-89290720D01*
X146059280Y-89386028D01*
X146179374Y-89447219D01*
X146189163Y-89448769D01*
X146189165Y-89448770D01*
X146302707Y-89466753D01*
X146312500Y-89468304D01*
X146322293Y-89466753D01*
X146435835Y-89448770D01*
X146435837Y-89448769D01*
X146445626Y-89447219D01*
X146565720Y-89386028D01*
X146661028Y-89290720D01*
X146722219Y-89170626D01*
X146725240Y-89151556D01*
X146741753Y-89047293D01*
X146743304Y-89037500D01*
X147781696Y-89037500D01*
X147783247Y-89047293D01*
X147799761Y-89151556D01*
X147802781Y-89170626D01*
X147863972Y-89290720D01*
X147959280Y-89386028D01*
X148079374Y-89447219D01*
X148089163Y-89448769D01*
X148089165Y-89448770D01*
X148202707Y-89466753D01*
X148212500Y-89468304D01*
X148222293Y-89466753D01*
X148335835Y-89448770D01*
X148335837Y-89448769D01*
X148345626Y-89447219D01*
X148465720Y-89386028D01*
X148561028Y-89290720D01*
X148622219Y-89170626D01*
X148625240Y-89151556D01*
X148641753Y-89047293D01*
X148643304Y-89037500D01*
X149131696Y-89037500D01*
X149133247Y-89047293D01*
X149149761Y-89151556D01*
X149152781Y-89170626D01*
X149213972Y-89290720D01*
X149309280Y-89386028D01*
X149429374Y-89447219D01*
X149439163Y-89448769D01*
X149439165Y-89448770D01*
X149552707Y-89466753D01*
X149562500Y-89468304D01*
X149572293Y-89466753D01*
X149685835Y-89448770D01*
X149685837Y-89448769D01*
X149695626Y-89447219D01*
X149815720Y-89386028D01*
X149823405Y-89378343D01*
X149824425Y-89377786D01*
X149830752Y-89373189D01*
X149831346Y-89374007D01*
X149885717Y-89344317D01*
X149956532Y-89349382D01*
X149994034Y-89373484D01*
X149994248Y-89373189D01*
X149999400Y-89376932D01*
X150001595Y-89378343D01*
X150009280Y-89386028D01*
X150129374Y-89447219D01*
X150139163Y-89448769D01*
X150139165Y-89448770D01*
X150252707Y-89466753D01*
X150262500Y-89468304D01*
X150272293Y-89466753D01*
X150385835Y-89448770D01*
X150385837Y-89448769D01*
X150395626Y-89447219D01*
X150515720Y-89386028D01*
X150611028Y-89290720D01*
X150672219Y-89170626D01*
X150675240Y-89151556D01*
X150691753Y-89047293D01*
X150693304Y-89037500D01*
X150685936Y-88990981D01*
X150673770Y-88914165D01*
X150673769Y-88914163D01*
X150672219Y-88904374D01*
X150611028Y-88784280D01*
X150515720Y-88688972D01*
X150395626Y-88627781D01*
X150385837Y-88626231D01*
X150385835Y-88626230D01*
X150272293Y-88608247D01*
X150262500Y-88606696D01*
X150252707Y-88608247D01*
X150139165Y-88626230D01*
X150139163Y-88626231D01*
X150129374Y-88627781D01*
X150009280Y-88688972D01*
X150001595Y-88696657D01*
X150000575Y-88697214D01*
X149994248Y-88701811D01*
X149993654Y-88700993D01*
X149939283Y-88730683D01*
X149868468Y-88725618D01*
X149830966Y-88701516D01*
X149830752Y-88701811D01*
X149825600Y-88698068D01*
X149823405Y-88696657D01*
X149815720Y-88688972D01*
X149695626Y-88627781D01*
X149685837Y-88626231D01*
X149685835Y-88626230D01*
X149572293Y-88608247D01*
X149562500Y-88606696D01*
X149552707Y-88608247D01*
X149439165Y-88626230D01*
X149439163Y-88626231D01*
X149429374Y-88627781D01*
X149309280Y-88688972D01*
X149213972Y-88784280D01*
X149152781Y-88904374D01*
X149151231Y-88914163D01*
X149151230Y-88914165D01*
X149139064Y-88990981D01*
X149131696Y-89037500D01*
X148643304Y-89037500D01*
X148635936Y-88990981D01*
X148623770Y-88914165D01*
X148623769Y-88914163D01*
X148622219Y-88904374D01*
X148561028Y-88784280D01*
X148465720Y-88688972D01*
X148345626Y-88627781D01*
X148335837Y-88626231D01*
X148335835Y-88626230D01*
X148222293Y-88608247D01*
X148212500Y-88606696D01*
X148202707Y-88608247D01*
X148089165Y-88626230D01*
X148089163Y-88626231D01*
X148079374Y-88627781D01*
X147959280Y-88688972D01*
X147863972Y-88784280D01*
X147802781Y-88904374D01*
X147801231Y-88914163D01*
X147801230Y-88914165D01*
X147789064Y-88990981D01*
X147781696Y-89037500D01*
X146743304Y-89037500D01*
X146735936Y-88990981D01*
X146723770Y-88914165D01*
X146723769Y-88914163D01*
X146722219Y-88904374D01*
X146661028Y-88784280D01*
X146565720Y-88688972D01*
X146445626Y-88627781D01*
X146435837Y-88626231D01*
X146435835Y-88626230D01*
X146322293Y-88608247D01*
X146312500Y-88606696D01*
X146302707Y-88608247D01*
X146189165Y-88626230D01*
X146189163Y-88626231D01*
X146179374Y-88627781D01*
X146059280Y-88688972D01*
X145963972Y-88784280D01*
X145902781Y-88904374D01*
X145901231Y-88914163D01*
X145901230Y-88914165D01*
X145889064Y-88990981D01*
X145881696Y-89037500D01*
X144693304Y-89037500D01*
X144685936Y-88990981D01*
X144673770Y-88914165D01*
X144673769Y-88914163D01*
X144672219Y-88904374D01*
X144611028Y-88784280D01*
X144515720Y-88688972D01*
X144395626Y-88627781D01*
X144385837Y-88626231D01*
X144385835Y-88626230D01*
X144272293Y-88608247D01*
X144262500Y-88606696D01*
X144252707Y-88608247D01*
X144139165Y-88626230D01*
X144139163Y-88626231D01*
X144129374Y-88627781D01*
X144009280Y-88688972D01*
X143913972Y-88784280D01*
X143852781Y-88904374D01*
X143851231Y-88914163D01*
X143851230Y-88914165D01*
X143839064Y-88990981D01*
X143831696Y-89037500D01*
X141034529Y-89037500D01*
X141050320Y-88990981D01*
X141050320Y-88990979D01*
X141052178Y-88985507D01*
X141053007Y-88979791D01*
X141053008Y-88979786D01*
X141070989Y-88855770D01*
X141081200Y-88785342D01*
X141082715Y-88727500D01*
X141064208Y-88526091D01*
X141062325Y-88519412D01*
X141029880Y-88404374D01*
X141009307Y-88331426D01*
X140919851Y-88150027D01*
X140904088Y-88128917D01*
X140802288Y-87992591D01*
X140802287Y-87992590D01*
X140798835Y-87987967D01*
X140789993Y-87979793D01*
X140764821Y-87956525D01*
X140728376Y-87895597D01*
X140730657Y-87824637D01*
X140770939Y-87766174D01*
X140836434Y-87738771D01*
X140850350Y-87738000D01*
X144375820Y-87738000D01*
X144378493Y-87738196D01*
X144383528Y-87739925D01*
X144395150Y-87739489D01*
X144395152Y-87739489D01*
X144432441Y-87738089D01*
X144437167Y-87738000D01*
X144456134Y-87738000D01*
X144460869Y-87737118D01*
X144464395Y-87736890D01*
X144468135Y-87736749D01*
X144495394Y-87735726D01*
X144506079Y-87731136D01*
X144510679Y-87730099D01*
X144522400Y-87726538D01*
X144526803Y-87724839D01*
X144538239Y-87722709D01*
X144559227Y-87709772D01*
X144575597Y-87701269D01*
X144590074Y-87695049D01*
X144590078Y-87695047D01*
X144598249Y-87691536D01*
X144603135Y-87687522D01*
X144605320Y-87685337D01*
X144607583Y-87683285D01*
X144607728Y-87683445D01*
X144616735Y-87676325D01*
X144623630Y-87670073D01*
X144633534Y-87663968D01*
X144650102Y-87642180D01*
X144661296Y-87629361D01*
X145307703Y-86982954D01*
X157577740Y-86982954D01*
X157579291Y-86992747D01*
X157594742Y-87090299D01*
X157598825Y-87116080D01*
X157660016Y-87236174D01*
X157755324Y-87331482D01*
X157875418Y-87392673D01*
X157885207Y-87394223D01*
X157885209Y-87394224D01*
X157998751Y-87412207D01*
X158008544Y-87413758D01*
X158018337Y-87412207D01*
X158131879Y-87394224D01*
X158131881Y-87394223D01*
X158141670Y-87392673D01*
X158261764Y-87331482D01*
X158357072Y-87236174D01*
X158418263Y-87116080D01*
X158422347Y-87090299D01*
X158424770Y-87075000D01*
X170494196Y-87075000D01*
X170495747Y-87084793D01*
X170507782Y-87160776D01*
X170515281Y-87208126D01*
X170576472Y-87328220D01*
X170671780Y-87423528D01*
X170791874Y-87484719D01*
X170801663Y-87486269D01*
X170801665Y-87486270D01*
X170915207Y-87504253D01*
X170925000Y-87505804D01*
X170934793Y-87504253D01*
X171048335Y-87486270D01*
X171048337Y-87486269D01*
X171058126Y-87484719D01*
X171178220Y-87423528D01*
X171273528Y-87328220D01*
X171334719Y-87208126D01*
X171342219Y-87160776D01*
X171354253Y-87084793D01*
X171355804Y-87075000D01*
X171353267Y-87058982D01*
X171336270Y-86951665D01*
X171336269Y-86951663D01*
X171334719Y-86941874D01*
X171273528Y-86821780D01*
X171178220Y-86726472D01*
X171058126Y-86665281D01*
X171048337Y-86663731D01*
X171048335Y-86663730D01*
X170934793Y-86645747D01*
X170925000Y-86644196D01*
X170915207Y-86645747D01*
X170801665Y-86663730D01*
X170801663Y-86663731D01*
X170791874Y-86665281D01*
X170671780Y-86726472D01*
X170576472Y-86821780D01*
X170515281Y-86941874D01*
X170513731Y-86951663D01*
X170513730Y-86951665D01*
X170496733Y-87058982D01*
X170494196Y-87075000D01*
X158424770Y-87075000D01*
X158437797Y-86992747D01*
X158439348Y-86982954D01*
X158432842Y-86941874D01*
X158419814Y-86859619D01*
X158419813Y-86859617D01*
X158418263Y-86849828D01*
X158357072Y-86729734D01*
X158261764Y-86634426D01*
X158141670Y-86573235D01*
X158131881Y-86571685D01*
X158131879Y-86571684D01*
X158018337Y-86553701D01*
X158008544Y-86552150D01*
X157998751Y-86553701D01*
X157885209Y-86571684D01*
X157885207Y-86571685D01*
X157875418Y-86573235D01*
X157755324Y-86634426D01*
X157660016Y-86729734D01*
X157598825Y-86849828D01*
X157597275Y-86859617D01*
X157597274Y-86859619D01*
X157584246Y-86941874D01*
X157577740Y-86982954D01*
X145307703Y-86982954D01*
X146574500Y-85716158D01*
X150029604Y-85716158D01*
X150031155Y-85725951D01*
X150048823Y-85837500D01*
X150050689Y-85849284D01*
X150111880Y-85969378D01*
X150207188Y-86064686D01*
X150327282Y-86125877D01*
X150337071Y-86127427D01*
X150337073Y-86127428D01*
X150450615Y-86145411D01*
X150460408Y-86146962D01*
X150470201Y-86145411D01*
X150583743Y-86127428D01*
X150583745Y-86127427D01*
X150593534Y-86125877D01*
X150713628Y-86064686D01*
X150808936Y-85969378D01*
X150870127Y-85849284D01*
X150871994Y-85837500D01*
X154631696Y-85837500D01*
X154633247Y-85847293D01*
X154647421Y-85936782D01*
X154652781Y-85970626D01*
X154713972Y-86090720D01*
X154809280Y-86186028D01*
X154929374Y-86247219D01*
X154939163Y-86248769D01*
X154939165Y-86248770D01*
X155052707Y-86266753D01*
X155062500Y-86268304D01*
X155072293Y-86266753D01*
X155185835Y-86248770D01*
X155185837Y-86248769D01*
X155195626Y-86247219D01*
X155315720Y-86186028D01*
X155411028Y-86090720D01*
X155472219Y-85970626D01*
X155477580Y-85936782D01*
X155491753Y-85847293D01*
X155493304Y-85837500D01*
X155485697Y-85789472D01*
X155473770Y-85714165D01*
X155473769Y-85714163D01*
X155472219Y-85704374D01*
X155411028Y-85584280D01*
X155315720Y-85488972D01*
X155195626Y-85427781D01*
X155185837Y-85426231D01*
X155185835Y-85426230D01*
X155072293Y-85408247D01*
X155062500Y-85406696D01*
X155052707Y-85408247D01*
X154939165Y-85426230D01*
X154939163Y-85426231D01*
X154929374Y-85427781D01*
X154809280Y-85488972D01*
X154713972Y-85584280D01*
X154652781Y-85704374D01*
X154651231Y-85714163D01*
X154651230Y-85714165D01*
X154639303Y-85789472D01*
X154631696Y-85837500D01*
X150871994Y-85837500D01*
X150889661Y-85725951D01*
X150891212Y-85716158D01*
X150887905Y-85695281D01*
X150871678Y-85592823D01*
X150871677Y-85592821D01*
X150870127Y-85583032D01*
X150808936Y-85462938D01*
X150713628Y-85367630D01*
X150593534Y-85306439D01*
X150583745Y-85304889D01*
X150583743Y-85304888D01*
X150470201Y-85286905D01*
X150460408Y-85285354D01*
X150450615Y-85286905D01*
X150337073Y-85304888D01*
X150337071Y-85304889D01*
X150327282Y-85306439D01*
X150207188Y-85367630D01*
X150111880Y-85462938D01*
X150050689Y-85583032D01*
X150049139Y-85592821D01*
X150049138Y-85592823D01*
X150032911Y-85695281D01*
X150029604Y-85716158D01*
X146574500Y-85716158D01*
X147146908Y-85143750D01*
X148437946Y-85143750D01*
X148439497Y-85153543D01*
X148457428Y-85266753D01*
X148459031Y-85276876D01*
X148520222Y-85396970D01*
X148615530Y-85492278D01*
X148735624Y-85553469D01*
X148745413Y-85555019D01*
X148745415Y-85555020D01*
X148858957Y-85573003D01*
X148868750Y-85574554D01*
X148878543Y-85573003D01*
X148992085Y-85555020D01*
X148992087Y-85555019D01*
X149001876Y-85553469D01*
X149121970Y-85492278D01*
X149217278Y-85396970D01*
X149278469Y-85276876D01*
X149280073Y-85266753D01*
X149298003Y-85153543D01*
X149299554Y-85143750D01*
X149295687Y-85119337D01*
X149280020Y-85020415D01*
X149280019Y-85020413D01*
X149278469Y-85010624D01*
X149217278Y-84890530D01*
X149121970Y-84795222D01*
X149001876Y-84734031D01*
X148992087Y-84732481D01*
X148992085Y-84732480D01*
X148878543Y-84714497D01*
X148868750Y-84712946D01*
X148858957Y-84714497D01*
X148745415Y-84732480D01*
X148745413Y-84732481D01*
X148735624Y-84734031D01*
X148615530Y-84795222D01*
X148520222Y-84890530D01*
X148459031Y-85010624D01*
X148457481Y-85020413D01*
X148457480Y-85020415D01*
X148441813Y-85119337D01*
X148437946Y-85143750D01*
X147146908Y-85143750D01*
X148515753Y-83774905D01*
X148578065Y-83740879D01*
X148604848Y-83738000D01*
X150485839Y-83738000D01*
X150553960Y-83758002D01*
X150574934Y-83774905D01*
X151512981Y-84712952D01*
X151514737Y-84714986D01*
X151517075Y-84719769D01*
X151525604Y-84727681D01*
X151525605Y-84727682D01*
X151552977Y-84753073D01*
X151556382Y-84756353D01*
X151569777Y-84769748D01*
X151573747Y-84772472D01*
X151576395Y-84774797D01*
X151590619Y-84787992D01*
X151590622Y-84787994D01*
X151599146Y-84795901D01*
X151609950Y-84800211D01*
X151613939Y-84802733D01*
X151624727Y-84808494D01*
X151629052Y-84810411D01*
X151638646Y-84816992D01*
X151649965Y-84819678D01*
X151649967Y-84819679D01*
X151662627Y-84822683D01*
X151680224Y-84828248D01*
X151694862Y-84834088D01*
X151694865Y-84834089D01*
X151703122Y-84837383D01*
X151709415Y-84838000D01*
X151712494Y-84838000D01*
X151715567Y-84838150D01*
X151715556Y-84838366D01*
X151726931Y-84839698D01*
X151736246Y-84840154D01*
X151747566Y-84842840D01*
X151759095Y-84841271D01*
X151759096Y-84841271D01*
X151774673Y-84839151D01*
X151791664Y-84838000D01*
X152310134Y-84838000D01*
X152312807Y-84838196D01*
X152317842Y-84839925D01*
X152329464Y-84839489D01*
X152329466Y-84839489D01*
X152366755Y-84838089D01*
X152371481Y-84838000D01*
X152390448Y-84838000D01*
X152395183Y-84837118D01*
X152398709Y-84836890D01*
X152402449Y-84836749D01*
X152429708Y-84835726D01*
X152440393Y-84831136D01*
X152444993Y-84830099D01*
X152456714Y-84826538D01*
X152461117Y-84824839D01*
X152472553Y-84822709D01*
X152493541Y-84809772D01*
X152509911Y-84801269D01*
X152524388Y-84795049D01*
X152524392Y-84795047D01*
X152532563Y-84791536D01*
X152537449Y-84787522D01*
X152539634Y-84785337D01*
X152541897Y-84783285D01*
X152542042Y-84783445D01*
X152551049Y-84776325D01*
X152557944Y-84770073D01*
X152567848Y-84763968D01*
X152584416Y-84742180D01*
X152595610Y-84729361D01*
X152832603Y-84492368D01*
X152894915Y-84458342D01*
X152921698Y-84455463D01*
X153973994Y-84455463D01*
X154042115Y-84475465D01*
X154088608Y-84529121D01*
X154098712Y-84599395D01*
X154086261Y-84638666D01*
X154052781Y-84704374D01*
X154051231Y-84714163D01*
X154051230Y-84714165D01*
X154034043Y-84822683D01*
X154031696Y-84837500D01*
X154033247Y-84847293D01*
X154047062Y-84934515D01*
X154052781Y-84970626D01*
X154113972Y-85090720D01*
X154209280Y-85186028D01*
X154329374Y-85247219D01*
X154339163Y-85248769D01*
X154339165Y-85248770D01*
X154452707Y-85266753D01*
X154462500Y-85268304D01*
X154472293Y-85266753D01*
X154585835Y-85248770D01*
X154585837Y-85248769D01*
X154595626Y-85247219D01*
X154715720Y-85186028D01*
X154811028Y-85090720D01*
X154872219Y-84970626D01*
X154891844Y-84846716D01*
X154922256Y-84782564D01*
X154982524Y-84745036D01*
X154999302Y-84741578D01*
X155017136Y-84739151D01*
X155034127Y-84738000D01*
X155885839Y-84738000D01*
X155953960Y-84758002D01*
X155974934Y-84774905D01*
X156257054Y-85057025D01*
X156291080Y-85119337D01*
X156286015Y-85190152D01*
X156243468Y-85246988D01*
X156187670Y-85270569D01*
X156077354Y-85288041D01*
X156077352Y-85288042D01*
X156067563Y-85289592D01*
X155947469Y-85350783D01*
X155852161Y-85446091D01*
X155790970Y-85566185D01*
X155789420Y-85575974D01*
X155789419Y-85575976D01*
X155777462Y-85651472D01*
X155769885Y-85699311D01*
X155771436Y-85709104D01*
X155786604Y-85804868D01*
X155790970Y-85832437D01*
X155852161Y-85952531D01*
X155947469Y-86047839D01*
X156067563Y-86109030D01*
X156077352Y-86110580D01*
X156077354Y-86110581D01*
X156190896Y-86128564D01*
X156200689Y-86130115D01*
X156210482Y-86128564D01*
X156324024Y-86110581D01*
X156324026Y-86110580D01*
X156333815Y-86109030D01*
X156453909Y-86047839D01*
X156549217Y-85952531D01*
X156610408Y-85832437D01*
X156613923Y-85810244D01*
X156629430Y-85712339D01*
X156659843Y-85648186D01*
X156720111Y-85610659D01*
X156791100Y-85611673D01*
X156846336Y-85648296D01*
X156847038Y-85649732D01*
X156855567Y-85657643D01*
X156855567Y-85657644D01*
X156882940Y-85683036D01*
X156886345Y-85686316D01*
X156899740Y-85699711D01*
X156903710Y-85702435D01*
X156906358Y-85704760D01*
X156908984Y-85707196D01*
X156929109Y-85725864D01*
X156939916Y-85730176D01*
X156943901Y-85732695D01*
X156954710Y-85738467D01*
X156959015Y-85740374D01*
X156968609Y-85746956D01*
X156992562Y-85752640D01*
X156992599Y-85752649D01*
X157010195Y-85758214D01*
X157033085Y-85767346D01*
X157039378Y-85767963D01*
X157042460Y-85767963D01*
X157045530Y-85768113D01*
X157045519Y-85768329D01*
X157056894Y-85769661D01*
X157066208Y-85770116D01*
X157077529Y-85772803D01*
X157089058Y-85771234D01*
X157089059Y-85771234D01*
X157104636Y-85769114D01*
X157121627Y-85767963D01*
X159048338Y-85767963D01*
X159116459Y-85787965D01*
X159137434Y-85804868D01*
X159342358Y-86009793D01*
X159547230Y-86214665D01*
X159548979Y-86216691D01*
X159551317Y-86221474D01*
X159587232Y-86254790D01*
X159590611Y-86258046D01*
X159604018Y-86271453D01*
X159607997Y-86274183D01*
X159610626Y-86276491D01*
X159633388Y-86297606D01*
X159644195Y-86301917D01*
X159648190Y-86304443D01*
X159658984Y-86310206D01*
X159663296Y-86312117D01*
X159672888Y-86318697D01*
X159684205Y-86321383D01*
X159684206Y-86321383D01*
X159696869Y-86324388D01*
X159714466Y-86329953D01*
X159729104Y-86335793D01*
X159729107Y-86335794D01*
X159737364Y-86339088D01*
X159743657Y-86339705D01*
X159746736Y-86339705D01*
X159749809Y-86339855D01*
X159749798Y-86340071D01*
X159761173Y-86341403D01*
X159770488Y-86341859D01*
X159781808Y-86344545D01*
X159793337Y-86342976D01*
X159793338Y-86342976D01*
X159808915Y-86340856D01*
X159825906Y-86339705D01*
X163772979Y-86339705D01*
X163775652Y-86339901D01*
X163780687Y-86341630D01*
X163792309Y-86341194D01*
X163792311Y-86341194D01*
X163829600Y-86339794D01*
X163834326Y-86339705D01*
X163853293Y-86339705D01*
X163858028Y-86338823D01*
X163861554Y-86338595D01*
X163865294Y-86338454D01*
X163892553Y-86337431D01*
X163903238Y-86332841D01*
X163907838Y-86331804D01*
X163919559Y-86328243D01*
X163923962Y-86326544D01*
X163935398Y-86324414D01*
X163956386Y-86311477D01*
X163972756Y-86302974D01*
X163987233Y-86296754D01*
X163987237Y-86296752D01*
X163995408Y-86293241D01*
X164000294Y-86289227D01*
X164002479Y-86287042D01*
X164004742Y-86284990D01*
X164004887Y-86285150D01*
X164013894Y-86278030D01*
X164020789Y-86271778D01*
X164030693Y-86265673D01*
X164047261Y-86243885D01*
X164058455Y-86231066D01*
X164151521Y-86138000D01*
X166231696Y-86138000D01*
X166233247Y-86147793D01*
X166250444Y-86256368D01*
X166252781Y-86271126D01*
X166313972Y-86391220D01*
X166409280Y-86486528D01*
X166529374Y-86547719D01*
X166539163Y-86549269D01*
X166539165Y-86549270D01*
X166652707Y-86567253D01*
X166662500Y-86568804D01*
X166670733Y-86567500D01*
X173601696Y-86567500D01*
X173603247Y-86577293D01*
X173621182Y-86690528D01*
X173622781Y-86700626D01*
X173683972Y-86820720D01*
X173779280Y-86916028D01*
X173899374Y-86977219D01*
X173909163Y-86978769D01*
X173909165Y-86978770D01*
X174022707Y-86996753D01*
X174032500Y-86998304D01*
X174042293Y-86996753D01*
X174155835Y-86978770D01*
X174155837Y-86978769D01*
X174165626Y-86977219D01*
X174285720Y-86916028D01*
X174381028Y-86820720D01*
X174442219Y-86700626D01*
X174443819Y-86690528D01*
X174461753Y-86577293D01*
X174463304Y-86567500D01*
X174461753Y-86557707D01*
X174443770Y-86444165D01*
X174443769Y-86444163D01*
X174442219Y-86434374D01*
X174381028Y-86314280D01*
X174285720Y-86218972D01*
X174165626Y-86157781D01*
X174155837Y-86156231D01*
X174155835Y-86156230D01*
X174042293Y-86138247D01*
X174032500Y-86136696D01*
X174022707Y-86138247D01*
X173909165Y-86156230D01*
X173909163Y-86156231D01*
X173899374Y-86157781D01*
X173779280Y-86218972D01*
X173683972Y-86314280D01*
X173622781Y-86434374D01*
X173621231Y-86444163D01*
X173621230Y-86444165D01*
X173603247Y-86557707D01*
X173601696Y-86567500D01*
X166670733Y-86567500D01*
X166672293Y-86567253D01*
X166785835Y-86549270D01*
X166785837Y-86549269D01*
X166795626Y-86547719D01*
X166915720Y-86486528D01*
X167011028Y-86391220D01*
X167072219Y-86271126D01*
X167074557Y-86256368D01*
X167091753Y-86147793D01*
X167093304Y-86138000D01*
X167090981Y-86123335D01*
X167073770Y-86014665D01*
X167073769Y-86014663D01*
X167072219Y-86004874D01*
X167011028Y-85884780D01*
X166915720Y-85789472D01*
X166795626Y-85728281D01*
X166785837Y-85726731D01*
X166785835Y-85726730D01*
X166672293Y-85708747D01*
X166662500Y-85707196D01*
X166652707Y-85708747D01*
X166539165Y-85726730D01*
X166539163Y-85726731D01*
X166529374Y-85728281D01*
X166409280Y-85789472D01*
X166313972Y-85884780D01*
X166252781Y-86004874D01*
X166251231Y-86014663D01*
X166251230Y-86014665D01*
X166234019Y-86123335D01*
X166231696Y-86138000D01*
X164151521Y-86138000D01*
X165385863Y-84903658D01*
X165448175Y-84869632D01*
X165455584Y-84868836D01*
X165455500Y-84868304D01*
X165578835Y-84848770D01*
X165578837Y-84848769D01*
X165588626Y-84847219D01*
X165708720Y-84786028D01*
X165804028Y-84690720D01*
X165865219Y-84570626D01*
X165868439Y-84550299D01*
X165884753Y-84447293D01*
X165886304Y-84437500D01*
X165877439Y-84381528D01*
X165866770Y-84314165D01*
X165866769Y-84314163D01*
X165865219Y-84304374D01*
X165804028Y-84184280D01*
X165708720Y-84088972D01*
X165588626Y-84027781D01*
X165578837Y-84026231D01*
X165578835Y-84026230D01*
X165465293Y-84008247D01*
X165455500Y-84006696D01*
X165445707Y-84008247D01*
X165332165Y-84026230D01*
X165332163Y-84026231D01*
X165322374Y-84027781D01*
X165202280Y-84088972D01*
X165106972Y-84184280D01*
X165045781Y-84304374D01*
X165044230Y-84314165D01*
X165041165Y-84323599D01*
X165039833Y-84323166D01*
X165013881Y-84377910D01*
X164953612Y-84415435D01*
X164882623Y-84414420D01*
X164823451Y-84375186D01*
X164807579Y-84351247D01*
X164803234Y-84342718D01*
X164761748Y-84261298D01*
X164666440Y-84165990D01*
X164546346Y-84104799D01*
X164536557Y-84103249D01*
X164536555Y-84103248D01*
X164423013Y-84085265D01*
X164413220Y-84083714D01*
X164403427Y-84085265D01*
X164289885Y-84103248D01*
X164289883Y-84103249D01*
X164280094Y-84104799D01*
X164160000Y-84165990D01*
X164064692Y-84261298D01*
X164060193Y-84270127D01*
X164060192Y-84270129D01*
X164059759Y-84270980D01*
X164058959Y-84271828D01*
X164054359Y-84278158D01*
X164053541Y-84277564D01*
X164011012Y-84322596D01*
X163942097Y-84339664D01*
X163908556Y-84333613D01*
X163904460Y-84332282D01*
X163895626Y-84327781D01*
X163762500Y-84306696D01*
X163674720Y-84320599D01*
X163604309Y-84311499D01*
X163549995Y-84265777D01*
X163542742Y-84253353D01*
X163537324Y-84242718D01*
X163487631Y-84145191D01*
X163392323Y-84049883D01*
X163272229Y-83988692D01*
X163262440Y-83987142D01*
X163262438Y-83987141D01*
X163148896Y-83969158D01*
X163139103Y-83967607D01*
X163129310Y-83969158D01*
X163015768Y-83987141D01*
X163015766Y-83987142D01*
X163005977Y-83988692D01*
X162885883Y-84049883D01*
X162790575Y-84145191D01*
X162729384Y-84265285D01*
X162727834Y-84275074D01*
X162727833Y-84275076D01*
X162710973Y-84381528D01*
X162708299Y-84398411D01*
X162709850Y-84408204D01*
X162724313Y-84499518D01*
X162729384Y-84531537D01*
X162790575Y-84651631D01*
X162885883Y-84746939D01*
X163005977Y-84808130D01*
X163015766Y-84809680D01*
X163015768Y-84809681D01*
X163129310Y-84827664D01*
X163139103Y-84829215D01*
X163226883Y-84815312D01*
X163297294Y-84824412D01*
X163351608Y-84870134D01*
X163358858Y-84882553D01*
X163413972Y-84990720D01*
X163509280Y-85086028D01*
X163629374Y-85147219D01*
X163639163Y-85148769D01*
X163639165Y-85148770D01*
X163752707Y-85166753D01*
X163762500Y-85168304D01*
X163772293Y-85166753D01*
X163885835Y-85148770D01*
X163885837Y-85148769D01*
X163895626Y-85147219D01*
X163995680Y-85096239D01*
X164065457Y-85083135D01*
X164131242Y-85109835D01*
X164172148Y-85167863D01*
X164175188Y-85238794D01*
X164141978Y-85297601D01*
X163737779Y-85701800D01*
X163675467Y-85735826D01*
X163648684Y-85738705D01*
X160114177Y-85738705D01*
X160046056Y-85718703D01*
X159999563Y-85665047D01*
X159989459Y-85594773D01*
X160018953Y-85530193D01*
X160034588Y-85515843D01*
X160038552Y-85513823D01*
X160133860Y-85418515D01*
X160195051Y-85298421D01*
X160197065Y-85285709D01*
X160214585Y-85175088D01*
X160216136Y-85165295D01*
X160204294Y-85090528D01*
X160196602Y-85041960D01*
X160196601Y-85041958D01*
X160195051Y-85032169D01*
X160133860Y-84912075D01*
X160038552Y-84816767D01*
X159918458Y-84755576D01*
X159908669Y-84754026D01*
X159908667Y-84754025D01*
X159795125Y-84736042D01*
X159785332Y-84734491D01*
X159775539Y-84736042D01*
X159661997Y-84754025D01*
X159661995Y-84754026D01*
X159652206Y-84755576D01*
X159532112Y-84816767D01*
X159436804Y-84912075D01*
X159375613Y-85032169D01*
X159374062Y-85041960D01*
X159374062Y-85041961D01*
X159371496Y-85058163D01*
X159341084Y-85122316D01*
X159280816Y-85159843D01*
X159246486Y-85163678D01*
X159239934Y-85162123D01*
X159228405Y-85163692D01*
X159228403Y-85163692D01*
X159212827Y-85165812D01*
X159195836Y-85166963D01*
X157625172Y-85166963D01*
X157557051Y-85146961D01*
X157510558Y-85093305D01*
X157500454Y-85023031D01*
X157512905Y-84983760D01*
X157553719Y-84903658D01*
X157567287Y-84877029D01*
X157569412Y-84863617D01*
X157586821Y-84753696D01*
X157588372Y-84743903D01*
X157582182Y-84704822D01*
X157568838Y-84620568D01*
X157568837Y-84620566D01*
X157567287Y-84610777D01*
X157506096Y-84490683D01*
X157410788Y-84395375D01*
X157290694Y-84334184D01*
X157280905Y-84332634D01*
X157280903Y-84332633D01*
X157167361Y-84314650D01*
X157157568Y-84313099D01*
X157147775Y-84314650D01*
X157034233Y-84332633D01*
X157034231Y-84332634D01*
X157024442Y-84334184D01*
X156904348Y-84395375D01*
X156809040Y-84490683D01*
X156804540Y-84499515D01*
X156804538Y-84499518D01*
X156797181Y-84513956D01*
X156748432Y-84565571D01*
X156679517Y-84582636D01*
X156612316Y-84559734D01*
X156595820Y-84545848D01*
X156312016Y-84262045D01*
X156310263Y-84260015D01*
X156307925Y-84255231D01*
X156272023Y-84221927D01*
X156268618Y-84218647D01*
X156255223Y-84205252D01*
X156251253Y-84202528D01*
X156248605Y-84200203D01*
X156234381Y-84187008D01*
X156234378Y-84187006D01*
X156225854Y-84179099D01*
X156215050Y-84174789D01*
X156211061Y-84172267D01*
X156200273Y-84166506D01*
X156195948Y-84164589D01*
X156186354Y-84158008D01*
X156175035Y-84155322D01*
X156175033Y-84155321D01*
X156162373Y-84152317D01*
X156144776Y-84146752D01*
X156130138Y-84140912D01*
X156130135Y-84140911D01*
X156121878Y-84137617D01*
X156115585Y-84137000D01*
X156112506Y-84137000D01*
X156109433Y-84136850D01*
X156109444Y-84136634D01*
X156098069Y-84135302D01*
X156088754Y-84134846D01*
X156077434Y-84132160D01*
X156065905Y-84133729D01*
X156065904Y-84133729D01*
X156050327Y-84135849D01*
X156033336Y-84137000D01*
X155181626Y-84137000D01*
X155113505Y-84116998D01*
X155092531Y-84100096D01*
X154971942Y-83979508D01*
X154970189Y-83977478D01*
X154967851Y-83972694D01*
X154940469Y-83947293D01*
X154931949Y-83939390D01*
X154928544Y-83936110D01*
X154915149Y-83922715D01*
X154911179Y-83919991D01*
X154908531Y-83917666D01*
X154894307Y-83904471D01*
X154894304Y-83904469D01*
X154885780Y-83896562D01*
X154874976Y-83892252D01*
X154870987Y-83889730D01*
X154860199Y-83883969D01*
X154855874Y-83882052D01*
X154846280Y-83875471D01*
X154834961Y-83872785D01*
X154834959Y-83872784D01*
X154822299Y-83869780D01*
X154804702Y-83864215D01*
X154790064Y-83858375D01*
X154790061Y-83858374D01*
X154781804Y-83855080D01*
X154775511Y-83854463D01*
X154772432Y-83854463D01*
X154769359Y-83854313D01*
X154769370Y-83854097D01*
X154757995Y-83852765D01*
X154748680Y-83852309D01*
X154737360Y-83849623D01*
X154725831Y-83851192D01*
X154725830Y-83851192D01*
X154710253Y-83853312D01*
X154693262Y-83854463D01*
X152797403Y-83854463D01*
X152794730Y-83854267D01*
X152789695Y-83852538D01*
X152778073Y-83852974D01*
X152778071Y-83852974D01*
X152740782Y-83854374D01*
X152736056Y-83854463D01*
X152717089Y-83854463D01*
X152712354Y-83855345D01*
X152708828Y-83855573D01*
X152705088Y-83855714D01*
X152677829Y-83856737D01*
X152667144Y-83861327D01*
X152662544Y-83862364D01*
X152650823Y-83865925D01*
X152646420Y-83867624D01*
X152634984Y-83869754D01*
X152613998Y-83882690D01*
X152597626Y-83891194D01*
X152583149Y-83897414D01*
X152583145Y-83897416D01*
X152574974Y-83900927D01*
X152570088Y-83904941D01*
X152567903Y-83907126D01*
X152565640Y-83909178D01*
X152565495Y-83909018D01*
X152556488Y-83916138D01*
X152549593Y-83922390D01*
X152539689Y-83928495D01*
X152523121Y-83950283D01*
X152511927Y-83963102D01*
X152274934Y-84200095D01*
X152212622Y-84234121D01*
X152185839Y-84237000D01*
X151939161Y-84237000D01*
X151871040Y-84216998D01*
X151850066Y-84200095D01*
X151203066Y-83553095D01*
X151169040Y-83490783D01*
X151174105Y-83419968D01*
X151216652Y-83363132D01*
X151283172Y-83338321D01*
X151292161Y-83338000D01*
X154210134Y-83338000D01*
X154212807Y-83338196D01*
X154217842Y-83339925D01*
X154229464Y-83339489D01*
X154229466Y-83339489D01*
X154266755Y-83338089D01*
X154271481Y-83338000D01*
X154290448Y-83338000D01*
X154295183Y-83337118D01*
X154298709Y-83336890D01*
X154302449Y-83336749D01*
X154329708Y-83335726D01*
X154340393Y-83331136D01*
X154344993Y-83330099D01*
X154356714Y-83326538D01*
X154361117Y-83324839D01*
X154372553Y-83322709D01*
X154393541Y-83309772D01*
X154409911Y-83301269D01*
X154424388Y-83295049D01*
X154424392Y-83295047D01*
X154432563Y-83291536D01*
X154437449Y-83287522D01*
X154439634Y-83285337D01*
X154441897Y-83283285D01*
X154442042Y-83283445D01*
X154451049Y-83276325D01*
X154457944Y-83270073D01*
X154467848Y-83263968D01*
X154484416Y-83242180D01*
X154495610Y-83229361D01*
X154829516Y-82895455D01*
X154891828Y-82861429D01*
X154918611Y-82858550D01*
X155921506Y-82858550D01*
X155989627Y-82878552D01*
X156010601Y-82895455D01*
X156828098Y-83712952D01*
X156829854Y-83714986D01*
X156832192Y-83719769D01*
X156840721Y-83727681D01*
X156840722Y-83727682D01*
X156868094Y-83753073D01*
X156871499Y-83756353D01*
X156884893Y-83769747D01*
X156888862Y-83772469D01*
X156891506Y-83774791D01*
X156905732Y-83787988D01*
X156905735Y-83787990D01*
X156914263Y-83795901D01*
X156925070Y-83800213D01*
X156929060Y-83802735D01*
X156939844Y-83808494D01*
X156944169Y-83810411D01*
X156953763Y-83816992D01*
X156965082Y-83819678D01*
X156965084Y-83819679D01*
X156977744Y-83822683D01*
X156995341Y-83828248D01*
X157009979Y-83834088D01*
X157009982Y-83834089D01*
X157018239Y-83837383D01*
X157024532Y-83838000D01*
X157027611Y-83838000D01*
X157030684Y-83838150D01*
X157030673Y-83838366D01*
X157042048Y-83839698D01*
X157051363Y-83840154D01*
X157062683Y-83842840D01*
X157074212Y-83841271D01*
X157074213Y-83841271D01*
X157089790Y-83839151D01*
X157106781Y-83838000D01*
X159704350Y-83838000D01*
X159772471Y-83858002D01*
X159783770Y-83866279D01*
X159787239Y-83869748D01*
X159791216Y-83872476D01*
X159793847Y-83874786D01*
X159816609Y-83895901D01*
X159827416Y-83900212D01*
X159831411Y-83902738D01*
X159842205Y-83908501D01*
X159846517Y-83910412D01*
X159856109Y-83916992D01*
X159867426Y-83919678D01*
X159867427Y-83919678D01*
X159880090Y-83922683D01*
X159897689Y-83928249D01*
X159911923Y-83933928D01*
X159967781Y-83977749D01*
X159991081Y-84044814D01*
X159989680Y-84070668D01*
X159976748Y-84152317D01*
X159969196Y-84200000D01*
X159970747Y-84209793D01*
X159987355Y-84314650D01*
X159990281Y-84333126D01*
X160051472Y-84453220D01*
X160146780Y-84548528D01*
X160266874Y-84609719D01*
X160276663Y-84611269D01*
X160276665Y-84611270D01*
X160390207Y-84629253D01*
X160400000Y-84630804D01*
X160409793Y-84629253D01*
X160523335Y-84611270D01*
X160523337Y-84611269D01*
X160533126Y-84609719D01*
X160653220Y-84548528D01*
X160748528Y-84453220D01*
X160809719Y-84333126D01*
X160813144Y-84311499D01*
X160815873Y-84294272D01*
X160846286Y-84230119D01*
X160906554Y-84192592D01*
X160977543Y-84193606D01*
X161029417Y-84224888D01*
X161206148Y-84401619D01*
X161241502Y-84471003D01*
X161254494Y-84553028D01*
X161257281Y-84570626D01*
X161318472Y-84690720D01*
X161413780Y-84786028D01*
X161533874Y-84847219D01*
X161543663Y-84848769D01*
X161543665Y-84848770D01*
X161657207Y-84866753D01*
X161667000Y-84868304D01*
X161676793Y-84866753D01*
X161790335Y-84848770D01*
X161790337Y-84848769D01*
X161800126Y-84847219D01*
X161920220Y-84786028D01*
X162015528Y-84690720D01*
X162076719Y-84570626D01*
X162079939Y-84550299D01*
X162096253Y-84447293D01*
X162097804Y-84437500D01*
X162088939Y-84381528D01*
X162078270Y-84314165D01*
X162078269Y-84314163D01*
X162076719Y-84304374D01*
X162015528Y-84184280D01*
X161920220Y-84088972D01*
X161800126Y-84027781D01*
X161790335Y-84026230D01*
X161790334Y-84026230D01*
X161700503Y-84012002D01*
X161631119Y-83976648D01*
X161116519Y-83462048D01*
X161114763Y-83460014D01*
X161112425Y-83455231D01*
X161086397Y-83431086D01*
X161076523Y-83421927D01*
X161073118Y-83418647D01*
X161059723Y-83405252D01*
X161055753Y-83402528D01*
X161053105Y-83400203D01*
X161038881Y-83387008D01*
X161038878Y-83387006D01*
X161030354Y-83379099D01*
X161019550Y-83374789D01*
X161015561Y-83372267D01*
X161004773Y-83366506D01*
X161000448Y-83364589D01*
X160990854Y-83358008D01*
X160979535Y-83355322D01*
X160979533Y-83355321D01*
X160966873Y-83352317D01*
X160949276Y-83346752D01*
X160934638Y-83340912D01*
X160934635Y-83340911D01*
X160926378Y-83337617D01*
X160920085Y-83337000D01*
X160917006Y-83337000D01*
X160913933Y-83336850D01*
X160913944Y-83336634D01*
X160902569Y-83335302D01*
X160893254Y-83334846D01*
X160881934Y-83332160D01*
X160870405Y-83333729D01*
X160870404Y-83333729D01*
X160854827Y-83335849D01*
X160837836Y-83337000D01*
X160740794Y-83337000D01*
X160672673Y-83316998D01*
X160626180Y-83263342D01*
X160616345Y-83191289D01*
X160618273Y-83179121D01*
X160630804Y-83100000D01*
X160629253Y-83090207D01*
X160611270Y-82976665D01*
X160611269Y-82976663D01*
X160609719Y-82966874D01*
X160548528Y-82846780D01*
X160453220Y-82751472D01*
X160333126Y-82690281D01*
X160323337Y-82688731D01*
X160323335Y-82688730D01*
X160209793Y-82670747D01*
X160200000Y-82669196D01*
X160190207Y-82670747D01*
X160076665Y-82688730D01*
X160076663Y-82688731D01*
X160066874Y-82690281D01*
X159946780Y-82751472D01*
X159851472Y-82846780D01*
X159790281Y-82966874D01*
X159788731Y-82976663D01*
X159788730Y-82976665D01*
X159770747Y-83090207D01*
X159769196Y-83100000D01*
X159770747Y-83109792D01*
X159770747Y-83111000D01*
X159750745Y-83179121D01*
X159697089Y-83225614D01*
X159644747Y-83237000D01*
X157775792Y-83237000D01*
X157707671Y-83216998D01*
X157661178Y-83163342D01*
X157651074Y-83093068D01*
X157663524Y-83053799D01*
X157668641Y-83043756D01*
X157668641Y-83043755D01*
X157673142Y-83034922D01*
X157694227Y-82901796D01*
X157685513Y-82846780D01*
X157674693Y-82778461D01*
X157674692Y-82778459D01*
X157673142Y-82768670D01*
X157611951Y-82648576D01*
X157516643Y-82553268D01*
X157396549Y-82492077D01*
X157386760Y-82490527D01*
X157386758Y-82490526D01*
X157273216Y-82472543D01*
X157263423Y-82470992D01*
X157253630Y-82472543D01*
X157140088Y-82490526D01*
X157140086Y-82490527D01*
X157130297Y-82492077D01*
X157010203Y-82553268D01*
X156914895Y-82648576D01*
X156910395Y-82657408D01*
X156891950Y-82693608D01*
X156843202Y-82745223D01*
X156774287Y-82762289D01*
X156707085Y-82739388D01*
X156690588Y-82725500D01*
X156347686Y-82382598D01*
X156345930Y-82380564D01*
X156343592Y-82375781D01*
X156329779Y-82362967D01*
X156307690Y-82342477D01*
X156304285Y-82339197D01*
X156290890Y-82325802D01*
X156286920Y-82323078D01*
X156284272Y-82320753D01*
X156270048Y-82307558D01*
X156270045Y-82307556D01*
X156261521Y-82299649D01*
X156250717Y-82295339D01*
X156246728Y-82292817D01*
X156235940Y-82287056D01*
X156231615Y-82285139D01*
X156222021Y-82278558D01*
X156210702Y-82275872D01*
X156210700Y-82275871D01*
X156198040Y-82272867D01*
X156180443Y-82267302D01*
X156165805Y-82261462D01*
X156165802Y-82261461D01*
X156157545Y-82258167D01*
X156151252Y-82257550D01*
X156148173Y-82257550D01*
X156145100Y-82257400D01*
X156145111Y-82257184D01*
X156133736Y-82255852D01*
X156124421Y-82255396D01*
X156113101Y-82252710D01*
X156101572Y-82254279D01*
X156101571Y-82254279D01*
X156085994Y-82256399D01*
X156069003Y-82257550D01*
X154794320Y-82257550D01*
X154791645Y-82257354D01*
X154786608Y-82255624D01*
X154737680Y-82257461D01*
X154732953Y-82257550D01*
X154714002Y-82257550D01*
X154709269Y-82258432D01*
X154705742Y-82258660D01*
X154686370Y-82259387D01*
X154686368Y-82259388D01*
X154674742Y-82259824D01*
X154664050Y-82264418D01*
X154659447Y-82265455D01*
X154647737Y-82269012D01*
X154643334Y-82270711D01*
X154631897Y-82272841D01*
X154621996Y-82278944D01*
X154621993Y-82278945D01*
X154610906Y-82285779D01*
X154594535Y-82294283D01*
X154580056Y-82300504D01*
X154580053Y-82300506D01*
X154571888Y-82304014D01*
X154567001Y-82308027D01*
X154564806Y-82310222D01*
X154562536Y-82312280D01*
X154562389Y-82312118D01*
X154553411Y-82319215D01*
X154546504Y-82325479D01*
X154536602Y-82331582D01*
X154520041Y-82353361D01*
X154508846Y-82366182D01*
X154327547Y-82547482D01*
X154174934Y-82700095D01*
X154112621Y-82734120D01*
X154085838Y-82737000D01*
X153947007Y-82737000D01*
X153878886Y-82716998D01*
X153832393Y-82663342D01*
X153822289Y-82593068D01*
X153851783Y-82528488D01*
X153889804Y-82498733D01*
X153894033Y-82496578D01*
X153915720Y-82485528D01*
X154011028Y-82390220D01*
X154072219Y-82270126D01*
X154074106Y-82258216D01*
X154091753Y-82146793D01*
X154093304Y-82137000D01*
X154080825Y-82058211D01*
X154089925Y-81987800D01*
X154135647Y-81933486D01*
X154205274Y-81912500D01*
X164177802Y-81912500D01*
X164245923Y-81932502D01*
X164266897Y-81949405D01*
X165029460Y-82711968D01*
X165063486Y-82774280D01*
X165058421Y-82845095D01*
X165015874Y-82901931D01*
X164960076Y-82925512D01*
X164876666Y-82938723D01*
X164876665Y-82938723D01*
X164866874Y-82940274D01*
X164746780Y-83001465D01*
X164651472Y-83096773D01*
X164590281Y-83216867D01*
X164588731Y-83226656D01*
X164588730Y-83226658D01*
X164577898Y-83295049D01*
X164569196Y-83349993D01*
X164570747Y-83359786D01*
X164586944Y-83462048D01*
X164590281Y-83483119D01*
X164651472Y-83603213D01*
X164746780Y-83698521D01*
X164866874Y-83759712D01*
X164876663Y-83761262D01*
X164876665Y-83761263D01*
X164990207Y-83779246D01*
X165000000Y-83780797D01*
X165009793Y-83779246D01*
X165123335Y-83761263D01*
X165123337Y-83761262D01*
X165133126Y-83759712D01*
X165253220Y-83698521D01*
X165348528Y-83603213D01*
X165409719Y-83483119D01*
X165418484Y-83427781D01*
X165424481Y-83389917D01*
X165454894Y-83325764D01*
X165515162Y-83288237D01*
X165586151Y-83289251D01*
X165638025Y-83320533D01*
X167202169Y-84884677D01*
X167236195Y-84946989D01*
X167237523Y-84993482D01*
X167221365Y-85095500D01*
X167222916Y-85105293D01*
X167232684Y-85166963D01*
X167242450Y-85228626D01*
X167303641Y-85348720D01*
X167398949Y-85444028D01*
X167519043Y-85505219D01*
X167528832Y-85506769D01*
X167528834Y-85506770D01*
X167642376Y-85524753D01*
X167652169Y-85526304D01*
X167661962Y-85524753D01*
X167775504Y-85506770D01*
X167775506Y-85506769D01*
X167785295Y-85505219D01*
X167905389Y-85444028D01*
X168000697Y-85348720D01*
X168001565Y-85349588D01*
X168050019Y-85312228D01*
X168120756Y-85306154D01*
X168184824Y-85340549D01*
X168250653Y-85406378D01*
X168340340Y-85452076D01*
X168391954Y-85500823D01*
X168409020Y-85569738D01*
X168386119Y-85636940D01*
X168330522Y-85681092D01*
X168302848Y-85688790D01*
X168271671Y-85693728D01*
X168271663Y-85693731D01*
X168261874Y-85695281D01*
X168141780Y-85756472D01*
X168046472Y-85851780D01*
X167985281Y-85971874D01*
X167983731Y-85981663D01*
X167983730Y-85981665D01*
X167966765Y-86088780D01*
X167964196Y-86105000D01*
X167965747Y-86114793D01*
X167983358Y-86225983D01*
X167985281Y-86238126D01*
X168046472Y-86358220D01*
X168141780Y-86453528D01*
X168261874Y-86514719D01*
X168271663Y-86516269D01*
X168271665Y-86516270D01*
X168385207Y-86534253D01*
X168395000Y-86535804D01*
X168404793Y-86534253D01*
X168518335Y-86516270D01*
X168518337Y-86516269D01*
X168528126Y-86514719D01*
X168648220Y-86453528D01*
X168743528Y-86358220D01*
X168804719Y-86238126D01*
X168806643Y-86225983D01*
X168824253Y-86114793D01*
X168825804Y-86105000D01*
X168823235Y-86088780D01*
X168809174Y-86000000D01*
X175069196Y-86000000D01*
X175070747Y-86009793D01*
X175086465Y-86109030D01*
X175090281Y-86133126D01*
X175151472Y-86253220D01*
X175246780Y-86348528D01*
X175366874Y-86409719D01*
X175376663Y-86411269D01*
X175376665Y-86411270D01*
X175490207Y-86429253D01*
X175500000Y-86430804D01*
X175509793Y-86429253D01*
X175623335Y-86411270D01*
X175623337Y-86411269D01*
X175633126Y-86409719D01*
X175753220Y-86348528D01*
X175848528Y-86253220D01*
X175909719Y-86133126D01*
X175913536Y-86109030D01*
X175929253Y-86009793D01*
X175930804Y-86000000D01*
X175927551Y-85979459D01*
X175911270Y-85876665D01*
X175911269Y-85876663D01*
X175909719Y-85866874D01*
X175848528Y-85746780D01*
X175753220Y-85651472D01*
X175633126Y-85590281D01*
X175623337Y-85588731D01*
X175623335Y-85588730D01*
X175509793Y-85570747D01*
X175500000Y-85569196D01*
X175490207Y-85570747D01*
X175376665Y-85588730D01*
X175376663Y-85588731D01*
X175366874Y-85590281D01*
X175246780Y-85651472D01*
X175151472Y-85746780D01*
X175090281Y-85866874D01*
X175088731Y-85876663D01*
X175088730Y-85876665D01*
X175072449Y-85979459D01*
X175069196Y-86000000D01*
X168809174Y-86000000D01*
X168806270Y-85981665D01*
X168806269Y-85981663D01*
X168804719Y-85971874D01*
X168743528Y-85851780D01*
X168648220Y-85756472D01*
X168558533Y-85710774D01*
X168506919Y-85662027D01*
X168489853Y-85593112D01*
X168498492Y-85567762D01*
X178932020Y-85567762D01*
X178932536Y-85573906D01*
X178947867Y-85756472D01*
X178949259Y-85773053D01*
X178950958Y-85778978D01*
X179003105Y-85960835D01*
X179006044Y-85971086D01*
X179008859Y-85976563D01*
X179008860Y-85976566D01*
X179097397Y-86148841D01*
X179100212Y-86154318D01*
X179228177Y-86315770D01*
X179232870Y-86319764D01*
X179232871Y-86319765D01*
X179367537Y-86434374D01*
X179385064Y-86449291D01*
X179564898Y-86549797D01*
X179649522Y-86577293D01*
X179754971Y-86611556D01*
X179754975Y-86611557D01*
X179760829Y-86613459D01*
X179965394Y-86637851D01*
X179971529Y-86637379D01*
X179971531Y-86637379D01*
X180027539Y-86633069D01*
X180170800Y-86622046D01*
X180176730Y-86620390D01*
X180176732Y-86620390D01*
X180331088Y-86577293D01*
X180369225Y-86566645D01*
X180374714Y-86563872D01*
X180374720Y-86563870D01*
X180518921Y-86491028D01*
X180553110Y-86473758D01*
X180579004Y-86453528D01*
X180692019Y-86365231D01*
X180715451Y-86346924D01*
X180719702Y-86342000D01*
X180846040Y-86195634D01*
X180846040Y-86195633D01*
X180850064Y-86190972D01*
X180856856Y-86179017D01*
X180893340Y-86114793D01*
X180951823Y-86011844D01*
X181016851Y-85816363D01*
X181042671Y-85611974D01*
X181043083Y-85582500D01*
X181022980Y-85377470D01*
X180963435Y-85180249D01*
X180866718Y-84998349D01*
X180772281Y-84882558D01*
X180740406Y-84843475D01*
X180740403Y-84843472D01*
X180736511Y-84838700D01*
X180729673Y-84833043D01*
X180582525Y-84711311D01*
X180582521Y-84711309D01*
X180577775Y-84707382D01*
X180396555Y-84609397D01*
X180199754Y-84548477D01*
X180193629Y-84547833D01*
X180193628Y-84547833D01*
X180000998Y-84527587D01*
X180000996Y-84527587D01*
X179994869Y-84526943D01*
X179908029Y-84534846D01*
X179795842Y-84545055D01*
X179795839Y-84545056D01*
X179789703Y-84545614D01*
X179592072Y-84603780D01*
X179586607Y-84606637D01*
X179577745Y-84611270D01*
X179409502Y-84699226D01*
X179404701Y-84703086D01*
X179404698Y-84703088D01*
X179264488Y-84815820D01*
X179248947Y-84828315D01*
X179116524Y-84986130D01*
X179113556Y-84991528D01*
X179113553Y-84991533D01*
X179055991Y-85096239D01*
X179017276Y-85166662D01*
X178954984Y-85363032D01*
X178954298Y-85369149D01*
X178954297Y-85369153D01*
X178938070Y-85513823D01*
X178932020Y-85567762D01*
X168498492Y-85567762D01*
X168512754Y-85525910D01*
X168568351Y-85481758D01*
X168596025Y-85474060D01*
X168627202Y-85469122D01*
X168627210Y-85469119D01*
X168636999Y-85467569D01*
X168757093Y-85406378D01*
X168852401Y-85311070D01*
X168913592Y-85190976D01*
X168916109Y-85175088D01*
X168933126Y-85067643D01*
X168934677Y-85057850D01*
X168932707Y-85045409D01*
X168915143Y-84934515D01*
X168915142Y-84934513D01*
X168913592Y-84924724D01*
X168852401Y-84804630D01*
X168757093Y-84709322D01*
X168636999Y-84648131D01*
X168627210Y-84646581D01*
X168627208Y-84646580D01*
X168513666Y-84628597D01*
X168503873Y-84627046D01*
X168494080Y-84628597D01*
X168380538Y-84646580D01*
X168380536Y-84646581D01*
X168370747Y-84648131D01*
X168250653Y-84709322D01*
X168155345Y-84804630D01*
X168154477Y-84803762D01*
X168106023Y-84841122D01*
X168035286Y-84847196D01*
X167971218Y-84812801D01*
X167925820Y-84767403D01*
X167908859Y-84745820D01*
X167906205Y-84739644D01*
X167902192Y-84734757D01*
X167899996Y-84732561D01*
X167897939Y-84730292D01*
X167898101Y-84730145D01*
X167891004Y-84721167D01*
X167884741Y-84714260D01*
X167878637Y-84704358D01*
X167856862Y-84687800D01*
X167844034Y-84676599D01*
X167826370Y-84658935D01*
X167792344Y-84596623D01*
X167797409Y-84525808D01*
X167839956Y-84468972D01*
X167895756Y-84445391D01*
X167902834Y-84444270D01*
X167902835Y-84444270D01*
X167912626Y-84442719D01*
X168032720Y-84381528D01*
X168128028Y-84286220D01*
X168189219Y-84166126D01*
X168190931Y-84155321D01*
X168208753Y-84042793D01*
X168210304Y-84033000D01*
X168200325Y-83969994D01*
X168190770Y-83909665D01*
X168190769Y-83909663D01*
X168189219Y-83899874D01*
X168157438Y-83837500D01*
X173531696Y-83837500D01*
X173533247Y-83847293D01*
X173549558Y-83950274D01*
X173552781Y-83970626D01*
X173613972Y-84090720D01*
X173709280Y-84186028D01*
X173829374Y-84247219D01*
X173839163Y-84248769D01*
X173839165Y-84248770D01*
X173952707Y-84266753D01*
X173962500Y-84268304D01*
X173972293Y-84266753D01*
X174085835Y-84248770D01*
X174085837Y-84248769D01*
X174095626Y-84247219D01*
X174215720Y-84186028D01*
X174311028Y-84090720D01*
X174372219Y-83970626D01*
X174375443Y-83950274D01*
X174391753Y-83847293D01*
X174393304Y-83837500D01*
X174390957Y-83822683D01*
X174373770Y-83714165D01*
X174373769Y-83714163D01*
X174372219Y-83704374D01*
X174311028Y-83584280D01*
X174215720Y-83488972D01*
X174095626Y-83427781D01*
X174085837Y-83426231D01*
X174085835Y-83426230D01*
X173972293Y-83408247D01*
X173962500Y-83406696D01*
X173952707Y-83408247D01*
X173839165Y-83426230D01*
X173839163Y-83426231D01*
X173829374Y-83427781D01*
X173709280Y-83488972D01*
X173613972Y-83584280D01*
X173552781Y-83704374D01*
X173551231Y-83714163D01*
X173551230Y-83714165D01*
X173534043Y-83822683D01*
X173531696Y-83837500D01*
X168157438Y-83837500D01*
X168128028Y-83779780D01*
X168032720Y-83684472D01*
X167912626Y-83623281D01*
X167902837Y-83621731D01*
X167902835Y-83621730D01*
X167789293Y-83603747D01*
X167779500Y-83602196D01*
X167769707Y-83603747D01*
X167656165Y-83621730D01*
X167656163Y-83621731D01*
X167646374Y-83623281D01*
X167526280Y-83684472D01*
X167430972Y-83779780D01*
X167369781Y-83899874D01*
X167368230Y-83909665D01*
X167368230Y-83909666D01*
X167367109Y-83916744D01*
X167336698Y-83980897D01*
X167276430Y-84018425D01*
X167205441Y-84017412D01*
X167153565Y-83986130D01*
X166017188Y-82849753D01*
X171532915Y-82849753D01*
X171534466Y-82859546D01*
X171549981Y-82957502D01*
X171554000Y-82982879D01*
X171615191Y-83102973D01*
X171710499Y-83198281D01*
X171830593Y-83259472D01*
X171840382Y-83261022D01*
X171840384Y-83261023D01*
X171953926Y-83279006D01*
X171963719Y-83280557D01*
X171973512Y-83279006D01*
X172087054Y-83261023D01*
X172087056Y-83261022D01*
X172096845Y-83259472D01*
X172216939Y-83198281D01*
X172312247Y-83102973D01*
X172350569Y-83027762D01*
X178932020Y-83027762D01*
X178949259Y-83233053D01*
X178950958Y-83238978D01*
X179003418Y-83421927D01*
X179006044Y-83431086D01*
X179008859Y-83436563D01*
X179008860Y-83436566D01*
X179090789Y-83595983D01*
X179100212Y-83614318D01*
X179228177Y-83775770D01*
X179232870Y-83779764D01*
X179232871Y-83779765D01*
X179379401Y-83904471D01*
X179385064Y-83909291D01*
X179390442Y-83912297D01*
X179390444Y-83912298D01*
X179453060Y-83947293D01*
X179564898Y-84009797D01*
X179659738Y-84040613D01*
X179754971Y-84071556D01*
X179754975Y-84071557D01*
X179760829Y-84073459D01*
X179965394Y-84097851D01*
X179971529Y-84097379D01*
X179971531Y-84097379D01*
X180027539Y-84093069D01*
X180170800Y-84082046D01*
X180176730Y-84080390D01*
X180176732Y-84080390D01*
X180349035Y-84032282D01*
X180369225Y-84026645D01*
X180374714Y-84023872D01*
X180374720Y-84023870D01*
X180532585Y-83944126D01*
X180553110Y-83933758D01*
X180559847Y-83928495D01*
X180654482Y-83854558D01*
X180715451Y-83806924D01*
X180725277Y-83795541D01*
X180846040Y-83655634D01*
X180846040Y-83655633D01*
X180850064Y-83650972D01*
X180870887Y-83614318D01*
X180905666Y-83553095D01*
X180951823Y-83471844D01*
X181016851Y-83276363D01*
X181042671Y-83071974D01*
X181043083Y-83042500D01*
X181041638Y-83027762D01*
X181472020Y-83027762D01*
X181489259Y-83233053D01*
X181490958Y-83238978D01*
X181543418Y-83421927D01*
X181546044Y-83431086D01*
X181548859Y-83436563D01*
X181548860Y-83436566D01*
X181630789Y-83595983D01*
X181640212Y-83614318D01*
X181768177Y-83775770D01*
X181772870Y-83779764D01*
X181772871Y-83779765D01*
X181919401Y-83904471D01*
X181925064Y-83909291D01*
X181930442Y-83912297D01*
X181930444Y-83912298D01*
X181993060Y-83947293D01*
X182104898Y-84009797D01*
X182199738Y-84040613D01*
X182294971Y-84071556D01*
X182294975Y-84071557D01*
X182300829Y-84073459D01*
X182505394Y-84097851D01*
X182511529Y-84097379D01*
X182511531Y-84097379D01*
X182567539Y-84093069D01*
X182710800Y-84082046D01*
X182716730Y-84080390D01*
X182716732Y-84080390D01*
X182889035Y-84032282D01*
X182909225Y-84026645D01*
X182914714Y-84023872D01*
X182914720Y-84023870D01*
X183072585Y-83944126D01*
X183093110Y-83933758D01*
X183099847Y-83928495D01*
X183194482Y-83854558D01*
X183255451Y-83806924D01*
X183265277Y-83795541D01*
X183386040Y-83655634D01*
X183386040Y-83655633D01*
X183390064Y-83650972D01*
X183410887Y-83614318D01*
X183445666Y-83553095D01*
X183491823Y-83471844D01*
X183556851Y-83276363D01*
X183582671Y-83071974D01*
X183583083Y-83042500D01*
X183562980Y-82837470D01*
X183503435Y-82640249D01*
X183406718Y-82458349D01*
X183330372Y-82364740D01*
X183280406Y-82303475D01*
X183280403Y-82303472D01*
X183276511Y-82298700D01*
X183269400Y-82292817D01*
X183122525Y-82171311D01*
X183122521Y-82171309D01*
X183117775Y-82167382D01*
X182936555Y-82069397D01*
X182739754Y-82008477D01*
X182733629Y-82007833D01*
X182733628Y-82007833D01*
X182540998Y-81987587D01*
X182540996Y-81987587D01*
X182534869Y-81986943D01*
X182448029Y-81994846D01*
X182335842Y-82005055D01*
X182335839Y-82005056D01*
X182329703Y-82005614D01*
X182132072Y-82063780D01*
X181949502Y-82159226D01*
X181944701Y-82163086D01*
X181944698Y-82163088D01*
X181799962Y-82279459D01*
X181788947Y-82288315D01*
X181656524Y-82446130D01*
X181653556Y-82451528D01*
X181653553Y-82451533D01*
X181568984Y-82605365D01*
X181557276Y-82626662D01*
X181494984Y-82823032D01*
X181494298Y-82829149D01*
X181494297Y-82829153D01*
X181481328Y-82944775D01*
X181472020Y-83027762D01*
X181041638Y-83027762D01*
X181022980Y-82837470D01*
X180963435Y-82640249D01*
X180866718Y-82458349D01*
X180790372Y-82364740D01*
X180740406Y-82303475D01*
X180740403Y-82303472D01*
X180736511Y-82298700D01*
X180729400Y-82292817D01*
X180582525Y-82171311D01*
X180582521Y-82171309D01*
X180577775Y-82167382D01*
X180396555Y-82069397D01*
X180199754Y-82008477D01*
X180193629Y-82007833D01*
X180193628Y-82007833D01*
X180000998Y-81987587D01*
X180000996Y-81987587D01*
X179994869Y-81986943D01*
X179908029Y-81994846D01*
X179795842Y-82005055D01*
X179795839Y-82005056D01*
X179789703Y-82005614D01*
X179592072Y-82063780D01*
X179409502Y-82159226D01*
X179404701Y-82163086D01*
X179404698Y-82163088D01*
X179259962Y-82279459D01*
X179248947Y-82288315D01*
X179116524Y-82446130D01*
X179113556Y-82451528D01*
X179113553Y-82451533D01*
X179028984Y-82605365D01*
X179017276Y-82626662D01*
X178954984Y-82823032D01*
X178954298Y-82829149D01*
X178954297Y-82829153D01*
X178941328Y-82944775D01*
X178932020Y-83027762D01*
X172350569Y-83027762D01*
X172373438Y-82982879D01*
X172377458Y-82957502D01*
X172392972Y-82859546D01*
X172394523Y-82849753D01*
X172389361Y-82817159D01*
X172374989Y-82726418D01*
X172374988Y-82726416D01*
X172373438Y-82716627D01*
X172312247Y-82596533D01*
X172216939Y-82501225D01*
X172096845Y-82440034D01*
X172087056Y-82438484D01*
X172087054Y-82438483D01*
X171973512Y-82420500D01*
X171963719Y-82418949D01*
X171953926Y-82420500D01*
X171840384Y-82438483D01*
X171840382Y-82438484D01*
X171830593Y-82440034D01*
X171710499Y-82501225D01*
X171615191Y-82596533D01*
X171554000Y-82716627D01*
X171552450Y-82726416D01*
X171552449Y-82726418D01*
X171538077Y-82817159D01*
X171532915Y-82849753D01*
X166017188Y-82849753D01*
X165304934Y-82137500D01*
X172644196Y-82137500D01*
X172645747Y-82147293D01*
X172663369Y-82258552D01*
X172665281Y-82270626D01*
X172726472Y-82390720D01*
X172821780Y-82486028D01*
X172941874Y-82547219D01*
X172951663Y-82548769D01*
X172951665Y-82548770D01*
X173065207Y-82566753D01*
X173075000Y-82568304D01*
X173084793Y-82566753D01*
X173198335Y-82548770D01*
X173198337Y-82548769D01*
X173208126Y-82547219D01*
X173328220Y-82486028D01*
X173423528Y-82390720D01*
X173484719Y-82270626D01*
X173486632Y-82258552D01*
X173504253Y-82147293D01*
X173505804Y-82137500D01*
X173494729Y-82067575D01*
X173486270Y-82014165D01*
X173486269Y-82014163D01*
X173484719Y-82004374D01*
X173423528Y-81884280D01*
X173328220Y-81788972D01*
X173208126Y-81727781D01*
X173198337Y-81726231D01*
X173198335Y-81726230D01*
X173084793Y-81708247D01*
X173075000Y-81706696D01*
X173065207Y-81708247D01*
X172951665Y-81726230D01*
X172951663Y-81726231D01*
X172941874Y-81727781D01*
X172821780Y-81788972D01*
X172726472Y-81884280D01*
X172665281Y-82004374D01*
X172663731Y-82014163D01*
X172663730Y-82014165D01*
X172655271Y-82067575D01*
X172644196Y-82137500D01*
X165304934Y-82137500D01*
X164603982Y-81436548D01*
X164602226Y-81434514D01*
X164599888Y-81429731D01*
X164563986Y-81396427D01*
X164560581Y-81393147D01*
X164547186Y-81379752D01*
X164543216Y-81377028D01*
X164540568Y-81374703D01*
X164526344Y-81361508D01*
X164526341Y-81361506D01*
X164517817Y-81353599D01*
X164507013Y-81349289D01*
X164503024Y-81346767D01*
X164492236Y-81341006D01*
X164487911Y-81339089D01*
X164478317Y-81332508D01*
X164466998Y-81329822D01*
X164466996Y-81329821D01*
X164454336Y-81326817D01*
X164436739Y-81321252D01*
X164422101Y-81315412D01*
X164422098Y-81315411D01*
X164413841Y-81312117D01*
X164407548Y-81311500D01*
X164404469Y-81311500D01*
X164401396Y-81311350D01*
X164401407Y-81311134D01*
X164390032Y-81309802D01*
X164380717Y-81309346D01*
X164369397Y-81306660D01*
X164357868Y-81308229D01*
X164357867Y-81308229D01*
X164342290Y-81310349D01*
X164325299Y-81311500D01*
X157723077Y-81311500D01*
X157654956Y-81291498D01*
X157608463Y-81237842D01*
X157598359Y-81167568D01*
X157607424Y-81138981D01*
X157607153Y-81138893D01*
X157610219Y-81129459D01*
X157614719Y-81120626D01*
X157617467Y-81103280D01*
X157623474Y-81065354D01*
X170694788Y-81065354D01*
X170696339Y-81075147D01*
X170710241Y-81162918D01*
X170715873Y-81198480D01*
X170777064Y-81318574D01*
X170872372Y-81413882D01*
X170992466Y-81475073D01*
X171002255Y-81476623D01*
X171002257Y-81476624D01*
X171115799Y-81494607D01*
X171125592Y-81496158D01*
X171135385Y-81494607D01*
X171248927Y-81476624D01*
X171248929Y-81476623D01*
X171258718Y-81475073D01*
X171378812Y-81413882D01*
X171474120Y-81318574D01*
X171515987Y-81236406D01*
X173467418Y-81236406D01*
X173468969Y-81246199D01*
X173483580Y-81338447D01*
X173488503Y-81369532D01*
X173549694Y-81489626D01*
X173645002Y-81584934D01*
X173765096Y-81646125D01*
X173774885Y-81647675D01*
X173774887Y-81647676D01*
X173888429Y-81665659D01*
X173898222Y-81667210D01*
X173908015Y-81665659D01*
X174021557Y-81647676D01*
X174021559Y-81647675D01*
X174031348Y-81646125D01*
X174151442Y-81584934D01*
X174246750Y-81489626D01*
X174307941Y-81369532D01*
X174312865Y-81338447D01*
X174327475Y-81246199D01*
X174329026Y-81236406D01*
X174322275Y-81193780D01*
X174309492Y-81113071D01*
X174309491Y-81113069D01*
X174307941Y-81103280D01*
X174246750Y-80983186D01*
X174151442Y-80887878D01*
X174031348Y-80826687D01*
X174021559Y-80825137D01*
X174021557Y-80825136D01*
X173908015Y-80807153D01*
X173898222Y-80805602D01*
X173888429Y-80807153D01*
X173774887Y-80825136D01*
X173774885Y-80825137D01*
X173765096Y-80826687D01*
X173645002Y-80887878D01*
X173549694Y-80983186D01*
X173488503Y-81103280D01*
X173486953Y-81113069D01*
X173486952Y-81113071D01*
X173474169Y-81193780D01*
X173467418Y-81236406D01*
X171515987Y-81236406D01*
X171535311Y-81198480D01*
X171540944Y-81162918D01*
X171554845Y-81075147D01*
X171556396Y-81065354D01*
X171542514Y-80977707D01*
X171536862Y-80942019D01*
X171536861Y-80942017D01*
X171535311Y-80932228D01*
X171474120Y-80812134D01*
X171378812Y-80716826D01*
X171258718Y-80655635D01*
X171248929Y-80654085D01*
X171248927Y-80654084D01*
X171135385Y-80636101D01*
X171125592Y-80634550D01*
X171115799Y-80636101D01*
X171002257Y-80654084D01*
X171002255Y-80654085D01*
X170992466Y-80655635D01*
X170872372Y-80716826D01*
X170777064Y-80812134D01*
X170715873Y-80932228D01*
X170714323Y-80942017D01*
X170714322Y-80942019D01*
X170708670Y-80977707D01*
X170694788Y-81065354D01*
X157623474Y-81065354D01*
X157634253Y-80997293D01*
X157635804Y-80987500D01*
X157628601Y-80942019D01*
X157616270Y-80864165D01*
X157616269Y-80864163D01*
X157614719Y-80854374D01*
X157553528Y-80734280D01*
X157458220Y-80638972D01*
X157397862Y-80608218D01*
X157391384Y-80604917D01*
X157339769Y-80556168D01*
X157322829Y-80487762D01*
X178932020Y-80487762D01*
X178932536Y-80493906D01*
X178946554Y-80660835D01*
X178949259Y-80693053D01*
X178950958Y-80698978D01*
X179003834Y-80883378D01*
X179006044Y-80891086D01*
X179008859Y-80896563D01*
X179008860Y-80896566D01*
X179090572Y-81055561D01*
X179100212Y-81074318D01*
X179228177Y-81235770D01*
X179232870Y-81239764D01*
X179232871Y-81239765D01*
X179360319Y-81348231D01*
X179385064Y-81369291D01*
X179390442Y-81372297D01*
X179390444Y-81372298D01*
X179433618Y-81396427D01*
X179564898Y-81469797D01*
X179641255Y-81494607D01*
X179754971Y-81531556D01*
X179754975Y-81531557D01*
X179760829Y-81533459D01*
X179965394Y-81557851D01*
X179971529Y-81557379D01*
X179971531Y-81557379D01*
X180027539Y-81553069D01*
X180170800Y-81542046D01*
X180176730Y-81540390D01*
X180176732Y-81540390D01*
X180300604Y-81505804D01*
X180369225Y-81486645D01*
X180374714Y-81483872D01*
X180374720Y-81483870D01*
X180521293Y-81409830D01*
X180553110Y-81393758D01*
X180577500Y-81374703D01*
X180656975Y-81312610D01*
X180715451Y-81266924D01*
X180733341Y-81246199D01*
X180846040Y-81115634D01*
X180846040Y-81115633D01*
X180850064Y-81110972D01*
X180853389Y-81105120D01*
X180920206Y-80987500D01*
X180951823Y-80931844D01*
X181016851Y-80736363D01*
X181042671Y-80531974D01*
X181043083Y-80502500D01*
X181041638Y-80487762D01*
X181472020Y-80487762D01*
X181472536Y-80493906D01*
X181486554Y-80660835D01*
X181489259Y-80693053D01*
X181490958Y-80698978D01*
X181543834Y-80883378D01*
X181546044Y-80891086D01*
X181548859Y-80896563D01*
X181548860Y-80896566D01*
X181630572Y-81055561D01*
X181640212Y-81074318D01*
X181768177Y-81235770D01*
X181772870Y-81239764D01*
X181772871Y-81239765D01*
X181900319Y-81348231D01*
X181925064Y-81369291D01*
X181930442Y-81372297D01*
X181930444Y-81372298D01*
X181973618Y-81396427D01*
X182104898Y-81469797D01*
X182181255Y-81494607D01*
X182294971Y-81531556D01*
X182294975Y-81531557D01*
X182300829Y-81533459D01*
X182505394Y-81557851D01*
X182511529Y-81557379D01*
X182511531Y-81557379D01*
X182567539Y-81553069D01*
X182710800Y-81542046D01*
X182716730Y-81540390D01*
X182716732Y-81540390D01*
X182840604Y-81505804D01*
X182909225Y-81486645D01*
X182914714Y-81483872D01*
X182914720Y-81483870D01*
X183061293Y-81409830D01*
X183093110Y-81393758D01*
X183117500Y-81374703D01*
X183196975Y-81312610D01*
X183255451Y-81266924D01*
X183273341Y-81246199D01*
X183386040Y-81115634D01*
X183386040Y-81115633D01*
X183390064Y-81110972D01*
X183393389Y-81105120D01*
X183460206Y-80987500D01*
X183491823Y-80931844D01*
X183556851Y-80736363D01*
X183582671Y-80531974D01*
X183583083Y-80502500D01*
X183562980Y-80297470D01*
X183503435Y-80100249D01*
X183406718Y-79918349D01*
X183327677Y-79821436D01*
X183280406Y-79763475D01*
X183280403Y-79763472D01*
X183276511Y-79758700D01*
X183269673Y-79753043D01*
X183122525Y-79631311D01*
X183122521Y-79631309D01*
X183117775Y-79627382D01*
X182936555Y-79529397D01*
X182739754Y-79468477D01*
X182733629Y-79467833D01*
X182733628Y-79467833D01*
X182540998Y-79447587D01*
X182540996Y-79447587D01*
X182534869Y-79446943D01*
X182448029Y-79454846D01*
X182335842Y-79465055D01*
X182335839Y-79465056D01*
X182329703Y-79465614D01*
X182132072Y-79523780D01*
X181949502Y-79619226D01*
X181944701Y-79623086D01*
X181944698Y-79623088D01*
X181806205Y-79734439D01*
X181788947Y-79748315D01*
X181656524Y-79906130D01*
X181653556Y-79911528D01*
X181653553Y-79911533D01*
X181571361Y-80061041D01*
X181557276Y-80086662D01*
X181494984Y-80283032D01*
X181494298Y-80289149D01*
X181494297Y-80289153D01*
X181475716Y-80454809D01*
X181472020Y-80487762D01*
X181041638Y-80487762D01*
X181022980Y-80297470D01*
X180963435Y-80100249D01*
X180866718Y-79918349D01*
X180787677Y-79821436D01*
X180740406Y-79763475D01*
X180740403Y-79763472D01*
X180736511Y-79758700D01*
X180729673Y-79753043D01*
X180582525Y-79631311D01*
X180582521Y-79631309D01*
X180577775Y-79627382D01*
X180396555Y-79529397D01*
X180199754Y-79468477D01*
X180193629Y-79467833D01*
X180193628Y-79467833D01*
X180000998Y-79447587D01*
X180000996Y-79447587D01*
X179994869Y-79446943D01*
X179908029Y-79454846D01*
X179795842Y-79465055D01*
X179795839Y-79465056D01*
X179789703Y-79465614D01*
X179592072Y-79523780D01*
X179409502Y-79619226D01*
X179404701Y-79623086D01*
X179404698Y-79623088D01*
X179266205Y-79734439D01*
X179248947Y-79748315D01*
X179116524Y-79906130D01*
X179113556Y-79911528D01*
X179113553Y-79911533D01*
X179031361Y-80061041D01*
X179017276Y-80086662D01*
X178954984Y-80283032D01*
X178954298Y-80289149D01*
X178954297Y-80289153D01*
X178935716Y-80454809D01*
X178932020Y-80487762D01*
X157322829Y-80487762D01*
X157322703Y-80487253D01*
X157345604Y-80420052D01*
X157401202Y-80375900D01*
X157428879Y-80368201D01*
X157443836Y-80365832D01*
X157453629Y-80364281D01*
X157573723Y-80303090D01*
X157669031Y-80207782D01*
X157730222Y-80087688D01*
X157733044Y-80069874D01*
X157749756Y-79964355D01*
X157751307Y-79954562D01*
X157748180Y-79934821D01*
X157742665Y-79900000D01*
X174969196Y-79900000D01*
X174970747Y-79909793D01*
X174986341Y-80008247D01*
X174990281Y-80033126D01*
X175051472Y-80153220D01*
X175146780Y-80248528D01*
X175266874Y-80309719D01*
X175276663Y-80311269D01*
X175276665Y-80311270D01*
X175390207Y-80329253D01*
X175400000Y-80330804D01*
X175409793Y-80329253D01*
X175523335Y-80311270D01*
X175523337Y-80311269D01*
X175533126Y-80309719D01*
X175653220Y-80248528D01*
X175748528Y-80153220D01*
X175809719Y-80033126D01*
X175813660Y-80008247D01*
X175829253Y-79909793D01*
X175830804Y-79900000D01*
X175823314Y-79852707D01*
X175811270Y-79776665D01*
X175811269Y-79776663D01*
X175809719Y-79766874D01*
X175748528Y-79646780D01*
X175653220Y-79551472D01*
X175533126Y-79490281D01*
X175523337Y-79488731D01*
X175523335Y-79488730D01*
X175409793Y-79470747D01*
X175400000Y-79469196D01*
X175390207Y-79470747D01*
X175276665Y-79488730D01*
X175276663Y-79488731D01*
X175266874Y-79490281D01*
X175146780Y-79551472D01*
X175051472Y-79646780D01*
X174990281Y-79766874D01*
X174988731Y-79776663D01*
X174988730Y-79776665D01*
X174976686Y-79852707D01*
X174969196Y-79900000D01*
X157742665Y-79900000D01*
X157731773Y-79831227D01*
X157731772Y-79831225D01*
X157730222Y-79821436D01*
X157669031Y-79701342D01*
X157573723Y-79606034D01*
X157453629Y-79544843D01*
X157443840Y-79543293D01*
X157443838Y-79543292D01*
X157330296Y-79525309D01*
X157320503Y-79523758D01*
X157310710Y-79525309D01*
X157197168Y-79543292D01*
X157197166Y-79543293D01*
X157187377Y-79544843D01*
X157067283Y-79606034D01*
X156971975Y-79701342D01*
X156910784Y-79821436D01*
X156909234Y-79831225D01*
X156909233Y-79831227D01*
X156892826Y-79934821D01*
X156889699Y-79954562D01*
X156891250Y-79964355D01*
X156907963Y-80069874D01*
X156910784Y-80087688D01*
X156971975Y-80207782D01*
X157067283Y-80303090D01*
X157112904Y-80326335D01*
X157134119Y-80337145D01*
X157185734Y-80385894D01*
X157202800Y-80454809D01*
X157179899Y-80522010D01*
X157124301Y-80566162D01*
X157096624Y-80573861D01*
X157071874Y-80577781D01*
X156951780Y-80638972D01*
X156856472Y-80734280D01*
X156795281Y-80854374D01*
X156793731Y-80864163D01*
X156793730Y-80864165D01*
X156781399Y-80942019D01*
X156774196Y-80987500D01*
X156775747Y-80997293D01*
X156792534Y-81103280D01*
X156795281Y-81120626D01*
X156799781Y-81129459D01*
X156802847Y-81138893D01*
X156801274Y-81139404D01*
X156812295Y-81198068D01*
X156785597Y-81263854D01*
X156727572Y-81304763D01*
X156686923Y-81311500D01*
X153497403Y-81311500D01*
X153494730Y-81311304D01*
X153489695Y-81309575D01*
X153478073Y-81310011D01*
X153478071Y-81310011D01*
X153440782Y-81311411D01*
X153436056Y-81311500D01*
X153417089Y-81311500D01*
X153412354Y-81312382D01*
X153408828Y-81312610D01*
X153405088Y-81312751D01*
X153377829Y-81313774D01*
X153367144Y-81318364D01*
X153362544Y-81319401D01*
X153350823Y-81322962D01*
X153346420Y-81324661D01*
X153334984Y-81326791D01*
X153313998Y-81339727D01*
X153297626Y-81348231D01*
X153283149Y-81354451D01*
X153283145Y-81354453D01*
X153274974Y-81357964D01*
X153270088Y-81361978D01*
X153267903Y-81364163D01*
X153265640Y-81366215D01*
X153265495Y-81366055D01*
X153256488Y-81373175D01*
X153249593Y-81379427D01*
X153239689Y-81385532D01*
X153223121Y-81407320D01*
X153211927Y-81420139D01*
X152332471Y-82299595D01*
X152270159Y-82333621D01*
X152243376Y-82336500D01*
X140583994Y-82336500D01*
X140581321Y-82336304D01*
X140576286Y-82334575D01*
X140564664Y-82335011D01*
X140564662Y-82335011D01*
X140527373Y-82336411D01*
X140522647Y-82336500D01*
X140503680Y-82336500D01*
X140498945Y-82337382D01*
X140495419Y-82337610D01*
X140491679Y-82337751D01*
X140464420Y-82338774D01*
X140453735Y-82343364D01*
X140449135Y-82344401D01*
X140437414Y-82347962D01*
X140433011Y-82349661D01*
X140421575Y-82351791D01*
X140408016Y-82360149D01*
X140400589Y-82364727D01*
X140384217Y-82373231D01*
X140369740Y-82379451D01*
X140369736Y-82379453D01*
X140361565Y-82382964D01*
X140356679Y-82386978D01*
X140354494Y-82389163D01*
X140352231Y-82391215D01*
X140352086Y-82391055D01*
X140343079Y-82398175D01*
X140336184Y-82404427D01*
X140326280Y-82410532D01*
X140309712Y-82432320D01*
X140298518Y-82445139D01*
X136202224Y-86541433D01*
X136139912Y-86575459D01*
X136069097Y-86570394D01*
X136012261Y-86527847D01*
X135987450Y-86461327D01*
X135988680Y-86432627D01*
X135989215Y-86429253D01*
X136003034Y-86342000D01*
X136000245Y-86324388D01*
X135983500Y-86218665D01*
X135983499Y-86218663D01*
X135981949Y-86208874D01*
X135920758Y-86088780D01*
X135825450Y-85993472D01*
X135705356Y-85932281D01*
X135695567Y-85930731D01*
X135695565Y-85930730D01*
X135582023Y-85912747D01*
X135572230Y-85911196D01*
X135562437Y-85912747D01*
X135448895Y-85930730D01*
X135448893Y-85930731D01*
X135439104Y-85932281D01*
X135319010Y-85993472D01*
X135223702Y-86088780D01*
X135162511Y-86208874D01*
X135160961Y-86218663D01*
X135160960Y-86218665D01*
X135144215Y-86324388D01*
X135141426Y-86342000D01*
X135142977Y-86351793D01*
X135156057Y-86434374D01*
X135162511Y-86475126D01*
X135223702Y-86595220D01*
X135319010Y-86690528D01*
X135338829Y-86700626D01*
X135368786Y-86715890D01*
X135420401Y-86764638D01*
X135437467Y-86833553D01*
X135414566Y-86900755D01*
X135358969Y-86944907D01*
X135311583Y-86954157D01*
X133822004Y-86954157D01*
X133753883Y-86934155D01*
X133732909Y-86917252D01*
X130753157Y-83937500D01*
X135431696Y-83937500D01*
X135433247Y-83947293D01*
X135450858Y-84058483D01*
X135452781Y-84070626D01*
X135513972Y-84190720D01*
X135609280Y-84286028D01*
X135729374Y-84347219D01*
X135739163Y-84348769D01*
X135739165Y-84348770D01*
X135852707Y-84366753D01*
X135862500Y-84368304D01*
X135872293Y-84366753D01*
X135985835Y-84348770D01*
X135985837Y-84348769D01*
X135995626Y-84347219D01*
X136115720Y-84286028D01*
X136211028Y-84190720D01*
X136211324Y-84190139D01*
X136969014Y-84190139D01*
X136970565Y-84199932D01*
X136987475Y-84306696D01*
X136990099Y-84323265D01*
X137051290Y-84443359D01*
X137146598Y-84538667D01*
X137266692Y-84599858D01*
X137276481Y-84601408D01*
X137276483Y-84601409D01*
X137390025Y-84619392D01*
X137399818Y-84620943D01*
X137409611Y-84619392D01*
X137523153Y-84601409D01*
X137523155Y-84601408D01*
X137532944Y-84599858D01*
X137653038Y-84538667D01*
X137748346Y-84443359D01*
X137809537Y-84323265D01*
X137812162Y-84306696D01*
X137829071Y-84199932D01*
X137830622Y-84190139D01*
X137828873Y-84179099D01*
X137811088Y-84066804D01*
X137811087Y-84066802D01*
X137809537Y-84057013D01*
X137748346Y-83936919D01*
X137653038Y-83841611D01*
X137532944Y-83780420D01*
X137523155Y-83778870D01*
X137523153Y-83778869D01*
X137409611Y-83760886D01*
X137399818Y-83759335D01*
X137390025Y-83760886D01*
X137276483Y-83778869D01*
X137276481Y-83778870D01*
X137266692Y-83780420D01*
X137146598Y-83841611D01*
X137051290Y-83936919D01*
X136990099Y-84057013D01*
X136988549Y-84066802D01*
X136988548Y-84066804D01*
X136970763Y-84179099D01*
X136969014Y-84190139D01*
X136211324Y-84190139D01*
X136272219Y-84070626D01*
X136274143Y-84058483D01*
X136291753Y-83947293D01*
X136293304Y-83937500D01*
X136288072Y-83904466D01*
X136273770Y-83814165D01*
X136273769Y-83814163D01*
X136272219Y-83804374D01*
X136211028Y-83684280D01*
X136115720Y-83588972D01*
X135995626Y-83527781D01*
X135985837Y-83526231D01*
X135985835Y-83526230D01*
X135872293Y-83508247D01*
X135862500Y-83506696D01*
X135852707Y-83508247D01*
X135739165Y-83526230D01*
X135739163Y-83526231D01*
X135729374Y-83527781D01*
X135609280Y-83588972D01*
X135513972Y-83684280D01*
X135452781Y-83804374D01*
X135451231Y-83814163D01*
X135451230Y-83814165D01*
X135436928Y-83904466D01*
X135431696Y-83937500D01*
X130753157Y-83937500D01*
X130499905Y-83684248D01*
X130465879Y-83621936D01*
X130463000Y-83595153D01*
X130463000Y-82937500D01*
X137982196Y-82937500D01*
X137983747Y-82947293D01*
X137987833Y-82973088D01*
X138003281Y-83070626D01*
X138064472Y-83190720D01*
X138159780Y-83286028D01*
X138279874Y-83347219D01*
X138289663Y-83348769D01*
X138289665Y-83348770D01*
X138403207Y-83366753D01*
X138413000Y-83368304D01*
X138422793Y-83366753D01*
X138536335Y-83348770D01*
X138536337Y-83348769D01*
X138546126Y-83347219D01*
X138666220Y-83286028D01*
X138761528Y-83190720D01*
X138822719Y-83070626D01*
X138838168Y-82973088D01*
X138842253Y-82947293D01*
X138843804Y-82937500D01*
X138839700Y-82911589D01*
X138824270Y-82814165D01*
X138824269Y-82814163D01*
X138822719Y-82804374D01*
X138761528Y-82684280D01*
X138666220Y-82588972D01*
X138546126Y-82527781D01*
X138536337Y-82526231D01*
X138536335Y-82526230D01*
X138422793Y-82508247D01*
X138413000Y-82506696D01*
X138403207Y-82508247D01*
X138289665Y-82526230D01*
X138289663Y-82526231D01*
X138279874Y-82527781D01*
X138159780Y-82588972D01*
X138064472Y-82684280D01*
X138003281Y-82804374D01*
X138001731Y-82814163D01*
X138001730Y-82814165D01*
X137986300Y-82911589D01*
X137982196Y-82937500D01*
X130463000Y-82937500D01*
X130463000Y-82021450D01*
X131244914Y-82021450D01*
X131246465Y-82031243D01*
X131261720Y-82127557D01*
X131265999Y-82154576D01*
X131327190Y-82274670D01*
X131422498Y-82369978D01*
X131542592Y-82431169D01*
X131552381Y-82432719D01*
X131552383Y-82432720D01*
X131665925Y-82450703D01*
X131675718Y-82452254D01*
X131685511Y-82450703D01*
X131799053Y-82432720D01*
X131799055Y-82432719D01*
X131808844Y-82431169D01*
X131928938Y-82369978D01*
X132024246Y-82274670D01*
X132085437Y-82154576D01*
X132089717Y-82127557D01*
X132104971Y-82031243D01*
X132106522Y-82021450D01*
X132103925Y-82005055D01*
X132086988Y-81898115D01*
X132086987Y-81898113D01*
X132085437Y-81888324D01*
X132024246Y-81768230D01*
X131928938Y-81672922D01*
X131808844Y-81611731D01*
X131799055Y-81610181D01*
X131799053Y-81610180D01*
X131685511Y-81592197D01*
X131675718Y-81590646D01*
X131665925Y-81592197D01*
X131552383Y-81610180D01*
X131552381Y-81610181D01*
X131542592Y-81611731D01*
X131422498Y-81672922D01*
X131327190Y-81768230D01*
X131265999Y-81888324D01*
X131264449Y-81898113D01*
X131264448Y-81898115D01*
X131247511Y-82005055D01*
X131244914Y-82021450D01*
X130463000Y-82021450D01*
X130463000Y-80887000D01*
X136081198Y-80887000D01*
X136082749Y-80896793D01*
X136100137Y-81006574D01*
X136102283Y-81020126D01*
X136163474Y-81140220D01*
X136258782Y-81235528D01*
X136378876Y-81296719D01*
X136388665Y-81298269D01*
X136388667Y-81298270D01*
X136502209Y-81316253D01*
X136512002Y-81317804D01*
X136521795Y-81316253D01*
X136635337Y-81298270D01*
X136635339Y-81298269D01*
X136645128Y-81296719D01*
X136765222Y-81235528D01*
X136860530Y-81140220D01*
X136865029Y-81131390D01*
X136865032Y-81131386D01*
X136878414Y-81105121D01*
X136927161Y-81053505D01*
X136996076Y-81036439D01*
X137063278Y-81059339D01*
X137102948Y-81105120D01*
X137118916Y-81136459D01*
X137214224Y-81231767D01*
X137334318Y-81292958D01*
X137344107Y-81294508D01*
X137344109Y-81294509D01*
X137457651Y-81312492D01*
X137467444Y-81314043D01*
X137477237Y-81312492D01*
X137590779Y-81294509D01*
X137590781Y-81294508D01*
X137600570Y-81292958D01*
X137720664Y-81231767D01*
X137815972Y-81136459D01*
X137866394Y-81037500D01*
X143731696Y-81037500D01*
X143733247Y-81047293D01*
X143751181Y-81160522D01*
X143752781Y-81170626D01*
X143813972Y-81290720D01*
X143909280Y-81386028D01*
X144029374Y-81447219D01*
X144039163Y-81448769D01*
X144039165Y-81448770D01*
X144152707Y-81466753D01*
X144162500Y-81468304D01*
X144172293Y-81466753D01*
X144285835Y-81448770D01*
X144285837Y-81448769D01*
X144295626Y-81447219D01*
X144415720Y-81386028D01*
X144511028Y-81290720D01*
X144572219Y-81170626D01*
X144573820Y-81160522D01*
X144591753Y-81047293D01*
X144593304Y-81037500D01*
X144586936Y-80997293D01*
X144573770Y-80914165D01*
X144573769Y-80914163D01*
X144572219Y-80904374D01*
X144541815Y-80844702D01*
X144528711Y-80774926D01*
X144541815Y-80730297D01*
X144560792Y-80693053D01*
X144572219Y-80670626D01*
X144573881Y-80660136D01*
X144591753Y-80547293D01*
X144593304Y-80537500D01*
X144587205Y-80498994D01*
X144577466Y-80437500D01*
X153431696Y-80437500D01*
X153433247Y-80447293D01*
X153450575Y-80556696D01*
X153452781Y-80570626D01*
X153513972Y-80690720D01*
X153609280Y-80786028D01*
X153729374Y-80847219D01*
X153739163Y-80848769D01*
X153739165Y-80848770D01*
X153852707Y-80866753D01*
X153862500Y-80868304D01*
X153872293Y-80866753D01*
X153985835Y-80848770D01*
X153985837Y-80848769D01*
X153995626Y-80847219D01*
X154115720Y-80786028D01*
X154211028Y-80690720D01*
X154272219Y-80570626D01*
X154274426Y-80556696D01*
X154291753Y-80447293D01*
X154293304Y-80437500D01*
X154286658Y-80395541D01*
X154273770Y-80314165D01*
X154273769Y-80314163D01*
X154272219Y-80304374D01*
X154220566Y-80203000D01*
X154875930Y-80203000D01*
X154877481Y-80212793D01*
X154893537Y-80314165D01*
X154897015Y-80336126D01*
X154958206Y-80456220D01*
X155053514Y-80551528D01*
X155173608Y-80612719D01*
X155183397Y-80614269D01*
X155183399Y-80614270D01*
X155296941Y-80632253D01*
X155306734Y-80633804D01*
X155316527Y-80632253D01*
X155430069Y-80614270D01*
X155430071Y-80614269D01*
X155439860Y-80612719D01*
X155559954Y-80551528D01*
X155655262Y-80456220D01*
X155716453Y-80336126D01*
X155719932Y-80314165D01*
X155735987Y-80212793D01*
X155737538Y-80203000D01*
X155735316Y-80188972D01*
X155718004Y-80079665D01*
X155718003Y-80079663D01*
X155716453Y-80069874D01*
X155655262Y-79949780D01*
X155559954Y-79854472D01*
X155439860Y-79793281D01*
X155430071Y-79791731D01*
X155430069Y-79791730D01*
X155316527Y-79773747D01*
X155306734Y-79772196D01*
X155296941Y-79773747D01*
X155183399Y-79791730D01*
X155183397Y-79791731D01*
X155173608Y-79793281D01*
X155053514Y-79854472D01*
X154958206Y-79949780D01*
X154897015Y-80069874D01*
X154895465Y-80079663D01*
X154895464Y-80079665D01*
X154878152Y-80188972D01*
X154875930Y-80203000D01*
X154220566Y-80203000D01*
X154211028Y-80184280D01*
X154115720Y-80088972D01*
X153995626Y-80027781D01*
X153985837Y-80026231D01*
X153985835Y-80026230D01*
X153872293Y-80008247D01*
X153862500Y-80006696D01*
X153852707Y-80008247D01*
X153739165Y-80026230D01*
X153739163Y-80026231D01*
X153729374Y-80027781D01*
X153609280Y-80088972D01*
X153513972Y-80184280D01*
X153452781Y-80304374D01*
X153451231Y-80314163D01*
X153451230Y-80314165D01*
X153438342Y-80395541D01*
X153431696Y-80437500D01*
X144577466Y-80437500D01*
X144573770Y-80414165D01*
X144573769Y-80414163D01*
X144572219Y-80404374D01*
X144511028Y-80284280D01*
X144415720Y-80188972D01*
X144295626Y-80127781D01*
X144285837Y-80126231D01*
X144285835Y-80126230D01*
X144172293Y-80108247D01*
X144162500Y-80106696D01*
X144152707Y-80108247D01*
X144039165Y-80126230D01*
X144039163Y-80126231D01*
X144029374Y-80127781D01*
X143909280Y-80188972D01*
X143813972Y-80284280D01*
X143752781Y-80404374D01*
X143751231Y-80414163D01*
X143751230Y-80414165D01*
X143737795Y-80498994D01*
X143731696Y-80537500D01*
X143733247Y-80547293D01*
X143751120Y-80660136D01*
X143752781Y-80670626D01*
X143764208Y-80693053D01*
X143783185Y-80730297D01*
X143796289Y-80800074D01*
X143783185Y-80844702D01*
X143752781Y-80904374D01*
X143751231Y-80914163D01*
X143751230Y-80914165D01*
X143738064Y-80997293D01*
X143731696Y-81037500D01*
X137866394Y-81037500D01*
X137877163Y-81016365D01*
X137883529Y-80976175D01*
X137896697Y-80893032D01*
X137898248Y-80883239D01*
X137889291Y-80826687D01*
X137878714Y-80759904D01*
X137878713Y-80759902D01*
X137877163Y-80750113D01*
X137815972Y-80630019D01*
X137720664Y-80534711D01*
X137600570Y-80473520D01*
X137590781Y-80471970D01*
X137590779Y-80471969D01*
X137477237Y-80453986D01*
X137467444Y-80452435D01*
X137457651Y-80453986D01*
X137344109Y-80471969D01*
X137344107Y-80471970D01*
X137334318Y-80473520D01*
X137214224Y-80534711D01*
X137118916Y-80630019D01*
X137114417Y-80638849D01*
X137114414Y-80638853D01*
X137101032Y-80665118D01*
X137052285Y-80716734D01*
X136983370Y-80733800D01*
X136916168Y-80710900D01*
X136876498Y-80665119D01*
X136860530Y-80633780D01*
X136765222Y-80538472D01*
X136645128Y-80477281D01*
X136635339Y-80475731D01*
X136635337Y-80475730D01*
X136521795Y-80457747D01*
X136512002Y-80456196D01*
X136502209Y-80457747D01*
X136388667Y-80475730D01*
X136388665Y-80475731D01*
X136378876Y-80477281D01*
X136258782Y-80538472D01*
X136163474Y-80633780D01*
X136102283Y-80753874D01*
X136100733Y-80763663D01*
X136100732Y-80763665D01*
X136087897Y-80844703D01*
X136081198Y-80887000D01*
X130463000Y-80887000D01*
X130463000Y-80264994D01*
X130483002Y-80196873D01*
X130499905Y-80175899D01*
X130700899Y-79974905D01*
X130763211Y-79940879D01*
X130789994Y-79938000D01*
X131075820Y-79938000D01*
X131078493Y-79938196D01*
X131083528Y-79939925D01*
X131095150Y-79939489D01*
X131095152Y-79939489D01*
X131132441Y-79938089D01*
X131137167Y-79938000D01*
X131156134Y-79938000D01*
X131160869Y-79937118D01*
X131164395Y-79936890D01*
X131168135Y-79936749D01*
X131195394Y-79935726D01*
X131206079Y-79931136D01*
X131210679Y-79930099D01*
X131222400Y-79926538D01*
X131226803Y-79924839D01*
X131238239Y-79922709D01*
X131259227Y-79909772D01*
X131275597Y-79901269D01*
X131290074Y-79895049D01*
X131290078Y-79895047D01*
X131298249Y-79891536D01*
X131303135Y-79887522D01*
X131305320Y-79885337D01*
X131307583Y-79883285D01*
X131307728Y-79883445D01*
X131316735Y-79876325D01*
X131323630Y-79870073D01*
X131333534Y-79863968D01*
X131350102Y-79842180D01*
X131361296Y-79829361D01*
X131753157Y-79437500D01*
X135731696Y-79437500D01*
X135733247Y-79447293D01*
X135750858Y-79558483D01*
X135752781Y-79570626D01*
X135813972Y-79690720D01*
X135909280Y-79786028D01*
X136029374Y-79847219D01*
X136039163Y-79848769D01*
X136039165Y-79848770D01*
X136152707Y-79866753D01*
X136162500Y-79868304D01*
X136172293Y-79866753D01*
X136199146Y-79862500D01*
X149931696Y-79862500D01*
X149933247Y-79872293D01*
X149946919Y-79958612D01*
X149952781Y-79995626D01*
X150013972Y-80115720D01*
X150109280Y-80211028D01*
X150229374Y-80272219D01*
X150239163Y-80273769D01*
X150239165Y-80273770D01*
X150352707Y-80291753D01*
X150362500Y-80293304D01*
X150372293Y-80291753D01*
X150485835Y-80273770D01*
X150485837Y-80273769D01*
X150495626Y-80272219D01*
X150615720Y-80211028D01*
X150711028Y-80115720D01*
X150772219Y-79995626D01*
X150778082Y-79958612D01*
X150791753Y-79872293D01*
X150793304Y-79862500D01*
X150789801Y-79840380D01*
X150773770Y-79739165D01*
X150773769Y-79739163D01*
X150772219Y-79729374D01*
X150711028Y-79609280D01*
X150615720Y-79513972D01*
X150495626Y-79452781D01*
X150485837Y-79451231D01*
X150485835Y-79451230D01*
X150372293Y-79433247D01*
X150362500Y-79431696D01*
X150352707Y-79433247D01*
X150239165Y-79451230D01*
X150239163Y-79451231D01*
X150229374Y-79452781D01*
X150109280Y-79513972D01*
X150013972Y-79609280D01*
X149952781Y-79729374D01*
X149951231Y-79739163D01*
X149951230Y-79739165D01*
X149935199Y-79840380D01*
X149931696Y-79862500D01*
X136199146Y-79862500D01*
X136285835Y-79848770D01*
X136285837Y-79848769D01*
X136295626Y-79847219D01*
X136415720Y-79786028D01*
X136511028Y-79690720D01*
X136572219Y-79570626D01*
X136574143Y-79558483D01*
X136591753Y-79447293D01*
X136593304Y-79437500D01*
X136572219Y-79304374D01*
X136511028Y-79184280D01*
X136415720Y-79088972D01*
X136295626Y-79027781D01*
X136285837Y-79026231D01*
X136285835Y-79026230D01*
X136172293Y-79008247D01*
X136162500Y-79006696D01*
X136152707Y-79008247D01*
X136039165Y-79026230D01*
X136039163Y-79026231D01*
X136029374Y-79027781D01*
X135909280Y-79088972D01*
X135813972Y-79184280D01*
X135752781Y-79304374D01*
X135731696Y-79437500D01*
X131753157Y-79437500D01*
X132358409Y-78832248D01*
X178937000Y-78832248D01*
X178938207Y-78838316D01*
X178941831Y-78856533D01*
X178948633Y-78890731D01*
X178992948Y-78957052D01*
X179059269Y-79001367D01*
X179071438Y-79003788D01*
X179071439Y-79003788D01*
X179093857Y-79008247D01*
X179117752Y-79013000D01*
X180857248Y-79013000D01*
X180881143Y-79008247D01*
X180903561Y-79003788D01*
X180903562Y-79003788D01*
X180915731Y-79001367D01*
X180982052Y-78957052D01*
X181026367Y-78890731D01*
X181033170Y-78856533D01*
X181036793Y-78838316D01*
X181038000Y-78832248D01*
X181038000Y-77947762D01*
X181472020Y-77947762D01*
X181472536Y-77953906D01*
X181487240Y-78129005D01*
X181489259Y-78153053D01*
X181490958Y-78158978D01*
X181537435Y-78321062D01*
X181546044Y-78351086D01*
X181548859Y-78356563D01*
X181548860Y-78356566D01*
X181636521Y-78527136D01*
X181640212Y-78534318D01*
X181768177Y-78695770D01*
X181772870Y-78699764D01*
X181772871Y-78699765D01*
X181890053Y-78799494D01*
X181925064Y-78829291D01*
X181930442Y-78832297D01*
X181930444Y-78832298D01*
X182013222Y-78878561D01*
X182104898Y-78929797D01*
X182174666Y-78952466D01*
X182294971Y-78991556D01*
X182294975Y-78991557D01*
X182300829Y-78993459D01*
X182505394Y-79017851D01*
X182511529Y-79017379D01*
X182511531Y-79017379D01*
X182584125Y-79011793D01*
X182710800Y-79002046D01*
X182716730Y-79000390D01*
X182716732Y-79000390D01*
X182903297Y-78948300D01*
X182903296Y-78948300D01*
X182909225Y-78946645D01*
X182914714Y-78943872D01*
X182914720Y-78943870D01*
X183087616Y-78856533D01*
X183093110Y-78853758D01*
X183165754Y-78797003D01*
X183235893Y-78742204D01*
X183255451Y-78726924D01*
X183271505Y-78708326D01*
X183386040Y-78575634D01*
X183386040Y-78575633D01*
X183390064Y-78570972D01*
X183399814Y-78553810D01*
X183458575Y-78450371D01*
X183491823Y-78391844D01*
X183556851Y-78196363D01*
X183582671Y-77991974D01*
X183583083Y-77962500D01*
X183562980Y-77757470D01*
X183503435Y-77560249D01*
X183406718Y-77378349D01*
X183324729Y-77277821D01*
X183280406Y-77223475D01*
X183280403Y-77223472D01*
X183276511Y-77218700D01*
X183257238Y-77202756D01*
X183122525Y-77091311D01*
X183122521Y-77091309D01*
X183117775Y-77087382D01*
X182936555Y-76989397D01*
X182739754Y-76928477D01*
X182733629Y-76927833D01*
X182733628Y-76927833D01*
X182540998Y-76907587D01*
X182540996Y-76907587D01*
X182534869Y-76906943D01*
X182448029Y-76914846D01*
X182335842Y-76925055D01*
X182335839Y-76925056D01*
X182329703Y-76925614D01*
X182132072Y-76983780D01*
X181949502Y-77079226D01*
X181944701Y-77083086D01*
X181944698Y-77083088D01*
X181804835Y-77195541D01*
X181788947Y-77208315D01*
X181656524Y-77366130D01*
X181653556Y-77371528D01*
X181653553Y-77371533D01*
X181599077Y-77470626D01*
X181557276Y-77546662D01*
X181494984Y-77743032D01*
X181494298Y-77749149D01*
X181494297Y-77749153D01*
X181474328Y-77927183D01*
X181472020Y-77947762D01*
X181038000Y-77947762D01*
X181038000Y-77092752D01*
X181032651Y-77065860D01*
X181028788Y-77046439D01*
X181028788Y-77046438D01*
X181026367Y-77034269D01*
X180982052Y-76967948D01*
X180915731Y-76923633D01*
X180903562Y-76921212D01*
X180903561Y-76921212D01*
X180863316Y-76913207D01*
X180857248Y-76912000D01*
X179117752Y-76912000D01*
X179111684Y-76913207D01*
X179071439Y-76921212D01*
X179071438Y-76921212D01*
X179059269Y-76923633D01*
X178992948Y-76967948D01*
X178948633Y-77034269D01*
X178946212Y-77046438D01*
X178946212Y-77046439D01*
X178942349Y-77065860D01*
X178937000Y-77092752D01*
X178937000Y-78832248D01*
X132358409Y-78832248D01*
X132602821Y-78587836D01*
X132665133Y-78553810D01*
X132691916Y-78550931D01*
X134436003Y-78550931D01*
X134504124Y-78570933D01*
X134525098Y-78587836D01*
X134536221Y-78598959D01*
X134656315Y-78660150D01*
X134666104Y-78661700D01*
X134666106Y-78661701D01*
X134779648Y-78679684D01*
X134789441Y-78681235D01*
X134799234Y-78679684D01*
X134912776Y-78661701D01*
X134912778Y-78661700D01*
X134922567Y-78660150D01*
X135042661Y-78598959D01*
X135137969Y-78503651D01*
X135199160Y-78383557D01*
X135203047Y-78359019D01*
X135218694Y-78260224D01*
X135220245Y-78250431D01*
X135218694Y-78240638D01*
X135200711Y-78127096D01*
X135200710Y-78127094D01*
X135199160Y-78117305D01*
X135137969Y-77997211D01*
X135042661Y-77901903D01*
X134922567Y-77840712D01*
X134912778Y-77839162D01*
X134912776Y-77839161D01*
X134799234Y-77821178D01*
X134789441Y-77819627D01*
X134779648Y-77821178D01*
X134666106Y-77839161D01*
X134666104Y-77839162D01*
X134656315Y-77840712D01*
X134536221Y-77901903D01*
X134525098Y-77913026D01*
X134462786Y-77947052D01*
X134436003Y-77949931D01*
X132567621Y-77949931D01*
X132564948Y-77949735D01*
X132559913Y-77948006D01*
X132548291Y-77948442D01*
X132548289Y-77948442D01*
X132511000Y-77949842D01*
X132506274Y-77949931D01*
X132487307Y-77949931D01*
X132482572Y-77950813D01*
X132479046Y-77951041D01*
X132475306Y-77951182D01*
X132448047Y-77952205D01*
X132437360Y-77956796D01*
X132426010Y-77959354D01*
X132425422Y-77956743D01*
X132371725Y-77963233D01*
X132307824Y-77932294D01*
X132270795Y-77871718D01*
X132268583Y-77851149D01*
X132267840Y-77851250D01*
X132264151Y-77824143D01*
X132263000Y-77807152D01*
X132263000Y-77690938D01*
X132283002Y-77622817D01*
X132299905Y-77601843D01*
X132311028Y-77590720D01*
X132372219Y-77470626D01*
X132374213Y-77458041D01*
X132391753Y-77347293D01*
X132393304Y-77337500D01*
X132384440Y-77281532D01*
X132373770Y-77214165D01*
X132373769Y-77214163D01*
X132372219Y-77204374D01*
X132311028Y-77084280D01*
X132215720Y-76988972D01*
X132095626Y-76927781D01*
X132085837Y-76926231D01*
X132085835Y-76926230D01*
X131972293Y-76908247D01*
X131962500Y-76906696D01*
X131952707Y-76908247D01*
X131839165Y-76926230D01*
X131839163Y-76926231D01*
X131829374Y-76927781D01*
X131709280Y-76988972D01*
X131613972Y-77084280D01*
X131552781Y-77204374D01*
X131551231Y-77214163D01*
X131551230Y-77214165D01*
X131540560Y-77281532D01*
X131531696Y-77337500D01*
X131533247Y-77347293D01*
X131533247Y-77347294D01*
X131540135Y-77390786D01*
X131531035Y-77461197D01*
X131529284Y-77463277D01*
X131569819Y-77504066D01*
X131573822Y-77511922D01*
X131613972Y-77590720D01*
X131620987Y-77597735D01*
X131624072Y-77601981D01*
X131647932Y-77668848D01*
X131631854Y-77738000D01*
X131614511Y-77761737D01*
X131612010Y-77764433D01*
X131612009Y-77764435D01*
X131604099Y-77772962D01*
X131599789Y-77783764D01*
X131593572Y-77793599D01*
X131590884Y-77791900D01*
X131558574Y-77833082D01*
X131491509Y-77856379D01*
X131422495Y-77839720D01*
X131373443Y-77788394D01*
X131359505Y-77736354D01*
X131358353Y-77711461D01*
X131356977Y-77681733D01*
X131353656Y-77667951D01*
X131342778Y-77622817D01*
X131335059Y-77590789D01*
X131338544Y-77519880D01*
X131344229Y-77511922D01*
X131300986Y-77462648D01*
X131220860Y-77286419D01*
X131099363Y-77115140D01*
X130967566Y-76988972D01*
X130951999Y-76974070D01*
X130947669Y-76969925D01*
X130890067Y-76932732D01*
X130776291Y-76859267D01*
X130776288Y-76859266D01*
X130771254Y-76856015D01*
X130696686Y-76825963D01*
X130582045Y-76779761D01*
X130582042Y-76779760D01*
X130576481Y-76777519D01*
X130570600Y-76776371D01*
X130570595Y-76776369D01*
X130374824Y-76738138D01*
X130374821Y-76738138D01*
X130370378Y-76737270D01*
X130364857Y-76737000D01*
X130210031Y-76737000D01*
X130053454Y-76751939D01*
X130047698Y-76753628D01*
X130047696Y-76753628D01*
X129970179Y-76776369D01*
X129851951Y-76811053D01*
X129846623Y-76813797D01*
X129841053Y-76816025D01*
X129840336Y-76814231D01*
X129779300Y-76825963D01*
X129713402Y-76799544D01*
X129672249Y-76741691D01*
X129668907Y-76670773D01*
X129697704Y-76616229D01*
X129699160Y-76614612D01*
X129704069Y-76610192D01*
X129715836Y-76593997D01*
X129814541Y-76458141D01*
X129814542Y-76458140D01*
X129818422Y-76452799D01*
X129821222Y-76446512D01*
X129894864Y-76281107D01*
X129894865Y-76281104D01*
X129897551Y-76275071D01*
X129904634Y-76241748D01*
X129938362Y-76179275D01*
X130000512Y-76144953D01*
X130071351Y-76149681D01*
G37*
G04 #@! TD.AperFunction*
G04 #@! TA.AperFunction,Conductor*
G36*
X145814683Y-84720502D02*
G01*
X145835657Y-84737405D01*
X145846780Y-84748528D01*
X145966874Y-84809719D01*
X145976663Y-84811269D01*
X145976665Y-84811270D01*
X146090207Y-84829253D01*
X146100000Y-84830804D01*
X146109793Y-84829253D01*
X146223335Y-84811270D01*
X146223337Y-84811269D01*
X146233126Y-84809719D01*
X146319634Y-84765641D01*
X146335496Y-84757559D01*
X146405273Y-84744455D01*
X146471058Y-84771155D01*
X146511964Y-84829183D01*
X146515004Y-84900114D01*
X146481794Y-84958921D01*
X144340620Y-87100095D01*
X144278308Y-87134121D01*
X144251525Y-87137000D01*
X141992161Y-87137000D01*
X141924040Y-87116998D01*
X141877547Y-87063342D01*
X141867443Y-86993068D01*
X141896937Y-86928488D01*
X141903066Y-86921905D01*
X142912225Y-85912747D01*
X144087567Y-84737405D01*
X144149879Y-84703379D01*
X144176662Y-84700500D01*
X145746562Y-84700500D01*
X145814683Y-84720502D01*
G37*
G04 #@! TD.AperFunction*
M02*
