G04 #@! TF.GenerationSoftware,KiCad,Pcbnew,6.0.10+dfsg-1~bpo11+1*
G04 #@! TF.ProjectId,project,70726f6a-6563-4742-9e6b-696361645f70,rev?*
G04 #@! TF.SameCoordinates,Original*
G04 #@! TF.FileFunction,Legend,Bot*
G04 #@! TF.FilePolarity,Positive*
%FSLAX46Y46*%
G04 Gerber Fmt 4.6, Leading zero omitted, Abs format (unit mm)*
%MOMM*%
%LPD*%
G01*
G04 APERTURE LIST*
G04 #@! TA.AperFunction,Profile*
%ADD10C,0.100000*%
G04 #@! TD*
%ADD11C,0.200000*%
%ADD12C,0.120000*%
%ADD13C,0.010000*%
%ADD14C,1.800000*%
%ADD15R,1.700000X1.700000*%
%ADD16O,1.700000X1.700000*%
%ADD17O,2.750000X1.450000*%
%ADD18C,1.552000*%
%ADD19R,2.500000X1.800000*%
%ADD20R,0.800000X0.900000*%
%ADD21C,0.650000*%
%ADD22R,1.450000X0.600000*%
%ADD23R,1.450000X0.300000*%
%ADD24O,2.100000X1.000000*%
%ADD25O,1.600000X1.000000*%
%ADD26R,1.000000X0.800000*%
%ADD27R,0.900000X1.200000*%
%ADD28R,3.650000X3.650000*%
G04 APERTURE END LIST*
D10*
X120262500Y-76037500D02*
X120262500Y-75037500D01*
X184262500Y-76037500D02*
X184262500Y-90037500D01*
X184262500Y-90037500D02*
X130262500Y-90037500D01*
X130262500Y-75037500D02*
X130262500Y-76037500D01*
X130262500Y-76037500D02*
X184262500Y-76037500D01*
X120262500Y-75037500D02*
X130262500Y-75037500D01*
X118262500Y-90037500D02*
X120262500Y-90037500D01*
X120262500Y-76037500D02*
X118262500Y-76037500D01*
X120262500Y-91037500D02*
X130262500Y-91037500D01*
X118262500Y-90037500D02*
X118262500Y-76037500D01*
X130262500Y-91037500D02*
X130262500Y-90037500D01*
X120262500Y-90037500D02*
X120262500Y-91037500D01*
D11*
X141876785Y-82551785D02*
X141762500Y-82494642D01*
X141533928Y-82494642D01*
X141419642Y-82551785D01*
X141362500Y-82666071D01*
X141362500Y-83123214D01*
X141419642Y-83237500D01*
X141533928Y-83294642D01*
X141762500Y-83294642D01*
X141876785Y-83237500D01*
X141933928Y-83123214D01*
X141933928Y-83008928D01*
X141362500Y-82894642D01*
X142276785Y-83294642D02*
X142733928Y-83294642D01*
X142448214Y-83694642D02*
X142448214Y-82666071D01*
X142505357Y-82551785D01*
X142619642Y-82494642D01*
X142733928Y-82494642D01*
X143133928Y-82494642D02*
X143133928Y-83694642D01*
X143648214Y-82494642D02*
X143648214Y-83123214D01*
X143591071Y-83237500D01*
X143476785Y-83294642D01*
X143305357Y-83294642D01*
X143191071Y-83237500D01*
X143133928Y-83180357D01*
X144676785Y-82551785D02*
X144562500Y-82494642D01*
X144333928Y-82494642D01*
X144219642Y-82551785D01*
X144162500Y-82666071D01*
X144162500Y-83123214D01*
X144219642Y-83237500D01*
X144333928Y-83294642D01*
X144562500Y-83294642D01*
X144676785Y-83237500D01*
X144733928Y-83123214D01*
X144733928Y-83008928D01*
X144162500Y-82894642D01*
X145248214Y-82494642D02*
X145248214Y-83294642D01*
X145248214Y-83066071D02*
X145305357Y-83180357D01*
X145362500Y-83237500D01*
X145476785Y-83294642D01*
X145591071Y-83294642D01*
X145991071Y-82951785D02*
X146905357Y-82951785D01*
X147476785Y-82494642D02*
X147476785Y-83694642D01*
X147476785Y-83237500D02*
X147591071Y-83294642D01*
X147819642Y-83294642D01*
X147933928Y-83237500D01*
X147991071Y-83180357D01*
X148048214Y-83066071D01*
X148048214Y-82723214D01*
X147991071Y-82608928D01*
X147933928Y-82551785D01*
X147819642Y-82494642D01*
X147591071Y-82494642D01*
X147476785Y-82551785D01*
X148562500Y-82494642D02*
X148562500Y-83294642D01*
X148562500Y-83066071D02*
X148619642Y-83180357D01*
X148676785Y-83237500D01*
X148791071Y-83294642D01*
X148905357Y-83294642D01*
X149305357Y-82494642D02*
X149305357Y-83294642D01*
X149305357Y-83694642D02*
X149248214Y-83637500D01*
X149305357Y-83580357D01*
X149362500Y-83637500D01*
X149305357Y-83694642D01*
X149305357Y-83580357D01*
X150391071Y-82494642D02*
X150391071Y-83694642D01*
X150391071Y-82551785D02*
X150276785Y-82494642D01*
X150048214Y-82494642D01*
X149933928Y-82551785D01*
X149876785Y-82608928D01*
X149819642Y-82723214D01*
X149819642Y-83066071D01*
X149876785Y-83180357D01*
X149933928Y-83237500D01*
X150048214Y-83294642D01*
X150276785Y-83294642D01*
X150391071Y-83237500D01*
X151476785Y-83294642D02*
X151476785Y-82323214D01*
X151419642Y-82208928D01*
X151362500Y-82151785D01*
X151248214Y-82094642D01*
X151076785Y-82094642D01*
X150962500Y-82151785D01*
X151476785Y-82551785D02*
X151362500Y-82494642D01*
X151133928Y-82494642D01*
X151019642Y-82551785D01*
X150962500Y-82608928D01*
X150905357Y-82723214D01*
X150905357Y-83066071D01*
X150962500Y-83180357D01*
X151019642Y-83237500D01*
X151133928Y-83294642D01*
X151362500Y-83294642D01*
X151476785Y-83237500D01*
X152505357Y-82551785D02*
X152391071Y-82494642D01*
X152162500Y-82494642D01*
X152048214Y-82551785D01*
X151991071Y-82666071D01*
X151991071Y-83123214D01*
X152048214Y-83237500D01*
X152162500Y-83294642D01*
X152391071Y-83294642D01*
X152505357Y-83237500D01*
X152562500Y-83123214D01*
X152562500Y-83008928D01*
X151991071Y-82894642D01*
G36*
X155516978Y-79370315D02*
G01*
X155723523Y-79462245D01*
X156014036Y-79605884D01*
X156351128Y-79783266D01*
X157133460Y-80206600D01*
X157134294Y-80651100D01*
X157139593Y-80823044D01*
X157163009Y-81018797D01*
X157198629Y-81094580D01*
X157238457Y-81083233D01*
X157397366Y-81009492D01*
X157618073Y-80890031D01*
X157974017Y-80686502D01*
X158400527Y-80912218D01*
X158827037Y-81137933D01*
X158827750Y-82119908D01*
X158828462Y-83101882D01*
X158485705Y-83256444D01*
X158393354Y-83299872D01*
X158197999Y-83405570D01*
X158100339Y-83479949D01*
X158111979Y-83518699D01*
X158232321Y-83617833D01*
X158443096Y-83736117D01*
X158828462Y-83923342D01*
X158826641Y-84435638D01*
X158824820Y-84947933D01*
X157558672Y-85638324D01*
X156292523Y-86328715D01*
X155867871Y-86103991D01*
X155443220Y-85879266D01*
X155441287Y-85413600D01*
X155439355Y-84947933D01*
X154585499Y-84476939D01*
X153747033Y-84933289D01*
X152944129Y-84492097D01*
X152933523Y-84058933D01*
X154341129Y-84058933D01*
X154622808Y-84058933D01*
X154753798Y-84053221D01*
X154853942Y-84014554D01*
X154935465Y-83911077D01*
X155022713Y-83710942D01*
X155140029Y-83382302D01*
X155184513Y-83258050D01*
X155293658Y-82982623D01*
X155382276Y-82799108D01*
X155434470Y-82742073D01*
X155443121Y-82751243D01*
X155503807Y-82877081D01*
X155592817Y-83113460D01*
X155694155Y-83418704D01*
X155777609Y-83679805D01*
X155859576Y-83895529D01*
X155936669Y-84008467D01*
X156033922Y-84051856D01*
X156176368Y-84058933D01*
X156457795Y-84058933D01*
X156457795Y-81772933D01*
X155927954Y-81772933D01*
X155979815Y-82556100D01*
X155996324Y-82829739D01*
X156001915Y-83079982D01*
X155980878Y-83174143D01*
X155926383Y-83111116D01*
X155831601Y-82889794D01*
X155689702Y-82509068D01*
X155675694Y-82471116D01*
X155546970Y-82184575D01*
X155428732Y-82057568D01*
X155312148Y-82092086D01*
X155188386Y-82290121D01*
X155048616Y-82653666D01*
X155038206Y-82684389D01*
X154935638Y-82972271D01*
X154849873Y-83188630D01*
X154798551Y-83288666D01*
X154787121Y-83275900D01*
X154778806Y-83140172D01*
X154785328Y-82888934D01*
X154806328Y-82556100D01*
X154867105Y-81772933D01*
X154341129Y-81772933D01*
X154341129Y-84058933D01*
X152933523Y-84058933D01*
X152920333Y-83520230D01*
X152896538Y-82548363D01*
X153322500Y-82316526D01*
X153748462Y-82084688D01*
X153749015Y-81772933D01*
X153751792Y-80206600D01*
X154533293Y-79769620D01*
X154780756Y-79635402D01*
X155086026Y-79482181D01*
X155318631Y-79380097D01*
X155441795Y-79346286D01*
X155516978Y-79370315D01*
G37*
D12*
X149962500Y-76187500D02*
X149962500Y-79487500D01*
X149962500Y-79487500D02*
X144562500Y-79487500D01*
X149962500Y-76187500D02*
X144562500Y-76187500D01*
X152494879Y-81257500D02*
X152830121Y-81257500D01*
X152494879Y-82017500D02*
X152830121Y-82017500D01*
X169754664Y-77197500D02*
X169970336Y-77197500D01*
X169754664Y-76477500D02*
X169970336Y-76477500D01*
G36*
X166379455Y-84093850D02*
G01*
X166413469Y-84119779D01*
X166465905Y-84165430D01*
X166532199Y-84226314D01*
X166607787Y-84297939D01*
X166688104Y-84375817D01*
X166768587Y-84455455D01*
X166844671Y-84532365D01*
X166911793Y-84602055D01*
X166965388Y-84660036D01*
X167000892Y-84701816D01*
X167013741Y-84722907D01*
X167013000Y-84726919D01*
X166997707Y-84759580D01*
X166965038Y-84816088D01*
X166918150Y-84891337D01*
X166860199Y-84980225D01*
X166794343Y-85077646D01*
X166775873Y-85104518D01*
X166711018Y-85199077D01*
X166653891Y-85282673D01*
X166607822Y-85350416D01*
X166576141Y-85397414D01*
X166562176Y-85418774D01*
X166561832Y-85419689D01*
X166565954Y-85445822D01*
X166581693Y-85498760D01*
X166606496Y-85571853D01*
X166637811Y-85658448D01*
X166673083Y-85751892D01*
X166709760Y-85845535D01*
X166745288Y-85932723D01*
X166777114Y-86006805D01*
X166802684Y-86061129D01*
X166819447Y-86089043D01*
X166821126Y-86090776D01*
X166833128Y-86099544D01*
X166853397Y-86108385D01*
X166885971Y-86118208D01*
X166934884Y-86129917D01*
X167004173Y-86144420D01*
X167097875Y-86162624D01*
X167220024Y-86185434D01*
X167374658Y-86213759D01*
X167406730Y-86219720D01*
X167498607Y-86238148D01*
X167575893Y-86255608D01*
X167631264Y-86270367D01*
X167657395Y-86280690D01*
X167661767Y-86289303D01*
X167669055Y-86330674D01*
X167674831Y-86399259D01*
X167679090Y-86488632D01*
X167681827Y-86592365D01*
X167683038Y-86704035D01*
X167682718Y-86817213D01*
X167680864Y-86925474D01*
X167677470Y-87022392D01*
X167672533Y-87101541D01*
X167666048Y-87156494D01*
X167658011Y-87180826D01*
X167649804Y-87184421D01*
X167608981Y-87195752D01*
X167539976Y-87211778D01*
X167448297Y-87231305D01*
X167339450Y-87253138D01*
X167218942Y-87276082D01*
X167153143Y-87288341D01*
X167040365Y-87309599D01*
X166943293Y-87328213D01*
X166867118Y-87343172D01*
X166817031Y-87353464D01*
X166798224Y-87358078D01*
X166797517Y-87359029D01*
X166785539Y-87383190D01*
X166762706Y-87433806D01*
X166731870Y-87504162D01*
X166695887Y-87587542D01*
X166657609Y-87677230D01*
X166619891Y-87766511D01*
X166585587Y-87848668D01*
X166557551Y-87916987D01*
X166538636Y-87964752D01*
X166531697Y-87985246D01*
X166534758Y-87992457D01*
X166555128Y-88026772D01*
X166592078Y-88084530D01*
X166642640Y-88161201D01*
X166703843Y-88252252D01*
X166772719Y-88353150D01*
X166810506Y-88408407D01*
X166875718Y-88505285D01*
X166931629Y-88590307D01*
X166975259Y-88658838D01*
X167003623Y-88706240D01*
X167013741Y-88727877D01*
X167006710Y-88739613D01*
X166977303Y-88774682D01*
X166929059Y-88827755D01*
X166866407Y-88894336D01*
X166793775Y-88969926D01*
X166715592Y-89050028D01*
X166636286Y-89130146D01*
X166560287Y-89205782D01*
X166492022Y-89272438D01*
X166435920Y-89325618D01*
X166396410Y-89360824D01*
X166377921Y-89373558D01*
X166367657Y-89368607D01*
X166329970Y-89345643D01*
X166269152Y-89306562D01*
X166189587Y-89254228D01*
X166095657Y-89191504D01*
X165991746Y-89121254D01*
X165620706Y-88868949D01*
X165311420Y-88996447D01*
X165002135Y-89123945D01*
X164918314Y-89568569D01*
X164834494Y-90013193D01*
X163909046Y-90013193D01*
X163825225Y-89568569D01*
X163741405Y-89123945D01*
X163122833Y-88868949D01*
X162751793Y-89121254D01*
X162678356Y-89170994D01*
X162581001Y-89236282D01*
X162496713Y-89292046D01*
X162429869Y-89335422D01*
X162384846Y-89363547D01*
X162366022Y-89373558D01*
X162354461Y-89366439D01*
X162319904Y-89336606D01*
X162267606Y-89287648D01*
X162202000Y-89224060D01*
X162127517Y-89150337D01*
X162048587Y-89070975D01*
X161969644Y-88990469D01*
X161895116Y-88913315D01*
X161829437Y-88844007D01*
X161777037Y-88787043D01*
X161742347Y-88746916D01*
X161729799Y-88728123D01*
X161732718Y-88720049D01*
X161752929Y-88684031D01*
X161789837Y-88624756D01*
X161840450Y-88546870D01*
X161901775Y-88455019D01*
X161970821Y-88353850D01*
X162008713Y-88298674D01*
X162073894Y-88202616D01*
X162129777Y-88118783D01*
X162173383Y-88051723D01*
X162201731Y-88005981D01*
X162211843Y-87986104D01*
X162211677Y-87985003D01*
X162202757Y-87959806D01*
X162182294Y-87908353D01*
X162153140Y-87837365D01*
X162118147Y-87753565D01*
X162080168Y-87663672D01*
X162042055Y-87574409D01*
X162006661Y-87492497D01*
X161976838Y-87424657D01*
X161955439Y-87377610D01*
X161945316Y-87358078D01*
X161939326Y-87356345D01*
X161902934Y-87348531D01*
X161838073Y-87335585D01*
X161749935Y-87318521D01*
X161643713Y-87298349D01*
X161524598Y-87276082D01*
X161461817Y-87264277D01*
X161346588Y-87241752D01*
X161245838Y-87220950D01*
X161165074Y-87203065D01*
X161109802Y-87189292D01*
X161085529Y-87180826D01*
X161081169Y-87172434D01*
X161073937Y-87131428D01*
X161068254Y-87063132D01*
X161064118Y-86973971D01*
X161061523Y-86870372D01*
X161060464Y-86758760D01*
X161060939Y-86645562D01*
X161062941Y-86537204D01*
X161066467Y-86440111D01*
X161071513Y-86360710D01*
X161078073Y-86305428D01*
X161086144Y-86280690D01*
X161091042Y-86277900D01*
X161127570Y-86265931D01*
X161190935Y-86250095D01*
X161273814Y-86232126D01*
X161368882Y-86213759D01*
X161400958Y-86207909D01*
X161549107Y-86180702D01*
X161665539Y-86158837D01*
X161754291Y-86141407D01*
X161819397Y-86127504D01*
X161864894Y-86116223D01*
X161894818Y-86106657D01*
X161913206Y-86097899D01*
X161924093Y-86089043D01*
X161925358Y-86087557D01*
X161943162Y-86056569D01*
X161969506Y-85999866D01*
X162001839Y-85924101D01*
X162037607Y-85835926D01*
X162074256Y-85741993D01*
X162109234Y-85648953D01*
X162139987Y-85563459D01*
X162163962Y-85492164D01*
X162178605Y-85441718D01*
X162181364Y-85418774D01*
X162179519Y-85415797D01*
X162160425Y-85387007D01*
X162124516Y-85333905D01*
X162075122Y-85261383D01*
X162015573Y-85174333D01*
X161949197Y-85077646D01*
X161930980Y-85051044D01*
X161866923Y-84955625D01*
X161811563Y-84870288D01*
X161768061Y-84800095D01*
X161739576Y-84750106D01*
X161729268Y-84725384D01*
X161731489Y-84718884D01*
X161754642Y-84686856D01*
X161800323Y-84634555D01*
X161865259Y-84565501D01*
X161946181Y-84483214D01*
X162039815Y-84391214D01*
X162093335Y-84339719D01*
X162177958Y-84259517D01*
X162252025Y-84190822D01*
X162311559Y-84137248D01*
X162352583Y-84102415D01*
X162371119Y-84089937D01*
X162383854Y-84094562D01*
X162423064Y-84116443D01*
X162480005Y-84152227D01*
X162547250Y-84197383D01*
X162595062Y-84230335D01*
X162690515Y-84295773D01*
X162792375Y-84365272D01*
X162885412Y-84428425D01*
X163067668Y-84551700D01*
X163220659Y-84468980D01*
X163256683Y-84449887D01*
X163322197Y-84417228D01*
X163372860Y-84394681D01*
X163399936Y-84386274D01*
X163408797Y-84397070D01*
X163430801Y-84438177D01*
X163463301Y-84505951D01*
X163504490Y-84596091D01*
X163552558Y-84704295D01*
X163605698Y-84826263D01*
X163662101Y-84957692D01*
X163719958Y-85094282D01*
X163777462Y-85231733D01*
X163832803Y-85365742D01*
X163884174Y-85492009D01*
X163929765Y-85606232D01*
X163967768Y-85704110D01*
X163996376Y-85781343D01*
X164013779Y-85833629D01*
X164018169Y-85856667D01*
X164017872Y-85857340D01*
X163997423Y-85878637D01*
X163954650Y-85911992D01*
X163898383Y-85950489D01*
X163880623Y-85962244D01*
X163745486Y-86073765D01*
X163633644Y-86206594D01*
X163547745Y-86355202D01*
X163490438Y-86514060D01*
X163464369Y-86677640D01*
X163472187Y-86840412D01*
X163503856Y-86985185D01*
X163560718Y-87131376D01*
X163643612Y-87261797D01*
X163757369Y-87385687D01*
X163802067Y-87425265D01*
X163946565Y-87522777D01*
X164102662Y-87588450D01*
X164265833Y-87622870D01*
X164431557Y-87626626D01*
X164595308Y-87600306D01*
X164752564Y-87544497D01*
X164898802Y-87459786D01*
X165029496Y-87346763D01*
X165140126Y-87206013D01*
X165161395Y-87171158D01*
X165233690Y-87011845D01*
X165272085Y-86845948D01*
X165277586Y-86677763D01*
X165251199Y-86511587D01*
X165193930Y-86351716D01*
X165106783Y-86202447D01*
X164990764Y-86068077D01*
X164846878Y-85952901D01*
X164842206Y-85949798D01*
X164786536Y-85910567D01*
X164744811Y-85877214D01*
X164725754Y-85856667D01*
X164728158Y-85840559D01*
X164743109Y-85793656D01*
X164769619Y-85720961D01*
X164805880Y-85626775D01*
X164850084Y-85515402D01*
X164900424Y-85391142D01*
X164955093Y-85258298D01*
X165012282Y-85121173D01*
X165070184Y-84984068D01*
X165126990Y-84851285D01*
X165180894Y-84727126D01*
X165230088Y-84615894D01*
X165272763Y-84521891D01*
X165307113Y-84449418D01*
X165331329Y-84402778D01*
X165343603Y-84386274D01*
X165353811Y-84388509D01*
X165393914Y-84404574D01*
X165453182Y-84432741D01*
X165522881Y-84468980D01*
X165675871Y-84551700D01*
X165858127Y-84428425D01*
X165911973Y-84391921D01*
X166012126Y-84323716D01*
X166111975Y-84255402D01*
X166196289Y-84197383D01*
X166242821Y-84165764D01*
X166303300Y-84126480D01*
X166348143Y-84099588D01*
X166370045Y-84089617D01*
X166379455Y-84093850D01*
G37*
D13*
X166379455Y-84093850D02*
X166413469Y-84119779D01*
X166465905Y-84165430D01*
X166532199Y-84226314D01*
X166607787Y-84297939D01*
X166688104Y-84375817D01*
X166768587Y-84455455D01*
X166844671Y-84532365D01*
X166911793Y-84602055D01*
X166965388Y-84660036D01*
X167000892Y-84701816D01*
X167013741Y-84722907D01*
X167013000Y-84726919D01*
X166997707Y-84759580D01*
X166965038Y-84816088D01*
X166918150Y-84891337D01*
X166860199Y-84980225D01*
X166794343Y-85077646D01*
X166775873Y-85104518D01*
X166711018Y-85199077D01*
X166653891Y-85282673D01*
X166607822Y-85350416D01*
X166576141Y-85397414D01*
X166562176Y-85418774D01*
X166561832Y-85419689D01*
X166565954Y-85445822D01*
X166581693Y-85498760D01*
X166606496Y-85571853D01*
X166637811Y-85658448D01*
X166673083Y-85751892D01*
X166709760Y-85845535D01*
X166745288Y-85932723D01*
X166777114Y-86006805D01*
X166802684Y-86061129D01*
X166819447Y-86089043D01*
X166821126Y-86090776D01*
X166833128Y-86099544D01*
X166853397Y-86108385D01*
X166885971Y-86118208D01*
X166934884Y-86129917D01*
X167004173Y-86144420D01*
X167097875Y-86162624D01*
X167220024Y-86185434D01*
X167374658Y-86213759D01*
X167406730Y-86219720D01*
X167498607Y-86238148D01*
X167575893Y-86255608D01*
X167631264Y-86270367D01*
X167657395Y-86280690D01*
X167661767Y-86289303D01*
X167669055Y-86330674D01*
X167674831Y-86399259D01*
X167679090Y-86488632D01*
X167681827Y-86592365D01*
X167683038Y-86704035D01*
X167682718Y-86817213D01*
X167680864Y-86925474D01*
X167677470Y-87022392D01*
X167672533Y-87101541D01*
X167666048Y-87156494D01*
X167658011Y-87180826D01*
X167649804Y-87184421D01*
X167608981Y-87195752D01*
X167539976Y-87211778D01*
X167448297Y-87231305D01*
X167339450Y-87253138D01*
X167218942Y-87276082D01*
X167153143Y-87288341D01*
X167040365Y-87309599D01*
X166943293Y-87328213D01*
X166867118Y-87343172D01*
X166817031Y-87353464D01*
X166798224Y-87358078D01*
X166797517Y-87359029D01*
X166785539Y-87383190D01*
X166762706Y-87433806D01*
X166731870Y-87504162D01*
X166695887Y-87587542D01*
X166657609Y-87677230D01*
X166619891Y-87766511D01*
X166585587Y-87848668D01*
X166557551Y-87916987D01*
X166538636Y-87964752D01*
X166531697Y-87985246D01*
X166534758Y-87992457D01*
X166555128Y-88026772D01*
X166592078Y-88084530D01*
X166642640Y-88161201D01*
X166703843Y-88252252D01*
X166772719Y-88353150D01*
X166810506Y-88408407D01*
X166875718Y-88505285D01*
X166931629Y-88590307D01*
X166975259Y-88658838D01*
X167003623Y-88706240D01*
X167013741Y-88727877D01*
X167006710Y-88739613D01*
X166977303Y-88774682D01*
X166929059Y-88827755D01*
X166866407Y-88894336D01*
X166793775Y-88969926D01*
X166715592Y-89050028D01*
X166636286Y-89130146D01*
X166560287Y-89205782D01*
X166492022Y-89272438D01*
X166435920Y-89325618D01*
X166396410Y-89360824D01*
X166377921Y-89373558D01*
X166367657Y-89368607D01*
X166329970Y-89345643D01*
X166269152Y-89306562D01*
X166189587Y-89254228D01*
X166095657Y-89191504D01*
X165991746Y-89121254D01*
X165620706Y-88868949D01*
X165311420Y-88996447D01*
X165002135Y-89123945D01*
X164918314Y-89568569D01*
X164834494Y-90013193D01*
X163909046Y-90013193D01*
X163825225Y-89568569D01*
X163741405Y-89123945D01*
X163122833Y-88868949D01*
X162751793Y-89121254D01*
X162678356Y-89170994D01*
X162581001Y-89236282D01*
X162496713Y-89292046D01*
X162429869Y-89335422D01*
X162384846Y-89363547D01*
X162366022Y-89373558D01*
X162354461Y-89366439D01*
X162319904Y-89336606D01*
X162267606Y-89287648D01*
X162202000Y-89224060D01*
X162127517Y-89150337D01*
X162048587Y-89070975D01*
X161969644Y-88990469D01*
X161895116Y-88913315D01*
X161829437Y-88844007D01*
X161777037Y-88787043D01*
X161742347Y-88746916D01*
X161729799Y-88728123D01*
X161732718Y-88720049D01*
X161752929Y-88684031D01*
X161789837Y-88624756D01*
X161840450Y-88546870D01*
X161901775Y-88455019D01*
X161970821Y-88353850D01*
X162008713Y-88298674D01*
X162073894Y-88202616D01*
X162129777Y-88118783D01*
X162173383Y-88051723D01*
X162201731Y-88005981D01*
X162211843Y-87986104D01*
X162211677Y-87985003D01*
X162202757Y-87959806D01*
X162182294Y-87908353D01*
X162153140Y-87837365D01*
X162118147Y-87753565D01*
X162080168Y-87663672D01*
X162042055Y-87574409D01*
X162006661Y-87492497D01*
X161976838Y-87424657D01*
X161955439Y-87377610D01*
X161945316Y-87358078D01*
X161939326Y-87356345D01*
X161902934Y-87348531D01*
X161838073Y-87335585D01*
X161749935Y-87318521D01*
X161643713Y-87298349D01*
X161524598Y-87276082D01*
X161461817Y-87264277D01*
X161346588Y-87241752D01*
X161245838Y-87220950D01*
X161165074Y-87203065D01*
X161109802Y-87189292D01*
X161085529Y-87180826D01*
X161081169Y-87172434D01*
X161073937Y-87131428D01*
X161068254Y-87063132D01*
X161064118Y-86973971D01*
X161061523Y-86870372D01*
X161060464Y-86758760D01*
X161060939Y-86645562D01*
X161062941Y-86537204D01*
X161066467Y-86440111D01*
X161071513Y-86360710D01*
X161078073Y-86305428D01*
X161086144Y-86280690D01*
X161091042Y-86277900D01*
X161127570Y-86265931D01*
X161190935Y-86250095D01*
X161273814Y-86232126D01*
X161368882Y-86213759D01*
X161400958Y-86207909D01*
X161549107Y-86180702D01*
X161665539Y-86158837D01*
X161754291Y-86141407D01*
X161819397Y-86127504D01*
X161864894Y-86116223D01*
X161894818Y-86106657D01*
X161913206Y-86097899D01*
X161924093Y-86089043D01*
X161925358Y-86087557D01*
X161943162Y-86056569D01*
X161969506Y-85999866D01*
X162001839Y-85924101D01*
X162037607Y-85835926D01*
X162074256Y-85741993D01*
X162109234Y-85648953D01*
X162139987Y-85563459D01*
X162163962Y-85492164D01*
X162178605Y-85441718D01*
X162181364Y-85418774D01*
X162179519Y-85415797D01*
X162160425Y-85387007D01*
X162124516Y-85333905D01*
X162075122Y-85261383D01*
X162015573Y-85174333D01*
X161949197Y-85077646D01*
X161930980Y-85051044D01*
X161866923Y-84955625D01*
X161811563Y-84870288D01*
X161768061Y-84800095D01*
X161739576Y-84750106D01*
X161729268Y-84725384D01*
X161731489Y-84718884D01*
X161754642Y-84686856D01*
X161800323Y-84634555D01*
X161865259Y-84565501D01*
X161946181Y-84483214D01*
X162039815Y-84391214D01*
X162093335Y-84339719D01*
X162177958Y-84259517D01*
X162252025Y-84190822D01*
X162311559Y-84137248D01*
X162352583Y-84102415D01*
X162371119Y-84089937D01*
X162383854Y-84094562D01*
X162423064Y-84116443D01*
X162480005Y-84152227D01*
X162547250Y-84197383D01*
X162595062Y-84230335D01*
X162690515Y-84295773D01*
X162792375Y-84365272D01*
X162885412Y-84428425D01*
X163067668Y-84551700D01*
X163220659Y-84468980D01*
X163256683Y-84449887D01*
X163322197Y-84417228D01*
X163372860Y-84394681D01*
X163399936Y-84386274D01*
X163408797Y-84397070D01*
X163430801Y-84438177D01*
X163463301Y-84505951D01*
X163504490Y-84596091D01*
X163552558Y-84704295D01*
X163605698Y-84826263D01*
X163662101Y-84957692D01*
X163719958Y-85094282D01*
X163777462Y-85231733D01*
X163832803Y-85365742D01*
X163884174Y-85492009D01*
X163929765Y-85606232D01*
X163967768Y-85704110D01*
X163996376Y-85781343D01*
X164013779Y-85833629D01*
X164018169Y-85856667D01*
X164017872Y-85857340D01*
X163997423Y-85878637D01*
X163954650Y-85911992D01*
X163898383Y-85950489D01*
X163880623Y-85962244D01*
X163745486Y-86073765D01*
X163633644Y-86206594D01*
X163547745Y-86355202D01*
X163490438Y-86514060D01*
X163464369Y-86677640D01*
X163472187Y-86840412D01*
X163503856Y-86985185D01*
X163560718Y-87131376D01*
X163643612Y-87261797D01*
X163757369Y-87385687D01*
X163802067Y-87425265D01*
X163946565Y-87522777D01*
X164102662Y-87588450D01*
X164265833Y-87622870D01*
X164431557Y-87626626D01*
X164595308Y-87600306D01*
X164752564Y-87544497D01*
X164898802Y-87459786D01*
X165029496Y-87346763D01*
X165140126Y-87206013D01*
X165161395Y-87171158D01*
X165233690Y-87011845D01*
X165272085Y-86845948D01*
X165277586Y-86677763D01*
X165251199Y-86511587D01*
X165193930Y-86351716D01*
X165106783Y-86202447D01*
X164990764Y-86068077D01*
X164846878Y-85952901D01*
X164842206Y-85949798D01*
X164786536Y-85910567D01*
X164744811Y-85877214D01*
X164725754Y-85856667D01*
X164728158Y-85840559D01*
X164743109Y-85793656D01*
X164769619Y-85720961D01*
X164805880Y-85626775D01*
X164850084Y-85515402D01*
X164900424Y-85391142D01*
X164955093Y-85258298D01*
X165012282Y-85121173D01*
X165070184Y-84984068D01*
X165126990Y-84851285D01*
X165180894Y-84727126D01*
X165230088Y-84615894D01*
X165272763Y-84521891D01*
X165307113Y-84449418D01*
X165331329Y-84402778D01*
X165343603Y-84386274D01*
X165353811Y-84388509D01*
X165393914Y-84404574D01*
X165453182Y-84432741D01*
X165522881Y-84468980D01*
X165675871Y-84551700D01*
X165858127Y-84428425D01*
X165911973Y-84391921D01*
X166012126Y-84323716D01*
X166111975Y-84255402D01*
X166196289Y-84197383D01*
X166242821Y-84165764D01*
X166303300Y-84126480D01*
X166348143Y-84099588D01*
X166370045Y-84089617D01*
X166379455Y-84093850D01*
D12*
X167146665Y-80397500D02*
X167378335Y-80397500D01*
X167146665Y-79677500D02*
X167378335Y-79677500D01*
X159694879Y-77717500D02*
X160030121Y-77717500D01*
X159694879Y-76957500D02*
X160030121Y-76957500D01*
X134372500Y-84448752D02*
X134372500Y-83026248D01*
X132552500Y-84448752D02*
X132552500Y-83026248D01*
X159622500Y-81853335D02*
X159622500Y-81621665D01*
X158902500Y-81853335D02*
X158902500Y-81621665D01*
X150378335Y-80797500D02*
X150146665Y-80797500D01*
X150378335Y-80077500D02*
X150146665Y-80077500D01*
X168612500Y-77387500D02*
X170912500Y-77387500D01*
X170912500Y-77387500D02*
X170912500Y-80087500D01*
X145172500Y-87248752D02*
X145172500Y-85826248D01*
X143352500Y-87248752D02*
X143352500Y-85826248D01*
X147467621Y-83920000D02*
X147132379Y-83920000D01*
X147467621Y-84680000D02*
X147132379Y-84680000D01*
X128962500Y-82677500D02*
X128162500Y-82677500D01*
X128962500Y-82677500D02*
X129762500Y-82677500D01*
X128962500Y-85797500D02*
X129762500Y-85797500D01*
X128962500Y-85797500D02*
X127162500Y-85797500D01*
X152494879Y-80057500D02*
X152830121Y-80057500D01*
X152494879Y-80817500D02*
X152830121Y-80817500D01*
X133602500Y-77453335D02*
X133602500Y-77221665D01*
X134322500Y-77453335D02*
X134322500Y-77221665D01*
X167415835Y-82660000D02*
X167184165Y-82660000D01*
X167415835Y-81940000D02*
X167184165Y-81940000D01*
X119537500Y-79837500D02*
X117637500Y-79837500D01*
X117637500Y-89237500D02*
X117637500Y-79837500D01*
X119537500Y-89237500D02*
X117637500Y-89237500D01*
X123437500Y-89237500D02*
X121437500Y-89237500D01*
X123437500Y-79837500D02*
X121437500Y-79837500D01*
X145851248Y-80127500D02*
X147273752Y-80127500D01*
X145851248Y-81947500D02*
X147273752Y-81947500D01*
X150378335Y-81997500D02*
X150146665Y-81997500D01*
X150378335Y-81277500D02*
X150146665Y-81277500D01*
X160040000Y-85415835D02*
X160040000Y-85184165D01*
X160760000Y-85415835D02*
X160760000Y-85184165D01*
X174594879Y-81857500D02*
X174930121Y-81857500D01*
X174594879Y-82617500D02*
X174930121Y-82617500D01*
X151272500Y-87683767D02*
X151272500Y-87391233D01*
X150252500Y-87683767D02*
X150252500Y-87391233D01*
X167467621Y-83020000D02*
X167132379Y-83020000D01*
X167467621Y-83780000D02*
X167132379Y-83780000D01*
X167146665Y-79397500D02*
X167378335Y-79397500D01*
X167146665Y-78677500D02*
X167378335Y-78677500D01*
X139262500Y-81637500D02*
X136262500Y-81637500D01*
X136262500Y-78437500D02*
X139362500Y-78437500D01*
X139362500Y-78637500D02*
X140562500Y-78637500D01*
X139362500Y-78437500D02*
X139362500Y-78637500D01*
X139362500Y-81937500D02*
X139362500Y-82137500D01*
X139262500Y-85137500D02*
X136262500Y-85137500D01*
X136262500Y-81937500D02*
X139362500Y-81937500D01*
X139362500Y-82137500D02*
X140562500Y-82137500D01*
X159622500Y-86315835D02*
X159622500Y-86084165D01*
X158902500Y-86315835D02*
X158902500Y-86084165D01*
X168667621Y-88620000D02*
X168332379Y-88620000D01*
X168667621Y-89380000D02*
X168332379Y-89380000D01*
X164284165Y-85360000D02*
X164515835Y-85360000D01*
X164284165Y-84640000D02*
X164515835Y-84640000D01*
X158882500Y-79205121D02*
X158882500Y-78869879D01*
X159642500Y-79205121D02*
X159642500Y-78869879D01*
X175000000Y-76440000D02*
X173050000Y-76440000D01*
X175000000Y-81560000D02*
X176950000Y-81560000D01*
X175000000Y-81560000D02*
X171550000Y-81560000D01*
X175000000Y-76440000D02*
X176950000Y-76440000D01*
X129862500Y-77537500D02*
X129862500Y-79537500D01*
X130362500Y-76537500D02*
X130362500Y-80537500D01*
X129862500Y-79537500D02*
X130362500Y-79537500D01*
X131862500Y-80537500D02*
X133362500Y-80537500D01*
X131862500Y-76537500D02*
X133362500Y-76537500D01*
X129862500Y-77537500D02*
X130362500Y-77537500D01*
X130378335Y-86897500D02*
X130146665Y-86897500D01*
X130378335Y-86177500D02*
X130146665Y-86177500D01*
X132512500Y-87237500D02*
X128612500Y-87237500D01*
X132512500Y-87237500D02*
X132512500Y-89237500D01*
X132512500Y-89237500D02*
X128612500Y-89237500D01*
X167315835Y-78360000D02*
X167084165Y-78360000D01*
X167315835Y-77640000D02*
X167084165Y-77640000D01*
X173400000Y-84540000D02*
X171450000Y-84540000D01*
X173400000Y-84540000D02*
X175350000Y-84540000D01*
X173400000Y-89660000D02*
X169950000Y-89660000D01*
X173400000Y-89660000D02*
X175350000Y-89660000D01*
G36*
X127930258Y-76820447D02*
G01*
X128068482Y-76840950D01*
X128204030Y-76874904D01*
X128335597Y-76921979D01*
X128461917Y-76981724D01*
X128581772Y-77053562D01*
X128694009Y-77136803D01*
X128797547Y-77230644D01*
X128891388Y-77334181D01*
X128974628Y-77446418D01*
X129046467Y-77566274D01*
X129106212Y-77692593D01*
X129153287Y-77824161D01*
X129187240Y-77959709D01*
X129207744Y-78097932D01*
X129214600Y-78237500D01*
X129207744Y-78377068D01*
X129187240Y-78515291D01*
X129153287Y-78650839D01*
X129106212Y-78782407D01*
X129046467Y-78908726D01*
X128974628Y-79028582D01*
X128891388Y-79140819D01*
X128797547Y-79244356D01*
X128694009Y-79338197D01*
X128581772Y-79421438D01*
X128461917Y-79493276D01*
X128335597Y-79553021D01*
X128204030Y-79600096D01*
X128068482Y-79634050D01*
X127930258Y-79654553D01*
X127790691Y-79661410D01*
X122134309Y-79661410D01*
X121994742Y-79654553D01*
X121856518Y-79634050D01*
X121720970Y-79600096D01*
X121589403Y-79553021D01*
X121463083Y-79493276D01*
X121343228Y-79421438D01*
X121230991Y-79338197D01*
X121127453Y-79244356D01*
X121033612Y-79140819D01*
X120950372Y-79028582D01*
X120878533Y-78908726D01*
X120818788Y-78782407D01*
X120790293Y-78702767D01*
X122134552Y-78702767D01*
X122509673Y-78702767D01*
X122538389Y-78588631D01*
X122572193Y-78467225D01*
X122609632Y-78341821D01*
X122649253Y-78215691D01*
X122690327Y-78091014D01*
X122732128Y-77969972D01*
X122812096Y-77751878D01*
X122896426Y-77969972D01*
X122942589Y-78091014D01*
X122988025Y-78215691D01*
X123032371Y-78341821D01*
X123075263Y-78467225D01*
X123113429Y-78588631D01*
X123143599Y-78702767D01*
X123507088Y-78702767D01*
X123444386Y-78500394D01*
X123378413Y-78306200D01*
X123353922Y-78240408D01*
X123649576Y-78240408D01*
X123659754Y-78461046D01*
X123690287Y-78651878D01*
X123741175Y-78812904D01*
X123812419Y-78944124D01*
X123936167Y-79073364D01*
X124090287Y-79150909D01*
X124274778Y-79176757D01*
X124462177Y-79151070D01*
X124617266Y-79074011D01*
X124740044Y-78945578D01*
X124810016Y-78814812D01*
X124826732Y-78760925D01*
X126595295Y-78760925D01*
X126746506Y-78827807D01*
X126909350Y-78917952D01*
X127063469Y-79022637D01*
X127188510Y-79136046D01*
X127432775Y-79136046D01*
X127432775Y-77632653D01*
X127790448Y-77632653D01*
X127790448Y-77336046D01*
X126697072Y-77336046D01*
X126697072Y-77632653D01*
X127075101Y-77632653D01*
X127075101Y-78638792D01*
X126888994Y-78535561D01*
X126711611Y-78464317D01*
X126595295Y-78760925D01*
X124826732Y-78760925D01*
X124859996Y-78653695D01*
X124889984Y-78462227D01*
X124899980Y-78240408D01*
X124889984Y-78017225D01*
X124859996Y-77824576D01*
X124810016Y-77662460D01*
X124758600Y-77565771D01*
X125469931Y-77565771D01*
X125491741Y-77674818D01*
X125549899Y-77754786D01*
X125632775Y-77804221D01*
X125731644Y-77821668D01*
X125911935Y-77754786D01*
X125990448Y-77565771D01*
X125911935Y-77370941D01*
X125731644Y-77304059D01*
X125632775Y-77321506D01*
X125549899Y-77372395D01*
X125491741Y-77453817D01*
X125469931Y-77565771D01*
X124758600Y-77565771D01*
X124740044Y-77530876D01*
X124617266Y-77401636D01*
X124462177Y-77324091D01*
X124274778Y-77298243D01*
X124087379Y-77324091D01*
X123932290Y-77401636D01*
X123809511Y-77530876D01*
X123739540Y-77662460D01*
X123689560Y-77824576D01*
X123659572Y-78017225D01*
X123649576Y-78240408D01*
X123353922Y-78240408D01*
X123309168Y-78120184D01*
X123236652Y-77942347D01*
X123139721Y-77720537D01*
X123046668Y-77518437D01*
X122957492Y-77336046D01*
X122657977Y-77336046D01*
X122570254Y-77518437D01*
X122481563Y-77720537D01*
X122391902Y-77942347D01*
X122325111Y-78120184D01*
X122259956Y-78306200D01*
X122196436Y-78500394D01*
X122134552Y-78702767D01*
X120790293Y-78702767D01*
X120771713Y-78650839D01*
X120737760Y-78515291D01*
X120717256Y-78377068D01*
X120710400Y-78237500D01*
X120717256Y-78097932D01*
X120737760Y-77959709D01*
X120771713Y-77824161D01*
X120818788Y-77692593D01*
X120878533Y-77566274D01*
X120950372Y-77446418D01*
X121033612Y-77334181D01*
X121127453Y-77230644D01*
X121230991Y-77136803D01*
X121343228Y-77053562D01*
X121463083Y-76981724D01*
X121589403Y-76921979D01*
X121720970Y-76874904D01*
X121856518Y-76840950D01*
X121994742Y-76820447D01*
X122134309Y-76813590D01*
X127790691Y-76813590D01*
X127930258Y-76820447D01*
G37*
G36*
X124500141Y-77767872D02*
G01*
X124542952Y-77892104D01*
X124568639Y-78049616D01*
X124577201Y-78240408D01*
X124568639Y-78429584D01*
X124542952Y-78586127D01*
X124500141Y-78710036D01*
X124405271Y-78831078D01*
X124274778Y-78871426D01*
X124146103Y-78831078D01*
X124050868Y-78710036D01*
X124007250Y-78586127D01*
X123981078Y-78429584D01*
X123973696Y-78269487D01*
X124114842Y-78269487D01*
X124158461Y-78406159D01*
X124277686Y-78464317D01*
X124392548Y-78406159D01*
X124437621Y-78269487D01*
X124392548Y-78134269D01*
X124277686Y-78077565D01*
X124158461Y-78134269D01*
X124114842Y-78269487D01*
X123973696Y-78269487D01*
X123972355Y-78240408D01*
X123981078Y-78049616D01*
X124007250Y-77892104D01*
X124050868Y-77767872D01*
X124146103Y-77646830D01*
X124274778Y-77606482D01*
X124277686Y-77607381D01*
X124405271Y-77646830D01*
X124500141Y-77767872D01*
G37*
X165097500Y-78427493D02*
X165572500Y-78427493D01*
X160827500Y-83647493D02*
X160352500Y-83647493D01*
X160352500Y-78427493D02*
X160352500Y-78902493D01*
X165097500Y-83647493D02*
X165572500Y-83647493D01*
X165572500Y-83647493D02*
X165572500Y-83172493D01*
X160352500Y-83647493D02*
X160352500Y-83172493D01*
X160827500Y-78427493D02*
X160352500Y-78427493D01*
X159622500Y-83821665D02*
X159622500Y-84053335D01*
X158902500Y-83821665D02*
X158902500Y-84053335D01*
X149922500Y-87953335D02*
X149922500Y-87721665D01*
X149202500Y-87953335D02*
X149202500Y-87721665D01*
X128730121Y-82117500D02*
X128394879Y-82117500D01*
X128730121Y-81357500D02*
X128394879Y-81357500D01*
X149922500Y-85521665D02*
X149922500Y-85753335D01*
X149202500Y-85521665D02*
X149202500Y-85753335D01*
X148822500Y-86937500D02*
X148822500Y-86137500D01*
X145702500Y-86937500D02*
X145702500Y-87737500D01*
X148822500Y-86937500D02*
X148822500Y-88737500D01*
X145702500Y-86937500D02*
X145702500Y-86137500D01*
X169654664Y-80277500D02*
X169870336Y-80277500D01*
X169654664Y-80997500D02*
X169870336Y-80997500D01*
X172332379Y-83420000D02*
X172667621Y-83420000D01*
X172332379Y-84180000D02*
X172667621Y-84180000D01*
X127794879Y-86917500D02*
X128130121Y-86917500D01*
X127794879Y-86157500D02*
X128130121Y-86157500D01*
%LPC*%
D14*
X137437500Y-88727500D03*
X139977500Y-88727500D03*
X153547500Y-88727500D03*
X156087500Y-88727500D03*
X156087500Y-77347500D03*
X153547500Y-77347500D03*
X139977500Y-77347500D03*
X137437500Y-77347500D03*
D15*
X179987500Y-77962500D03*
D16*
X182527500Y-77962500D03*
X179987500Y-80502500D03*
X182527500Y-80502500D03*
X179987500Y-83042500D03*
X182527500Y-83042500D03*
X179987500Y-85582500D03*
X182527500Y-85582500D03*
X179987500Y-88122500D03*
X182527500Y-88122500D03*
D14*
X130262500Y-88237500D03*
X130262500Y-77837500D03*
D17*
X122462500Y-75987500D03*
X122462500Y-90087500D03*
X128362500Y-90087500D03*
X128362500Y-75987500D03*
D18*
X120000000Y-78000000D03*
D19*
X148562500Y-77837500D03*
X144562500Y-77837500D03*
G36*
G01*
X151707500Y-81797500D02*
X151707500Y-81477500D01*
G75*
G02*
X151867500Y-81317500I160000J0D01*
G01*
X152262500Y-81317500D01*
G75*
G02*
X152422500Y-81477500I0J-160000D01*
G01*
X152422500Y-81797500D01*
G75*
G02*
X152262500Y-81957500I-160000J0D01*
G01*
X151867500Y-81957500D01*
G75*
G02*
X151707500Y-81797500I0J160000D01*
G01*
G37*
G36*
G01*
X152902500Y-81797500D02*
X152902500Y-81477500D01*
G75*
G02*
X153062500Y-81317500I160000J0D01*
G01*
X153457500Y-81317500D01*
G75*
G02*
X153617500Y-81477500I0J-160000D01*
G01*
X153617500Y-81797500D01*
G75*
G02*
X153457500Y-81957500I-160000J0D01*
G01*
X153062500Y-81957500D01*
G75*
G02*
X152902500Y-81797500I0J160000D01*
G01*
G37*
G36*
G01*
X169102500Y-77007500D02*
X169102500Y-76667500D01*
G75*
G02*
X169242500Y-76527500I140000J0D01*
G01*
X169522500Y-76527500D01*
G75*
G02*
X169662500Y-76667500I0J-140000D01*
G01*
X169662500Y-77007500D01*
G75*
G02*
X169522500Y-77147500I-140000J0D01*
G01*
X169242500Y-77147500D01*
G75*
G02*
X169102500Y-77007500I0J140000D01*
G01*
G37*
G36*
G01*
X170062500Y-77007500D02*
X170062500Y-76667500D01*
G75*
G02*
X170202500Y-76527500I140000J0D01*
G01*
X170482500Y-76527500D01*
G75*
G02*
X170622500Y-76667500I0J-140000D01*
G01*
X170622500Y-77007500D01*
G75*
G02*
X170482500Y-77147500I-140000J0D01*
G01*
X170202500Y-77147500D01*
G75*
G02*
X170062500Y-77007500I0J140000D01*
G01*
G37*
G36*
G01*
X166327500Y-80192500D02*
X166327500Y-79882500D01*
G75*
G02*
X166482500Y-79727500I155000J0D01*
G01*
X166907500Y-79727500D01*
G75*
G02*
X167062500Y-79882500I0J-155000D01*
G01*
X167062500Y-80192500D01*
G75*
G02*
X166907500Y-80347500I-155000J0D01*
G01*
X166482500Y-80347500D01*
G75*
G02*
X166327500Y-80192500I0J155000D01*
G01*
G37*
G36*
G01*
X167462500Y-80192500D02*
X167462500Y-79882500D01*
G75*
G02*
X167617500Y-79727500I155000J0D01*
G01*
X168042500Y-79727500D01*
G75*
G02*
X168197500Y-79882500I0J-155000D01*
G01*
X168197500Y-80192500D01*
G75*
G02*
X168042500Y-80347500I-155000J0D01*
G01*
X167617500Y-80347500D01*
G75*
G02*
X167462500Y-80192500I0J155000D01*
G01*
G37*
G36*
G01*
X158907500Y-77497500D02*
X158907500Y-77177500D01*
G75*
G02*
X159067500Y-77017500I160000J0D01*
G01*
X159462500Y-77017500D01*
G75*
G02*
X159622500Y-77177500I0J-160000D01*
G01*
X159622500Y-77497500D01*
G75*
G02*
X159462500Y-77657500I-160000J0D01*
G01*
X159067500Y-77657500D01*
G75*
G02*
X158907500Y-77497500I0J160000D01*
G01*
G37*
G36*
G01*
X160102500Y-77497500D02*
X160102500Y-77177500D01*
G75*
G02*
X160262500Y-77017500I160000J0D01*
G01*
X160657500Y-77017500D01*
G75*
G02*
X160817500Y-77177500I0J-160000D01*
G01*
X160817500Y-77497500D01*
G75*
G02*
X160657500Y-77657500I-160000J0D01*
G01*
X160262500Y-77657500D01*
G75*
G02*
X160102500Y-77497500I0J160000D01*
G01*
G37*
G36*
G01*
X134112500Y-85962500D02*
X132812500Y-85962500D01*
G75*
G02*
X132562500Y-85712500I0J250000D01*
G01*
X132562500Y-84887500D01*
G75*
G02*
X132812500Y-84637500I250000J0D01*
G01*
X134112500Y-84637500D01*
G75*
G02*
X134362500Y-84887500I0J-250000D01*
G01*
X134362500Y-85712500D01*
G75*
G02*
X134112500Y-85962500I-250000J0D01*
G01*
G37*
G36*
G01*
X134112500Y-82837500D02*
X132812500Y-82837500D01*
G75*
G02*
X132562500Y-82587500I0J250000D01*
G01*
X132562500Y-81762500D01*
G75*
G02*
X132812500Y-81512500I250000J0D01*
G01*
X134112500Y-81512500D01*
G75*
G02*
X134362500Y-81762500I0J-250000D01*
G01*
X134362500Y-82587500D01*
G75*
G02*
X134112500Y-82837500I-250000J0D01*
G01*
G37*
G36*
G01*
X159417500Y-82672500D02*
X159107500Y-82672500D01*
G75*
G02*
X158952500Y-82517500I0J155000D01*
G01*
X158952500Y-82092500D01*
G75*
G02*
X159107500Y-81937500I155000J0D01*
G01*
X159417500Y-81937500D01*
G75*
G02*
X159572500Y-82092500I0J-155000D01*
G01*
X159572500Y-82517500D01*
G75*
G02*
X159417500Y-82672500I-155000J0D01*
G01*
G37*
G36*
G01*
X159417500Y-81537500D02*
X159107500Y-81537500D01*
G75*
G02*
X158952500Y-81382500I0J155000D01*
G01*
X158952500Y-80957500D01*
G75*
G02*
X159107500Y-80802500I155000J0D01*
G01*
X159417500Y-80802500D01*
G75*
G02*
X159572500Y-80957500I0J-155000D01*
G01*
X159572500Y-81382500D01*
G75*
G02*
X159417500Y-81537500I-155000J0D01*
G01*
G37*
G36*
G01*
X151197500Y-80282500D02*
X151197500Y-80592500D01*
G75*
G02*
X151042500Y-80747500I-155000J0D01*
G01*
X150617500Y-80747500D01*
G75*
G02*
X150462500Y-80592500I0J155000D01*
G01*
X150462500Y-80282500D01*
G75*
G02*
X150617500Y-80127500I155000J0D01*
G01*
X151042500Y-80127500D01*
G75*
G02*
X151197500Y-80282500I0J-155000D01*
G01*
G37*
G36*
G01*
X150062500Y-80282500D02*
X150062500Y-80592500D01*
G75*
G02*
X149907500Y-80747500I-155000J0D01*
G01*
X149482500Y-80747500D01*
G75*
G02*
X149327500Y-80592500I0J155000D01*
G01*
X149327500Y-80282500D01*
G75*
G02*
X149482500Y-80127500I155000J0D01*
G01*
X149907500Y-80127500D01*
G75*
G02*
X150062500Y-80282500I0J-155000D01*
G01*
G37*
D20*
X170312500Y-78037500D03*
X170312500Y-79437500D03*
X169212500Y-79437500D03*
X169212500Y-78037500D03*
G36*
G01*
X144912500Y-88762500D02*
X143612500Y-88762500D01*
G75*
G02*
X143362500Y-88512500I0J250000D01*
G01*
X143362500Y-87687500D01*
G75*
G02*
X143612500Y-87437500I250000J0D01*
G01*
X144912500Y-87437500D01*
G75*
G02*
X145162500Y-87687500I0J-250000D01*
G01*
X145162500Y-88512500D01*
G75*
G02*
X144912500Y-88762500I-250000J0D01*
G01*
G37*
G36*
G01*
X144912500Y-85637500D02*
X143612500Y-85637500D01*
G75*
G02*
X143362500Y-85387500I0J250000D01*
G01*
X143362500Y-84562500D01*
G75*
G02*
X143612500Y-84312500I250000J0D01*
G01*
X144912500Y-84312500D01*
G75*
G02*
X145162500Y-84562500I0J-250000D01*
G01*
X145162500Y-85387500D01*
G75*
G02*
X144912500Y-85637500I-250000J0D01*
G01*
G37*
G36*
G01*
X148255000Y-84140000D02*
X148255000Y-84460000D01*
G75*
G02*
X148095000Y-84620000I-160000J0D01*
G01*
X147700000Y-84620000D01*
G75*
G02*
X147540000Y-84460000I0J160000D01*
G01*
X147540000Y-84140000D01*
G75*
G02*
X147700000Y-83980000I160000J0D01*
G01*
X148095000Y-83980000D01*
G75*
G02*
X148255000Y-84140000I0J-160000D01*
G01*
G37*
G36*
G01*
X147060000Y-84140000D02*
X147060000Y-84460000D01*
G75*
G02*
X146900000Y-84620000I-160000J0D01*
G01*
X146505000Y-84620000D01*
G75*
G02*
X146345000Y-84460000I0J160000D01*
G01*
X146345000Y-84140000D01*
G75*
G02*
X146505000Y-83980000I160000J0D01*
G01*
X146900000Y-83980000D01*
G75*
G02*
X147060000Y-84140000I0J-160000D01*
G01*
G37*
G36*
G01*
X127162500Y-85337500D02*
X127162500Y-85037500D01*
G75*
G02*
X127312500Y-84887500I150000J0D01*
G01*
X128337500Y-84887500D01*
G75*
G02*
X128487500Y-85037500I0J-150000D01*
G01*
X128487500Y-85337500D01*
G75*
G02*
X128337500Y-85487500I-150000J0D01*
G01*
X127312500Y-85487500D01*
G75*
G02*
X127162500Y-85337500I0J150000D01*
G01*
G37*
G36*
G01*
X127162500Y-84387500D02*
X127162500Y-84087500D01*
G75*
G02*
X127312500Y-83937500I150000J0D01*
G01*
X128337500Y-83937500D01*
G75*
G02*
X128487500Y-84087500I0J-150000D01*
G01*
X128487500Y-84387500D01*
G75*
G02*
X128337500Y-84537500I-150000J0D01*
G01*
X127312500Y-84537500D01*
G75*
G02*
X127162500Y-84387500I0J150000D01*
G01*
G37*
G36*
G01*
X127162500Y-83437500D02*
X127162500Y-83137500D01*
G75*
G02*
X127312500Y-82987500I150000J0D01*
G01*
X128337500Y-82987500D01*
G75*
G02*
X128487500Y-83137500I0J-150000D01*
G01*
X128487500Y-83437500D01*
G75*
G02*
X128337500Y-83587500I-150000J0D01*
G01*
X127312500Y-83587500D01*
G75*
G02*
X127162500Y-83437500I0J150000D01*
G01*
G37*
G36*
G01*
X129437500Y-83437500D02*
X129437500Y-83137500D01*
G75*
G02*
X129587500Y-82987500I150000J0D01*
G01*
X130612500Y-82987500D01*
G75*
G02*
X130762500Y-83137500I0J-150000D01*
G01*
X130762500Y-83437500D01*
G75*
G02*
X130612500Y-83587500I-150000J0D01*
G01*
X129587500Y-83587500D01*
G75*
G02*
X129437500Y-83437500I0J150000D01*
G01*
G37*
G36*
G01*
X129437500Y-84387500D02*
X129437500Y-84087500D01*
G75*
G02*
X129587500Y-83937500I150000J0D01*
G01*
X130612500Y-83937500D01*
G75*
G02*
X130762500Y-84087500I0J-150000D01*
G01*
X130762500Y-84387500D01*
G75*
G02*
X130612500Y-84537500I-150000J0D01*
G01*
X129587500Y-84537500D01*
G75*
G02*
X129437500Y-84387500I0J150000D01*
G01*
G37*
G36*
G01*
X129437500Y-85337500D02*
X129437500Y-85037500D01*
G75*
G02*
X129587500Y-84887500I150000J0D01*
G01*
X130612500Y-84887500D01*
G75*
G02*
X130762500Y-85037500I0J-150000D01*
G01*
X130762500Y-85337500D01*
G75*
G02*
X130612500Y-85487500I-150000J0D01*
G01*
X129587500Y-85487500D01*
G75*
G02*
X129437500Y-85337500I0J150000D01*
G01*
G37*
G36*
G01*
X151707500Y-80597500D02*
X151707500Y-80277500D01*
G75*
G02*
X151867500Y-80117500I160000J0D01*
G01*
X152262500Y-80117500D01*
G75*
G02*
X152422500Y-80277500I0J-160000D01*
G01*
X152422500Y-80597500D01*
G75*
G02*
X152262500Y-80757500I-160000J0D01*
G01*
X151867500Y-80757500D01*
G75*
G02*
X151707500Y-80597500I0J160000D01*
G01*
G37*
G36*
G01*
X152902500Y-80597500D02*
X152902500Y-80277500D01*
G75*
G02*
X153062500Y-80117500I160000J0D01*
G01*
X153457500Y-80117500D01*
G75*
G02*
X153617500Y-80277500I0J-160000D01*
G01*
X153617500Y-80597500D01*
G75*
G02*
X153457500Y-80757500I-160000J0D01*
G01*
X153062500Y-80757500D01*
G75*
G02*
X152902500Y-80597500I0J160000D01*
G01*
G37*
G36*
G01*
X134117500Y-78272500D02*
X133807500Y-78272500D01*
G75*
G02*
X133652500Y-78117500I0J155000D01*
G01*
X133652500Y-77692500D01*
G75*
G02*
X133807500Y-77537500I155000J0D01*
G01*
X134117500Y-77537500D01*
G75*
G02*
X134272500Y-77692500I0J-155000D01*
G01*
X134272500Y-78117500D01*
G75*
G02*
X134117500Y-78272500I-155000J0D01*
G01*
G37*
G36*
G01*
X134117500Y-77137500D02*
X133807500Y-77137500D01*
G75*
G02*
X133652500Y-76982500I0J155000D01*
G01*
X133652500Y-76557500D01*
G75*
G02*
X133807500Y-76402500I155000J0D01*
G01*
X134117500Y-76402500D01*
G75*
G02*
X134272500Y-76557500I0J-155000D01*
G01*
X134272500Y-76982500D01*
G75*
G02*
X134117500Y-77137500I-155000J0D01*
G01*
G37*
G36*
G01*
X168235000Y-82145000D02*
X168235000Y-82455000D01*
G75*
G02*
X168080000Y-82610000I-155000J0D01*
G01*
X167655000Y-82610000D01*
G75*
G02*
X167500000Y-82455000I0J155000D01*
G01*
X167500000Y-82145000D01*
G75*
G02*
X167655000Y-81990000I155000J0D01*
G01*
X168080000Y-81990000D01*
G75*
G02*
X168235000Y-82145000I0J-155000D01*
G01*
G37*
G36*
G01*
X167100000Y-82145000D02*
X167100000Y-82455000D01*
G75*
G02*
X166945000Y-82610000I-155000J0D01*
G01*
X166520000Y-82610000D01*
G75*
G02*
X166365000Y-82455000I0J155000D01*
G01*
X166365000Y-82145000D01*
G75*
G02*
X166520000Y-81990000I155000J0D01*
G01*
X166945000Y-81990000D01*
G75*
G02*
X167100000Y-82145000I0J-155000D01*
G01*
G37*
D21*
X124137500Y-87427500D03*
X124137500Y-81647500D03*
D22*
X125582500Y-87737500D03*
X125582500Y-86937500D03*
D23*
X125582500Y-85787500D03*
X125582500Y-84787500D03*
X125582500Y-84287500D03*
X125582500Y-83287500D03*
D22*
X125582500Y-82137500D03*
X125582500Y-81337500D03*
X125582500Y-81337500D03*
X125582500Y-82137500D03*
D23*
X125582500Y-82787500D03*
X125582500Y-83787500D03*
X125582500Y-85287500D03*
X125582500Y-86287500D03*
D22*
X125582500Y-86937500D03*
X125582500Y-87737500D03*
G36*
X120837500Y-88987500D02*
G01*
X120730367Y-88971871D01*
X120619736Y-88917793D01*
X120532587Y-88830796D01*
X120478317Y-88720260D01*
X120462500Y-88612500D01*
X120462500Y-87862500D01*
X120478129Y-87755367D01*
X120532207Y-87644736D01*
X120619204Y-87557587D01*
X120729740Y-87503317D01*
X120837500Y-87487500D01*
X123712500Y-87487500D01*
X124462500Y-88237500D01*
X124462500Y-88612500D01*
X124446871Y-88719633D01*
X124392793Y-88830264D01*
X124305796Y-88917413D01*
X124195260Y-88971683D01*
X124087500Y-88987500D01*
X120837500Y-88987500D01*
G37*
D24*
X124667500Y-80217500D03*
D25*
X120487500Y-88857500D03*
D24*
X124667500Y-88857500D03*
G36*
X120837500Y-81587500D02*
G01*
X120730367Y-81571871D01*
X120619736Y-81517793D01*
X120532587Y-81430796D01*
X120478317Y-81320260D01*
X120462500Y-81212500D01*
X120462500Y-80462500D01*
X120478129Y-80355367D01*
X120532207Y-80244736D01*
X120619204Y-80157587D01*
X120729740Y-80103317D01*
X120837500Y-80087500D01*
X124087500Y-80087500D01*
X124194633Y-80103129D01*
X124305264Y-80157207D01*
X124392413Y-80244204D01*
X124446683Y-80354740D01*
X124462500Y-80462500D01*
X124462500Y-80837500D01*
X123712500Y-81587500D01*
X120837500Y-81587500D01*
G37*
D25*
X120487500Y-80217500D03*
G36*
G01*
X144337500Y-81687500D02*
X144337500Y-80387500D01*
G75*
G02*
X144587500Y-80137500I250000J0D01*
G01*
X145412500Y-80137500D01*
G75*
G02*
X145662500Y-80387500I0J-250000D01*
G01*
X145662500Y-81687500D01*
G75*
G02*
X145412500Y-81937500I-250000J0D01*
G01*
X144587500Y-81937500D01*
G75*
G02*
X144337500Y-81687500I0J250000D01*
G01*
G37*
G36*
G01*
X147462500Y-81687500D02*
X147462500Y-80387500D01*
G75*
G02*
X147712500Y-80137500I250000J0D01*
G01*
X148537500Y-80137500D01*
G75*
G02*
X148787500Y-80387500I0J-250000D01*
G01*
X148787500Y-81687500D01*
G75*
G02*
X148537500Y-81937500I-250000J0D01*
G01*
X147712500Y-81937500D01*
G75*
G02*
X147462500Y-81687500I0J250000D01*
G01*
G37*
G36*
G01*
X151197500Y-81482500D02*
X151197500Y-81792500D01*
G75*
G02*
X151042500Y-81947500I-155000J0D01*
G01*
X150617500Y-81947500D01*
G75*
G02*
X150462500Y-81792500I0J155000D01*
G01*
X150462500Y-81482500D01*
G75*
G02*
X150617500Y-81327500I155000J0D01*
G01*
X151042500Y-81327500D01*
G75*
G02*
X151197500Y-81482500I0J-155000D01*
G01*
G37*
G36*
G01*
X150062500Y-81482500D02*
X150062500Y-81792500D01*
G75*
G02*
X149907500Y-81947500I-155000J0D01*
G01*
X149482500Y-81947500D01*
G75*
G02*
X149327500Y-81792500I0J155000D01*
G01*
X149327500Y-81482500D01*
G75*
G02*
X149482500Y-81327500I155000J0D01*
G01*
X149907500Y-81327500D01*
G75*
G02*
X150062500Y-81482500I0J-155000D01*
G01*
G37*
G36*
G01*
X160555000Y-86235000D02*
X160245000Y-86235000D01*
G75*
G02*
X160090000Y-86080000I0J155000D01*
G01*
X160090000Y-85655000D01*
G75*
G02*
X160245000Y-85500000I155000J0D01*
G01*
X160555000Y-85500000D01*
G75*
G02*
X160710000Y-85655000I0J-155000D01*
G01*
X160710000Y-86080000D01*
G75*
G02*
X160555000Y-86235000I-155000J0D01*
G01*
G37*
G36*
G01*
X160555000Y-85100000D02*
X160245000Y-85100000D01*
G75*
G02*
X160090000Y-84945000I0J155000D01*
G01*
X160090000Y-84520000D01*
G75*
G02*
X160245000Y-84365000I155000J0D01*
G01*
X160555000Y-84365000D01*
G75*
G02*
X160710000Y-84520000I0J-155000D01*
G01*
X160710000Y-84945000D01*
G75*
G02*
X160555000Y-85100000I-155000J0D01*
G01*
G37*
G36*
G01*
X173807500Y-82397500D02*
X173807500Y-82077500D01*
G75*
G02*
X173967500Y-81917500I160000J0D01*
G01*
X174362500Y-81917500D01*
G75*
G02*
X174522500Y-82077500I0J-160000D01*
G01*
X174522500Y-82397500D01*
G75*
G02*
X174362500Y-82557500I-160000J0D01*
G01*
X173967500Y-82557500D01*
G75*
G02*
X173807500Y-82397500I0J160000D01*
G01*
G37*
G36*
G01*
X175002500Y-82397500D02*
X175002500Y-82077500D01*
G75*
G02*
X175162500Y-81917500I160000J0D01*
G01*
X175557500Y-81917500D01*
G75*
G02*
X175717500Y-82077500I0J-160000D01*
G01*
X175717500Y-82397500D01*
G75*
G02*
X175557500Y-82557500I-160000J0D01*
G01*
X175162500Y-82557500D01*
G75*
G02*
X175002500Y-82397500I0J160000D01*
G01*
G37*
G36*
G01*
X151000000Y-88937500D02*
X150525000Y-88937500D01*
G75*
G02*
X150287500Y-88700000I0J237500D01*
G01*
X150287500Y-88100000D01*
G75*
G02*
X150525000Y-87862500I237500J0D01*
G01*
X151000000Y-87862500D01*
G75*
G02*
X151237500Y-88100000I0J-237500D01*
G01*
X151237500Y-88700000D01*
G75*
G02*
X151000000Y-88937500I-237500J0D01*
G01*
G37*
G36*
G01*
X151000000Y-87212500D02*
X150525000Y-87212500D01*
G75*
G02*
X150287500Y-86975000I0J237500D01*
G01*
X150287500Y-86375000D01*
G75*
G02*
X150525000Y-86137500I237500J0D01*
G01*
X151000000Y-86137500D01*
G75*
G02*
X151237500Y-86375000I0J-237500D01*
G01*
X151237500Y-86975000D01*
G75*
G02*
X151000000Y-87212500I-237500J0D01*
G01*
G37*
G36*
G01*
X168255000Y-83240000D02*
X168255000Y-83560000D01*
G75*
G02*
X168095000Y-83720000I-160000J0D01*
G01*
X167700000Y-83720000D01*
G75*
G02*
X167540000Y-83560000I0J160000D01*
G01*
X167540000Y-83240000D01*
G75*
G02*
X167700000Y-83080000I160000J0D01*
G01*
X168095000Y-83080000D01*
G75*
G02*
X168255000Y-83240000I0J-160000D01*
G01*
G37*
G36*
G01*
X167060000Y-83240000D02*
X167060000Y-83560000D01*
G75*
G02*
X166900000Y-83720000I-160000J0D01*
G01*
X166505000Y-83720000D01*
G75*
G02*
X166345000Y-83560000I0J160000D01*
G01*
X166345000Y-83240000D01*
G75*
G02*
X166505000Y-83080000I160000J0D01*
G01*
X166900000Y-83080000D01*
G75*
G02*
X167060000Y-83240000I0J-160000D01*
G01*
G37*
G36*
G01*
X166327500Y-79192500D02*
X166327500Y-78882500D01*
G75*
G02*
X166482500Y-78727500I155000J0D01*
G01*
X166907500Y-78727500D01*
G75*
G02*
X167062500Y-78882500I0J-155000D01*
G01*
X167062500Y-79192500D01*
G75*
G02*
X166907500Y-79347500I-155000J0D01*
G01*
X166482500Y-79347500D01*
G75*
G02*
X166327500Y-79192500I0J155000D01*
G01*
G37*
G36*
G01*
X167462500Y-79192500D02*
X167462500Y-78882500D01*
G75*
G02*
X167617500Y-78727500I155000J0D01*
G01*
X168042500Y-78727500D01*
G75*
G02*
X168197500Y-78882500I0J-155000D01*
G01*
X168197500Y-79192500D01*
G75*
G02*
X168042500Y-79347500I-155000J0D01*
G01*
X167617500Y-79347500D01*
G75*
G02*
X167462500Y-79192500I0J155000D01*
G01*
G37*
D26*
X140062500Y-79402500D03*
X140062500Y-80672500D03*
X135462500Y-80672500D03*
X135462500Y-79402500D03*
X140062500Y-82902500D03*
X140062500Y-84172500D03*
X135462500Y-84172500D03*
X135462500Y-82902500D03*
G36*
G01*
X159417500Y-87135000D02*
X159107500Y-87135000D01*
G75*
G02*
X158952500Y-86980000I0J155000D01*
G01*
X158952500Y-86555000D01*
G75*
G02*
X159107500Y-86400000I155000J0D01*
G01*
X159417500Y-86400000D01*
G75*
G02*
X159572500Y-86555000I0J-155000D01*
G01*
X159572500Y-86980000D01*
G75*
G02*
X159417500Y-87135000I-155000J0D01*
G01*
G37*
G36*
G01*
X159417500Y-86000000D02*
X159107500Y-86000000D01*
G75*
G02*
X158952500Y-85845000I0J155000D01*
G01*
X158952500Y-85420000D01*
G75*
G02*
X159107500Y-85265000I155000J0D01*
G01*
X159417500Y-85265000D01*
G75*
G02*
X159572500Y-85420000I0J-155000D01*
G01*
X159572500Y-85845000D01*
G75*
G02*
X159417500Y-86000000I-155000J0D01*
G01*
G37*
G36*
G01*
X169455000Y-88840000D02*
X169455000Y-89160000D01*
G75*
G02*
X169295000Y-89320000I-160000J0D01*
G01*
X168900000Y-89320000D01*
G75*
G02*
X168740000Y-89160000I0J160000D01*
G01*
X168740000Y-88840000D01*
G75*
G02*
X168900000Y-88680000I160000J0D01*
G01*
X169295000Y-88680000D01*
G75*
G02*
X169455000Y-88840000I0J-160000D01*
G01*
G37*
G36*
G01*
X168260000Y-88840000D02*
X168260000Y-89160000D01*
G75*
G02*
X168100000Y-89320000I-160000J0D01*
G01*
X167705000Y-89320000D01*
G75*
G02*
X167545000Y-89160000I0J160000D01*
G01*
X167545000Y-88840000D01*
G75*
G02*
X167705000Y-88680000I160000J0D01*
G01*
X168100000Y-88680000D01*
G75*
G02*
X168260000Y-88840000I0J-160000D01*
G01*
G37*
G36*
G01*
X163465000Y-85155000D02*
X163465000Y-84845000D01*
G75*
G02*
X163620000Y-84690000I155000J0D01*
G01*
X164045000Y-84690000D01*
G75*
G02*
X164200000Y-84845000I0J-155000D01*
G01*
X164200000Y-85155000D01*
G75*
G02*
X164045000Y-85310000I-155000J0D01*
G01*
X163620000Y-85310000D01*
G75*
G02*
X163465000Y-85155000I0J155000D01*
G01*
G37*
G36*
G01*
X164600000Y-85155000D02*
X164600000Y-84845000D01*
G75*
G02*
X164755000Y-84690000I155000J0D01*
G01*
X165180000Y-84690000D01*
G75*
G02*
X165335000Y-84845000I0J-155000D01*
G01*
X165335000Y-85155000D01*
G75*
G02*
X165180000Y-85310000I-155000J0D01*
G01*
X164755000Y-85310000D01*
G75*
G02*
X164600000Y-85155000I0J155000D01*
G01*
G37*
G36*
G01*
X159422500Y-79992500D02*
X159102500Y-79992500D01*
G75*
G02*
X158942500Y-79832500I0J160000D01*
G01*
X158942500Y-79437500D01*
G75*
G02*
X159102500Y-79277500I160000J0D01*
G01*
X159422500Y-79277500D01*
G75*
G02*
X159582500Y-79437500I0J-160000D01*
G01*
X159582500Y-79832500D01*
G75*
G02*
X159422500Y-79992500I-160000J0D01*
G01*
G37*
G36*
G01*
X159422500Y-78797500D02*
X159102500Y-78797500D01*
G75*
G02*
X158942500Y-78637500I0J160000D01*
G01*
X158942500Y-78242500D01*
G75*
G02*
X159102500Y-78082500I160000J0D01*
G01*
X159422500Y-78082500D01*
G75*
G02*
X159582500Y-78242500I0J-160000D01*
G01*
X159582500Y-78637500D01*
G75*
G02*
X159422500Y-78797500I-160000J0D01*
G01*
G37*
G36*
G01*
X171550000Y-81055000D02*
X171550000Y-80755000D01*
G75*
G02*
X171700000Y-80605000I150000J0D01*
G01*
X173350000Y-80605000D01*
G75*
G02*
X173500000Y-80755000I0J-150000D01*
G01*
X173500000Y-81055000D01*
G75*
G02*
X173350000Y-81205000I-150000J0D01*
G01*
X171700000Y-81205000D01*
G75*
G02*
X171550000Y-81055000I0J150000D01*
G01*
G37*
G36*
G01*
X171550000Y-79785000D02*
X171550000Y-79485000D01*
G75*
G02*
X171700000Y-79335000I150000J0D01*
G01*
X173350000Y-79335000D01*
G75*
G02*
X173500000Y-79485000I0J-150000D01*
G01*
X173500000Y-79785000D01*
G75*
G02*
X173350000Y-79935000I-150000J0D01*
G01*
X171700000Y-79935000D01*
G75*
G02*
X171550000Y-79785000I0J150000D01*
G01*
G37*
G36*
G01*
X171550000Y-78515000D02*
X171550000Y-78215000D01*
G75*
G02*
X171700000Y-78065000I150000J0D01*
G01*
X173350000Y-78065000D01*
G75*
G02*
X173500000Y-78215000I0J-150000D01*
G01*
X173500000Y-78515000D01*
G75*
G02*
X173350000Y-78665000I-150000J0D01*
G01*
X171700000Y-78665000D01*
G75*
G02*
X171550000Y-78515000I0J150000D01*
G01*
G37*
G36*
G01*
X171550000Y-77245000D02*
X171550000Y-76945000D01*
G75*
G02*
X171700000Y-76795000I150000J0D01*
G01*
X173350000Y-76795000D01*
G75*
G02*
X173500000Y-76945000I0J-150000D01*
G01*
X173500000Y-77245000D01*
G75*
G02*
X173350000Y-77395000I-150000J0D01*
G01*
X171700000Y-77395000D01*
G75*
G02*
X171550000Y-77245000I0J150000D01*
G01*
G37*
G36*
G01*
X176500000Y-77245000D02*
X176500000Y-76945000D01*
G75*
G02*
X176650000Y-76795000I150000J0D01*
G01*
X178300000Y-76795000D01*
G75*
G02*
X178450000Y-76945000I0J-150000D01*
G01*
X178450000Y-77245000D01*
G75*
G02*
X178300000Y-77395000I-150000J0D01*
G01*
X176650000Y-77395000D01*
G75*
G02*
X176500000Y-77245000I0J150000D01*
G01*
G37*
G36*
G01*
X176500000Y-78515000D02*
X176500000Y-78215000D01*
G75*
G02*
X176650000Y-78065000I150000J0D01*
G01*
X178300000Y-78065000D01*
G75*
G02*
X178450000Y-78215000I0J-150000D01*
G01*
X178450000Y-78515000D01*
G75*
G02*
X178300000Y-78665000I-150000J0D01*
G01*
X176650000Y-78665000D01*
G75*
G02*
X176500000Y-78515000I0J150000D01*
G01*
G37*
G36*
G01*
X176500000Y-79785000D02*
X176500000Y-79485000D01*
G75*
G02*
X176650000Y-79335000I150000J0D01*
G01*
X178300000Y-79335000D01*
G75*
G02*
X178450000Y-79485000I0J-150000D01*
G01*
X178450000Y-79785000D01*
G75*
G02*
X178300000Y-79935000I-150000J0D01*
G01*
X176650000Y-79935000D01*
G75*
G02*
X176500000Y-79785000I0J150000D01*
G01*
G37*
G36*
G01*
X176500000Y-81055000D02*
X176500000Y-80755000D01*
G75*
G02*
X176650000Y-80605000I150000J0D01*
G01*
X178300000Y-80605000D01*
G75*
G02*
X178450000Y-80755000I0J-150000D01*
G01*
X178450000Y-81055000D01*
G75*
G02*
X178300000Y-81205000I-150000J0D01*
G01*
X176650000Y-81205000D01*
G75*
G02*
X176500000Y-81055000I0J150000D01*
G01*
G37*
G36*
G01*
X132267500Y-79587500D02*
X133157500Y-79587500D01*
G75*
G02*
X133262500Y-79692500I0J-105000D01*
G01*
X133262500Y-80182500D01*
G75*
G02*
X133157500Y-80287500I-105000J0D01*
G01*
X132267500Y-80287500D01*
G75*
G02*
X132162500Y-80182500I0J105000D01*
G01*
X132162500Y-79692500D01*
G75*
G02*
X132267500Y-79587500I105000J0D01*
G01*
G37*
G36*
G01*
X132267500Y-76787500D02*
X133157500Y-76787500D01*
G75*
G02*
X133262500Y-76892500I0J-105000D01*
G01*
X133262500Y-77382500D01*
G75*
G02*
X133157500Y-77487500I-105000J0D01*
G01*
X132267500Y-77487500D01*
G75*
G02*
X132162500Y-77382500I0J105000D01*
G01*
X132162500Y-76892500D01*
G75*
G02*
X132267500Y-76787500I105000J0D01*
G01*
G37*
G36*
X131362500Y-79987500D02*
G01*
X131486107Y-80007077D01*
X131597614Y-80063893D01*
X131686107Y-80152386D01*
X131742923Y-80263893D01*
X131762500Y-80387500D01*
X131742923Y-80511107D01*
X131686107Y-80622614D01*
X131597614Y-80711107D01*
X131486107Y-80767923D01*
X131362500Y-80787500D01*
X130962500Y-80787500D01*
X130962500Y-79987500D01*
X131362500Y-79987500D01*
G37*
G36*
X131362500Y-76287500D02*
G01*
X131486107Y-76307077D01*
X131597614Y-76363893D01*
X131686107Y-76452386D01*
X131742923Y-76563893D01*
X131762500Y-76687500D01*
X131742923Y-76811107D01*
X131686107Y-76922614D01*
X131597614Y-77011107D01*
X131486107Y-77067923D01*
X131362500Y-77087500D01*
X130962500Y-77087500D01*
X130962500Y-76287500D01*
X131362500Y-76287500D01*
G37*
G36*
G01*
X130532500Y-76237500D02*
X131092500Y-76237500D01*
G75*
G02*
X131212500Y-76357500I0J-120000D01*
G01*
X131212500Y-77267500D01*
G75*
G02*
X131092500Y-77387500I-120000J0D01*
G01*
X130532500Y-77387500D01*
G75*
G02*
X130412500Y-77267500I0J120000D01*
G01*
X130412500Y-76357500D01*
G75*
G02*
X130532500Y-76237500I120000J0D01*
G01*
G37*
G36*
G01*
X130532500Y-79687500D02*
X131092500Y-79687500D01*
G75*
G02*
X131212500Y-79807500I0J-120000D01*
G01*
X131212500Y-80717500D01*
G75*
G02*
X131092500Y-80837500I-120000J0D01*
G01*
X130532500Y-80837500D01*
G75*
G02*
X130412500Y-80717500I0J120000D01*
G01*
X130412500Y-79807500D01*
G75*
G02*
X130532500Y-79687500I120000J0D01*
G01*
G37*
G36*
G01*
X132477500Y-77837500D02*
X133247500Y-77837500D01*
G75*
G02*
X133412500Y-78002500I0J-165000D01*
G01*
X133412500Y-79072500D01*
G75*
G02*
X133247500Y-79237500I-165000J0D01*
G01*
X132477500Y-79237500D01*
G75*
G02*
X132312500Y-79072500I0J165000D01*
G01*
X132312500Y-78002500D01*
G75*
G02*
X132477500Y-77837500I165000J0D01*
G01*
G37*
G36*
G01*
X131197500Y-86382500D02*
X131197500Y-86692500D01*
G75*
G02*
X131042500Y-86847500I-155000J0D01*
G01*
X130617500Y-86847500D01*
G75*
G02*
X130462500Y-86692500I0J155000D01*
G01*
X130462500Y-86382500D01*
G75*
G02*
X130617500Y-86227500I155000J0D01*
G01*
X131042500Y-86227500D01*
G75*
G02*
X131197500Y-86382500I0J-155000D01*
G01*
G37*
G36*
G01*
X130062500Y-86382500D02*
X130062500Y-86692500D01*
G75*
G02*
X129907500Y-86847500I-155000J0D01*
G01*
X129482500Y-86847500D01*
G75*
G02*
X129327500Y-86692500I0J155000D01*
G01*
X129327500Y-86382500D01*
G75*
G02*
X129482500Y-86227500I155000J0D01*
G01*
X129907500Y-86227500D01*
G75*
G02*
X130062500Y-86382500I0J-155000D01*
G01*
G37*
D27*
X131912500Y-88237500D03*
X128612500Y-88237500D03*
G36*
G01*
X168135000Y-77845000D02*
X168135000Y-78155000D01*
G75*
G02*
X167980000Y-78310000I-155000J0D01*
G01*
X167555000Y-78310000D01*
G75*
G02*
X167400000Y-78155000I0J155000D01*
G01*
X167400000Y-77845000D01*
G75*
G02*
X167555000Y-77690000I155000J0D01*
G01*
X167980000Y-77690000D01*
G75*
G02*
X168135000Y-77845000I0J-155000D01*
G01*
G37*
G36*
G01*
X167000000Y-77845000D02*
X167000000Y-78155000D01*
G75*
G02*
X166845000Y-78310000I-155000J0D01*
G01*
X166420000Y-78310000D01*
G75*
G02*
X166265000Y-78155000I0J155000D01*
G01*
X166265000Y-77845000D01*
G75*
G02*
X166420000Y-77690000I155000J0D01*
G01*
X166845000Y-77690000D01*
G75*
G02*
X167000000Y-77845000I0J-155000D01*
G01*
G37*
G36*
G01*
X169950000Y-89155000D02*
X169950000Y-88855000D01*
G75*
G02*
X170100000Y-88705000I150000J0D01*
G01*
X171750000Y-88705000D01*
G75*
G02*
X171900000Y-88855000I0J-150000D01*
G01*
X171900000Y-89155000D01*
G75*
G02*
X171750000Y-89305000I-150000J0D01*
G01*
X170100000Y-89305000D01*
G75*
G02*
X169950000Y-89155000I0J150000D01*
G01*
G37*
G36*
G01*
X169950000Y-87885000D02*
X169950000Y-87585000D01*
G75*
G02*
X170100000Y-87435000I150000J0D01*
G01*
X171750000Y-87435000D01*
G75*
G02*
X171900000Y-87585000I0J-150000D01*
G01*
X171900000Y-87885000D01*
G75*
G02*
X171750000Y-88035000I-150000J0D01*
G01*
X170100000Y-88035000D01*
G75*
G02*
X169950000Y-87885000I0J150000D01*
G01*
G37*
G36*
G01*
X169950000Y-86615000D02*
X169950000Y-86315000D01*
G75*
G02*
X170100000Y-86165000I150000J0D01*
G01*
X171750000Y-86165000D01*
G75*
G02*
X171900000Y-86315000I0J-150000D01*
G01*
X171900000Y-86615000D01*
G75*
G02*
X171750000Y-86765000I-150000J0D01*
G01*
X170100000Y-86765000D01*
G75*
G02*
X169950000Y-86615000I0J150000D01*
G01*
G37*
G36*
G01*
X169950000Y-85345000D02*
X169950000Y-85045000D01*
G75*
G02*
X170100000Y-84895000I150000J0D01*
G01*
X171750000Y-84895000D01*
G75*
G02*
X171900000Y-85045000I0J-150000D01*
G01*
X171900000Y-85345000D01*
G75*
G02*
X171750000Y-85495000I-150000J0D01*
G01*
X170100000Y-85495000D01*
G75*
G02*
X169950000Y-85345000I0J150000D01*
G01*
G37*
G36*
G01*
X174900000Y-85345000D02*
X174900000Y-85045000D01*
G75*
G02*
X175050000Y-84895000I150000J0D01*
G01*
X176700000Y-84895000D01*
G75*
G02*
X176850000Y-85045000I0J-150000D01*
G01*
X176850000Y-85345000D01*
G75*
G02*
X176700000Y-85495000I-150000J0D01*
G01*
X175050000Y-85495000D01*
G75*
G02*
X174900000Y-85345000I0J150000D01*
G01*
G37*
G36*
G01*
X174900000Y-86615000D02*
X174900000Y-86315000D01*
G75*
G02*
X175050000Y-86165000I150000J0D01*
G01*
X176700000Y-86165000D01*
G75*
G02*
X176850000Y-86315000I0J-150000D01*
G01*
X176850000Y-86615000D01*
G75*
G02*
X176700000Y-86765000I-150000J0D01*
G01*
X175050000Y-86765000D01*
G75*
G02*
X174900000Y-86615000I0J150000D01*
G01*
G37*
G36*
G01*
X174900000Y-87885000D02*
X174900000Y-87585000D01*
G75*
G02*
X175050000Y-87435000I150000J0D01*
G01*
X176700000Y-87435000D01*
G75*
G02*
X176850000Y-87585000I0J-150000D01*
G01*
X176850000Y-87885000D01*
G75*
G02*
X176700000Y-88035000I-150000J0D01*
G01*
X175050000Y-88035000D01*
G75*
G02*
X174900000Y-87885000I0J150000D01*
G01*
G37*
G36*
G01*
X174900000Y-89155000D02*
X174900000Y-88855000D01*
G75*
G02*
X175050000Y-88705000I150000J0D01*
G01*
X176700000Y-88705000D01*
G75*
G02*
X176850000Y-88855000I0J-150000D01*
G01*
X176850000Y-89155000D01*
G75*
G02*
X176700000Y-89305000I-150000J0D01*
G01*
X175050000Y-89305000D01*
G75*
G02*
X174900000Y-89155000I0J150000D01*
G01*
G37*
G36*
G01*
X166062500Y-79224993D02*
X166062500Y-79349993D01*
G75*
G02*
X166000000Y-79412493I-62500J0D01*
G01*
X165125000Y-79412493D01*
G75*
G02*
X165062500Y-79349993I0J62500D01*
G01*
X165062500Y-79224993D01*
G75*
G02*
X165125000Y-79162493I62500J0D01*
G01*
X166000000Y-79162493D01*
G75*
G02*
X166062500Y-79224993I0J-62500D01*
G01*
G37*
G36*
G01*
X166062500Y-79724993D02*
X166062500Y-79849993D01*
G75*
G02*
X166000000Y-79912493I-62500J0D01*
G01*
X165125000Y-79912493D01*
G75*
G02*
X165062500Y-79849993I0J62500D01*
G01*
X165062500Y-79724993D01*
G75*
G02*
X165125000Y-79662493I62500J0D01*
G01*
X166000000Y-79662493D01*
G75*
G02*
X166062500Y-79724993I0J-62500D01*
G01*
G37*
G36*
G01*
X166062500Y-80224993D02*
X166062500Y-80349993D01*
G75*
G02*
X166000000Y-80412493I-62500J0D01*
G01*
X165125000Y-80412493D01*
G75*
G02*
X165062500Y-80349993I0J62500D01*
G01*
X165062500Y-80224993D01*
G75*
G02*
X165125000Y-80162493I62500J0D01*
G01*
X166000000Y-80162493D01*
G75*
G02*
X166062500Y-80224993I0J-62500D01*
G01*
G37*
G36*
G01*
X166062500Y-80724993D02*
X166062500Y-80849993D01*
G75*
G02*
X166000000Y-80912493I-62500J0D01*
G01*
X165125000Y-80912493D01*
G75*
G02*
X165062500Y-80849993I0J62500D01*
G01*
X165062500Y-80724993D01*
G75*
G02*
X165125000Y-80662493I62500J0D01*
G01*
X166000000Y-80662493D01*
G75*
G02*
X166062500Y-80724993I0J-62500D01*
G01*
G37*
G36*
G01*
X166062500Y-81224993D02*
X166062500Y-81349993D01*
G75*
G02*
X166000000Y-81412493I-62500J0D01*
G01*
X165125000Y-81412493D01*
G75*
G02*
X165062500Y-81349993I0J62500D01*
G01*
X165062500Y-81224993D01*
G75*
G02*
X165125000Y-81162493I62500J0D01*
G01*
X166000000Y-81162493D01*
G75*
G02*
X166062500Y-81224993I0J-62500D01*
G01*
G37*
G36*
G01*
X166062500Y-81724993D02*
X166062500Y-81849993D01*
G75*
G02*
X166000000Y-81912493I-62500J0D01*
G01*
X165125000Y-81912493D01*
G75*
G02*
X165062500Y-81849993I0J62500D01*
G01*
X165062500Y-81724993D01*
G75*
G02*
X165125000Y-81662493I62500J0D01*
G01*
X166000000Y-81662493D01*
G75*
G02*
X166062500Y-81724993I0J-62500D01*
G01*
G37*
G36*
G01*
X166062500Y-82224993D02*
X166062500Y-82349993D01*
G75*
G02*
X166000000Y-82412493I-62500J0D01*
G01*
X165125000Y-82412493D01*
G75*
G02*
X165062500Y-82349993I0J62500D01*
G01*
X165062500Y-82224993D01*
G75*
G02*
X165125000Y-82162493I62500J0D01*
G01*
X166000000Y-82162493D01*
G75*
G02*
X166062500Y-82224993I0J-62500D01*
G01*
G37*
G36*
G01*
X166062500Y-82724993D02*
X166062500Y-82849993D01*
G75*
G02*
X166000000Y-82912493I-62500J0D01*
G01*
X165125000Y-82912493D01*
G75*
G02*
X165062500Y-82849993I0J62500D01*
G01*
X165062500Y-82724993D01*
G75*
G02*
X165125000Y-82662493I62500J0D01*
G01*
X166000000Y-82662493D01*
G75*
G02*
X166062500Y-82724993I0J-62500D01*
G01*
G37*
G36*
G01*
X164837500Y-83199993D02*
X164837500Y-84074993D01*
G75*
G02*
X164775000Y-84137493I-62500J0D01*
G01*
X164650000Y-84137493D01*
G75*
G02*
X164587500Y-84074993I0J62500D01*
G01*
X164587500Y-83199993D01*
G75*
G02*
X164650000Y-83137493I62500J0D01*
G01*
X164775000Y-83137493D01*
G75*
G02*
X164837500Y-83199993I0J-62500D01*
G01*
G37*
G36*
G01*
X164337500Y-83199993D02*
X164337500Y-84074993D01*
G75*
G02*
X164275000Y-84137493I-62500J0D01*
G01*
X164150000Y-84137493D01*
G75*
G02*
X164087500Y-84074993I0J62500D01*
G01*
X164087500Y-83199993D01*
G75*
G02*
X164150000Y-83137493I62500J0D01*
G01*
X164275000Y-83137493D01*
G75*
G02*
X164337500Y-83199993I0J-62500D01*
G01*
G37*
G36*
G01*
X163837500Y-83199993D02*
X163837500Y-84074993D01*
G75*
G02*
X163775000Y-84137493I-62500J0D01*
G01*
X163650000Y-84137493D01*
G75*
G02*
X163587500Y-84074993I0J62500D01*
G01*
X163587500Y-83199993D01*
G75*
G02*
X163650000Y-83137493I62500J0D01*
G01*
X163775000Y-83137493D01*
G75*
G02*
X163837500Y-83199993I0J-62500D01*
G01*
G37*
G36*
G01*
X163337500Y-83199993D02*
X163337500Y-84074993D01*
G75*
G02*
X163275000Y-84137493I-62500J0D01*
G01*
X163150000Y-84137493D01*
G75*
G02*
X163087500Y-84074993I0J62500D01*
G01*
X163087500Y-83199993D01*
G75*
G02*
X163150000Y-83137493I62500J0D01*
G01*
X163275000Y-83137493D01*
G75*
G02*
X163337500Y-83199993I0J-62500D01*
G01*
G37*
G36*
G01*
X162837500Y-83199993D02*
X162837500Y-84074993D01*
G75*
G02*
X162775000Y-84137493I-62500J0D01*
G01*
X162650000Y-84137493D01*
G75*
G02*
X162587500Y-84074993I0J62500D01*
G01*
X162587500Y-83199993D01*
G75*
G02*
X162650000Y-83137493I62500J0D01*
G01*
X162775000Y-83137493D01*
G75*
G02*
X162837500Y-83199993I0J-62500D01*
G01*
G37*
G36*
G01*
X162337500Y-83199993D02*
X162337500Y-84074993D01*
G75*
G02*
X162275000Y-84137493I-62500J0D01*
G01*
X162150000Y-84137493D01*
G75*
G02*
X162087500Y-84074993I0J62500D01*
G01*
X162087500Y-83199993D01*
G75*
G02*
X162150000Y-83137493I62500J0D01*
G01*
X162275000Y-83137493D01*
G75*
G02*
X162337500Y-83199993I0J-62500D01*
G01*
G37*
G36*
G01*
X161837500Y-83199993D02*
X161837500Y-84074993D01*
G75*
G02*
X161775000Y-84137493I-62500J0D01*
G01*
X161650000Y-84137493D01*
G75*
G02*
X161587500Y-84074993I0J62500D01*
G01*
X161587500Y-83199993D01*
G75*
G02*
X161650000Y-83137493I62500J0D01*
G01*
X161775000Y-83137493D01*
G75*
G02*
X161837500Y-83199993I0J-62500D01*
G01*
G37*
G36*
G01*
X161337500Y-83199993D02*
X161337500Y-84074993D01*
G75*
G02*
X161275000Y-84137493I-62500J0D01*
G01*
X161150000Y-84137493D01*
G75*
G02*
X161087500Y-84074993I0J62500D01*
G01*
X161087500Y-83199993D01*
G75*
G02*
X161150000Y-83137493I62500J0D01*
G01*
X161275000Y-83137493D01*
G75*
G02*
X161337500Y-83199993I0J-62500D01*
G01*
G37*
G36*
G01*
X160862500Y-82724993D02*
X160862500Y-82849993D01*
G75*
G02*
X160800000Y-82912493I-62500J0D01*
G01*
X159925000Y-82912493D01*
G75*
G02*
X159862500Y-82849993I0J62500D01*
G01*
X159862500Y-82724993D01*
G75*
G02*
X159925000Y-82662493I62500J0D01*
G01*
X160800000Y-82662493D01*
G75*
G02*
X160862500Y-82724993I0J-62500D01*
G01*
G37*
G36*
G01*
X160862500Y-82224993D02*
X160862500Y-82349993D01*
G75*
G02*
X160800000Y-82412493I-62500J0D01*
G01*
X159925000Y-82412493D01*
G75*
G02*
X159862500Y-82349993I0J62500D01*
G01*
X159862500Y-82224993D01*
G75*
G02*
X159925000Y-82162493I62500J0D01*
G01*
X160800000Y-82162493D01*
G75*
G02*
X160862500Y-82224993I0J-62500D01*
G01*
G37*
G36*
G01*
X160862500Y-81724993D02*
X160862500Y-81849993D01*
G75*
G02*
X160800000Y-81912493I-62500J0D01*
G01*
X159925000Y-81912493D01*
G75*
G02*
X159862500Y-81849993I0J62500D01*
G01*
X159862500Y-81724993D01*
G75*
G02*
X159925000Y-81662493I62500J0D01*
G01*
X160800000Y-81662493D01*
G75*
G02*
X160862500Y-81724993I0J-62500D01*
G01*
G37*
G36*
G01*
X160862500Y-81224993D02*
X160862500Y-81349993D01*
G75*
G02*
X160800000Y-81412493I-62500J0D01*
G01*
X159925000Y-81412493D01*
G75*
G02*
X159862500Y-81349993I0J62500D01*
G01*
X159862500Y-81224993D01*
G75*
G02*
X159925000Y-81162493I62500J0D01*
G01*
X160800000Y-81162493D01*
G75*
G02*
X160862500Y-81224993I0J-62500D01*
G01*
G37*
G36*
G01*
X160862500Y-80724993D02*
X160862500Y-80849993D01*
G75*
G02*
X160800000Y-80912493I-62500J0D01*
G01*
X159925000Y-80912493D01*
G75*
G02*
X159862500Y-80849993I0J62500D01*
G01*
X159862500Y-80724993D01*
G75*
G02*
X159925000Y-80662493I62500J0D01*
G01*
X160800000Y-80662493D01*
G75*
G02*
X160862500Y-80724993I0J-62500D01*
G01*
G37*
G36*
G01*
X160862500Y-80224993D02*
X160862500Y-80349993D01*
G75*
G02*
X160800000Y-80412493I-62500J0D01*
G01*
X159925000Y-80412493D01*
G75*
G02*
X159862500Y-80349993I0J62500D01*
G01*
X159862500Y-80224993D01*
G75*
G02*
X159925000Y-80162493I62500J0D01*
G01*
X160800000Y-80162493D01*
G75*
G02*
X160862500Y-80224993I0J-62500D01*
G01*
G37*
G36*
G01*
X160862500Y-79724993D02*
X160862500Y-79849993D01*
G75*
G02*
X160800000Y-79912493I-62500J0D01*
G01*
X159925000Y-79912493D01*
G75*
G02*
X159862500Y-79849993I0J62500D01*
G01*
X159862500Y-79724993D01*
G75*
G02*
X159925000Y-79662493I62500J0D01*
G01*
X160800000Y-79662493D01*
G75*
G02*
X160862500Y-79724993I0J-62500D01*
G01*
G37*
G36*
G01*
X160862500Y-79224993D02*
X160862500Y-79349993D01*
G75*
G02*
X160800000Y-79412493I-62500J0D01*
G01*
X159925000Y-79412493D01*
G75*
G02*
X159862500Y-79349993I0J62500D01*
G01*
X159862500Y-79224993D01*
G75*
G02*
X159925000Y-79162493I62500J0D01*
G01*
X160800000Y-79162493D01*
G75*
G02*
X160862500Y-79224993I0J-62500D01*
G01*
G37*
G36*
G01*
X161337500Y-77999993D02*
X161337500Y-78874993D01*
G75*
G02*
X161275000Y-78937493I-62500J0D01*
G01*
X161150000Y-78937493D01*
G75*
G02*
X161087500Y-78874993I0J62500D01*
G01*
X161087500Y-77999993D01*
G75*
G02*
X161150000Y-77937493I62500J0D01*
G01*
X161275000Y-77937493D01*
G75*
G02*
X161337500Y-77999993I0J-62500D01*
G01*
G37*
G36*
G01*
X161837500Y-77999993D02*
X161837500Y-78874993D01*
G75*
G02*
X161775000Y-78937493I-62500J0D01*
G01*
X161650000Y-78937493D01*
G75*
G02*
X161587500Y-78874993I0J62500D01*
G01*
X161587500Y-77999993D01*
G75*
G02*
X161650000Y-77937493I62500J0D01*
G01*
X161775000Y-77937493D01*
G75*
G02*
X161837500Y-77999993I0J-62500D01*
G01*
G37*
G36*
G01*
X162337500Y-77999993D02*
X162337500Y-78874993D01*
G75*
G02*
X162275000Y-78937493I-62500J0D01*
G01*
X162150000Y-78937493D01*
G75*
G02*
X162087500Y-78874993I0J62500D01*
G01*
X162087500Y-77999993D01*
G75*
G02*
X162150000Y-77937493I62500J0D01*
G01*
X162275000Y-77937493D01*
G75*
G02*
X162337500Y-77999993I0J-62500D01*
G01*
G37*
G36*
G01*
X162837500Y-77999993D02*
X162837500Y-78874993D01*
G75*
G02*
X162775000Y-78937493I-62500J0D01*
G01*
X162650000Y-78937493D01*
G75*
G02*
X162587500Y-78874993I0J62500D01*
G01*
X162587500Y-77999993D01*
G75*
G02*
X162650000Y-77937493I62500J0D01*
G01*
X162775000Y-77937493D01*
G75*
G02*
X162837500Y-77999993I0J-62500D01*
G01*
G37*
G36*
G01*
X163337500Y-77999993D02*
X163337500Y-78874993D01*
G75*
G02*
X163275000Y-78937493I-62500J0D01*
G01*
X163150000Y-78937493D01*
G75*
G02*
X163087500Y-78874993I0J62500D01*
G01*
X163087500Y-77999993D01*
G75*
G02*
X163150000Y-77937493I62500J0D01*
G01*
X163275000Y-77937493D01*
G75*
G02*
X163337500Y-77999993I0J-62500D01*
G01*
G37*
G36*
G01*
X163837500Y-77999993D02*
X163837500Y-78874993D01*
G75*
G02*
X163775000Y-78937493I-62500J0D01*
G01*
X163650000Y-78937493D01*
G75*
G02*
X163587500Y-78874993I0J62500D01*
G01*
X163587500Y-77999993D01*
G75*
G02*
X163650000Y-77937493I62500J0D01*
G01*
X163775000Y-77937493D01*
G75*
G02*
X163837500Y-77999993I0J-62500D01*
G01*
G37*
G36*
G01*
X164337500Y-77999993D02*
X164337500Y-78874993D01*
G75*
G02*
X164275000Y-78937493I-62500J0D01*
G01*
X164150000Y-78937493D01*
G75*
G02*
X164087500Y-78874993I0J62500D01*
G01*
X164087500Y-77999993D01*
G75*
G02*
X164150000Y-77937493I62500J0D01*
G01*
X164275000Y-77937493D01*
G75*
G02*
X164337500Y-77999993I0J-62500D01*
G01*
G37*
G36*
G01*
X164837500Y-77999993D02*
X164837500Y-78874993D01*
G75*
G02*
X164775000Y-78937493I-62500J0D01*
G01*
X164650000Y-78937493D01*
G75*
G02*
X164587500Y-78874993I0J62500D01*
G01*
X164587500Y-77999993D01*
G75*
G02*
X164650000Y-77937493I62500J0D01*
G01*
X164775000Y-77937493D01*
G75*
G02*
X164837500Y-77999993I0J-62500D01*
G01*
G37*
D28*
X162962500Y-81037493D03*
G36*
G01*
X159107500Y-83002500D02*
X159417500Y-83002500D01*
G75*
G02*
X159572500Y-83157500I0J-155000D01*
G01*
X159572500Y-83582500D01*
G75*
G02*
X159417500Y-83737500I-155000J0D01*
G01*
X159107500Y-83737500D01*
G75*
G02*
X158952500Y-83582500I0J155000D01*
G01*
X158952500Y-83157500D01*
G75*
G02*
X159107500Y-83002500I155000J0D01*
G01*
G37*
G36*
G01*
X159107500Y-84137500D02*
X159417500Y-84137500D01*
G75*
G02*
X159572500Y-84292500I0J-155000D01*
G01*
X159572500Y-84717500D01*
G75*
G02*
X159417500Y-84872500I-155000J0D01*
G01*
X159107500Y-84872500D01*
G75*
G02*
X158952500Y-84717500I0J155000D01*
G01*
X158952500Y-84292500D01*
G75*
G02*
X159107500Y-84137500I155000J0D01*
G01*
G37*
G36*
G01*
X149717500Y-88772500D02*
X149407500Y-88772500D01*
G75*
G02*
X149252500Y-88617500I0J155000D01*
G01*
X149252500Y-88192500D01*
G75*
G02*
X149407500Y-88037500I155000J0D01*
G01*
X149717500Y-88037500D01*
G75*
G02*
X149872500Y-88192500I0J-155000D01*
G01*
X149872500Y-88617500D01*
G75*
G02*
X149717500Y-88772500I-155000J0D01*
G01*
G37*
G36*
G01*
X149717500Y-87637500D02*
X149407500Y-87637500D01*
G75*
G02*
X149252500Y-87482500I0J155000D01*
G01*
X149252500Y-87057500D01*
G75*
G02*
X149407500Y-86902500I155000J0D01*
G01*
X149717500Y-86902500D01*
G75*
G02*
X149872500Y-87057500I0J-155000D01*
G01*
X149872500Y-87482500D01*
G75*
G02*
X149717500Y-87637500I-155000J0D01*
G01*
G37*
G36*
G01*
X129517500Y-81577500D02*
X129517500Y-81897500D01*
G75*
G02*
X129357500Y-82057500I-160000J0D01*
G01*
X128962500Y-82057500D01*
G75*
G02*
X128802500Y-81897500I0J160000D01*
G01*
X128802500Y-81577500D01*
G75*
G02*
X128962500Y-81417500I160000J0D01*
G01*
X129357500Y-81417500D01*
G75*
G02*
X129517500Y-81577500I0J-160000D01*
G01*
G37*
G36*
G01*
X128322500Y-81577500D02*
X128322500Y-81897500D01*
G75*
G02*
X128162500Y-82057500I-160000J0D01*
G01*
X127767500Y-82057500D01*
G75*
G02*
X127607500Y-81897500I0J160000D01*
G01*
X127607500Y-81577500D01*
G75*
G02*
X127767500Y-81417500I160000J0D01*
G01*
X128162500Y-81417500D01*
G75*
G02*
X128322500Y-81577500I0J-160000D01*
G01*
G37*
G36*
G01*
X149407500Y-84702500D02*
X149717500Y-84702500D01*
G75*
G02*
X149872500Y-84857500I0J-155000D01*
G01*
X149872500Y-85282500D01*
G75*
G02*
X149717500Y-85437500I-155000J0D01*
G01*
X149407500Y-85437500D01*
G75*
G02*
X149252500Y-85282500I0J155000D01*
G01*
X149252500Y-84857500D01*
G75*
G02*
X149407500Y-84702500I155000J0D01*
G01*
G37*
G36*
G01*
X149407500Y-85837500D02*
X149717500Y-85837500D01*
G75*
G02*
X149872500Y-85992500I0J-155000D01*
G01*
X149872500Y-86417500D01*
G75*
G02*
X149717500Y-86572500I-155000J0D01*
G01*
X149407500Y-86572500D01*
G75*
G02*
X149252500Y-86417500I0J155000D01*
G01*
X149252500Y-85992500D01*
G75*
G02*
X149407500Y-85837500I155000J0D01*
G01*
G37*
G36*
G01*
X148362500Y-88737500D02*
X148062500Y-88737500D01*
G75*
G02*
X147912500Y-88587500I0J150000D01*
G01*
X147912500Y-87562500D01*
G75*
G02*
X148062500Y-87412500I150000J0D01*
G01*
X148362500Y-87412500D01*
G75*
G02*
X148512500Y-87562500I0J-150000D01*
G01*
X148512500Y-88587500D01*
G75*
G02*
X148362500Y-88737500I-150000J0D01*
G01*
G37*
G36*
G01*
X147412500Y-88737500D02*
X147112500Y-88737500D01*
G75*
G02*
X146962500Y-88587500I0J150000D01*
G01*
X146962500Y-87562500D01*
G75*
G02*
X147112500Y-87412500I150000J0D01*
G01*
X147412500Y-87412500D01*
G75*
G02*
X147562500Y-87562500I0J-150000D01*
G01*
X147562500Y-88587500D01*
G75*
G02*
X147412500Y-88737500I-150000J0D01*
G01*
G37*
G36*
G01*
X146462500Y-88737500D02*
X146162500Y-88737500D01*
G75*
G02*
X146012500Y-88587500I0J150000D01*
G01*
X146012500Y-87562500D01*
G75*
G02*
X146162500Y-87412500I150000J0D01*
G01*
X146462500Y-87412500D01*
G75*
G02*
X146612500Y-87562500I0J-150000D01*
G01*
X146612500Y-88587500D01*
G75*
G02*
X146462500Y-88737500I-150000J0D01*
G01*
G37*
G36*
G01*
X146462500Y-86462500D02*
X146162500Y-86462500D01*
G75*
G02*
X146012500Y-86312500I0J150000D01*
G01*
X146012500Y-85287500D01*
G75*
G02*
X146162500Y-85137500I150000J0D01*
G01*
X146462500Y-85137500D01*
G75*
G02*
X146612500Y-85287500I0J-150000D01*
G01*
X146612500Y-86312500D01*
G75*
G02*
X146462500Y-86462500I-150000J0D01*
G01*
G37*
G36*
G01*
X148362500Y-86462500D02*
X148062500Y-86462500D01*
G75*
G02*
X147912500Y-86312500I0J150000D01*
G01*
X147912500Y-85287500D01*
G75*
G02*
X148062500Y-85137500I150000J0D01*
G01*
X148362500Y-85137500D01*
G75*
G02*
X148512500Y-85287500I0J-150000D01*
G01*
X148512500Y-86312500D01*
G75*
G02*
X148362500Y-86462500I-150000J0D01*
G01*
G37*
G36*
G01*
X169002500Y-80807500D02*
X169002500Y-80467500D01*
G75*
G02*
X169142500Y-80327500I140000J0D01*
G01*
X169422500Y-80327500D01*
G75*
G02*
X169562500Y-80467500I0J-140000D01*
G01*
X169562500Y-80807500D01*
G75*
G02*
X169422500Y-80947500I-140000J0D01*
G01*
X169142500Y-80947500D01*
G75*
G02*
X169002500Y-80807500I0J140000D01*
G01*
G37*
G36*
G01*
X169962500Y-80807500D02*
X169962500Y-80467500D01*
G75*
G02*
X170102500Y-80327500I140000J0D01*
G01*
X170382500Y-80327500D01*
G75*
G02*
X170522500Y-80467500I0J-140000D01*
G01*
X170522500Y-80807500D01*
G75*
G02*
X170382500Y-80947500I-140000J0D01*
G01*
X170102500Y-80947500D01*
G75*
G02*
X169962500Y-80807500I0J140000D01*
G01*
G37*
G36*
G01*
X171545000Y-83960000D02*
X171545000Y-83640000D01*
G75*
G02*
X171705000Y-83480000I160000J0D01*
G01*
X172100000Y-83480000D01*
G75*
G02*
X172260000Y-83640000I0J-160000D01*
G01*
X172260000Y-83960000D01*
G75*
G02*
X172100000Y-84120000I-160000J0D01*
G01*
X171705000Y-84120000D01*
G75*
G02*
X171545000Y-83960000I0J160000D01*
G01*
G37*
G36*
G01*
X172740000Y-83960000D02*
X172740000Y-83640000D01*
G75*
G02*
X172900000Y-83480000I160000J0D01*
G01*
X173295000Y-83480000D01*
G75*
G02*
X173455000Y-83640000I0J-160000D01*
G01*
X173455000Y-83960000D01*
G75*
G02*
X173295000Y-84120000I-160000J0D01*
G01*
X172900000Y-84120000D01*
G75*
G02*
X172740000Y-83960000I0J160000D01*
G01*
G37*
G36*
G01*
X127007500Y-86697500D02*
X127007500Y-86377500D01*
G75*
G02*
X127167500Y-86217500I160000J0D01*
G01*
X127562500Y-86217500D01*
G75*
G02*
X127722500Y-86377500I0J-160000D01*
G01*
X127722500Y-86697500D01*
G75*
G02*
X127562500Y-86857500I-160000J0D01*
G01*
X127167500Y-86857500D01*
G75*
G02*
X127007500Y-86697500I0J160000D01*
G01*
G37*
G36*
G01*
X128202500Y-86697500D02*
X128202500Y-86377500D01*
G75*
G02*
X128362500Y-86217500I160000J0D01*
G01*
X128757500Y-86217500D01*
G75*
G02*
X128917500Y-86377500I0J-160000D01*
G01*
X128917500Y-86697500D01*
G75*
G02*
X128757500Y-86857500I-160000J0D01*
G01*
X128362500Y-86857500D01*
G75*
G02*
X128202500Y-86697500I0J160000D01*
G01*
G37*
M02*
