G04 #@! TF.GenerationSoftware,KiCad,Pcbnew,6.0.10+dfsg-1~bpo11+1*
G04 #@! TF.ProjectId,project,70726f6a-6563-4742-9e6b-696361645f70,rev?*
G04 #@! TF.SameCoordinates,Original*
G04 #@! TF.FileFunction,Copper,L5,Inr*
G04 #@! TF.FilePolarity,Positive*
%FSLAX46Y46*%
G04 Gerber Fmt 4.6, Leading zero omitted, Abs format (unit mm)*
%MOMM*%
%LPD*%
G01*
G04 APERTURE LIST*
G04 #@! TA.AperFunction,Profile*
%ADD10C,0.100000*%
G04 #@! TD*
G04 #@! TA.AperFunction,ComponentPad*
%ADD11C,1.800000*%
G04 #@! TD*
G04 #@! TA.AperFunction,ComponentPad*
%ADD12R,1.700000X1.700000*%
G04 #@! TD*
G04 #@! TA.AperFunction,ComponentPad*
%ADD13O,1.700000X1.700000*%
G04 #@! TD*
G04 #@! TA.AperFunction,ComponentPad*
%ADD14O,2.750000X1.450000*%
G04 #@! TD*
G04 #@! TA.AperFunction,ComponentPad*
%ADD15O,2.100000X1.000000*%
G04 #@! TD*
G04 #@! TA.AperFunction,ComponentPad*
%ADD16O,1.600000X1.000000*%
G04 #@! TD*
G04 #@! TA.AperFunction,ViaPad*
%ADD17C,0.400000*%
G04 #@! TD*
G04 APERTURE END LIST*
D10*
X120262500Y-76037500D02*
X120262500Y-75037500D01*
X184262500Y-76037500D02*
X184262500Y-90037500D01*
X184262500Y-90037500D02*
X130262500Y-90037500D01*
X130262500Y-75037500D02*
X130262500Y-76037500D01*
X130262500Y-76037500D02*
X184262500Y-76037500D01*
X120262500Y-75037500D02*
X130262500Y-75037500D01*
X118262500Y-90037500D02*
X120262500Y-90037500D01*
X120262500Y-76037500D02*
X118262500Y-76037500D01*
X120262500Y-91037500D02*
X130262500Y-91037500D01*
X118262500Y-90037500D02*
X118262500Y-76037500D01*
X130262500Y-91037500D02*
X130262500Y-90037500D01*
X120262500Y-90037500D02*
X120262500Y-91037500D01*
D11*
X137437500Y-88727500D03*
X139977500Y-88727500D03*
X153547500Y-88727500D03*
X156087500Y-88727500D03*
X156087500Y-77347500D03*
X153547500Y-77347500D03*
X139977500Y-77347500D03*
X137437500Y-77347500D03*
D12*
X179987500Y-77962500D03*
D13*
X182527500Y-77962500D03*
X179987500Y-80502500D03*
X182527500Y-80502500D03*
X179987500Y-83042500D03*
X182527500Y-83042500D03*
X179987500Y-85582500D03*
X182527500Y-85582500D03*
X179987500Y-88122500D03*
X182527500Y-88122500D03*
D14*
X122462500Y-75987500D03*
X122462500Y-90087500D03*
X128362500Y-90087500D03*
X128362500Y-75987500D03*
D15*
X124667500Y-80217500D03*
D16*
X120487500Y-88857500D03*
D15*
X124667500Y-88857500D03*
D16*
X120487500Y-80217500D03*
G04 #@! TA.AperFunction,ComponentPad*
G36*
X131362500Y-79987500D02*
G01*
X131486107Y-80007077D01*
X131597614Y-80063893D01*
X131686107Y-80152386D01*
X131742923Y-80263893D01*
X131762500Y-80387500D01*
X131742923Y-80511107D01*
X131686107Y-80622614D01*
X131597614Y-80711107D01*
X131486107Y-80767923D01*
X131362500Y-80787500D01*
X130962500Y-80787500D01*
X130962500Y-79987500D01*
X131362500Y-79987500D01*
G37*
G04 #@! TD.AperFunction*
G04 #@! TA.AperFunction,ComponentPad*
G36*
X131362500Y-76287500D02*
G01*
X131486107Y-76307077D01*
X131597614Y-76363893D01*
X131686107Y-76452386D01*
X131742923Y-76563893D01*
X131762500Y-76687500D01*
X131742923Y-76811107D01*
X131686107Y-76922614D01*
X131597614Y-77011107D01*
X131486107Y-77067923D01*
X131362500Y-77087500D01*
X130962500Y-77087500D01*
X130962500Y-76287500D01*
X131362500Y-76287500D01*
G37*
G04 #@! TD.AperFunction*
D17*
X146100000Y-84400000D03*
X161700000Y-84400000D03*
X131962500Y-77337500D03*
X164600000Y-82600000D03*
X128620440Y-84237500D03*
X170105498Y-81937500D03*
X162706177Y-85514205D03*
X171600000Y-79200000D03*
X143262500Y-82037500D03*
X176200000Y-85700000D03*
X128762500Y-79537500D03*
X159858814Y-76714438D03*
X167400000Y-78600000D03*
X170962500Y-83837500D03*
X147262500Y-81037500D03*
X134862500Y-88937500D03*
X164600000Y-79500000D03*
X168655529Y-83387531D03*
X163162500Y-89137500D03*
X161400000Y-79500000D03*
X149062500Y-80437500D03*
X159700000Y-84100000D03*
X173400000Y-88600000D03*
X159117306Y-87282694D03*
X155880704Y-83083050D03*
X155062500Y-85137500D03*
X131058000Y-86037500D03*
X158577182Y-86006969D03*
X168300000Y-79700000D03*
X169562500Y-86200000D03*
X128489534Y-86006174D03*
X134806177Y-77160795D03*
X165162500Y-89137500D03*
X159362500Y-80637500D03*
X164162500Y-89137500D03*
X169100000Y-84800000D03*
X170462500Y-83937500D03*
X175562500Y-80937500D03*
X165487669Y-85144671D03*
X162162500Y-89137500D03*
X155962500Y-80337500D03*
X173162500Y-79137500D03*
X169064500Y-84337500D03*
X152062500Y-83937500D03*
X161212500Y-85488000D03*
X173300000Y-86700000D03*
X128741470Y-82216470D03*
X149062500Y-84037500D03*
X131262500Y-83037500D03*
X170600000Y-80100000D03*
X170800000Y-76500000D03*
X149562500Y-86737500D03*
X149062500Y-81737500D03*
X161162500Y-89137500D03*
X161400000Y-82600000D03*
X170100000Y-80100000D03*
X160162500Y-89137500D03*
X155880704Y-83538000D03*
X144262500Y-85937500D03*
X147262500Y-87137500D03*
X168395000Y-86105000D03*
X173075000Y-82137500D03*
X148868750Y-85143750D03*
X163714917Y-84585083D03*
X167760573Y-83920694D03*
X159750000Y-85250000D03*
X168549765Y-85038000D03*
X171804500Y-82982432D03*
X160200000Y-83100000D03*
X166200000Y-78300000D03*
X160400000Y-84200000D03*
X148212500Y-89037500D03*
X150262500Y-89037500D03*
X144262500Y-89037500D03*
X176109620Y-88509619D03*
X170925000Y-87075000D03*
X174032500Y-86567500D03*
X171700000Y-78266778D03*
X149562500Y-89037500D03*
X146312500Y-89037500D03*
X173824509Y-81332113D03*
X173962500Y-83837500D03*
X136512002Y-80887000D03*
X137467444Y-80883239D03*
X135539743Y-86317000D03*
X137399818Y-84190139D03*
X138413000Y-82937500D03*
X144162500Y-80537500D03*
X144162500Y-81037500D03*
X131694195Y-81996698D03*
X139662500Y-85837000D03*
X150462500Y-85737500D03*
X157229682Y-82817248D03*
X157150624Y-84725624D03*
X158028750Y-86971250D03*
X155062500Y-85837500D03*
X157205000Y-80987500D03*
X166462500Y-87737500D03*
X160130000Y-87970000D03*
X163702301Y-87591580D03*
X166462500Y-86137500D03*
X161130000Y-87970000D03*
X150362500Y-79862500D03*
X136162500Y-79437500D03*
X135862500Y-83937500D03*
X157305786Y-79908962D03*
X156163580Y-85625472D03*
X165000000Y-83300000D03*
X164245416Y-84298055D03*
X163214917Y-84230388D03*
X161962500Y-76837500D03*
X162880557Y-76947214D03*
X153662500Y-82137000D03*
X153862500Y-80437500D03*
X155306734Y-80228000D03*
X154562500Y-84737500D03*
X175400000Y-79900000D03*
X175310858Y-77261221D03*
X171121379Y-79804082D03*
X171900000Y-77600000D03*
X175500000Y-88200000D03*
X175500000Y-86000000D03*
X134766903Y-78239613D03*
X167662500Y-85037500D03*
X135762500Y-88537500D03*
X165462500Y-84337500D03*
G04 #@! TA.AperFunction,Conductor*
G36*
X120864295Y-76157502D02*
G01*
X120910788Y-76211158D01*
X120919420Y-76237303D01*
X120926073Y-76268601D01*
X120926075Y-76268608D01*
X120927449Y-76275071D01*
X120930135Y-76281104D01*
X120930136Y-76281107D01*
X121003779Y-76446512D01*
X121006578Y-76452799D01*
X121010458Y-76458140D01*
X121010459Y-76458141D01*
X121087234Y-76563812D01*
X121120931Y-76610192D01*
X121125833Y-76614605D01*
X121125834Y-76614607D01*
X121250741Y-76727074D01*
X121265508Y-76740370D01*
X121271229Y-76743673D01*
X121416781Y-76827707D01*
X121433992Y-76837644D01*
X121490533Y-76856015D01*
X121572351Y-76882599D01*
X121619018Y-76897762D01*
X121625581Y-76898452D01*
X121625582Y-76898452D01*
X121649211Y-76900935D01*
X121763996Y-76913000D01*
X123161004Y-76913000D01*
X123275789Y-76900935D01*
X123299418Y-76898452D01*
X123299419Y-76898452D01*
X123305982Y-76897762D01*
X123352650Y-76882599D01*
X123434467Y-76856015D01*
X123491008Y-76837644D01*
X123508220Y-76827707D01*
X123653771Y-76743673D01*
X123659492Y-76740370D01*
X123674259Y-76727074D01*
X123799166Y-76614607D01*
X123799167Y-76614605D01*
X123804069Y-76610192D01*
X123837766Y-76563812D01*
X123914541Y-76458141D01*
X123914542Y-76458140D01*
X123918422Y-76452799D01*
X123921222Y-76446512D01*
X123994864Y-76281107D01*
X123994865Y-76281104D01*
X123997551Y-76275071D01*
X123998925Y-76268608D01*
X123998927Y-76268601D01*
X124005580Y-76237303D01*
X124039308Y-76174829D01*
X124101458Y-76140508D01*
X124128826Y-76137500D01*
X126696174Y-76137500D01*
X126764295Y-76157502D01*
X126810788Y-76211158D01*
X126819420Y-76237303D01*
X126826073Y-76268601D01*
X126826075Y-76268608D01*
X126827449Y-76275071D01*
X126830135Y-76281104D01*
X126830136Y-76281107D01*
X126903779Y-76446512D01*
X126906578Y-76452799D01*
X126910458Y-76458140D01*
X126910459Y-76458141D01*
X126987234Y-76563812D01*
X127020931Y-76610192D01*
X127025833Y-76614605D01*
X127025834Y-76614607D01*
X127150741Y-76727074D01*
X127165508Y-76740370D01*
X127171229Y-76743673D01*
X127316781Y-76827707D01*
X127333992Y-76837644D01*
X127390533Y-76856015D01*
X127472351Y-76882599D01*
X127519018Y-76897762D01*
X127525581Y-76898452D01*
X127525582Y-76898452D01*
X127549211Y-76900935D01*
X127663996Y-76913000D01*
X129061004Y-76913000D01*
X129175789Y-76900935D01*
X129199418Y-76898452D01*
X129199419Y-76898452D01*
X129205982Y-76897762D01*
X129212264Y-76895721D01*
X129352422Y-76850182D01*
X129423389Y-76848155D01*
X129484187Y-76884817D01*
X129515512Y-76948530D01*
X129507418Y-77019064D01*
X129486523Y-77052594D01*
X129460062Y-77083088D01*
X129366421Y-77190998D01*
X129366417Y-77191003D01*
X129362490Y-77195529D01*
X129257334Y-77377299D01*
X129252029Y-77392576D01*
X129191755Y-77566149D01*
X129188447Y-77575674D01*
X129187586Y-77581609D01*
X129187586Y-77581611D01*
X129162088Y-77757470D01*
X129158314Y-77783496D01*
X129168023Y-77993267D01*
X129169427Y-77999092D01*
X129169427Y-77999093D01*
X129214108Y-78184487D01*
X129217224Y-78197418D01*
X129219706Y-78202876D01*
X129219707Y-78202880D01*
X129262820Y-78297701D01*
X129304140Y-78388581D01*
X129425637Y-78559860D01*
X129577331Y-78705075D01*
X129582366Y-78708326D01*
X129748709Y-78815733D01*
X129748712Y-78815734D01*
X129753746Y-78818985D01*
X129759309Y-78821227D01*
X129942955Y-78895239D01*
X129942958Y-78895240D01*
X129948519Y-78897481D01*
X129954400Y-78898629D01*
X129954405Y-78898631D01*
X130150176Y-78936862D01*
X130150179Y-78936862D01*
X130154622Y-78937730D01*
X130160143Y-78938000D01*
X130314969Y-78938000D01*
X130471546Y-78923061D01*
X130477302Y-78921372D01*
X130477304Y-78921372D01*
X130613386Y-78881450D01*
X130673049Y-78863947D01*
X130773447Y-78812239D01*
X130854408Y-78770541D01*
X130854411Y-78770539D01*
X130859739Y-78767795D01*
X130917700Y-78722266D01*
X131020162Y-78641782D01*
X131020167Y-78641778D01*
X131024879Y-78638076D01*
X131029674Y-78632550D01*
X131158579Y-78484002D01*
X131158583Y-78483997D01*
X131162510Y-78479471D01*
X131267666Y-78297701D01*
X131305075Y-78189973D01*
X131334586Y-78104991D01*
X131334586Y-78104989D01*
X131336553Y-78099326D01*
X131341589Y-78064596D01*
X131365825Y-77897444D01*
X131365825Y-77897441D01*
X131366686Y-77891504D01*
X131356977Y-77681733D01*
X131314763Y-77506574D01*
X131309182Y-77483415D01*
X131309181Y-77483413D01*
X131307776Y-77477582D01*
X131296606Y-77453013D01*
X131244085Y-77337500D01*
X131557008Y-77337500D01*
X131558559Y-77347293D01*
X131566028Y-77394448D01*
X131576854Y-77462804D01*
X131634450Y-77575842D01*
X131724158Y-77665550D01*
X131837196Y-77723146D01*
X131846985Y-77724696D01*
X131846987Y-77724697D01*
X131952707Y-77741441D01*
X131962500Y-77742992D01*
X131972293Y-77741441D01*
X132078013Y-77724697D01*
X132078015Y-77724696D01*
X132087804Y-77723146D01*
X132200842Y-77665550D01*
X132290550Y-77575842D01*
X132348146Y-77462804D01*
X132358973Y-77394448D01*
X132366441Y-77347293D01*
X132367992Y-77337500D01*
X132358848Y-77279764D01*
X132349697Y-77221987D01*
X132349696Y-77221985D01*
X132348146Y-77212196D01*
X132290550Y-77099158D01*
X132200842Y-77009450D01*
X132087804Y-76951854D01*
X132078015Y-76950304D01*
X132078013Y-76950303D01*
X131972293Y-76933559D01*
X131962500Y-76932008D01*
X131952707Y-76933559D01*
X131846987Y-76950303D01*
X131846985Y-76950304D01*
X131837196Y-76951854D01*
X131724158Y-77009450D01*
X131634450Y-77099158D01*
X131576854Y-77212196D01*
X131575304Y-77221985D01*
X131575303Y-77221987D01*
X131566152Y-77279764D01*
X131557008Y-77337500D01*
X131244085Y-77337500D01*
X131243472Y-77336151D01*
X131220860Y-77286419D01*
X131114101Y-77135917D01*
X131102829Y-77120026D01*
X131102828Y-77120025D01*
X131099363Y-77115140D01*
X130967290Y-76988708D01*
X130951999Y-76974070D01*
X130947669Y-76969925D01*
X130850533Y-76907205D01*
X130776291Y-76859267D01*
X130776288Y-76859266D01*
X130771254Y-76856015D01*
X130725313Y-76837500D01*
X130582045Y-76779761D01*
X130582042Y-76779760D01*
X130576481Y-76777519D01*
X130570600Y-76776371D01*
X130570595Y-76776369D01*
X130374824Y-76738138D01*
X130374821Y-76738138D01*
X130370378Y-76737270D01*
X130364857Y-76737000D01*
X130210031Y-76737000D01*
X130053454Y-76751939D01*
X130047698Y-76753628D01*
X130047696Y-76753628D01*
X129998052Y-76768192D01*
X129851951Y-76811053D01*
X129846623Y-76813797D01*
X129841053Y-76816025D01*
X129840336Y-76814231D01*
X129779300Y-76825963D01*
X129713402Y-76799544D01*
X129672249Y-76741691D01*
X129668907Y-76670773D01*
X129697704Y-76616229D01*
X129699160Y-76614612D01*
X129704069Y-76610192D01*
X129717180Y-76592147D01*
X129814541Y-76458141D01*
X129814542Y-76458140D01*
X129818422Y-76452799D01*
X129821222Y-76446512D01*
X129894864Y-76281107D01*
X129894865Y-76281104D01*
X129897551Y-76275071D01*
X129904634Y-76241748D01*
X129938362Y-76179275D01*
X130000512Y-76144953D01*
X130071351Y-76149681D01*
X130106564Y-76169533D01*
X130108659Y-76171208D01*
X130121413Y-76183982D01*
X130125351Y-76187125D01*
X130134195Y-76198224D01*
X130146978Y-76204389D01*
X130151204Y-76207763D01*
X130157047Y-76211442D01*
X130161910Y-76213793D01*
X130172992Y-76222656D01*
X130186820Y-76225836D01*
X130191351Y-76228026D01*
X130198897Y-76230676D01*
X130203807Y-76231800D01*
X130216587Y-76237965D01*
X130239655Y-76237985D01*
X130239653Y-76240010D01*
X130239719Y-76240026D01*
X130239719Y-76238000D01*
X130256608Y-76238000D01*
X130308063Y-76238045D01*
X130308059Y-76242850D01*
X130308157Y-76242856D01*
X130308157Y-76238000D01*
X134818181Y-76238000D01*
X134886302Y-76258002D01*
X134932795Y-76311658D01*
X134942899Y-76381932D01*
X134929303Y-76423395D01*
X134863969Y-76545628D01*
X134863236Y-76547000D01*
X134854614Y-76565228D01*
X134845161Y-76588049D01*
X134844642Y-76589500D01*
X134844638Y-76589510D01*
X134839149Y-76604853D01*
X134838366Y-76607041D01*
X134837918Y-76608517D01*
X134837913Y-76608533D01*
X134832562Y-76626175D01*
X134823852Y-76654889D01*
X134815170Y-76706289D01*
X134814933Y-76712196D01*
X134813268Y-76753628D01*
X134812624Y-76769647D01*
X134812632Y-76771098D01*
X134812679Y-76779761D01*
X134812725Y-76788377D01*
X134815042Y-76796575D01*
X134815042Y-76796577D01*
X134827225Y-76839686D01*
X134837596Y-76876386D01*
X134840989Y-76882599D01*
X134869464Y-76934747D01*
X134869467Y-76934752D01*
X134871622Y-76938698D01*
X134874320Y-76942302D01*
X134885329Y-76957007D01*
X134906674Y-76985520D01*
X134951788Y-77030634D01*
X134974960Y-77062526D01*
X134984885Y-77082005D01*
X134997067Y-77119497D01*
X134997151Y-77120026D01*
X135000486Y-77141085D01*
X135000486Y-77180502D01*
X134997284Y-77200722D01*
X134997067Y-77202092D01*
X134984885Y-77239585D01*
X134974960Y-77259064D01*
X134951788Y-77290956D01*
X134921251Y-77321493D01*
X134903649Y-77336151D01*
X134893428Y-77343194D01*
X134844633Y-77387340D01*
X134829973Y-77402014D01*
X134785326Y-77481832D01*
X134765324Y-77549953D01*
X134764684Y-77554401D01*
X134764683Y-77554408D01*
X134757639Y-77603401D01*
X134757638Y-77603408D01*
X134757000Y-77607849D01*
X134757000Y-77728075D01*
X134736998Y-77796196D01*
X134683342Y-77842689D01*
X134655535Y-77851070D01*
X134651393Y-77852416D01*
X134641599Y-77853967D01*
X134528561Y-77911563D01*
X134438853Y-78001271D01*
X134381257Y-78114309D01*
X134379707Y-78124098D01*
X134379706Y-78124100D01*
X134369230Y-78190244D01*
X134361411Y-78239613D01*
X134362962Y-78249406D01*
X134368764Y-78286036D01*
X134381257Y-78364917D01*
X134438853Y-78477955D01*
X134528561Y-78567663D01*
X134641599Y-78625259D01*
X134651391Y-78626810D01*
X134660825Y-78629875D01*
X134660368Y-78631281D01*
X134714863Y-78657114D01*
X134752391Y-78717382D01*
X134757000Y-78751151D01*
X134757000Y-80045099D01*
X134756385Y-80057535D01*
X134741765Y-80204939D01*
X134736879Y-80229326D01*
X134698410Y-80355213D01*
X134688831Y-80378160D01*
X134626381Y-80494043D01*
X134612483Y-80514660D01*
X134528476Y-80616028D01*
X134510800Y-80633512D01*
X134408532Y-80716394D01*
X134387758Y-80730070D01*
X134271199Y-80791250D01*
X134248145Y-80800579D01*
X134121827Y-80837675D01*
X134097397Y-80842291D01*
X133949855Y-80855297D01*
X133937420Y-80855776D01*
X132124563Y-80835948D01*
X132114349Y-80836090D01*
X132108051Y-80836334D01*
X132102660Y-80836543D01*
X132102621Y-80836545D01*
X132101822Y-80836576D01*
X132101018Y-80836627D01*
X132100985Y-80836629D01*
X132095550Y-80836976D01*
X132091604Y-80837228D01*
X132090886Y-80837292D01*
X132090870Y-80837293D01*
X131945536Y-80850204D01*
X131945523Y-80850205D01*
X131943975Y-80850343D01*
X131934907Y-80851606D01*
X131925240Y-80852952D01*
X131925233Y-80852953D01*
X131923719Y-80853164D01*
X131922217Y-80853450D01*
X131922205Y-80853452D01*
X131910471Y-80855687D01*
X131899121Y-80857848D01*
X131879253Y-80862667D01*
X131877760Y-80863109D01*
X131877748Y-80863112D01*
X131803231Y-80885162D01*
X131797020Y-80887000D01*
X131743195Y-80902927D01*
X131741709Y-80903448D01*
X131741704Y-80903450D01*
X131725358Y-80909185D01*
X131725339Y-80909192D01*
X131723906Y-80909695D01*
X131700718Y-80919151D01*
X131682189Y-80927806D01*
X131680804Y-80928539D01*
X131587902Y-80977707D01*
X131556778Y-80994179D01*
X131555438Y-80994976D01*
X131555429Y-80994981D01*
X131551542Y-80997293D01*
X131539204Y-81004631D01*
X131537905Y-81005494D01*
X131537892Y-81005502D01*
X131519644Y-81017623D01*
X131518342Y-81018488D01*
X131501892Y-81030636D01*
X131500694Y-81031617D01*
X131500683Y-81031625D01*
X131410276Y-81105614D01*
X131392020Y-81120555D01*
X131390882Y-81121584D01*
X131390873Y-81121592D01*
X131382430Y-81129229D01*
X131376960Y-81134176D01*
X131359362Y-81151750D01*
X131358340Y-81152877D01*
X131346755Y-81165649D01*
X131346742Y-81165665D01*
X131345719Y-81166792D01*
X131255365Y-81276889D01*
X131254453Y-81278118D01*
X131254452Y-81278120D01*
X131249689Y-81284543D01*
X131243353Y-81293086D01*
X131229637Y-81313613D01*
X131219268Y-81330911D01*
X131218543Y-81332268D01*
X131218537Y-81332278D01*
X131198753Y-81369291D01*
X131152087Y-81456597D01*
X131143466Y-81474825D01*
X131134016Y-81497638D01*
X131127221Y-81516629D01*
X131126769Y-81518118D01*
X131126767Y-81518125D01*
X131120976Y-81537215D01*
X131085852Y-81653004D01*
X131080951Y-81672571D01*
X131076133Y-81696795D01*
X131073175Y-81716739D01*
X131058597Y-81864746D01*
X131057855Y-81874802D01*
X131057248Y-81887153D01*
X131057000Y-81897240D01*
X131057000Y-82031302D01*
X131057248Y-82041396D01*
X131057286Y-82042163D01*
X131057287Y-82042198D01*
X131057459Y-82045683D01*
X131057856Y-82053759D01*
X131058600Y-82063829D01*
X131061077Y-82088953D01*
X131074612Y-82226230D01*
X131074615Y-82226252D01*
X131074763Y-82227756D01*
X131074985Y-82229253D01*
X131074987Y-82229267D01*
X131077504Y-82246221D01*
X131077508Y-82246243D01*
X131077728Y-82247726D01*
X131082557Y-82271976D01*
X131087467Y-82291556D01*
X131133523Y-82443213D01*
X131140331Y-82462218D01*
X131140914Y-82463624D01*
X131140916Y-82463629D01*
X131147258Y-82478921D01*
X131149803Y-82485059D01*
X131158444Y-82503307D01*
X131233230Y-82643046D01*
X131243617Y-82660354D01*
X131257367Y-82680905D01*
X131258266Y-82682115D01*
X131258277Y-82682131D01*
X131259005Y-82683111D01*
X131269406Y-82697114D01*
X131270385Y-82698305D01*
X131369079Y-82818385D01*
X131369091Y-82818399D01*
X131370047Y-82819562D01*
X131371075Y-82820694D01*
X131380946Y-82831568D01*
X131383619Y-82834513D01*
X131401118Y-82851982D01*
X131402258Y-82853014D01*
X131402264Y-82853019D01*
X131414939Y-82864486D01*
X131414954Y-82864499D01*
X131416086Y-82865523D01*
X131503959Y-82937500D01*
X131543514Y-82969900D01*
X131544119Y-82970371D01*
X131550895Y-82975650D01*
X131550919Y-82975668D01*
X131551481Y-82976106D01*
X131561431Y-82983470D01*
X131569691Y-82989274D01*
X131748509Y-83108486D01*
X132189639Y-83402572D01*
X132199580Y-83409928D01*
X132293912Y-83487197D01*
X132313515Y-83503254D01*
X132331012Y-83520723D01*
X132414110Y-83621826D01*
X132427861Y-83642378D01*
X132489609Y-83757757D01*
X132499081Y-83780596D01*
X132500891Y-83786557D01*
X132536953Y-83905298D01*
X132537115Y-83905833D01*
X132541944Y-83930085D01*
X132542675Y-83937500D01*
X132544663Y-83957664D01*
X132544663Y-83957665D01*
X132556392Y-84076622D01*
X132557000Y-84088985D01*
X132557000Y-85117099D01*
X132557248Y-85127187D01*
X132557855Y-85139537D01*
X132557911Y-85140290D01*
X132557911Y-85140297D01*
X132558054Y-85142229D01*
X132558597Y-85149591D01*
X132575988Y-85326166D01*
X132578946Y-85346110D01*
X132579243Y-85347603D01*
X132582912Y-85366050D01*
X132583763Y-85370330D01*
X132584137Y-85371823D01*
X132586709Y-85382092D01*
X132588663Y-85389896D01*
X132638366Y-85553748D01*
X132638891Y-85555215D01*
X132644554Y-85571039D01*
X132645163Y-85572742D01*
X132654616Y-85595562D01*
X132663236Y-85613788D01*
X132663963Y-85615149D01*
X132663970Y-85615162D01*
X132722068Y-85723855D01*
X132743945Y-85764784D01*
X132744735Y-85766102D01*
X132744739Y-85766109D01*
X132751237Y-85776950D01*
X132754313Y-85782081D01*
X132768036Y-85802619D01*
X132780050Y-85818818D01*
X132781028Y-85820009D01*
X132781029Y-85820011D01*
X132853233Y-85907991D01*
X132892618Y-85955982D01*
X132899213Y-85963628D01*
X132907517Y-85972789D01*
X132914465Y-85980085D01*
X133319915Y-86385535D01*
X133327211Y-86392483D01*
X133336372Y-86400787D01*
X133344018Y-86407382D01*
X133344608Y-86407866D01*
X133344622Y-86407878D01*
X133469657Y-86510492D01*
X133481182Y-86519950D01*
X133497381Y-86531964D01*
X133517919Y-86545687D01*
X133519254Y-86546487D01*
X133519260Y-86546491D01*
X133524776Y-86549797D01*
X133535216Y-86556055D01*
X133538307Y-86557707D01*
X133684838Y-86636030D01*
X133684851Y-86636037D01*
X133686212Y-86636764D01*
X133704435Y-86645383D01*
X133705830Y-86645961D01*
X133705837Y-86645964D01*
X133708770Y-86647179D01*
X133727254Y-86654836D01*
X133728720Y-86655360D01*
X133728721Y-86655361D01*
X133744775Y-86661106D01*
X133744782Y-86661108D01*
X133746251Y-86661634D01*
X133747728Y-86662082D01*
X133747743Y-86662087D01*
X133836477Y-86689003D01*
X133910104Y-86711337D01*
X133911583Y-86711708D01*
X133911596Y-86711711D01*
X133928183Y-86715865D01*
X133928189Y-86715866D01*
X133929673Y-86716238D01*
X133953890Y-86721054D01*
X133973830Y-86724011D01*
X134150408Y-86741403D01*
X134151230Y-86741464D01*
X134151234Y-86741464D01*
X134159684Y-86742088D01*
X134159723Y-86742090D01*
X134160463Y-86742145D01*
X134161230Y-86742183D01*
X134161235Y-86742183D01*
X134172056Y-86742715D01*
X134172072Y-86742716D01*
X134172813Y-86742752D01*
X134182901Y-86743000D01*
X135021647Y-86743000D01*
X135080948Y-86734258D01*
X135150575Y-86713273D01*
X135175496Y-86703963D01*
X135209920Y-86677974D01*
X135276338Y-86652893D01*
X135343041Y-86666267D01*
X135414439Y-86702646D01*
X135424228Y-86704196D01*
X135424230Y-86704197D01*
X135529950Y-86720941D01*
X135539743Y-86722492D01*
X135549536Y-86720941D01*
X135655256Y-86704197D01*
X135655258Y-86704196D01*
X135665047Y-86702646D01*
X135752334Y-86658171D01*
X135822109Y-86645067D01*
X135876708Y-86663836D01*
X135915030Y-86687984D01*
X135915043Y-86687992D01*
X135916648Y-86689003D01*
X135918309Y-86689913D01*
X135918323Y-86689921D01*
X135930788Y-86696748D01*
X135938694Y-86701078D01*
X135947499Y-86703005D01*
X135947501Y-86703006D01*
X136021127Y-86719121D01*
X136028035Y-86720633D01*
X136035106Y-86720570D01*
X136046648Y-86720467D01*
X136099026Y-86720000D01*
X136103486Y-86719318D01*
X136103487Y-86719318D01*
X136121674Y-86716537D01*
X136156847Y-86711159D01*
X136283373Y-86672778D01*
X136284820Y-86672260D01*
X136284839Y-86672254D01*
X136300898Y-86666508D01*
X136300912Y-86666503D01*
X136302367Y-86665982D01*
X136325177Y-86656533D01*
X136343403Y-86647913D01*
X136469089Y-86580732D01*
X136486389Y-86570362D01*
X136487638Y-86569527D01*
X136487656Y-86569516D01*
X136499871Y-86561353D01*
X136506920Y-86556643D01*
X136523114Y-86544632D01*
X136698391Y-86400787D01*
X136746972Y-86360918D01*
X136767508Y-86347196D01*
X136835339Y-86310939D01*
X136857493Y-86299097D01*
X136880308Y-86289647D01*
X136977953Y-86260027D01*
X137002170Y-86255211D01*
X137119981Y-86243607D01*
X137132331Y-86243000D01*
X139141237Y-86243000D01*
X139145792Y-86242328D01*
X139145798Y-86242328D01*
X139195978Y-86234930D01*
X139195984Y-86234929D01*
X139200540Y-86234257D01*
X139204957Y-86232926D01*
X139204960Y-86232925D01*
X139268214Y-86213860D01*
X139268216Y-86213859D01*
X139270168Y-86213271D01*
X139295087Y-86203962D01*
X139302367Y-86198465D01*
X139302372Y-86198463D01*
X139314970Y-86188952D01*
X139381388Y-86163871D01*
X139448091Y-86177245D01*
X139484182Y-86195634D01*
X139537196Y-86222646D01*
X139546985Y-86224196D01*
X139546987Y-86224197D01*
X139652707Y-86240941D01*
X139662500Y-86242492D01*
X139672293Y-86240941D01*
X139778013Y-86224197D01*
X139778015Y-86224196D01*
X139787804Y-86222646D01*
X139900842Y-86165050D01*
X139990550Y-86075342D01*
X140048146Y-85962304D01*
X140050648Y-85946511D01*
X140067992Y-85837000D01*
X140071260Y-85837518D01*
X140086443Y-85785807D01*
X140135063Y-85741751D01*
X140143374Y-85737500D01*
X150057008Y-85737500D01*
X150058559Y-85747293D01*
X150069691Y-85817575D01*
X150076854Y-85862804D01*
X150134450Y-85975842D01*
X150224158Y-86065550D01*
X150337196Y-86123146D01*
X150346985Y-86124696D01*
X150346987Y-86124697D01*
X150452707Y-86141441D01*
X150462500Y-86142992D01*
X150472293Y-86141441D01*
X150578013Y-86124697D01*
X150578015Y-86124696D01*
X150587804Y-86123146D01*
X150700842Y-86065550D01*
X150790550Y-85975842D01*
X150848146Y-85862804D01*
X150852154Y-85837500D01*
X154657008Y-85837500D01*
X154658559Y-85847293D01*
X154668173Y-85907991D01*
X154676854Y-85962804D01*
X154734450Y-86075842D01*
X154824158Y-86165550D01*
X154937196Y-86223146D01*
X154946985Y-86224696D01*
X154946987Y-86224697D01*
X155052707Y-86241441D01*
X155062500Y-86242992D01*
X155072293Y-86241441D01*
X155178013Y-86224697D01*
X155178015Y-86224696D01*
X155187804Y-86223146D01*
X155300842Y-86165550D01*
X155328892Y-86137500D01*
X166057008Y-86137500D01*
X166058559Y-86147293D01*
X166074266Y-86246461D01*
X166076854Y-86262804D01*
X166134450Y-86375842D01*
X166224158Y-86465550D01*
X166337196Y-86523146D01*
X166346985Y-86524696D01*
X166346987Y-86524697D01*
X166452707Y-86541441D01*
X166462500Y-86542992D01*
X166472293Y-86541441D01*
X166578013Y-86524697D01*
X166578015Y-86524696D01*
X166587804Y-86523146D01*
X166700842Y-86465550D01*
X166790550Y-86375842D01*
X166848146Y-86262804D01*
X166850735Y-86246461D01*
X166866441Y-86147293D01*
X166867992Y-86137500D01*
X166862845Y-86105000D01*
X167989508Y-86105000D01*
X167991059Y-86114793D01*
X168006750Y-86213860D01*
X168009354Y-86230304D01*
X168066950Y-86343342D01*
X168156658Y-86433050D01*
X168269696Y-86490646D01*
X168279485Y-86492196D01*
X168279487Y-86492197D01*
X168385207Y-86508941D01*
X168395000Y-86510492D01*
X168404793Y-86508941D01*
X168510513Y-86492197D01*
X168510515Y-86492196D01*
X168520304Y-86490646D01*
X168633342Y-86433050D01*
X168723050Y-86343342D01*
X168780646Y-86230304D01*
X168783251Y-86213860D01*
X168798941Y-86114793D01*
X168800492Y-86105000D01*
X168788766Y-86030964D01*
X168783862Y-86000000D01*
X175094508Y-86000000D01*
X175096059Y-86009793D01*
X175103780Y-86058539D01*
X175114354Y-86125304D01*
X175171950Y-86238342D01*
X175261658Y-86328050D01*
X175374696Y-86385646D01*
X175384485Y-86387196D01*
X175384487Y-86387197D01*
X175490207Y-86403941D01*
X175500000Y-86405492D01*
X175509793Y-86403941D01*
X175615513Y-86387197D01*
X175615515Y-86387196D01*
X175625304Y-86385646D01*
X175738342Y-86328050D01*
X175828050Y-86238342D01*
X175885646Y-86125304D01*
X175896221Y-86058539D01*
X175903941Y-86009793D01*
X175905492Y-86000000D01*
X175902776Y-85982853D01*
X175887197Y-85884487D01*
X175887196Y-85884485D01*
X175885646Y-85874696D01*
X175828050Y-85761658D01*
X175738342Y-85671950D01*
X175625304Y-85614354D01*
X175615515Y-85612804D01*
X175615513Y-85612803D01*
X175509793Y-85596059D01*
X175500000Y-85594508D01*
X175490207Y-85596059D01*
X175384487Y-85612803D01*
X175384485Y-85612804D01*
X175374696Y-85614354D01*
X175261658Y-85671950D01*
X175171950Y-85761658D01*
X175114354Y-85874696D01*
X175112804Y-85884485D01*
X175112803Y-85884487D01*
X175097224Y-85982853D01*
X175094508Y-86000000D01*
X168783862Y-86000000D01*
X168782197Y-85989487D01*
X168782196Y-85989485D01*
X168780646Y-85979696D01*
X168723050Y-85866658D01*
X168633342Y-85776950D01*
X168520304Y-85719354D01*
X168510515Y-85717804D01*
X168510513Y-85717803D01*
X168404793Y-85701059D01*
X168395000Y-85699508D01*
X168385207Y-85701059D01*
X168279487Y-85717803D01*
X168279485Y-85717804D01*
X168269696Y-85719354D01*
X168156658Y-85776950D01*
X168066950Y-85866658D01*
X168009354Y-85979696D01*
X168007804Y-85989485D01*
X168007803Y-85989487D01*
X168001234Y-86030964D01*
X167989508Y-86105000D01*
X166862845Y-86105000D01*
X166859258Y-86082353D01*
X166849697Y-86021987D01*
X166849696Y-86021985D01*
X166848146Y-86012196D01*
X166790550Y-85899158D01*
X166700842Y-85809450D01*
X166587804Y-85751854D01*
X166578015Y-85750304D01*
X166578013Y-85750303D01*
X166472293Y-85733559D01*
X166462500Y-85732008D01*
X166452707Y-85733559D01*
X166346987Y-85750303D01*
X166346985Y-85750304D01*
X166337196Y-85751854D01*
X166224158Y-85809450D01*
X166134450Y-85899158D01*
X166076854Y-86012196D01*
X166075304Y-86021985D01*
X166075303Y-86021987D01*
X166065742Y-86082353D01*
X166057008Y-86137500D01*
X155328892Y-86137500D01*
X155390550Y-86075842D01*
X155448146Y-85962804D01*
X155456828Y-85907991D01*
X155466441Y-85847293D01*
X155467992Y-85837500D01*
X155462664Y-85803862D01*
X155449697Y-85721987D01*
X155449696Y-85721985D01*
X155448146Y-85712196D01*
X155403958Y-85625472D01*
X155758088Y-85625472D01*
X155759639Y-85635265D01*
X155772712Y-85717803D01*
X155777934Y-85750776D01*
X155835530Y-85863814D01*
X155925238Y-85953522D01*
X156038276Y-86011118D01*
X156048065Y-86012668D01*
X156048067Y-86012669D01*
X156153787Y-86029413D01*
X156163580Y-86030964D01*
X156173373Y-86029413D01*
X156279093Y-86012669D01*
X156279095Y-86012668D01*
X156288884Y-86011118D01*
X156401922Y-85953522D01*
X156491630Y-85863814D01*
X156549226Y-85750776D01*
X156554449Y-85717803D01*
X156567521Y-85635265D01*
X156569072Y-85625472D01*
X156567311Y-85614354D01*
X156550777Y-85509959D01*
X156550776Y-85509957D01*
X156549226Y-85500168D01*
X156491630Y-85387130D01*
X156401922Y-85297422D01*
X156308852Y-85250000D01*
X159344508Y-85250000D01*
X159346059Y-85259793D01*
X159361699Y-85358539D01*
X159364354Y-85375304D01*
X159421950Y-85488342D01*
X159511658Y-85578050D01*
X159624696Y-85635646D01*
X159634485Y-85637196D01*
X159634487Y-85637197D01*
X159740207Y-85653941D01*
X159750000Y-85655492D01*
X159759793Y-85653941D01*
X159865513Y-85637197D01*
X159865515Y-85637196D01*
X159875304Y-85635646D01*
X159988342Y-85578050D01*
X159998630Y-85567762D01*
X178932020Y-85567762D01*
X178932536Y-85573906D01*
X178948565Y-85764784D01*
X178949259Y-85773053D01*
X178950958Y-85778978D01*
X179003526Y-85962304D01*
X179006044Y-85971086D01*
X179008859Y-85976563D01*
X179008860Y-85976566D01*
X179097397Y-86148841D01*
X179100212Y-86154318D01*
X179228177Y-86315770D01*
X179232870Y-86319764D01*
X179232871Y-86319765D01*
X179366349Y-86433363D01*
X179385064Y-86449291D01*
X179564898Y-86549797D01*
X179630591Y-86571142D01*
X179754971Y-86611556D01*
X179754975Y-86611557D01*
X179760829Y-86613459D01*
X179965394Y-86637851D01*
X179971529Y-86637379D01*
X179971531Y-86637379D01*
X180027539Y-86633069D01*
X180170800Y-86622046D01*
X180176730Y-86620390D01*
X180176732Y-86620390D01*
X180363297Y-86568300D01*
X180363296Y-86568300D01*
X180369225Y-86566645D01*
X180374714Y-86563872D01*
X180374720Y-86563870D01*
X180547616Y-86476533D01*
X180553110Y-86473758D01*
X180599455Y-86437550D01*
X180710601Y-86350713D01*
X180715451Y-86346924D01*
X180726168Y-86334509D01*
X180846040Y-86195634D01*
X180846040Y-86195633D01*
X180850064Y-86190972D01*
X180861950Y-86170050D01*
X180888595Y-86123146D01*
X180951823Y-86011844D01*
X181016851Y-85816363D01*
X181042671Y-85611974D01*
X181043083Y-85582500D01*
X181022980Y-85377470D01*
X180963435Y-85180249D01*
X180866718Y-84998349D01*
X180786539Y-84900040D01*
X180740406Y-84843475D01*
X180740403Y-84843472D01*
X180736511Y-84838700D01*
X180709698Y-84816518D01*
X180582525Y-84711311D01*
X180582521Y-84711309D01*
X180577775Y-84707382D01*
X180396555Y-84609397D01*
X180199754Y-84548477D01*
X180193629Y-84547833D01*
X180193628Y-84547833D01*
X180000998Y-84527587D01*
X180000996Y-84527587D01*
X179994869Y-84526943D01*
X179933257Y-84532550D01*
X179795842Y-84545055D01*
X179795839Y-84545056D01*
X179789703Y-84545614D01*
X179592072Y-84603780D01*
X179586607Y-84606637D01*
X179542857Y-84629509D01*
X179409502Y-84699226D01*
X179404701Y-84703086D01*
X179404698Y-84703088D01*
X179255917Y-84822711D01*
X179248947Y-84828315D01*
X179116524Y-84986130D01*
X179113556Y-84991528D01*
X179113553Y-84991533D01*
X179035256Y-85133957D01*
X179017276Y-85166662D01*
X178954984Y-85363032D01*
X178954298Y-85369149D01*
X178954297Y-85369153D01*
X178937774Y-85516461D01*
X178932020Y-85567762D01*
X159998630Y-85567762D01*
X160078050Y-85488342D01*
X160135646Y-85375304D01*
X160138302Y-85358539D01*
X160153941Y-85259793D01*
X160155492Y-85250000D01*
X160135646Y-85124696D01*
X160091217Y-85037500D01*
X167257008Y-85037500D01*
X167258559Y-85047293D01*
X167274887Y-85150382D01*
X167276854Y-85162804D01*
X167334450Y-85275842D01*
X167424158Y-85365550D01*
X167537196Y-85423146D01*
X167546985Y-85424696D01*
X167546987Y-85424697D01*
X167652707Y-85441441D01*
X167662500Y-85442992D01*
X167672293Y-85441441D01*
X167778013Y-85424697D01*
X167778015Y-85424696D01*
X167787804Y-85423146D01*
X167900842Y-85365550D01*
X167990550Y-85275842D01*
X167995051Y-85267009D01*
X168000883Y-85258982D01*
X168002585Y-85260219D01*
X168042485Y-85217971D01*
X168111400Y-85200904D01*
X168178601Y-85223804D01*
X168210238Y-85260313D01*
X168211382Y-85259482D01*
X168217214Y-85267509D01*
X168221715Y-85276342D01*
X168311423Y-85366050D01*
X168424461Y-85423646D01*
X168434250Y-85425196D01*
X168434252Y-85425197D01*
X168539972Y-85441941D01*
X168549765Y-85443492D01*
X168559558Y-85441941D01*
X168665278Y-85425197D01*
X168665280Y-85425196D01*
X168675069Y-85423646D01*
X168788107Y-85366050D01*
X168877815Y-85276342D01*
X168935411Y-85163304D01*
X168939176Y-85139537D01*
X168953706Y-85047793D01*
X168955257Y-85038000D01*
X168950761Y-85009613D01*
X168936962Y-84922487D01*
X168936961Y-84922485D01*
X168935411Y-84912696D01*
X168877815Y-84799658D01*
X168788107Y-84709950D01*
X168675069Y-84652354D01*
X168665280Y-84650804D01*
X168665278Y-84650803D01*
X168559558Y-84634059D01*
X168549765Y-84632508D01*
X168539972Y-84634059D01*
X168434252Y-84650803D01*
X168434250Y-84650804D01*
X168424461Y-84652354D01*
X168311423Y-84709950D01*
X168221715Y-84799658D01*
X168217215Y-84808490D01*
X168211382Y-84816518D01*
X168209680Y-84815281D01*
X168169780Y-84857529D01*
X168100865Y-84874596D01*
X168033664Y-84851696D01*
X168002027Y-84815187D01*
X168000883Y-84816018D01*
X167995050Y-84807990D01*
X167990550Y-84799158D01*
X167900842Y-84709450D01*
X167787804Y-84651854D01*
X167778015Y-84650304D01*
X167778013Y-84650303D01*
X167672293Y-84633559D01*
X167662500Y-84632008D01*
X167652707Y-84633559D01*
X167546987Y-84650303D01*
X167546985Y-84650304D01*
X167537196Y-84651854D01*
X167424158Y-84709450D01*
X167334450Y-84799158D01*
X167276854Y-84912196D01*
X167275304Y-84921985D01*
X167275303Y-84921987D01*
X167265893Y-84981403D01*
X167257008Y-85037500D01*
X160091217Y-85037500D01*
X160078050Y-85011658D01*
X159988342Y-84921950D01*
X159875304Y-84864354D01*
X159865515Y-84862804D01*
X159865513Y-84862803D01*
X159759793Y-84846059D01*
X159750000Y-84844508D01*
X159740207Y-84846059D01*
X159634487Y-84862803D01*
X159634485Y-84862804D01*
X159624696Y-84864354D01*
X159511658Y-84921950D01*
X159421950Y-85011658D01*
X159364354Y-85124696D01*
X159344508Y-85250000D01*
X156308852Y-85250000D01*
X156288884Y-85239826D01*
X156279095Y-85238276D01*
X156279093Y-85238275D01*
X156173373Y-85221531D01*
X156163580Y-85219980D01*
X156153787Y-85221531D01*
X156048067Y-85238275D01*
X156048065Y-85238276D01*
X156038276Y-85239826D01*
X155925238Y-85297422D01*
X155835530Y-85387130D01*
X155777934Y-85500168D01*
X155776384Y-85509957D01*
X155776383Y-85509959D01*
X155759849Y-85614354D01*
X155758088Y-85625472D01*
X155403958Y-85625472D01*
X155390550Y-85599158D01*
X155300842Y-85509450D01*
X155187804Y-85451854D01*
X155178015Y-85450304D01*
X155178013Y-85450303D01*
X155072293Y-85433559D01*
X155062500Y-85432008D01*
X155052707Y-85433559D01*
X154946987Y-85450303D01*
X154946985Y-85450304D01*
X154937196Y-85451854D01*
X154824158Y-85509450D01*
X154734450Y-85599158D01*
X154676854Y-85712196D01*
X154675304Y-85721985D01*
X154675303Y-85721987D01*
X154662336Y-85803862D01*
X154657008Y-85837500D01*
X150852154Y-85837500D01*
X150855310Y-85817575D01*
X150866441Y-85747293D01*
X150867992Y-85737500D01*
X150861975Y-85699508D01*
X150849697Y-85621987D01*
X150849696Y-85621985D01*
X150848146Y-85612196D01*
X150790550Y-85499158D01*
X150700842Y-85409450D01*
X150587804Y-85351854D01*
X150578015Y-85350304D01*
X150578013Y-85350303D01*
X150472293Y-85333559D01*
X150462500Y-85332008D01*
X150452707Y-85333559D01*
X150346987Y-85350303D01*
X150346985Y-85350304D01*
X150337196Y-85351854D01*
X150224158Y-85409450D01*
X150134450Y-85499158D01*
X150076854Y-85612196D01*
X150075304Y-85621985D01*
X150075303Y-85621987D01*
X150063025Y-85699508D01*
X150057008Y-85737500D01*
X140143374Y-85737500D01*
X140185722Y-85715839D01*
X140185725Y-85715837D01*
X140192028Y-85712613D01*
X140246457Y-85667028D01*
X140285497Y-85623474D01*
X140469411Y-85347603D01*
X140605313Y-85143750D01*
X148463258Y-85143750D01*
X148464809Y-85153543D01*
X148481509Y-85258982D01*
X148483104Y-85269054D01*
X148540700Y-85382092D01*
X148630408Y-85471800D01*
X148743446Y-85529396D01*
X148753235Y-85530946D01*
X148753237Y-85530947D01*
X148858957Y-85547691D01*
X148868750Y-85549242D01*
X148878543Y-85547691D01*
X148984263Y-85530947D01*
X148984265Y-85530946D01*
X148994054Y-85529396D01*
X149107092Y-85471800D01*
X149196800Y-85382092D01*
X149254396Y-85269054D01*
X149255992Y-85258982D01*
X149272691Y-85153543D01*
X149274242Y-85143750D01*
X149262569Y-85070050D01*
X149255947Y-85028237D01*
X149255946Y-85028235D01*
X149254396Y-85018446D01*
X149196800Y-84905408D01*
X149107092Y-84815700D01*
X148994054Y-84758104D01*
X148984265Y-84756554D01*
X148984263Y-84756553D01*
X148878543Y-84739809D01*
X148868750Y-84738258D01*
X148858957Y-84739809D01*
X148753237Y-84756553D01*
X148753235Y-84756554D01*
X148743446Y-84758104D01*
X148630408Y-84815700D01*
X148540700Y-84905408D01*
X148483104Y-85018446D01*
X148481554Y-85028235D01*
X148481553Y-85028237D01*
X148474931Y-85070050D01*
X148463258Y-85143750D01*
X140605313Y-85143750D01*
X140761686Y-84909192D01*
X140761711Y-84909154D01*
X140762112Y-84908552D01*
X140767491Y-84900040D01*
X140773821Y-84889456D01*
X140778776Y-84880690D01*
X140813271Y-84816018D01*
X140861414Y-84725758D01*
X140861416Y-84725754D01*
X140862135Y-84724406D01*
X140863725Y-84721039D01*
X140870072Y-84707590D01*
X140870727Y-84706203D01*
X140872466Y-84701996D01*
X140879563Y-84684830D01*
X140879567Y-84684819D01*
X140880146Y-84683419D01*
X140886916Y-84664461D01*
X140903372Y-84610111D01*
X140935997Y-84502362D01*
X140936000Y-84502350D01*
X140936446Y-84500878D01*
X140936877Y-84499158D01*
X140940949Y-84482868D01*
X140941330Y-84481346D01*
X140946132Y-84457160D01*
X140949080Y-84437247D01*
X140952742Y-84400000D01*
X145694508Y-84400000D01*
X145696059Y-84409793D01*
X145709103Y-84492147D01*
X145714354Y-84525304D01*
X145771950Y-84638342D01*
X145861658Y-84728050D01*
X145974696Y-84785646D01*
X145984485Y-84787196D01*
X145984487Y-84787197D01*
X146090207Y-84803941D01*
X146100000Y-84805492D01*
X146109793Y-84803941D01*
X146215513Y-84787197D01*
X146215515Y-84787196D01*
X146225304Y-84785646D01*
X146319795Y-84737500D01*
X154157008Y-84737500D01*
X154158559Y-84747293D01*
X154175095Y-84851696D01*
X154176854Y-84862804D01*
X154234450Y-84975842D01*
X154324158Y-85065550D01*
X154437196Y-85123146D01*
X154446985Y-85124696D01*
X154446987Y-85124697D01*
X154552707Y-85141441D01*
X154562500Y-85142992D01*
X154572293Y-85141441D01*
X154678013Y-85124697D01*
X154678015Y-85124696D01*
X154687804Y-85123146D01*
X154800842Y-85065550D01*
X154890550Y-84975842D01*
X154948146Y-84862804D01*
X154949906Y-84851696D01*
X154966441Y-84747293D01*
X154967992Y-84737500D01*
X154966111Y-84725624D01*
X156745132Y-84725624D01*
X156746683Y-84735417D01*
X156759223Y-84814590D01*
X156764978Y-84850928D01*
X156822574Y-84963966D01*
X156912282Y-85053674D01*
X157025320Y-85111270D01*
X157035109Y-85112820D01*
X157035111Y-85112821D01*
X157140831Y-85129565D01*
X157150624Y-85131116D01*
X157160417Y-85129565D01*
X157266137Y-85112821D01*
X157266139Y-85112820D01*
X157275928Y-85111270D01*
X157388966Y-85053674D01*
X157478674Y-84963966D01*
X157536270Y-84850928D01*
X157542026Y-84814590D01*
X157554565Y-84735417D01*
X157556116Y-84725624D01*
X157549476Y-84683701D01*
X157537821Y-84610111D01*
X157537820Y-84610109D01*
X157536270Y-84600320D01*
X157478674Y-84487282D01*
X157388966Y-84397574D01*
X157275928Y-84339978D01*
X157266139Y-84338428D01*
X157266137Y-84338427D01*
X157160417Y-84321683D01*
X157150624Y-84320132D01*
X157140831Y-84321683D01*
X157035111Y-84338427D01*
X157035109Y-84338428D01*
X157025320Y-84339978D01*
X156912282Y-84397574D01*
X156822574Y-84487282D01*
X156764978Y-84600320D01*
X156763428Y-84610109D01*
X156763427Y-84610111D01*
X156751772Y-84683701D01*
X156745132Y-84725624D01*
X154966111Y-84725624D01*
X154962758Y-84704451D01*
X154949697Y-84621987D01*
X154949696Y-84621985D01*
X154948146Y-84612196D01*
X154890550Y-84499158D01*
X154800842Y-84409450D01*
X154687804Y-84351854D01*
X154678015Y-84350304D01*
X154678013Y-84350303D01*
X154572293Y-84333559D01*
X154562500Y-84332008D01*
X154552707Y-84333559D01*
X154446987Y-84350303D01*
X154446985Y-84350304D01*
X154437196Y-84351854D01*
X154324158Y-84409450D01*
X154234450Y-84499158D01*
X154176854Y-84612196D01*
X154175304Y-84621985D01*
X154175303Y-84621987D01*
X154162242Y-84704451D01*
X154157008Y-84737500D01*
X146319795Y-84737500D01*
X146338342Y-84728050D01*
X146428050Y-84638342D01*
X146485646Y-84525304D01*
X146490898Y-84492147D01*
X146503941Y-84409793D01*
X146505492Y-84400000D01*
X146496924Y-84345901D01*
X146487197Y-84284487D01*
X146487196Y-84284485D01*
X146485646Y-84274696D01*
X146447586Y-84200000D01*
X159994508Y-84200000D01*
X159996059Y-84209793D01*
X160010638Y-84301839D01*
X160014354Y-84325304D01*
X160071950Y-84438342D01*
X160161658Y-84528050D01*
X160274696Y-84585646D01*
X160284485Y-84587196D01*
X160284487Y-84587197D01*
X160390207Y-84603941D01*
X160400000Y-84605492D01*
X160409793Y-84603941D01*
X160515513Y-84587197D01*
X160515515Y-84587196D01*
X160525304Y-84585646D01*
X160638342Y-84528050D01*
X160728050Y-84438342D01*
X160747586Y-84400000D01*
X161294508Y-84400000D01*
X161296059Y-84409793D01*
X161309103Y-84492147D01*
X161314354Y-84525304D01*
X161371950Y-84638342D01*
X161461658Y-84728050D01*
X161574696Y-84785646D01*
X161584485Y-84787196D01*
X161584487Y-84787197D01*
X161690207Y-84803941D01*
X161700000Y-84805492D01*
X161709793Y-84803941D01*
X161815513Y-84787197D01*
X161815515Y-84787196D01*
X161825304Y-84785646D01*
X161938342Y-84728050D01*
X162028050Y-84638342D01*
X162085646Y-84525304D01*
X162090898Y-84492147D01*
X162103941Y-84409793D01*
X162105492Y-84400000D01*
X162096924Y-84345901D01*
X162087197Y-84284487D01*
X162087196Y-84284485D01*
X162085646Y-84274696D01*
X162063070Y-84230388D01*
X162809425Y-84230388D01*
X162810976Y-84240181D01*
X162826537Y-84338427D01*
X162829271Y-84355692D01*
X162886867Y-84468730D01*
X162976575Y-84558438D01*
X163089613Y-84616034D01*
X163099402Y-84617584D01*
X163099404Y-84617585D01*
X163205124Y-84634329D01*
X163214917Y-84635880D01*
X163218172Y-84635365D01*
X163282766Y-84654331D01*
X163328809Y-84707467D01*
X163329271Y-84710387D01*
X163333177Y-84718053D01*
X163333179Y-84718058D01*
X163352794Y-84756553D01*
X163386867Y-84823425D01*
X163476575Y-84913133D01*
X163589613Y-84970729D01*
X163599402Y-84972279D01*
X163599404Y-84972280D01*
X163705124Y-84989024D01*
X163714917Y-84990575D01*
X163724710Y-84989024D01*
X163830430Y-84972280D01*
X163830432Y-84972279D01*
X163840221Y-84970729D01*
X163953259Y-84913133D01*
X164042967Y-84823425D01*
X164050577Y-84808491D01*
X164073044Y-84764396D01*
X164121792Y-84712780D01*
X164190707Y-84695714D01*
X164205017Y-84697149D01*
X164245416Y-84703547D01*
X164255209Y-84701996D01*
X164360929Y-84685252D01*
X164360931Y-84685251D01*
X164370720Y-84683701D01*
X164483758Y-84626105D01*
X164573466Y-84536397D01*
X164631062Y-84423359D01*
X164634036Y-84404585D01*
X164644661Y-84337500D01*
X165057008Y-84337500D01*
X165058559Y-84347293D01*
X165073046Y-84438758D01*
X165076854Y-84462804D01*
X165134450Y-84575842D01*
X165224158Y-84665550D01*
X165337196Y-84723146D01*
X165346985Y-84724696D01*
X165346987Y-84724697D01*
X165452707Y-84741441D01*
X165462500Y-84742992D01*
X165472293Y-84741441D01*
X165578013Y-84724697D01*
X165578015Y-84724696D01*
X165587804Y-84723146D01*
X165700842Y-84665550D01*
X165790550Y-84575842D01*
X165848146Y-84462804D01*
X165851955Y-84438758D01*
X165866441Y-84347293D01*
X165867992Y-84337500D01*
X165864510Y-84315513D01*
X165849697Y-84221987D01*
X165849696Y-84221985D01*
X165848146Y-84212196D01*
X165790550Y-84099158D01*
X165700842Y-84009450D01*
X165587804Y-83951854D01*
X165578015Y-83950304D01*
X165578013Y-83950303D01*
X165472293Y-83933559D01*
X165462500Y-83932008D01*
X165452707Y-83933559D01*
X165346987Y-83950303D01*
X165346985Y-83950304D01*
X165337196Y-83951854D01*
X165224158Y-84009450D01*
X165134450Y-84099158D01*
X165076854Y-84212196D01*
X165075304Y-84221985D01*
X165075303Y-84221987D01*
X165060490Y-84315513D01*
X165057008Y-84337500D01*
X164644661Y-84337500D01*
X164649357Y-84307848D01*
X164650908Y-84298055D01*
X164641742Y-84240181D01*
X164632613Y-84182542D01*
X164632612Y-84182540D01*
X164631062Y-84172751D01*
X164573466Y-84059713D01*
X164483758Y-83970005D01*
X164386980Y-83920694D01*
X167355081Y-83920694D01*
X167356632Y-83930487D01*
X167368426Y-84004950D01*
X167374927Y-84045998D01*
X167432523Y-84159036D01*
X167522231Y-84248744D01*
X167635269Y-84306340D01*
X167645058Y-84307890D01*
X167645060Y-84307891D01*
X167750780Y-84324635D01*
X167760573Y-84326186D01*
X167770366Y-84324635D01*
X167876086Y-84307891D01*
X167876088Y-84307890D01*
X167885877Y-84306340D01*
X167998915Y-84248744D01*
X168088623Y-84159036D01*
X168146219Y-84045998D01*
X168152721Y-84004950D01*
X168164514Y-83930487D01*
X168166065Y-83920694D01*
X168157632Y-83867450D01*
X168152889Y-83837500D01*
X173557008Y-83837500D01*
X173558559Y-83847293D01*
X173575120Y-83951854D01*
X173576854Y-83962804D01*
X173634450Y-84075842D01*
X173724158Y-84165550D01*
X173837196Y-84223146D01*
X173846985Y-84224696D01*
X173846987Y-84224697D01*
X173952707Y-84241441D01*
X173962500Y-84242992D01*
X173972293Y-84241441D01*
X174078013Y-84224697D01*
X174078015Y-84224696D01*
X174087804Y-84223146D01*
X174200842Y-84165550D01*
X174290550Y-84075842D01*
X174348146Y-83962804D01*
X174349881Y-83951854D01*
X174366441Y-83847293D01*
X174367992Y-83837500D01*
X174361563Y-83796908D01*
X174349697Y-83721987D01*
X174349696Y-83721985D01*
X174348146Y-83712196D01*
X174290550Y-83599158D01*
X174200842Y-83509450D01*
X174087804Y-83451854D01*
X174078015Y-83450304D01*
X174078013Y-83450303D01*
X173972293Y-83433559D01*
X173962500Y-83432008D01*
X173952707Y-83433559D01*
X173846987Y-83450303D01*
X173846985Y-83450304D01*
X173837196Y-83451854D01*
X173724158Y-83509450D01*
X173634450Y-83599158D01*
X173576854Y-83712196D01*
X173575304Y-83721985D01*
X173575303Y-83721987D01*
X173563437Y-83796908D01*
X173557008Y-83837500D01*
X168152889Y-83837500D01*
X168147770Y-83805181D01*
X168147769Y-83805179D01*
X168146219Y-83795390D01*
X168088623Y-83682352D01*
X167998915Y-83592644D01*
X167885877Y-83535048D01*
X167876088Y-83533498D01*
X167876086Y-83533497D01*
X167770366Y-83516753D01*
X167760573Y-83515202D01*
X167750780Y-83516753D01*
X167645060Y-83533497D01*
X167645058Y-83533498D01*
X167635269Y-83535048D01*
X167522231Y-83592644D01*
X167432523Y-83682352D01*
X167374927Y-83795390D01*
X167373377Y-83805179D01*
X167373376Y-83805181D01*
X167363514Y-83867450D01*
X167355081Y-83920694D01*
X164386980Y-83920694D01*
X164370720Y-83912409D01*
X164360931Y-83910859D01*
X164360929Y-83910858D01*
X164255209Y-83894114D01*
X164245416Y-83892563D01*
X164235623Y-83894114D01*
X164129903Y-83910858D01*
X164129901Y-83910859D01*
X164120112Y-83912409D01*
X164007074Y-83970005D01*
X163917366Y-84059713D01*
X163912865Y-84068546D01*
X163912864Y-84068548D01*
X163887289Y-84118742D01*
X163838541Y-84170358D01*
X163769626Y-84187424D01*
X163755316Y-84185989D01*
X163714917Y-84179591D01*
X163711662Y-84180106D01*
X163647068Y-84161140D01*
X163601025Y-84108004D01*
X163600563Y-84105084D01*
X163596657Y-84097418D01*
X163596655Y-84097413D01*
X163555407Y-84016461D01*
X163542967Y-83992046D01*
X163453259Y-83902338D01*
X163340221Y-83844742D01*
X163330432Y-83843192D01*
X163330430Y-83843191D01*
X163224710Y-83826447D01*
X163214917Y-83824896D01*
X163205124Y-83826447D01*
X163099404Y-83843191D01*
X163099402Y-83843192D01*
X163089613Y-83844742D01*
X162976575Y-83902338D01*
X162886867Y-83992046D01*
X162829271Y-84105084D01*
X162827721Y-84114873D01*
X162827720Y-84114875D01*
X162818933Y-84170358D01*
X162809425Y-84230388D01*
X162063070Y-84230388D01*
X162028050Y-84161658D01*
X161938342Y-84071950D01*
X161825304Y-84014354D01*
X161815515Y-84012804D01*
X161815513Y-84012803D01*
X161709793Y-83996059D01*
X161700000Y-83994508D01*
X161690207Y-83996059D01*
X161584487Y-84012803D01*
X161584485Y-84012804D01*
X161574696Y-84014354D01*
X161461658Y-84071950D01*
X161371950Y-84161658D01*
X161314354Y-84274696D01*
X161312804Y-84284485D01*
X161312803Y-84284487D01*
X161303076Y-84345901D01*
X161294508Y-84400000D01*
X160747586Y-84400000D01*
X160785646Y-84325304D01*
X160789363Y-84301839D01*
X160803941Y-84209793D01*
X160805492Y-84200000D01*
X160800797Y-84170358D01*
X160787197Y-84084487D01*
X160787196Y-84084485D01*
X160785646Y-84074696D01*
X160728050Y-83961658D01*
X160638342Y-83871950D01*
X160525304Y-83814354D01*
X160515515Y-83812804D01*
X160515513Y-83812803D01*
X160409793Y-83796059D01*
X160400000Y-83794508D01*
X160390207Y-83796059D01*
X160284487Y-83812803D01*
X160284485Y-83812804D01*
X160274696Y-83814354D01*
X160161658Y-83871950D01*
X160071950Y-83961658D01*
X160014354Y-84074696D01*
X160012804Y-84084485D01*
X160012803Y-84084487D01*
X159999203Y-84170358D01*
X159994508Y-84200000D01*
X146447586Y-84200000D01*
X146428050Y-84161658D01*
X146338342Y-84071950D01*
X146225304Y-84014354D01*
X146215515Y-84012804D01*
X146215513Y-84012803D01*
X146109793Y-83996059D01*
X146100000Y-83994508D01*
X146090207Y-83996059D01*
X145984487Y-84012803D01*
X145984485Y-84012804D01*
X145974696Y-84014354D01*
X145861658Y-84071950D01*
X145771950Y-84161658D01*
X145714354Y-84274696D01*
X145712804Y-84284485D01*
X145712803Y-84284487D01*
X145703076Y-84345901D01*
X145694508Y-84400000D01*
X140952742Y-84400000D01*
X140958643Y-84339978D01*
X140966333Y-84261762D01*
X140966336Y-84261730D01*
X140966409Y-84260985D01*
X140967148Y-84250951D01*
X140967753Y-84238623D01*
X140968000Y-84228550D01*
X140968000Y-83967992D01*
X140968607Y-83955642D01*
X140979530Y-83844742D01*
X140983024Y-83809260D01*
X140987843Y-83785036D01*
X141025795Y-83659927D01*
X141035247Y-83637107D01*
X141096875Y-83521808D01*
X141110598Y-83501270D01*
X141203921Y-83387556D01*
X141212225Y-83378395D01*
X141773372Y-82817248D01*
X156824190Y-82817248D01*
X156825741Y-82827041D01*
X156836427Y-82894508D01*
X156844036Y-82942552D01*
X156901632Y-83055590D01*
X156991340Y-83145298D01*
X157104378Y-83202894D01*
X157114167Y-83204444D01*
X157114169Y-83204445D01*
X157219889Y-83221189D01*
X157229682Y-83222740D01*
X157239475Y-83221189D01*
X157345195Y-83204445D01*
X157345197Y-83204444D01*
X157354986Y-83202894D01*
X157468024Y-83145298D01*
X157513322Y-83100000D01*
X159794508Y-83100000D01*
X159796059Y-83109793D01*
X159812238Y-83211941D01*
X159814354Y-83225304D01*
X159871950Y-83338342D01*
X159961658Y-83428050D01*
X160074696Y-83485646D01*
X160084485Y-83487196D01*
X160084487Y-83487197D01*
X160190207Y-83503941D01*
X160200000Y-83505492D01*
X160209793Y-83503941D01*
X160315513Y-83487197D01*
X160315515Y-83487196D01*
X160325304Y-83485646D01*
X160438342Y-83428050D01*
X160528050Y-83338342D01*
X160547586Y-83300000D01*
X164594508Y-83300000D01*
X164596059Y-83309793D01*
X164610754Y-83402572D01*
X164614354Y-83425304D01*
X164671950Y-83538342D01*
X164761658Y-83628050D01*
X164874696Y-83685646D01*
X164884485Y-83687196D01*
X164884487Y-83687197D01*
X164990207Y-83703941D01*
X165000000Y-83705492D01*
X165009793Y-83703941D01*
X165115513Y-83687197D01*
X165115515Y-83687196D01*
X165125304Y-83685646D01*
X165238342Y-83628050D01*
X165328050Y-83538342D01*
X165385646Y-83425304D01*
X165389247Y-83402572D01*
X165403941Y-83309793D01*
X165405492Y-83300000D01*
X165395827Y-83238978D01*
X165387197Y-83184487D01*
X165387196Y-83184485D01*
X165385646Y-83174696D01*
X165328050Y-83061658D01*
X165248824Y-82982432D01*
X171399008Y-82982432D01*
X171400559Y-82992225D01*
X171416078Y-83090207D01*
X171418854Y-83107736D01*
X171476450Y-83220774D01*
X171566158Y-83310482D01*
X171679196Y-83368078D01*
X171688985Y-83369628D01*
X171688987Y-83369629D01*
X171794707Y-83386373D01*
X171804500Y-83387924D01*
X171814293Y-83386373D01*
X171920013Y-83369629D01*
X171920015Y-83369628D01*
X171929804Y-83368078D01*
X172042842Y-83310482D01*
X172132550Y-83220774D01*
X172190146Y-83107736D01*
X172192923Y-83090207D01*
X172202813Y-83027762D01*
X178932020Y-83027762D01*
X178932536Y-83033906D01*
X178946857Y-83204445D01*
X178949259Y-83233053D01*
X178950958Y-83238978D01*
X179001579Y-83415513D01*
X179006044Y-83431086D01*
X179008859Y-83436563D01*
X179008860Y-83436566D01*
X179089073Y-83592644D01*
X179100212Y-83614318D01*
X179228177Y-83775770D01*
X179232870Y-83779764D01*
X179232871Y-83779765D01*
X179365409Y-83892563D01*
X179385064Y-83909291D01*
X179390442Y-83912297D01*
X179390444Y-83912298D01*
X179425711Y-83932008D01*
X179564898Y-84009797D01*
X179659738Y-84040613D01*
X179754971Y-84071556D01*
X179754975Y-84071557D01*
X179760829Y-84073459D01*
X179965394Y-84097851D01*
X179971529Y-84097379D01*
X179971531Y-84097379D01*
X180027539Y-84093069D01*
X180170800Y-84082046D01*
X180176730Y-84080390D01*
X180176732Y-84080390D01*
X180300604Y-84045804D01*
X180369225Y-84026645D01*
X180374714Y-84023872D01*
X180374720Y-84023870D01*
X180511757Y-83954647D01*
X180553110Y-83933758D01*
X180605838Y-83892563D01*
X180688850Y-83827707D01*
X180715451Y-83806924D01*
X180724830Y-83796059D01*
X180846040Y-83655634D01*
X180846040Y-83655633D01*
X180850064Y-83650972D01*
X180857941Y-83637107D01*
X180916799Y-83533497D01*
X180951823Y-83471844D01*
X181016851Y-83276363D01*
X181042671Y-83071974D01*
X181042913Y-83054647D01*
X181043034Y-83046022D01*
X181043034Y-83046018D01*
X181043083Y-83042500D01*
X181041638Y-83027762D01*
X181472020Y-83027762D01*
X181472536Y-83033906D01*
X181486857Y-83204445D01*
X181489259Y-83233053D01*
X181490958Y-83238978D01*
X181541579Y-83415513D01*
X181546044Y-83431086D01*
X181548859Y-83436563D01*
X181548860Y-83436566D01*
X181629073Y-83592644D01*
X181640212Y-83614318D01*
X181768177Y-83775770D01*
X181772870Y-83779764D01*
X181772871Y-83779765D01*
X181905409Y-83892563D01*
X181925064Y-83909291D01*
X181930442Y-83912297D01*
X181930444Y-83912298D01*
X181965711Y-83932008D01*
X182104898Y-84009797D01*
X182199738Y-84040613D01*
X182294971Y-84071556D01*
X182294975Y-84071557D01*
X182300829Y-84073459D01*
X182505394Y-84097851D01*
X182511529Y-84097379D01*
X182511531Y-84097379D01*
X182567539Y-84093069D01*
X182710800Y-84082046D01*
X182716730Y-84080390D01*
X182716732Y-84080390D01*
X182840604Y-84045804D01*
X182909225Y-84026645D01*
X182914714Y-84023872D01*
X182914720Y-84023870D01*
X183051757Y-83954647D01*
X183093110Y-83933758D01*
X183145838Y-83892563D01*
X183228850Y-83827707D01*
X183255451Y-83806924D01*
X183264830Y-83796059D01*
X183386040Y-83655634D01*
X183386040Y-83655633D01*
X183390064Y-83650972D01*
X183397941Y-83637107D01*
X183456799Y-83533497D01*
X183491823Y-83471844D01*
X183556851Y-83276363D01*
X183582671Y-83071974D01*
X183582913Y-83054647D01*
X183583034Y-83046022D01*
X183583034Y-83046018D01*
X183583083Y-83042500D01*
X183562980Y-82837470D01*
X183503435Y-82640249D01*
X183406718Y-82458349D01*
X183281156Y-82304395D01*
X183280406Y-82303475D01*
X183280403Y-82303472D01*
X183276511Y-82298700D01*
X183269673Y-82293043D01*
X183122525Y-82171311D01*
X183122521Y-82171309D01*
X183117775Y-82167382D01*
X182936555Y-82069397D01*
X182739754Y-82008477D01*
X182733629Y-82007833D01*
X182733628Y-82007833D01*
X182540998Y-81987587D01*
X182540996Y-81987587D01*
X182534869Y-81986943D01*
X182448029Y-81994846D01*
X182335842Y-82005055D01*
X182335839Y-82005056D01*
X182329703Y-82005614D01*
X182132072Y-82063780D01*
X181949502Y-82159226D01*
X181944701Y-82163086D01*
X181944698Y-82163088D01*
X181810312Y-82271137D01*
X181788947Y-82288315D01*
X181656524Y-82446130D01*
X181653556Y-82451528D01*
X181653553Y-82451533D01*
X181603274Y-82542992D01*
X181557276Y-82626662D01*
X181494984Y-82823032D01*
X181494298Y-82829149D01*
X181494297Y-82829153D01*
X181477039Y-82983014D01*
X181472020Y-83027762D01*
X181041638Y-83027762D01*
X181022980Y-82837470D01*
X180963435Y-82640249D01*
X180866718Y-82458349D01*
X180741156Y-82304395D01*
X180740406Y-82303475D01*
X180740403Y-82303472D01*
X180736511Y-82298700D01*
X180729673Y-82293043D01*
X180582525Y-82171311D01*
X180582521Y-82171309D01*
X180577775Y-82167382D01*
X180396555Y-82069397D01*
X180199754Y-82008477D01*
X180193629Y-82007833D01*
X180193628Y-82007833D01*
X180000998Y-81987587D01*
X180000996Y-81987587D01*
X179994869Y-81986943D01*
X179908029Y-81994846D01*
X179795842Y-82005055D01*
X179795839Y-82005056D01*
X179789703Y-82005614D01*
X179592072Y-82063780D01*
X179409502Y-82159226D01*
X179404701Y-82163086D01*
X179404698Y-82163088D01*
X179270312Y-82271137D01*
X179248947Y-82288315D01*
X179116524Y-82446130D01*
X179113556Y-82451528D01*
X179113553Y-82451533D01*
X179063274Y-82542992D01*
X179017276Y-82626662D01*
X178954984Y-82823032D01*
X178954298Y-82829149D01*
X178954297Y-82829153D01*
X178937039Y-82983014D01*
X178932020Y-83027762D01*
X172202813Y-83027762D01*
X172208441Y-82992225D01*
X172209992Y-82982432D01*
X172202125Y-82932761D01*
X172191697Y-82866919D01*
X172191696Y-82866917D01*
X172190146Y-82857128D01*
X172132550Y-82744090D01*
X172042842Y-82654382D01*
X171929804Y-82596786D01*
X171920015Y-82595236D01*
X171920013Y-82595235D01*
X171814293Y-82578491D01*
X171804500Y-82576940D01*
X171794707Y-82578491D01*
X171688987Y-82595235D01*
X171688985Y-82595236D01*
X171679196Y-82596786D01*
X171566158Y-82654382D01*
X171476450Y-82744090D01*
X171418854Y-82857128D01*
X171417304Y-82866917D01*
X171417303Y-82866919D01*
X171406875Y-82932761D01*
X171399008Y-82982432D01*
X165248824Y-82982432D01*
X165238342Y-82971950D01*
X165125304Y-82914354D01*
X165115515Y-82912804D01*
X165115513Y-82912803D01*
X165009793Y-82896059D01*
X165000000Y-82894508D01*
X164990207Y-82896059D01*
X164884487Y-82912803D01*
X164884485Y-82912804D01*
X164874696Y-82914354D01*
X164761658Y-82971950D01*
X164671950Y-83061658D01*
X164614354Y-83174696D01*
X164612804Y-83184485D01*
X164612803Y-83184487D01*
X164604173Y-83238978D01*
X164594508Y-83300000D01*
X160547586Y-83300000D01*
X160585646Y-83225304D01*
X160587763Y-83211941D01*
X160603941Y-83109793D01*
X160605492Y-83100000D01*
X160593081Y-83021637D01*
X160587197Y-82984487D01*
X160587196Y-82984485D01*
X160585646Y-82974696D01*
X160528050Y-82861658D01*
X160438342Y-82771950D01*
X160325304Y-82714354D01*
X160315515Y-82712804D01*
X160315513Y-82712803D01*
X160209793Y-82696059D01*
X160200000Y-82694508D01*
X160190207Y-82696059D01*
X160084487Y-82712803D01*
X160084485Y-82712804D01*
X160074696Y-82714354D01*
X159961658Y-82771950D01*
X159871950Y-82861658D01*
X159814354Y-82974696D01*
X159812804Y-82984485D01*
X159812803Y-82984487D01*
X159806919Y-83021637D01*
X159794508Y-83100000D01*
X157513322Y-83100000D01*
X157557732Y-83055590D01*
X157615328Y-82942552D01*
X157622938Y-82894508D01*
X157633623Y-82827041D01*
X157635174Y-82817248D01*
X157619590Y-82718855D01*
X157616879Y-82701735D01*
X157616878Y-82701733D01*
X157615328Y-82691944D01*
X157557732Y-82578906D01*
X157468024Y-82489198D01*
X157354986Y-82431602D01*
X157345197Y-82430052D01*
X157345195Y-82430051D01*
X157239475Y-82413307D01*
X157229682Y-82411756D01*
X157219889Y-82413307D01*
X157114169Y-82430051D01*
X157114167Y-82430052D01*
X157104378Y-82431602D01*
X156991340Y-82489198D01*
X156901632Y-82578906D01*
X156844036Y-82691944D01*
X156842486Y-82701733D01*
X156842485Y-82701735D01*
X156839774Y-82718855D01*
X156824190Y-82817248D01*
X141773372Y-82817248D01*
X142103395Y-82487225D01*
X142112556Y-82478921D01*
X142226270Y-82385598D01*
X142246808Y-82371875D01*
X142362107Y-82310247D01*
X142384927Y-82300795D01*
X142510036Y-82262843D01*
X142534260Y-82258024D01*
X142680642Y-82243607D01*
X142692992Y-82243000D01*
X142749393Y-82243000D01*
X142751508Y-82242856D01*
X142751518Y-82242856D01*
X142775054Y-82241257D01*
X142775059Y-82241256D01*
X142777186Y-82241112D01*
X142779298Y-82240824D01*
X142779305Y-82240823D01*
X142790544Y-82239289D01*
X142810952Y-82236503D01*
X142817194Y-82234251D01*
X142817197Y-82234250D01*
X142885534Y-82209592D01*
X142891778Y-82207339D01*
X142944640Y-82174425D01*
X142950406Y-82170835D01*
X142950412Y-82170831D01*
X142952047Y-82169813D01*
X142972533Y-82155246D01*
X142978109Y-82148166D01*
X142978112Y-82148163D01*
X143004780Y-82114299D01*
X143029118Y-82083396D01*
X143059531Y-82019244D01*
X143066498Y-81996716D01*
X143074606Y-81976740D01*
X143093717Y-81939232D01*
X143116889Y-81907339D01*
X143132339Y-81891889D01*
X143164231Y-81868717D01*
X143168514Y-81866535D01*
X143183710Y-81858792D01*
X143221202Y-81846610D01*
X143242793Y-81843191D01*
X143282207Y-81843191D01*
X143303798Y-81846610D01*
X143341290Y-81858792D01*
X143356487Y-81866535D01*
X143360769Y-81868717D01*
X143392661Y-81891889D01*
X143408111Y-81907339D01*
X143431281Y-81939229D01*
X143445200Y-81966545D01*
X143454362Y-81990526D01*
X143454401Y-81990514D01*
X143464235Y-82023143D01*
X143505686Y-82098416D01*
X143552179Y-82152072D01*
X143569772Y-82170027D01*
X143649590Y-82214674D01*
X143681389Y-82224011D01*
X143713388Y-82233407D01*
X143713392Y-82233408D01*
X143717711Y-82234676D01*
X143722159Y-82235316D01*
X143722166Y-82235317D01*
X143771159Y-82242361D01*
X143771166Y-82242362D01*
X143775607Y-82243000D01*
X145256313Y-82243000D01*
X145266401Y-82242752D01*
X145267142Y-82242716D01*
X145267158Y-82242715D01*
X145277979Y-82242183D01*
X145277984Y-82242183D01*
X145278751Y-82242145D01*
X145279491Y-82242090D01*
X145279530Y-82242088D01*
X145287980Y-82241464D01*
X145287984Y-82241464D01*
X145288806Y-82241403D01*
X145465383Y-82224011D01*
X145485323Y-82221054D01*
X145509540Y-82216238D01*
X145511024Y-82215866D01*
X145511030Y-82215865D01*
X145527617Y-82211711D01*
X145527630Y-82211708D01*
X145529109Y-82211337D01*
X145650795Y-82174425D01*
X145691470Y-82162087D01*
X145691485Y-82162082D01*
X145692962Y-82161634D01*
X145694431Y-82161108D01*
X145694438Y-82161106D01*
X145710492Y-82155361D01*
X145710493Y-82155360D01*
X145711959Y-82154836D01*
X145728067Y-82148163D01*
X145733376Y-82145964D01*
X145733383Y-82145961D01*
X145734778Y-82145383D01*
X145752502Y-82137000D01*
X153257008Y-82137000D01*
X153258559Y-82146793D01*
X153274307Y-82246221D01*
X153276854Y-82262304D01*
X153334450Y-82375342D01*
X153424158Y-82465050D01*
X153537196Y-82522646D01*
X153546985Y-82524196D01*
X153546987Y-82524197D01*
X153652707Y-82540941D01*
X153662500Y-82542492D01*
X153672293Y-82540941D01*
X153778013Y-82524197D01*
X153778015Y-82524196D01*
X153787804Y-82522646D01*
X153900842Y-82465050D01*
X153990550Y-82375342D01*
X154048146Y-82262304D01*
X154050694Y-82246221D01*
X154066441Y-82146793D01*
X154067913Y-82137500D01*
X172669508Y-82137500D01*
X172671059Y-82147293D01*
X172686728Y-82246221D01*
X172689354Y-82262804D01*
X172746950Y-82375842D01*
X172836658Y-82465550D01*
X172949696Y-82523146D01*
X172959485Y-82524696D01*
X172959487Y-82524697D01*
X173065207Y-82541441D01*
X173075000Y-82542992D01*
X173084793Y-82541441D01*
X173190513Y-82524697D01*
X173190515Y-82524696D01*
X173200304Y-82523146D01*
X173313342Y-82465550D01*
X173403050Y-82375842D01*
X173460646Y-82262804D01*
X173463273Y-82246221D01*
X173478941Y-82147293D01*
X173480492Y-82137500D01*
X173473890Y-82095816D01*
X173462197Y-82021987D01*
X173462196Y-82021985D01*
X173460646Y-82012196D01*
X173403050Y-81899158D01*
X173313342Y-81809450D01*
X173200304Y-81751854D01*
X173190515Y-81750304D01*
X173190513Y-81750303D01*
X173084793Y-81733559D01*
X173075000Y-81732008D01*
X173065207Y-81733559D01*
X172959487Y-81750303D01*
X172959485Y-81750304D01*
X172949696Y-81751854D01*
X172836658Y-81809450D01*
X172746950Y-81899158D01*
X172689354Y-82012196D01*
X172687804Y-82021985D01*
X172687803Y-82021987D01*
X172676110Y-82095816D01*
X172669508Y-82137500D01*
X154067913Y-82137500D01*
X154067992Y-82137000D01*
X154052850Y-82041396D01*
X154049697Y-82021487D01*
X154049696Y-82021485D01*
X154048146Y-82011696D01*
X153990550Y-81898658D01*
X153900842Y-81808950D01*
X153787804Y-81751354D01*
X153778015Y-81749804D01*
X153778013Y-81749803D01*
X153672293Y-81733059D01*
X153662500Y-81731508D01*
X153652707Y-81733059D01*
X153546987Y-81749803D01*
X153546985Y-81749804D01*
X153537196Y-81751354D01*
X153424158Y-81808950D01*
X153334450Y-81898658D01*
X153276854Y-82011696D01*
X153275304Y-82021485D01*
X153275303Y-82021487D01*
X153272150Y-82041396D01*
X153257008Y-82137000D01*
X145752502Y-82137000D01*
X145753001Y-82136764D01*
X145754362Y-82136037D01*
X145754375Y-82136030D01*
X145824745Y-82098416D01*
X145904003Y-82056052D01*
X145921302Y-82045683D01*
X145922572Y-82044834D01*
X145922590Y-82044823D01*
X145940536Y-82032831D01*
X145940537Y-82032830D01*
X145941829Y-82031967D01*
X145958025Y-82019955D01*
X145964119Y-82014954D01*
X146089199Y-81912304D01*
X146089204Y-81912300D01*
X146090388Y-81911328D01*
X146105331Y-81897784D01*
X146122784Y-81880331D01*
X146136328Y-81865388D01*
X146149177Y-81849732D01*
X146243972Y-81734223D01*
X146243975Y-81734219D01*
X146244955Y-81733025D01*
X146256967Y-81716829D01*
X146270685Y-81696299D01*
X146271469Y-81694991D01*
X146271481Y-81694972D01*
X146280250Y-81680341D01*
X146280256Y-81680330D01*
X146281054Y-81678999D01*
X146281779Y-81677643D01*
X146281789Y-81677625D01*
X146361030Y-81529374D01*
X146361037Y-81529361D01*
X146361764Y-81528000D01*
X146362421Y-81526610D01*
X146362431Y-81526591D01*
X146367831Y-81515173D01*
X146370384Y-81509775D01*
X146379837Y-81486955D01*
X146386634Y-81467961D01*
X146436337Y-81304109D01*
X146438772Y-81294388D01*
X146440863Y-81286036D01*
X146441237Y-81284543D01*
X146446054Y-81260323D01*
X146449012Y-81240379D01*
X146449160Y-81238871D01*
X146449163Y-81238851D01*
X146466325Y-81064596D01*
X146466403Y-81063805D01*
X146467145Y-81053751D01*
X146467752Y-81041401D01*
X146468000Y-81031313D01*
X146468000Y-80987500D01*
X156799508Y-80987500D01*
X156801059Y-80997293D01*
X156811719Y-81064596D01*
X156819354Y-81112804D01*
X156876950Y-81225842D01*
X156966658Y-81315550D01*
X157079696Y-81373146D01*
X157089485Y-81374696D01*
X157089487Y-81374697D01*
X157195207Y-81391441D01*
X157205000Y-81392992D01*
X157214793Y-81391441D01*
X157320513Y-81374697D01*
X157320515Y-81374696D01*
X157330304Y-81373146D01*
X157410835Y-81332113D01*
X173419017Y-81332113D01*
X173420568Y-81341906D01*
X173428781Y-81393758D01*
X173438863Y-81457417D01*
X173496459Y-81570455D01*
X173586167Y-81660163D01*
X173699205Y-81717759D01*
X173708994Y-81719309D01*
X173708996Y-81719310D01*
X173814716Y-81736054D01*
X173824509Y-81737605D01*
X173834302Y-81736054D01*
X173940022Y-81719310D01*
X173940024Y-81719309D01*
X173949813Y-81717759D01*
X174062851Y-81660163D01*
X174152559Y-81570455D01*
X174210155Y-81457417D01*
X174220238Y-81393758D01*
X174228450Y-81341906D01*
X174230001Y-81332113D01*
X174223622Y-81291837D01*
X174211706Y-81216600D01*
X174211705Y-81216598D01*
X174210155Y-81206809D01*
X174152559Y-81093771D01*
X174062851Y-81004063D01*
X173949813Y-80946467D01*
X173940024Y-80944917D01*
X173940022Y-80944916D01*
X173834302Y-80928172D01*
X173824509Y-80926621D01*
X173814716Y-80928172D01*
X173708996Y-80944916D01*
X173708994Y-80944917D01*
X173699205Y-80946467D01*
X173586167Y-81004063D01*
X173496459Y-81093771D01*
X173438863Y-81206809D01*
X173437313Y-81216598D01*
X173437312Y-81216600D01*
X173425396Y-81291837D01*
X173419017Y-81332113D01*
X157410835Y-81332113D01*
X157443342Y-81315550D01*
X157533050Y-81225842D01*
X157590646Y-81112804D01*
X157598282Y-81064596D01*
X157608941Y-80997293D01*
X157610492Y-80987500D01*
X157603993Y-80946467D01*
X157592197Y-80871987D01*
X157592196Y-80871985D01*
X157590646Y-80862196D01*
X157533050Y-80749158D01*
X157443342Y-80659450D01*
X157330304Y-80601854D01*
X157320515Y-80600304D01*
X157320513Y-80600303D01*
X157214793Y-80583559D01*
X157205000Y-80582008D01*
X157195207Y-80583559D01*
X157089487Y-80600303D01*
X157089485Y-80600304D01*
X157079696Y-80601854D01*
X156966658Y-80659450D01*
X156876950Y-80749158D01*
X156819354Y-80862196D01*
X156817804Y-80871985D01*
X156817803Y-80871987D01*
X156806007Y-80946467D01*
X156799508Y-80987500D01*
X146468000Y-80987500D01*
X146468000Y-80437500D01*
X153457008Y-80437500D01*
X153458559Y-80447293D01*
X153466748Y-80498994D01*
X153476854Y-80562804D01*
X153534450Y-80675842D01*
X153624158Y-80765550D01*
X153737196Y-80823146D01*
X153746985Y-80824696D01*
X153746987Y-80824697D01*
X153852707Y-80841441D01*
X153862500Y-80842992D01*
X153872293Y-80841441D01*
X153978013Y-80824697D01*
X153978015Y-80824696D01*
X153987804Y-80823146D01*
X154100842Y-80765550D01*
X154190550Y-80675842D01*
X154248146Y-80562804D01*
X154258253Y-80498994D01*
X154266441Y-80447293D01*
X154267992Y-80437500D01*
X154248146Y-80312196D01*
X154205246Y-80228000D01*
X154901242Y-80228000D01*
X154902793Y-80237793D01*
X154911792Y-80294608D01*
X154921088Y-80353304D01*
X154978684Y-80466342D01*
X155068392Y-80556050D01*
X155181430Y-80613646D01*
X155191219Y-80615196D01*
X155191221Y-80615197D01*
X155296941Y-80631941D01*
X155306734Y-80633492D01*
X155316527Y-80631941D01*
X155422247Y-80615197D01*
X155422249Y-80615196D01*
X155432038Y-80613646D01*
X155545076Y-80556050D01*
X155613364Y-80487762D01*
X178932020Y-80487762D01*
X178932963Y-80498994D01*
X178943599Y-80625645D01*
X178949259Y-80693053D01*
X178950958Y-80698978D01*
X178998023Y-80863112D01*
X179006044Y-80891086D01*
X179008859Y-80896563D01*
X179008860Y-80896566D01*
X179097397Y-81068841D01*
X179100212Y-81074318D01*
X179228177Y-81235770D01*
X179232870Y-81239764D01*
X179232871Y-81239765D01*
X179352887Y-81341906D01*
X179385064Y-81369291D01*
X179390442Y-81372297D01*
X179390444Y-81372298D01*
X179427472Y-81392992D01*
X179564898Y-81469797D01*
X179650584Y-81497638D01*
X179754971Y-81531556D01*
X179754975Y-81531557D01*
X179760829Y-81533459D01*
X179965394Y-81557851D01*
X179971529Y-81557379D01*
X179971531Y-81557379D01*
X180027539Y-81553069D01*
X180170800Y-81542046D01*
X180176730Y-81540390D01*
X180176732Y-81540390D01*
X180329852Y-81497638D01*
X180369225Y-81486645D01*
X180374714Y-81483872D01*
X180374720Y-81483870D01*
X180521293Y-81409830D01*
X180553110Y-81393758D01*
X180585254Y-81368645D01*
X180667856Y-81304109D01*
X180715451Y-81266924D01*
X180734280Y-81245111D01*
X180846040Y-81115634D01*
X180846040Y-81115633D01*
X180850064Y-81110972D01*
X180854586Y-81103013D01*
X180889586Y-81041401D01*
X180951823Y-80931844D01*
X181016851Y-80736363D01*
X181042671Y-80531974D01*
X181043083Y-80502500D01*
X181041638Y-80487762D01*
X181472020Y-80487762D01*
X181472963Y-80498994D01*
X181483599Y-80625645D01*
X181489259Y-80693053D01*
X181490958Y-80698978D01*
X181538023Y-80863112D01*
X181546044Y-80891086D01*
X181548859Y-80896563D01*
X181548860Y-80896566D01*
X181637397Y-81068841D01*
X181640212Y-81074318D01*
X181768177Y-81235770D01*
X181772870Y-81239764D01*
X181772871Y-81239765D01*
X181892887Y-81341906D01*
X181925064Y-81369291D01*
X181930442Y-81372297D01*
X181930444Y-81372298D01*
X181967472Y-81392992D01*
X182104898Y-81469797D01*
X182190584Y-81497638D01*
X182294971Y-81531556D01*
X182294975Y-81531557D01*
X182300829Y-81533459D01*
X182505394Y-81557851D01*
X182511529Y-81557379D01*
X182511531Y-81557379D01*
X182567539Y-81553069D01*
X182710800Y-81542046D01*
X182716730Y-81540390D01*
X182716732Y-81540390D01*
X182869852Y-81497638D01*
X182909225Y-81486645D01*
X182914714Y-81483872D01*
X182914720Y-81483870D01*
X183061293Y-81409830D01*
X183093110Y-81393758D01*
X183125254Y-81368645D01*
X183207856Y-81304109D01*
X183255451Y-81266924D01*
X183274280Y-81245111D01*
X183386040Y-81115634D01*
X183386040Y-81115633D01*
X183390064Y-81110972D01*
X183394586Y-81103013D01*
X183429586Y-81041401D01*
X183491823Y-80931844D01*
X183556851Y-80736363D01*
X183582671Y-80531974D01*
X183583083Y-80502500D01*
X183562980Y-80297470D01*
X183503435Y-80100249D01*
X183406718Y-79918349D01*
X183304852Y-79793449D01*
X183280406Y-79763475D01*
X183280403Y-79763472D01*
X183276511Y-79758700D01*
X183263958Y-79748315D01*
X183122525Y-79631311D01*
X183122521Y-79631309D01*
X183117775Y-79627382D01*
X182936555Y-79529397D01*
X182739754Y-79468477D01*
X182733629Y-79467833D01*
X182733628Y-79467833D01*
X182540998Y-79447587D01*
X182540996Y-79447587D01*
X182534869Y-79446943D01*
X182448029Y-79454846D01*
X182335842Y-79465055D01*
X182335839Y-79465056D01*
X182329703Y-79465614D01*
X182132072Y-79523780D01*
X181949502Y-79619226D01*
X181944701Y-79623086D01*
X181944698Y-79623088D01*
X181896727Y-79661658D01*
X181788947Y-79748315D01*
X181656524Y-79906130D01*
X181653556Y-79911528D01*
X181653553Y-79911533D01*
X181573937Y-80056355D01*
X181557276Y-80086662D01*
X181494984Y-80283032D01*
X181494298Y-80289149D01*
X181494297Y-80289153D01*
X181486111Y-80362137D01*
X181472020Y-80487762D01*
X181041638Y-80487762D01*
X181022980Y-80297470D01*
X180963435Y-80100249D01*
X180866718Y-79918349D01*
X180764852Y-79793449D01*
X180740406Y-79763475D01*
X180740403Y-79763472D01*
X180736511Y-79758700D01*
X180723958Y-79748315D01*
X180582525Y-79631311D01*
X180582521Y-79631309D01*
X180577775Y-79627382D01*
X180396555Y-79529397D01*
X180199754Y-79468477D01*
X180193629Y-79467833D01*
X180193628Y-79467833D01*
X180000998Y-79447587D01*
X180000996Y-79447587D01*
X179994869Y-79446943D01*
X179908029Y-79454846D01*
X179795842Y-79465055D01*
X179795839Y-79465056D01*
X179789703Y-79465614D01*
X179592072Y-79523780D01*
X179409502Y-79619226D01*
X179404701Y-79623086D01*
X179404698Y-79623088D01*
X179356727Y-79661658D01*
X179248947Y-79748315D01*
X179116524Y-79906130D01*
X179113556Y-79911528D01*
X179113553Y-79911533D01*
X179033937Y-80056355D01*
X179017276Y-80086662D01*
X178954984Y-80283032D01*
X178954298Y-80289149D01*
X178954297Y-80289153D01*
X178946111Y-80362137D01*
X178932020Y-80487762D01*
X155613364Y-80487762D01*
X155634784Y-80466342D01*
X155692380Y-80353304D01*
X155701677Y-80294608D01*
X155710675Y-80237793D01*
X155712226Y-80228000D01*
X155706164Y-80189728D01*
X155693931Y-80112487D01*
X155693930Y-80112485D01*
X155692380Y-80102696D01*
X155634784Y-79989658D01*
X155554088Y-79908962D01*
X156900294Y-79908962D01*
X156901845Y-79918755D01*
X156902643Y-79923790D01*
X156920140Y-80034266D01*
X156977736Y-80147304D01*
X157067444Y-80237012D01*
X157180482Y-80294608D01*
X157190271Y-80296158D01*
X157190273Y-80296159D01*
X157295993Y-80312903D01*
X157305786Y-80314454D01*
X157315579Y-80312903D01*
X157421299Y-80296159D01*
X157421301Y-80296158D01*
X157431090Y-80294608D01*
X157544128Y-80237012D01*
X157633836Y-80147304D01*
X157691432Y-80034266D01*
X157708930Y-79923790D01*
X157709727Y-79918755D01*
X157711278Y-79908962D01*
X157705470Y-79872293D01*
X157694667Y-79804082D01*
X170715887Y-79804082D01*
X170717438Y-79813875D01*
X170732050Y-79906130D01*
X170735733Y-79929386D01*
X170793329Y-80042424D01*
X170883037Y-80132132D01*
X170996075Y-80189728D01*
X171005864Y-80191278D01*
X171005866Y-80191279D01*
X171111586Y-80208023D01*
X171121379Y-80209574D01*
X171131172Y-80208023D01*
X171236892Y-80191279D01*
X171236894Y-80191278D01*
X171246683Y-80189728D01*
X171359721Y-80132132D01*
X171449429Y-80042424D01*
X171507025Y-79929386D01*
X171510709Y-79906130D01*
X171511680Y-79900000D01*
X174994508Y-79900000D01*
X174996059Y-79909793D01*
X175009814Y-79996637D01*
X175014354Y-80025304D01*
X175071950Y-80138342D01*
X175161658Y-80228050D01*
X175274696Y-80285646D01*
X175284485Y-80287196D01*
X175284487Y-80287197D01*
X175390207Y-80303941D01*
X175400000Y-80305492D01*
X175409793Y-80303941D01*
X175515513Y-80287197D01*
X175515515Y-80287196D01*
X175525304Y-80285646D01*
X175638342Y-80228050D01*
X175728050Y-80138342D01*
X175785646Y-80025304D01*
X175790187Y-79996637D01*
X175803941Y-79909793D01*
X175805492Y-79900000D01*
X175785646Y-79774696D01*
X175728050Y-79661658D01*
X175638342Y-79571950D01*
X175525304Y-79514354D01*
X175515515Y-79512804D01*
X175515513Y-79512803D01*
X175409793Y-79496059D01*
X175400000Y-79494508D01*
X175390207Y-79496059D01*
X175284487Y-79512803D01*
X175284485Y-79512804D01*
X175274696Y-79514354D01*
X175161658Y-79571950D01*
X175071950Y-79661658D01*
X175014354Y-79774696D01*
X174994508Y-79900000D01*
X171511680Y-79900000D01*
X171525320Y-79813875D01*
X171526871Y-79804082D01*
X171525187Y-79793449D01*
X171508576Y-79688569D01*
X171508575Y-79688567D01*
X171507025Y-79678778D01*
X171449429Y-79565740D01*
X171359721Y-79476032D01*
X171246683Y-79418436D01*
X171236894Y-79416886D01*
X171236892Y-79416885D01*
X171131172Y-79400141D01*
X171121379Y-79398590D01*
X171111586Y-79400141D01*
X171005866Y-79416885D01*
X171005864Y-79416886D01*
X170996075Y-79418436D01*
X170883037Y-79476032D01*
X170793329Y-79565740D01*
X170735733Y-79678778D01*
X170734183Y-79688567D01*
X170734182Y-79688569D01*
X170717571Y-79793449D01*
X170715887Y-79804082D01*
X157694667Y-79804082D01*
X157692983Y-79793449D01*
X157692982Y-79793447D01*
X157691432Y-79783658D01*
X157633836Y-79670620D01*
X157544128Y-79580912D01*
X157431090Y-79523316D01*
X157421301Y-79521766D01*
X157421299Y-79521765D01*
X157315579Y-79505021D01*
X157305786Y-79503470D01*
X157295993Y-79505021D01*
X157190273Y-79521765D01*
X157190271Y-79521766D01*
X157180482Y-79523316D01*
X157067444Y-79580912D01*
X156977736Y-79670620D01*
X156920140Y-79783658D01*
X156918590Y-79793447D01*
X156918589Y-79793449D01*
X156906102Y-79872293D01*
X156900294Y-79908962D01*
X155554088Y-79908962D01*
X155545076Y-79899950D01*
X155432038Y-79842354D01*
X155422249Y-79840804D01*
X155422247Y-79840803D01*
X155316527Y-79824059D01*
X155306734Y-79822508D01*
X155296941Y-79824059D01*
X155191221Y-79840803D01*
X155191219Y-79840804D01*
X155181430Y-79842354D01*
X155068392Y-79899950D01*
X154978684Y-79989658D01*
X154921088Y-80102696D01*
X154919538Y-80112485D01*
X154919537Y-80112487D01*
X154907304Y-80189728D01*
X154901242Y-80228000D01*
X154205246Y-80228000D01*
X154190550Y-80199158D01*
X154100842Y-80109450D01*
X153987804Y-80051854D01*
X153978015Y-80050304D01*
X153978013Y-80050303D01*
X153872293Y-80033559D01*
X153862500Y-80032008D01*
X153852707Y-80033559D01*
X153746987Y-80050303D01*
X153746985Y-80050304D01*
X153737196Y-80051854D01*
X153624158Y-80109450D01*
X153534450Y-80199158D01*
X153476854Y-80312196D01*
X153457008Y-80437500D01*
X146468000Y-80437500D01*
X146468000Y-80053779D01*
X146468607Y-80041429D01*
X146483024Y-79895047D01*
X146487843Y-79870823D01*
X146525795Y-79745713D01*
X146535247Y-79722893D01*
X146596873Y-79607598D01*
X146610596Y-79587060D01*
X146693535Y-79486000D01*
X146711000Y-79468535D01*
X146812060Y-79385596D01*
X146832598Y-79371873D01*
X146947893Y-79310247D01*
X146970713Y-79300795D01*
X147095823Y-79262843D01*
X147120047Y-79258024D01*
X147266429Y-79243607D01*
X147278779Y-79243000D01*
X150171332Y-79243000D01*
X150239453Y-79263002D01*
X150285946Y-79316658D01*
X150296050Y-79386932D01*
X150266556Y-79451512D01*
X150228535Y-79481267D01*
X150124158Y-79534450D01*
X150034450Y-79624158D01*
X149976854Y-79737196D01*
X149975304Y-79746985D01*
X149975303Y-79746987D01*
X149970894Y-79774825D01*
X149957008Y-79862500D01*
X149958559Y-79872293D01*
X149969001Y-79938219D01*
X149976854Y-79987804D01*
X150034450Y-80100842D01*
X150124158Y-80190550D01*
X150237196Y-80248146D01*
X150246985Y-80249696D01*
X150246987Y-80249697D01*
X150352707Y-80266441D01*
X150362500Y-80267992D01*
X150372293Y-80266441D01*
X150478013Y-80249697D01*
X150478015Y-80249696D01*
X150487804Y-80248146D01*
X150600842Y-80190550D01*
X150690550Y-80100842D01*
X150748146Y-79987804D01*
X150756000Y-79938219D01*
X150766441Y-79872293D01*
X150767992Y-79862500D01*
X150754106Y-79774825D01*
X150749697Y-79746987D01*
X150749696Y-79746985D01*
X150748146Y-79737196D01*
X150690550Y-79624158D01*
X150600842Y-79534450D01*
X150496465Y-79481267D01*
X150444850Y-79432518D01*
X150427784Y-79363604D01*
X150450685Y-79296402D01*
X150506282Y-79252250D01*
X150553668Y-79243000D01*
X156756313Y-79243000D01*
X156766401Y-79242752D01*
X156767142Y-79242716D01*
X156767158Y-79242715D01*
X156777979Y-79242183D01*
X156777984Y-79242183D01*
X156778751Y-79242145D01*
X156779491Y-79242090D01*
X156779530Y-79242088D01*
X156787980Y-79241464D01*
X156787984Y-79241464D01*
X156788806Y-79241403D01*
X156965383Y-79224011D01*
X156985323Y-79221054D01*
X157009540Y-79216238D01*
X157011024Y-79215866D01*
X157011030Y-79215865D01*
X157027617Y-79211711D01*
X157027630Y-79211708D01*
X157029109Y-79211337D01*
X157098434Y-79190308D01*
X157191470Y-79162087D01*
X157191485Y-79162082D01*
X157192962Y-79161634D01*
X157194431Y-79161108D01*
X157194438Y-79161106D01*
X157210492Y-79155361D01*
X157210493Y-79155360D01*
X157211959Y-79154836D01*
X157226139Y-79148962D01*
X157233376Y-79145964D01*
X157233383Y-79145961D01*
X157234778Y-79145383D01*
X157253001Y-79136764D01*
X157254362Y-79136037D01*
X157254375Y-79136030D01*
X157313729Y-79104305D01*
X157404003Y-79056052D01*
X157421302Y-79045683D01*
X157422572Y-79044834D01*
X157422590Y-79044823D01*
X157440536Y-79032831D01*
X157440537Y-79032830D01*
X157441829Y-79031967D01*
X157458025Y-79019955D01*
X157466500Y-79013000D01*
X157589199Y-78912304D01*
X157589204Y-78912300D01*
X157590388Y-78911328D01*
X157605331Y-78897784D01*
X157622784Y-78880331D01*
X157624389Y-78878561D01*
X157635288Y-78866535D01*
X157636328Y-78865388D01*
X157645873Y-78853758D01*
X157663526Y-78832248D01*
X178937000Y-78832248D01*
X178938207Y-78838316D01*
X178942760Y-78861203D01*
X178948633Y-78890731D01*
X178992948Y-78957052D01*
X179059269Y-79001367D01*
X179071438Y-79003788D01*
X179071439Y-79003788D01*
X179111684Y-79011793D01*
X179117752Y-79013000D01*
X180857248Y-79013000D01*
X180863316Y-79011793D01*
X180903561Y-79003788D01*
X180903562Y-79003788D01*
X180915731Y-79001367D01*
X180982052Y-78957052D01*
X181026367Y-78890731D01*
X181032241Y-78861203D01*
X181036793Y-78838316D01*
X181038000Y-78832248D01*
X181038000Y-77947762D01*
X181472020Y-77947762D01*
X181472536Y-77953906D01*
X181488287Y-78141474D01*
X181489259Y-78153053D01*
X181490958Y-78158978D01*
X181532574Y-78304109D01*
X181546044Y-78351086D01*
X181548859Y-78356563D01*
X181548860Y-78356566D01*
X181628322Y-78511182D01*
X181640212Y-78534318D01*
X181768177Y-78695770D01*
X181772870Y-78699764D01*
X181772871Y-78699765D01*
X181863035Y-78776500D01*
X181925064Y-78829291D01*
X181930442Y-78832297D01*
X181930444Y-78832298D01*
X181987524Y-78864199D01*
X182104898Y-78929797D01*
X182188780Y-78957052D01*
X182294971Y-78991556D01*
X182294975Y-78991557D01*
X182300829Y-78993459D01*
X182505394Y-79017851D01*
X182511529Y-79017379D01*
X182511531Y-79017379D01*
X182584125Y-79011793D01*
X182710800Y-79002046D01*
X182716730Y-79000390D01*
X182716732Y-79000390D01*
X182903297Y-78948300D01*
X182903296Y-78948300D01*
X182909225Y-78946645D01*
X182914714Y-78943872D01*
X182914720Y-78943870D01*
X183069601Y-78865633D01*
X183093110Y-78853758D01*
X183255451Y-78726924D01*
X183263688Y-78717382D01*
X183386040Y-78575634D01*
X183386040Y-78575633D01*
X183390064Y-78570972D01*
X183408601Y-78538342D01*
X183488776Y-78397207D01*
X183491823Y-78391844D01*
X183556851Y-78196363D01*
X183582671Y-77991974D01*
X183583083Y-77962500D01*
X183562980Y-77757470D01*
X183503435Y-77560249D01*
X183406718Y-77378349D01*
X183325659Y-77278961D01*
X183280406Y-77223475D01*
X183280403Y-77223472D01*
X183276511Y-77218700D01*
X183257972Y-77203363D01*
X183122525Y-77091311D01*
X183122521Y-77091309D01*
X183117775Y-77087382D01*
X182936555Y-76989397D01*
X182739754Y-76928477D01*
X182733629Y-76927833D01*
X182733628Y-76927833D01*
X182540998Y-76907587D01*
X182540996Y-76907587D01*
X182534869Y-76906943D01*
X182448029Y-76914846D01*
X182335842Y-76925055D01*
X182335839Y-76925056D01*
X182329703Y-76925614D01*
X182132072Y-76983780D01*
X181949502Y-77079226D01*
X181944701Y-77083086D01*
X181944698Y-77083088D01*
X181804190Y-77196059D01*
X181788947Y-77208315D01*
X181656524Y-77366130D01*
X181653556Y-77371528D01*
X181653553Y-77371533D01*
X181569231Y-77524915D01*
X181557276Y-77546662D01*
X181555413Y-77552535D01*
X181503714Y-77715513D01*
X181494984Y-77743032D01*
X181494298Y-77749149D01*
X181494297Y-77749153D01*
X181482541Y-77853967D01*
X181472020Y-77947762D01*
X181038000Y-77947762D01*
X181038000Y-77092752D01*
X181033975Y-77072518D01*
X181028788Y-77046439D01*
X181028788Y-77046438D01*
X181026367Y-77034269D01*
X180982052Y-76967948D01*
X180915731Y-76923633D01*
X180903562Y-76921212D01*
X180903561Y-76921212D01*
X180863316Y-76913207D01*
X180857248Y-76912000D01*
X179117752Y-76912000D01*
X179111684Y-76913207D01*
X179071439Y-76921212D01*
X179071438Y-76921212D01*
X179059269Y-76923633D01*
X178992948Y-76967948D01*
X178948633Y-77034269D01*
X178946212Y-77046438D01*
X178946212Y-77046439D01*
X178941025Y-77072518D01*
X178937000Y-77092752D01*
X178937000Y-78832248D01*
X157663526Y-78832248D01*
X157743972Y-78734223D01*
X157743975Y-78734219D01*
X157744955Y-78733025D01*
X157756967Y-78716829D01*
X157770685Y-78696299D01*
X157771469Y-78694991D01*
X157771481Y-78694972D01*
X157780250Y-78680341D01*
X157780256Y-78680330D01*
X157781054Y-78678999D01*
X157781779Y-78677643D01*
X157781789Y-78677625D01*
X157861030Y-78529374D01*
X157861037Y-78529361D01*
X157861764Y-78528000D01*
X157862421Y-78526610D01*
X157862431Y-78526591D01*
X157866254Y-78518507D01*
X157870384Y-78509775D01*
X157879837Y-78486955D01*
X157886634Y-78467961D01*
X157936337Y-78304109D01*
X157937366Y-78300000D01*
X165794508Y-78300000D01*
X165796059Y-78309793D01*
X165809312Y-78393468D01*
X165814354Y-78425304D01*
X165871950Y-78538342D01*
X165961658Y-78628050D01*
X166074696Y-78685646D01*
X166084485Y-78687196D01*
X166084487Y-78687197D01*
X166190207Y-78703941D01*
X166200000Y-78705492D01*
X166209793Y-78703941D01*
X166315513Y-78687197D01*
X166315515Y-78687196D01*
X166325304Y-78685646D01*
X166438342Y-78628050D01*
X166528050Y-78538342D01*
X166585646Y-78425304D01*
X166590689Y-78393468D01*
X166603941Y-78309793D01*
X166605492Y-78300000D01*
X166600230Y-78266778D01*
X171294508Y-78266778D01*
X171296059Y-78276571D01*
X171311451Y-78373750D01*
X171314354Y-78392082D01*
X171371950Y-78505120D01*
X171461658Y-78594828D01*
X171574696Y-78652424D01*
X171584485Y-78653974D01*
X171584487Y-78653975D01*
X171690207Y-78670719D01*
X171700000Y-78672270D01*
X171709793Y-78670719D01*
X171815513Y-78653975D01*
X171815515Y-78653974D01*
X171825304Y-78652424D01*
X171938342Y-78594828D01*
X172028050Y-78505120D01*
X172085646Y-78392082D01*
X172088550Y-78373750D01*
X172103941Y-78276571D01*
X172105492Y-78266778D01*
X172101069Y-78238851D01*
X172087197Y-78151265D01*
X172087196Y-78151263D01*
X172085646Y-78141474D01*
X172067378Y-78105621D01*
X172054274Y-78035844D01*
X172080974Y-77970059D01*
X172122445Y-77936150D01*
X172129508Y-77932551D01*
X172138342Y-77928050D01*
X172228050Y-77838342D01*
X172285646Y-77725304D01*
X172295172Y-77665162D01*
X172303941Y-77609793D01*
X172305492Y-77600000D01*
X172302682Y-77582260D01*
X172287197Y-77484487D01*
X172287196Y-77484485D01*
X172285646Y-77474696D01*
X172228050Y-77361658D01*
X172138342Y-77271950D01*
X172117285Y-77261221D01*
X174905366Y-77261221D01*
X174906917Y-77271014D01*
X174923161Y-77373573D01*
X174925212Y-77386525D01*
X174982808Y-77499563D01*
X175072516Y-77589271D01*
X175185554Y-77646867D01*
X175195343Y-77648417D01*
X175195345Y-77648418D01*
X175301065Y-77665162D01*
X175310858Y-77666713D01*
X175320651Y-77665162D01*
X175426371Y-77648418D01*
X175426373Y-77648417D01*
X175436162Y-77646867D01*
X175549200Y-77589271D01*
X175638908Y-77499563D01*
X175696504Y-77386525D01*
X175698556Y-77373573D01*
X175714799Y-77271014D01*
X175716350Y-77261221D01*
X175709640Y-77218855D01*
X175698055Y-77145708D01*
X175698054Y-77145706D01*
X175696504Y-77135917D01*
X175638908Y-77022879D01*
X175549200Y-76933171D01*
X175436162Y-76875575D01*
X175426373Y-76874025D01*
X175426371Y-76874024D01*
X175320651Y-76857280D01*
X175310858Y-76855729D01*
X175301065Y-76857280D01*
X175195345Y-76874024D01*
X175195343Y-76874025D01*
X175185554Y-76875575D01*
X175072516Y-76933171D01*
X174982808Y-77022879D01*
X174925212Y-77135917D01*
X174923662Y-77145706D01*
X174923661Y-77145708D01*
X174912076Y-77218855D01*
X174905366Y-77261221D01*
X172117285Y-77261221D01*
X172025304Y-77214354D01*
X172015515Y-77212804D01*
X172015513Y-77212803D01*
X171909793Y-77196059D01*
X171900000Y-77194508D01*
X171890207Y-77196059D01*
X171784487Y-77212803D01*
X171784485Y-77212804D01*
X171774696Y-77214354D01*
X171661658Y-77271950D01*
X171571950Y-77361658D01*
X171514354Y-77474696D01*
X171512804Y-77484485D01*
X171512803Y-77484487D01*
X171497318Y-77582260D01*
X171494508Y-77600000D01*
X171496059Y-77609793D01*
X171504829Y-77665162D01*
X171514354Y-77725304D01*
X171522576Y-77741441D01*
X171532622Y-77761157D01*
X171545726Y-77830934D01*
X171519026Y-77896719D01*
X171477555Y-77930628D01*
X171461658Y-77938728D01*
X171371950Y-78028436D01*
X171314354Y-78141474D01*
X171312804Y-78151263D01*
X171312803Y-78151265D01*
X171298931Y-78238851D01*
X171294508Y-78266778D01*
X166600230Y-78266778D01*
X166585646Y-78174696D01*
X166528050Y-78061658D01*
X166438342Y-77971950D01*
X166325304Y-77914354D01*
X166315515Y-77912804D01*
X166315513Y-77912803D01*
X166209793Y-77896059D01*
X166200000Y-77894508D01*
X166190207Y-77896059D01*
X166084487Y-77912803D01*
X166084485Y-77912804D01*
X166074696Y-77914354D01*
X165961658Y-77971950D01*
X165871950Y-78061658D01*
X165814354Y-78174696D01*
X165794508Y-78300000D01*
X157937366Y-78300000D01*
X157941237Y-78284543D01*
X157946054Y-78260323D01*
X157949012Y-78240379D01*
X157949160Y-78238871D01*
X157949163Y-78238851D01*
X157966325Y-78064596D01*
X157966403Y-78063805D01*
X157967145Y-78053751D01*
X157967752Y-78041401D01*
X157968000Y-78031313D01*
X157968000Y-77043687D01*
X157967752Y-77033599D01*
X157967145Y-77021249D01*
X157966403Y-77011195D01*
X157960673Y-76953013D01*
X157949163Y-76836149D01*
X157949160Y-76836129D01*
X157949012Y-76834621D01*
X157946054Y-76814677D01*
X157944998Y-76809367D01*
X157941534Y-76791948D01*
X157941530Y-76791930D01*
X157941237Y-76790457D01*
X157939914Y-76785173D01*
X157936717Y-76772407D01*
X157936713Y-76772394D01*
X157936337Y-76770891D01*
X157915853Y-76703363D01*
X157887087Y-76608530D01*
X157887082Y-76608515D01*
X157886634Y-76607038D01*
X157879836Y-76588041D01*
X157870383Y-76565222D01*
X157861764Y-76547000D01*
X157861029Y-76545626D01*
X157861018Y-76545603D01*
X157795697Y-76423395D01*
X157781225Y-76353889D01*
X157806629Y-76287593D01*
X157863842Y-76245556D01*
X157906819Y-76238000D01*
X161732080Y-76238000D01*
X161800201Y-76258002D01*
X161846694Y-76311658D01*
X161856798Y-76381932D01*
X161827304Y-76446512D01*
X161789283Y-76476267D01*
X161724158Y-76509450D01*
X161634450Y-76599158D01*
X161576854Y-76712196D01*
X161575304Y-76721985D01*
X161575303Y-76721987D01*
X161559477Y-76821910D01*
X161557008Y-76837500D01*
X161558559Y-76847293D01*
X161575120Y-76951854D01*
X161576854Y-76962804D01*
X161634450Y-77075842D01*
X161724158Y-77165550D01*
X161837196Y-77223146D01*
X161846985Y-77224696D01*
X161846987Y-77224697D01*
X161952707Y-77241441D01*
X161962500Y-77242992D01*
X161972293Y-77241441D01*
X162078013Y-77224697D01*
X162078015Y-77224696D01*
X162087804Y-77223146D01*
X162200842Y-77165550D01*
X162290550Y-77075842D01*
X162292497Y-77072021D01*
X162346245Y-77030579D01*
X162416982Y-77024505D01*
X162479772Y-77057640D01*
X162504222Y-77090792D01*
X162505221Y-77092752D01*
X162552507Y-77185556D01*
X162642215Y-77275264D01*
X162755253Y-77332860D01*
X162765042Y-77334410D01*
X162765044Y-77334411D01*
X162870764Y-77351155D01*
X162880557Y-77352706D01*
X162890350Y-77351155D01*
X162996070Y-77334411D01*
X162996072Y-77334410D01*
X163005861Y-77332860D01*
X163118899Y-77275264D01*
X163208607Y-77185556D01*
X163266203Y-77072518D01*
X163268560Y-77057640D01*
X163284498Y-76957007D01*
X163286049Y-76947214D01*
X163277894Y-76895722D01*
X163267754Y-76831701D01*
X163267753Y-76831699D01*
X163266203Y-76821910D01*
X163208607Y-76708872D01*
X163118899Y-76619164D01*
X163005861Y-76561568D01*
X162996072Y-76560018D01*
X162996070Y-76560017D01*
X162890350Y-76543273D01*
X162880557Y-76541722D01*
X162870764Y-76543273D01*
X162765044Y-76560017D01*
X162765042Y-76560018D01*
X162755253Y-76561568D01*
X162642215Y-76619164D01*
X162552507Y-76708872D01*
X162550560Y-76712693D01*
X162496812Y-76754135D01*
X162426075Y-76760209D01*
X162363285Y-76727074D01*
X162338835Y-76693922D01*
X162327040Y-76670773D01*
X162290550Y-76599158D01*
X162200842Y-76509450D01*
X162135717Y-76476267D01*
X162084102Y-76427518D01*
X162067036Y-76358604D01*
X162089937Y-76291402D01*
X162145534Y-76247250D01*
X162192920Y-76238000D01*
X183811942Y-76238000D01*
X183880063Y-76258002D01*
X183891876Y-76266601D01*
X183960014Y-76322521D01*
X183977479Y-76339986D01*
X184033399Y-76408124D01*
X184061153Y-76473471D01*
X184062000Y-76488058D01*
X184062000Y-89586942D01*
X184041998Y-89655063D01*
X184033399Y-89666876D01*
X183977479Y-89735014D01*
X183960014Y-89752479D01*
X183891876Y-89808399D01*
X183826529Y-89836153D01*
X183811942Y-89837000D01*
X156823181Y-89837000D01*
X156755060Y-89816998D01*
X156708567Y-89763342D01*
X156698463Y-89693068D01*
X156727957Y-89628488D01*
X156742612Y-89614126D01*
X156864568Y-89512696D01*
X156864573Y-89512691D01*
X156869005Y-89509005D01*
X156998337Y-89353501D01*
X157006431Y-89339049D01*
X157050026Y-89261203D01*
X157097164Y-89177031D01*
X157101994Y-89162804D01*
X157160320Y-88990981D01*
X157160320Y-88990979D01*
X157162178Y-88985507D01*
X157163007Y-88979791D01*
X157163008Y-88979786D01*
X157183613Y-88837669D01*
X157191200Y-88785342D01*
X157192715Y-88727500D01*
X157174208Y-88526091D01*
X157172325Y-88519412D01*
X157138391Y-88399093D01*
X157119307Y-88331426D01*
X157029851Y-88150027D01*
X157011579Y-88125557D01*
X156912288Y-87992591D01*
X156912287Y-87992590D01*
X156908835Y-87987967D01*
X156901959Y-87981611D01*
X156889398Y-87970000D01*
X159724508Y-87970000D01*
X159726059Y-87979793D01*
X159742205Y-88081733D01*
X159744354Y-88095304D01*
X159801950Y-88208342D01*
X159891658Y-88298050D01*
X160004696Y-88355646D01*
X160014485Y-88357196D01*
X160014487Y-88357197D01*
X160120207Y-88373941D01*
X160130000Y-88375492D01*
X160139793Y-88373941D01*
X160245513Y-88357197D01*
X160245515Y-88357196D01*
X160255304Y-88355646D01*
X160368342Y-88298050D01*
X160458050Y-88208342D01*
X160515646Y-88095304D01*
X160517588Y-88096294D01*
X160550241Y-88048542D01*
X160615638Y-88020905D01*
X160685595Y-88033012D01*
X160737900Y-88081019D01*
X160744317Y-88095068D01*
X160744354Y-88095304D01*
X160801950Y-88208342D01*
X160891658Y-88298050D01*
X161004696Y-88355646D01*
X161014485Y-88357196D01*
X161014487Y-88357197D01*
X161120207Y-88373941D01*
X161130000Y-88375492D01*
X161139793Y-88373941D01*
X161245513Y-88357197D01*
X161245515Y-88357196D01*
X161255304Y-88355646D01*
X161368342Y-88298050D01*
X161458050Y-88208342D01*
X161462300Y-88200000D01*
X175094508Y-88200000D01*
X175096059Y-88209793D01*
X175112414Y-88313053D01*
X175114354Y-88325304D01*
X175171950Y-88438342D01*
X175261658Y-88528050D01*
X175374696Y-88585646D01*
X175384485Y-88587196D01*
X175384487Y-88587197D01*
X175490207Y-88603941D01*
X175500000Y-88605492D01*
X175509793Y-88603941D01*
X175509794Y-88603941D01*
X175602956Y-88589186D01*
X175673367Y-88598286D01*
X175727681Y-88644008D01*
X175734933Y-88656432D01*
X175773444Y-88732013D01*
X175781570Y-88747961D01*
X175871278Y-88837669D01*
X175984316Y-88895265D01*
X175994105Y-88896815D01*
X175994107Y-88896816D01*
X176099827Y-88913560D01*
X176109620Y-88915111D01*
X176119413Y-88913560D01*
X176225133Y-88896816D01*
X176225135Y-88896815D01*
X176234924Y-88895265D01*
X176347962Y-88837669D01*
X176437670Y-88747961D01*
X176495266Y-88634923D01*
X176499928Y-88605492D01*
X176513561Y-88519412D01*
X176515112Y-88509619D01*
X176513226Y-88497713D01*
X176496817Y-88394106D01*
X176496816Y-88394104D01*
X176495266Y-88384315D01*
X176437670Y-88271277D01*
X176347962Y-88181569D01*
X176234924Y-88123973D01*
X176225135Y-88122423D01*
X176225133Y-88122422D01*
X176132571Y-88107762D01*
X178932020Y-88107762D01*
X178932536Y-88113906D01*
X178948116Y-88299437D01*
X178949259Y-88313053D01*
X178950958Y-88318978D01*
X178992746Y-88464709D01*
X179006044Y-88511086D01*
X179008859Y-88516563D01*
X179008860Y-88516566D01*
X179095739Y-88685615D01*
X179100212Y-88694318D01*
X179228177Y-88855770D01*
X179232870Y-88859764D01*
X179232871Y-88859765D01*
X179373896Y-88979786D01*
X179385064Y-88989291D01*
X179564898Y-89089797D01*
X179659738Y-89120613D01*
X179754971Y-89151556D01*
X179754975Y-89151557D01*
X179760829Y-89153459D01*
X179965394Y-89177851D01*
X179971529Y-89177379D01*
X179971531Y-89177379D01*
X180027539Y-89173069D01*
X180170800Y-89162046D01*
X180176730Y-89160390D01*
X180176732Y-89160390D01*
X180363297Y-89108300D01*
X180363296Y-89108300D01*
X180369225Y-89106645D01*
X180374714Y-89103872D01*
X180374720Y-89103870D01*
X180513938Y-89033545D01*
X180553110Y-89013758D01*
X180582264Y-88990981D01*
X180645672Y-88941441D01*
X180715451Y-88886924D01*
X180721885Y-88879471D01*
X180846040Y-88735634D01*
X180846040Y-88735633D01*
X180850064Y-88730972D01*
X180854136Y-88723805D01*
X180906283Y-88632008D01*
X180951823Y-88551844D01*
X181016851Y-88356363D01*
X181042671Y-88151974D01*
X181042969Y-88130667D01*
X181043034Y-88126022D01*
X181043034Y-88126018D01*
X181043083Y-88122500D01*
X181041638Y-88107762D01*
X181472020Y-88107762D01*
X181472536Y-88113906D01*
X181488116Y-88299437D01*
X181489259Y-88313053D01*
X181490958Y-88318978D01*
X181532746Y-88464709D01*
X181546044Y-88511086D01*
X181548859Y-88516563D01*
X181548860Y-88516566D01*
X181635739Y-88685615D01*
X181640212Y-88694318D01*
X181768177Y-88855770D01*
X181772870Y-88859764D01*
X181772871Y-88859765D01*
X181913896Y-88979786D01*
X181925064Y-88989291D01*
X182104898Y-89089797D01*
X182199738Y-89120613D01*
X182294971Y-89151556D01*
X182294975Y-89151557D01*
X182300829Y-89153459D01*
X182505394Y-89177851D01*
X182511529Y-89177379D01*
X182511531Y-89177379D01*
X182567539Y-89173069D01*
X182710800Y-89162046D01*
X182716730Y-89160390D01*
X182716732Y-89160390D01*
X182903297Y-89108300D01*
X182903296Y-89108300D01*
X182909225Y-89106645D01*
X182914714Y-89103872D01*
X182914720Y-89103870D01*
X183053938Y-89033545D01*
X183093110Y-89013758D01*
X183122264Y-88990981D01*
X183185672Y-88941441D01*
X183255451Y-88886924D01*
X183261885Y-88879471D01*
X183386040Y-88735634D01*
X183386040Y-88735633D01*
X183390064Y-88730972D01*
X183394136Y-88723805D01*
X183446283Y-88632008D01*
X183491823Y-88551844D01*
X183556851Y-88356363D01*
X183582671Y-88151974D01*
X183582969Y-88130667D01*
X183583034Y-88126022D01*
X183583034Y-88126018D01*
X183583083Y-88122500D01*
X183562980Y-87917470D01*
X183503435Y-87720249D01*
X183406718Y-87538349D01*
X183320975Y-87433218D01*
X183280406Y-87383475D01*
X183280403Y-87383472D01*
X183276511Y-87378700D01*
X183271762Y-87374771D01*
X183122525Y-87251311D01*
X183122521Y-87251309D01*
X183117775Y-87247382D01*
X182936555Y-87149397D01*
X182739754Y-87088477D01*
X182733629Y-87087833D01*
X182733628Y-87087833D01*
X182540998Y-87067587D01*
X182540996Y-87067587D01*
X182534869Y-87066943D01*
X182448029Y-87074846D01*
X182335842Y-87085055D01*
X182335839Y-87085056D01*
X182329703Y-87085614D01*
X182132072Y-87143780D01*
X181949502Y-87239226D01*
X181944701Y-87243086D01*
X181944698Y-87243088D01*
X181807699Y-87353238D01*
X181788947Y-87368315D01*
X181656524Y-87526130D01*
X181653556Y-87531528D01*
X181653553Y-87531533D01*
X181577464Y-87669940D01*
X181557276Y-87706662D01*
X181494984Y-87903032D01*
X181494298Y-87909149D01*
X181494297Y-87909153D01*
X181477541Y-88058539D01*
X181472020Y-88107762D01*
X181041638Y-88107762D01*
X181022980Y-87917470D01*
X180963435Y-87720249D01*
X180866718Y-87538349D01*
X180780975Y-87433218D01*
X180740406Y-87383475D01*
X180740403Y-87383472D01*
X180736511Y-87378700D01*
X180731762Y-87374771D01*
X180582525Y-87251311D01*
X180582521Y-87251309D01*
X180577775Y-87247382D01*
X180396555Y-87149397D01*
X180199754Y-87088477D01*
X180193629Y-87087833D01*
X180193628Y-87087833D01*
X180000998Y-87067587D01*
X180000996Y-87067587D01*
X179994869Y-87066943D01*
X179908029Y-87074846D01*
X179795842Y-87085055D01*
X179795839Y-87085056D01*
X179789703Y-87085614D01*
X179592072Y-87143780D01*
X179409502Y-87239226D01*
X179404701Y-87243086D01*
X179404698Y-87243088D01*
X179267699Y-87353238D01*
X179248947Y-87368315D01*
X179116524Y-87526130D01*
X179113556Y-87531528D01*
X179113553Y-87531533D01*
X179037464Y-87669940D01*
X179017276Y-87706662D01*
X178954984Y-87903032D01*
X178954298Y-87909149D01*
X178954297Y-87909153D01*
X178937541Y-88058539D01*
X178932020Y-88107762D01*
X176132571Y-88107762D01*
X176119413Y-88105678D01*
X176109620Y-88104127D01*
X176099827Y-88105678D01*
X176099826Y-88105678D01*
X176006664Y-88120433D01*
X175936253Y-88111333D01*
X175881939Y-88065611D01*
X175874687Y-88053187D01*
X175832551Y-87970491D01*
X175832550Y-87970489D01*
X175828050Y-87961658D01*
X175738342Y-87871950D01*
X175625304Y-87814354D01*
X175615515Y-87812804D01*
X175615513Y-87812803D01*
X175509793Y-87796059D01*
X175500000Y-87794508D01*
X175490207Y-87796059D01*
X175384487Y-87812803D01*
X175384485Y-87812804D01*
X175374696Y-87814354D01*
X175261658Y-87871950D01*
X175171950Y-87961658D01*
X175114354Y-88074696D01*
X175112804Y-88084485D01*
X175112803Y-88084487D01*
X175101421Y-88156355D01*
X175094508Y-88200000D01*
X161462300Y-88200000D01*
X161515646Y-88095304D01*
X161517796Y-88081733D01*
X161533941Y-87979793D01*
X161535492Y-87970000D01*
X161533060Y-87954647D01*
X161517197Y-87854487D01*
X161517196Y-87854485D01*
X161515646Y-87844696D01*
X161458050Y-87731658D01*
X161368342Y-87641950D01*
X161269486Y-87591580D01*
X163296809Y-87591580D01*
X163298360Y-87601373D01*
X163308881Y-87667798D01*
X163316655Y-87716884D01*
X163374251Y-87829922D01*
X163463959Y-87919630D01*
X163576997Y-87977226D01*
X163586786Y-87978776D01*
X163586788Y-87978777D01*
X163692508Y-87995521D01*
X163702301Y-87997072D01*
X163712094Y-87995521D01*
X163817814Y-87978777D01*
X163817816Y-87978776D01*
X163827605Y-87977226D01*
X163940643Y-87919630D01*
X164030351Y-87829922D01*
X164077443Y-87737500D01*
X166057008Y-87737500D01*
X166058559Y-87747293D01*
X166073776Y-87843368D01*
X166076854Y-87862804D01*
X166134450Y-87975842D01*
X166224158Y-88065550D01*
X166337196Y-88123146D01*
X166346985Y-88124696D01*
X166346987Y-88124697D01*
X166452707Y-88141441D01*
X166462500Y-88142992D01*
X166472293Y-88141441D01*
X166578013Y-88124697D01*
X166578015Y-88124696D01*
X166587804Y-88123146D01*
X166700842Y-88065550D01*
X166790550Y-87975842D01*
X166848146Y-87862804D01*
X166851225Y-87843368D01*
X166866441Y-87747293D01*
X166867992Y-87737500D01*
X166857292Y-87669940D01*
X166849697Y-87621987D01*
X166849696Y-87621985D01*
X166848146Y-87612196D01*
X166790550Y-87499158D01*
X166700842Y-87409450D01*
X166587804Y-87351854D01*
X166578015Y-87350304D01*
X166578013Y-87350303D01*
X166472293Y-87333559D01*
X166462500Y-87332008D01*
X166452707Y-87333559D01*
X166346987Y-87350303D01*
X166346985Y-87350304D01*
X166337196Y-87351854D01*
X166224158Y-87409450D01*
X166134450Y-87499158D01*
X166076854Y-87612196D01*
X166075304Y-87621985D01*
X166075303Y-87621987D01*
X166067708Y-87669940D01*
X166057008Y-87737500D01*
X164077443Y-87737500D01*
X164087947Y-87716884D01*
X164095722Y-87667798D01*
X164106242Y-87601373D01*
X164107793Y-87591580D01*
X164087947Y-87466276D01*
X164030351Y-87353238D01*
X163940643Y-87263530D01*
X163827605Y-87205934D01*
X163817816Y-87204384D01*
X163817814Y-87204383D01*
X163712094Y-87187639D01*
X163702301Y-87186088D01*
X163692508Y-87187639D01*
X163586788Y-87204383D01*
X163586786Y-87204384D01*
X163576997Y-87205934D01*
X163463959Y-87263530D01*
X163374251Y-87353238D01*
X163316655Y-87466276D01*
X163296809Y-87591580D01*
X161269486Y-87591580D01*
X161255304Y-87584354D01*
X161245515Y-87582804D01*
X161245513Y-87582803D01*
X161139793Y-87566059D01*
X161130000Y-87564508D01*
X161120207Y-87566059D01*
X161014487Y-87582803D01*
X161014485Y-87582804D01*
X161004696Y-87584354D01*
X160891658Y-87641950D01*
X160801950Y-87731658D01*
X160744354Y-87844696D01*
X160742412Y-87843706D01*
X160709759Y-87891458D01*
X160644362Y-87919095D01*
X160574405Y-87906988D01*
X160522100Y-87858981D01*
X160515683Y-87844932D01*
X160515646Y-87844696D01*
X160458050Y-87731658D01*
X160368342Y-87641950D01*
X160255304Y-87584354D01*
X160245515Y-87582804D01*
X160245513Y-87582803D01*
X160139793Y-87566059D01*
X160130000Y-87564508D01*
X160120207Y-87566059D01*
X160014487Y-87582803D01*
X160014485Y-87582804D01*
X160004696Y-87584354D01*
X159891658Y-87641950D01*
X159801950Y-87731658D01*
X159744354Y-87844696D01*
X159742804Y-87854485D01*
X159742803Y-87854487D01*
X159726940Y-87954647D01*
X159724508Y-87970000D01*
X156889398Y-87970000D01*
X156764553Y-87854594D01*
X156764551Y-87854592D01*
X156760312Y-87850674D01*
X156755429Y-87847593D01*
X156594137Y-87745825D01*
X156589257Y-87742746D01*
X156401398Y-87667798D01*
X156203026Y-87628339D01*
X156197252Y-87628263D01*
X156197248Y-87628263D01*
X156094757Y-87626922D01*
X156000786Y-87625692D01*
X155995089Y-87626671D01*
X155995088Y-87626671D01*
X155807146Y-87658965D01*
X155807145Y-87658965D01*
X155801449Y-87659944D01*
X155611693Y-87729949D01*
X155606732Y-87732901D01*
X155606731Y-87732901D01*
X155443709Y-87829889D01*
X155437871Y-87833362D01*
X155285805Y-87966720D01*
X155160589Y-88125557D01*
X155066414Y-88304553D01*
X155006437Y-88497713D01*
X154982664Y-88698569D01*
X154995892Y-88900394D01*
X155010994Y-88959860D01*
X155040828Y-89077329D01*
X155045678Y-89096428D01*
X155130356Y-89280107D01*
X155247088Y-89445280D01*
X155391966Y-89586413D01*
X155396771Y-89589624D01*
X155396774Y-89589626D01*
X155421631Y-89606235D01*
X155467159Y-89660711D01*
X155476008Y-89731154D01*
X155445367Y-89795199D01*
X155384965Y-89832510D01*
X155351630Y-89837000D01*
X140713181Y-89837000D01*
X140645060Y-89816998D01*
X140598567Y-89763342D01*
X140588463Y-89693068D01*
X140617957Y-89628488D01*
X140632612Y-89614126D01*
X140754568Y-89512696D01*
X140754573Y-89512691D01*
X140759005Y-89509005D01*
X140888337Y-89353501D01*
X140896431Y-89339049D01*
X140940026Y-89261203D01*
X140987164Y-89177031D01*
X140991994Y-89162804D01*
X141034529Y-89037500D01*
X143857008Y-89037500D01*
X143858559Y-89047293D01*
X143875073Y-89151556D01*
X143876854Y-89162804D01*
X143934450Y-89275842D01*
X144024158Y-89365550D01*
X144137196Y-89423146D01*
X144146985Y-89424696D01*
X144146987Y-89424697D01*
X144252707Y-89441441D01*
X144262500Y-89442992D01*
X144272293Y-89441441D01*
X144378013Y-89424697D01*
X144378015Y-89424696D01*
X144387804Y-89423146D01*
X144500842Y-89365550D01*
X144590550Y-89275842D01*
X144648146Y-89162804D01*
X144649928Y-89151556D01*
X144666441Y-89047293D01*
X144667992Y-89037500D01*
X145907008Y-89037500D01*
X145908559Y-89047293D01*
X145925073Y-89151556D01*
X145926854Y-89162804D01*
X145984450Y-89275842D01*
X146074158Y-89365550D01*
X146187196Y-89423146D01*
X146196985Y-89424696D01*
X146196987Y-89424697D01*
X146302707Y-89441441D01*
X146312500Y-89442992D01*
X146322293Y-89441441D01*
X146428013Y-89424697D01*
X146428015Y-89424696D01*
X146437804Y-89423146D01*
X146550842Y-89365550D01*
X146640550Y-89275842D01*
X146698146Y-89162804D01*
X146699928Y-89151556D01*
X146716441Y-89047293D01*
X146717992Y-89037500D01*
X147807008Y-89037500D01*
X147808559Y-89047293D01*
X147825073Y-89151556D01*
X147826854Y-89162804D01*
X147884450Y-89275842D01*
X147974158Y-89365550D01*
X148087196Y-89423146D01*
X148096985Y-89424696D01*
X148096987Y-89424697D01*
X148202707Y-89441441D01*
X148212500Y-89442992D01*
X148222293Y-89441441D01*
X148328013Y-89424697D01*
X148328015Y-89424696D01*
X148337804Y-89423146D01*
X148450842Y-89365550D01*
X148540550Y-89275842D01*
X148598146Y-89162804D01*
X148599928Y-89151556D01*
X148616441Y-89047293D01*
X148617992Y-89037500D01*
X149157008Y-89037500D01*
X149158559Y-89047293D01*
X149175073Y-89151556D01*
X149176854Y-89162804D01*
X149234450Y-89275842D01*
X149324158Y-89365550D01*
X149437196Y-89423146D01*
X149446985Y-89424696D01*
X149446987Y-89424697D01*
X149552707Y-89441441D01*
X149562500Y-89442992D01*
X149572293Y-89441441D01*
X149678013Y-89424697D01*
X149678015Y-89424696D01*
X149687804Y-89423146D01*
X149800842Y-89365550D01*
X149823405Y-89342987D01*
X149885717Y-89308961D01*
X149956532Y-89314026D01*
X150001595Y-89342987D01*
X150024158Y-89365550D01*
X150137196Y-89423146D01*
X150146985Y-89424696D01*
X150146987Y-89424697D01*
X150252707Y-89441441D01*
X150262500Y-89442992D01*
X150272293Y-89441441D01*
X150378013Y-89424697D01*
X150378015Y-89424696D01*
X150387804Y-89423146D01*
X150500842Y-89365550D01*
X150590550Y-89275842D01*
X150648146Y-89162804D01*
X150649928Y-89151556D01*
X150666441Y-89047293D01*
X150667992Y-89037500D01*
X150658851Y-88979786D01*
X150649697Y-88921987D01*
X150649696Y-88921985D01*
X150648146Y-88912196D01*
X150590550Y-88799158D01*
X150500842Y-88709450D01*
X150387804Y-88651854D01*
X150378015Y-88650304D01*
X150378013Y-88650303D01*
X150272293Y-88633559D01*
X150262500Y-88632008D01*
X150252707Y-88633559D01*
X150146987Y-88650303D01*
X150146985Y-88650304D01*
X150137196Y-88651854D01*
X150024158Y-88709450D01*
X150001595Y-88732013D01*
X149939283Y-88766039D01*
X149868468Y-88760974D01*
X149823405Y-88732013D01*
X149800842Y-88709450D01*
X149687804Y-88651854D01*
X149678015Y-88650304D01*
X149678013Y-88650303D01*
X149572293Y-88633559D01*
X149562500Y-88632008D01*
X149552707Y-88633559D01*
X149446987Y-88650303D01*
X149446985Y-88650304D01*
X149437196Y-88651854D01*
X149324158Y-88709450D01*
X149234450Y-88799158D01*
X149176854Y-88912196D01*
X149175304Y-88921985D01*
X149175303Y-88921987D01*
X149166149Y-88979786D01*
X149157008Y-89037500D01*
X148617992Y-89037500D01*
X148608851Y-88979786D01*
X148599697Y-88921987D01*
X148599696Y-88921985D01*
X148598146Y-88912196D01*
X148540550Y-88799158D01*
X148450842Y-88709450D01*
X148337804Y-88651854D01*
X148328015Y-88650304D01*
X148328013Y-88650303D01*
X148222293Y-88633559D01*
X148212500Y-88632008D01*
X148202707Y-88633559D01*
X148096987Y-88650303D01*
X148096985Y-88650304D01*
X148087196Y-88651854D01*
X147974158Y-88709450D01*
X147884450Y-88799158D01*
X147826854Y-88912196D01*
X147825304Y-88921985D01*
X147825303Y-88921987D01*
X147816149Y-88979786D01*
X147807008Y-89037500D01*
X146717992Y-89037500D01*
X146708851Y-88979786D01*
X146699697Y-88921987D01*
X146699696Y-88921985D01*
X146698146Y-88912196D01*
X146640550Y-88799158D01*
X146550842Y-88709450D01*
X146437804Y-88651854D01*
X146428015Y-88650304D01*
X146428013Y-88650303D01*
X146322293Y-88633559D01*
X146312500Y-88632008D01*
X146302707Y-88633559D01*
X146196987Y-88650303D01*
X146196985Y-88650304D01*
X146187196Y-88651854D01*
X146074158Y-88709450D01*
X145984450Y-88799158D01*
X145926854Y-88912196D01*
X145925304Y-88921985D01*
X145925303Y-88921987D01*
X145916149Y-88979786D01*
X145907008Y-89037500D01*
X144667992Y-89037500D01*
X144658851Y-88979786D01*
X144649697Y-88921987D01*
X144649696Y-88921985D01*
X144648146Y-88912196D01*
X144590550Y-88799158D01*
X144500842Y-88709450D01*
X144387804Y-88651854D01*
X144378015Y-88650304D01*
X144378013Y-88650303D01*
X144272293Y-88633559D01*
X144262500Y-88632008D01*
X144252707Y-88633559D01*
X144146987Y-88650303D01*
X144146985Y-88650304D01*
X144137196Y-88651854D01*
X144024158Y-88709450D01*
X143934450Y-88799158D01*
X143876854Y-88912196D01*
X143875304Y-88921985D01*
X143875303Y-88921987D01*
X143866149Y-88979786D01*
X143857008Y-89037500D01*
X141034529Y-89037500D01*
X141050320Y-88990981D01*
X141050320Y-88990979D01*
X141052178Y-88985507D01*
X141053007Y-88979791D01*
X141053008Y-88979786D01*
X141073613Y-88837669D01*
X141081200Y-88785342D01*
X141082715Y-88727500D01*
X141064208Y-88526091D01*
X141062325Y-88519412D01*
X141028391Y-88399093D01*
X141009307Y-88331426D01*
X140919851Y-88150027D01*
X140901579Y-88125557D01*
X140802288Y-87992591D01*
X140802287Y-87992590D01*
X140798835Y-87987967D01*
X140791959Y-87981611D01*
X140654553Y-87854594D01*
X140654551Y-87854592D01*
X140650312Y-87850674D01*
X140645429Y-87847593D01*
X140484137Y-87745825D01*
X140479257Y-87742746D01*
X140291398Y-87667798D01*
X140093026Y-87628339D01*
X140087252Y-87628263D01*
X140087248Y-87628263D01*
X139984757Y-87626922D01*
X139890786Y-87625692D01*
X139885089Y-87626671D01*
X139885088Y-87626671D01*
X139697146Y-87658965D01*
X139697145Y-87658965D01*
X139691449Y-87659944D01*
X139501693Y-87729949D01*
X139496732Y-87732901D01*
X139496731Y-87732901D01*
X139333709Y-87829889D01*
X139327871Y-87833362D01*
X139175805Y-87966720D01*
X139050589Y-88125557D01*
X138956414Y-88304553D01*
X138896437Y-88497713D01*
X138872664Y-88698569D01*
X138885892Y-88900394D01*
X138900994Y-88959860D01*
X138930828Y-89077329D01*
X138935678Y-89096428D01*
X139020356Y-89280107D01*
X139137088Y-89445280D01*
X139281966Y-89586413D01*
X139286771Y-89589624D01*
X139286774Y-89589626D01*
X139311631Y-89606235D01*
X139357159Y-89660711D01*
X139366008Y-89731154D01*
X139335367Y-89795199D01*
X139274965Y-89832510D01*
X139241630Y-89837000D01*
X138173181Y-89837000D01*
X138105060Y-89816998D01*
X138058567Y-89763342D01*
X138048463Y-89693068D01*
X138077957Y-89628488D01*
X138092612Y-89614126D01*
X138214568Y-89512696D01*
X138214573Y-89512691D01*
X138219005Y-89509005D01*
X138348337Y-89353501D01*
X138356431Y-89339049D01*
X138400026Y-89261203D01*
X138447164Y-89177031D01*
X138451994Y-89162804D01*
X138510320Y-88990981D01*
X138510320Y-88990979D01*
X138512178Y-88985507D01*
X138513007Y-88979791D01*
X138513008Y-88979786D01*
X138533613Y-88837669D01*
X138541200Y-88785342D01*
X138542715Y-88727500D01*
X138524208Y-88526091D01*
X138522325Y-88519412D01*
X138488391Y-88399093D01*
X138469307Y-88331426D01*
X138379851Y-88150027D01*
X138361579Y-88125557D01*
X138262288Y-87992591D01*
X138262287Y-87992590D01*
X138258835Y-87987967D01*
X138251959Y-87981611D01*
X138114553Y-87854594D01*
X138114551Y-87854592D01*
X138110312Y-87850674D01*
X138105429Y-87847593D01*
X137944137Y-87745825D01*
X137939257Y-87742746D01*
X137751398Y-87667798D01*
X137553026Y-87628339D01*
X137547252Y-87628263D01*
X137547248Y-87628263D01*
X137444757Y-87626922D01*
X137350786Y-87625692D01*
X137345089Y-87626671D01*
X137345088Y-87626671D01*
X137157146Y-87658965D01*
X137157145Y-87658965D01*
X137151449Y-87659944D01*
X136961693Y-87729949D01*
X136956732Y-87732901D01*
X136956731Y-87732901D01*
X136793709Y-87829889D01*
X136787871Y-87833362D01*
X136635805Y-87966720D01*
X136510589Y-88125557D01*
X136416414Y-88304553D01*
X136387059Y-88399093D01*
X136385044Y-88405583D01*
X136345741Y-88464709D01*
X136280712Y-88493200D01*
X136210603Y-88482011D01*
X136157673Y-88434694D01*
X136148625Y-88415220D01*
X136148146Y-88412196D01*
X136090550Y-88299158D01*
X136000842Y-88209450D01*
X135887804Y-88151854D01*
X135878015Y-88150304D01*
X135878013Y-88150303D01*
X135772293Y-88133559D01*
X135762500Y-88132008D01*
X135752707Y-88133559D01*
X135646987Y-88150303D01*
X135646985Y-88150304D01*
X135637196Y-88151854D01*
X135524158Y-88209450D01*
X135434450Y-88299158D01*
X135376854Y-88412196D01*
X135375304Y-88421985D01*
X135375303Y-88421987D01*
X135360324Y-88516566D01*
X135357008Y-88537500D01*
X135358559Y-88547293D01*
X135375120Y-88651854D01*
X135376854Y-88662804D01*
X135434450Y-88775842D01*
X135524158Y-88865550D01*
X135637196Y-88923146D01*
X135646985Y-88924696D01*
X135646987Y-88924697D01*
X135752707Y-88941441D01*
X135762500Y-88942992D01*
X135772293Y-88941441D01*
X135878013Y-88924697D01*
X135878015Y-88924696D01*
X135887804Y-88923146D01*
X136000842Y-88865550D01*
X136090550Y-88775842D01*
X136095051Y-88767009D01*
X136095052Y-88767008D01*
X136101528Y-88754297D01*
X136150275Y-88702681D01*
X136219190Y-88685615D01*
X136286392Y-88708515D01*
X136330545Y-88764112D01*
X136339525Y-88803258D01*
X136342967Y-88855770D01*
X136345892Y-88900394D01*
X136360994Y-88959860D01*
X136390828Y-89077329D01*
X136395678Y-89096428D01*
X136480356Y-89280107D01*
X136597088Y-89445280D01*
X136741966Y-89586413D01*
X136746771Y-89589624D01*
X136746774Y-89589626D01*
X136771631Y-89606235D01*
X136817159Y-89660711D01*
X136826008Y-89731154D01*
X136795367Y-89795199D01*
X136734965Y-89832510D01*
X136701630Y-89837000D01*
X130268392Y-89837000D01*
X130231126Y-89836967D01*
X130231124Y-89836967D01*
X130216937Y-89836955D01*
X130204146Y-89843097D01*
X130199233Y-89844213D01*
X130191683Y-89846850D01*
X130187149Y-89849032D01*
X130173315Y-89852188D01*
X130162220Y-89861029D01*
X130157346Y-89863375D01*
X130151494Y-89867046D01*
X130147262Y-89870412D01*
X130134476Y-89876552D01*
X130125617Y-89887630D01*
X130121674Y-89890766D01*
X130108900Y-89903518D01*
X130106385Y-89905522D01*
X130040645Y-89932330D01*
X129970846Y-89919340D01*
X129919151Y-89870677D01*
X129904618Y-89833177D01*
X129904399Y-89832144D01*
X129897551Y-89799929D01*
X129876425Y-89752479D01*
X129821108Y-89628233D01*
X129821106Y-89628230D01*
X129818422Y-89622201D01*
X129792421Y-89586413D01*
X129707948Y-89470147D01*
X129704069Y-89464808D01*
X129699166Y-89460393D01*
X129694743Y-89455481D01*
X129695675Y-89454642D01*
X129662042Y-89400053D01*
X129663393Y-89329069D01*
X129702906Y-89270084D01*
X129768036Y-89241825D01*
X129830690Y-89249995D01*
X129942952Y-89295238D01*
X129942957Y-89295240D01*
X129948519Y-89297481D01*
X129954400Y-89298629D01*
X129954405Y-89298631D01*
X130150176Y-89336862D01*
X130150179Y-89336862D01*
X130154622Y-89337730D01*
X130160143Y-89338000D01*
X130314969Y-89338000D01*
X130471546Y-89323061D01*
X130477302Y-89321372D01*
X130477304Y-89321372D01*
X130566387Y-89295238D01*
X130673049Y-89263947D01*
X130785583Y-89205988D01*
X130854408Y-89170541D01*
X130854411Y-89170539D01*
X130859739Y-89167795D01*
X130937587Y-89106645D01*
X131020162Y-89041782D01*
X131020167Y-89041778D01*
X131024879Y-89038076D01*
X131049269Y-89009969D01*
X131158579Y-88884002D01*
X131158583Y-88883997D01*
X131162510Y-88879471D01*
X131267666Y-88697701D01*
X131308141Y-88581145D01*
X131334586Y-88504991D01*
X131334586Y-88504989D01*
X131336553Y-88499326D01*
X131344379Y-88445353D01*
X131365825Y-88297444D01*
X131365825Y-88297441D01*
X131366686Y-88291504D01*
X131356977Y-88081733D01*
X131307776Y-87877582D01*
X131305216Y-87871950D01*
X131241429Y-87731658D01*
X131220860Y-87686419D01*
X131115426Y-87537785D01*
X131102829Y-87520026D01*
X131102828Y-87520025D01*
X131099363Y-87515140D01*
X130947669Y-87369925D01*
X130888946Y-87332008D01*
X130776291Y-87259267D01*
X130776288Y-87259266D01*
X130771254Y-87256015D01*
X130739178Y-87243088D01*
X130582045Y-87179761D01*
X130582042Y-87179760D01*
X130576481Y-87177519D01*
X130570600Y-87176371D01*
X130570595Y-87176369D01*
X130374824Y-87138138D01*
X130374821Y-87138138D01*
X130370378Y-87137270D01*
X130364857Y-87137000D01*
X130210031Y-87137000D01*
X130053454Y-87151939D01*
X130047698Y-87153628D01*
X130047696Y-87153628D01*
X129975708Y-87174747D01*
X129851951Y-87211053D01*
X129769005Y-87253773D01*
X129670592Y-87304459D01*
X129670589Y-87304461D01*
X129665261Y-87307205D01*
X129652518Y-87317215D01*
X129504838Y-87433218D01*
X129504833Y-87433222D01*
X129500121Y-87436924D01*
X129496190Y-87441454D01*
X129496189Y-87441455D01*
X129366421Y-87590998D01*
X129366417Y-87591003D01*
X129362490Y-87595529D01*
X129257334Y-87777299D01*
X129188447Y-87975674D01*
X129187586Y-87981609D01*
X129187586Y-87981611D01*
X129162416Y-88155208D01*
X129158314Y-88183496D01*
X129168023Y-88393267D01*
X129169427Y-88399092D01*
X129169427Y-88399093D01*
X129214761Y-88587197D01*
X129217224Y-88597418D01*
X129219706Y-88602876D01*
X129219707Y-88602880D01*
X129267736Y-88708515D01*
X129304140Y-88788581D01*
X129425637Y-88959860D01*
X129429960Y-88963998D01*
X129429964Y-88964003D01*
X129484044Y-89015773D01*
X129519420Y-89077329D01*
X129515901Y-89148238D01*
X129474604Y-89205988D01*
X129408641Y-89232244D01*
X129357978Y-89226624D01*
X129205982Y-89177238D01*
X129199419Y-89176548D01*
X129199418Y-89176548D01*
X129175789Y-89174065D01*
X129061004Y-89162000D01*
X127663996Y-89162000D01*
X127549211Y-89174065D01*
X127525582Y-89176548D01*
X127525581Y-89176548D01*
X127519018Y-89177238D01*
X127333992Y-89237356D01*
X127328270Y-89240659D01*
X127328269Y-89240660D01*
X127233737Y-89295238D01*
X127165508Y-89334630D01*
X127160601Y-89339048D01*
X127160600Y-89339049D01*
X127031290Y-89455481D01*
X127020931Y-89464808D01*
X127017052Y-89470147D01*
X126932580Y-89586413D01*
X126906578Y-89622201D01*
X126903894Y-89628230D01*
X126903892Y-89628233D01*
X126848575Y-89752479D01*
X126827449Y-89799929D01*
X126826076Y-89806389D01*
X126826073Y-89806399D01*
X126819420Y-89837697D01*
X126785692Y-89900171D01*
X126723542Y-89934492D01*
X126696174Y-89937500D01*
X124128826Y-89937500D01*
X124060705Y-89917498D01*
X124014212Y-89863842D01*
X124005580Y-89837697D01*
X123998927Y-89806399D01*
X123998924Y-89806389D01*
X123997551Y-89799929D01*
X123976425Y-89752479D01*
X123921108Y-89628233D01*
X123921106Y-89628230D01*
X123918422Y-89622201D01*
X123892421Y-89586413D01*
X123807948Y-89470147D01*
X123804069Y-89464808D01*
X123793711Y-89455481D01*
X123664400Y-89339049D01*
X123664399Y-89339048D01*
X123659492Y-89334630D01*
X123591263Y-89295238D01*
X123496731Y-89240660D01*
X123496730Y-89240659D01*
X123491008Y-89237356D01*
X123305982Y-89177238D01*
X123299419Y-89176548D01*
X123299418Y-89176548D01*
X123275789Y-89174065D01*
X123161004Y-89162000D01*
X121763996Y-89162000D01*
X121649211Y-89174065D01*
X121625582Y-89176548D01*
X121625581Y-89176548D01*
X121619018Y-89177238D01*
X121433992Y-89237356D01*
X121428270Y-89240659D01*
X121428269Y-89240660D01*
X121333737Y-89295238D01*
X121265508Y-89334630D01*
X121260601Y-89339048D01*
X121260600Y-89339049D01*
X121131290Y-89455481D01*
X121120931Y-89464808D01*
X121117052Y-89470147D01*
X121032580Y-89586413D01*
X121006578Y-89622201D01*
X121003894Y-89628230D01*
X121003892Y-89628233D01*
X120948575Y-89752479D01*
X120927449Y-89799929D01*
X120926076Y-89806389D01*
X120926073Y-89806399D01*
X120919420Y-89837697D01*
X120885692Y-89900171D01*
X120823542Y-89934492D01*
X120796174Y-89937500D01*
X120502483Y-89937500D01*
X120434362Y-89917498D01*
X120424304Y-89908410D01*
X120423450Y-89909477D01*
X120416331Y-89903784D01*
X120403584Y-89891015D01*
X120399648Y-89887873D01*
X120390805Y-89876776D01*
X120378023Y-89870611D01*
X120373796Y-89867237D01*
X120367953Y-89863558D01*
X120363090Y-89861207D01*
X120352008Y-89852344D01*
X120338180Y-89849164D01*
X120333649Y-89846974D01*
X120326103Y-89844324D01*
X120321193Y-89843200D01*
X120308413Y-89837035D01*
X120285345Y-89837015D01*
X120285347Y-89834990D01*
X120285281Y-89834974D01*
X120285281Y-89837000D01*
X120268392Y-89837000D01*
X120216937Y-89836955D01*
X120216941Y-89832150D01*
X120216843Y-89832144D01*
X120216843Y-89837000D01*
X118713058Y-89837000D01*
X118644937Y-89816998D01*
X118633124Y-89808399D01*
X118564986Y-89752479D01*
X118547521Y-89735014D01*
X118491601Y-89666876D01*
X118463847Y-89601529D01*
X118463000Y-89586942D01*
X118463000Y-87460807D01*
X123608106Y-87460807D01*
X123636564Y-87601944D01*
X123701929Y-87730230D01*
X123799384Y-87836212D01*
X123921750Y-87912082D01*
X124060012Y-87952251D01*
X124066827Y-87952751D01*
X124067904Y-87952831D01*
X124067917Y-87952831D01*
X124070212Y-87953000D01*
X124173570Y-87953000D01*
X124177815Y-87952418D01*
X124177822Y-87952418D01*
X124236731Y-87944348D01*
X124280146Y-87938401D01*
X124288031Y-87934989D01*
X124404402Y-87884631D01*
X124404405Y-87884629D01*
X124412283Y-87881220D01*
X124524175Y-87790612D01*
X124607579Y-87673251D01*
X124639584Y-87584354D01*
X124653442Y-87545863D01*
X124653442Y-87545861D01*
X124656350Y-87537785D01*
X124659187Y-87499158D01*
X124662798Y-87449978D01*
X124666894Y-87394193D01*
X124638436Y-87253056D01*
X124573071Y-87124770D01*
X124555248Y-87105387D01*
X124481430Y-87025111D01*
X124475616Y-87018788D01*
X124398945Y-86971250D01*
X157623258Y-86971250D01*
X157624809Y-86981043D01*
X157641283Y-87085055D01*
X157643104Y-87096554D01*
X157700700Y-87209592D01*
X157790408Y-87299300D01*
X157903446Y-87356896D01*
X157913235Y-87358446D01*
X157913237Y-87358447D01*
X158018957Y-87375191D01*
X158028750Y-87376742D01*
X158038543Y-87375191D01*
X158144263Y-87358447D01*
X158144265Y-87358446D01*
X158154054Y-87356896D01*
X158267092Y-87299300D01*
X158356800Y-87209592D01*
X158414396Y-87096554D01*
X158416218Y-87085055D01*
X158417810Y-87075000D01*
X170519508Y-87075000D01*
X170521059Y-87084793D01*
X170531604Y-87151369D01*
X170539354Y-87200304D01*
X170596950Y-87313342D01*
X170686658Y-87403050D01*
X170799696Y-87460646D01*
X170809485Y-87462196D01*
X170809487Y-87462197D01*
X170915207Y-87478941D01*
X170925000Y-87480492D01*
X170934793Y-87478941D01*
X171040513Y-87462197D01*
X171040515Y-87462196D01*
X171050304Y-87460646D01*
X171163342Y-87403050D01*
X171253050Y-87313342D01*
X171310646Y-87200304D01*
X171318397Y-87151369D01*
X171328941Y-87084793D01*
X171330492Y-87075000D01*
X171327955Y-87058982D01*
X171312197Y-86959487D01*
X171312196Y-86959485D01*
X171310646Y-86949696D01*
X171253050Y-86836658D01*
X171163342Y-86746950D01*
X171050304Y-86689354D01*
X171040515Y-86687804D01*
X171040513Y-86687803D01*
X170934793Y-86671059D01*
X170925000Y-86669508D01*
X170915207Y-86671059D01*
X170809487Y-86687803D01*
X170809485Y-86687804D01*
X170799696Y-86689354D01*
X170686658Y-86746950D01*
X170596950Y-86836658D01*
X170539354Y-86949696D01*
X170537804Y-86959485D01*
X170537803Y-86959487D01*
X170522045Y-87058982D01*
X170519508Y-87075000D01*
X158417810Y-87075000D01*
X158432691Y-86981043D01*
X158434242Y-86971250D01*
X158422965Y-86900050D01*
X158415947Y-86855737D01*
X158415946Y-86855735D01*
X158414396Y-86845946D01*
X158356800Y-86732908D01*
X158267092Y-86643200D01*
X158154054Y-86585604D01*
X158144265Y-86584054D01*
X158144263Y-86584053D01*
X158039749Y-86567500D01*
X173627008Y-86567500D01*
X173628559Y-86577293D01*
X173641834Y-86661106D01*
X173646854Y-86692804D01*
X173704450Y-86805842D01*
X173794158Y-86895550D01*
X173907196Y-86953146D01*
X173916985Y-86954696D01*
X173916987Y-86954697D01*
X174022707Y-86971441D01*
X174032500Y-86972992D01*
X174042293Y-86971441D01*
X174148013Y-86954697D01*
X174148015Y-86954696D01*
X174157804Y-86953146D01*
X174270842Y-86895550D01*
X174360550Y-86805842D01*
X174418146Y-86692804D01*
X174423167Y-86661106D01*
X174436441Y-86577293D01*
X174437992Y-86567500D01*
X174434370Y-86544632D01*
X174419697Y-86451987D01*
X174419696Y-86451985D01*
X174418146Y-86442196D01*
X174360550Y-86329158D01*
X174270842Y-86239450D01*
X174157804Y-86181854D01*
X174148015Y-86180304D01*
X174148013Y-86180303D01*
X174042293Y-86163559D01*
X174032500Y-86162008D01*
X174022707Y-86163559D01*
X173916987Y-86180303D01*
X173916985Y-86180304D01*
X173907196Y-86181854D01*
X173794158Y-86239450D01*
X173704450Y-86329158D01*
X173646854Y-86442196D01*
X173645304Y-86451985D01*
X173645303Y-86451987D01*
X173630630Y-86544632D01*
X173627008Y-86567500D01*
X158039749Y-86567500D01*
X158038543Y-86567309D01*
X158028750Y-86565758D01*
X158018957Y-86567309D01*
X157913237Y-86584053D01*
X157913235Y-86584054D01*
X157903446Y-86585604D01*
X157790408Y-86643200D01*
X157700700Y-86732908D01*
X157643104Y-86845946D01*
X157641554Y-86855735D01*
X157641553Y-86855737D01*
X157634535Y-86900050D01*
X157623258Y-86971250D01*
X124398945Y-86971250D01*
X124353250Y-86942918D01*
X124214988Y-86902749D01*
X124208173Y-86902249D01*
X124207096Y-86902169D01*
X124207083Y-86902169D01*
X124204788Y-86902000D01*
X124101430Y-86902000D01*
X124097185Y-86902582D01*
X124097178Y-86902582D01*
X124038269Y-86910652D01*
X123994854Y-86916599D01*
X123986970Y-86920011D01*
X123986969Y-86920011D01*
X123870598Y-86970369D01*
X123870595Y-86970371D01*
X123862717Y-86973780D01*
X123750825Y-87064388D01*
X123667421Y-87181749D01*
X123644847Y-87244451D01*
X123623480Y-87303800D01*
X123618650Y-87317215D01*
X123618022Y-87325773D01*
X123618021Y-87325776D01*
X123613616Y-87385774D01*
X123608106Y-87460807D01*
X118463000Y-87460807D01*
X118463000Y-81680807D01*
X123608106Y-81680807D01*
X123636564Y-81821944D01*
X123701929Y-81950230D01*
X123707742Y-81956552D01*
X123707743Y-81956553D01*
X123735688Y-81986943D01*
X123799384Y-82056212D01*
X123921750Y-82132082D01*
X124060012Y-82172251D01*
X124066827Y-82172751D01*
X124067904Y-82172831D01*
X124067917Y-82172831D01*
X124070212Y-82173000D01*
X124173570Y-82173000D01*
X124177815Y-82172418D01*
X124177822Y-82172418D01*
X124236731Y-82164348D01*
X124280146Y-82158401D01*
X124288031Y-82154989D01*
X124404402Y-82104631D01*
X124404405Y-82104629D01*
X124412283Y-82101220D01*
X124524175Y-82010612D01*
X124607579Y-81893251D01*
X124637929Y-81808950D01*
X124653442Y-81765863D01*
X124653442Y-81765861D01*
X124656350Y-81757785D01*
X124658261Y-81731770D01*
X124666265Y-81622756D01*
X124666894Y-81614193D01*
X124640947Y-81485508D01*
X124640134Y-81481477D01*
X124638436Y-81473056D01*
X124573071Y-81344770D01*
X124561433Y-81332113D01*
X124511783Y-81278120D01*
X124475616Y-81238788D01*
X124353250Y-81162918D01*
X124214988Y-81122749D01*
X124208173Y-81122249D01*
X124207096Y-81122169D01*
X124207083Y-81122169D01*
X124204788Y-81122000D01*
X124101430Y-81122000D01*
X124097185Y-81122582D01*
X124097178Y-81122582D01*
X124038269Y-81130652D01*
X123994854Y-81136599D01*
X123986970Y-81140011D01*
X123986969Y-81140011D01*
X123870598Y-81190369D01*
X123870595Y-81190371D01*
X123862717Y-81193780D01*
X123750825Y-81284388D01*
X123709949Y-81341906D01*
X123674747Y-81391441D01*
X123667421Y-81401749D01*
X123644504Y-81465402D01*
X123621968Y-81528000D01*
X123618650Y-81537215D01*
X123618022Y-81545773D01*
X123618021Y-81545776D01*
X123616209Y-81570455D01*
X123608106Y-81680807D01*
X118463000Y-81680807D01*
X118463000Y-77994545D01*
X119218606Y-77994545D01*
X119219342Y-78001547D01*
X119219342Y-78001549D01*
X119234621Y-78146911D01*
X119236816Y-78167797D01*
X119261264Y-78239613D01*
X119283724Y-78305589D01*
X119292956Y-78332709D01*
X119296646Y-78338707D01*
X119296647Y-78338709D01*
X119343897Y-78415513D01*
X119384238Y-78481086D01*
X119428800Y-78526591D01*
X119488757Y-78587817D01*
X119506124Y-78605552D01*
X119652556Y-78699921D01*
X119659179Y-78702332D01*
X119659182Y-78702333D01*
X119809634Y-78757093D01*
X119809639Y-78757094D01*
X119816257Y-78759503D01*
X119950801Y-78776500D01*
X120043800Y-78776500D01*
X120173121Y-78761994D01*
X120204258Y-78751151D01*
X120330990Y-78707019D01*
X120330992Y-78707018D01*
X120337637Y-78704704D01*
X120345292Y-78699921D01*
X120479399Y-78616121D01*
X120485373Y-78612388D01*
X120497323Y-78600521D01*
X120603988Y-78494599D01*
X120603991Y-78494595D01*
X120608985Y-78489636D01*
X120618220Y-78475085D01*
X120670894Y-78392082D01*
X120702329Y-78342549D01*
X120720967Y-78290207D01*
X120758405Y-78185071D01*
X120758406Y-78185066D01*
X120760767Y-78178436D01*
X120762267Y-78165863D01*
X120780560Y-78012448D01*
X120781394Y-78005455D01*
X120780658Y-77998451D01*
X120763920Y-77839203D01*
X120763920Y-77839201D01*
X120763184Y-77832203D01*
X120714000Y-77687723D01*
X120709315Y-77673961D01*
X120709314Y-77673958D01*
X120707044Y-77667291D01*
X120700991Y-77657451D01*
X120619454Y-77524915D01*
X120619453Y-77524914D01*
X120615762Y-77518914D01*
X120551024Y-77452806D01*
X120498803Y-77399479D01*
X120498802Y-77399478D01*
X120493876Y-77394448D01*
X120347444Y-77300079D01*
X120340821Y-77297668D01*
X120340818Y-77297667D01*
X120190366Y-77242907D01*
X120190361Y-77242906D01*
X120183743Y-77240497D01*
X120049199Y-77223500D01*
X119956200Y-77223500D01*
X119826879Y-77238006D01*
X119820231Y-77240321D01*
X119669010Y-77292981D01*
X119669008Y-77292982D01*
X119662363Y-77295296D01*
X119656393Y-77299027D01*
X119656392Y-77299027D01*
X119520743Y-77383790D01*
X119514627Y-77387612D01*
X119509629Y-77392575D01*
X119509628Y-77392576D01*
X119396012Y-77505401D01*
X119396009Y-77505405D01*
X119391015Y-77510364D01*
X119387241Y-77516310D01*
X119387240Y-77516312D01*
X119363064Y-77554408D01*
X119297671Y-77657451D01*
X119295306Y-77664093D01*
X119241595Y-77814929D01*
X119241594Y-77814934D01*
X119239233Y-77821564D01*
X119238400Y-77828552D01*
X119238399Y-77828555D01*
X119232130Y-77881132D01*
X119218606Y-77994545D01*
X118463000Y-77994545D01*
X118463000Y-76488058D01*
X118483002Y-76419937D01*
X118491601Y-76408124D01*
X118547521Y-76339986D01*
X118564986Y-76322521D01*
X118633124Y-76266601D01*
X118698471Y-76238847D01*
X118713058Y-76238000D01*
X120256608Y-76238000D01*
X120293874Y-76238033D01*
X120293876Y-76238033D01*
X120308063Y-76238045D01*
X120320854Y-76231903D01*
X120325767Y-76230787D01*
X120333317Y-76228150D01*
X120337851Y-76225968D01*
X120351685Y-76222812D01*
X120362780Y-76213971D01*
X120367654Y-76211625D01*
X120373506Y-76207954D01*
X120377738Y-76204588D01*
X120390524Y-76198448D01*
X120399384Y-76187369D01*
X120403324Y-76184235D01*
X120416097Y-76171484D01*
X120416444Y-76171208D01*
X120423224Y-76165805D01*
X120423225Y-76165804D01*
X120426073Y-76169378D01*
X120462103Y-76144125D01*
X120502422Y-76137500D01*
X120796174Y-76137500D01*
X120864295Y-76157502D01*
G37*
G04 #@! TD.AperFunction*
G04 #@! TA.AperFunction,Conductor*
G36*
X136766792Y-76258002D02*
G01*
X136813285Y-76311658D01*
X136823389Y-76381932D01*
X136793895Y-76446512D01*
X136781750Y-76458730D01*
X136635805Y-76586720D01*
X136510589Y-76745557D01*
X136416414Y-76924553D01*
X136356437Y-77117713D01*
X136332664Y-77318569D01*
X136345892Y-77520394D01*
X136347315Y-77525996D01*
X136386867Y-77681733D01*
X136395678Y-77716428D01*
X136480356Y-77900107D01*
X136483689Y-77904823D01*
X136581811Y-78043663D01*
X136597088Y-78065280D01*
X136741966Y-78206413D01*
X136910137Y-78318782D01*
X136915440Y-78321060D01*
X136915443Y-78321062D01*
X137072599Y-78388581D01*
X137095970Y-78398622D01*
X137293240Y-78443260D01*
X137299009Y-78443487D01*
X137299012Y-78443487D01*
X137375183Y-78446479D01*
X137495342Y-78451200D01*
X137581632Y-78438689D01*
X137689786Y-78423008D01*
X137689791Y-78423007D01*
X137695507Y-78422178D01*
X137700979Y-78420320D01*
X137700981Y-78420320D01*
X137881567Y-78359019D01*
X137881569Y-78359018D01*
X137887031Y-78357164D01*
X138063501Y-78258337D01*
X138125933Y-78206413D01*
X138214573Y-78132691D01*
X138219005Y-78129005D01*
X138348337Y-77973501D01*
X138447164Y-77797031D01*
X138512178Y-77605507D01*
X138513007Y-77599791D01*
X138513008Y-77599786D01*
X138530726Y-77477582D01*
X138541200Y-77405342D01*
X138542715Y-77347500D01*
X138524208Y-77146091D01*
X138469307Y-76951426D01*
X138379851Y-76770027D01*
X138361579Y-76745557D01*
X138262288Y-76612591D01*
X138262287Y-76612590D01*
X138258835Y-76607967D01*
X138235850Y-76586720D01*
X138114553Y-76474594D01*
X138114551Y-76474592D01*
X138110312Y-76470674D01*
X138105430Y-76467594D01*
X138100843Y-76464074D01*
X138102525Y-76461882D01*
X138063263Y-76417437D01*
X138052487Y-76347263D01*
X138081360Y-76282403D01*
X138140716Y-76243449D01*
X138177370Y-76238000D01*
X139238671Y-76238000D01*
X139306792Y-76258002D01*
X139353285Y-76311658D01*
X139363389Y-76381932D01*
X139333895Y-76446512D01*
X139321750Y-76458730D01*
X139175805Y-76586720D01*
X139050589Y-76745557D01*
X138956414Y-76924553D01*
X138896437Y-77117713D01*
X138872664Y-77318569D01*
X138885892Y-77520394D01*
X138887315Y-77525996D01*
X138926867Y-77681733D01*
X138935678Y-77716428D01*
X139020356Y-77900107D01*
X139023689Y-77904823D01*
X139121811Y-78043663D01*
X139137088Y-78065280D01*
X139281966Y-78206413D01*
X139450137Y-78318782D01*
X139455440Y-78321060D01*
X139455443Y-78321062D01*
X139612599Y-78388581D01*
X139635970Y-78398622D01*
X139833240Y-78443260D01*
X139839009Y-78443487D01*
X139839012Y-78443487D01*
X139915183Y-78446479D01*
X140035342Y-78451200D01*
X140121632Y-78438689D01*
X140229786Y-78423008D01*
X140229791Y-78423007D01*
X140235507Y-78422178D01*
X140240979Y-78420320D01*
X140240981Y-78420320D01*
X140421567Y-78359019D01*
X140421569Y-78359018D01*
X140427031Y-78357164D01*
X140603501Y-78258337D01*
X140665933Y-78206413D01*
X140754573Y-78132691D01*
X140759005Y-78129005D01*
X140888337Y-77973501D01*
X140987164Y-77797031D01*
X141052178Y-77605507D01*
X141053007Y-77599791D01*
X141053008Y-77599786D01*
X141070726Y-77477582D01*
X141081200Y-77405342D01*
X141082715Y-77347500D01*
X141064208Y-77146091D01*
X141009307Y-76951426D01*
X140919851Y-76770027D01*
X140901579Y-76745557D01*
X140802288Y-76612591D01*
X140802287Y-76612590D01*
X140798835Y-76607967D01*
X140775850Y-76586720D01*
X140654553Y-76474594D01*
X140654551Y-76474592D01*
X140650312Y-76470674D01*
X140645430Y-76467594D01*
X140640843Y-76464074D01*
X140642525Y-76461882D01*
X140603263Y-76417437D01*
X140592487Y-76347263D01*
X140621360Y-76282403D01*
X140680716Y-76243449D01*
X140717370Y-76238000D01*
X152808671Y-76238000D01*
X152876792Y-76258002D01*
X152923285Y-76311658D01*
X152933389Y-76381932D01*
X152903895Y-76446512D01*
X152891750Y-76458730D01*
X152745805Y-76586720D01*
X152620589Y-76745557D01*
X152526414Y-76924553D01*
X152466437Y-77117713D01*
X152442664Y-77318569D01*
X152455892Y-77520394D01*
X152457315Y-77525996D01*
X152496867Y-77681733D01*
X152505678Y-77716428D01*
X152590356Y-77900107D01*
X152593689Y-77904823D01*
X152691811Y-78043663D01*
X152707088Y-78065280D01*
X152851966Y-78206413D01*
X153020137Y-78318782D01*
X153025440Y-78321060D01*
X153025443Y-78321062D01*
X153182599Y-78388581D01*
X153205970Y-78398622D01*
X153403240Y-78443260D01*
X153409009Y-78443487D01*
X153409012Y-78443487D01*
X153485183Y-78446479D01*
X153605342Y-78451200D01*
X153691632Y-78438689D01*
X153799786Y-78423008D01*
X153799791Y-78423007D01*
X153805507Y-78422178D01*
X153810979Y-78420320D01*
X153810981Y-78420320D01*
X153991567Y-78359019D01*
X153991569Y-78359018D01*
X153997031Y-78357164D01*
X154173501Y-78258337D01*
X154235933Y-78206413D01*
X154324573Y-78132691D01*
X154329005Y-78129005D01*
X154458337Y-77973501D01*
X154557164Y-77797031D01*
X154622178Y-77605507D01*
X154623007Y-77599791D01*
X154623008Y-77599786D01*
X154640726Y-77477582D01*
X154651200Y-77405342D01*
X154652715Y-77347500D01*
X154634208Y-77146091D01*
X154579307Y-76951426D01*
X154489851Y-76770027D01*
X154471579Y-76745557D01*
X154372288Y-76612591D01*
X154372287Y-76612590D01*
X154368835Y-76607967D01*
X154345850Y-76586720D01*
X154224553Y-76474594D01*
X154224551Y-76474592D01*
X154220312Y-76470674D01*
X154215430Y-76467594D01*
X154210843Y-76464074D01*
X154212525Y-76461882D01*
X154173263Y-76417437D01*
X154162487Y-76347263D01*
X154191360Y-76282403D01*
X154250716Y-76243449D01*
X154287370Y-76238000D01*
X155348671Y-76238000D01*
X155416792Y-76258002D01*
X155463285Y-76311658D01*
X155473389Y-76381932D01*
X155443895Y-76446512D01*
X155431750Y-76458730D01*
X155285805Y-76586720D01*
X155160589Y-76745557D01*
X155066414Y-76924553D01*
X155006437Y-77117713D01*
X154982664Y-77318569D01*
X154995892Y-77520394D01*
X154997315Y-77525996D01*
X155036867Y-77681733D01*
X155045678Y-77716428D01*
X155130356Y-77900107D01*
X155133689Y-77904823D01*
X155231811Y-78043663D01*
X155247088Y-78065280D01*
X155391966Y-78206413D01*
X155560137Y-78318782D01*
X155565440Y-78321060D01*
X155565443Y-78321062D01*
X155722599Y-78388581D01*
X155745970Y-78398622D01*
X155943240Y-78443260D01*
X155949009Y-78443487D01*
X155949012Y-78443487D01*
X156025183Y-78446479D01*
X156145342Y-78451200D01*
X156231632Y-78438689D01*
X156339786Y-78423008D01*
X156339791Y-78423007D01*
X156345507Y-78422178D01*
X156350979Y-78420320D01*
X156350981Y-78420320D01*
X156531567Y-78359019D01*
X156531569Y-78359018D01*
X156537031Y-78357164D01*
X156713501Y-78258337D01*
X156775933Y-78206413D01*
X156864573Y-78132691D01*
X156869005Y-78129005D01*
X156998337Y-77973501D01*
X157097164Y-77797031D01*
X157162178Y-77605507D01*
X157163007Y-77599791D01*
X157163008Y-77599786D01*
X157180726Y-77477582D01*
X157191200Y-77405342D01*
X157192715Y-77347500D01*
X157174208Y-77146091D01*
X157119307Y-76951426D01*
X157029851Y-76770027D01*
X157011579Y-76745557D01*
X156912288Y-76612591D01*
X156912287Y-76612590D01*
X156908835Y-76607967D01*
X156885850Y-76586720D01*
X156764553Y-76474594D01*
X156764551Y-76474592D01*
X156760312Y-76470674D01*
X156755430Y-76467594D01*
X156750843Y-76464074D01*
X156752525Y-76461882D01*
X156713263Y-76417437D01*
X156702487Y-76347263D01*
X156731360Y-76282403D01*
X156790716Y-76243449D01*
X156827370Y-76238000D01*
X157311942Y-76238000D01*
X157380063Y-76258002D01*
X157391876Y-76266601D01*
X157460017Y-76322523D01*
X157477479Y-76339985D01*
X157586101Y-76472342D01*
X157599819Y-76492872D01*
X157680529Y-76643871D01*
X157689982Y-76666690D01*
X157739685Y-76830543D01*
X157744502Y-76854763D01*
X157761893Y-77031337D01*
X157762500Y-77043687D01*
X157762500Y-78031313D01*
X157761893Y-78043663D01*
X157746261Y-78202380D01*
X157744502Y-78220237D01*
X157739685Y-78244457D01*
X157706115Y-78355126D01*
X157689982Y-78408309D01*
X157680529Y-78431129D01*
X157651753Y-78484966D01*
X157607256Y-78568215D01*
X157599819Y-78582128D01*
X157586101Y-78602658D01*
X157477474Y-78735021D01*
X157460021Y-78752474D01*
X157327658Y-78861101D01*
X157307131Y-78874817D01*
X157214917Y-78924107D01*
X157156129Y-78955529D01*
X157133310Y-78964982D01*
X156969457Y-79014685D01*
X156945240Y-79019501D01*
X156768663Y-79036893D01*
X156756313Y-79037500D01*
X147262500Y-79037500D01*
X147259427Y-79037803D01*
X147259420Y-79037803D01*
X147159443Y-79047650D01*
X147067410Y-79056715D01*
X147061490Y-79058511D01*
X147061484Y-79058512D01*
X146926322Y-79099513D01*
X146879817Y-79113620D01*
X146706930Y-79206030D01*
X146555393Y-79330393D01*
X146431030Y-79481930D01*
X146338620Y-79654817D01*
X146324513Y-79701322D01*
X146283512Y-79836484D01*
X146283511Y-79836490D01*
X146281715Y-79842410D01*
X146262500Y-80037500D01*
X146262500Y-81031313D01*
X146261893Y-81043663D01*
X146244570Y-81219550D01*
X146244502Y-81220237D01*
X146239685Y-81244457D01*
X146190303Y-81407252D01*
X146189982Y-81408309D01*
X146180529Y-81431129D01*
X146109288Y-81564413D01*
X146099819Y-81582128D01*
X146086101Y-81602658D01*
X145977474Y-81735021D01*
X145960021Y-81752474D01*
X145827658Y-81861101D01*
X145807131Y-81874817D01*
X145718873Y-81921992D01*
X145656129Y-81955529D01*
X145633310Y-81964982D01*
X145469457Y-82014685D01*
X145445240Y-82019501D01*
X145268663Y-82036893D01*
X145256313Y-82037500D01*
X143775607Y-82037500D01*
X143707486Y-82017498D01*
X143660993Y-81963842D01*
X143651159Y-81931213D01*
X143649698Y-81921992D01*
X143649697Y-81921989D01*
X143648146Y-81912196D01*
X143590550Y-81799158D01*
X143500842Y-81709450D01*
X143387804Y-81651854D01*
X143378015Y-81650304D01*
X143378013Y-81650303D01*
X143272293Y-81633559D01*
X143262500Y-81632008D01*
X143252707Y-81633559D01*
X143146987Y-81650303D01*
X143146985Y-81650304D01*
X143137196Y-81651854D01*
X143024158Y-81709450D01*
X142934450Y-81799158D01*
X142876854Y-81912196D01*
X142875303Y-81921989D01*
X142875302Y-81921992D01*
X142873841Y-81931213D01*
X142843428Y-81995365D01*
X142783159Y-82032891D01*
X142749393Y-82037500D01*
X142676714Y-82037500D01*
X142673641Y-82037803D01*
X142673634Y-82037803D01*
X142555854Y-82049404D01*
X142481623Y-82056715D01*
X142475703Y-82058511D01*
X142475697Y-82058512D01*
X142340535Y-82099513D01*
X142294030Y-82113620D01*
X142121143Y-82206030D01*
X142116358Y-82209957D01*
X141972002Y-82328427D01*
X141971997Y-82328432D01*
X141969607Y-82330393D01*
X141055393Y-83244607D01*
X141053432Y-83246997D01*
X141053427Y-83247002D01*
X140975923Y-83341441D01*
X140931030Y-83396143D01*
X140838620Y-83569030D01*
X140836825Y-83574948D01*
X140783512Y-83750697D01*
X140783511Y-83750703D01*
X140781715Y-83756623D01*
X140776557Y-83808994D01*
X140764865Y-83927707D01*
X140762500Y-83951714D01*
X140762500Y-84228550D01*
X140761895Y-84240878D01*
X140744566Y-84417140D01*
X140739764Y-84441326D01*
X140690234Y-84604909D01*
X140680815Y-84627693D01*
X140597456Y-84783977D01*
X140591126Y-84794561D01*
X140346897Y-85160905D01*
X140114511Y-85509483D01*
X140060082Y-85555068D01*
X139989648Y-85563990D01*
X139920578Y-85528686D01*
X139900842Y-85508950D01*
X139787804Y-85451354D01*
X139778015Y-85449804D01*
X139778013Y-85449803D01*
X139672293Y-85433059D01*
X139662500Y-85431508D01*
X139652707Y-85433059D01*
X139546987Y-85449803D01*
X139546985Y-85449804D01*
X139537196Y-85451354D01*
X139424158Y-85508950D01*
X139334450Y-85598658D01*
X139276854Y-85711696D01*
X139275304Y-85721485D01*
X139275303Y-85721487D01*
X139258811Y-85825614D01*
X139257008Y-85837000D01*
X139258559Y-85846792D01*
X139265686Y-85891789D01*
X139256587Y-85962200D01*
X139210865Y-86016514D01*
X139141237Y-86037500D01*
X137116053Y-86037500D01*
X137112980Y-86037803D01*
X137112973Y-86037803D01*
X137013435Y-86047607D01*
X136949533Y-86053901D01*
X136789413Y-86102473D01*
X136783958Y-86105389D01*
X136783955Y-86105390D01*
X136708629Y-86145653D01*
X136641845Y-86181350D01*
X136637062Y-86185276D01*
X136637058Y-86185278D01*
X136392747Y-86385778D01*
X136372216Y-86399497D01*
X136267388Y-86455529D01*
X136246530Y-86466678D01*
X136223720Y-86476127D01*
X136097194Y-86514508D01*
X136026203Y-86515141D01*
X135966137Y-86477292D01*
X135936068Y-86412977D01*
X135936172Y-86374222D01*
X135943684Y-86326793D01*
X135945235Y-86317000D01*
X135937086Y-86265550D01*
X135926940Y-86201487D01*
X135926939Y-86201485D01*
X135925389Y-86191696D01*
X135867793Y-86078658D01*
X135778085Y-85988950D01*
X135665047Y-85931354D01*
X135655258Y-85929804D01*
X135655256Y-85929803D01*
X135549536Y-85913059D01*
X135539743Y-85911508D01*
X135529950Y-85913059D01*
X135424230Y-85929803D01*
X135424228Y-85929804D01*
X135414439Y-85931354D01*
X135301401Y-85988950D01*
X135211693Y-86078658D01*
X135154097Y-86191696D01*
X135152547Y-86201485D01*
X135152546Y-86201487D01*
X135142400Y-86265550D01*
X135134251Y-86317000D01*
X135135802Y-86326793D01*
X135135802Y-86326794D01*
X135146096Y-86391790D01*
X135136996Y-86462201D01*
X135091274Y-86516515D01*
X135021647Y-86537500D01*
X134182901Y-86537500D01*
X134170551Y-86536893D01*
X133993973Y-86519501D01*
X133969756Y-86514685D01*
X133805903Y-86464982D01*
X133783084Y-86455529D01*
X133632088Y-86374820D01*
X133611550Y-86361097D01*
X133474386Y-86248529D01*
X133465225Y-86240225D01*
X133059775Y-85834775D01*
X133051471Y-85825614D01*
X132938903Y-85688450D01*
X132925180Y-85667912D01*
X132844471Y-85516916D01*
X132835018Y-85494096D01*
X132816503Y-85433059D01*
X132785315Y-85330244D01*
X132780498Y-85306024D01*
X132763107Y-85129449D01*
X132762500Y-85117099D01*
X132762500Y-84072684D01*
X132749171Y-83937500D01*
X135457008Y-83937500D01*
X135476854Y-84062804D01*
X135534450Y-84175842D01*
X135624158Y-84265550D01*
X135737196Y-84323146D01*
X135746985Y-84324696D01*
X135746987Y-84324697D01*
X135852707Y-84341441D01*
X135862500Y-84342992D01*
X135872293Y-84341441D01*
X135978013Y-84324697D01*
X135978015Y-84324696D01*
X135987804Y-84323146D01*
X136100842Y-84265550D01*
X136176253Y-84190139D01*
X136994326Y-84190139D01*
X136995877Y-84199932D01*
X137006983Y-84270050D01*
X137014172Y-84315443D01*
X137071768Y-84428481D01*
X137161476Y-84518189D01*
X137274514Y-84575785D01*
X137284303Y-84577335D01*
X137284305Y-84577336D01*
X137390025Y-84594080D01*
X137399818Y-84595631D01*
X137409611Y-84594080D01*
X137515331Y-84577336D01*
X137515333Y-84577335D01*
X137525122Y-84575785D01*
X137638160Y-84518189D01*
X137727868Y-84428481D01*
X137785464Y-84315443D01*
X137792654Y-84270050D01*
X137803759Y-84199932D01*
X137805310Y-84190139D01*
X137785464Y-84064835D01*
X137727868Y-83951797D01*
X137638160Y-83862089D01*
X137525122Y-83804493D01*
X137515333Y-83802943D01*
X137515331Y-83802942D01*
X137409611Y-83786198D01*
X137399818Y-83784647D01*
X137390025Y-83786198D01*
X137284305Y-83802942D01*
X137284303Y-83802943D01*
X137274514Y-83804493D01*
X137161476Y-83862089D01*
X137071768Y-83951797D01*
X137014172Y-84064835D01*
X136994326Y-84190139D01*
X136176253Y-84190139D01*
X136190550Y-84175842D01*
X136248146Y-84062804D01*
X136267992Y-83937500D01*
X136256048Y-83862089D01*
X136249697Y-83821987D01*
X136249696Y-83821985D01*
X136248146Y-83812196D01*
X136190550Y-83699158D01*
X136100842Y-83609450D01*
X135987804Y-83551854D01*
X135978015Y-83550304D01*
X135978013Y-83550303D01*
X135872293Y-83533559D01*
X135862500Y-83532008D01*
X135852707Y-83533559D01*
X135746987Y-83550303D01*
X135746985Y-83550304D01*
X135737196Y-83551854D01*
X135624158Y-83609450D01*
X135534450Y-83699158D01*
X135476854Y-83812196D01*
X135475304Y-83821985D01*
X135475303Y-83821987D01*
X135468952Y-83862089D01*
X135457008Y-83937500D01*
X132749171Y-83937500D01*
X132743244Y-83877388D01*
X132740728Y-83869100D01*
X132688019Y-83695541D01*
X132686219Y-83689614D01*
X132647069Y-83616461D01*
X132596544Y-83522053D01*
X132596542Y-83522050D01*
X132593621Y-83516592D01*
X132469015Y-83364986D01*
X132317200Y-83240633D01*
X131862500Y-82937500D01*
X138007508Y-82937500D01*
X138027354Y-83062804D01*
X138084950Y-83175842D01*
X138174658Y-83265550D01*
X138287696Y-83323146D01*
X138297485Y-83324696D01*
X138297487Y-83324697D01*
X138403207Y-83341441D01*
X138413000Y-83342992D01*
X138422793Y-83341441D01*
X138528513Y-83324697D01*
X138528515Y-83324696D01*
X138538304Y-83323146D01*
X138651342Y-83265550D01*
X138741050Y-83175842D01*
X138798646Y-83062804D01*
X138818492Y-82937500D01*
X138814484Y-82912196D01*
X138800197Y-82821987D01*
X138800196Y-82821985D01*
X138798646Y-82812196D01*
X138741050Y-82699158D01*
X138651342Y-82609450D01*
X138538304Y-82551854D01*
X138528515Y-82550304D01*
X138528513Y-82550303D01*
X138422793Y-82533559D01*
X138413000Y-82532008D01*
X138403207Y-82533559D01*
X138297487Y-82550303D01*
X138297485Y-82550304D01*
X138287696Y-82551854D01*
X138174658Y-82609450D01*
X138084950Y-82699158D01*
X138027354Y-82812196D01*
X138025804Y-82821985D01*
X138025803Y-82821987D01*
X138011516Y-82912196D01*
X138007508Y-82937500D01*
X131862500Y-82937500D01*
X131683682Y-82818288D01*
X131673732Y-82810924D01*
X131546304Y-82706547D01*
X131528805Y-82689078D01*
X131428164Y-82566630D01*
X131414414Y-82546079D01*
X131339628Y-82406340D01*
X131330156Y-82383499D01*
X131284100Y-82231842D01*
X131279271Y-82207592D01*
X131263108Y-82043665D01*
X131262500Y-82031302D01*
X131262500Y-81897240D01*
X131263107Y-81884889D01*
X131265451Y-81861096D01*
X131272242Y-81792147D01*
X131277685Y-81736882D01*
X131282503Y-81712658D01*
X131284841Y-81704950D01*
X131323872Y-81576283D01*
X131333322Y-81553470D01*
X131400503Y-81427784D01*
X131414219Y-81407257D01*
X131459869Y-81351631D01*
X131504573Y-81297160D01*
X131522171Y-81279586D01*
X131632043Y-81189667D01*
X131652905Y-81175810D01*
X131778316Y-81109437D01*
X131801504Y-81099981D01*
X131937562Y-81059721D01*
X131962160Y-81055037D01*
X132038583Y-81048247D01*
X132109789Y-81041922D01*
X132122316Y-81041436D01*
X133948435Y-81061409D01*
X133948439Y-81061409D01*
X133951563Y-81061443D01*
X133951564Y-81061443D01*
X134148195Y-81044110D01*
X134337592Y-80988490D01*
X134343108Y-80985595D01*
X134506857Y-80899647D01*
X134506859Y-80899646D01*
X134512374Y-80896751D01*
X134524406Y-80887000D01*
X136106510Y-80887000D01*
X136108061Y-80896793D01*
X136124210Y-80998752D01*
X136126356Y-81012304D01*
X136183952Y-81125342D01*
X136273660Y-81215050D01*
X136386698Y-81272646D01*
X136396487Y-81274196D01*
X136396489Y-81274197D01*
X136502209Y-81290941D01*
X136512002Y-81292492D01*
X136521795Y-81290941D01*
X136627515Y-81274197D01*
X136627517Y-81274196D01*
X136637306Y-81272646D01*
X136750344Y-81215050D01*
X136840052Y-81125342D01*
X136878415Y-81050051D01*
X136927162Y-80998437D01*
X136996077Y-80981371D01*
X137063279Y-81004272D01*
X137102948Y-81050052D01*
X137139394Y-81121581D01*
X137229102Y-81211289D01*
X137342140Y-81268885D01*
X137351929Y-81270435D01*
X137351931Y-81270436D01*
X137457651Y-81287180D01*
X137467444Y-81288731D01*
X137477237Y-81287180D01*
X137582957Y-81270436D01*
X137582959Y-81270435D01*
X137592748Y-81268885D01*
X137705786Y-81211289D01*
X137795494Y-81121581D01*
X137853090Y-81008543D01*
X137872936Y-80883239D01*
X137862252Y-80815782D01*
X137854641Y-80767726D01*
X137854640Y-80767724D01*
X137853090Y-80757935D01*
X137795494Y-80644897D01*
X137705786Y-80555189D01*
X137592748Y-80497593D01*
X137582959Y-80496043D01*
X137582957Y-80496042D01*
X137477237Y-80479298D01*
X137467444Y-80477747D01*
X137457651Y-80479298D01*
X137351931Y-80496042D01*
X137351929Y-80496043D01*
X137342140Y-80497593D01*
X137229102Y-80555189D01*
X137139394Y-80644897D01*
X137106503Y-80709450D01*
X137101032Y-80720187D01*
X137052284Y-80771802D01*
X136983369Y-80788868D01*
X136916167Y-80765967D01*
X136876498Y-80720187D01*
X136871027Y-80709450D01*
X136840052Y-80648658D01*
X136750344Y-80558950D01*
X136637306Y-80501354D01*
X136627517Y-80499804D01*
X136627515Y-80499803D01*
X136521795Y-80483059D01*
X136512002Y-80481508D01*
X136502209Y-80483059D01*
X136396489Y-80499803D01*
X136396487Y-80499804D01*
X136386698Y-80501354D01*
X136273660Y-80558950D01*
X136183952Y-80648658D01*
X136126356Y-80761696D01*
X136124806Y-80771485D01*
X136124805Y-80771487D01*
X136109879Y-80865731D01*
X136106510Y-80887000D01*
X134524406Y-80887000D01*
X134536490Y-80877207D01*
X134589052Y-80834608D01*
X134665729Y-80772466D01*
X134791684Y-80620478D01*
X134885330Y-80446711D01*
X134943018Y-80257934D01*
X134962500Y-80061503D01*
X134962500Y-79437500D01*
X135757008Y-79437500D01*
X135758559Y-79447293D01*
X135767457Y-79503470D01*
X135776854Y-79562804D01*
X135834450Y-79675842D01*
X135924158Y-79765550D01*
X136037196Y-79823146D01*
X136046985Y-79824696D01*
X136046987Y-79824697D01*
X136152707Y-79841441D01*
X136162500Y-79842992D01*
X136172293Y-79841441D01*
X136278013Y-79824697D01*
X136278015Y-79824696D01*
X136287804Y-79823146D01*
X136400842Y-79765550D01*
X136490550Y-79675842D01*
X136548146Y-79562804D01*
X136557544Y-79503470D01*
X136566441Y-79447293D01*
X136567992Y-79437500D01*
X136548146Y-79312196D01*
X136490550Y-79199158D01*
X136400842Y-79109450D01*
X136287804Y-79051854D01*
X136278015Y-79050304D01*
X136278013Y-79050303D01*
X136172293Y-79033559D01*
X136162500Y-79032008D01*
X136152707Y-79033559D01*
X136046987Y-79050303D01*
X136046985Y-79050304D01*
X136037196Y-79051854D01*
X135924158Y-79109450D01*
X135834450Y-79199158D01*
X135776854Y-79312196D01*
X135757008Y-79437500D01*
X134962500Y-79437500D01*
X134962500Y-78661001D01*
X134982502Y-78592880D01*
X135005797Y-78568215D01*
X135005245Y-78567663D01*
X135094953Y-78477955D01*
X135152549Y-78364917D01*
X135154224Y-78354345D01*
X135170844Y-78249406D01*
X135172395Y-78239613D01*
X135165712Y-78197418D01*
X135154100Y-78124100D01*
X135154099Y-78124098D01*
X135152549Y-78114309D01*
X135094953Y-78001271D01*
X135005245Y-77911563D01*
X135006693Y-77910115D01*
X134971085Y-77863939D01*
X134962500Y-77818225D01*
X134962500Y-77607849D01*
X134982502Y-77539728D01*
X135031297Y-77495582D01*
X135031450Y-77495504D01*
X135044519Y-77488845D01*
X135134227Y-77399137D01*
X135191823Y-77286099D01*
X135197343Y-77251251D01*
X135210118Y-77170588D01*
X135211669Y-77160795D01*
X135191823Y-77035491D01*
X135134227Y-76922453D01*
X135051984Y-76840210D01*
X135017958Y-76777898D01*
X135020504Y-76714540D01*
X135035018Y-76666692D01*
X135044471Y-76643871D01*
X135125181Y-76492872D01*
X135138899Y-76472342D01*
X135247521Y-76339985D01*
X135264983Y-76322523D01*
X135333124Y-76266601D01*
X135398472Y-76238847D01*
X135413058Y-76238000D01*
X136698671Y-76238000D01*
X136766792Y-76258002D01*
G37*
G04 #@! TD.AperFunction*
M02*
