%TF.GenerationSoftware,KiCad,Pcbnew,6.0.10+dfsg-1~bpo11+1*%
%TF.ProjectId,project,70726f6a-6563-4742-9e6b-696361645f70,rev?*%
%TF.SameCoordinates,Original*%
%TF.FileFunction,Drillmap*%
%TF.FilePolarity,Positive*%
%FSLAX45Y45*%
G04 Gerber Fmt 4.5, Leading zero omitted, Abs format (unit mm)*
%MOMM*%
%LPD*%
G01*
G04 APERTURE LIST*
%ADD10C,0.100000*%
%ADD11C,0.200000*%
%ADD12C,0.020000*%
%ADD13C,0.055000*%
%ADD14C,0.060000*%
%ADD15C,0.065000*%
G04 APERTURE END LIST*
D10*
X12026250Y-7603750D02*
X12026250Y-7503750D01*
X18426250Y-7603750D02*
X18426250Y-9003750D01*
X18426250Y-9003750D02*
X13026250Y-9003750D01*
X13026250Y-7503750D02*
X13026250Y-7603750D01*
X13026250Y-7603750D02*
X18426250Y-7603750D01*
X12026250Y-7503750D02*
X13026250Y-7503750D01*
X11826250Y-9003750D02*
X12026250Y-9003750D01*
X12026250Y-7603750D02*
X11826250Y-7603750D01*
X12026250Y-9103750D02*
X13026250Y-9103750D01*
X11826250Y-9003750D02*
X11826250Y-7603750D01*
X13026250Y-9103750D02*
X13026250Y-9003750D01*
X12026250Y-9003750D02*
X12026250Y-9103750D01*
D11*
D12*
X12837133Y-8592331D02*
X12857133Y-8612331D01*
X12857133Y-8592331D02*
X12837133Y-8612331D01*
X12846250Y-8413750D02*
X12866250Y-8433750D01*
X12866250Y-8413750D02*
X12846250Y-8433750D01*
X12856250Y-8213750D02*
X12876250Y-8233750D01*
X12876250Y-8213750D02*
X12856250Y-8233750D01*
X12866250Y-7943750D02*
X12886250Y-7963750D01*
X12886250Y-7943750D02*
X12866250Y-7963750D01*
X13095800Y-8593750D02*
X13115800Y-8613750D01*
X13115800Y-8593750D02*
X13095800Y-8613750D01*
X13116250Y-8293750D02*
X13136250Y-8313750D01*
X13136250Y-8293750D02*
X13116250Y-8313750D01*
X13157572Y-8192145D02*
X13177572Y-8212145D01*
X13177572Y-8192145D02*
X13157572Y-8212145D01*
X13186250Y-7723750D02*
X13206250Y-7743750D01*
X13206250Y-7723750D02*
X13186250Y-7743750D01*
X13468944Y-7815043D02*
X13488944Y-7835043D01*
X13488944Y-7815043D02*
X13468944Y-7835043D01*
X13474693Y-7703421D02*
X13494693Y-7723421D01*
X13494693Y-7703421D02*
X13474693Y-7723421D01*
X13476615Y-8880130D02*
X13496615Y-8900130D01*
X13496615Y-8880130D02*
X13476615Y-8900130D01*
X13547223Y-8624200D02*
X13567223Y-8644200D01*
X13567223Y-8624200D02*
X13547223Y-8644200D01*
X13576250Y-8383750D02*
X13596250Y-8403750D01*
X13596250Y-8383750D02*
X13576250Y-8403750D01*
X13576250Y-8843750D02*
X13596250Y-8863750D01*
X13596250Y-8843750D02*
X13576250Y-8863750D01*
X13606250Y-7933750D02*
X13626250Y-7953750D01*
X13626250Y-7933750D02*
X13606250Y-7953750D01*
X13641200Y-8078700D02*
X13661200Y-8098700D01*
X13661200Y-8078700D02*
X13641200Y-8098700D01*
X13729982Y-8409014D02*
X13749982Y-8429014D01*
X13749982Y-8409014D02*
X13729982Y-8429014D01*
X13736744Y-8078324D02*
X13756744Y-8098324D01*
X13756744Y-8078324D02*
X13736744Y-8098324D01*
X13831300Y-8283750D02*
X13851300Y-8303750D01*
X13851300Y-8283750D02*
X13831300Y-8303750D01*
X13966250Y-8576200D02*
X13986250Y-8596200D01*
X13986250Y-8576200D02*
X13966250Y-8596200D01*
X14316250Y-8193750D02*
X14336250Y-8213750D01*
X14336250Y-8193750D02*
X14316250Y-8213750D01*
X14406250Y-8043750D02*
X14426250Y-8063750D01*
X14426250Y-8043750D02*
X14406250Y-8063750D01*
X14406250Y-8093750D02*
X14426250Y-8113750D01*
X14426250Y-8093750D02*
X14406250Y-8113750D01*
X14416250Y-8583750D02*
X14436250Y-8603750D01*
X14436250Y-8583750D02*
X14416250Y-8603750D01*
X14416250Y-8893750D02*
X14436250Y-8913750D01*
X14436250Y-8893750D02*
X14416250Y-8913750D01*
X14600000Y-8430000D02*
X14620000Y-8450000D01*
X14620000Y-8430000D02*
X14600000Y-8450000D01*
X14621250Y-8893750D02*
X14641250Y-8913750D01*
X14641250Y-8893750D02*
X14621250Y-8913750D01*
X14716250Y-8093750D02*
X14736250Y-8113750D01*
X14736250Y-8093750D02*
X14716250Y-8113750D01*
X14716250Y-8703750D02*
X14736250Y-8723750D01*
X14736250Y-8703750D02*
X14716250Y-8723750D01*
X14811250Y-8893750D02*
X14831250Y-8913750D01*
X14831250Y-8893750D02*
X14811250Y-8913750D01*
X14876875Y-8504375D02*
X14896875Y-8524375D01*
X14896875Y-8504375D02*
X14876875Y-8524375D01*
X14896250Y-8033750D02*
X14916250Y-8053750D01*
X14916250Y-8033750D02*
X14896250Y-8053750D01*
X14896250Y-8163750D02*
X14916250Y-8183750D01*
X14916250Y-8163750D02*
X14896250Y-8183750D01*
X14896250Y-8393750D02*
X14916250Y-8413750D01*
X14916250Y-8393750D02*
X14896250Y-8413750D01*
X14946250Y-8663750D02*
X14966250Y-8683750D01*
X14966250Y-8663750D02*
X14946250Y-8683750D01*
X14946250Y-8893750D02*
X14966250Y-8913750D01*
X14966250Y-8893750D02*
X14946250Y-8913750D01*
X15016250Y-8893750D02*
X15036250Y-8913750D01*
X15036250Y-8893750D02*
X15016250Y-8913750D01*
X15026250Y-7976250D02*
X15046250Y-7996250D01*
X15046250Y-7976250D02*
X15026250Y-7996250D01*
X15036041Y-8561616D02*
X15056041Y-8581616D01*
X15056041Y-8561616D02*
X15036041Y-8581616D01*
X15196250Y-8391300D02*
X15216250Y-8411300D01*
X15216250Y-8391300D02*
X15196250Y-8411300D01*
X15356250Y-8203700D02*
X15376250Y-8223700D01*
X15376250Y-8203700D02*
X15356250Y-8223700D01*
X15376250Y-8033750D02*
X15396250Y-8053750D01*
X15396250Y-8033750D02*
X15376250Y-8053750D01*
X15436250Y-8473750D02*
X15456250Y-8493750D01*
X15456250Y-8473750D02*
X15436250Y-8493750D01*
X15496250Y-8503750D02*
X15516250Y-8523750D01*
X15516250Y-8503750D02*
X15496250Y-8523750D01*
X15496250Y-8573750D02*
X15516250Y-8593750D01*
X15516250Y-8573750D02*
X15496250Y-8593750D01*
X15520673Y-8010300D02*
X15540673Y-8030300D01*
X15540673Y-8010300D02*
X15520673Y-8030300D01*
X15578070Y-8298305D02*
X15598070Y-8318305D01*
X15598070Y-8298305D02*
X15578070Y-8318305D01*
X15578070Y-8343800D02*
X15598070Y-8363800D01*
X15598070Y-8343800D02*
X15578070Y-8363800D01*
X15585333Y-8022576D02*
X15605333Y-8042576D01*
X15605333Y-8022576D02*
X15585333Y-8042576D01*
X15610069Y-8559931D02*
X15630069Y-8579931D01*
X15630069Y-8559931D02*
X15610069Y-8579931D01*
X15705757Y-8464390D02*
X15725757Y-8484390D01*
X15725757Y-8464390D02*
X15705757Y-8484390D01*
X15710500Y-8088750D02*
X15730500Y-8108750D01*
X15730500Y-8088750D02*
X15710500Y-8108750D01*
X15716342Y-8280180D02*
X15736342Y-8300180D01*
X15736342Y-8280180D02*
X15716342Y-8300180D01*
X15722050Y-7985456D02*
X15742050Y-8005456D01*
X15742050Y-7985456D02*
X15722050Y-8005456D01*
X15790854Y-8688295D02*
X15810854Y-8708295D01*
X15810854Y-8688295D02*
X15790854Y-8708295D01*
X15846108Y-8593800D02*
X15866108Y-8613800D01*
X15866108Y-8593800D02*
X15846108Y-8613800D01*
X15901731Y-8718269D02*
X15921731Y-8738269D01*
X15921731Y-8718269D02*
X15901731Y-8738269D01*
X15926250Y-8043750D02*
X15946250Y-8063750D01*
X15946250Y-8043750D02*
X15926250Y-8063750D01*
X15960000Y-8400000D02*
X15980000Y-8420000D01*
X15980000Y-8400000D02*
X15960000Y-8420000D01*
X15968533Y-8506530D02*
X15988533Y-8526530D01*
X15988533Y-8506530D02*
X15968533Y-8526530D01*
X15975881Y-7661444D02*
X15995881Y-7681444D01*
X15995881Y-7661444D02*
X15975881Y-7681444D01*
X16003000Y-8787000D02*
X16023000Y-8807000D01*
X16023000Y-8787000D02*
X16003000Y-8807000D01*
X16006250Y-8903750D02*
X16026250Y-8923750D01*
X16026250Y-8903750D02*
X16006250Y-8923750D01*
X16010000Y-8300000D02*
X16030000Y-8320000D01*
X16030000Y-8300000D02*
X16010000Y-8320000D01*
X16030000Y-8410000D02*
X16050000Y-8430000D01*
X16050000Y-8410000D02*
X16030000Y-8430000D01*
X16103000Y-8787000D02*
X16123000Y-8807000D01*
X16123000Y-8787000D02*
X16103000Y-8807000D01*
X16106250Y-8903750D02*
X16126250Y-8923750D01*
X16126250Y-8903750D02*
X16106250Y-8923750D01*
X16111300Y-8532658D02*
X16131300Y-8552658D01*
X16131300Y-8532658D02*
X16111300Y-8552658D01*
X16130000Y-7940000D02*
X16150000Y-7960000D01*
X16150000Y-7940000D02*
X16130000Y-7960000D01*
X16130000Y-8250000D02*
X16150000Y-8270000D01*
X16150000Y-8250000D02*
X16130000Y-8270000D01*
X16156700Y-8433750D02*
X16176700Y-8453750D01*
X16176700Y-8433750D02*
X16156700Y-8453750D01*
X16186250Y-7673750D02*
X16206250Y-7693750D01*
X16206250Y-7673750D02*
X16186250Y-7693750D01*
X16206250Y-8903750D02*
X16226250Y-8923750D01*
X16226250Y-8903750D02*
X16206250Y-8923750D01*
X16257303Y-8532924D02*
X16277303Y-8552924D01*
X16277303Y-8532924D02*
X16257303Y-8552924D01*
X16286081Y-7684252D02*
X16306081Y-7704252D01*
X16306081Y-7684252D02*
X16286081Y-7704252D01*
X16303910Y-8429841D02*
X16323910Y-8449841D01*
X16323910Y-8429841D02*
X16303910Y-8449841D01*
X16306250Y-8903750D02*
X16326250Y-8923750D01*
X16326250Y-8903750D02*
X16306250Y-8923750D01*
X16360230Y-8749158D02*
X16380230Y-8769158D01*
X16380230Y-8749158D02*
X16360230Y-8769158D01*
X16366250Y-8463750D02*
X16386250Y-8483750D01*
X16386250Y-8463750D02*
X16366250Y-8483750D01*
X16406250Y-8903750D02*
X16426250Y-8923750D01*
X16426250Y-8903750D02*
X16406250Y-8923750D01*
X16431322Y-8441452D02*
X16451322Y-8461452D01*
X16451322Y-8441452D02*
X16431322Y-8461452D01*
X16450000Y-7940000D02*
X16470000Y-7960000D01*
X16470000Y-7940000D02*
X16450000Y-7960000D01*
X16450000Y-8250000D02*
X16470000Y-8270000D01*
X16470000Y-8250000D02*
X16450000Y-8270000D01*
X16490000Y-8324999D02*
X16510000Y-8344999D01*
X16510000Y-8324999D02*
X16490000Y-8344999D01*
X16506250Y-8903750D02*
X16526250Y-8923750D01*
X16526250Y-8903750D02*
X16506250Y-8923750D01*
X16535550Y-8433750D02*
X16555550Y-8453750D01*
X16555550Y-8433750D02*
X16535550Y-8453750D01*
X16536231Y-8504470D02*
X16556231Y-8524470D01*
X16556231Y-8504470D02*
X16536231Y-8524470D01*
X16612450Y-7822912D02*
X16632450Y-7842912D01*
X16632450Y-7822912D02*
X16612450Y-7842912D01*
X16636250Y-8763750D02*
X16656250Y-8783750D01*
X16656250Y-8763750D02*
X16636250Y-8783750D01*
X16656250Y-8603800D02*
X16676250Y-8623800D01*
X16676250Y-8603800D02*
X16656250Y-8623800D01*
X16731018Y-7849416D02*
X16751018Y-7869416D01*
X16751018Y-7849416D02*
X16731018Y-7869416D01*
X16755217Y-8499550D02*
X16775217Y-8519550D01*
X16775217Y-8499550D02*
X16755217Y-8519550D01*
X16767950Y-8393300D02*
X16787950Y-8413300D01*
X16787950Y-8393300D02*
X16767950Y-8413300D01*
X16820000Y-7960000D02*
X16840000Y-7980000D01*
X16840000Y-7960000D02*
X16820000Y-7980000D01*
X16829500Y-8600500D02*
X16849500Y-8620500D01*
X16849500Y-8600500D02*
X16829500Y-8620500D01*
X16840387Y-8495785D02*
X16860387Y-8515785D01*
X16860387Y-8495785D02*
X16840387Y-8515785D01*
X16857950Y-8328753D02*
X16877950Y-8348753D01*
X16877950Y-8328753D02*
X16857950Y-8348753D01*
X16900000Y-8470000D02*
X16920000Y-8490000D01*
X16920000Y-8470000D02*
X16900000Y-8490000D01*
X16943821Y-8609480D02*
X16963821Y-8629480D01*
X16963821Y-8609480D02*
X16943821Y-8629480D01*
X16996250Y-8183750D02*
X17016250Y-8203750D01*
X17016250Y-8183750D02*
X16996250Y-8203750D01*
X17000000Y-8000000D02*
X17020000Y-8020000D01*
X17020000Y-8000000D02*
X17000000Y-8020000D01*
X17036250Y-8383750D02*
X17056250Y-8403750D01*
X17056250Y-8383750D02*
X17036250Y-8403750D01*
X17067253Y-7880773D02*
X17087253Y-7900773D01*
X17087253Y-7880773D02*
X17067253Y-7900773D01*
X17070000Y-7640000D02*
X17090000Y-7660000D01*
X17090000Y-7640000D02*
X17070000Y-7660000D01*
X17082500Y-8697500D02*
X17102500Y-8717500D01*
X17102500Y-8697500D02*
X17082500Y-8717500D01*
X17086250Y-8373750D02*
X17106250Y-8393750D01*
X17106250Y-8373750D02*
X17086250Y-8393750D01*
X17102559Y-8096535D02*
X17122559Y-8116535D01*
X17122559Y-8096535D02*
X17102559Y-8116535D01*
X17150000Y-7910000D02*
X17170000Y-7930000D01*
X17170000Y-7910000D02*
X17150000Y-7930000D01*
X17160000Y-7816678D02*
X17180000Y-7836678D01*
X17180000Y-7816678D02*
X17160000Y-7836678D01*
X17180000Y-7750000D02*
X17200000Y-7770000D01*
X17200000Y-7750000D02*
X17180000Y-7770000D01*
X17186372Y-8274975D02*
X17206372Y-8294975D01*
X17206372Y-8274975D02*
X17186372Y-8294975D01*
X17297500Y-8203750D02*
X17317500Y-8223750D01*
X17317500Y-8203750D02*
X17297500Y-8223750D01*
X17306250Y-7903750D02*
X17326250Y-7923750D01*
X17326250Y-7903750D02*
X17306250Y-7923750D01*
X17311250Y-8668750D02*
X17331250Y-8688750D01*
X17331250Y-8668750D02*
X17311250Y-8688750D01*
X17330000Y-8850000D02*
X17350000Y-8870000D01*
X17350000Y-8850000D02*
X17330000Y-8870000D01*
X17379822Y-8113641D02*
X17399822Y-8133641D01*
X17399822Y-8113641D02*
X17379822Y-8133641D01*
X17386250Y-8373750D02*
X17406250Y-8393750D01*
X17406250Y-8373750D02*
X17386250Y-8393750D01*
X17393250Y-8646750D02*
X17413250Y-8666750D01*
X17413250Y-8646750D02*
X17393250Y-8666750D01*
X17521760Y-7713715D02*
X17541760Y-7733715D01*
X17541760Y-7713715D02*
X17521760Y-7733715D01*
X17530000Y-7980000D02*
X17550000Y-8000000D01*
X17550000Y-7980000D02*
X17530000Y-8000000D01*
X17540000Y-8590000D02*
X17560000Y-8610000D01*
X17560000Y-8590000D02*
X17540000Y-8610000D01*
X17540000Y-8810000D02*
X17560000Y-8830000D01*
X17560000Y-8810000D02*
X17540000Y-8830000D01*
X17546250Y-8083750D02*
X17566250Y-8103750D01*
X17566250Y-8083750D02*
X17546250Y-8103750D01*
X17600962Y-8840962D02*
X17620962Y-8860962D01*
X17620962Y-8840962D02*
X17600962Y-8860962D01*
X17610000Y-8560000D02*
X17630000Y-8580000D01*
X17630000Y-8560000D02*
X17610000Y-8580000D01*
D13*
X13163750Y-7668750D02*
G75*
G03*
X13163750Y-7668750I-27500J0D01*
G01*
X13163750Y-8038750D02*
G75*
G03*
X13163750Y-8038750I-27500J0D01*
G01*
D14*
X12048750Y-7991750D02*
X12048750Y-8051750D01*
X12018750Y-8021750D02*
X12078750Y-8021750D01*
D11*
X12018750Y-8051750D02*
X12078750Y-8051750D01*
X12018750Y-7991750D02*
X12078750Y-7991750D01*
X12078750Y-8051750D02*
G75*
G03*
X12078750Y-7991750I0J30000D01*
G01*
X12018750Y-7991750D02*
G75*
G03*
X12018750Y-8051750I0J-30000D01*
G01*
D14*
X12048750Y-8855750D02*
X12048750Y-8915750D01*
X12018750Y-8885750D02*
X12078750Y-8885750D01*
D11*
X12018750Y-8915750D02*
X12078750Y-8915750D01*
X12018750Y-8855750D02*
X12078750Y-8855750D01*
X12078750Y-8915750D02*
G75*
G03*
X12078750Y-8855750I0J30000D01*
G01*
X12018750Y-8855750D02*
G75*
G03*
X12018750Y-8915750I0J-30000D01*
G01*
D14*
X12466750Y-7991750D02*
X12466750Y-8051750D01*
X12436750Y-8021750D02*
X12496750Y-8021750D01*
D11*
X12411750Y-8051750D02*
X12521750Y-8051750D01*
X12411750Y-7991750D02*
X12521750Y-7991750D01*
X12521750Y-8051750D02*
G75*
G03*
X12521750Y-7991750I0J30000D01*
G01*
X12411750Y-7991750D02*
G75*
G03*
X12411750Y-8051750I0J-30000D01*
G01*
D14*
X12466750Y-8855750D02*
X12466750Y-8915750D01*
X12436750Y-8885750D02*
X12496750Y-8885750D01*
D11*
X12411750Y-8915750D02*
X12521750Y-8915750D01*
X12411750Y-8855750D02*
X12521750Y-8855750D01*
X12521750Y-8915750D02*
G75*
G03*
X12521750Y-8855750I0J30000D01*
G01*
X12411750Y-8855750D02*
G75*
G03*
X12411750Y-8915750I0J-30000D01*
G01*
D15*
X12269231Y-7621731D02*
X12269231Y-7575769D01*
X12223269Y-7575769D01*
X12223269Y-7621731D01*
X12269231Y-7621731D01*
D11*
X12311250Y-7566250D02*
X12181250Y-7566250D01*
X12311250Y-7631250D02*
X12181250Y-7631250D01*
X12181250Y-7566250D02*
G75*
G03*
X12181250Y-7631250I0J-32500D01*
G01*
X12311250Y-7631250D02*
G75*
G03*
X12311250Y-7566250I0J32500D01*
G01*
D15*
X12269231Y-9031731D02*
X12269231Y-8985769D01*
X12223269Y-8985769D01*
X12223269Y-9031731D01*
X12269231Y-9031731D01*
D11*
X12311250Y-8976250D02*
X12181250Y-8976250D01*
X12311250Y-9041250D02*
X12181250Y-9041250D01*
X12181250Y-8976250D02*
G75*
G03*
X12181250Y-9041250I0J-32500D01*
G01*
X12311250Y-9041250D02*
G75*
G03*
X12311250Y-8976250I0J32500D01*
G01*
D15*
X12859231Y-7621731D02*
X12859231Y-7575769D01*
X12813269Y-7575769D01*
X12813269Y-7621731D01*
X12859231Y-7621731D01*
D11*
X12901250Y-7566250D02*
X12771250Y-7566250D01*
X12901250Y-7631250D02*
X12771250Y-7631250D01*
X12771250Y-7566250D02*
G75*
G03*
X12771250Y-7631250I0J-32500D01*
G01*
X12901250Y-7631250D02*
G75*
G03*
X12901250Y-7566250I0J32500D01*
G01*
D15*
X12859231Y-9031731D02*
X12859231Y-8985769D01*
X12813269Y-8985769D01*
X12813269Y-9031731D01*
X12859231Y-9031731D01*
D11*
X12901250Y-8976250D02*
X12771250Y-8976250D01*
X12901250Y-9041250D02*
X12771250Y-9041250D01*
X12771250Y-8976250D02*
G75*
G03*
X12771250Y-9041250I0J-32500D01*
G01*
X12901250Y-9041250D02*
G75*
G03*
X12901250Y-8976250I0J32500D01*
G01*
D10*
X13743750Y-7784750D02*
X13793750Y-7734750D01*
X13743750Y-7684750D01*
X13693750Y-7734750D01*
X13743750Y-7784750D01*
X13743750Y-8922750D02*
X13793750Y-8872750D01*
X13743750Y-8822750D01*
X13693750Y-8872750D01*
X13743750Y-8922750D01*
X13997750Y-7784750D02*
X14047750Y-7734750D01*
X13997750Y-7684750D01*
X13947750Y-7734750D01*
X13997750Y-7784750D01*
X13997750Y-8922750D02*
X14047750Y-8872750D01*
X13997750Y-8822750D01*
X13947750Y-8872750D01*
X13997750Y-8922750D01*
X15354750Y-7784750D02*
X15404750Y-7734750D01*
X15354750Y-7684750D01*
X15304750Y-7734750D01*
X15354750Y-7784750D01*
X15354750Y-8922750D02*
X15404750Y-8872750D01*
X15354750Y-8822750D01*
X15304750Y-8872750D01*
X15354750Y-8922750D01*
X15608750Y-7784750D02*
X15658750Y-7734750D01*
X15608750Y-7684750D01*
X15558750Y-7734750D01*
X15608750Y-7784750D01*
X15608750Y-8922750D02*
X15658750Y-8872750D01*
X15608750Y-8822750D01*
X15558750Y-8872750D01*
X15608750Y-8922750D01*
X17998750Y-7846250D02*
X18048750Y-7796250D01*
X17998750Y-7746250D01*
X17948750Y-7796250D01*
X17998750Y-7846250D01*
X17998750Y-8100250D02*
X18048750Y-8050250D01*
X17998750Y-8000250D01*
X17948750Y-8050250D01*
X17998750Y-8100250D01*
X17998750Y-8354250D02*
X18048750Y-8304250D01*
X17998750Y-8254250D01*
X17948750Y-8304250D01*
X17998750Y-8354250D01*
X17998750Y-8608250D02*
X18048750Y-8558250D01*
X17998750Y-8508250D01*
X17948750Y-8558250D01*
X17998750Y-8608250D01*
X17998750Y-8862250D02*
X18048750Y-8812250D01*
X17998750Y-8762250D01*
X17948750Y-8812250D01*
X17998750Y-8862250D01*
X18252750Y-7846250D02*
X18302750Y-7796250D01*
X18252750Y-7746250D01*
X18202750Y-7796250D01*
X18252750Y-7846250D01*
X18252750Y-8100250D02*
X18302750Y-8050250D01*
X18252750Y-8000250D01*
X18202750Y-8050250D01*
X18252750Y-8100250D01*
X18252750Y-8354250D02*
X18302750Y-8304250D01*
X18252750Y-8254250D01*
X18202750Y-8304250D01*
X18252750Y-8354250D01*
X18252750Y-8608250D02*
X18302750Y-8558250D01*
X18252750Y-8508250D01*
X18202750Y-8558250D01*
X18252750Y-8608250D01*
X18252750Y-8862250D02*
X18302750Y-8812250D01*
X18252750Y-8762250D01*
X18202750Y-8812250D01*
X18252750Y-8862250D01*
D11*
X12078869Y-9419226D02*
X12078869Y-9219226D01*
X12126488Y-9219226D01*
X12155059Y-9228750D01*
X12174107Y-9247798D01*
X12183631Y-9266845D01*
X12193155Y-9304940D01*
X12193155Y-9333512D01*
X12183631Y-9371607D01*
X12174107Y-9390655D01*
X12155059Y-9409702D01*
X12126488Y-9419226D01*
X12078869Y-9419226D01*
X12278869Y-9419226D02*
X12278869Y-9285893D01*
X12278869Y-9323988D02*
X12288393Y-9304940D01*
X12297917Y-9295417D01*
X12316964Y-9285893D01*
X12336012Y-9285893D01*
X12402678Y-9419226D02*
X12402678Y-9285893D01*
X12402678Y-9219226D02*
X12393155Y-9228750D01*
X12402678Y-9238274D01*
X12412202Y-9228750D01*
X12402678Y-9219226D01*
X12402678Y-9238274D01*
X12526488Y-9419226D02*
X12507440Y-9409702D01*
X12497917Y-9390655D01*
X12497917Y-9219226D01*
X12631250Y-9419226D02*
X12612202Y-9409702D01*
X12602678Y-9390655D01*
X12602678Y-9219226D01*
X12859821Y-9419226D02*
X12859821Y-9219226D01*
X12926488Y-9362083D01*
X12993155Y-9219226D01*
X12993155Y-9419226D01*
X13174107Y-9419226D02*
X13174107Y-9314464D01*
X13164583Y-9295417D01*
X13145536Y-9285893D01*
X13107440Y-9285893D01*
X13088393Y-9295417D01*
X13174107Y-9409702D02*
X13155059Y-9419226D01*
X13107440Y-9419226D01*
X13088393Y-9409702D01*
X13078869Y-9390655D01*
X13078869Y-9371607D01*
X13088393Y-9352560D01*
X13107440Y-9343036D01*
X13155059Y-9343036D01*
X13174107Y-9333512D01*
X13269345Y-9285893D02*
X13269345Y-9485893D01*
X13269345Y-9295417D02*
X13288393Y-9285893D01*
X13326488Y-9285893D01*
X13345536Y-9295417D01*
X13355059Y-9304940D01*
X13364583Y-9323988D01*
X13364583Y-9381131D01*
X13355059Y-9400179D01*
X13345536Y-9409702D01*
X13326488Y-9419226D01*
X13288393Y-9419226D01*
X13269345Y-9409702D01*
X13450298Y-9400179D02*
X13459821Y-9409702D01*
X13450298Y-9419226D01*
X13440774Y-9409702D01*
X13450298Y-9400179D01*
X13450298Y-9419226D01*
X13450298Y-9295417D02*
X13459821Y-9304940D01*
X13450298Y-9314464D01*
X13440774Y-9304940D01*
X13450298Y-9295417D01*
X13450298Y-9314464D01*
D12*
X11801250Y-9738750D02*
X11821250Y-9758750D01*
X11821250Y-9738750D02*
X11801250Y-9758750D01*
D11*
X12116964Y-9639226D02*
X12136012Y-9639226D01*
X12155059Y-9648750D01*
X12164583Y-9658274D01*
X12174107Y-9677321D01*
X12183631Y-9715417D01*
X12183631Y-9763036D01*
X12174107Y-9801131D01*
X12164583Y-9820179D01*
X12155059Y-9829702D01*
X12136012Y-9839226D01*
X12116964Y-9839226D01*
X12097917Y-9829702D01*
X12088393Y-9820179D01*
X12078869Y-9801131D01*
X12069345Y-9763036D01*
X12069345Y-9715417D01*
X12078869Y-9677321D01*
X12088393Y-9658274D01*
X12097917Y-9648750D01*
X12116964Y-9639226D01*
X12269345Y-9820179D02*
X12278869Y-9829702D01*
X12269345Y-9839226D01*
X12259821Y-9829702D01*
X12269345Y-9820179D01*
X12269345Y-9839226D01*
X12355059Y-9658274D02*
X12364583Y-9648750D01*
X12383631Y-9639226D01*
X12431250Y-9639226D01*
X12450298Y-9648750D01*
X12459821Y-9658274D01*
X12469345Y-9677321D01*
X12469345Y-9696369D01*
X12459821Y-9724940D01*
X12345536Y-9839226D01*
X12469345Y-9839226D01*
X12593155Y-9639226D02*
X12612202Y-9639226D01*
X12631250Y-9648750D01*
X12640774Y-9658274D01*
X12650298Y-9677321D01*
X12659821Y-9715417D01*
X12659821Y-9763036D01*
X12650298Y-9801131D01*
X12640774Y-9820179D01*
X12631250Y-9829702D01*
X12612202Y-9839226D01*
X12593155Y-9839226D01*
X12574107Y-9829702D01*
X12564583Y-9820179D01*
X12555059Y-9801131D01*
X12545536Y-9763036D01*
X12545536Y-9715417D01*
X12555059Y-9677321D01*
X12564583Y-9658274D01*
X12574107Y-9648750D01*
X12593155Y-9639226D01*
X12783631Y-9639226D02*
X12802678Y-9639226D01*
X12821726Y-9648750D01*
X12831250Y-9658274D01*
X12840774Y-9677321D01*
X12850298Y-9715417D01*
X12850298Y-9763036D01*
X12840774Y-9801131D01*
X12831250Y-9820179D01*
X12821726Y-9829702D01*
X12802678Y-9839226D01*
X12783631Y-9839226D01*
X12764583Y-9829702D01*
X12755059Y-9820179D01*
X12745536Y-9801131D01*
X12736012Y-9763036D01*
X12736012Y-9715417D01*
X12745536Y-9677321D01*
X12755059Y-9658274D01*
X12764583Y-9648750D01*
X12783631Y-9639226D01*
X12936012Y-9839226D02*
X12936012Y-9705893D01*
X12936012Y-9724940D02*
X12945536Y-9715417D01*
X12964583Y-9705893D01*
X12993155Y-9705893D01*
X13012202Y-9715417D01*
X13021726Y-9734464D01*
X13021726Y-9839226D01*
X13021726Y-9734464D02*
X13031250Y-9715417D01*
X13050298Y-9705893D01*
X13078869Y-9705893D01*
X13097917Y-9715417D01*
X13107440Y-9734464D01*
X13107440Y-9839226D01*
X13202678Y-9839226D02*
X13202678Y-9705893D01*
X13202678Y-9724940D02*
X13212202Y-9715417D01*
X13231250Y-9705893D01*
X13259821Y-9705893D01*
X13278869Y-9715417D01*
X13288393Y-9734464D01*
X13288393Y-9839226D01*
X13288393Y-9734464D02*
X13297917Y-9715417D01*
X13316964Y-9705893D01*
X13345536Y-9705893D01*
X13364583Y-9715417D01*
X13374107Y-9734464D01*
X13374107Y-9839226D01*
X13764583Y-9629702D02*
X13593155Y-9886845D01*
X14021726Y-9639226D02*
X14040774Y-9639226D01*
X14059821Y-9648750D01*
X14069345Y-9658274D01*
X14078869Y-9677321D01*
X14088393Y-9715417D01*
X14088393Y-9763036D01*
X14078869Y-9801131D01*
X14069345Y-9820179D01*
X14059821Y-9829702D01*
X14040774Y-9839226D01*
X14021726Y-9839226D01*
X14002678Y-9829702D01*
X13993155Y-9820179D01*
X13983631Y-9801131D01*
X13974107Y-9763036D01*
X13974107Y-9715417D01*
X13983631Y-9677321D01*
X13993155Y-9658274D01*
X14002678Y-9648750D01*
X14021726Y-9639226D01*
X14174107Y-9820179D02*
X14183631Y-9829702D01*
X14174107Y-9839226D01*
X14164583Y-9829702D01*
X14174107Y-9820179D01*
X14174107Y-9839226D01*
X14307440Y-9639226D02*
X14326488Y-9639226D01*
X14345536Y-9648750D01*
X14355059Y-9658274D01*
X14364583Y-9677321D01*
X14374107Y-9715417D01*
X14374107Y-9763036D01*
X14364583Y-9801131D01*
X14355059Y-9820179D01*
X14345536Y-9829702D01*
X14326488Y-9839226D01*
X14307440Y-9839226D01*
X14288393Y-9829702D01*
X14278869Y-9820179D01*
X14269345Y-9801131D01*
X14259821Y-9763036D01*
X14259821Y-9715417D01*
X14269345Y-9677321D01*
X14278869Y-9658274D01*
X14288393Y-9648750D01*
X14307440Y-9639226D01*
X14497917Y-9639226D02*
X14516964Y-9639226D01*
X14536012Y-9648750D01*
X14545536Y-9658274D01*
X14555059Y-9677321D01*
X14564583Y-9715417D01*
X14564583Y-9763036D01*
X14555059Y-9801131D01*
X14545536Y-9820179D01*
X14536012Y-9829702D01*
X14516964Y-9839226D01*
X14497917Y-9839226D01*
X14478869Y-9829702D01*
X14469345Y-9820179D01*
X14459821Y-9801131D01*
X14450298Y-9763036D01*
X14450298Y-9715417D01*
X14459821Y-9677321D01*
X14469345Y-9658274D01*
X14478869Y-9648750D01*
X14497917Y-9639226D01*
X14631250Y-9639226D02*
X14764583Y-9639226D01*
X14678869Y-9839226D01*
X14850298Y-9839226D02*
X14888393Y-9839226D01*
X14907440Y-9829702D01*
X14916964Y-9820179D01*
X14936012Y-9791607D01*
X14945536Y-9753512D01*
X14945536Y-9677321D01*
X14936012Y-9658274D01*
X14926488Y-9648750D01*
X14907440Y-9639226D01*
X14869345Y-9639226D01*
X14850298Y-9648750D01*
X14840774Y-9658274D01*
X14831250Y-9677321D01*
X14831250Y-9724940D01*
X14840774Y-9743988D01*
X14850298Y-9753512D01*
X14869345Y-9763036D01*
X14907440Y-9763036D01*
X14926488Y-9753512D01*
X14936012Y-9743988D01*
X14945536Y-9724940D01*
X15021726Y-9639226D02*
X15021726Y-9677321D01*
X15097917Y-9639226D02*
X15097917Y-9677321D01*
X15393155Y-9915417D02*
X15383631Y-9905893D01*
X15364583Y-9877321D01*
X15355059Y-9858274D01*
X15345536Y-9829702D01*
X15336012Y-9782083D01*
X15336012Y-9743988D01*
X15345536Y-9696369D01*
X15355059Y-9667798D01*
X15364583Y-9648750D01*
X15383631Y-9620179D01*
X15393155Y-9610655D01*
X15574107Y-9839226D02*
X15459821Y-9839226D01*
X15516964Y-9839226D02*
X15516964Y-9639226D01*
X15497917Y-9667798D01*
X15478869Y-9686845D01*
X15459821Y-9696369D01*
X15650298Y-9658274D02*
X15659821Y-9648750D01*
X15678869Y-9639226D01*
X15726488Y-9639226D01*
X15745536Y-9648750D01*
X15755059Y-9658274D01*
X15764583Y-9677321D01*
X15764583Y-9696369D01*
X15755059Y-9724940D01*
X15640774Y-9839226D01*
X15764583Y-9839226D01*
X15945536Y-9639226D02*
X15850298Y-9639226D01*
X15840774Y-9734464D01*
X15850298Y-9724940D01*
X15869345Y-9715417D01*
X15916964Y-9715417D01*
X15936012Y-9724940D01*
X15945536Y-9734464D01*
X15955059Y-9753512D01*
X15955059Y-9801131D01*
X15945536Y-9820179D01*
X15936012Y-9829702D01*
X15916964Y-9839226D01*
X15869345Y-9839226D01*
X15850298Y-9829702D01*
X15840774Y-9820179D01*
X16193155Y-9839226D02*
X16193155Y-9639226D01*
X16278869Y-9839226D02*
X16278869Y-9734464D01*
X16269345Y-9715417D01*
X16250298Y-9705893D01*
X16221726Y-9705893D01*
X16202678Y-9715417D01*
X16193155Y-9724940D01*
X16402678Y-9839226D02*
X16383631Y-9829702D01*
X16374107Y-9820179D01*
X16364583Y-9801131D01*
X16364583Y-9743988D01*
X16374107Y-9724940D01*
X16383631Y-9715417D01*
X16402678Y-9705893D01*
X16431250Y-9705893D01*
X16450298Y-9715417D01*
X16459821Y-9724940D01*
X16469345Y-9743988D01*
X16469345Y-9801131D01*
X16459821Y-9820179D01*
X16450298Y-9829702D01*
X16431250Y-9839226D01*
X16402678Y-9839226D01*
X16583631Y-9839226D02*
X16564583Y-9829702D01*
X16555059Y-9810655D01*
X16555059Y-9639226D01*
X16736012Y-9829702D02*
X16716964Y-9839226D01*
X16678869Y-9839226D01*
X16659821Y-9829702D01*
X16650298Y-9810655D01*
X16650298Y-9734464D01*
X16659821Y-9715417D01*
X16678869Y-9705893D01*
X16716964Y-9705893D01*
X16736012Y-9715417D01*
X16745536Y-9734464D01*
X16745536Y-9753512D01*
X16650298Y-9772560D01*
X16821726Y-9829702D02*
X16840774Y-9839226D01*
X16878869Y-9839226D01*
X16897917Y-9829702D01*
X16907440Y-9810655D01*
X16907440Y-9801131D01*
X16897917Y-9782083D01*
X16878869Y-9772560D01*
X16850298Y-9772560D01*
X16831250Y-9763036D01*
X16821726Y-9743988D01*
X16821726Y-9734464D01*
X16831250Y-9715417D01*
X16850298Y-9705893D01*
X16878869Y-9705893D01*
X16897917Y-9715417D01*
X16974107Y-9915417D02*
X16983631Y-9905893D01*
X17002679Y-9877321D01*
X17012202Y-9858274D01*
X17021726Y-9829702D01*
X17031250Y-9782083D01*
X17031250Y-9743988D01*
X17021726Y-9696369D01*
X17012202Y-9667798D01*
X17002679Y-9648750D01*
X16983631Y-9620179D01*
X16974107Y-9610655D01*
D13*
X11821250Y-10012750D02*
G75*
G03*
X11821250Y-10012750I-27500J0D01*
G01*
D11*
X12116964Y-9903226D02*
X12136012Y-9903226D01*
X12155059Y-9912750D01*
X12164583Y-9922274D01*
X12174107Y-9941321D01*
X12183631Y-9979417D01*
X12183631Y-10027036D01*
X12174107Y-10065131D01*
X12164583Y-10084179D01*
X12155059Y-10093702D01*
X12136012Y-10103226D01*
X12116964Y-10103226D01*
X12097917Y-10093702D01*
X12088393Y-10084179D01*
X12078869Y-10065131D01*
X12069345Y-10027036D01*
X12069345Y-9979417D01*
X12078869Y-9941321D01*
X12088393Y-9922274D01*
X12097917Y-9912750D01*
X12116964Y-9903226D01*
X12269345Y-10084179D02*
X12278869Y-10093702D01*
X12269345Y-10103226D01*
X12259821Y-10093702D01*
X12269345Y-10084179D01*
X12269345Y-10103226D01*
X12459821Y-9903226D02*
X12364583Y-9903226D01*
X12355059Y-9998464D01*
X12364583Y-9988940D01*
X12383631Y-9979417D01*
X12431250Y-9979417D01*
X12450298Y-9988940D01*
X12459821Y-9998464D01*
X12469345Y-10017512D01*
X12469345Y-10065131D01*
X12459821Y-10084179D01*
X12450298Y-10093702D01*
X12431250Y-10103226D01*
X12383631Y-10103226D01*
X12364583Y-10093702D01*
X12355059Y-10084179D01*
X12650298Y-9903226D02*
X12555059Y-9903226D01*
X12545536Y-9998464D01*
X12555059Y-9988940D01*
X12574107Y-9979417D01*
X12621726Y-9979417D01*
X12640774Y-9988940D01*
X12650298Y-9998464D01*
X12659821Y-10017512D01*
X12659821Y-10065131D01*
X12650298Y-10084179D01*
X12640774Y-10093702D01*
X12621726Y-10103226D01*
X12574107Y-10103226D01*
X12555059Y-10093702D01*
X12545536Y-10084179D01*
X12783631Y-9903226D02*
X12802678Y-9903226D01*
X12821726Y-9912750D01*
X12831250Y-9922274D01*
X12840774Y-9941321D01*
X12850298Y-9979417D01*
X12850298Y-10027036D01*
X12840774Y-10065131D01*
X12831250Y-10084179D01*
X12821726Y-10093702D01*
X12802678Y-10103226D01*
X12783631Y-10103226D01*
X12764583Y-10093702D01*
X12755059Y-10084179D01*
X12745536Y-10065131D01*
X12736012Y-10027036D01*
X12736012Y-9979417D01*
X12745536Y-9941321D01*
X12755059Y-9922274D01*
X12764583Y-9912750D01*
X12783631Y-9903226D01*
X12936012Y-10103226D02*
X12936012Y-9969893D01*
X12936012Y-9988940D02*
X12945536Y-9979417D01*
X12964583Y-9969893D01*
X12993155Y-9969893D01*
X13012202Y-9979417D01*
X13021726Y-9998464D01*
X13021726Y-10103226D01*
X13021726Y-9998464D02*
X13031250Y-9979417D01*
X13050298Y-9969893D01*
X13078869Y-9969893D01*
X13097917Y-9979417D01*
X13107440Y-9998464D01*
X13107440Y-10103226D01*
X13202678Y-10103226D02*
X13202678Y-9969893D01*
X13202678Y-9988940D02*
X13212202Y-9979417D01*
X13231250Y-9969893D01*
X13259821Y-9969893D01*
X13278869Y-9979417D01*
X13288393Y-9998464D01*
X13288393Y-10103226D01*
X13288393Y-9998464D02*
X13297917Y-9979417D01*
X13316964Y-9969893D01*
X13345536Y-9969893D01*
X13364583Y-9979417D01*
X13374107Y-9998464D01*
X13374107Y-10103226D01*
X13764583Y-9893702D02*
X13593155Y-10150845D01*
X14021726Y-9903226D02*
X14040774Y-9903226D01*
X14059821Y-9912750D01*
X14069345Y-9922274D01*
X14078869Y-9941321D01*
X14088393Y-9979417D01*
X14088393Y-10027036D01*
X14078869Y-10065131D01*
X14069345Y-10084179D01*
X14059821Y-10093702D01*
X14040774Y-10103226D01*
X14021726Y-10103226D01*
X14002678Y-10093702D01*
X13993155Y-10084179D01*
X13983631Y-10065131D01*
X13974107Y-10027036D01*
X13974107Y-9979417D01*
X13983631Y-9941321D01*
X13993155Y-9922274D01*
X14002678Y-9912750D01*
X14021726Y-9903226D01*
X14174107Y-10084179D02*
X14183631Y-10093702D01*
X14174107Y-10103226D01*
X14164583Y-10093702D01*
X14174107Y-10084179D01*
X14174107Y-10103226D01*
X14307440Y-9903226D02*
X14326488Y-9903226D01*
X14345536Y-9912750D01*
X14355059Y-9922274D01*
X14364583Y-9941321D01*
X14374107Y-9979417D01*
X14374107Y-10027036D01*
X14364583Y-10065131D01*
X14355059Y-10084179D01*
X14345536Y-10093702D01*
X14326488Y-10103226D01*
X14307440Y-10103226D01*
X14288393Y-10093702D01*
X14278869Y-10084179D01*
X14269345Y-10065131D01*
X14259821Y-10027036D01*
X14259821Y-9979417D01*
X14269345Y-9941321D01*
X14278869Y-9922274D01*
X14288393Y-9912750D01*
X14307440Y-9903226D01*
X14450298Y-9922274D02*
X14459821Y-9912750D01*
X14478869Y-9903226D01*
X14526488Y-9903226D01*
X14545536Y-9912750D01*
X14555059Y-9922274D01*
X14564583Y-9941321D01*
X14564583Y-9960369D01*
X14555059Y-9988940D01*
X14440774Y-10103226D01*
X14564583Y-10103226D01*
X14755059Y-10103226D02*
X14640774Y-10103226D01*
X14697917Y-10103226D02*
X14697917Y-9903226D01*
X14678869Y-9931798D01*
X14659821Y-9950845D01*
X14640774Y-9960369D01*
X14821726Y-9903226D02*
X14955059Y-9903226D01*
X14869345Y-10103226D01*
X15021726Y-9903226D02*
X15021726Y-9941321D01*
X15097917Y-9903226D02*
X15097917Y-9941321D01*
X15393155Y-10179417D02*
X15383631Y-10169893D01*
X15364583Y-10141321D01*
X15355059Y-10122274D01*
X15345536Y-10093702D01*
X15336012Y-10046083D01*
X15336012Y-10007988D01*
X15345536Y-9960369D01*
X15355059Y-9931798D01*
X15364583Y-9912750D01*
X15383631Y-9884179D01*
X15393155Y-9874655D01*
X15459821Y-9922274D02*
X15469345Y-9912750D01*
X15488393Y-9903226D01*
X15536012Y-9903226D01*
X15555059Y-9912750D01*
X15564583Y-9922274D01*
X15574107Y-9941321D01*
X15574107Y-9960369D01*
X15564583Y-9988940D01*
X15450298Y-10103226D01*
X15574107Y-10103226D01*
X15812202Y-10103226D02*
X15812202Y-9903226D01*
X15897917Y-10103226D02*
X15897917Y-9998464D01*
X15888393Y-9979417D01*
X15869345Y-9969893D01*
X15840774Y-9969893D01*
X15821726Y-9979417D01*
X15812202Y-9988940D01*
X16021726Y-10103226D02*
X16002678Y-10093702D01*
X15993155Y-10084179D01*
X15983631Y-10065131D01*
X15983631Y-10007988D01*
X15993155Y-9988940D01*
X16002678Y-9979417D01*
X16021726Y-9969893D01*
X16050298Y-9969893D01*
X16069345Y-9979417D01*
X16078869Y-9988940D01*
X16088393Y-10007988D01*
X16088393Y-10065131D01*
X16078869Y-10084179D01*
X16069345Y-10093702D01*
X16050298Y-10103226D01*
X16021726Y-10103226D01*
X16202678Y-10103226D02*
X16183631Y-10093702D01*
X16174107Y-10074655D01*
X16174107Y-9903226D01*
X16355059Y-10093702D02*
X16336012Y-10103226D01*
X16297917Y-10103226D01*
X16278869Y-10093702D01*
X16269345Y-10074655D01*
X16269345Y-9998464D01*
X16278869Y-9979417D01*
X16297917Y-9969893D01*
X16336012Y-9969893D01*
X16355059Y-9979417D01*
X16364583Y-9998464D01*
X16364583Y-10017512D01*
X16269345Y-10036560D01*
X16440774Y-10093702D02*
X16459821Y-10103226D01*
X16497917Y-10103226D01*
X16516964Y-10093702D01*
X16526488Y-10074655D01*
X16526488Y-10065131D01*
X16516964Y-10046083D01*
X16497917Y-10036560D01*
X16469345Y-10036560D01*
X16450298Y-10027036D01*
X16440774Y-10007988D01*
X16440774Y-9998464D01*
X16450298Y-9979417D01*
X16469345Y-9969893D01*
X16497917Y-9969893D01*
X16516964Y-9979417D01*
X16593155Y-10179417D02*
X16602678Y-10169893D01*
X16621726Y-10141321D01*
X16631250Y-10122274D01*
X16640774Y-10093702D01*
X16650298Y-10046083D01*
X16650298Y-10007988D01*
X16640774Y-9960369D01*
X16631250Y-9931798D01*
X16621726Y-9912750D01*
X16602678Y-9884179D01*
X16593155Y-9874655D01*
D14*
X11791250Y-10246750D02*
X11791250Y-10306750D01*
X11761250Y-10276750D02*
X11821250Y-10276750D01*
D11*
X12116964Y-10167226D02*
X12136012Y-10167226D01*
X12155059Y-10176750D01*
X12164583Y-10186274D01*
X12174107Y-10205321D01*
X12183631Y-10243417D01*
X12183631Y-10291036D01*
X12174107Y-10329131D01*
X12164583Y-10348179D01*
X12155059Y-10357702D01*
X12136012Y-10367226D01*
X12116964Y-10367226D01*
X12097917Y-10357702D01*
X12088393Y-10348179D01*
X12078869Y-10329131D01*
X12069345Y-10291036D01*
X12069345Y-10243417D01*
X12078869Y-10205321D01*
X12088393Y-10186274D01*
X12097917Y-10176750D01*
X12116964Y-10167226D01*
X12269345Y-10348179D02*
X12278869Y-10357702D01*
X12269345Y-10367226D01*
X12259821Y-10357702D01*
X12269345Y-10348179D01*
X12269345Y-10367226D01*
X12450298Y-10167226D02*
X12412202Y-10167226D01*
X12393155Y-10176750D01*
X12383631Y-10186274D01*
X12364583Y-10214845D01*
X12355059Y-10252940D01*
X12355059Y-10329131D01*
X12364583Y-10348179D01*
X12374107Y-10357702D01*
X12393155Y-10367226D01*
X12431250Y-10367226D01*
X12450298Y-10357702D01*
X12459821Y-10348179D01*
X12469345Y-10329131D01*
X12469345Y-10281512D01*
X12459821Y-10262464D01*
X12450298Y-10252940D01*
X12431250Y-10243417D01*
X12393155Y-10243417D01*
X12374107Y-10252940D01*
X12364583Y-10262464D01*
X12355059Y-10281512D01*
X12593155Y-10167226D02*
X12612202Y-10167226D01*
X12631250Y-10176750D01*
X12640774Y-10186274D01*
X12650298Y-10205321D01*
X12659821Y-10243417D01*
X12659821Y-10291036D01*
X12650298Y-10329131D01*
X12640774Y-10348179D01*
X12631250Y-10357702D01*
X12612202Y-10367226D01*
X12593155Y-10367226D01*
X12574107Y-10357702D01*
X12564583Y-10348179D01*
X12555059Y-10329131D01*
X12545536Y-10291036D01*
X12545536Y-10243417D01*
X12555059Y-10205321D01*
X12564583Y-10186274D01*
X12574107Y-10176750D01*
X12593155Y-10167226D01*
X12783631Y-10167226D02*
X12802678Y-10167226D01*
X12821726Y-10176750D01*
X12831250Y-10186274D01*
X12840774Y-10205321D01*
X12850298Y-10243417D01*
X12850298Y-10291036D01*
X12840774Y-10329131D01*
X12831250Y-10348179D01*
X12821726Y-10357702D01*
X12802678Y-10367226D01*
X12783631Y-10367226D01*
X12764583Y-10357702D01*
X12755059Y-10348179D01*
X12745536Y-10329131D01*
X12736012Y-10291036D01*
X12736012Y-10243417D01*
X12745536Y-10205321D01*
X12755059Y-10186274D01*
X12764583Y-10176750D01*
X12783631Y-10167226D01*
X12936012Y-10367226D02*
X12936012Y-10233893D01*
X12936012Y-10252940D02*
X12945536Y-10243417D01*
X12964583Y-10233893D01*
X12993155Y-10233893D01*
X13012202Y-10243417D01*
X13021726Y-10262464D01*
X13021726Y-10367226D01*
X13021726Y-10262464D02*
X13031250Y-10243417D01*
X13050298Y-10233893D01*
X13078869Y-10233893D01*
X13097917Y-10243417D01*
X13107440Y-10262464D01*
X13107440Y-10367226D01*
X13202678Y-10367226D02*
X13202678Y-10233893D01*
X13202678Y-10252940D02*
X13212202Y-10243417D01*
X13231250Y-10233893D01*
X13259821Y-10233893D01*
X13278869Y-10243417D01*
X13288393Y-10262464D01*
X13288393Y-10367226D01*
X13288393Y-10262464D02*
X13297917Y-10243417D01*
X13316964Y-10233893D01*
X13345536Y-10233893D01*
X13364583Y-10243417D01*
X13374107Y-10262464D01*
X13374107Y-10367226D01*
X13764583Y-10157702D02*
X13593155Y-10414845D01*
X14021726Y-10167226D02*
X14040774Y-10167226D01*
X14059821Y-10176750D01*
X14069345Y-10186274D01*
X14078869Y-10205321D01*
X14088393Y-10243417D01*
X14088393Y-10291036D01*
X14078869Y-10329131D01*
X14069345Y-10348179D01*
X14059821Y-10357702D01*
X14040774Y-10367226D01*
X14021726Y-10367226D01*
X14002678Y-10357702D01*
X13993155Y-10348179D01*
X13983631Y-10329131D01*
X13974107Y-10291036D01*
X13974107Y-10243417D01*
X13983631Y-10205321D01*
X13993155Y-10186274D01*
X14002678Y-10176750D01*
X14021726Y-10167226D01*
X14174107Y-10348179D02*
X14183631Y-10357702D01*
X14174107Y-10367226D01*
X14164583Y-10357702D01*
X14174107Y-10348179D01*
X14174107Y-10367226D01*
X14307440Y-10167226D02*
X14326488Y-10167226D01*
X14345536Y-10176750D01*
X14355059Y-10186274D01*
X14364583Y-10205321D01*
X14374107Y-10243417D01*
X14374107Y-10291036D01*
X14364583Y-10329131D01*
X14355059Y-10348179D01*
X14345536Y-10357702D01*
X14326488Y-10367226D01*
X14307440Y-10367226D01*
X14288393Y-10357702D01*
X14278869Y-10348179D01*
X14269345Y-10329131D01*
X14259821Y-10291036D01*
X14259821Y-10243417D01*
X14269345Y-10205321D01*
X14278869Y-10186274D01*
X14288393Y-10176750D01*
X14307440Y-10167226D01*
X14450298Y-10186274D02*
X14459821Y-10176750D01*
X14478869Y-10167226D01*
X14526488Y-10167226D01*
X14545536Y-10176750D01*
X14555059Y-10186274D01*
X14564583Y-10205321D01*
X14564583Y-10224369D01*
X14555059Y-10252940D01*
X14440774Y-10367226D01*
X14564583Y-10367226D01*
X14631250Y-10167226D02*
X14755059Y-10167226D01*
X14688393Y-10243417D01*
X14716964Y-10243417D01*
X14736012Y-10252940D01*
X14745536Y-10262464D01*
X14755059Y-10281512D01*
X14755059Y-10329131D01*
X14745536Y-10348179D01*
X14736012Y-10357702D01*
X14716964Y-10367226D01*
X14659821Y-10367226D01*
X14640774Y-10357702D01*
X14631250Y-10348179D01*
X14926488Y-10167226D02*
X14888393Y-10167226D01*
X14869345Y-10176750D01*
X14859821Y-10186274D01*
X14840774Y-10214845D01*
X14831250Y-10252940D01*
X14831250Y-10329131D01*
X14840774Y-10348179D01*
X14850298Y-10357702D01*
X14869345Y-10367226D01*
X14907440Y-10367226D01*
X14926488Y-10357702D01*
X14936012Y-10348179D01*
X14945536Y-10329131D01*
X14945536Y-10281512D01*
X14936012Y-10262464D01*
X14926488Y-10252940D01*
X14907440Y-10243417D01*
X14869345Y-10243417D01*
X14850298Y-10252940D01*
X14840774Y-10262464D01*
X14831250Y-10281512D01*
X15021726Y-10167226D02*
X15021726Y-10205321D01*
X15097917Y-10167226D02*
X15097917Y-10205321D01*
X15393155Y-10443417D02*
X15383631Y-10433893D01*
X15364583Y-10405321D01*
X15355059Y-10386274D01*
X15345536Y-10357702D01*
X15336012Y-10310083D01*
X15336012Y-10271988D01*
X15345536Y-10224369D01*
X15355059Y-10195798D01*
X15364583Y-10176750D01*
X15383631Y-10148179D01*
X15393155Y-10138655D01*
X15507440Y-10167226D02*
X15526488Y-10167226D01*
X15545536Y-10176750D01*
X15555059Y-10186274D01*
X15564583Y-10205321D01*
X15574107Y-10243417D01*
X15574107Y-10291036D01*
X15564583Y-10329131D01*
X15555059Y-10348179D01*
X15545536Y-10357702D01*
X15526488Y-10367226D01*
X15507440Y-10367226D01*
X15488393Y-10357702D01*
X15478869Y-10348179D01*
X15469345Y-10329131D01*
X15459821Y-10291036D01*
X15459821Y-10243417D01*
X15469345Y-10205321D01*
X15478869Y-10186274D01*
X15488393Y-10176750D01*
X15507440Y-10167226D01*
X15812202Y-10367226D02*
X15812202Y-10167226D01*
X15897917Y-10367226D02*
X15897917Y-10262464D01*
X15888393Y-10243417D01*
X15869345Y-10233893D01*
X15840774Y-10233893D01*
X15821726Y-10243417D01*
X15812202Y-10252940D01*
X16021726Y-10367226D02*
X16002678Y-10357702D01*
X15993155Y-10348179D01*
X15983631Y-10329131D01*
X15983631Y-10271988D01*
X15993155Y-10252940D01*
X16002678Y-10243417D01*
X16021726Y-10233893D01*
X16050298Y-10233893D01*
X16069345Y-10243417D01*
X16078869Y-10252940D01*
X16088393Y-10271988D01*
X16088393Y-10329131D01*
X16078869Y-10348179D01*
X16069345Y-10357702D01*
X16050298Y-10367226D01*
X16021726Y-10367226D01*
X16202678Y-10367226D02*
X16183631Y-10357702D01*
X16174107Y-10338655D01*
X16174107Y-10167226D01*
X16355059Y-10357702D02*
X16336012Y-10367226D01*
X16297917Y-10367226D01*
X16278869Y-10357702D01*
X16269345Y-10338655D01*
X16269345Y-10262464D01*
X16278869Y-10243417D01*
X16297917Y-10233893D01*
X16336012Y-10233893D01*
X16355059Y-10243417D01*
X16364583Y-10262464D01*
X16364583Y-10281512D01*
X16269345Y-10300560D01*
X16440774Y-10357702D02*
X16459821Y-10367226D01*
X16497917Y-10367226D01*
X16516964Y-10357702D01*
X16526488Y-10338655D01*
X16526488Y-10329131D01*
X16516964Y-10310083D01*
X16497917Y-10300560D01*
X16469345Y-10300560D01*
X16450298Y-10291036D01*
X16440774Y-10271988D01*
X16440774Y-10262464D01*
X16450298Y-10243417D01*
X16469345Y-10233893D01*
X16497917Y-10233893D01*
X16516964Y-10243417D01*
X16764583Y-10291036D02*
X16916964Y-10291036D01*
X16840774Y-10367226D02*
X16840774Y-10214845D01*
X17250298Y-10233893D02*
X17250298Y-10367226D01*
X17202679Y-10157702D02*
X17155060Y-10300560D01*
X17278869Y-10300560D01*
X17497917Y-10357702D02*
X17516964Y-10367226D01*
X17555060Y-10367226D01*
X17574107Y-10357702D01*
X17583631Y-10338655D01*
X17583631Y-10329131D01*
X17574107Y-10310083D01*
X17555060Y-10300560D01*
X17526488Y-10300560D01*
X17507440Y-10291036D01*
X17497917Y-10271988D01*
X17497917Y-10262464D01*
X17507440Y-10243417D01*
X17526488Y-10233893D01*
X17555060Y-10233893D01*
X17574107Y-10243417D01*
X17697917Y-10367226D02*
X17678869Y-10357702D01*
X17669345Y-10338655D01*
X17669345Y-10167226D01*
X17802679Y-10367226D02*
X17783631Y-10357702D01*
X17774107Y-10348179D01*
X17764583Y-10329131D01*
X17764583Y-10271988D01*
X17774107Y-10252940D01*
X17783631Y-10243417D01*
X17802679Y-10233893D01*
X17831250Y-10233893D01*
X17850298Y-10243417D01*
X17859821Y-10252940D01*
X17869345Y-10271988D01*
X17869345Y-10329131D01*
X17859821Y-10348179D01*
X17850298Y-10357702D01*
X17831250Y-10367226D01*
X17802679Y-10367226D01*
X17926488Y-10233893D02*
X18002679Y-10233893D01*
X17955060Y-10167226D02*
X17955060Y-10338655D01*
X17964583Y-10357702D01*
X17983631Y-10367226D01*
X18002679Y-10367226D01*
X18059821Y-10357702D02*
X18078869Y-10367226D01*
X18116964Y-10367226D01*
X18136012Y-10357702D01*
X18145536Y-10338655D01*
X18145536Y-10329131D01*
X18136012Y-10310083D01*
X18116964Y-10300560D01*
X18088393Y-10300560D01*
X18069345Y-10291036D01*
X18059821Y-10271988D01*
X18059821Y-10262464D01*
X18069345Y-10243417D01*
X18088393Y-10233893D01*
X18116964Y-10233893D01*
X18136012Y-10243417D01*
X18212202Y-10443417D02*
X18221726Y-10433893D01*
X18240774Y-10405321D01*
X18250298Y-10386274D01*
X18259821Y-10357702D01*
X18269345Y-10310083D01*
X18269345Y-10271988D01*
X18259821Y-10224369D01*
X18250298Y-10195798D01*
X18240774Y-10176750D01*
X18221726Y-10148179D01*
X18212202Y-10138655D01*
D15*
X11811731Y-10563731D02*
X11811731Y-10517769D01*
X11765769Y-10517769D01*
X11765769Y-10563731D01*
X11811731Y-10563731D01*
D11*
X12116964Y-10431226D02*
X12136012Y-10431226D01*
X12155059Y-10440750D01*
X12164583Y-10450274D01*
X12174107Y-10469321D01*
X12183631Y-10507417D01*
X12183631Y-10555036D01*
X12174107Y-10593131D01*
X12164583Y-10612179D01*
X12155059Y-10621702D01*
X12136012Y-10631226D01*
X12116964Y-10631226D01*
X12097917Y-10621702D01*
X12088393Y-10612179D01*
X12078869Y-10593131D01*
X12069345Y-10555036D01*
X12069345Y-10507417D01*
X12078869Y-10469321D01*
X12088393Y-10450274D01*
X12097917Y-10440750D01*
X12116964Y-10431226D01*
X12269345Y-10612179D02*
X12278869Y-10621702D01*
X12269345Y-10631226D01*
X12259821Y-10621702D01*
X12269345Y-10612179D01*
X12269345Y-10631226D01*
X12450298Y-10431226D02*
X12412202Y-10431226D01*
X12393155Y-10440750D01*
X12383631Y-10450274D01*
X12364583Y-10478845D01*
X12355059Y-10516940D01*
X12355059Y-10593131D01*
X12364583Y-10612179D01*
X12374107Y-10621702D01*
X12393155Y-10631226D01*
X12431250Y-10631226D01*
X12450298Y-10621702D01*
X12459821Y-10612179D01*
X12469345Y-10593131D01*
X12469345Y-10545512D01*
X12459821Y-10526464D01*
X12450298Y-10516940D01*
X12431250Y-10507417D01*
X12393155Y-10507417D01*
X12374107Y-10516940D01*
X12364583Y-10526464D01*
X12355059Y-10545512D01*
X12650298Y-10431226D02*
X12555059Y-10431226D01*
X12545536Y-10526464D01*
X12555059Y-10516940D01*
X12574107Y-10507417D01*
X12621726Y-10507417D01*
X12640774Y-10516940D01*
X12650298Y-10526464D01*
X12659821Y-10545512D01*
X12659821Y-10593131D01*
X12650298Y-10612179D01*
X12640774Y-10621702D01*
X12621726Y-10631226D01*
X12574107Y-10631226D01*
X12555059Y-10621702D01*
X12545536Y-10612179D01*
X12783631Y-10431226D02*
X12802678Y-10431226D01*
X12821726Y-10440750D01*
X12831250Y-10450274D01*
X12840774Y-10469321D01*
X12850298Y-10507417D01*
X12850298Y-10555036D01*
X12840774Y-10593131D01*
X12831250Y-10612179D01*
X12821726Y-10621702D01*
X12802678Y-10631226D01*
X12783631Y-10631226D01*
X12764583Y-10621702D01*
X12755059Y-10612179D01*
X12745536Y-10593131D01*
X12736012Y-10555036D01*
X12736012Y-10507417D01*
X12745536Y-10469321D01*
X12755059Y-10450274D01*
X12764583Y-10440750D01*
X12783631Y-10431226D01*
X12936012Y-10631226D02*
X12936012Y-10497893D01*
X12936012Y-10516940D02*
X12945536Y-10507417D01*
X12964583Y-10497893D01*
X12993155Y-10497893D01*
X13012202Y-10507417D01*
X13021726Y-10526464D01*
X13021726Y-10631226D01*
X13021726Y-10526464D02*
X13031250Y-10507417D01*
X13050298Y-10497893D01*
X13078869Y-10497893D01*
X13097917Y-10507417D01*
X13107440Y-10526464D01*
X13107440Y-10631226D01*
X13202678Y-10631226D02*
X13202678Y-10497893D01*
X13202678Y-10516940D02*
X13212202Y-10507417D01*
X13231250Y-10497893D01*
X13259821Y-10497893D01*
X13278869Y-10507417D01*
X13288393Y-10526464D01*
X13288393Y-10631226D01*
X13288393Y-10526464D02*
X13297917Y-10507417D01*
X13316964Y-10497893D01*
X13345536Y-10497893D01*
X13364583Y-10507417D01*
X13374107Y-10526464D01*
X13374107Y-10631226D01*
X13764583Y-10421702D02*
X13593155Y-10678845D01*
X14021726Y-10431226D02*
X14040774Y-10431226D01*
X14059821Y-10440750D01*
X14069345Y-10450274D01*
X14078869Y-10469321D01*
X14088393Y-10507417D01*
X14088393Y-10555036D01*
X14078869Y-10593131D01*
X14069345Y-10612179D01*
X14059821Y-10621702D01*
X14040774Y-10631226D01*
X14021726Y-10631226D01*
X14002678Y-10621702D01*
X13993155Y-10612179D01*
X13983631Y-10593131D01*
X13974107Y-10555036D01*
X13974107Y-10507417D01*
X13983631Y-10469321D01*
X13993155Y-10450274D01*
X14002678Y-10440750D01*
X14021726Y-10431226D01*
X14174107Y-10612179D02*
X14183631Y-10621702D01*
X14174107Y-10631226D01*
X14164583Y-10621702D01*
X14174107Y-10612179D01*
X14174107Y-10631226D01*
X14307440Y-10431226D02*
X14326488Y-10431226D01*
X14345536Y-10440750D01*
X14355059Y-10450274D01*
X14364583Y-10469321D01*
X14374107Y-10507417D01*
X14374107Y-10555036D01*
X14364583Y-10593131D01*
X14355059Y-10612179D01*
X14345536Y-10621702D01*
X14326488Y-10631226D01*
X14307440Y-10631226D01*
X14288393Y-10621702D01*
X14278869Y-10612179D01*
X14269345Y-10593131D01*
X14259821Y-10555036D01*
X14259821Y-10507417D01*
X14269345Y-10469321D01*
X14278869Y-10450274D01*
X14288393Y-10440750D01*
X14307440Y-10431226D01*
X14450298Y-10450274D02*
X14459821Y-10440750D01*
X14478869Y-10431226D01*
X14526488Y-10431226D01*
X14545536Y-10440750D01*
X14555059Y-10450274D01*
X14564583Y-10469321D01*
X14564583Y-10488369D01*
X14555059Y-10516940D01*
X14440774Y-10631226D01*
X14564583Y-10631226D01*
X14745536Y-10431226D02*
X14650298Y-10431226D01*
X14640774Y-10526464D01*
X14650298Y-10516940D01*
X14669345Y-10507417D01*
X14716964Y-10507417D01*
X14736012Y-10516940D01*
X14745536Y-10526464D01*
X14755059Y-10545512D01*
X14755059Y-10593131D01*
X14745536Y-10612179D01*
X14736012Y-10621702D01*
X14716964Y-10631226D01*
X14669345Y-10631226D01*
X14650298Y-10621702D01*
X14640774Y-10612179D01*
X14926488Y-10431226D02*
X14888393Y-10431226D01*
X14869345Y-10440750D01*
X14859821Y-10450274D01*
X14840774Y-10478845D01*
X14831250Y-10516940D01*
X14831250Y-10593131D01*
X14840774Y-10612179D01*
X14850298Y-10621702D01*
X14869345Y-10631226D01*
X14907440Y-10631226D01*
X14926488Y-10621702D01*
X14936012Y-10612179D01*
X14945536Y-10593131D01*
X14945536Y-10545512D01*
X14936012Y-10526464D01*
X14926488Y-10516940D01*
X14907440Y-10507417D01*
X14869345Y-10507417D01*
X14850298Y-10516940D01*
X14840774Y-10526464D01*
X14831250Y-10545512D01*
X15021726Y-10431226D02*
X15021726Y-10469321D01*
X15097917Y-10431226D02*
X15097917Y-10469321D01*
X15393155Y-10707417D02*
X15383631Y-10697893D01*
X15364583Y-10669321D01*
X15355059Y-10650274D01*
X15345536Y-10621702D01*
X15336012Y-10574083D01*
X15336012Y-10535988D01*
X15345536Y-10488369D01*
X15355059Y-10459798D01*
X15364583Y-10440750D01*
X15383631Y-10412179D01*
X15393155Y-10402655D01*
X15507440Y-10431226D02*
X15526488Y-10431226D01*
X15545536Y-10440750D01*
X15555059Y-10450274D01*
X15564583Y-10469321D01*
X15574107Y-10507417D01*
X15574107Y-10555036D01*
X15564583Y-10593131D01*
X15555059Y-10612179D01*
X15545536Y-10621702D01*
X15526488Y-10631226D01*
X15507440Y-10631226D01*
X15488393Y-10621702D01*
X15478869Y-10612179D01*
X15469345Y-10593131D01*
X15459821Y-10555036D01*
X15459821Y-10507417D01*
X15469345Y-10469321D01*
X15478869Y-10450274D01*
X15488393Y-10440750D01*
X15507440Y-10431226D01*
X15812202Y-10631226D02*
X15812202Y-10431226D01*
X15897917Y-10631226D02*
X15897917Y-10526464D01*
X15888393Y-10507417D01*
X15869345Y-10497893D01*
X15840774Y-10497893D01*
X15821726Y-10507417D01*
X15812202Y-10516940D01*
X16021726Y-10631226D02*
X16002678Y-10621702D01*
X15993155Y-10612179D01*
X15983631Y-10593131D01*
X15983631Y-10535988D01*
X15993155Y-10516940D01*
X16002678Y-10507417D01*
X16021726Y-10497893D01*
X16050298Y-10497893D01*
X16069345Y-10507417D01*
X16078869Y-10516940D01*
X16088393Y-10535988D01*
X16088393Y-10593131D01*
X16078869Y-10612179D01*
X16069345Y-10621702D01*
X16050298Y-10631226D01*
X16021726Y-10631226D01*
X16202678Y-10631226D02*
X16183631Y-10621702D01*
X16174107Y-10602655D01*
X16174107Y-10431226D01*
X16355059Y-10621702D02*
X16336012Y-10631226D01*
X16297917Y-10631226D01*
X16278869Y-10621702D01*
X16269345Y-10602655D01*
X16269345Y-10526464D01*
X16278869Y-10507417D01*
X16297917Y-10497893D01*
X16336012Y-10497893D01*
X16355059Y-10507417D01*
X16364583Y-10526464D01*
X16364583Y-10545512D01*
X16269345Y-10564560D01*
X16440774Y-10621702D02*
X16459821Y-10631226D01*
X16497917Y-10631226D01*
X16516964Y-10621702D01*
X16526488Y-10602655D01*
X16526488Y-10593131D01*
X16516964Y-10574083D01*
X16497917Y-10564560D01*
X16469345Y-10564560D01*
X16450298Y-10555036D01*
X16440774Y-10535988D01*
X16440774Y-10526464D01*
X16450298Y-10507417D01*
X16469345Y-10497893D01*
X16497917Y-10497893D01*
X16516964Y-10507417D01*
X16764583Y-10555036D02*
X16916964Y-10555036D01*
X16840774Y-10631226D02*
X16840774Y-10478845D01*
X17250298Y-10497893D02*
X17250298Y-10631226D01*
X17202679Y-10421702D02*
X17155060Y-10564560D01*
X17278869Y-10564560D01*
X17497917Y-10621702D02*
X17516964Y-10631226D01*
X17555060Y-10631226D01*
X17574107Y-10621702D01*
X17583631Y-10602655D01*
X17583631Y-10593131D01*
X17574107Y-10574083D01*
X17555060Y-10564560D01*
X17526488Y-10564560D01*
X17507440Y-10555036D01*
X17497917Y-10535988D01*
X17497917Y-10526464D01*
X17507440Y-10507417D01*
X17526488Y-10497893D01*
X17555060Y-10497893D01*
X17574107Y-10507417D01*
X17697917Y-10631226D02*
X17678869Y-10621702D01*
X17669345Y-10602655D01*
X17669345Y-10431226D01*
X17802679Y-10631226D02*
X17783631Y-10621702D01*
X17774107Y-10612179D01*
X17764583Y-10593131D01*
X17764583Y-10535988D01*
X17774107Y-10516940D01*
X17783631Y-10507417D01*
X17802679Y-10497893D01*
X17831250Y-10497893D01*
X17850298Y-10507417D01*
X17859821Y-10516940D01*
X17869345Y-10535988D01*
X17869345Y-10593131D01*
X17859821Y-10612179D01*
X17850298Y-10621702D01*
X17831250Y-10631226D01*
X17802679Y-10631226D01*
X17926488Y-10497893D02*
X18002679Y-10497893D01*
X17955060Y-10431226D02*
X17955060Y-10602655D01*
X17964583Y-10621702D01*
X17983631Y-10631226D01*
X18002679Y-10631226D01*
X18059821Y-10621702D02*
X18078869Y-10631226D01*
X18116964Y-10631226D01*
X18136012Y-10621702D01*
X18145536Y-10602655D01*
X18145536Y-10593131D01*
X18136012Y-10574083D01*
X18116964Y-10564560D01*
X18088393Y-10564560D01*
X18069345Y-10555036D01*
X18059821Y-10535988D01*
X18059821Y-10526464D01*
X18069345Y-10507417D01*
X18088393Y-10497893D01*
X18116964Y-10497893D01*
X18136012Y-10507417D01*
X18212202Y-10707417D02*
X18221726Y-10697893D01*
X18240774Y-10669321D01*
X18250298Y-10650274D01*
X18259821Y-10621702D01*
X18269345Y-10574083D01*
X18269345Y-10535988D01*
X18259821Y-10488369D01*
X18250298Y-10459798D01*
X18240774Y-10440750D01*
X18221726Y-10412179D01*
X18212202Y-10402655D01*
D10*
X11771250Y-10854750D02*
X11821250Y-10804750D01*
X11771250Y-10754750D01*
X11721250Y-10804750D01*
X11771250Y-10854750D01*
D11*
X12183631Y-10895226D02*
X12069345Y-10895226D01*
X12126488Y-10895226D02*
X12126488Y-10695226D01*
X12107440Y-10723798D01*
X12088393Y-10742845D01*
X12069345Y-10752369D01*
X12269345Y-10876179D02*
X12278869Y-10885702D01*
X12269345Y-10895226D01*
X12259821Y-10885702D01*
X12269345Y-10876179D01*
X12269345Y-10895226D01*
X12402678Y-10695226D02*
X12421726Y-10695226D01*
X12440774Y-10704750D01*
X12450298Y-10714274D01*
X12459821Y-10733321D01*
X12469345Y-10771417D01*
X12469345Y-10819036D01*
X12459821Y-10857131D01*
X12450298Y-10876179D01*
X12440774Y-10885702D01*
X12421726Y-10895226D01*
X12402678Y-10895226D01*
X12383631Y-10885702D01*
X12374107Y-10876179D01*
X12364583Y-10857131D01*
X12355059Y-10819036D01*
X12355059Y-10771417D01*
X12364583Y-10733321D01*
X12374107Y-10714274D01*
X12383631Y-10704750D01*
X12402678Y-10695226D01*
X12593155Y-10695226D02*
X12612202Y-10695226D01*
X12631250Y-10704750D01*
X12640774Y-10714274D01*
X12650298Y-10733321D01*
X12659821Y-10771417D01*
X12659821Y-10819036D01*
X12650298Y-10857131D01*
X12640774Y-10876179D01*
X12631250Y-10885702D01*
X12612202Y-10895226D01*
X12593155Y-10895226D01*
X12574107Y-10885702D01*
X12564583Y-10876179D01*
X12555059Y-10857131D01*
X12545536Y-10819036D01*
X12545536Y-10771417D01*
X12555059Y-10733321D01*
X12564583Y-10714274D01*
X12574107Y-10704750D01*
X12593155Y-10695226D01*
X12783631Y-10695226D02*
X12802678Y-10695226D01*
X12821726Y-10704750D01*
X12831250Y-10714274D01*
X12840774Y-10733321D01*
X12850298Y-10771417D01*
X12850298Y-10819036D01*
X12840774Y-10857131D01*
X12831250Y-10876179D01*
X12821726Y-10885702D01*
X12802678Y-10895226D01*
X12783631Y-10895226D01*
X12764583Y-10885702D01*
X12755059Y-10876179D01*
X12745536Y-10857131D01*
X12736012Y-10819036D01*
X12736012Y-10771417D01*
X12745536Y-10733321D01*
X12755059Y-10714274D01*
X12764583Y-10704750D01*
X12783631Y-10695226D01*
X12936012Y-10895226D02*
X12936012Y-10761893D01*
X12936012Y-10780940D02*
X12945536Y-10771417D01*
X12964583Y-10761893D01*
X12993155Y-10761893D01*
X13012202Y-10771417D01*
X13021726Y-10790464D01*
X13021726Y-10895226D01*
X13021726Y-10790464D02*
X13031250Y-10771417D01*
X13050298Y-10761893D01*
X13078869Y-10761893D01*
X13097917Y-10771417D01*
X13107440Y-10790464D01*
X13107440Y-10895226D01*
X13202678Y-10895226D02*
X13202678Y-10761893D01*
X13202678Y-10780940D02*
X13212202Y-10771417D01*
X13231250Y-10761893D01*
X13259821Y-10761893D01*
X13278869Y-10771417D01*
X13288393Y-10790464D01*
X13288393Y-10895226D01*
X13288393Y-10790464D02*
X13297917Y-10771417D01*
X13316964Y-10761893D01*
X13345536Y-10761893D01*
X13364583Y-10771417D01*
X13374107Y-10790464D01*
X13374107Y-10895226D01*
X13764583Y-10685702D02*
X13593155Y-10942845D01*
X14021726Y-10695226D02*
X14040774Y-10695226D01*
X14059821Y-10704750D01*
X14069345Y-10714274D01*
X14078869Y-10733321D01*
X14088393Y-10771417D01*
X14088393Y-10819036D01*
X14078869Y-10857131D01*
X14069345Y-10876179D01*
X14059821Y-10885702D01*
X14040774Y-10895226D01*
X14021726Y-10895226D01*
X14002678Y-10885702D01*
X13993155Y-10876179D01*
X13983631Y-10857131D01*
X13974107Y-10819036D01*
X13974107Y-10771417D01*
X13983631Y-10733321D01*
X13993155Y-10714274D01*
X14002678Y-10704750D01*
X14021726Y-10695226D01*
X14174107Y-10876179D02*
X14183631Y-10885702D01*
X14174107Y-10895226D01*
X14164583Y-10885702D01*
X14174107Y-10876179D01*
X14174107Y-10895226D01*
X14307440Y-10695226D02*
X14326488Y-10695226D01*
X14345536Y-10704750D01*
X14355059Y-10714274D01*
X14364583Y-10733321D01*
X14374107Y-10771417D01*
X14374107Y-10819036D01*
X14364583Y-10857131D01*
X14355059Y-10876179D01*
X14345536Y-10885702D01*
X14326488Y-10895226D01*
X14307440Y-10895226D01*
X14288393Y-10885702D01*
X14278869Y-10876179D01*
X14269345Y-10857131D01*
X14259821Y-10819036D01*
X14259821Y-10771417D01*
X14269345Y-10733321D01*
X14278869Y-10714274D01*
X14288393Y-10704750D01*
X14307440Y-10695226D01*
X14440774Y-10695226D02*
X14564583Y-10695226D01*
X14497917Y-10771417D01*
X14526488Y-10771417D01*
X14545536Y-10780940D01*
X14555059Y-10790464D01*
X14564583Y-10809512D01*
X14564583Y-10857131D01*
X14555059Y-10876179D01*
X14545536Y-10885702D01*
X14526488Y-10895226D01*
X14469345Y-10895226D01*
X14450298Y-10885702D01*
X14440774Y-10876179D01*
X14659821Y-10895226D02*
X14697917Y-10895226D01*
X14716964Y-10885702D01*
X14726488Y-10876179D01*
X14745536Y-10847607D01*
X14755059Y-10809512D01*
X14755059Y-10733321D01*
X14745536Y-10714274D01*
X14736012Y-10704750D01*
X14716964Y-10695226D01*
X14678869Y-10695226D01*
X14659821Y-10704750D01*
X14650298Y-10714274D01*
X14640774Y-10733321D01*
X14640774Y-10780940D01*
X14650298Y-10799988D01*
X14659821Y-10809512D01*
X14678869Y-10819036D01*
X14716964Y-10819036D01*
X14736012Y-10809512D01*
X14745536Y-10799988D01*
X14755059Y-10780940D01*
X14926488Y-10761893D02*
X14926488Y-10895226D01*
X14878869Y-10685702D02*
X14831250Y-10828560D01*
X14955059Y-10828560D01*
X15021726Y-10695226D02*
X15021726Y-10733321D01*
X15097917Y-10695226D02*
X15097917Y-10733321D01*
X15393155Y-10971417D02*
X15383631Y-10961893D01*
X15364583Y-10933321D01*
X15355059Y-10914274D01*
X15345536Y-10885702D01*
X15336012Y-10838083D01*
X15336012Y-10799988D01*
X15345536Y-10752369D01*
X15355059Y-10723798D01*
X15364583Y-10704750D01*
X15383631Y-10676179D01*
X15393155Y-10666655D01*
X15574107Y-10895226D02*
X15459821Y-10895226D01*
X15516964Y-10895226D02*
X15516964Y-10695226D01*
X15497917Y-10723798D01*
X15478869Y-10742845D01*
X15459821Y-10752369D01*
X15688393Y-10780940D02*
X15669345Y-10771417D01*
X15659821Y-10761893D01*
X15650298Y-10742845D01*
X15650298Y-10733321D01*
X15659821Y-10714274D01*
X15669345Y-10704750D01*
X15688393Y-10695226D01*
X15726488Y-10695226D01*
X15745536Y-10704750D01*
X15755059Y-10714274D01*
X15764583Y-10733321D01*
X15764583Y-10742845D01*
X15755059Y-10761893D01*
X15745536Y-10771417D01*
X15726488Y-10780940D01*
X15688393Y-10780940D01*
X15669345Y-10790464D01*
X15659821Y-10799988D01*
X15650298Y-10819036D01*
X15650298Y-10857131D01*
X15659821Y-10876179D01*
X15669345Y-10885702D01*
X15688393Y-10895226D01*
X15726488Y-10895226D01*
X15745536Y-10885702D01*
X15755059Y-10876179D01*
X15764583Y-10857131D01*
X15764583Y-10819036D01*
X15755059Y-10799988D01*
X15745536Y-10790464D01*
X15726488Y-10780940D01*
X16002678Y-10895226D02*
X16002678Y-10695226D01*
X16088393Y-10895226D02*
X16088393Y-10790464D01*
X16078869Y-10771417D01*
X16059821Y-10761893D01*
X16031250Y-10761893D01*
X16012202Y-10771417D01*
X16002678Y-10780940D01*
X16212202Y-10895226D02*
X16193155Y-10885702D01*
X16183631Y-10876179D01*
X16174107Y-10857131D01*
X16174107Y-10799988D01*
X16183631Y-10780940D01*
X16193155Y-10771417D01*
X16212202Y-10761893D01*
X16240774Y-10761893D01*
X16259821Y-10771417D01*
X16269345Y-10780940D01*
X16278869Y-10799988D01*
X16278869Y-10857131D01*
X16269345Y-10876179D01*
X16259821Y-10885702D01*
X16240774Y-10895226D01*
X16212202Y-10895226D01*
X16393155Y-10895226D02*
X16374107Y-10885702D01*
X16364583Y-10866655D01*
X16364583Y-10695226D01*
X16545536Y-10885702D02*
X16526488Y-10895226D01*
X16488393Y-10895226D01*
X16469345Y-10885702D01*
X16459821Y-10866655D01*
X16459821Y-10790464D01*
X16469345Y-10771417D01*
X16488393Y-10761893D01*
X16526488Y-10761893D01*
X16545536Y-10771417D01*
X16555059Y-10790464D01*
X16555059Y-10809512D01*
X16459821Y-10828560D01*
X16631250Y-10885702D02*
X16650298Y-10895226D01*
X16688393Y-10895226D01*
X16707440Y-10885702D01*
X16716964Y-10866655D01*
X16716964Y-10857131D01*
X16707440Y-10838083D01*
X16688393Y-10828560D01*
X16659821Y-10828560D01*
X16640774Y-10819036D01*
X16631250Y-10799988D01*
X16631250Y-10790464D01*
X16640774Y-10771417D01*
X16659821Y-10761893D01*
X16688393Y-10761893D01*
X16707440Y-10771417D01*
X16783631Y-10971417D02*
X16793155Y-10961893D01*
X16812202Y-10933321D01*
X16821726Y-10914274D01*
X16831250Y-10885702D01*
X16840774Y-10838083D01*
X16840774Y-10799988D01*
X16831250Y-10752369D01*
X16821726Y-10723798D01*
X16812202Y-10704750D01*
X16793155Y-10676179D01*
X16783631Y-10666655D01*
M02*
