%TF.GenerationSoftware,KiCad,Pcbnew,6.0.10+dfsg-1~bpo11+1*%
%TF.ProjectId,project,70726f6a-6563-4742-9e6b-696361645f70,rev?*%
%TF.SameCoordinates,Original*%
%TF.FileFunction,Drillmap*%
%TF.FilePolarity,Positive*%
%FSLAX45Y45*%
G04 Gerber Fmt 4.5, Leading zero omitted, Abs format (unit mm)*
%MOMM*%
%LPD*%
G01*
G04 APERTURE LIST*
%ADD10C,0.100000*%
%ADD11C,0.200000*%
%ADD12C,0.065000*%
%ADD13C,0.115200*%
%ADD14C,0.180000*%
G04 APERTURE END LIST*
D10*
X12026250Y-7603750D02*
X12026250Y-7503750D01*
X18426250Y-7603750D02*
X18426250Y-9003750D01*
X18426250Y-9003750D02*
X13026250Y-9003750D01*
X13026250Y-7503750D02*
X13026250Y-7603750D01*
X13026250Y-7603750D02*
X18426250Y-7603750D01*
X12026250Y-7503750D02*
X13026250Y-7503750D01*
X11826250Y-9003750D02*
X12026250Y-9003750D01*
X12026250Y-7603750D02*
X11826250Y-7603750D01*
X12026250Y-9103750D02*
X13026250Y-9103750D01*
X11826250Y-9003750D02*
X11826250Y-7603750D01*
X13026250Y-9103750D02*
X13026250Y-9003750D01*
X12026250Y-9003750D02*
X12026250Y-9103750D01*
D11*
D12*
X12381250Y-8132250D02*
X12446250Y-8197250D01*
X12446250Y-8132250D02*
X12381250Y-8197250D01*
X12381250Y-8710250D02*
X12446250Y-8775250D01*
X12446250Y-8710250D02*
X12381250Y-8775250D01*
D13*
X12083850Y-7803750D02*
G75*
G03*
X12083850Y-7803750I-57600J0D01*
G01*
D14*
X13026250Y-7693750D02*
X13026250Y-7873750D01*
X12936250Y-7783750D02*
X13116250Y-7783750D01*
X13026250Y-8733750D02*
X13026250Y-8913750D01*
X12936250Y-8823750D02*
X13116250Y-8823750D01*
D11*
X12078869Y-9419226D02*
X12078869Y-9219226D01*
X12126488Y-9219226D01*
X12155059Y-9228750D01*
X12174107Y-9247798D01*
X12183631Y-9266845D01*
X12193155Y-9304940D01*
X12193155Y-9333512D01*
X12183631Y-9371607D01*
X12174107Y-9390655D01*
X12155059Y-9409702D01*
X12126488Y-9419226D01*
X12078869Y-9419226D01*
X12278869Y-9419226D02*
X12278869Y-9285893D01*
X12278869Y-9323988D02*
X12288393Y-9304940D01*
X12297917Y-9295417D01*
X12316964Y-9285893D01*
X12336012Y-9285893D01*
X12402678Y-9419226D02*
X12402678Y-9285893D01*
X12402678Y-9219226D02*
X12393155Y-9228750D01*
X12402678Y-9238274D01*
X12412202Y-9228750D01*
X12402678Y-9219226D01*
X12402678Y-9238274D01*
X12526488Y-9419226D02*
X12507440Y-9409702D01*
X12497917Y-9390655D01*
X12497917Y-9219226D01*
X12631250Y-9419226D02*
X12612202Y-9409702D01*
X12602678Y-9390655D01*
X12602678Y-9219226D01*
X12859821Y-9419226D02*
X12859821Y-9219226D01*
X12926488Y-9362083D01*
X12993155Y-9219226D01*
X12993155Y-9419226D01*
X13174107Y-9419226D02*
X13174107Y-9314464D01*
X13164583Y-9295417D01*
X13145536Y-9285893D01*
X13107440Y-9285893D01*
X13088393Y-9295417D01*
X13174107Y-9409702D02*
X13155059Y-9419226D01*
X13107440Y-9419226D01*
X13088393Y-9409702D01*
X13078869Y-9390655D01*
X13078869Y-9371607D01*
X13088393Y-9352560D01*
X13107440Y-9343036D01*
X13155059Y-9343036D01*
X13174107Y-9333512D01*
X13269345Y-9285893D02*
X13269345Y-9485893D01*
X13269345Y-9295417D02*
X13288393Y-9285893D01*
X13326488Y-9285893D01*
X13345536Y-9295417D01*
X13355059Y-9304940D01*
X13364583Y-9323988D01*
X13364583Y-9381131D01*
X13355059Y-9400179D01*
X13345536Y-9409702D01*
X13326488Y-9419226D01*
X13288393Y-9419226D01*
X13269345Y-9409702D01*
X13450298Y-9400179D02*
X13459821Y-9409702D01*
X13450298Y-9419226D01*
X13440774Y-9409702D01*
X13450298Y-9400179D01*
X13450298Y-9419226D01*
X13450298Y-9295417D02*
X13459821Y-9304940D01*
X13450298Y-9314464D01*
X13440774Y-9304940D01*
X13450298Y-9295417D01*
X13450298Y-9314464D01*
D12*
X11756250Y-9716250D02*
X11821250Y-9781250D01*
X11821250Y-9716250D02*
X11756250Y-9781250D01*
D11*
X12116964Y-9639226D02*
X12136012Y-9639226D01*
X12155059Y-9648750D01*
X12164583Y-9658274D01*
X12174107Y-9677321D01*
X12183631Y-9715417D01*
X12183631Y-9763036D01*
X12174107Y-9801131D01*
X12164583Y-9820179D01*
X12155059Y-9829702D01*
X12136012Y-9839226D01*
X12116964Y-9839226D01*
X12097917Y-9829702D01*
X12088393Y-9820179D01*
X12078869Y-9801131D01*
X12069345Y-9763036D01*
X12069345Y-9715417D01*
X12078869Y-9677321D01*
X12088393Y-9658274D01*
X12097917Y-9648750D01*
X12116964Y-9639226D01*
X12269345Y-9820179D02*
X12278869Y-9829702D01*
X12269345Y-9839226D01*
X12259821Y-9829702D01*
X12269345Y-9820179D01*
X12269345Y-9839226D01*
X12450298Y-9639226D02*
X12412202Y-9639226D01*
X12393155Y-9648750D01*
X12383631Y-9658274D01*
X12364583Y-9686845D01*
X12355059Y-9724940D01*
X12355059Y-9801131D01*
X12364583Y-9820179D01*
X12374107Y-9829702D01*
X12393155Y-9839226D01*
X12431250Y-9839226D01*
X12450298Y-9829702D01*
X12459821Y-9820179D01*
X12469345Y-9801131D01*
X12469345Y-9753512D01*
X12459821Y-9734464D01*
X12450298Y-9724940D01*
X12431250Y-9715417D01*
X12393155Y-9715417D01*
X12374107Y-9724940D01*
X12364583Y-9734464D01*
X12355059Y-9753512D01*
X12650298Y-9639226D02*
X12555059Y-9639226D01*
X12545536Y-9734464D01*
X12555059Y-9724940D01*
X12574107Y-9715417D01*
X12621726Y-9715417D01*
X12640774Y-9724940D01*
X12650298Y-9734464D01*
X12659821Y-9753512D01*
X12659821Y-9801131D01*
X12650298Y-9820179D01*
X12640774Y-9829702D01*
X12621726Y-9839226D01*
X12574107Y-9839226D01*
X12555059Y-9829702D01*
X12545536Y-9820179D01*
X12783631Y-9639226D02*
X12802678Y-9639226D01*
X12821726Y-9648750D01*
X12831250Y-9658274D01*
X12840774Y-9677321D01*
X12850298Y-9715417D01*
X12850298Y-9763036D01*
X12840774Y-9801131D01*
X12831250Y-9820179D01*
X12821726Y-9829702D01*
X12802678Y-9839226D01*
X12783631Y-9839226D01*
X12764583Y-9829702D01*
X12755059Y-9820179D01*
X12745536Y-9801131D01*
X12736012Y-9763036D01*
X12736012Y-9715417D01*
X12745536Y-9677321D01*
X12755059Y-9658274D01*
X12764583Y-9648750D01*
X12783631Y-9639226D01*
X12936012Y-9839226D02*
X12936012Y-9705893D01*
X12936012Y-9724940D02*
X12945536Y-9715417D01*
X12964583Y-9705893D01*
X12993155Y-9705893D01*
X13012202Y-9715417D01*
X13021726Y-9734464D01*
X13021726Y-9839226D01*
X13021726Y-9734464D02*
X13031250Y-9715417D01*
X13050298Y-9705893D01*
X13078869Y-9705893D01*
X13097917Y-9715417D01*
X13107440Y-9734464D01*
X13107440Y-9839226D01*
X13202678Y-9839226D02*
X13202678Y-9705893D01*
X13202678Y-9724940D02*
X13212202Y-9715417D01*
X13231250Y-9705893D01*
X13259821Y-9705893D01*
X13278869Y-9715417D01*
X13288393Y-9734464D01*
X13288393Y-9839226D01*
X13288393Y-9734464D02*
X13297917Y-9715417D01*
X13316964Y-9705893D01*
X13345536Y-9705893D01*
X13364583Y-9715417D01*
X13374107Y-9734464D01*
X13374107Y-9839226D01*
X13764583Y-9629702D02*
X13593155Y-9886845D01*
X14021726Y-9639226D02*
X14040774Y-9639226D01*
X14059821Y-9648750D01*
X14069345Y-9658274D01*
X14078869Y-9677321D01*
X14088393Y-9715417D01*
X14088393Y-9763036D01*
X14078869Y-9801131D01*
X14069345Y-9820179D01*
X14059821Y-9829702D01*
X14040774Y-9839226D01*
X14021726Y-9839226D01*
X14002678Y-9829702D01*
X13993155Y-9820179D01*
X13983631Y-9801131D01*
X13974107Y-9763036D01*
X13974107Y-9715417D01*
X13983631Y-9677321D01*
X13993155Y-9658274D01*
X14002678Y-9648750D01*
X14021726Y-9639226D01*
X14174107Y-9820179D02*
X14183631Y-9829702D01*
X14174107Y-9839226D01*
X14164583Y-9829702D01*
X14174107Y-9820179D01*
X14174107Y-9839226D01*
X14307440Y-9639226D02*
X14326488Y-9639226D01*
X14345536Y-9648750D01*
X14355059Y-9658274D01*
X14364583Y-9677321D01*
X14374107Y-9715417D01*
X14374107Y-9763036D01*
X14364583Y-9801131D01*
X14355059Y-9820179D01*
X14345536Y-9829702D01*
X14326488Y-9839226D01*
X14307440Y-9839226D01*
X14288393Y-9829702D01*
X14278869Y-9820179D01*
X14269345Y-9801131D01*
X14259821Y-9763036D01*
X14259821Y-9715417D01*
X14269345Y-9677321D01*
X14278869Y-9658274D01*
X14288393Y-9648750D01*
X14307440Y-9639226D01*
X14450298Y-9658274D02*
X14459821Y-9648750D01*
X14478869Y-9639226D01*
X14526488Y-9639226D01*
X14545536Y-9648750D01*
X14555059Y-9658274D01*
X14564583Y-9677321D01*
X14564583Y-9696369D01*
X14555059Y-9724940D01*
X14440774Y-9839226D01*
X14564583Y-9839226D01*
X14745536Y-9639226D02*
X14650298Y-9639226D01*
X14640774Y-9734464D01*
X14650298Y-9724940D01*
X14669345Y-9715417D01*
X14716964Y-9715417D01*
X14736012Y-9724940D01*
X14745536Y-9734464D01*
X14755059Y-9753512D01*
X14755059Y-9801131D01*
X14745536Y-9820179D01*
X14736012Y-9829702D01*
X14716964Y-9839226D01*
X14669345Y-9839226D01*
X14650298Y-9829702D01*
X14640774Y-9820179D01*
X14926488Y-9639226D02*
X14888393Y-9639226D01*
X14869345Y-9648750D01*
X14859821Y-9658274D01*
X14840774Y-9686845D01*
X14831250Y-9724940D01*
X14831250Y-9801131D01*
X14840774Y-9820179D01*
X14850298Y-9829702D01*
X14869345Y-9839226D01*
X14907440Y-9839226D01*
X14926488Y-9829702D01*
X14936012Y-9820179D01*
X14945536Y-9801131D01*
X14945536Y-9753512D01*
X14936012Y-9734464D01*
X14926488Y-9724940D01*
X14907440Y-9715417D01*
X14869345Y-9715417D01*
X14850298Y-9724940D01*
X14840774Y-9734464D01*
X14831250Y-9753512D01*
X15021726Y-9639226D02*
X15021726Y-9677321D01*
X15097917Y-9639226D02*
X15097917Y-9677321D01*
X15393155Y-9915417D02*
X15383631Y-9905893D01*
X15364583Y-9877321D01*
X15355059Y-9858274D01*
X15345536Y-9829702D01*
X15336012Y-9782083D01*
X15336012Y-9743988D01*
X15345536Y-9696369D01*
X15355059Y-9667798D01*
X15364583Y-9648750D01*
X15383631Y-9620179D01*
X15393155Y-9610655D01*
X15459821Y-9658274D02*
X15469345Y-9648750D01*
X15488393Y-9639226D01*
X15536012Y-9639226D01*
X15555059Y-9648750D01*
X15564583Y-9658274D01*
X15574107Y-9677321D01*
X15574107Y-9696369D01*
X15564583Y-9724940D01*
X15450298Y-9839226D01*
X15574107Y-9839226D01*
X15812202Y-9839226D02*
X15812202Y-9639226D01*
X15897917Y-9839226D02*
X15897917Y-9734464D01*
X15888393Y-9715417D01*
X15869345Y-9705893D01*
X15840774Y-9705893D01*
X15821726Y-9715417D01*
X15812202Y-9724940D01*
X16021726Y-9839226D02*
X16002678Y-9829702D01*
X15993155Y-9820179D01*
X15983631Y-9801131D01*
X15983631Y-9743988D01*
X15993155Y-9724940D01*
X16002678Y-9715417D01*
X16021726Y-9705893D01*
X16050298Y-9705893D01*
X16069345Y-9715417D01*
X16078869Y-9724940D01*
X16088393Y-9743988D01*
X16088393Y-9801131D01*
X16078869Y-9820179D01*
X16069345Y-9829702D01*
X16050298Y-9839226D01*
X16021726Y-9839226D01*
X16202678Y-9839226D02*
X16183631Y-9829702D01*
X16174107Y-9810655D01*
X16174107Y-9639226D01*
X16355059Y-9829702D02*
X16336012Y-9839226D01*
X16297917Y-9839226D01*
X16278869Y-9829702D01*
X16269345Y-9810655D01*
X16269345Y-9734464D01*
X16278869Y-9715417D01*
X16297917Y-9705893D01*
X16336012Y-9705893D01*
X16355059Y-9715417D01*
X16364583Y-9734464D01*
X16364583Y-9753512D01*
X16269345Y-9772560D01*
X16440774Y-9829702D02*
X16459821Y-9839226D01*
X16497917Y-9839226D01*
X16516964Y-9829702D01*
X16526488Y-9810655D01*
X16526488Y-9801131D01*
X16516964Y-9782083D01*
X16497917Y-9772560D01*
X16469345Y-9772560D01*
X16450298Y-9763036D01*
X16440774Y-9743988D01*
X16440774Y-9734464D01*
X16450298Y-9715417D01*
X16469345Y-9705893D01*
X16497917Y-9705893D01*
X16516964Y-9715417D01*
X16593155Y-9915417D02*
X16602678Y-9905893D01*
X16621726Y-9877321D01*
X16631250Y-9858274D01*
X16640774Y-9829702D01*
X16650298Y-9782083D01*
X16650298Y-9743988D01*
X16640774Y-9696369D01*
X16631250Y-9667798D01*
X16621726Y-9648750D01*
X16602678Y-9620179D01*
X16593155Y-9610655D01*
X16955060Y-9915417D02*
X16945536Y-9905893D01*
X16926488Y-9877321D01*
X16916964Y-9858274D01*
X16907440Y-9829702D01*
X16897917Y-9782083D01*
X16897917Y-9743988D01*
X16907440Y-9696369D01*
X16916964Y-9667798D01*
X16926488Y-9648750D01*
X16945536Y-9620179D01*
X16955060Y-9610655D01*
X17031250Y-9705893D02*
X17031250Y-9839226D01*
X17031250Y-9724940D02*
X17040774Y-9715417D01*
X17059821Y-9705893D01*
X17088393Y-9705893D01*
X17107440Y-9715417D01*
X17116964Y-9734464D01*
X17116964Y-9839226D01*
X17240774Y-9839226D02*
X17221726Y-9829702D01*
X17212202Y-9820179D01*
X17202679Y-9801131D01*
X17202679Y-9743988D01*
X17212202Y-9724940D01*
X17221726Y-9715417D01*
X17240774Y-9705893D01*
X17269345Y-9705893D01*
X17288393Y-9715417D01*
X17297917Y-9724940D01*
X17307440Y-9743988D01*
X17307440Y-9801131D01*
X17297917Y-9820179D01*
X17288393Y-9829702D01*
X17269345Y-9839226D01*
X17240774Y-9839226D01*
X17364583Y-9705893D02*
X17440774Y-9705893D01*
X17393155Y-9639226D02*
X17393155Y-9810655D01*
X17402679Y-9829702D01*
X17421726Y-9839226D01*
X17440774Y-9839226D01*
X17659821Y-9705893D02*
X17659821Y-9905893D01*
X17659821Y-9715417D02*
X17678869Y-9705893D01*
X17716964Y-9705893D01*
X17736012Y-9715417D01*
X17745536Y-9724940D01*
X17755060Y-9743988D01*
X17755060Y-9801131D01*
X17745536Y-9820179D01*
X17736012Y-9829702D01*
X17716964Y-9839226D01*
X17678869Y-9839226D01*
X17659821Y-9829702D01*
X17869345Y-9839226D02*
X17850298Y-9829702D01*
X17840774Y-9810655D01*
X17840774Y-9639226D01*
X18031250Y-9839226D02*
X18031250Y-9734464D01*
X18021726Y-9715417D01*
X18002679Y-9705893D01*
X17964583Y-9705893D01*
X17945536Y-9715417D01*
X18031250Y-9829702D02*
X18012202Y-9839226D01*
X17964583Y-9839226D01*
X17945536Y-9829702D01*
X17936012Y-9810655D01*
X17936012Y-9791607D01*
X17945536Y-9772560D01*
X17964583Y-9763036D01*
X18012202Y-9763036D01*
X18031250Y-9753512D01*
X18097917Y-9705893D02*
X18174107Y-9705893D01*
X18126488Y-9639226D02*
X18126488Y-9810655D01*
X18136012Y-9829702D01*
X18155060Y-9839226D01*
X18174107Y-9839226D01*
X18316964Y-9829702D02*
X18297917Y-9839226D01*
X18259821Y-9839226D01*
X18240774Y-9829702D01*
X18231250Y-9810655D01*
X18231250Y-9734464D01*
X18240774Y-9715417D01*
X18259821Y-9705893D01*
X18297917Y-9705893D01*
X18316964Y-9715417D01*
X18326488Y-9734464D01*
X18326488Y-9753512D01*
X18231250Y-9772560D01*
X18497917Y-9839226D02*
X18497917Y-9639226D01*
X18497917Y-9829702D02*
X18478869Y-9839226D01*
X18440774Y-9839226D01*
X18421726Y-9829702D01*
X18412202Y-9820179D01*
X18402679Y-9801131D01*
X18402679Y-9743988D01*
X18412202Y-9724940D01*
X18421726Y-9715417D01*
X18440774Y-9705893D01*
X18478869Y-9705893D01*
X18497917Y-9715417D01*
X18574107Y-9915417D02*
X18583631Y-9905893D01*
X18602679Y-9877321D01*
X18612202Y-9858274D01*
X18621726Y-9829702D01*
X18631250Y-9782083D01*
X18631250Y-9743988D01*
X18621726Y-9696369D01*
X18612202Y-9667798D01*
X18602679Y-9648750D01*
X18583631Y-9620179D01*
X18574107Y-9610655D01*
D13*
X11821250Y-10012750D02*
G75*
G03*
X11821250Y-10012750I-57600J0D01*
G01*
D11*
X12183631Y-10103226D02*
X12069345Y-10103226D01*
X12126488Y-10103226D02*
X12126488Y-9903226D01*
X12107440Y-9931798D01*
X12088393Y-9950845D01*
X12069345Y-9960369D01*
X12269345Y-10084179D02*
X12278869Y-10093702D01*
X12269345Y-10103226D01*
X12259821Y-10093702D01*
X12269345Y-10084179D01*
X12269345Y-10103226D01*
X12469345Y-10103226D02*
X12355059Y-10103226D01*
X12412202Y-10103226D02*
X12412202Y-9903226D01*
X12393155Y-9931798D01*
X12374107Y-9950845D01*
X12355059Y-9960369D01*
X12650298Y-9903226D02*
X12555059Y-9903226D01*
X12545536Y-9998464D01*
X12555059Y-9988940D01*
X12574107Y-9979417D01*
X12621726Y-9979417D01*
X12640774Y-9988940D01*
X12650298Y-9998464D01*
X12659821Y-10017512D01*
X12659821Y-10065131D01*
X12650298Y-10084179D01*
X12640774Y-10093702D01*
X12621726Y-10103226D01*
X12574107Y-10103226D01*
X12555059Y-10093702D01*
X12545536Y-10084179D01*
X12736012Y-9922274D02*
X12745536Y-9912750D01*
X12764583Y-9903226D01*
X12812202Y-9903226D01*
X12831250Y-9912750D01*
X12840774Y-9922274D01*
X12850298Y-9941321D01*
X12850298Y-9960369D01*
X12840774Y-9988940D01*
X12726488Y-10103226D01*
X12850298Y-10103226D01*
X12936012Y-10103226D02*
X12936012Y-9969893D01*
X12936012Y-9988940D02*
X12945536Y-9979417D01*
X12964583Y-9969893D01*
X12993155Y-9969893D01*
X13012202Y-9979417D01*
X13021726Y-9998464D01*
X13021726Y-10103226D01*
X13021726Y-9998464D02*
X13031250Y-9979417D01*
X13050298Y-9969893D01*
X13078869Y-9969893D01*
X13097917Y-9979417D01*
X13107440Y-9998464D01*
X13107440Y-10103226D01*
X13202678Y-10103226D02*
X13202678Y-9969893D01*
X13202678Y-9988940D02*
X13212202Y-9979417D01*
X13231250Y-9969893D01*
X13259821Y-9969893D01*
X13278869Y-9979417D01*
X13288393Y-9998464D01*
X13288393Y-10103226D01*
X13288393Y-9998464D02*
X13297917Y-9979417D01*
X13316964Y-9969893D01*
X13345536Y-9969893D01*
X13364583Y-9979417D01*
X13374107Y-9998464D01*
X13374107Y-10103226D01*
X13764583Y-9893702D02*
X13593155Y-10150845D01*
X14021726Y-9903226D02*
X14040774Y-9903226D01*
X14059821Y-9912750D01*
X14069345Y-9922274D01*
X14078869Y-9941321D01*
X14088393Y-9979417D01*
X14088393Y-10027036D01*
X14078869Y-10065131D01*
X14069345Y-10084179D01*
X14059821Y-10093702D01*
X14040774Y-10103226D01*
X14021726Y-10103226D01*
X14002678Y-10093702D01*
X13993155Y-10084179D01*
X13983631Y-10065131D01*
X13974107Y-10027036D01*
X13974107Y-9979417D01*
X13983631Y-9941321D01*
X13993155Y-9922274D01*
X14002678Y-9912750D01*
X14021726Y-9903226D01*
X14174107Y-10084179D02*
X14183631Y-10093702D01*
X14174107Y-10103226D01*
X14164583Y-10093702D01*
X14174107Y-10084179D01*
X14174107Y-10103226D01*
X14307440Y-9903226D02*
X14326488Y-9903226D01*
X14345536Y-9912750D01*
X14355059Y-9922274D01*
X14364583Y-9941321D01*
X14374107Y-9979417D01*
X14374107Y-10027036D01*
X14364583Y-10065131D01*
X14355059Y-10084179D01*
X14345536Y-10093702D01*
X14326488Y-10103226D01*
X14307440Y-10103226D01*
X14288393Y-10093702D01*
X14278869Y-10084179D01*
X14269345Y-10065131D01*
X14259821Y-10027036D01*
X14259821Y-9979417D01*
X14269345Y-9941321D01*
X14278869Y-9922274D01*
X14288393Y-9912750D01*
X14307440Y-9903226D01*
X14545536Y-9969893D02*
X14545536Y-10103226D01*
X14497917Y-9893702D02*
X14450298Y-10036560D01*
X14574107Y-10036560D01*
X14745536Y-9903226D02*
X14650298Y-9903226D01*
X14640774Y-9998464D01*
X14650298Y-9988940D01*
X14669345Y-9979417D01*
X14716964Y-9979417D01*
X14736012Y-9988940D01*
X14745536Y-9998464D01*
X14755059Y-10017512D01*
X14755059Y-10065131D01*
X14745536Y-10084179D01*
X14736012Y-10093702D01*
X14716964Y-10103226D01*
X14669345Y-10103226D01*
X14650298Y-10093702D01*
X14640774Y-10084179D01*
X14926488Y-9969893D02*
X14926488Y-10103226D01*
X14878869Y-9893702D02*
X14831250Y-10036560D01*
X14955059Y-10036560D01*
X15021726Y-9903226D02*
X15021726Y-9941321D01*
X15097917Y-9903226D02*
X15097917Y-9941321D01*
X15393155Y-10179417D02*
X15383631Y-10169893D01*
X15364583Y-10141321D01*
X15355059Y-10122274D01*
X15345536Y-10093702D01*
X15336012Y-10046083D01*
X15336012Y-10007988D01*
X15345536Y-9960369D01*
X15355059Y-9931798D01*
X15364583Y-9912750D01*
X15383631Y-9884179D01*
X15393155Y-9874655D01*
X15574107Y-10103226D02*
X15459821Y-10103226D01*
X15516964Y-10103226D02*
X15516964Y-9903226D01*
X15497917Y-9931798D01*
X15478869Y-9950845D01*
X15459821Y-9960369D01*
X15812202Y-10103226D02*
X15812202Y-9903226D01*
X15897917Y-10103226D02*
X15897917Y-9998464D01*
X15888393Y-9979417D01*
X15869345Y-9969893D01*
X15840774Y-9969893D01*
X15821726Y-9979417D01*
X15812202Y-9988940D01*
X16021726Y-10103226D02*
X16002678Y-10093702D01*
X15993155Y-10084179D01*
X15983631Y-10065131D01*
X15983631Y-10007988D01*
X15993155Y-9988940D01*
X16002678Y-9979417D01*
X16021726Y-9969893D01*
X16050298Y-9969893D01*
X16069345Y-9979417D01*
X16078869Y-9988940D01*
X16088393Y-10007988D01*
X16088393Y-10065131D01*
X16078869Y-10084179D01*
X16069345Y-10093702D01*
X16050298Y-10103226D01*
X16021726Y-10103226D01*
X16202678Y-10103226D02*
X16183631Y-10093702D01*
X16174107Y-10074655D01*
X16174107Y-9903226D01*
X16355059Y-10093702D02*
X16336012Y-10103226D01*
X16297917Y-10103226D01*
X16278869Y-10093702D01*
X16269345Y-10074655D01*
X16269345Y-9998464D01*
X16278869Y-9979417D01*
X16297917Y-9969893D01*
X16336012Y-9969893D01*
X16355059Y-9979417D01*
X16364583Y-9998464D01*
X16364583Y-10017512D01*
X16269345Y-10036560D01*
X16431250Y-10179417D02*
X16440774Y-10169893D01*
X16459821Y-10141321D01*
X16469345Y-10122274D01*
X16478869Y-10093702D01*
X16488393Y-10046083D01*
X16488393Y-10007988D01*
X16478869Y-9960369D01*
X16469345Y-9931798D01*
X16459821Y-9912750D01*
X16440774Y-9884179D01*
X16431250Y-9874655D01*
X16793155Y-10179417D02*
X16783631Y-10169893D01*
X16764583Y-10141321D01*
X16755059Y-10122274D01*
X16745536Y-10093702D01*
X16736012Y-10046083D01*
X16736012Y-10007988D01*
X16745536Y-9960369D01*
X16755059Y-9931798D01*
X16764583Y-9912750D01*
X16783631Y-9884179D01*
X16793155Y-9874655D01*
X16869345Y-9969893D02*
X16869345Y-10103226D01*
X16869345Y-9988940D02*
X16878869Y-9979417D01*
X16897917Y-9969893D01*
X16926488Y-9969893D01*
X16945536Y-9979417D01*
X16955060Y-9998464D01*
X16955060Y-10103226D01*
X17078869Y-10103226D02*
X17059821Y-10093702D01*
X17050298Y-10084179D01*
X17040774Y-10065131D01*
X17040774Y-10007988D01*
X17050298Y-9988940D01*
X17059821Y-9979417D01*
X17078869Y-9969893D01*
X17107440Y-9969893D01*
X17126488Y-9979417D01*
X17136012Y-9988940D01*
X17145536Y-10007988D01*
X17145536Y-10065131D01*
X17136012Y-10084179D01*
X17126488Y-10093702D01*
X17107440Y-10103226D01*
X17078869Y-10103226D01*
X17202679Y-9969893D02*
X17278869Y-9969893D01*
X17231250Y-9903226D02*
X17231250Y-10074655D01*
X17240774Y-10093702D01*
X17259821Y-10103226D01*
X17278869Y-10103226D01*
X17497917Y-9969893D02*
X17497917Y-10169893D01*
X17497917Y-9979417D02*
X17516964Y-9969893D01*
X17555060Y-9969893D01*
X17574107Y-9979417D01*
X17583631Y-9988940D01*
X17593155Y-10007988D01*
X17593155Y-10065131D01*
X17583631Y-10084179D01*
X17574107Y-10093702D01*
X17555060Y-10103226D01*
X17516964Y-10103226D01*
X17497917Y-10093702D01*
X17707440Y-10103226D02*
X17688393Y-10093702D01*
X17678869Y-10074655D01*
X17678869Y-9903226D01*
X17869345Y-10103226D02*
X17869345Y-9998464D01*
X17859821Y-9979417D01*
X17840774Y-9969893D01*
X17802679Y-9969893D01*
X17783631Y-9979417D01*
X17869345Y-10093702D02*
X17850298Y-10103226D01*
X17802679Y-10103226D01*
X17783631Y-10093702D01*
X17774107Y-10074655D01*
X17774107Y-10055607D01*
X17783631Y-10036560D01*
X17802679Y-10027036D01*
X17850298Y-10027036D01*
X17869345Y-10017512D01*
X17936012Y-9969893D02*
X18012202Y-9969893D01*
X17964583Y-9903226D02*
X17964583Y-10074655D01*
X17974107Y-10093702D01*
X17993155Y-10103226D01*
X18012202Y-10103226D01*
X18155060Y-10093702D02*
X18136012Y-10103226D01*
X18097917Y-10103226D01*
X18078869Y-10093702D01*
X18069345Y-10074655D01*
X18069345Y-9998464D01*
X18078869Y-9979417D01*
X18097917Y-9969893D01*
X18136012Y-9969893D01*
X18155060Y-9979417D01*
X18164583Y-9998464D01*
X18164583Y-10017512D01*
X18069345Y-10036560D01*
X18336012Y-10103226D02*
X18336012Y-9903226D01*
X18336012Y-10093702D02*
X18316964Y-10103226D01*
X18278869Y-10103226D01*
X18259821Y-10093702D01*
X18250298Y-10084179D01*
X18240774Y-10065131D01*
X18240774Y-10007988D01*
X18250298Y-9988940D01*
X18259821Y-9979417D01*
X18278869Y-9969893D01*
X18316964Y-9969893D01*
X18336012Y-9979417D01*
X18412202Y-10179417D02*
X18421726Y-10169893D01*
X18440774Y-10141321D01*
X18450298Y-10122274D01*
X18459821Y-10093702D01*
X18469345Y-10046083D01*
X18469345Y-10007988D01*
X18459821Y-9960369D01*
X18450298Y-9931798D01*
X18440774Y-9912750D01*
X18421726Y-9884179D01*
X18412202Y-9874655D01*
D14*
X11731250Y-10186750D02*
X11731250Y-10366750D01*
X11641250Y-10276750D02*
X11821250Y-10276750D01*
D11*
X12183631Y-10367226D02*
X12069345Y-10367226D01*
X12126488Y-10367226D02*
X12126488Y-10167226D01*
X12107440Y-10195798D01*
X12088393Y-10214845D01*
X12069345Y-10224369D01*
X12269345Y-10348179D02*
X12278869Y-10357702D01*
X12269345Y-10367226D01*
X12259821Y-10357702D01*
X12269345Y-10348179D01*
X12269345Y-10367226D01*
X12393155Y-10252940D02*
X12374107Y-10243417D01*
X12364583Y-10233893D01*
X12355059Y-10214845D01*
X12355059Y-10205321D01*
X12364583Y-10186274D01*
X12374107Y-10176750D01*
X12393155Y-10167226D01*
X12431250Y-10167226D01*
X12450298Y-10176750D01*
X12459821Y-10186274D01*
X12469345Y-10205321D01*
X12469345Y-10214845D01*
X12459821Y-10233893D01*
X12450298Y-10243417D01*
X12431250Y-10252940D01*
X12393155Y-10252940D01*
X12374107Y-10262464D01*
X12364583Y-10271988D01*
X12355059Y-10291036D01*
X12355059Y-10329131D01*
X12364583Y-10348179D01*
X12374107Y-10357702D01*
X12393155Y-10367226D01*
X12431250Y-10367226D01*
X12450298Y-10357702D01*
X12459821Y-10348179D01*
X12469345Y-10329131D01*
X12469345Y-10291036D01*
X12459821Y-10271988D01*
X12450298Y-10262464D01*
X12431250Y-10252940D01*
X12593155Y-10167226D02*
X12612202Y-10167226D01*
X12631250Y-10176750D01*
X12640774Y-10186274D01*
X12650298Y-10205321D01*
X12659821Y-10243417D01*
X12659821Y-10291036D01*
X12650298Y-10329131D01*
X12640774Y-10348179D01*
X12631250Y-10357702D01*
X12612202Y-10367226D01*
X12593155Y-10367226D01*
X12574107Y-10357702D01*
X12564583Y-10348179D01*
X12555059Y-10329131D01*
X12545536Y-10291036D01*
X12545536Y-10243417D01*
X12555059Y-10205321D01*
X12564583Y-10186274D01*
X12574107Y-10176750D01*
X12593155Y-10167226D01*
X12783631Y-10167226D02*
X12802678Y-10167226D01*
X12821726Y-10176750D01*
X12831250Y-10186274D01*
X12840774Y-10205321D01*
X12850298Y-10243417D01*
X12850298Y-10291036D01*
X12840774Y-10329131D01*
X12831250Y-10348179D01*
X12821726Y-10357702D01*
X12802678Y-10367226D01*
X12783631Y-10367226D01*
X12764583Y-10357702D01*
X12755059Y-10348179D01*
X12745536Y-10329131D01*
X12736012Y-10291036D01*
X12736012Y-10243417D01*
X12745536Y-10205321D01*
X12755059Y-10186274D01*
X12764583Y-10176750D01*
X12783631Y-10167226D01*
X12936012Y-10367226D02*
X12936012Y-10233893D01*
X12936012Y-10252940D02*
X12945536Y-10243417D01*
X12964583Y-10233893D01*
X12993155Y-10233893D01*
X13012202Y-10243417D01*
X13021726Y-10262464D01*
X13021726Y-10367226D01*
X13021726Y-10262464D02*
X13031250Y-10243417D01*
X13050298Y-10233893D01*
X13078869Y-10233893D01*
X13097917Y-10243417D01*
X13107440Y-10262464D01*
X13107440Y-10367226D01*
X13202678Y-10367226D02*
X13202678Y-10233893D01*
X13202678Y-10252940D02*
X13212202Y-10243417D01*
X13231250Y-10233893D01*
X13259821Y-10233893D01*
X13278869Y-10243417D01*
X13288393Y-10262464D01*
X13288393Y-10367226D01*
X13288393Y-10262464D02*
X13297917Y-10243417D01*
X13316964Y-10233893D01*
X13345536Y-10233893D01*
X13364583Y-10243417D01*
X13374107Y-10262464D01*
X13374107Y-10367226D01*
X13764583Y-10157702D02*
X13593155Y-10414845D01*
X14021726Y-10167226D02*
X14040774Y-10167226D01*
X14059821Y-10176750D01*
X14069345Y-10186274D01*
X14078869Y-10205321D01*
X14088393Y-10243417D01*
X14088393Y-10291036D01*
X14078869Y-10329131D01*
X14069345Y-10348179D01*
X14059821Y-10357702D01*
X14040774Y-10367226D01*
X14021726Y-10367226D01*
X14002678Y-10357702D01*
X13993155Y-10348179D01*
X13983631Y-10329131D01*
X13974107Y-10291036D01*
X13974107Y-10243417D01*
X13983631Y-10205321D01*
X13993155Y-10186274D01*
X14002678Y-10176750D01*
X14021726Y-10167226D01*
X14174107Y-10348179D02*
X14183631Y-10357702D01*
X14174107Y-10367226D01*
X14164583Y-10357702D01*
X14174107Y-10348179D01*
X14174107Y-10367226D01*
X14307440Y-10167226D02*
X14326488Y-10167226D01*
X14345536Y-10176750D01*
X14355059Y-10186274D01*
X14364583Y-10205321D01*
X14374107Y-10243417D01*
X14374107Y-10291036D01*
X14364583Y-10329131D01*
X14355059Y-10348179D01*
X14345536Y-10357702D01*
X14326488Y-10367226D01*
X14307440Y-10367226D01*
X14288393Y-10357702D01*
X14278869Y-10348179D01*
X14269345Y-10329131D01*
X14259821Y-10291036D01*
X14259821Y-10243417D01*
X14269345Y-10205321D01*
X14278869Y-10186274D01*
X14288393Y-10176750D01*
X14307440Y-10167226D01*
X14440774Y-10167226D02*
X14574107Y-10167226D01*
X14488393Y-10367226D01*
X14688393Y-10167226D02*
X14707440Y-10167226D01*
X14726488Y-10176750D01*
X14736012Y-10186274D01*
X14745536Y-10205321D01*
X14755059Y-10243417D01*
X14755059Y-10291036D01*
X14745536Y-10329131D01*
X14736012Y-10348179D01*
X14726488Y-10357702D01*
X14707440Y-10367226D01*
X14688393Y-10367226D01*
X14669345Y-10357702D01*
X14659821Y-10348179D01*
X14650298Y-10329131D01*
X14640774Y-10291036D01*
X14640774Y-10243417D01*
X14650298Y-10205321D01*
X14659821Y-10186274D01*
X14669345Y-10176750D01*
X14688393Y-10167226D01*
X14850298Y-10367226D02*
X14888393Y-10367226D01*
X14907440Y-10357702D01*
X14916964Y-10348179D01*
X14936012Y-10319607D01*
X14945536Y-10281512D01*
X14945536Y-10205321D01*
X14936012Y-10186274D01*
X14926488Y-10176750D01*
X14907440Y-10167226D01*
X14869345Y-10167226D01*
X14850298Y-10176750D01*
X14840774Y-10186274D01*
X14831250Y-10205321D01*
X14831250Y-10252940D01*
X14840774Y-10271988D01*
X14850298Y-10281512D01*
X14869345Y-10291036D01*
X14907440Y-10291036D01*
X14926488Y-10281512D01*
X14936012Y-10271988D01*
X14945536Y-10252940D01*
X15021726Y-10167226D02*
X15021726Y-10205321D01*
X15097917Y-10167226D02*
X15097917Y-10205321D01*
X15393155Y-10443417D02*
X15383631Y-10433893D01*
X15364583Y-10405321D01*
X15355059Y-10386274D01*
X15345536Y-10357702D01*
X15336012Y-10310083D01*
X15336012Y-10271988D01*
X15345536Y-10224369D01*
X15355059Y-10195798D01*
X15364583Y-10176750D01*
X15383631Y-10148179D01*
X15393155Y-10138655D01*
X15459821Y-10186274D02*
X15469345Y-10176750D01*
X15488393Y-10167226D01*
X15536012Y-10167226D01*
X15555059Y-10176750D01*
X15564583Y-10186274D01*
X15574107Y-10205321D01*
X15574107Y-10224369D01*
X15564583Y-10252940D01*
X15450298Y-10367226D01*
X15574107Y-10367226D01*
X15812202Y-10367226D02*
X15812202Y-10167226D01*
X15897917Y-10367226D02*
X15897917Y-10262464D01*
X15888393Y-10243417D01*
X15869345Y-10233893D01*
X15840774Y-10233893D01*
X15821726Y-10243417D01*
X15812202Y-10252940D01*
X16021726Y-10367226D02*
X16002678Y-10357702D01*
X15993155Y-10348179D01*
X15983631Y-10329131D01*
X15983631Y-10271988D01*
X15993155Y-10252940D01*
X16002678Y-10243417D01*
X16021726Y-10233893D01*
X16050298Y-10233893D01*
X16069345Y-10243417D01*
X16078869Y-10252940D01*
X16088393Y-10271988D01*
X16088393Y-10329131D01*
X16078869Y-10348179D01*
X16069345Y-10357702D01*
X16050298Y-10367226D01*
X16021726Y-10367226D01*
X16202678Y-10367226D02*
X16183631Y-10357702D01*
X16174107Y-10338655D01*
X16174107Y-10167226D01*
X16355059Y-10357702D02*
X16336012Y-10367226D01*
X16297917Y-10367226D01*
X16278869Y-10357702D01*
X16269345Y-10338655D01*
X16269345Y-10262464D01*
X16278869Y-10243417D01*
X16297917Y-10233893D01*
X16336012Y-10233893D01*
X16355059Y-10243417D01*
X16364583Y-10262464D01*
X16364583Y-10281512D01*
X16269345Y-10300560D01*
X16440774Y-10357702D02*
X16459821Y-10367226D01*
X16497917Y-10367226D01*
X16516964Y-10357702D01*
X16526488Y-10338655D01*
X16526488Y-10329131D01*
X16516964Y-10310083D01*
X16497917Y-10300560D01*
X16469345Y-10300560D01*
X16450298Y-10291036D01*
X16440774Y-10271988D01*
X16440774Y-10262464D01*
X16450298Y-10243417D01*
X16469345Y-10233893D01*
X16497917Y-10233893D01*
X16516964Y-10243417D01*
X16593155Y-10443417D02*
X16602678Y-10433893D01*
X16621726Y-10405321D01*
X16631250Y-10386274D01*
X16640774Y-10357702D01*
X16650298Y-10310083D01*
X16650298Y-10271988D01*
X16640774Y-10224369D01*
X16631250Y-10195798D01*
X16621726Y-10176750D01*
X16602678Y-10148179D01*
X16593155Y-10138655D01*
X16955060Y-10443417D02*
X16945536Y-10433893D01*
X16926488Y-10405321D01*
X16916964Y-10386274D01*
X16907440Y-10357702D01*
X16897917Y-10310083D01*
X16897917Y-10271988D01*
X16907440Y-10224369D01*
X16916964Y-10195798D01*
X16926488Y-10176750D01*
X16945536Y-10148179D01*
X16955060Y-10138655D01*
X17031250Y-10233893D02*
X17031250Y-10367226D01*
X17031250Y-10252940D02*
X17040774Y-10243417D01*
X17059821Y-10233893D01*
X17088393Y-10233893D01*
X17107440Y-10243417D01*
X17116964Y-10262464D01*
X17116964Y-10367226D01*
X17240774Y-10367226D02*
X17221726Y-10357702D01*
X17212202Y-10348179D01*
X17202679Y-10329131D01*
X17202679Y-10271988D01*
X17212202Y-10252940D01*
X17221726Y-10243417D01*
X17240774Y-10233893D01*
X17269345Y-10233893D01*
X17288393Y-10243417D01*
X17297917Y-10252940D01*
X17307440Y-10271988D01*
X17307440Y-10329131D01*
X17297917Y-10348179D01*
X17288393Y-10357702D01*
X17269345Y-10367226D01*
X17240774Y-10367226D01*
X17364583Y-10233893D02*
X17440774Y-10233893D01*
X17393155Y-10167226D02*
X17393155Y-10338655D01*
X17402679Y-10357702D01*
X17421726Y-10367226D01*
X17440774Y-10367226D01*
X17659821Y-10233893D02*
X17659821Y-10433893D01*
X17659821Y-10243417D02*
X17678869Y-10233893D01*
X17716964Y-10233893D01*
X17736012Y-10243417D01*
X17745536Y-10252940D01*
X17755060Y-10271988D01*
X17755060Y-10329131D01*
X17745536Y-10348179D01*
X17736012Y-10357702D01*
X17716964Y-10367226D01*
X17678869Y-10367226D01*
X17659821Y-10357702D01*
X17869345Y-10367226D02*
X17850298Y-10357702D01*
X17840774Y-10338655D01*
X17840774Y-10167226D01*
X18031250Y-10367226D02*
X18031250Y-10262464D01*
X18021726Y-10243417D01*
X18002679Y-10233893D01*
X17964583Y-10233893D01*
X17945536Y-10243417D01*
X18031250Y-10357702D02*
X18012202Y-10367226D01*
X17964583Y-10367226D01*
X17945536Y-10357702D01*
X17936012Y-10338655D01*
X17936012Y-10319607D01*
X17945536Y-10300560D01*
X17964583Y-10291036D01*
X18012202Y-10291036D01*
X18031250Y-10281512D01*
X18097917Y-10233893D02*
X18174107Y-10233893D01*
X18126488Y-10167226D02*
X18126488Y-10338655D01*
X18136012Y-10357702D01*
X18155060Y-10367226D01*
X18174107Y-10367226D01*
X18316964Y-10357702D02*
X18297917Y-10367226D01*
X18259821Y-10367226D01*
X18240774Y-10357702D01*
X18231250Y-10338655D01*
X18231250Y-10262464D01*
X18240774Y-10243417D01*
X18259821Y-10233893D01*
X18297917Y-10233893D01*
X18316964Y-10243417D01*
X18326488Y-10262464D01*
X18326488Y-10281512D01*
X18231250Y-10300560D01*
X18497917Y-10367226D02*
X18497917Y-10167226D01*
X18497917Y-10357702D02*
X18478869Y-10367226D01*
X18440774Y-10367226D01*
X18421726Y-10357702D01*
X18412202Y-10348179D01*
X18402679Y-10329131D01*
X18402679Y-10271988D01*
X18412202Y-10252940D01*
X18421726Y-10243417D01*
X18440774Y-10233893D01*
X18478869Y-10233893D01*
X18497917Y-10243417D01*
X18574107Y-10443417D02*
X18583631Y-10433893D01*
X18602679Y-10405321D01*
X18612202Y-10386274D01*
X18621726Y-10357702D01*
X18631250Y-10310083D01*
X18631250Y-10271988D01*
X18621726Y-10224369D01*
X18612202Y-10195798D01*
X18602679Y-10176750D01*
X18583631Y-10148179D01*
X18574107Y-10138655D01*
M02*
