M48
; FORMAT={-:-/ absolute / metric / decimal}
; #@! TF.GenerationSoftware,Kicad,Pcbnew,6.0.10+dfsg-1~bpo11+1
; #@! TF.FileFunction,Plated,1,6,PTH
FMAT,2
METRIC
; #@! TA.AperFunction,Plated,PTH,ViaDrill
T1C0.200
; #@! TA.AperFunction,Plated,PTH,ComponentDrill
T2C0.550
; #@! TA.AperFunction,Plated,PTH,ComponentDrill
T3C0.600
; #@! TA.AperFunction,Plated,PTH,ComponentDrill
T4C0.650
; #@! TA.AperFunction,Plated,PTH,ComponentDrill
T5C1.000
%
G90
G05
T1
X128.471Y-86.023
X128.562Y-84.237
X128.662Y-82.237
X128.762Y-79.537
X131.058Y-86.037
X131.262Y-83.037
X131.676Y-82.021
X131.963Y-77.337
X134.789Y-78.25
X134.847Y-77.134
X134.866Y-88.901
X135.572Y-86.342
X135.862Y-83.938
X135.862Y-88.537
X136.162Y-79.438
X136.512Y-80.887
X137.4Y-84.19
X137.467Y-80.883
X138.413Y-82.938
X139.762Y-85.862
X143.262Y-82.037
X144.162Y-80.537
X144.162Y-81.037
X144.262Y-85.938
X144.262Y-89.037
X146.1Y-84.4
X146.312Y-89.037
X147.262Y-81.037
X147.262Y-87.138
X148.213Y-89.037
X148.869Y-85.144
X149.062Y-80.438
X149.062Y-81.737
X149.062Y-84.037
X149.562Y-86.737
X149.562Y-89.037
X150.262Y-89.037
X150.362Y-79.862
X150.46Y-85.716
X152.062Y-84.013
X153.662Y-82.137
X153.862Y-80.438
X154.463Y-84.837
X155.062Y-85.138
X155.062Y-85.837
X155.307Y-80.203
X155.881Y-83.083
X155.881Y-83.538
X155.953Y-80.326
X156.201Y-85.699
X157.158Y-84.744
X157.205Y-80.987
X157.263Y-82.902
X157.321Y-79.955
X158.009Y-86.983
X158.561Y-86.038
X159.117Y-87.283
X159.362Y-80.537
X159.7Y-84.1
X159.785Y-85.165
X159.859Y-76.714
X160.13Y-87.97
X160.162Y-89.138
X160.2Y-83.1
X160.4Y-84.2
X161.13Y-87.97
X161.162Y-89.138
X161.213Y-85.427
X161.4Y-79.5
X161.4Y-82.6
X161.667Y-84.438
X161.963Y-76.837
X162.162Y-89.138
X162.673Y-85.429
X162.961Y-76.943
X163.139Y-84.398
X163.162Y-89.138
X163.702Y-87.592
X163.762Y-84.737
X164.162Y-89.138
X164.413Y-84.515
X164.6Y-79.5
X164.6Y-82.6
X165.0Y-83.35
X165.162Y-89.138
X165.456Y-84.438
X165.462Y-85.145
X166.225Y-78.329
X166.463Y-87.737
X166.662Y-86.138
X167.41Y-78.594
X167.652Y-85.096
X167.779Y-84.033
X168.3Y-79.7
X168.395Y-86.105
X168.504Y-85.058
X168.679Y-83.388
X169.1Y-84.8
X169.538Y-86.195
X170.062Y-81.938
X170.1Y-80.1
X170.463Y-83.938
X170.773Y-78.908
X170.8Y-76.5
X170.925Y-87.075
X170.963Y-83.837
X171.126Y-81.065
X171.6Y-79.2
X171.7Y-78.267
X171.9Y-77.6
X171.964Y-82.85
X173.075Y-82.138
X173.162Y-79.138
X173.213Y-86.787
X173.4Y-88.6
X173.898Y-81.236
X173.963Y-83.837
X174.032Y-86.567
X175.318Y-77.237
X175.4Y-79.9
X175.5Y-86.0
X175.5Y-88.2
X175.562Y-80.938
X176.11Y-88.51
X176.2Y-85.7
T2
X131.362Y-76.688
X131.362Y-80.388
T5
X137.438Y-77.347
X137.438Y-88.727
X139.977Y-77.347
X139.977Y-88.727
X153.547Y-77.347
X153.547Y-88.727
X156.088Y-77.347
X156.088Y-88.727
X179.987Y-77.962
X179.987Y-80.502
X179.987Y-83.042
X179.987Y-85.582
X179.987Y-88.123
X182.528Y-77.962
X182.528Y-80.502
X182.528Y-83.042
X182.528Y-85.582
X182.528Y-88.123
T3
G00X120.188Y-80.218
M15
G01X120.787Y-80.218
M16
G05
G00X120.188Y-88.858
M15
G01X120.787Y-88.858
M16
G05
G00X124.117Y-80.218
M15
G01X125.218Y-80.218
M16
G05
G00X124.117Y-88.858
M15
G01X125.218Y-88.858
M16
G05
T4
G00X123.112Y-75.987
M15
G01X121.812Y-75.987
M16
G05
G00X123.112Y-90.087
M15
G01X121.812Y-90.087
M16
G05
G00X129.012Y-75.987
M15
G01X127.712Y-75.987
M16
G05
G00X129.012Y-90.087
M15
G01X127.712Y-90.087
M16
G05
T0
M30
